<svg xmlns="http://www.w3.org/2000/svg" width="242.857" height="511.626" viewBox="0 0 242.857 511.626"><g fill="#070042"><path d="M11.694 262.291l.061-.46h.43l-.13.979c.449.08.869.25 1.229.479l-.229.56a2.884 2.884 0 0 0-1.079-.459l-.31 2.278c.879.27 1.738.68 1.738 1.789 0 1.039-.859 1.799-2.108 1.799h-.15l-.149 1.1h-.43l.149-1.149c-.51-.07-.989-.26-1.419-.529l.229-.57c.37.25.79.449 1.27.54 0-.011.08-.62.17-1.239.05-.37.11-.779.17-1.24-.85-.27-1.719-.619-1.719-1.719 0-.999.819-1.699 1.988-1.699.08 0 .15 0 .23.01 0-.011.03-.241.059-.47zm-.29 2.148c.051-.32.101-.689.15-1.109h-.15c-.929 0-1.369.5-1.369 1.069 0 .63.46.88 1.22 1.149-.01-.009.08-.559.149-1.109zm-.09 4.248c.89 0 1.479-.51 1.479-1.18 0-.649-.45-.939-1.26-1.209l-.319 2.389h.1zM18.15 269.308c-1.919 0-3.362-1.442-3.362-3.487 0-2.046 1.443-3.487 3.362-3.487 1.933 0 3.39 1.441 3.39 3.487 0 2.045-1.457 3.487-3.39 3.487zm0-6.148c-1.471 0-2.493 1.148-2.493 2.661s1.022 2.661 2.493 2.661c1.499 0 2.521-1.148 2.521-2.661s-1.022-2.661-2.521-2.661zM25.331 265.428h5.295l.042.687h-5.379l.042-.687zM36.469 262.291l.061-.46h.43l-.13.979c.449.08.869.25 1.229.479l-.229.56a2.884 2.884 0 0 0-1.079-.459l-.31 2.278c.879.27 1.738.68 1.738 1.789 0 1.039-.859 1.799-2.108 1.799h-.15l-.149 1.1h-.43l.149-1.149c-.51-.07-.989-.26-1.419-.529l.229-.57c.37.25.79.449 1.27.54 0-.011.08-.62.17-1.239.05-.37.11-.779.17-1.24-.85-.27-1.719-.619-1.719-1.719 0-.999.819-1.699 1.988-1.699.08 0 .15 0 .23.01-.001-.011.029-.241.059-.47zm-.29 2.148c.051-.32.101-.689.15-1.109h-.15c-.929 0-1.369.5-1.369 1.069 0 .63.46.88 1.22 1.149-.01-.009.079-.559.149-1.109zm-.09 4.248c.89 0 1.479-.51 1.479-1.18 0-.649-.45-.939-1.26-1.209l-.319 2.389h.1zM39.549 268.328c2.312-1.75 3.782-2.73 3.782-3.865 0-.742-.561-1.317-1.471-1.317-.715 0-1.373.322-1.989.812l-.308-.742c.658-.519 1.429-.882 2.381-.882 1.358 0 2.297.826 2.297 2.017 0 1.526-1.568 2.535-3.46 3.95h3.782v.826h-5.015v-.799zM48.048 266.073c1.751 0 2.913 1.106 2.913 2.661 0 1.766-1.345 2.984-3.053 2.984-.799 0-1.682-.253-2.241-.574l.168-.854c.56.321 1.316.602 2.101.602 1.232 0 2.144-.826 2.144-2.114 0-1.064-.812-1.947-2.115-1.947-.812 0-1.148.084-1.667.266l-.294-.279.561-4.314h4.16l.042.84h-3.488l-.406 2.871c.32-.1.629-.142 1.175-.142zM55.651 269.308c-1.919 0-3.361-1.442-3.361-3.487 0-2.046 1.442-3.487 3.361-3.487 1.933 0 3.39 1.441 3.39 3.487 0 2.045-1.457 3.487-3.39 3.487zm0-6.148c-1.471 0-2.493 1.148-2.493 2.661s1.022 2.661 2.493 2.661c1.499 0 2.521-1.148 2.521-2.661s-1.022-2.661-2.521-2.661zM60.983 267.796c.505 0 .995.447.995 1.105 0 .953-.785 1.793-1.737 2.424l-.378-.378c.896-.631 1.232-1.177 1.232-1.667 0-.379-.252-.561-.868-.799.043-.349.294-.685.756-.685zM66.361 269.308c-1.919 0-3.362-1.442-3.362-3.487 0-2.046 1.443-3.487 3.362-3.487 1.933 0 3.39 1.441 3.39 3.487 0 2.045-1.457 3.487-3.39 3.487zm0-6.148c-1.471 0-2.493 1.148-2.493 2.661s1.022 2.661 2.493 2.661c1.499 0 2.521-1.148 2.521-2.661s-1.022-2.661-2.521-2.661zM74.803 269.308c-1.919 0-3.362-1.442-3.362-3.487 0-2.046 1.443-3.487 3.362-3.487 1.933 0 3.39 1.441 3.39 3.487-.001 2.045-1.458 3.487-3.39 3.487zm0-6.148c-1.471 0-2.493 1.148-2.493 2.661s1.022 2.661 2.493 2.661c1.499 0 2.521-1.148 2.521-2.661s-1.022-2.661-2.521-2.661zM83.244 269.308c-1.919 0-3.362-1.442-3.362-3.487 0-2.046 1.443-3.487 3.362-3.487 1.933 0 3.39 1.441 3.39 3.487 0 2.045-1.457 3.487-3.39 3.487zm0-6.148c-1.471 0-2.493 1.148-2.493 2.661s1.022 2.661 2.493 2.661c1.499 0 2.521-1.148 2.521-2.661s-1.022-2.661-2.521-2.661zM193.511 268.972h-1.724v-2.381h-2.353l.042-1.625h2.311v-2.381h1.724v2.381h2.311l.042 1.625h-2.353v2.381zM200.664 269.336c-2.171 0-3.516-1.4-3.516-3.544 0-2.171 1.4-3.572 3.544-3.572 2.171 0 3.529 1.401 3.529 3.53.001 2.158-1.386 3.586-3.557 3.586zm.014-5.491c-.882 0-1.442.715-1.442 1.934 0 1.232.574 1.934 1.457 1.934.854 0 1.442-.701 1.442-1.934s-.574-1.934-1.457-1.934zM206.67 269.336c-.798 0-1.331-.504-1.331-1.274 0-.785.533-1.275 1.331-1.275.784 0 1.316.49 1.316 1.275 0 .771-.532 1.274-1.316 1.274zM212.592 269.336c-2.171 0-3.516-1.4-3.516-3.544 0-2.171 1.4-3.572 3.544-3.572 2.171 0 3.529 1.401 3.529 3.53 0 2.158-1.386 3.586-3.557 3.586zm.013-5.491c-.882 0-1.442.715-1.442 1.934 0 1.232.574 1.934 1.457 1.934.854 0 1.442-.701 1.442-1.934s-.574-1.934-1.457-1.934zM219.689 264.924c-1.555 0-2.451-.995-2.451-2.452 0-1.456.938-2.437 2.466-2.437 1.526 0 2.451.98 2.451 2.437 0 1.457-.925 2.452-2.466 2.452zm-1.302 4.412l7.256-9.161h1.625l-7.256 9.161h-1.625zm1.302-8.18c-.616 0-1.008.49-1.008 1.331 0 .827.392 1.303 1.022 1.303.602 0 1.008-.505 1.008-1.303.001-.841-.405-1.331-1.022-1.331zm6.234 8.32c-1.555 0-2.451-.994-2.451-2.451s.938-2.438 2.466-2.438c1.526 0 2.451.98 2.451 2.438 0 1.471-.911 2.451-2.466 2.451zm.015-3.754c-.631 0-1.022.49-1.022 1.317 0 .841.392 1.316 1.022 1.316.616 0 1.008-.49 1.008-1.316-.001-.827-.392-1.317-1.008-1.317zM11.694 291.291l.061-.46h.43l-.13.979c.449.08.869.25 1.229.479l-.229.56a2.886 2.886 0 0 0-1.079-.46l-.31 2.279c.879.27 1.738.68 1.738 1.789 0 1.039-.859 1.799-2.108 1.799h-.15l-.149 1.1h-.43l.149-1.149c-.51-.07-.989-.26-1.419-.53l.229-.569c.37.25.79.45 1.27.54 0-.01.08-.62.17-1.239.05-.37.11-.78.17-1.239-.85-.271-1.719-.62-1.719-1.72 0-.999.819-1.699 1.988-1.699.08 0 .15 0 .23.011 0-.012.03-.242.059-.471zm-.29 2.148c.051-.319.101-.689.15-1.109h-.15c-.929 0-1.369.5-1.369 1.069 0 .63.46.88 1.22 1.149-.01-.009.08-.559.149-1.109zm-.09 4.248c.89 0 1.479-.51 1.479-1.18 0-.649-.45-.939-1.26-1.209l-.319 2.389h.1zM14.774 297.328c2.312-1.751 3.782-2.731 3.782-3.865 0-.743-.561-1.317-1.471-1.317-.715 0-1.373.322-1.989.812l-.309-.742c.659-.519 1.43-.883 2.382-.883 1.358 0 2.297.827 2.297 2.018 0 1.526-1.568 2.535-3.46 3.95h3.782v.826h-5.015v-.799zM23.273 295.073c1.751 0 2.913 1.106 2.913 2.661 0 1.766-1.345 2.984-3.053 2.984-.799 0-1.682-.253-2.241-.574l.168-.854c.56.321 1.316.602 2.101.602 1.232 0 2.144-.826 2.144-2.115 0-1.064-.812-1.946-2.115-1.946-.812 0-1.148.084-1.667.266l-.294-.28.561-4.314h4.16l.042.841h-3.488l-.406 2.871c.321-.1.63-.142 1.175-.142zM30.877 298.308c-1.919 0-3.362-1.442-3.362-3.487s1.443-3.488 3.362-3.488c1.933 0 3.39 1.443 3.39 3.488s-1.457 3.487-3.39 3.487zm0-6.148c-1.471 0-2.493 1.148-2.493 2.661s1.022 2.661 2.493 2.661c1.499 0 2.521-1.148 2.521-2.661s-1.022-2.661-2.521-2.661zM36.209 296.795c.505 0 .995.448.995 1.106 0 .953-.785 1.793-1.737 2.424l-.378-.378c.896-.631 1.232-1.177 1.232-1.667 0-.379-.252-.561-.868-.799.042-.349.294-.686.756-.686zM41.587 298.308c-1.919 0-3.361-1.442-3.361-3.487s1.442-3.488 3.361-3.488c1.933 0 3.39 1.443 3.39 3.488s-1.457 3.487-3.39 3.487zm0-6.148c-1.471 0-2.493 1.148-2.493 2.661s1.022 2.661 2.493 2.661c1.499 0 2.521-1.148 2.521-2.661s-1.022-2.661-2.521-2.661zM50.028 298.308c-1.919 0-3.361-1.442-3.361-3.487s1.442-3.488 3.361-3.488c1.933 0 3.39 1.443 3.39 3.488s-1.457 3.487-3.39 3.487zm0-6.148c-1.471 0-2.493 1.148-2.493 2.661s1.022 2.661 2.493 2.661c1.499 0 2.521-1.148 2.521-2.661s-1.022-2.661-2.521-2.661zM54.94 293.056l-.042-.799 2.521-.925v6.794h-.854v-5.688l-1.625.618zM61.982 294.428h5.295l.042.687H61.94l.042-.687zM73.12 291.291l.061-.46h.43l-.13.979c.449.08.869.25 1.229.479l-.229.56a2.886 2.886 0 0 0-1.079-.46l-.31 2.279c.879.27 1.738.68 1.738 1.789 0 1.039-.859 1.799-2.108 1.799h-.15l-.149 1.1h-.43l.149-1.149c-.51-.07-.989-.26-1.419-.53l.229-.569c.37.25.79.45 1.27.54 0-.01.08-.62.17-1.239.05-.37.11-.78.17-1.239-.85-.271-1.719-.62-1.719-1.72 0-.999.819-1.699 1.988-1.699.08 0 .15 0 .23.011 0-.012.03-.242.059-.471zm-.29 2.148c.051-.319.101-.689.15-1.109h-.15c-.929 0-1.369.5-1.369 1.069 0 .63.46.88 1.22 1.149-.01-.009.08-.559.149-1.109zm-.09 4.248c.89 0 1.479-.51 1.479-1.18 0-.649-.45-.939-1.26-1.209l-.319 2.389h.1zM81.005 300.704h-.841v-2.787h-4.3l-.112-.603 4.497-6.023h.756v5.8h1.331l.042.826h-1.373v2.787zm-4.132-3.614h3.291v-4.413l-3.291 4.413zM83.55 293.056l-.042-.799 2.521-.925v6.794h-.854v-5.688l-1.625.618zM88.464 293.056l-.042-.799 2.521-.925v6.794h-.854v-5.688l-1.625.618zM93.727 296.795c.505 0 .995.448.995 1.106 0 .953-.785 1.793-1.737 2.424l-.378-.378c.896-.631 1.232-1.177 1.232-1.667 0-.379-.252-.561-.868-.799.042-.349.294-.686.756-.686zM97.929 295.073c1.751 0 2.913 1.106 2.913 2.661 0 1.766-1.345 2.984-3.053 2.984-.799 0-1.682-.253-2.241-.574l.168-.854c.56.321 1.316.602 2.101.602 1.232 0 2.144-.826 2.144-2.115 0-1.064-.812-1.946-2.115-1.946-.812 0-1.148.084-1.667.266l-.294-.28.561-4.314h4.16l.042.841H97.16l-.406 2.871c.32-.1.629-.142 1.175-.142zM105.531 298.308c-1.919 0-3.362-1.442-3.362-3.487s1.443-3.488 3.362-3.488c1.933 0 3.39 1.443 3.39 3.488s-1.457 3.487-3.39 3.487zm0-6.148c-1.471 0-2.493 1.148-2.493 2.661s1.022 2.661 2.493 2.661c1.499 0 2.521-1.148 2.521-2.661s-1.022-2.661-2.521-2.661zM113.973 298.308c-1.919 0-3.362-1.442-3.362-3.487s1.443-3.488 3.362-3.488c1.933 0 3.39 1.443 3.39 3.488s-1.458 3.487-3.39 3.487zm0-6.148c-1.471 0-2.493 1.148-2.493 2.661s1.022 2.661 2.493 2.661c1.499 0 2.521-1.148 2.521-2.661s-1.022-2.661-2.521-2.661zM193.51 297.972h-1.724v-2.381h-2.353l.042-1.625h2.311v-2.382h1.724v2.382h2.311l.042 1.625h-2.353v2.381zM203.171 300.564h-2.018v-2.479h-3.866l-.266-1.331 3.796-5.421h2.354v5.043h1.344l.043 1.709h-1.387v2.479zm-4.049-4.147h2.129v-3.18l-2.129 3.18zM207.144 298.336c-.798 0-1.331-.504-1.331-1.274 0-.784.533-1.274 1.331-1.274.784 0 1.316.49 1.316 1.274 0 .771-.532 1.274-1.316 1.274zM213.066 298.336c-2.171 0-3.516-1.4-3.516-3.544 0-2.171 1.4-3.571 3.544-3.571 2.171 0 3.529 1.4 3.529 3.529.001 2.158-1.386 3.586-3.557 3.586zm.014-5.491c-.882 0-1.442.715-1.442 1.934 0 1.232.574 1.933 1.457 1.933.854 0 1.442-.7 1.442-1.933s-.574-1.934-1.457-1.934zM220.164 293.924c-1.555 0-2.451-.995-2.451-2.451 0-1.457.938-2.438 2.466-2.438 1.526 0 2.451.98 2.451 2.438 0 1.456-.925 2.451-2.466 2.451zm-1.303 4.412l7.256-9.161h1.625l-7.256 9.161h-1.625zm1.303-8.18c-.616 0-1.008.49-1.008 1.331 0 .826.392 1.303 1.022 1.303.602 0 1.008-.504 1.008-1.303.001-.841-.406-1.331-1.022-1.331zm6.233 8.321c-1.555 0-2.451-.995-2.451-2.452 0-1.456.938-2.437 2.466-2.437 1.526 0 2.451.98 2.451 2.437 0 1.472-.911 2.452-2.466 2.452zm.015-3.755c-.631 0-1.022.49-1.022 1.317 0 .84.392 1.316 1.022 1.316.616 0 1.008-.49 1.008-1.316 0-.827-.392-1.317-1.008-1.317zM11.694 320.291l.061-.46h.43l-.13.979c.449.08.869.25 1.229.479l-.229.56a2.886 2.886 0 0 0-1.079-.46l-.31 2.279c.879.27 1.738.68 1.738 1.789 0 1.039-.859 1.799-2.108 1.799h-.15l-.149 1.1h-.43l.149-1.149c-.51-.07-.989-.26-1.419-.53l.229-.569c.37.25.79.45 1.27.54 0-.01.08-.62.17-1.239.05-.37.11-.78.17-1.239-.85-.271-1.719-.62-1.719-1.72 0-.999.819-1.699 1.988-1.699.08 0 .15 0 .23.011 0-.012.03-.242.059-.471zm-.29 2.148c.051-.319.101-.689.15-1.109h-.15c-.929 0-1.369.5-1.369 1.069 0 .63.46.88 1.22 1.149-.01-.009.08-.559.149-1.109zm-.09 4.248c.89 0 1.479-.51 1.479-1.18 0-.649-.45-.939-1.26-1.209l-.319 2.389h.1zM19.579 329.704h-.841v-2.787h-4.3l-.112-.603 4.497-6.023h.756v5.8h1.331l.042.826h-1.373v2.787zm-4.132-3.614h3.291v-4.413l-3.291 4.413zM22.124 322.056l-.042-.799 2.521-.925v6.794h-.854v-5.688l-1.625.618zM27.038 322.056l-.042-.799 2.521-.925v6.794h-.854v-5.688l-1.625.618zM32.301 325.795c.505 0 .995.448.995 1.106 0 .953-.785 1.793-1.737 2.424l-.378-.378c.896-.631 1.232-1.177 1.232-1.667 0-.379-.252-.561-.868-.799.042-.349.294-.686.756-.686zM36.503 324.073c1.751 0 2.913 1.106 2.913 2.661 0 1.766-1.345 2.984-3.053 2.984-.799 0-1.682-.253-2.241-.574l.168-.854c.56.321 1.316.602 2.101.602 1.232 0 2.144-.826 2.144-2.115 0-1.064-.812-1.946-2.115-1.946-.812 0-1.148.084-1.667.266l-.294-.28.561-4.314h4.16l.042.841h-3.488l-.406 2.871c.32-.1.629-.142 1.175-.142zM44.105 327.308c-1.919 0-3.362-1.442-3.362-3.487s1.443-3.488 3.362-3.488c1.933 0 3.39 1.443 3.39 3.488s-1.457 3.487-3.39 3.487zm0-6.148c-1.471 0-2.493 1.148-2.493 2.661s1.022 2.661 2.493 2.661c1.499 0 2.521-1.148 2.521-2.661s-1.022-2.661-2.521-2.661zM49.018 322.056l-.042-.799 2.521-.925v6.794h-.854v-5.688l-1.625.618zM56.06 323.428h5.295l.042.687h-5.379l.042-.687zM67.197 320.291l.061-.46h.43l-.13.979c.449.08.869.25 1.229.479l-.229.56a2.886 2.886 0 0 0-1.079-.46l-.31 2.279c.879.27 1.738.68 1.738 1.789 0 1.039-.859 1.799-2.108 1.799h-.15l-.149 1.1h-.43l.149-1.149c-.51-.07-.989-.26-1.419-.53l.229-.569c.37.25.79.45 1.27.54 0-.01.08-.62.17-1.239.05-.37.11-.78.17-1.239-.85-.271-1.719-.62-1.719-1.72 0-.999.819-1.699 1.988-1.699.08 0 .15 0 .23.011 0-.012.03-.242.059-.471zm-.29 2.148c.051-.319.101-.689.15-1.109h-.15c-.929 0-1.369.5-1.369 1.069 0 .63.46.88 1.22 1.149-.01-.009.08-.559.149-1.109zm-.09 4.248c.89 0 1.479-.51 1.479-1.18 0-.649-.45-.939-1.26-1.209l-.319 2.389h.1zM75.082 329.704h-.841v-2.787h-4.3l-.112-.603 4.496-6.023h.757v5.8h1.331l.042.826h-1.373v2.787zm-4.132-3.614h3.291v-4.413l-3.291 4.413zM82.474 318.19l.252.812c-2.354.56-3.782 2.003-4.188 3.781l.028.015c.616-.574 1.387-.98 2.354-.98 1.33 0 2.535.924 2.535 2.605 0 1.652-1.121 2.885-2.872 2.885-1.904 0-2.983-1.582-2.983-3.516-.001-2.325 1.553-4.818 4.874-5.602zm-1.864 8.32c1.219 0 1.961-.854 1.961-2.045 0-1.177-.798-1.877-1.821-1.877-.854 0-1.624.378-2.198.924a2.375 2.375 0 0 0-.043.463c0 1.345.77 2.535 2.101 2.535zM89.838 329.704h-.841v-2.787h-4.3l-.112-.603 4.496-6.023h.757v5.8h1.331l.042.826h-1.373v2.787zm-4.132-3.614h3.291v-4.413l-3.291 4.413zM93.152 325.795c.505 0 .995.448.995 1.106 0 .953-.785 1.793-1.737 2.424l-.378-.378c.896-.631 1.232-1.177 1.232-1.667 0-.379-.252-.561-.868-.799.042-.349.294-.686.756-.686zM101.011 324.872c0 1.274-.938 2.437-2.802 2.437-1.919 0-2.802-1.078-2.802-2.325 0-1.261 1.093-1.975 1.85-2.241-.925-.406-1.709-.98-1.709-2.045 0-1.414 1.093-2.409 2.718-2.409 1.61 0 2.605.98 2.605 2.312 0 1.12-.911 1.835-1.64 2.171.967.446 1.78 1.02 1.78 2.1zm-4.721 0c0 1.008.715 1.667 1.947 1.667 1.289 0 1.891-.631 1.891-1.541 0-1.079-1.092-1.485-2.199-1.961-.882.294-1.639.938-1.639 1.835zm3.698-4.161c0-.981-.742-1.667-1.751-1.667-1.163 0-1.807.729-1.807 1.555 0 .967 1.064 1.415 2.143 1.863.784-.322 1.415-.896 1.415-1.751zM104.635 324.073c1.751 0 2.913 1.106 2.913 2.661 0 1.766-1.345 2.984-3.053 2.984-.799 0-1.682-.253-2.241-.574l.168-.854c.56.321 1.316.602 2.101.602 1.232 0 2.144-.826 2.144-2.115 0-1.064-.812-1.946-2.115-1.946-.812 0-1.148.084-1.667.266l-.294-.28.561-4.314h4.16l.042.841h-3.488l-.406 2.871c.32-.1.629-.142 1.175-.142zM112.237 327.308c-1.919 0-3.361-1.442-3.361-3.487s1.442-3.488 3.361-3.488c1.933 0 3.39 1.443 3.39 3.488s-1.457 3.487-3.39 3.487zm0-6.148c-1.471 0-2.493 1.148-2.493 2.661s1.022 2.661 2.493 2.661c1.499 0 2.521-1.148 2.521-2.661s-1.022-2.661-2.521-2.661zM193.51 326.972h-1.724v-2.381h-2.353l.042-1.625h2.311v-2.382h1.724v2.382h2.311l.042 1.625h-2.353v2.381zM197.245 325.627c2.199-1.415 3.418-2.045 3.418-2.829 0-.49-.351-.784-1.064-.784-.616 0-1.331.279-2.045.742l-.477-1.597c.784-.547 1.919-.953 3.025-.953 1.808 0 2.857.911 2.857 2.213 0 1.163-.98 2.018-2.787 2.956h3.096l.028 1.751h-6.052v-1.499zM205.982 327.336c-.798 0-1.331-.504-1.331-1.274 0-.784.533-1.274 1.331-1.274.784 0 1.316.49 1.316 1.274.001.771-.531 1.274-1.316 1.274zM211.905 327.336c-2.171 0-3.516-1.4-3.516-3.544 0-2.171 1.4-3.571 3.544-3.571 2.171 0 3.529 1.4 3.529 3.529.001 2.158-1.386 3.586-3.557 3.586zm.014-5.491c-.882 0-1.442.715-1.442 1.934 0 1.232.574 1.933 1.457 1.933.854 0 1.442-.7 1.442-1.933s-.574-1.934-1.457-1.934zM219.003 322.924c-1.555 0-2.451-.995-2.451-2.451 0-1.457.938-2.438 2.466-2.438 1.526 0 2.451.98 2.451 2.438 0 1.456-.925 2.451-2.466 2.451zm-1.303 4.412l7.256-9.161h1.625l-7.256 9.161H217.7zm1.303-8.18c-.616 0-1.008.49-1.008 1.331 0 .826.392 1.303 1.022 1.303.602 0 1.008-.504 1.008-1.303 0-.841-.406-1.331-1.022-1.331zm6.233 8.321c-1.555 0-2.451-.995-2.451-2.452 0-1.456.938-2.437 2.466-2.437 1.526 0 2.451.98 2.451 2.437 0 1.472-.911 2.452-2.466 2.452zm.015-3.755c-.631 0-1.022.49-1.022 1.317 0 .84.392 1.316 1.022 1.316.616 0 1.008-.49 1.008-1.316 0-.827-.392-1.317-1.008-1.317zM11.694 349.291l.061-.46h.43l-.13.979c.449.08.869.25 1.229.479l-.229.56a2.886 2.886 0 0 0-1.079-.46l-.31 2.279c.879.27 1.738.68 1.738 1.789 0 1.039-.859 1.799-2.108 1.799h-.15l-.149 1.1h-.43l.149-1.149c-.51-.07-.989-.26-1.419-.53l.229-.569c.37.25.79.45 1.27.54 0-.01.08-.62.17-1.239.05-.37.11-.78.17-1.239-.85-.271-1.719-.62-1.719-1.72 0-.999.819-1.699 1.988-1.699.08 0 .15 0 .23.011 0-.012.03-.242.059-.471zm-.29 2.148c.051-.319.101-.689.15-1.109h-.15c-.929 0-1.369.5-1.369 1.069 0 .63.46.88 1.22 1.149-.01-.009.08-.559.149-1.109zm-.09 4.248c.89 0 1.479-.51 1.479-1.18 0-.649-.45-.939-1.26-1.209l-.319 2.389h.1zM19.579 358.704h-.841v-2.787h-4.3l-.112-.603 4.497-6.023h.756v5.8h1.331l.042.826h-1.373v2.787zm-4.132-3.614h3.291v-4.413l-3.291 4.413zM26.971 347.19l.252.812c-2.354.56-3.782 2.003-4.188 3.781l.028.015c.616-.574 1.387-.98 2.354-.98 1.33 0 2.535.924 2.535 2.605 0 1.652-1.121 2.885-2.872 2.885-1.904 0-2.983-1.582-2.983-3.516-.001-2.325 1.553-4.818 4.874-5.602zm-1.864 8.32c1.219 0 1.961-.854 1.961-2.045 0-1.177-.798-1.877-1.821-1.877-.854 0-1.624.378-2.199.924a2.458 2.458 0 0 0-.042.463c0 1.345.77 2.535 2.101 2.535zM34.335 358.704h-.841v-2.787h-4.3l-.112-.603 4.497-6.023h.756v5.8h1.331l.042.826h-1.373v2.787zm-4.132-3.614h3.291v-4.413l-3.291 4.413zM37.649 354.795c.505 0 .995.448.995 1.106 0 .953-.785 1.793-1.737 2.424l-.378-.378c.896-.631 1.232-1.177 1.232-1.667 0-.379-.252-.561-.868-.799.043-.349.295-.686.756-.686zM45.508 353.872c0 1.274-.938 2.437-2.802 2.437-1.919 0-2.802-1.078-2.802-2.325 0-1.261 1.093-1.975 1.85-2.241-.925-.406-1.709-.98-1.709-2.045 0-1.414 1.093-2.409 2.718-2.409 1.61 0 2.605.98 2.605 2.312 0 1.12-.911 1.835-1.64 2.171.967.446 1.78 1.02 1.78 2.1zm-4.721 0c0 1.008.715 1.667 1.947 1.667 1.289 0 1.891-.631 1.891-1.541 0-1.079-1.093-1.485-2.199-1.961-.882.294-1.639.938-1.639 1.835zm3.698-4.161c0-.981-.742-1.667-1.751-1.667-1.163 0-1.807.729-1.807 1.555 0 .967 1.064 1.415 2.143 1.863.784-.322 1.415-.896 1.415-1.751zM49.131 353.073c1.751 0 2.913 1.106 2.913 2.661 0 1.766-1.345 2.984-3.053 2.984-.799 0-1.682-.253-2.241-.574l.168-.854c.56.321 1.316.602 2.101.602 1.232 0 2.144-.826 2.144-2.115 0-1.064-.812-1.946-2.115-1.946-.812 0-1.148.084-1.667.266l-.294-.28.561-4.314h4.16l.042.841h-3.49l-.406 2.871c.322-.1.631-.142 1.177-.142zM53.344 351.056l-.042-.799 2.521-.925v6.794h-.854v-5.688l-1.625.618zM60.386 352.428h5.295l.042.687h-5.379l.042-.687zM71.523 349.291l.061-.46h.43l-.13.979c.449.08.869.25 1.229.479l-.229.56a2.886 2.886 0 0 0-1.079-.46l-.31 2.279c.879.27 1.738.68 1.738 1.789 0 1.039-.859 1.799-2.108 1.799h-.15l-.149 1.1h-.43l.149-1.149c-.51-.07-.989-.26-1.419-.53l.229-.569c.37.25.79.45 1.27.54 0-.01.08-.62.17-1.239.05-.37.11-.78.17-1.239-.85-.271-1.719-.62-1.719-1.72 0-.999.819-1.699 1.988-1.699.08 0 .15 0 .23.011 0-.012.03-.242.059-.471zm-.29 2.148c.051-.319.101-.689.15-1.109h-.15c-.929 0-1.369.5-1.369 1.069 0 .63.46.88 1.22 1.149-.01-.009.08-.559.149-1.109zm-.089 4.248c.89 0 1.479-.51 1.479-1.18 0-.649-.45-.939-1.26-1.209l-.319 2.389h.1zM76.593 353.073c1.751 0 2.913 1.106 2.913 2.661 0 1.766-1.345 2.984-3.053 2.984-.799 0-1.682-.253-2.241-.574l.168-.854c.56.321 1.316.602 2.101.602 1.232 0 2.144-.826 2.144-2.115 0-1.064-.812-1.946-2.115-1.946-.812 0-1.148.084-1.667.266l-.294-.28.561-4.314h4.16l.042.841h-3.488l-.406 2.871c.32-.1.629-.142 1.175-.142zM84.195 356.308c-1.919 0-3.362-1.442-3.362-3.487s1.443-3.488 3.362-3.488c1.933 0 3.39 1.443 3.39 3.488s-1.457 3.487-3.39 3.487zm0-6.148c-1.471 0-2.493 1.148-2.493 2.661s1.022 2.661 2.493 2.661c1.499 0 2.521-1.148 2.521-2.661s-1.022-2.661-2.521-2.661zM92.638 356.308c-1.919 0-3.361-1.442-3.361-3.487s1.442-3.488 3.361-3.488c1.933 0 3.39 1.443 3.39 3.488s-1.458 3.487-3.39 3.487zm0-6.148c-1.471 0-2.493 1.148-2.493 2.661s1.022 2.661 2.493 2.661c1.499 0 2.521-1.148 2.521-2.661s-1.022-2.661-2.521-2.661zM97.97 354.795c.505 0 .995.448.995 1.106 0 .953-.785 1.793-1.737 2.424l-.378-.378c.896-.631 1.232-1.177 1.232-1.667 0-.379-.252-.561-.868-.799.042-.349.294-.686.756-.686zM103.348 356.308c-1.919 0-3.362-1.442-3.362-3.487s1.443-3.488 3.362-3.488c1.933 0 3.39 1.443 3.39 3.488s-1.458 3.487-3.39 3.487zm0-6.148c-1.471 0-2.493 1.148-2.493 2.661s1.022 2.661 2.493 2.661c1.499 0 2.521-1.148 2.521-2.661s-1.022-2.661-2.521-2.661zM111.789 356.308c-1.919 0-3.362-1.442-3.362-3.487s1.443-3.488 3.362-3.488c1.933 0 3.39 1.443 3.39 3.488s-1.457 3.487-3.39 3.487zm0-6.148c-1.471 0-2.493 1.148-2.493 2.661s1.022 2.661 2.493 2.661c1.499 0 2.521-1.148 2.521-2.661s-1.022-2.661-2.521-2.661zM120.23 356.308c-1.919 0-3.362-1.442-3.362-3.487s1.443-3.488 3.362-3.488c1.933 0 3.39 1.443 3.39 3.488s-1.457 3.487-3.39 3.487zm0-6.148c-1.471 0-2.493 1.148-2.493 2.661s1.022 2.661 2.493 2.661c1.499 0 2.521-1.148 2.521-2.661s-1.022-2.661-2.521-2.661zM189.349 351.869h4.454v1.723h-4.454v-1.723zM195.018 354.627c2.199-1.415 3.418-2.045 3.418-2.829 0-.49-.351-.784-1.064-.784-.616 0-1.331.279-2.045.742l-.477-1.597c.784-.547 1.919-.953 3.025-.953 1.808 0 2.857.911 2.857 2.213 0 1.163-.98 2.018-2.787 2.956h3.096l.028 1.751h-6.052v-1.499zM203.755 356.336c-.798 0-1.331-.504-1.331-1.274 0-.784.533-1.274 1.331-1.274.784 0 1.316.49 1.316 1.274 0 .771-.532 1.274-1.316 1.274zM211.779 346.742l.519 1.751c-1.905.336-3.46 1.204-3.866 2.591l.056.042c.462-.462 1.177-.854 2.186-.854 1.526 0 2.633 1.009 2.633 2.76 0 1.863-1.246 3.306-3.502 3.306-2.255 0-3.529-1.694-3.529-4.034-.002-2.691 2.03-5.072 5.503-5.562zm-1.919 7.969c.784 0 1.261-.574 1.261-1.484 0-.841-.477-1.358-1.261-1.358-.519 0-1.009.237-1.275.476-.042.21-.069.421-.069.658 0 .896.49 1.708 1.344 1.708zM216.789 351.924c-1.555 0-2.451-.995-2.451-2.451 0-1.457.938-2.438 2.466-2.438 1.526 0 2.451.98 2.451 2.438 0 1.456-.925 2.451-2.466 2.451zm-1.303 4.412l7.256-9.161h1.625l-7.256 9.161h-1.625zm1.303-8.18c-.616 0-1.008.49-1.008 1.331 0 .826.392 1.303 1.022 1.303.602 0 1.008-.504 1.008-1.303.001-.841-.406-1.331-1.022-1.331zm6.233 8.321c-1.555 0-2.451-.995-2.451-2.452 0-1.456.938-2.437 2.466-2.437 1.526 0 2.451.98 2.451 2.437 0 1.472-.911 2.452-2.466 2.452zm.015-3.755c-.631 0-1.022.49-1.022 1.317 0 .84.392 1.316 1.022 1.316.616 0 1.008-.49 1.008-1.316 0-.827-.392-1.317-1.008-1.317zM11.694 378.291l.061-.46h.43l-.13.979c.449.08.869.25 1.229.479l-.229.56a2.886 2.886 0 0 0-1.079-.46l-.31 2.279c.879.27 1.738.68 1.738 1.789 0 1.039-.859 1.799-2.108 1.799h-.15l-.149 1.1h-.43l.149-1.149c-.51-.07-.989-.26-1.419-.53l.229-.569c.37.25.79.45 1.27.54 0-.01.08-.62.17-1.239.05-.37.11-.78.17-1.239-.85-.271-1.719-.62-1.719-1.72 0-.999.819-1.699 1.988-1.699.08 0 .15 0 .23.011 0-.012.03-.242.059-.471zm-.29 2.148c.051-.319.101-.689.15-1.109h-.15c-.929 0-1.369.5-1.369 1.069 0 .63.46.88 1.22 1.149-.01-.009.08-.559.149-1.109zm-.09 4.248c.89 0 1.479-.51 1.479-1.18 0-.649-.45-.939-1.26-1.209l-.319 2.389h.1zM16.764 382.073c1.751 0 2.913 1.106 2.913 2.661 0 1.766-1.345 2.984-3.053 2.984-.799 0-1.682-.253-2.241-.574l.168-.854c.56.321 1.316.602 2.101.602 1.232 0 2.144-.826 2.144-2.115 0-1.064-.812-1.946-2.115-1.946-.812 0-1.148.084-1.667.266l-.294-.28.561-4.314h4.16l.042.841h-3.488l-.406 2.871c.32-.1.629-.142 1.175-.142zM24.366 385.308c-1.919 0-3.361-1.442-3.361-3.487s1.442-3.488 3.361-3.488c1.933 0 3.39 1.443 3.39 3.488s-1.457 3.487-3.39 3.487zm0-6.148c-1.471 0-2.493 1.148-2.493 2.661s1.022 2.661 2.493 2.661c1.499 0 2.521-1.148 2.521-2.661s-1.022-2.661-2.521-2.661zM32.809 385.308c-1.919 0-3.362-1.442-3.362-3.487s1.443-3.488 3.362-3.488c1.933 0 3.39 1.443 3.39 3.488s-1.458 3.487-3.39 3.487zm0-6.148c-1.471 0-2.493 1.148-2.493 2.661s1.022 2.661 2.493 2.661c1.499 0 2.521-1.148 2.521-2.661s-1.022-2.661-2.521-2.661zM38.141 383.795c.505 0 .995.448.995 1.106 0 .953-.785 1.793-1.737 2.424l-.378-.378c.896-.631 1.232-1.177 1.232-1.667 0-.379-.252-.561-.868-.799.042-.349.294-.686.756-.686zM43.519 385.308c-1.919 0-3.361-1.442-3.361-3.487s1.442-3.488 3.361-3.488c1.933 0 3.39 1.443 3.39 3.488s-1.458 3.487-3.39 3.487zm0-6.148c-1.471 0-2.493 1.148-2.493 2.661s1.022 2.661 2.493 2.661c1.499 0 2.521-1.148 2.521-2.661s-1.022-2.661-2.521-2.661zM51.96 385.308c-1.919 0-3.361-1.442-3.361-3.487s1.442-3.488 3.361-3.488c1.933 0 3.39 1.443 3.39 3.488s-1.457 3.487-3.39 3.487zm0-6.148c-1.471 0-2.493 1.148-2.493 2.661s1.022 2.661 2.493 2.661c1.499 0 2.521-1.148 2.521-2.661s-1.022-2.661-2.521-2.661zM56.872 380.056l-.042-.799 2.521-.925v6.794h-.854v-5.688l-1.625.618zM63.914 381.428h5.295l.042.687h-5.379l.042-.687zM75.052 378.291l.061-.46h.43l-.13.979c.449.08.869.25 1.229.479l-.229.56a2.886 2.886 0 0 0-1.079-.46l-.31 2.279c.879.27 1.738.68 1.738 1.789 0 1.039-.859 1.799-2.108 1.799h-.15l-.149 1.1h-.43l.149-1.149c-.51-.07-.989-.26-1.419-.53l.229-.569c.37.25.79.45 1.27.54 0-.01.08-.62.17-1.239.05-.37.11-.78.17-1.239-.85-.271-1.719-.62-1.719-1.72 0-.999.819-1.699 1.988-1.699.08 0 .15 0 .23.011-.001-.012.029-.242.059-.471zm-.29 2.148c.051-.319.101-.689.15-1.109h-.15c-.929 0-1.369.5-1.369 1.069 0 .63.46.88 1.22 1.149-.01-.009.079-.559.149-1.109zm-.09 4.248c.89 0 1.479-.51 1.479-1.18 0-.649-.45-.939-1.26-1.209l-.319 2.389h.1zM78.132 384.328c2.312-1.751 3.782-2.731 3.782-3.865 0-.743-.561-1.317-1.471-1.317-.715 0-1.373.322-1.989.812l-.309-.742c.659-.519 1.43-.883 2.382-.883 1.358 0 2.297.827 2.297 2.018 0 1.526-1.568 2.535-3.46 3.95h3.782v.826h-5.015v-.799zM85.258 383.795c.505 0 .995.448.995 1.106 0 .953-.785 1.793-1.737 2.424l-.378-.378c.896-.631 1.232-1.177 1.232-1.667 0-.379-.252-.561-.868-.799.042-.349.294-.686.756-.686zM90.637 385.308c-1.919 0-3.362-1.442-3.362-3.487s1.443-3.488 3.362-3.488c1.933 0 3.39 1.443 3.39 3.488s-1.458 3.487-3.39 3.487zm0-6.148c-1.471 0-2.493 1.148-2.493 2.661s1.022 2.661 2.493 2.661c1.499 0 2.521-1.148 2.521-2.661s-1.022-2.661-2.521-2.661zM99.078 385.308c-1.919 0-3.362-1.442-3.362-3.487s1.443-3.488 3.362-3.488c1.933 0 3.39 1.443 3.39 3.488s-1.457 3.487-3.39 3.487zm0-6.148c-1.471 0-2.493 1.148-2.493 2.661s1.022 2.661 2.493 2.661c1.499 0 2.521-1.148 2.521-2.661s-1.022-2.661-2.521-2.661zM107.521 385.308c-1.919 0-3.361-1.442-3.361-3.487s1.442-3.488 3.361-3.488c1.933 0 3.39 1.443 3.39 3.488s-1.458 3.487-3.39 3.487zm0-6.148c-1.471 0-2.493 1.148-2.493 2.661s1.022 2.661 2.493 2.661c1.499 0 2.521-1.148 2.521-2.661s-1.022-2.661-2.521-2.661zM112.852 383.795c.505 0 .995.448.995 1.106 0 .953-.785 1.793-1.737 2.424l-.378-.378c.896-.631 1.232-1.177 1.232-1.667 0-.379-.252-.561-.868-.799.042-.349.294-.686.756-.686zM118.229 385.308c-1.919 0-3.361-1.442-3.361-3.487s1.442-3.488 3.361-3.488c1.933 0 3.39 1.443 3.39 3.488s-1.457 3.487-3.39 3.487zm0-6.148c-1.471 0-2.493 1.148-2.493 2.661s1.022 2.661 2.493 2.661c1.499 0 2.521-1.148 2.521-2.661s-1.021-2.661-2.521-2.661zM126.672 385.308c-1.919 0-3.362-1.442-3.362-3.487s1.443-3.488 3.362-3.488c1.933 0 3.39 1.443 3.39 3.488s-1.458 3.487-3.39 3.487zm0-6.148c-1.471 0-2.493 1.148-2.493 2.661s1.022 2.661 2.493 2.661c1.499 0 2.521-1.148 2.521-2.661s-1.022-2.661-2.521-2.661zM135.113 385.308c-1.919 0-3.362-1.442-3.362-3.487s1.443-3.488 3.362-3.488c1.933 0 3.39 1.443 3.39 3.488s-1.457 3.487-3.39 3.487zm0-6.148c-1.471 0-2.493 1.148-2.493 2.661s1.022 2.661 2.493 2.661c1.499 0 2.521-1.148 2.521-2.661s-1.022-2.661-2.521-2.661zM193.51 384.972h-1.724v-2.381h-2.353l.042-1.625h2.311v-2.382h1.724v2.382h2.311l.042 1.625h-2.353v2.381zM203.156 384.888c0 1.807-1.639 2.857-3.6 2.857-1.064 0-1.989-.252-2.731-.658l.252-1.723c.658.378 1.513.672 2.297.687.967.042 1.583-.364 1.583-1.135 0-.7-.532-1.064-1.597-1.106a7.312 7.312 0 0 0-1.148.069v-1.555c1.232-.224 2.367-.504 2.367-1.429 0-.603-.435-.924-1.289-.924-.658 0-1.358.321-1.975.756l-.477-1.568c.784-.547 1.737-.953 2.983-.953 1.766 0 3.068.911 3.068 2.312 0 1.036-.799 1.821-1.779 2.157 1.346.266 2.046 1.162 2.046 2.213zM206.065 385.336c-.798 0-1.331-.504-1.331-1.274 0-.784.533-1.274 1.331-1.274.784 0 1.316.49 1.316 1.274.001.771-.531 1.274-1.316 1.274zM214.985 387.564h-2.017v-2.479h-3.866l-.266-1.331 3.796-5.421h2.353v5.043h1.346l.042 1.709h-1.388v2.479zm-4.047-4.147h2.129v-3.18l-2.129 3.18zM219.562 380.924c-1.555 0-2.451-.995-2.451-2.451 0-1.457.938-2.438 2.466-2.438 1.526 0 2.451.98 2.451 2.438-.001 1.456-.925 2.451-2.466 2.451zm-1.303 4.412l7.256-9.161h1.625l-7.256 9.161h-1.625zm1.303-8.18c-.616 0-1.008.49-1.008 1.331 0 .826.392 1.303 1.022 1.303.602 0 1.008-.504 1.008-1.303 0-.841-.406-1.331-1.022-1.331zm6.233 8.321c-1.555 0-2.451-.995-2.451-2.452 0-1.456.938-2.437 2.466-2.437 1.526 0 2.451.98 2.451 2.437 0 1.472-.911 2.452-2.466 2.452zm.015-3.755c-.631 0-1.022.49-1.022 1.317 0 .84.392 1.316 1.022 1.316.616 0 1.008-.49 1.008-1.316-.001-.827-.392-1.317-1.008-1.317zM11.694 407.291l.061-.46h.43l-.13.979c.449.08.869.25 1.229.479l-.229.56a2.886 2.886 0 0 0-1.079-.46l-.31 2.279c.879.27 1.738.68 1.738 1.789 0 1.039-.859 1.799-2.108 1.799h-.15l-.149 1.1h-.43l.149-1.149c-.51-.07-.989-.26-1.419-.53l.229-.569c.37.25.79.45 1.27.54 0-.01.08-.62.17-1.239.05-.37.11-.78.17-1.239-.85-.271-1.719-.62-1.719-1.72 0-.999.819-1.699 1.988-1.699.08 0 .15 0 .23.011 0-.012.03-.242.059-.471zm-.29 2.148c.051-.319.101-.689.15-1.109h-.15c-.929 0-1.369.5-1.369 1.069 0 .63.46.88 1.22 1.149-.01-.009.08-.559.149-1.109zm-.09 4.248c.89 0 1.479-.51 1.479-1.18 0-.649-.45-.939-1.26-1.209l-.319 2.389h.1zM14.774 413.328c2.312-1.751 3.782-2.731 3.782-3.865 0-.743-.561-1.317-1.471-1.317-.715 0-1.373.322-1.989.812l-.309-.742c.659-.519 1.43-.883 2.382-.883 1.358 0 2.297.827 2.297 2.018 0 1.526-1.568 2.535-3.46 3.95h3.782v.826h-5.015v-.799zM21.9 412.795c.505 0 .995.448.995 1.106 0 .953-.785 1.793-1.737 2.424l-.378-.378c.896-.631 1.232-1.177 1.232-1.667 0-.379-.252-.561-.868-.799.043-.349.294-.686.756-.686zM27.279 414.308c-1.919 0-3.362-1.442-3.362-3.487s1.443-3.488 3.362-3.488c1.933 0 3.39 1.443 3.39 3.488s-1.457 3.487-3.39 3.487zm0-6.148c-1.471 0-2.493 1.148-2.493 2.661s1.022 2.661 2.493 2.661c1.499 0 2.521-1.148 2.521-2.661s-1.022-2.661-2.521-2.661zM35.721 414.308c-1.919 0-3.362-1.442-3.362-3.487s1.443-3.488 3.362-3.488c1.933 0 3.39 1.443 3.39 3.488s-1.458 3.487-3.39 3.487zm0-6.148c-1.471 0-2.493 1.148-2.493 2.661s1.022 2.661 2.493 2.661c1.499 0 2.521-1.148 2.521-2.661s-1.022-2.661-2.521-2.661zM44.163 414.308c-1.919 0-3.361-1.442-3.361-3.487s1.442-3.488 3.361-3.488c1.933 0 3.39 1.443 3.39 3.488s-1.457 3.487-3.39 3.487zm0-6.148c-1.471 0-2.493 1.148-2.493 2.661s1.022 2.661 2.493 2.661c1.499 0 2.521-1.148 2.521-2.661s-1.022-2.661-2.521-2.661zM49.494 412.795c.505 0 .995.448.995 1.106 0 .953-.785 1.793-1.737 2.424l-.378-.378c.896-.631 1.232-1.177 1.232-1.667 0-.379-.252-.561-.868-.799.042-.349.294-.686.756-.686zM54.872 414.308c-1.919 0-3.361-1.442-3.361-3.487s1.442-3.488 3.361-3.488c1.933 0 3.39 1.443 3.39 3.488s-1.457 3.487-3.39 3.487zm0-6.148c-1.471 0-2.493 1.148-2.493 2.661s1.022 2.661 2.493 2.661c1.499 0 2.521-1.148 2.521-2.661s-1.022-2.661-2.521-2.661zM63.314 414.308c-1.919 0-3.362-1.442-3.362-3.487s1.443-3.488 3.362-3.488c1.933 0 3.39 1.443 3.39 3.488s-1.457 3.487-3.39 3.487zm0-6.148c-1.471 0-2.493 1.148-2.493 2.661s1.022 2.661 2.493 2.661c1.499 0 2.521-1.148 2.521-2.661s-1.022-2.661-2.521-2.661zM68.227 409.056l-.042-.799 2.521-.925v6.794h-.854v-5.688l-1.625.618zM75.269 410.428h5.295l.042.687h-5.379l.042-.687zM86.406 407.291l.061-.46h.43l-.13.979c.449.08.869.25 1.229.479l-.229.56a2.886 2.886 0 0 0-1.079-.46l-.31 2.279c.879.27 1.738.68 1.738 1.789 0 1.039-.859 1.799-2.108 1.799h-.15l-.149 1.1h-.43l.149-1.149c-.51-.07-.989-.26-1.419-.53l.229-.569c.37.25.79.45 1.27.54 0-.01.08-.62.17-1.239.05-.37.11-.78.17-1.239-.85-.271-1.719-.62-1.719-1.72 0-.999.819-1.699 1.988-1.699.08 0 .15 0 .23.011 0-.012.03-.242.059-.471zm-.29 2.148c.051-.319.101-.689.15-1.109h-.15c-.929 0-1.369.5-1.369 1.069 0 .63.46.88 1.22 1.149-.01-.009.08-.559.149-1.109zm-.09 4.248c.89 0 1.479-.51 1.479-1.18 0-.649-.45-.939-1.26-1.209l-.319 2.389h.1zM89.473 409.056l-.042-.799 2.521-.925v6.794h-.854v-5.688l-1.625.618zM97.775 414.308c-1.919 0-3.362-1.442-3.362-3.487s1.443-3.488 3.362-3.488c1.933 0 3.39 1.443 3.39 3.488s-1.457 3.487-3.39 3.487zm0-6.148c-1.471 0-2.493 1.148-2.493 2.661s1.022 2.661 2.493 2.661c1.499 0 2.521-1.148 2.521-2.661s-1.022-2.661-2.521-2.661zM103.108 412.795c.505 0 .995.448.995 1.106 0 .953-.785 1.793-1.737 2.424l-.378-.378c.896-.631 1.232-1.177 1.232-1.667 0-.379-.252-.561-.868-.799.043-.349.294-.686.756-.686zM108.485 414.308c-1.919 0-3.361-1.442-3.361-3.487s1.442-3.488 3.361-3.488c1.933 0 3.39 1.443 3.39 3.488s-1.457 3.487-3.39 3.487zm0-6.148c-1.471 0-2.493 1.148-2.493 2.661s1.022 2.661 2.493 2.661c1.499 0 2.521-1.148 2.521-2.661s-1.022-2.661-2.521-2.661zM116.928 414.308c-1.919 0-3.362-1.442-3.362-3.487s1.443-3.488 3.362-3.488c1.933 0 3.39 1.443 3.39 3.488s-1.458 3.487-3.39 3.487zm0-6.148c-1.471 0-2.493 1.148-2.493 2.661s1.022 2.661 2.493 2.661c1.499 0 2.521-1.148 2.521-2.661s-1.022-2.661-2.521-2.661zM125.369 414.308c-1.919 0-3.362-1.442-3.362-3.487s1.443-3.488 3.362-3.488c1.933 0 3.39 1.443 3.39 3.488s-1.457 3.487-3.39 3.487zm0-6.148c-1.471 0-2.493 1.148-2.493 2.661s1.022 2.661 2.493 2.661c1.499 0 2.521-1.148 2.521-2.661s-1.022-2.661-2.521-2.661zM130.701 412.795c.505 0 .995.448.995 1.106 0 .953-.785 1.793-1.737 2.424l-.378-.378c.896-.631 1.232-1.177 1.232-1.667 0-.379-.252-.561-.868-.799.042-.349.294-.686.756-.686zM136.08 414.308c-1.919 0-3.362-1.442-3.362-3.487s1.443-3.488 3.362-3.488c1.933 0 3.39 1.443 3.39 3.488s-1.457 3.487-3.39 3.487zm0-6.148c-1.471 0-2.493 1.148-2.493 2.661s1.022 2.661 2.493 2.661c1.499 0 2.521-1.148 2.521-2.661s-1.022-2.661-2.521-2.661zM144.521 414.308c-1.919 0-3.362-1.442-3.362-3.487s1.443-3.488 3.362-3.488c1.933 0 3.39 1.443 3.39 3.488s-1.457 3.487-3.39 3.487zm0-6.148c-1.471 0-2.493 1.148-2.493 2.661s1.022 2.661 2.493 2.661c1.499 0 2.521-1.148 2.521-2.661s-1.021-2.661-2.521-2.661zM152.964 414.308c-1.919 0-3.361-1.442-3.361-3.487s1.442-3.488 3.361-3.488c1.933 0 3.39 1.443 3.39 3.488s-1.458 3.487-3.39 3.487zm0-6.148c-1.471 0-2.493 1.148-2.493 2.661s1.022 2.661 2.493 2.661c1.499 0 2.521-1.148 2.521-2.661s-1.022-2.661-2.521-2.661zM193.86 413.972h-1.724v-2.381h-2.353l.042-1.625h2.311v-2.382h1.724v2.382h2.311l.042 1.625h-2.353v2.381zM204.067 411.675c0 1.513-1.079 2.661-3.334 2.661-1.947 0-3.277-.896-3.277-2.438 0-.952.7-1.694 1.778-1.961-.896-.406-1.639-.994-1.639-2.087 0-1.526 1.064-2.634 3.25-2.634 1.891 0 3.096.925 3.096 2.438 0 .896-.603 1.597-1.597 1.919.939.38 1.723.996 1.723 2.102zm-4.594.029c0 .658.519 1.134 1.358 1.134.799 0 1.261-.378 1.261-1.05 0-.631-.658-1.009-1.666-1.331-.659.322-.953.812-.953 1.247zm2.493-3.825c0-.729-.448-1.149-1.162-1.149-.742 0-1.177.449-1.177 1.051 0 .603.532.967 1.499 1.289.56-.322.84-.784.84-1.191zM206.753 414.336c-.798 0-1.331-.504-1.331-1.274 0-.784.533-1.274 1.331-1.274.784 0 1.316.49 1.316 1.274 0 .771-.532 1.274-1.316 1.274zM215.673 416.564h-2.017v-2.479h-3.866l-.266-1.331 3.796-5.421h2.353v5.043h1.346l.042 1.709h-1.388v2.479zm-4.048-4.147h2.129v-3.18l-2.129 3.18zM220.249 409.924c-1.555 0-2.451-.995-2.451-2.451 0-1.457.938-2.438 2.466-2.438 1.526 0 2.451.98 2.451 2.438 0 1.456-.925 2.451-2.466 2.451zm-1.303 4.412l7.256-9.161h1.625l-7.256 9.161h-1.625zm1.303-8.18c-.616 0-1.008.49-1.008 1.331 0 .826.392 1.303 1.022 1.303.602 0 1.008-.504 1.008-1.303 0-.841-.406-1.331-1.022-1.331zm6.233 8.321c-1.555 0-2.451-.995-2.451-2.452 0-1.456.938-2.437 2.466-2.437 1.526 0 2.451.98 2.451 2.437 0 1.472-.911 2.452-2.466 2.452zm.015-3.755c-.631 0-1.022.49-1.022 1.317 0 .84.392 1.316 1.022 1.316.616 0 1.008-.49 1.008-1.316 0-.827-.392-1.317-1.008-1.317zM11.694 436.291l.061-.46h.43l-.13.979c.449.08.869.25 1.229.479l-.229.56a2.886 2.886 0 0 0-1.079-.46l-.31 2.279c.879.27 1.738.68 1.738 1.789 0 1.039-.859 1.799-2.108 1.799h-.15l-.149 1.1h-.43l.149-1.149c-.51-.07-.989-.26-1.419-.53l.229-.569c.37.25.79.45 1.27.54 0-.01.08-.62.17-1.239.05-.37.11-.78.17-1.239-.85-.271-1.719-.62-1.719-1.72 0-.999.819-1.699 1.988-1.699.08 0 .15 0 .23.011 0-.012.03-.242.059-.471zm-.29 2.148c.051-.319.101-.689.15-1.109h-.15c-.929 0-1.369.5-1.369 1.069 0 .63.46.88 1.22 1.149-.01-.009.08-.559.149-1.109zm-.09 4.248c.89 0 1.479-.51 1.479-1.18 0-.649-.45-.939-1.26-1.209l-.319 2.389h.1zM14.761 438.056l-.042-.799 2.521-.925v6.794h-.854v-5.688l-1.625.618zM23.063 443.308c-1.919 0-3.361-1.442-3.361-3.487s1.442-3.488 3.361-3.488c1.933 0 3.39 1.443 3.39 3.488s-1.457 3.487-3.39 3.487zm0-6.148c-1.471 0-2.493 1.148-2.493 2.661s1.022 2.661 2.493 2.661c1.499 0 2.521-1.148 2.521-2.661s-1.022-2.661-2.521-2.661zM28.396 441.795c.505 0 .995.448.995 1.106 0 .953-.785 1.793-1.737 2.424l-.378-.378c.896-.631 1.232-1.177 1.232-1.667 0-.379-.252-.561-.868-.799.043-.349.295-.686.756-.686zM33.773 443.308c-1.919 0-3.362-1.442-3.362-3.487s1.443-3.488 3.362-3.488c1.933 0 3.39 1.443 3.39 3.488s-1.457 3.487-3.39 3.487zm0-6.148c-1.471 0-2.493 1.148-2.493 2.661s1.022 2.661 2.493 2.661c1.499 0 2.521-1.148 2.521-2.661s-1.022-2.661-2.521-2.661zM42.216 443.308c-1.919 0-3.361-1.442-3.361-3.487s1.442-3.488 3.361-3.488c1.933 0 3.39 1.443 3.39 3.488s-1.458 3.487-3.39 3.487zm0-6.148c-1.471 0-2.493 1.148-2.493 2.661s1.022 2.661 2.493 2.661c1.499 0 2.521-1.148 2.521-2.661s-1.022-2.661-2.521-2.661zM50.657 443.308c-1.919 0-3.361-1.442-3.361-3.487s1.442-3.488 3.361-3.488c1.933 0 3.39 1.443 3.39 3.488s-1.457 3.487-3.39 3.487zm0-6.148c-1.471 0-2.493 1.148-2.493 2.661s1.022 2.661 2.493 2.661c1.499 0 2.521-1.148 2.521-2.661s-1.022-2.661-2.521-2.661zM55.989 441.795c.505 0 .995.448.995 1.106 0 .953-.785 1.793-1.737 2.424l-.378-.378c.896-.631 1.232-1.177 1.232-1.667 0-.379-.252-.561-.868-.799.042-.349.294-.686.756-.686zM61.368 443.308c-1.919 0-3.361-1.442-3.361-3.487s1.442-3.488 3.361-3.488c1.933 0 3.39 1.443 3.39 3.488s-1.457 3.487-3.39 3.487zm0-6.148c-1.471 0-2.493 1.148-2.493 2.661s1.022 2.661 2.493 2.661c1.499 0 2.521-1.148 2.521-2.661s-1.022-2.661-2.521-2.661zM69.81 443.308c-1.919 0-3.361-1.442-3.361-3.487s1.442-3.488 3.361-3.488c1.933 0 3.39 1.443 3.39 3.488s-1.458 3.487-3.39 3.487zm0-6.148c-1.471 0-2.493 1.148-2.493 2.661s1.022 2.661 2.493 2.661c1.499 0 2.521-1.148 2.521-2.661s-1.022-2.661-2.521-2.661zM74.722 438.056l-.042-.799 2.521-.925v6.794h-.854v-5.688l-1.625.618zM82.8 442.734h-.77v-2.507h-2.466l.042-.771h2.424v-2.493h.77v2.493h2.396l.042.771H82.8v2.507zM193.508 442.972h-1.724v-2.381h-2.353l.042-1.625h2.311v-2.382h1.724v2.382h2.311l.042 1.625h-2.353v2.381zM197.188 438.798l-.042-1.779 3.81-.826v6.934h-2.143v-4.707l-1.625.378zM203.012 441.627c2.199-1.415 3.418-2.045 3.418-2.829 0-.49-.351-.784-1.064-.784-.616 0-1.331.279-2.045.742l-.477-1.597c.784-.547 1.919-.953 3.025-.953 1.808 0 2.857.911 2.857 2.213 0 1.163-.98 2.018-2.787 2.956h3.096l.028 1.751h-6.052v-1.499zM211.748 443.336c-.798 0-1.331-.504-1.331-1.274 0-.784.533-1.274 1.331-1.274.784 0 1.316.49 1.316 1.274 0 .771-.532 1.274-1.316 1.274zM220.669 445.564h-2.018v-2.479h-3.866l-.266-1.331 3.796-5.421h2.354v5.043h1.344l.043 1.709h-1.387v2.479zm-4.049-4.147h2.129v-3.18l-2.129 3.18zM225.244 438.924c-1.555 0-2.451-.995-2.451-2.451 0-1.457.938-2.438 2.466-2.438 1.526 0 2.451.98 2.451 2.438 0 1.456-.925 2.451-2.466 2.451zm-1.303 4.412l7.256-9.161h1.625l-7.256 9.161h-1.625zm1.303-8.18c-.616 0-1.008.49-1.008 1.331 0 .826.392 1.303 1.022 1.303.602 0 1.008-.504 1.008-1.303.001-.841-.406-1.331-1.022-1.331zm6.234 8.321c-1.555 0-2.451-.995-2.451-2.452 0-1.456.938-2.437 2.466-2.437 1.526 0 2.451.98 2.451 2.437-.001 1.472-.912 2.452-2.466 2.452zm.014-3.755c-.631 0-1.022.49-1.022 1.317 0 .84.392 1.316 1.022 1.316.616 0 1.008-.49 1.008-1.316 0-.827-.392-1.317-1.008-1.317z"/></g><g fill="none" stroke="#344B66" stroke-width=".5" stroke-miterlimit="10"><path d="M8.457 309.133h.5"/><path stroke-dasharray="0.9956,0.9956" d="M9.953 309.133h226.504"/><path d="M236.955 309.133h.5"/></g><g fill="none" stroke="#344B66" stroke-width=".5" stroke-miterlimit="10"><path d="M8.457 280.548h.5"/><path stroke-dasharray="0.9956,0.9956" d="M9.953 280.548h226.504"/><path d="M236.955 280.548h.5"/></g><g fill="none" stroke="#344B66" stroke-width=".5" stroke-miterlimit="10"><path d="M8.457 251.963h.5"/><path stroke-dasharray="0.9956,0.9956" d="M9.953 251.963h226.504"/><path d="M236.955 251.963h.5"/></g><g fill="none" stroke="#344B66" stroke-width=".5" stroke-miterlimit="10"><path d="M8.457 451.47h.5"/><path stroke-dasharray="0.9956,0.9956" d="M9.953 451.47h226.504"/><path d="M236.955 451.47h.5"/></g><g fill="none" stroke="#344B66" stroke-width=".5" stroke-miterlimit="10"><path d="M8.457 424.472h.5"/><path stroke-dasharray="0.9956,0.9956" d="M9.953 424.472h226.504"/><path d="M236.955 424.472h.5"/></g><g fill="none" stroke="#344B66" stroke-width=".5" stroke-miterlimit="10"><path d="M8.457 337.718h.5"/><path stroke-dasharray="0.9956,0.9956" d="M9.953 337.718h226.504"/><path d="M236.955 337.718h.5"/></g><g fill="none" stroke="#344B66" stroke-width=".5" stroke-miterlimit="10"><path d="M8.457 367.302h.5"/><path stroke-dasharray="0.9956,0.9956" d="M9.953 367.302h226.504"/><path d="M236.955 367.302h.5"/></g><g fill="none" stroke="#344B66" stroke-width=".5" stroke-miterlimit="10"><path d="M8.457 394.887h.5"/><path stroke-dasharray="0.9956,0.9956" d="M9.953 394.887h226.504"/><path d="M236.955 394.887h.5"/></g><path fill="#070042" d="M18.587 37.625v15.146h-5.016l-5.4-8.641v8.497H3.778V37.625h5.088l5.329 8.521v-8.521h4.392zM27.346 52.986c-3.48 0-6.216-1.992-6.216-5.928 0-3.913 2.904-6.024 6.384-6.024 3.48 0 6.217 2.088 6.217 5.928s-2.904 6.024-6.385 6.024zm.072-8.616c-1.152 0-1.752.96-1.752 2.665 0 1.656.6 2.592 1.776 2.592 1.152 0 1.752-.936 1.752-2.64 0-1.657-.6-2.617-1.776-2.617zM41.098 52.986c-3.096 0-4.752-1.176-4.584-4.368l.168-3.289-1.584-.36.072-2.928 1.584-.552.048-2.617h4.44v2.736h2.472l-.072 3.457h-2.76l-.096 2.88c-.072 1.032.6 1.416 1.488 1.416.384 0 .768-.072 1.176-.216l.48 3.48c-.864.242-1.535.361-2.832.361zM55.57 47.826c0 1.056.528 1.392 1.224 1.392.552 0 .96-.192 1.32-.48v-7.345h4.584v10.945l-4.584.528v-1.68c-.768.936-2.064 1.8-3.576 1.8-2.232 0-3.552-1.464-3.552-3.864v-7.729h4.584v6.433zM72.874 46.194c0-1.056-.528-1.392-1.224-1.392-.648 0-1.176.312-1.56.672v7.153h-4.584V41.682l4.584-.528v1.92c.96-1.224 2.28-2.04 3.816-2.04 2.232 0 3.552 1.464 3.552 3.864v7.729h-4.584v-6.433zM80.217 36.905l4.584-.528v16.25h-4.584V36.905zM94.138 49.818c1.248 0 2.592-.48 3.816-1.176l.36 3.408c-1.224.552-2.928.912-4.656.912-4.033 0-6.577-1.992-6.577-5.88 0-3.72 2.544-6.048 6.336-6.048 3.457 0 5.281 1.992 5.281 4.872 0 .6-.072 1.584-.24 2.064l-6.937.168v.024c.168 1.128.984 1.656 2.617 1.656zm.336-3.984c0-1.176-.432-1.848-1.32-1.848-.936 0-1.536.864-1.632 2.088h2.928c.024-.072.024-.144.024-.24zM105.633 52.986c-1.656 0-3.937-.36-5.208-.984l.84-3.096c1.512.696 3.072 1.08 4.44 1.08.864 0 1.152-.216 1.152-.576 0-.384-.264-.552-1.536-.816-3.144-.552-4.729-1.584-4.729-3.864 0-2.136 1.848-3.696 5.4-3.696 1.608 0 3.913.456 5.041 1.032l-.864 3.072c-1.44-.696-3.048-1.104-4.177-1.104-.768 0-1.08.168-1.08.552s.432.504 1.608.768c3.168.648 4.632 1.536 4.632 3.864.002 1.992-1.775 3.768-5.519 3.768zM118.089 52.986c-1.656 0-3.937-.36-5.208-.984l.84-3.096c1.512.696 3.072 1.08 4.44 1.08.864 0 1.152-.216 1.152-.576 0-.384-.264-.552-1.536-.816-3.144-.552-4.729-1.584-4.729-3.864 0-2.136 1.848-3.696 5.4-3.696 1.608 0 3.913.456 5.041 1.032l-.864 3.072c-1.44-.696-3.048-1.104-4.177-1.104-.768 0-1.08.168-1.08.552s.432.504 1.608.768c3.168.648 4.632 1.536 4.632 3.864.001 1.992-1.775 3.768-5.519 3.768zM138.608 52.986c-1.224 3.528-2.76 4.537-5.448 4.537-1.417 0-2.688-.264-3.816-.768l1.368-3.336c.84.36 1.152.504 1.728.504.768 0 1.056-.192 1.32-.864l.12-.408-4.417-11.257h4.92l1.945 6.696 1.68-6.696h4.896l-3.84 10.369-.456 1.223zM149.96 52.986c-3.479 0-6.216-1.992-6.216-5.928 0-3.913 2.904-6.024 6.384-6.024 3.48 0 6.217 2.088 6.217 5.928s-2.905 6.024-6.385 6.024zm.072-8.616c-1.152 0-1.752.96-1.752 2.665 0 1.656.6 2.592 1.776 2.592 1.151 0 1.752-.936 1.752-2.64.001-1.657-.6-2.617-1.776-2.617zM163.137 47.826c0 1.056.528 1.392 1.224 1.392.553 0 .961-.192 1.32-.48v-7.345h4.584v10.945l-4.584.528v-1.68c-.768.936-2.064 1.8-3.576 1.8-2.232 0-3.553-1.464-3.553-3.864v-7.729h4.585v6.433zM192.249 46.194c0-1.056-.528-1.392-1.225-1.392-.504 0-.936.192-1.296.456v7.369h-4.584v-6.433c0-1.056-.528-1.392-1.224-1.392-.505 0-.937.192-1.297.456v7.369h-4.584V41.682l4.584-.528v1.608c.96-1.032 2.016-1.728 3.553-1.728 1.464 0 2.736.72 3.288 2.064.96-1.224 2.28-2.064 3.816-2.064 2.231 0 3.552 1.464 3.552 3.864v7.729h-4.584v-6.433zM202.496 52.986c-1.849 0-3.336-1.368-3.336-3.072 0-2.184 1.68-3.888 6.601-3.96v-.168c0-.864-.576-1.296-1.705-1.296-1.151 0-2.472.432-3.912 1.08l-.959-3.192c1.319-.648 3.264-1.344 5.664-1.344 4.297 0 5.568 1.992 5.496 5.184l-.023 2.616c0 .696.168.744.816.84l-.457 3.144c-2.784.408-4.152-.264-4.801-1.632h-.071c-.769.888-1.56 1.8-3.313 1.8zm.864-3.768c0 .576.48.936 1.08.936.648 0 1.057-.24 1.32-.528v-1.704c-1.751.168-2.4.456-2.4 1.296zM217.735 52.626h-4.584V36.905l4.584-.528v9.697h.024l2.809-4.68h5.16l-3.624 5.353 3.648 5.88h-5.089l-2.904-5.136h-.024v5.135zM233.696 49.818c1.248 0 2.592-.48 3.816-1.176l.359 3.408c-1.224.552-2.928.912-4.656.912-4.032 0-6.576-1.992-6.576-5.88 0-3.72 2.544-6.048 6.336-6.048 3.457 0 5.281 1.992 5.281 4.872 0 .6-.072 1.584-.24 2.064l-6.937.168v.024c.169 1.128.984 1.656 2.617 1.656zm.336-3.984c0-1.176-.432-1.848-1.32-1.848-.936 0-1.536.864-1.632 2.088h2.929c.023-.072.023-.144.023-.24zM21.527 70.194c0-1.056-.528-1.392-1.224-1.392-.504 0-.936.192-1.296.456v7.369h-4.584v-6.433c0-1.056-.528-1.392-1.224-1.392-.504 0-.936.192-1.296.456v7.369H7.318V65.682l4.584-.528v1.608c.96-1.032 2.016-1.728 3.552-1.728 1.464 0 2.736.72 3.289 2.064.96-1.224 2.28-2.064 3.816-2.064 2.232 0 3.552 1.464 3.552 3.864v7.729h-4.584v-6.433zM34.558 76.986c-3.48 0-6.216-1.992-6.216-5.928 0-3.913 2.904-6.024 6.384-6.024 3.48 0 6.217 2.088 6.217 5.928s-2.904 6.024-6.385 6.024zm.072-8.616c-1.152 0-1.752.96-1.752 2.665 0 1.656.6 2.592 1.776 2.592 1.152 0 1.752-.936 1.752-2.64 0-1.657-.6-2.617-1.776-2.617zM43.222 76.626v-10.92l4.584-.552v1.488c.576-1.08 1.392-1.608 2.472-1.608.552 0 1.152.096 1.752.408l-.864 3.984a2.864 2.864 0 0 0-1.224-.264c-.84 0-1.56.312-2.136 1.296v6.168h-4.584zM59.95 73.818c1.248 0 2.592-.48 3.816-1.176l.36 3.408c-1.224.552-2.928.912-4.656.912-4.033 0-6.577-1.992-6.577-5.88 0-3.72 2.544-6.048 6.336-6.048 3.457 0 5.281 1.992 5.281 4.872 0 .6-.072 1.584-.24 2.064l-6.937.168v.024c.169 1.128.985 1.656 2.617 1.656zm.336-3.984c0-1.176-.432-1.848-1.32-1.848-.936 0-1.536.864-1.632 2.088h2.928c.024-.072.024-.144.024-.24zM76.941 76.986c-3.096 0-4.752-1.176-4.584-4.368l.168-3.289-1.584-.36.072-2.928 1.584-.552.048-2.617h4.44v2.736h2.473l-.072 3.457h-2.76l-.096 2.88c-.072 1.032.6 1.416 1.488 1.416.384 0 .768-.072 1.176-.216l.48 3.48c-.864.242-1.536.361-2.833.361zM89.302 70.194c0-1.056-.528-1.392-1.224-1.392-.648 0-1.176.312-1.56.672v7.153h-4.584V60.905l4.584-.528v6.697c.96-1.224 2.28-2.04 3.816-2.04 2.232 0 3.552 1.464 3.552 3.864v7.729h-4.584v-6.433zM99.549 76.986c-1.848 0-3.336-1.368-3.336-3.072 0-2.184 1.68-3.888 6.601-3.96v-.168c0-.864-.576-1.296-1.705-1.296-1.152 0-2.472.432-3.912 1.08l-.96-3.192c1.32-.648 3.264-1.344 5.665-1.344 4.296 0 5.568 1.992 5.496 5.184l-.024 2.616c0 .696.168.744.816.84l-.456 3.144c-2.785.408-4.153-.264-4.801-1.632h-.072c-.767.888-1.559 1.8-3.312 1.8zm.865-3.768c0 .576.48.936 1.08.936.648 0 1.056-.24 1.32-.528v-1.704c-1.752.168-2.4.456-2.4 1.296zM117.573 70.194c0-1.056-.528-1.392-1.224-1.392-.648 0-1.176.312-1.56.672v7.153h-4.584V65.682l4.584-.528v1.92c.96-1.224 2.28-2.04 3.816-2.04 2.232 0 3.552 1.464 3.552 3.864v7.729h-4.584v-6.433zM138.669 59.081l-.408 2.4c1.44.264 2.617.648 3.553 1.128l-.744 3.864c-1.08-.552-2.328-.912-3.456-1.176l-.673 3.984h-1.896l.384-2.28c.072.024.096.024.168.048v-.192c.384.168 1.032.312 1.679.48 2.377.648 4.873 1.728 4.873 4.584 0 3-2.256 5.064-6.601 5.064h-.24l-.432 2.568h-1.896l.456-2.712c-1.632-.216-3.096-.648-4.056-1.2l.72-3.865c1.176.576 2.544 1.056 3.984 1.272l.384-2.232c-2.184-.648-4.848-1.68-4.848-4.68 0-2.953 2.04-4.849 6.145-4.849h.625l.383-2.208h1.896zm-4.536 6.816c0 .456.432.816 1.296 1.104l.36-2.112c-1.104.025-1.656.361-1.656 1.008zm3.528 6.433c0-.552-.408-.864-1.368-1.128l-.36 2.16c1.224-.072 1.728-.384 1.728-1.032zM144.212 73.626c3.984-2.376 5.545-3.096 5.545-4.128 0-.72-.527-1.08-1.584-1.08-.984 0-2.256.456-3.528 1.224l-.912-3.289c1.464-.96 3.72-1.656 5.665-1.656 3.408 0 5.256 1.656 5.256 3.913 0 1.656-1.32 3.192-4.416 4.44h4.943l.072 3.576h-11.041v-3zM162.788 70.938c3.673 0 5.473 1.992 5.473 4.512 0 3.216-2.352 5.665-6.648 5.665-1.368 0-3.264-.24-4.68-.816l.336-3.72c1.176.576 2.951.984 4.152.984 1.632 0 2.496-.576 2.496-1.704 0-1.056-.744-1.728-2.953-1.728-1.031 0-2.279.216-3.023.504l-.504-.624 1.056-8.977h9.456l.072 3.576h-5.809l-.312 2.352c.193 0 .433-.024.888-.024zM176.253 76.986c-3.841 0-6.121-2.376-6.121-6.096 0-3.745 2.4-6.169 6.193-6.169 3.84 0 6.191 2.329 6.191 6.073s-2.4 6.192-6.263 6.192zm.048-9c-1.081 0-1.776.96-1.776 2.88 0 1.944.721 2.856 1.801 2.856 1.056 0 1.775-.936 1.775-2.856 0-1.944-.72-2.88-1.8-2.88zM186.572 71.97c2.04 0 3.288 1.68 3.288 3.504 0 2.305-2.064 3.913-4.296 4.993l-2.064-1.752c1.177-.768 2.376-1.488 2.376-2.256 0-.672-.527-1.224-2.376-1.92.192-1.585 1.513-2.569 3.072-2.569zM197.276 76.986c-3.84 0-6.121-2.376-6.121-6.096 0-3.745 2.4-6.169 6.193-6.169 3.84 0 6.192 2.329 6.192 6.073s-2.399 6.192-6.264 6.192zm.049-9c-1.08 0-1.777.96-1.777 2.88 0 1.944.721 2.856 1.801 2.856 1.057 0 1.775-.936 1.775-2.856 0-1.944-.719-2.88-1.799-2.88zM211.556 76.986c-3.84 0-6.12-2.376-6.12-6.096 0-3.745 2.4-6.169 6.192-6.169 3.841 0 6.193 2.329 6.193 6.073s-2.4 6.192-6.265 6.192zm.048-9c-1.08 0-1.776.96-1.776 2.88 0 1.944.72 2.856 1.8 2.856 1.057 0 1.776-.936 1.776-2.856 0-1.944-.719-2.88-1.8-2.88zM225.836 76.986c-3.841 0-6.12-2.376-6.12-6.096 0-3.745 2.4-6.169 6.192-6.169 3.841 0 6.192 2.329 6.192 6.073s-2.4 6.192-6.264 6.192zm.048-9c-1.08 0-1.775.96-1.775 2.88 0 1.944.72 2.856 1.8 2.856 1.056 0 1.776-.936 1.776-2.856 0-1.944-.721-2.88-1.801-2.88zM236.42 76.986c-1.608 0-2.64-.96-2.64-2.52s1.031-2.52 2.64-2.52 2.64.96 2.64 2.52-1.032 2.52-2.64 2.52z"/><path fill="#FF336C" d="M123.156 196.026l-4.336-4.336v-1.224l3.902 3.902v-7.812h.867v7.812l3.902-3.902v1.224l-4.335 4.336z"/><g><path fill="#FF336C" d="M45.889 158.44H20.702a2.41 2.41 0 0 1-2.406-2.409V121.66a2.41 2.41 0 0 1 2.406-2.408h25.187a2.41 2.41 0 0 1 2.407 2.408v34.371a2.411 2.411 0 0 1-2.407 2.409zm-25.187-38.183c-.773 0-1.403.629-1.403 1.403v34.371c0 .774.63 1.403 1.403 1.403h25.187c.774 0 1.403-.629 1.403-1.403V121.66c0-.773-.63-1.403-1.403-1.403H20.702z"/><path fill="#FF336C" d="M44.857 129.033a.506.506 0 0 1-.505.505H22.065a.506.506 0 0 1-.505-.505v-4.885c0-.278.227-.505.505-.505h22.287c.278 0 .505.227.505.505v4.885z"/><path fill="#FF336C" d="M44.353 130.04H22.065a1.008 1.008 0 0 1-1.007-1.007v-4.885a1.01 1.01 0 0 1 1.007-1.008h22.287c.555 0 1.006.452 1.006 1.008v4.885c0 .555-.451 1.007-1.005 1.007zm0-1.005v.503-.503zm-22.288-4.89l-.001 4.888 22.288.002.002-4.887-22.289-.003zM25.265 133.616v2.347h-2.698v-2.347h2.698m.5-1.005h-3.699a.506.506 0 0 0-.505.504v3.349c0 .276.227.503.505.503h3.699a.505.505 0 0 0 .504-.503v-3.349a.506.506 0 0 0-.504-.504zM31.461 133.616v2.347h-2.699v-2.347h2.699m.501-1.005H28.26a.506.506 0 0 0-.504.504v3.349c0 .276.228.503.504.503h3.702a.505.505 0 0 0 .503-.503v-3.349a.506.506 0 0 0-.503-.504zM37.656 133.616v2.347h-2.699v-2.347h2.699m.501-1.005h-3.701a.506.506 0 0 0-.504.504v3.349c0 .276.227.503.504.503h3.701a.506.506 0 0 0 .505-.503v-3.349a.507.507 0 0 0-.505-.504zM43.852 133.616v2.347h-2.698v-2.347h2.698m.501-1.005h-3.7a.507.507 0 0 0-.505.504v3.349c0 .276.228.503.505.503h3.7a.506.506 0 0 0 .505-.503v-3.349a.507.507 0 0 0-.505-.504zM25.265 139.767v2.347h-2.698v-2.347h2.698m.5-1.005h-3.699a.506.506 0 0 0-.505.503v3.349c0 .277.227.504.505.504h3.699a.505.505 0 0 0 .504-.504v-3.349a.505.505 0 0 0-.504-.503zM31.461 139.767v2.347h-2.699v-2.347h2.699m.501-1.005H28.26a.506.506 0 0 0-.504.503v3.349c0 .277.228.504.504.504h3.702a.506.506 0 0 0 .503-.504v-3.349a.505.505 0 0 0-.503-.503zM37.656 139.767v2.347h-2.699v-2.347h2.699m.501-1.005h-3.701a.506.506 0 0 0-.504.503v3.349c0 .277.227.504.504.504h3.701a.507.507 0 0 0 .505-.504v-3.349a.506.506 0 0 0-.505-.503zM43.852 139.767v2.347h-2.698v-2.347h2.698m.501-1.005h-3.7a.506.506 0 0 0-.505.503v3.349c0 .277.228.504.505.504h3.7a.506.506 0 0 0 .505-.504v-3.349a.506.506 0 0 0-.505-.503zM25.265 145.917v2.346h-2.698v-2.346h2.698m.5-1.006h-3.699a.506.506 0 0 0-.505.504v3.349c0 .276.227.503.505.503h3.699a.505.505 0 0 0 .504-.503v-3.349a.506.506 0 0 0-.504-.504zM31.461 145.917v2.346h-2.699v-2.346h2.699m.501-1.006H28.26a.506.506 0 0 0-.504.504v3.349c0 .276.228.503.504.503h3.702a.505.505 0 0 0 .503-.503v-3.349a.506.506 0 0 0-.503-.504zM37.656 145.917v2.346h-2.699v-2.346h2.699m.501-1.006h-3.701a.506.506 0 0 0-.504.504v3.349c0 .276.227.503.504.503h3.701a.506.506 0 0 0 .505-.503v-3.349a.507.507 0 0 0-.505-.504zM25.265 152.066v2.348h-2.698v-2.348h2.698m.5-1.004h-3.699a.506.506 0 0 0-.505.504v3.348c0 .277.227.504.505.504h3.699a.505.505 0 0 0 .504-.504v-3.348a.505.505 0 0 0-.504-.504zM31.461 152.066v2.348h-2.699v-2.348h2.699m.501-1.004H28.26a.506.506 0 0 0-.504.504v3.348c0 .277.228.504.504.504h3.702a.506.506 0 0 0 .503-.504v-3.348a.506.506 0 0 0-.503-.504zM37.656 152.066v2.348h-2.699v-2.348h2.699m.501-1.004h-3.701a.506.506 0 0 0-.504.504v3.348c0 .277.227.504.504.504h3.701a.507.507 0 0 0 .505-.504v-3.348a.507.507 0 0 0-.505-.504z"/><g><path fill="#FF336C" d="M43.852 145.917v8.497h-2.698v-8.497h2.698m.501-1.006h-3.7a.507.507 0 0 0-.505.504v9.499c0 .276.228.503.505.503h3.7a.506.506 0 0 0 .505-.503v-9.498a.507.507 0 0 0-.505-.505z"/></g><g fill="#FF336C"><path d="M62.45 120.983c-1.755 0-3.068 1.261-3.068 3.471 0 2.146 1.235 3.484 3.094 3.484.885 0 1.717-.312 2.275-.728l.156.819c-.611.403-1.495.663-2.444.663-2.354 0-3.926-1.651-3.926-4.212 0-2.587 1.65-4.251 3.926-4.251.988 0 1.898.299 2.509.663l-.26.741a4.12 4.12 0 0 0-2.262-.65zM66.883 120.397h.832v7.345h4.018v.78h-4.85v-8.125zM73.422 120.397h.818v8.125h-.818v-8.125zM80.144 120.983c-1.755 0-3.068 1.261-3.068 3.471 0 2.146 1.235 3.484 3.094 3.484.885 0 1.717-.312 2.275-.728l.156.819c-.611.403-1.495.663-2.444.663-2.354 0-3.926-1.651-3.926-4.212 0-2.587 1.65-4.251 3.926-4.251.988 0 1.898.299 2.509.663l-.26.741a4.123 4.123 0 0 0-2.262-.65zM89.179 120.397h1.065l-4.017 4.03 4.082 4.095H89.23l-3.81-3.887h-.013v3.887h-.832v-8.125h.832v3.9h.013l3.759-3.9zM99.552 124.818h-4.758v3.705h-.832v-8.125h.832v3.667h4.758v-3.667h.832v8.125h-.832v-3.705zM102.763 120.397h4.914v.767h-4.082v2.912h3.406v.754h-3.406v2.925h4.082v.767h-4.914v-8.125zM109.652 128.523v-8.125h2.184c2.016 0 2.951.923 2.951 2.34 0 1.209-.845 1.976-1.885 2.288l2.249 3.497h-.962l-2.08-3.354-1.625.104v3.25h-.832zm4.303-5.746c0-1.079-.793-1.625-2.21-1.625h-1.261v3.38l1.456-.052c1.08-.039 2.015-.624 2.015-1.703zM116.828 120.397h4.914v.767h-4.082v2.912h3.406v.754h-3.406v2.925h4.082v.767h-4.914v-8.125zM128.775 128.523h-.832v-7.345h-2.86v-.78h6.553v.78h-2.86v7.345zM136.705 128.692c-2.249 0-3.991-1.703-3.991-4.212 0-2.496 1.677-4.251 4.004-4.251 2.262 0 3.991 1.703 3.991 4.199 0 2.483-1.677 4.264-4.004 4.264zm-.014-7.722c-1.819 0-3.133 1.417-3.133 3.458 0 2.093 1.352 3.523 3.186 3.523 1.807 0 3.12-1.43 3.12-3.471 0-2.093-1.326-3.51-3.173-3.51zM148.249 120.983c-1.755 0-3.068 1.261-3.068 3.471 0 2.146 1.235 3.484 3.094 3.484.885 0 1.717-.312 2.275-.728l.156.819c-.611.403-1.495.663-2.444.663-2.354 0-3.926-1.651-3.926-4.212 0-2.587 1.65-4.251 3.926-4.251.988 0 1.898.299 2.509.663l-.26.741a4.12 4.12 0 0 0-2.262-.65zM158.077 128.523l-.858-2.327h-3.679l-.858 2.327h-.845l3.081-8.125h.975l3.029 8.125h-.845zm-4.251-3.081h3.106l-1.547-4.225-1.559 4.225zM160.456 120.397h.832v7.345h4.018v.78h-4.85v-8.125zM169.998 120.983c-1.755 0-3.068 1.261-3.068 3.471 0 2.146 1.235 3.484 3.094 3.484.885 0 1.717-.312 2.275-.728l.156.819c-.611.403-1.495.663-2.444.663-2.353 0-3.926-1.651-3.926-4.212 0-2.587 1.65-4.251 3.926-4.251.988 0 1.898.299 2.509.663l-.26.741a4.12 4.12 0 0 0-2.262-.65zM177.382 128.692c-1.938 0-3.042-1.222-3.042-3.146v-5.148h.806v5.044c0 1.56.754 2.483 2.275 2.483 1.456 0 2.223-.871 2.223-2.496v-5.031h.819v5.019c0 2.014-1.053 3.275-3.081 3.275zM182.737 120.397h.832v7.345h4.018v.78h-4.85v-8.125zM194.841 128.523l-.858-2.327h-3.679l-.858 2.327h-.845l3.081-8.125h.975l3.029 8.125h-.845zm-4.251-3.081h3.106l-1.547-4.225-1.559 4.225zM199.521 128.523h-.832v-7.345h-2.86v-.78h6.553v.78h-2.86v7.345zM204.019 120.397h4.914v.767h-4.082v2.912h3.406v.754h-3.406v2.925h4.082v.767h-4.914v-8.125zM64.556 139.818h-4.758v3.705h-.832v-8.125h.832v3.667h4.758v-3.667h.832v8.125h-.832v-3.705zM71.329 143.692c-2.249 0-3.991-1.703-3.991-4.212 0-2.496 1.677-4.251 4.004-4.251 2.262 0 3.991 1.703 3.991 4.199 0 2.483-1.677 4.264-4.004 4.264zm-.014-7.722c-1.819 0-3.133 1.417-3.133 3.458 0 2.093 1.353 3.523 3.186 3.523 1.807 0 3.12-1.43 3.12-3.471 0-2.093-1.326-3.51-3.173-3.51zM78.895 143.523l-2.313-8.125h.857l1.898 6.942 2.067-6.942h.988l2.105 6.942 1.82-6.942h.832l-2.275 8.125h-.806l-2.185-7.15-2.197 7.15h-.791zM96.692 141.261c0 1.313-.884 2.262-2.926 2.262h-2.639v-8.125h2.535c1.95 0 2.769.884 2.769 2.119 0 .793-.468 1.573-1.56 1.846 1.197.247 1.821.949 1.821 1.898zm-2.99-5.109H91.96v2.925h1.612c1.234 0 2.027-.52 2.027-1.495.001-.884-.597-1.43-1.897-1.43zm-.078 3.679H91.96v2.938h1.872c1.443 0 2.028-.572 2.028-1.508 0-.949-.78-1.43-2.236-1.43zM98.576 135.397h4.914v.767h-4.082v2.912h3.406v.754h-3.406v2.925h4.082v.767h-4.914v-8.125zM105.466 143.523v-8.125h2.185c2.015 0 2.95.923 2.95 2.34 0 1.209-.845 1.976-1.885 2.288l2.249 3.497h-.962l-2.08-3.354-1.625.104v3.25h-.832zm4.303-5.746c0-1.079-.793-1.625-2.21-1.625h-1.261v3.38l1.456-.052c1.079-.039 2.015-.624 2.015-1.703zM118.999 135.397v8.204h-.897l-4.654-7.033v6.955h-.806v-8.125h.937l4.614 6.968v-6.968h.806zM121.417 135.397h.818v8.125h-.818v-8.125zM124.654 135.397h4.914v.767h-4.082v2.912h3.406v.754h-3.406v2.925h4.082v.767h-4.914v-8.125zM131.687 134.969c.469 0 .924.416.924 1.027 0 .871-.716 1.651-1.612 2.236l-.352-.325c.832-.611 1.145-1.092 1.145-1.56 0-.325-.234-.507-.806-.728.037-.351.272-.65.701-.65zM138.265 141.417c0-.949-.78-1.326-2.054-1.703-1.145-.351-2.366-.832-2.366-2.275 0-1.3 1.092-2.21 2.6-2.21.937 0 1.755.247 2.444.702l-.299.728c-.611-.416-1.404-.676-2.133-.676-1.209 0-1.807.65-1.807 1.391 0 .884.806 1.248 2.054 1.625 1.184.351 2.354.884 2.354 2.354 0 1.352-1.118 2.34-2.743 2.34a4.851 4.851 0 0 1-2.613-.754l.299-.741c.663.455 1.404.754 2.341.754 1.13-.001 1.923-.664 1.923-1.535zM146 143.523h-.832v-7.345h-2.86v-.78h6.553v.78H146v7.345zM155.243 143.523l-.858-2.327h-3.679l-.858 2.327h-.845l3.081-8.125h.975l3.029 8.125h-.845zm-4.251-3.081h3.106l-1.547-4.225-1.559 4.225zM156.75 143.523l2.978-4.134-2.821-3.991h.988l2.34 3.393 2.353-3.393h.976l-2.848 3.952 2.99 4.173h-1.014l-2.483-3.601-2.483 3.601h-.976zM175.757 141.261c0 1.313-.884 2.262-2.926 2.262h-2.639v-8.125h2.535c1.95 0 2.769.884 2.769 2.119 0 .793-.468 1.573-1.56 1.846 1.197.247 1.821.949 1.821 1.898zm-2.99-5.109h-1.742v2.925h1.612c1.234 0 2.027-.52 2.027-1.495 0-.884-.598-1.43-1.897-1.43zm-.079 3.679h-1.664v2.938h1.872c1.443 0 2.028-.572 2.028-1.508.001-.949-.779-1.43-2.236-1.43zM177.642 143.523v-8.125h2.185c2.015 0 2.95.923 2.95 2.34 0 1.209-.845 1.976-1.885 2.288l2.249 3.497h-.962l-2.08-3.354-1.625.104v3.25h-.832zm4.302-5.746c0-1.079-.793-1.625-2.21-1.625h-1.261v3.38l1.456-.052c1.08-.039 2.015-.624 2.015-1.703zM190.213 143.523l-.858-2.327h-3.679l-.858 2.327h-.845l3.081-8.125h.975l3.029 8.125h-.845zm-4.252-3.081h3.107l-1.547-4.225-1.56 4.225zM196.011 135.983c-1.755 0-3.068 1.261-3.068 3.471 0 2.146 1.235 3.484 3.094 3.484.885 0 1.717-.312 2.275-.728l.156.819c-.611.403-1.495.663-2.444.663-2.354 0-3.926-1.651-3.926-4.212 0-2.587 1.65-4.251 3.926-4.251.988 0 1.898.299 2.509.663l-.26.741a4.123 4.123 0 0 0-2.262-.65zM205.046 135.397h1.065l-4.017 4.03 4.082 4.095h-1.079l-3.81-3.887h-.013v3.887h-.832v-8.125h.832v3.9h.013l3.759-3.9zM207.723 135.397h4.914v.767h-4.082v2.912h3.406v.754h-3.406v2.925h4.082v.767h-4.914v-8.125zM217.564 143.523h-.832v-7.345h-2.86v-.78h6.553v.78h-2.86v7.345zM226.053 141.417c0-.949-.78-1.326-2.054-1.703-1.145-.351-2.366-.832-2.366-2.275 0-1.3 1.092-2.21 2.6-2.21.937 0 1.755.247 2.444.702l-.299.728c-.611-.416-1.404-.676-2.132-.676-1.21 0-1.808.65-1.808 1.391 0 .884.806 1.248 2.054 1.625 1.184.351 2.354.884 2.354 2.354 0 1.352-1.118 2.34-2.743 2.34a4.851 4.851 0 0 1-2.613-.754l.299-.741c.663.455 1.404.754 2.341.754 1.13-.001 1.923-.664 1.923-1.535zM60.772 158.523l-2.313-8.125h.857l1.898 6.942 2.067-6.942h.987l2.106 6.942 1.82-6.942h.832l-2.275 8.125h-.806l-2.185-7.15-2.196 7.15h-.792zM74.268 158.692c-2.249 0-3.991-1.703-3.991-4.212 0-2.496 1.677-4.251 4.004-4.251 2.262 0 3.991 1.703 3.991 4.199-.001 2.483-1.677 4.264-4.004 4.264zm-.014-7.722c-1.819 0-3.133 1.417-3.133 3.458 0 2.093 1.352 3.523 3.186 3.523 1.807 0 3.12-1.43 3.12-3.471 0-2.093-1.326-3.51-3.173-3.51zM83.172 158.692c-1.938 0-3.042-1.222-3.042-3.146v-5.148h.806v5.044c0 1.56.754 2.483 2.275 2.483 1.456 0 2.223-.871 2.223-2.496v-5.031h.819v5.019c0 2.014-1.053 3.275-3.081 3.275zM88.527 150.397h.832v7.345h4.018v.78h-4.85v-8.125zM97.187 158.523h-2.146v-8.125h2.21c2.665 0 4.304 1.599 4.304 4.004 0 2.548-1.6 4.121-4.368 4.121zm.012-7.358h-1.326v6.591h1.352c2.08 0 3.498-1.066 3.498-3.289 0-2.08-1.287-3.302-3.524-3.302zM111.005 158.523l-.858-2.327h-3.679l-.858 2.327h-.845l3.081-8.125h.975l3.029 8.125h-.845zm-4.251-3.081h3.106l-1.547-4.225-1.559 4.225zM118.168 150.397v.78h-3.952v3.029h3.276v.767h-3.276v3.549h-.832v-8.125h4.784zM124.693 150.397v.78h-3.952v3.029h3.276v.767h-3.276v3.549h-.832v-8.125h4.784zM126.435 150.397h4.914v.767h-4.082v2.912h3.406v.754h-3.406v2.925h4.082v.767h-4.914v-8.125zM136.744 150.983c-1.755 0-3.068 1.261-3.068 3.471 0 2.146 1.235 3.484 3.094 3.484.885 0 1.717-.312 2.275-.728l.156.819c-.611.403-1.495.663-2.444.663-2.353 0-3.926-1.651-3.926-4.212 0-2.587 1.65-4.251 3.926-4.251.988 0 1.898.299 2.509.663l-.26.741a4.12 4.12 0 0 0-2.262-.65zM143.998 158.523h-.832v-7.345h-2.86v-.78h6.553v.78h-2.86v7.345zM153.384 158.523h-.832v-3.263l-2.834-4.862h.936l2.341 4.043 2.301-4.043h.923l-2.834 4.862v3.263zM161.146 158.692c-2.249 0-3.991-1.703-3.991-4.212 0-2.496 1.677-4.251 4.004-4.251 2.262 0 3.991 1.703 3.991 4.199-.001 2.483-1.677 4.264-4.004 4.264zm-.014-7.722c-1.819 0-3.133 1.417-3.133 3.458 0 2.093 1.353 3.523 3.186 3.523 1.807 0 3.12-1.43 3.12-3.471 0-2.093-1.326-3.51-3.173-3.51zM170.05 158.692c-1.938 0-3.042-1.222-3.042-3.146v-5.148h.806v5.044c0 1.56.754 2.483 2.275 2.483 1.456 0 2.223-.871 2.223-2.496v-5.031h.819v5.019c0 2.014-1.053 3.275-3.081 3.275zM175.457 158.692c-.377 0-.649-.325-.649-.676 0-.351.272-.65.649-.65s.65.299.65.65c0 .351-.273.676-.65.676z"/></g><g><path fill="none" stroke="#FF336C" stroke-miterlimit="10" d="M235.928 162.63c0 4.4-3.6 8-8 8H14.93c-4.4 0-8-3.6-8-8v-47.667c0-4.4 3.6-8 8-8h212.998c4.4 0 8 3.6 8 8v47.667z"/></g></g><g fill="#070042"><path d="M45.926 220.281v-1.429h.489c.133 0 .223-.034.269-.103.046-.069.069-.203.069-.404v-5.453c0-.196-.023-.328-.069-.394-.046-.066-.136-.099-.269-.099h-.489v-1.415h4.859c1.281 0 2.227.23 2.838.692.61.461.916 1.176.916 2.145 0 1.01-.301 1.747-.902 2.21s-1.561.695-2.878.695h-1.053v1.63c0 .197.024.329.072.396s.137.101.265.101h.606v1.429h-4.723zm3.78-4.984h.7c.458 0 .787-.114.988-.343s.302-.602.302-1.12c0-.513-.1-.878-.298-1.096-.199-.217-.534-.326-1.005-.326h-.686v2.885zM55.204 214.846v-1.429h1.695c.674 0 1.253-.055 1.736-.164v1.401c.269-.953.866-1.429 1.791-1.429.551 0 .985.19 1.302.571s.475.89.475 1.528c0 .551-.14.985-.42 1.302s-.657.475-1.131.475c-.324 0-.601-.102-.831-.304s-.345-.457-.345-.762c0-.428.182-.768.547-1.019a.69.69 0 0 0-.349-.082c-.346 0-.601.151-.762.455s-.254.771-.277 1.405v1.627c0 .178.021.294.065.349s.115.082.215.082h.424v1.429h-4.074v-1.429h.362c.1 0 .172-.027.215-.082s.065-.171.065-.349v-3.069c0-.196-.02-.329-.058-.4s-.113-.106-.222-.106h-.423zM62.807 216.856c0-1.086.355-1.963 1.067-2.63s1.649-1 2.812-1c1.141 0 2.059.332 2.754.997s1.043 1.542 1.043 2.633c0 1.083-.354 1.957-1.06 2.624-.707.667-1.642 1-2.806 1-1.15 0-2.073-.331-2.768-.993s-1.042-1.539-1.042-2.631zm2.727.134c0 .769.084 1.305.254 1.607.169.302.455.454.857.454s.688-.152.857-.457c.169-.305.254-.839.254-1.604v-.26c0-.773-.084-1.312-.254-1.618-.169-.305-.455-.457-.857-.457-.398 0-.682.154-.854.46-.172.307-.257.845-.257 1.614v.261zM71.086 214.846v-1.429h1.654c.693 0 1.271-.055 1.736-.164v1.374c.369-.934 1.101-1.401 2.194-1.401.884 0 1.583.329 2.099.988s.772 1.537.772 2.635c0 1.094-.272 1.972-.817 2.635s-1.271.995-2.177.995c-.989 0-1.666-.396-2.03-1.189v1.538c0 .178.021.294.065.349s.115.082.215.082h.403v1.429h-4.061v-1.429h.369c.1 0 .172-.027.215-.082s.065-.171.065-.349v-5.476c0-.196-.021-.329-.062-.4s-.114-.106-.219-.106h-.421zm3.432 2.133c0 1.212.365 1.818 1.094 1.818.725 0 1.087-.606 1.087-1.818v-.253c0-1.212-.362-1.818-1.087-1.818-.355 0-.626.141-.813.424s-.28.748-.28 1.395v.252zM80.254 216.856c0-1.086.355-1.963 1.067-2.63s1.649-1 2.812-1c1.141 0 2.059.332 2.754.997s1.043 1.542 1.043 2.633c0 1.083-.354 1.957-1.06 2.624-.707.667-1.642 1-2.806 1-1.15 0-2.073-.331-2.768-.993s-1.042-1.539-1.042-2.631zm2.728.134c0 .769.084 1.305.254 1.607.169.302.455.454.857.454s.688-.152.857-.457c.169-.305.254-.839.254-1.604v-.26c0-.773-.084-1.312-.254-1.618-.169-.305-.455-.457-.857-.457-.398 0-.682.154-.854.46-.172.307-.257.845-.257 1.614v.261zM88.664 215.646c0-.756.306-1.349.919-1.777.612-.428 1.478-.643 2.597-.643.562 0 1.09.055 1.585.164s.907.237 1.235.383v1.709h-1.709v-.854a3.163 3.163 0 0 0-.935-.13c-.304 0-.541.052-.71.157a.485.485 0 0 0-.255.431c0 .055.006.104.019.147s.036.084.068.123a.77.77 0 0 0 .099.099c.033.027.083.054.148.079l.171.065c.048.018.119.038.213.058l.229.051c.059.013.147.032.267.055l.278.055c.223.05.414.099.575.147s.346.112.554.191c.208.08.385.173.529.28.145.107.283.233.416.379s.232.321.298.526.1.433.1.684c0 .775-.291 1.377-.872 1.808s-1.417.646-2.508.646c-1.042 0-2.114-.182-3.216-.547v-1.764h1.613v.937c.306.064.688.096 1.145.096.741 0 1.111-.205 1.111-.615a.543.543 0 0 0-.037-.208c-.024-.062-.073-.116-.146-.164s-.139-.088-.197-.12a1.479 1.479 0 0 0-.306-.103c-.146-.037-.261-.064-.346-.082s-.232-.048-.441-.089c-.277-.059-.514-.119-.711-.178s-.415-.147-.656-.263-.436-.246-.587-.39c-.15-.144-.278-.331-.382-.561s-.155-.49-.155-.782zM95.577 216.835c0-1.089.341-1.963 1.022-2.622s1.594-.988 2.738-.988c1.171 0 2.047.329 2.628.988s.872 1.612.872 2.861v.28H98.42c.018.501.165.876.441 1.125s.657.373 1.145.373c.725 0 1.242-.326 1.552-.978l1.271.909c-.592 1.13-1.716 1.695-3.37 1.695-1.23 0-2.185-.332-2.864-.995s-1.018-1.545-1.018-2.648zm2.802-.656h1.921c-.014-.556-.09-.948-.229-1.179s-.361-.346-.667-.346c-.333 0-.58.119-.742.355-.161.239-.255.628-.283 1.17zM103.528 216.849c0-1.084.275-1.959.825-2.625s1.267-.998 2.149-.998c1.02 0 1.708.365 2.064 1.094v-1.401c0-.196-.021-.329-.062-.4s-.114-.106-.219-.106h-.424v-1.429h1.695c.693 0 1.271-.055 1.736-.164v7.602c0 .178.021.294.065.349s.115.082.215.082h.308v1.429h-3.021c0-.018-.039-.396-.116-1.135-.347.889-1.09 1.333-2.228 1.333-.905 0-1.629-.332-2.173-.995s-.814-1.542-.814-2.636zm2.844.13c0 1.24.366 1.859 1.097 1.859s1.097-.62 1.097-1.859v-.253c0-1.244-.366-1.866-1.097-1.866s-1.097.622-1.097 1.866v.253zM116.328 215.66c0-1.477.402-2.658 1.207-3.544s1.872-1.33 3.203-1.33c1.249 0 2.078.444 2.488 1.333l.451-1.135h1.497v3.685h-2.283c-.086-.702-.261-1.213-.523-1.535s-.642-.482-1.138-.482c-.638 0-1.102.218-1.391.653s-.434 1.127-.434 2.075v.465c0 1.016.15 1.736.451 2.16s.768.636 1.401.636c.551 0 .982-.153 1.292-.458s.499-.782.567-1.429l2.14.376c-.055.497-.174.944-.359 1.343s-.441.751-.769 1.056-.75.54-1.265.704-1.107.246-1.777.246c-1.504 0-2.673-.418-3.507-1.254s-1.251-2.025-1.251-3.565zM125.899 212.413v-1.429h1.695c.693 0 1.271-.055 1.736-.164v3.541c.424-.756 1.162-1.135 2.215-1.135 1.5 0 2.249.909 2.249 2.728v2.468c0 .178.021.294.065.349s.115.082.215.082h.369v1.429h-3.951v-1.429h.294c.1 0 .172-.027.215-.082s.065-.171.065-.349v-2.365c0-.396-.062-.678-.185-.844s-.328-.25-.615-.25c-.314 0-.549.122-.704.366s-.232.63-.232 1.159v1.935c0 .178.021.294.065.349s.115.082.215.082h.294v1.429h-3.951v-1.429h.369c.1 0 .172-.027.215-.082s.065-.171.065-.349v-5.503c0-.196-.021-.329-.062-.4s-.114-.106-.219-.106h-.422zM135.054 218.629c0-.832.47-1.453 1.411-1.865.503-.217 1.309-.421 2.419-.612l.242-.042c.163-.022.287-.04.371-.053v-.368c0-.36-.081-.623-.244-.788-.164-.165-.436-.247-.816-.247-.172 0-.343.018-.514.053.043.194.064.367.064.517 0 .318-.119.582-.355.791s-.539.314-.904.314c-.473 0-.835-.106-1.088-.318-.253-.212-.38-.516-.38-.913 0-.615.308-1.081.922-1.398.614-.317 1.505-.475 2.669-.475 1.234 0 2.105.184 2.613.553s.762 1.004.762 1.908v2.74c0 .158.02.268.058.331s.108.094.208.094h.363v1.429h-2.715a1.958 1.958 0 0 1-.361-.412 2.817 2.817 0 0 1-.254-.55c-.162.334-.451.611-.865.831s-.861.33-1.342.33c-.699 0-1.25-.172-1.655-.515-.406-.344-.609-.789-.609-1.335zm2.728-.384c0 .237.056.431.168.581.113.15.256.225.432.225.363 0 .639-.131.83-.392.19-.261.285-.615.285-1.06v-.537a83.95 83.95 0 0 1-.615.125c-.17.034-.326.082-.467.142-.141.061-.254.131-.338.21s-.154.178-.211.298-.084.254-.084.408zM143.382 220.281v-1.429h.362c.101 0 .172-.027.216-.082.043-.055.064-.171.064-.349v-3.069c0-.196-.021-.329-.062-.4s-.114-.106-.219-.106h-.362v-1.429h1.606c.684 0 1.258-.055 1.723-.164v1.176c.41-.802 1.162-1.203 2.256-1.203 1.499 0 2.249.914 2.249 2.741v2.454c0 .178.021.294.064.349.044.055.115.082.216.082h.369v1.429h-3.951v-1.429h.294c.1 0 .172-.027.215-.082.044-.055.065-.171.065-.349v-2.413c0-.396-.061-.677-.181-.841-.121-.164-.322-.246-.605-.246-.318 0-.557.12-.715.359-.156.239-.235.623-.235 1.152v1.989c0 .178.021.294.065.349.043.055.115.082.215.082h.294v1.429h-3.943zM152.167 221.778c0-.602.58-1.035 1.742-1.299-.92-.255-1.38-.77-1.38-1.545 0-.346.112-.65.337-.913.226-.262.549-.466.971-.612-.666-.392-1-.984-1-1.777 0-.72.336-1.301 1.008-1.743s1.547-.663 2.625-.663c.791 0 1.474.13 2.046.39.116-.378.296-.669.54-.872s.541-.304.889-.304c.335 0 .607.093.819.28s.317.426.317.718c0 .314-.078.556-.234.725-.157.168-.381.253-.672.253-.354 0-.612-.137-.773-.41l-.135.089c.443.415.666.923.666 1.524 0 .748-.318 1.324-.954 1.729s-1.516.608-2.638.608a6.609 6.609 0 0 1-1.59-.171c-.188.018-.32.05-.396.096a.216.216 0 0 0-.116.198c0 .137.069.232.208.287.14.055.385.082.736.082.357 0 .899-.007 1.627-.021a92.567 92.567 0 0 1 1.529-.021c.797 0 1.396.188 1.795.564s.599.883.599 1.521c0 .857-.354 1.5-1.065 1.931-.709.431-1.822.646-3.34.646-1.049 0-1.883-.05-2.5-.15-.619-.1-1.049-.242-1.294-.424a.848.848 0 0 1-.367-.716zm2.017-.294c0 .214.164.359.491.434.328.075.917.113 1.768.113.84 0 1.443-.058 1.811-.174.368-.116.552-.3.552-.55 0-.201-.069-.337-.208-.41s-.426-.109-.863-.109h-2.615c-.625.14-.936.372-.936.696zm1.38-5.694c0 .661.271.991.81.991.287 0 .496-.082.631-.246.133-.164.2-.424.2-.779v-.294c0-.355-.065-.616-.197-.783s-.334-.25-.606-.25c-.558 0-.837.351-.837 1.053v.308zM161.192 216.835c0-1.089.34-1.963 1.021-2.622s1.594-.988 2.738-.988c1.171 0 2.047.329 2.628.988s.872 1.612.872 2.861v.28h-4.416c.018.501.164.876.44 1.125s.657.373 1.146.373c.725 0 1.241-.326 1.551-.978l1.271.909c-.592 1.13-1.715 1.695-3.369 1.695-1.23 0-2.186-.332-2.865-.995-.678-.662-1.017-1.545-1.017-2.648zm2.803-.656h1.92c-.014-.556-.09-.948-.229-1.179s-.361-.346-.666-.346c-.333 0-.58.119-.742.355-.162.239-.256.628-.283 1.17zM169.171 215.646c0-.756.307-1.349.919-1.777s1.478-.643 2.597-.643c.562 0 1.091.055 1.586.164s.906.237 1.235.383v1.709h-1.709v-.854a3.163 3.163 0 0 0-.935-.13c-.305 0-.541.052-.711.157s-.255.249-.255.431a.375.375 0 0 0 .087.27.552.552 0 0 0 .248.178l.172.065c.048.018.119.038.213.058l.229.051c.059.013.147.032.267.055l.278.055c.223.05.414.099.575.147s.346.112.554.191c.209.08.385.173.529.28s.283.233.416.379.231.321.298.526.1.433.1.684c0 .775-.29 1.377-.872 1.808s-1.418.646-2.508.646c-1.042 0-2.114-.182-3.217-.547v-1.764h1.613v.937a5.73 5.73 0 0 0 1.145.096c.74 0 1.111-.205 1.111-.615a.543.543 0 0 0-.037-.208.349.349 0 0 0-.145-.164c-.073-.048-.139-.088-.197-.12s-.16-.066-.307-.103c-.146-.037-.261-.064-.346-.082s-.232-.048-.441-.089a9.28 9.28 0 0 1-.711-.178c-.196-.059-.414-.147-.655-.263s-.437-.246-.587-.39-.277-.331-.383-.561a1.889 1.889 0 0 1-.156-.782zM179.947 220.281v-1.429h.284c.076 0 .128-.031.157-.092s.044-.174.044-.338v-3.015c0-.209-.016-.355-.049-.438s-.094-.123-.184-.123h-.253v-1.429h1.634c.684 0 1.268-.055 1.75-.164v5.168c0 .164.015.277.043.338.029.062.081.092.155.092h.26v1.429h-3.841zm.818-7.622c-.279-.237-.419-.547-.419-.93s.14-.694.419-.933.648-.359 1.106-.359.825.12 1.103.359.415.55.415.933-.138.693-.415.93-.645.355-1.103.355-.827-.118-1.106-.355zM184.521 220.281v-1.429h.362c.1 0 .172-.027.215-.082.044-.055.065-.171.065-.349v-3.069c0-.196-.021-.329-.062-.4s-.113-.106-.219-.106h-.362v-1.429h1.606c.684 0 1.258-.055 1.723-.164v1.176c.41-.802 1.162-1.203 2.256-1.203 1.5 0 2.249.914 2.249 2.741v2.454c0 .178.021.294.065.349.043.055.115.082.215.082h.369v1.429h-3.951v-1.429h.294c.101 0 .172-.027.216-.082.043-.055.064-.171.064-.349v-2.413c0-.396-.061-.677-.182-.841-.12-.164-.322-.246-.604-.246-.319 0-.558.12-.714.359-.158.239-.236.623-.236 1.152v1.989c0 .178.021.294.064.349.044.055.115.082.216.082h.294v1.429h-3.943zM53.19 237.081v-1.429h.602c.132 0 .221-.034.267-.103s.068-.202.068-.403v-5.441c0-.195-.023-.327-.068-.393-.045-.066-.134-.1-.267-.1h-.602v-1.429h4.956l1.299 4.478 1.333-4.478h4.826v1.429h-.492c-.132 0-.221.033-.267.1-.045.065-.068.197-.068.393v5.441c0 .201.023.335.068.403s.134.103.267.103h.492v1.429h-4.546v-1.429h.485c.127 0 .215-.034.263-.103s.072-.202.072-.403v-5.373l-2.181 7.308H57.88l-2.044-7.239v5.305c0 .201.024.335.072.403s.136.103.263.103h.588v1.429H53.19zM66.317 235.429c0-.832.47-1.453 1.411-1.865.502-.217 1.309-.42 2.418-.611l.243-.042c.163-.022.287-.04.372-.054v-.367c0-.36-.082-.623-.245-.788-.163-.165-.436-.247-.816-.247-.171 0-.342.018-.513.053.042.194.064.367.064.517 0 .317-.119.581-.355.791-.237.21-.539.314-.905.314-.472 0-.835-.106-1.088-.317-.253-.213-.38-.517-.38-.913 0-.615.308-1.081.922-1.397.615-.317 1.505-.476 2.669-.476 1.234 0 2.104.185 2.612.553s.762 1.005.762 1.908v2.739c0 .158.02.269.058.332.039.062.108.094.208.094h.362v1.429h-2.714c-.155-.138-.276-.274-.362-.412s-.171-.321-.253-.55c-.163.334-.452.611-.866.83a2.81 2.81 0 0 1-1.342.33c-.698 0-1.25-.172-1.655-.516s-.607-.789-.607-1.335zm2.727-.385c0 .236.056.431.169.58.112.15.256.226.431.226.363 0 .64-.131.831-.392.19-.262.286-.615.286-1.061v-.537l-.615.125a2.222 2.222 0 0 0-.467.142c-.141.062-.253.131-.338.21s-.155.178-.211.298-.086.256-.086.409zM74.597 231.646v-1.429h1.695c.674 0 1.253-.055 1.736-.164v1.401c.269-.953.866-1.429 1.791-1.429.551 0 .985.19 1.302.571.317.38.475.889.475 1.527 0 .551-.14.985-.42 1.303-.28.316-.657.475-1.131.475-.324 0-.601-.102-.831-.305a.973.973 0 0 1-.345-.762c0-.428.182-.768.547-1.019a.69.69 0 0 0-.349-.082.805.805 0 0 0-.762.454c-.162.304-.254.771-.277 1.405v1.627c0 .178.021.294.065.349s.115.082.215.082h.424v1.429h-4.074v-1.429h.362c.1 0 .172-.027.215-.082s.065-.171.065-.349v-3.069c0-.195-.02-.329-.058-.4-.039-.07-.113-.105-.222-.105h-.423zM81.919 238.578c0-.602.581-1.035 1.742-1.299-.92-.256-1.38-.77-1.38-1.545 0-.346.112-.65.337-.912.225-.263.549-.467.971-.612-.667-.392-1-.984-1-1.777 0-.72.336-1.302 1.007-1.743.672-.441 1.547-.663 2.625-.663.792 0 1.474.13 2.046.39.116-.379.296-.669.541-.871.244-.203.54-.305.889-.305.334 0 .607.094.819.28s.317.427.317.718c0 .314-.079.557-.235.725-.157.168-.38.253-.671.253-.354 0-.613-.137-.774-.41l-.135.089c.444.414.666.923.666 1.524 0 .747-.318 1.323-.954 1.729s-1.516.608-2.638.608a6.657 6.657 0 0 1-1.589-.171c-.188.018-.32.051-.397.096s-.116.111-.116.198c0 .137.069.232.208.287s.384.082.736.082c.356 0 .899-.007 1.626-.021a92.705 92.705 0 0 1 1.529-.021c.798 0 1.396.188 1.795.563.399.377.599.883.599 1.521 0 .857-.355 1.5-1.065 1.932-.71.43-1.823.646-3.341.646-1.049 0-1.882-.05-2.5-.15-.618-.101-1.049-.241-1.293-.424a.853.853 0 0 1-.365-.717zm2.017-.294c0 .214.164.358.492.435.328.074.917.112 1.768.112.839 0 1.443-.058 1.811-.175.368-.115.551-.299.551-.55 0-.2-.069-.337-.208-.41s-.426-.109-.863-.109H84.87c-.623.141-.934.373-.934.697zm1.38-5.695c0 .66.27.991.81.991.286 0 .496-.082.63-.246.134-.164.201-.424.201-.779v-.294c0-.355-.066-.616-.197-.783-.132-.166-.334-.249-.606-.249-.558 0-.837.351-.837 1.053v.307zM91.128 237.081v-1.429h.284c.076 0 .128-.031.157-.092.029-.062.044-.175.044-.339v-3.015c0-.209-.016-.355-.049-.438s-.094-.123-.184-.123h-.253v-1.429h1.634c.684 0 1.267-.055 1.75-.164v5.168c0 .164.015.276.043.339.029.061.081.092.155.092h.26v1.429h-3.841zm.818-7.623c-.28-.236-.419-.547-.419-.93s.14-.693.419-.933c.279-.239.648-.359 1.106-.359.458 0 .825.12 1.102.359.277.24.416.55.416.933s-.138.693-.416.93c-.277.236-.645.355-1.102.355-.458.001-.826-.118-1.106-.355zM95.703 237.081v-1.429h.362c.1 0 .172-.027.215-.082s.065-.171.065-.349v-3.069c0-.195-.021-.329-.062-.4-.041-.07-.114-.105-.219-.105h-.362v-1.429h1.606c.684 0 1.258-.055 1.723-.164v1.176c.41-.802 1.162-1.203 2.256-1.203 1.5 0 2.249.913 2.249 2.741v2.454c0 .178.021.294.065.349s.115.082.215.082h.369v1.429h-3.951v-1.429h.294c.1 0 .172-.027.215-.082s.065-.171.065-.349v-2.413c0-.396-.061-.677-.181-.841s-.322-.246-.605-.246c-.319 0-.557.12-.714.358-.157.24-.236.623-.236 1.152v1.989c0 .178.021.294.065.349s.115.082.215.082h.294v1.429h-3.943zM104.796 235.429c0-.832.47-1.453 1.411-1.865.502-.217 1.309-.42 2.418-.611l.243-.042c.163-.022.287-.04.372-.054v-.367c0-.36-.082-.623-.245-.788-.163-.165-.436-.247-.816-.247-.171 0-.342.018-.513.053.042.194.064.367.064.517 0 .317-.119.581-.355.791-.237.21-.539.314-.905.314-.472 0-.835-.106-1.088-.317-.253-.213-.38-.517-.38-.913 0-.615.308-1.081.922-1.397.615-.317 1.505-.476 2.669-.476 1.234 0 2.104.185 2.612.553s.762 1.005.762 1.908v2.739c0 .158.02.269.058.332.039.062.108.094.208.094h.362v1.429h-2.714c-.155-.138-.276-.274-.362-.412s-.171-.321-.253-.55c-.163.334-.452.611-.866.83a2.81 2.81 0 0 1-1.342.33c-.698 0-1.25-.172-1.655-.516s-.607-.789-.607-1.335zm2.728-.385c0 .236.056.431.169.58.112.15.256.226.431.226.363 0 .64-.131.831-.392.19-.262.286-.615.286-1.061v-.537l-.615.125a2.222 2.222 0 0 0-.467.142c-.141.062-.253.131-.338.21s-.155.178-.211.298-.086.256-.086.409zM113.076 229.212v-1.429h1.695c.684 0 1.267-.055 1.75-.164v7.602c0 .178.021.294.063.349s.112.082.21.082h.315v1.429h-3.958v-1.429h.376c.096 0 .164-.027.205-.082s.062-.171.062-.349v-5.503c0-.195-.019-.329-.056-.4-.037-.07-.109-.105-.216-.105h-.446zM121.658 230.511v-2.728h8.579v2.728h-1.34l-.116-.643c-.045-.268-.154-.444-.327-.529-.172-.084-.472-.127-.898-.127h-.238v5.936c0 .199.024.334.071.402.047.067.137.102.268.102h.597v1.429h-4.717v-1.429h.604c.126 0 .214-.034.261-.102.047-.068.071-.203.071-.402v-5.936h-.144c-.428 0-.727.043-.896.127-.168.085-.276.262-.321.529l-.109.643h-1.345zM131.079 235.429c0-.832.47-1.453 1.411-1.865.502-.217 1.309-.42 2.418-.611l.243-.042c.163-.022.287-.04.372-.054v-.367c0-.36-.082-.623-.245-.788-.163-.165-.436-.247-.816-.247-.171 0-.342.018-.513.053.042.194.064.367.064.517 0 .317-.119.581-.355.791-.237.21-.539.314-.905.314-.472 0-.835-.106-1.088-.317-.253-.213-.38-.517-.38-.913 0-.615.308-1.081.922-1.397.615-.317 1.505-.476 2.669-.476 1.234 0 2.104.185 2.612.553s.762 1.005.762 1.908v2.739c0 .158.02.269.058.332.039.062.109.094.209.094h.362v1.429h-2.714c-.154-.138-.276-.274-.362-.412s-.171-.321-.253-.55c-.163.334-.452.611-.866.83a2.81 2.81 0 0 1-1.342.33c-.698 0-1.25-.172-1.655-.516s-.608-.789-.608-1.335zm2.728-.385c0 .236.056.431.169.58.112.15.256.226.431.226.363 0 .64-.131.831-.392.19-.262.286-.615.286-1.061v-.537l-.615.125a2.222 2.222 0 0 0-.467.142c-.141.062-.253.131-.338.21s-.155.178-.211.298-.086.256-.086.409zM139.358 237.081v-1.429h.281a.56.56 0 0 0 .142-.018c.023-.006.043-.014.059-.02a.553.553 0 0 0 .059-.035c.022-.016.039-.027.051-.037a1.214 1.214 0 0 0 .11-.11c.012-.014.034-.039.068-.075s.059-.063.072-.082l1.4-1.559-1.469-1.688-.104-.123a1.655 1.655 0 0 0-.099-.113 1.983 1.983 0 0 0-.082-.074.275.275 0 0 0-.208-.073h-.219v-1.429h4.266v1.429h-.35a.185.185 0 0 0-.177.164c-.009.055.023.123.096.205l.615.779.67-.779a.343.343 0 0 0 .082-.168.171.171 0 0 0-.033-.143c-.032-.039-.08-.059-.145-.059h-.293v-1.429h3.049v1.429h-.336c-.05 0-.096.004-.137.014l-.099.023a.232.232 0 0 0-.085.055c-.032.03-.055.053-.068.068l-.086.104c-.043.052-.076.092-.1.119l-1.312 1.456 1.539 1.75c.022.027.053.068.092.123s.069.095.092.12c.023.024.052.053.086.085a.309.309 0 0 0 .222.089h.178v1.429h-4.279v-1.429h.375c.096 0 .161-.031.195-.092.034-.062.01-.152-.072-.271l-.725-.923-.744.923c-.068.091-.094.175-.076.249.019.076.078.113.178.113h.309v1.429h-2.988zM151.536 237.081v-1.429h.485c.128 0 .216-.035.263-.105.049-.071.072-.205.072-.401v-5.453c0-.187-.023-.316-.072-.388-.047-.07-.135-.105-.263-.105h-.485v-1.415h5.331c1.142 0 1.998.207 2.569.62.57.414.856 1.068.856 1.963 0 1.166-.649 1.907-1.948 2.223.615.164 1.058.441 1.328.834.271.393.426.926.462 1.6.014.232.058.396.134.488.074.094.199.141.372.141h.191v1.429h-2.19c-.279 0-.527-.065-.742-.198a1.487 1.487 0 0 1-.523-.557c-.133-.24-.236-.5-.312-.783s-.127-.595-.154-.937c-.037-.487-.133-.845-.291-1.073-.156-.229-.443-.342-.857-.342h-.506v1.955c0 .195.023.329.072.4.047.07.135.105.263.105h.492v1.429h-4.547zm3.719-5.093h.561c.551 0 .943-.107 1.176-.322.232-.216.349-.582.349-1.1 0-.49-.104-.838-.314-1.045-.21-.205-.556-.309-1.039-.309h-.731v2.776zM161.442 235.429c0-.832.471-1.453 1.411-1.865.503-.217 1.309-.42 2.419-.611l.242-.042c.163-.022.287-.04.371-.054v-.367c0-.36-.081-.623-.244-.788-.164-.165-.436-.247-.816-.247-.172 0-.343.018-.514.053.043.194.064.367.064.517 0 .317-.119.581-.355.791s-.539.314-.904.314c-.473 0-.836-.106-1.088-.317-.254-.213-.381-.517-.381-.913 0-.615.309-1.081.923-1.397.614-.317 1.505-.476 2.669-.476 1.234 0 2.105.185 2.613.553s.762 1.005.762 1.908v2.739c0 .158.02.269.058.332.038.062.108.094.208.094h.363v1.429h-2.715a1.958 1.958 0 0 1-.361-.412 2.845 2.845 0 0 1-.254-.55c-.162.334-.451.611-.865.83-.414.221-.861.33-1.342.33-.699 0-1.25-.172-1.655-.516s-.609-.789-.609-1.335zm2.729-.385c0 .236.056.431.168.58.113.15.256.226.432.226.363 0 .639-.131.83-.392.19-.262.285-.615.285-1.061v-.537a83.95 83.95 0 0 1-.615.125 2.26 2.26 0 0 0-.467.142c-.141.062-.254.131-.338.21s-.154.178-.211.298-.084.256-.084.409zM169.682 231.646v-1.271a.55.55 0 0 1 .079-.01c.026-.003.052-.006.074-.011.023-.005.047-.008.07-.011a.621.621 0 0 1 .053-.003l.019-.007c.31-.072.562-.189.756-.349s.321-.394.382-.704l.176-1.087h1.878v2.023h1.08v1.429h-1.121v3.192c0 .319.056.541.169.667.111.125.289.188.53.188.142 0 .315-.031.518-.096v1.483a5.045 5.045 0 0 1-1.392.198c-.926 0-1.583-.188-1.971-.564-.389-.375-.582-1.006-.582-1.89v-3.179h-.718zM175.118 233.635c0-1.089.34-1.963 1.021-2.622.682-.658 1.594-.987 2.738-.987 1.171 0 2.047.329 2.628.987.581.659.872 1.613.872 2.861v.28h-4.416c.018.501.164.876.44 1.124.276.249.657.373 1.146.373.725 0 1.241-.326 1.551-.978l1.271.909c-.592 1.131-1.715 1.695-3.369 1.695-1.23 0-2.186-.332-2.865-.994-.678-.662-1.017-1.545-1.017-2.648zm2.803-.656h1.92c-.014-.556-.09-.948-.229-1.179s-.361-.346-.666-.346c-.333 0-.58.119-.742.355-.162.238-.256.628-.283 1.17zM183.097 232.446c0-.757.307-1.349.919-1.777s1.478-.643 2.597-.643c.562 0 1.091.055 1.586.164s.906.237 1.235.383v1.709h-1.709v-.854a3.163 3.163 0 0 0-.935-.13c-.305 0-.541.052-.711.157s-.255.248-.255.431a.375.375 0 0 0 .087.27.525.525 0 0 0 .248.178c.066.024.123.047.172.064.048.018.119.037.213.059l.229.051c.059.014.147.031.267.055l.278.055c.223.051.414.1.575.146.161.049.346.112.554.191.209.08.385.174.529.281.145.106.283.232.416.379s.231.321.298.526.1.433.1.684c0 .774-.29 1.378-.872 1.808-.582.432-1.418.646-2.508.646-1.042 0-2.114-.182-3.217-.547v-1.764h1.613v.937c.307.063.688.096 1.145.096.74 0 1.111-.205 1.111-.615a.547.547 0 0 0-.037-.208.344.344 0 0 0-.145-.164c-.073-.049-.139-.088-.197-.12s-.16-.065-.307-.103c-.146-.037-.261-.064-.346-.082s-.232-.048-.441-.089a9.28 9.28 0 0 1-.711-.178 4.704 4.704 0 0 1-.655-.263 2.253 2.253 0 0 1-.587-.391 1.865 1.865 0 0 1-.539-1.342z"/></g><g><path fill="none" stroke="#FF336C" stroke-miterlimit="10" d="M38.345 3.626c4.371 0 4.371 2 8.742 2s4.371-2 8.741-2c4.372 0 4.372 2 8.744 2 4.371 0 4.371-2 8.742-2 4.372 0 4.372 2 8.744 2 4.373 0 4.373-2 8.746-2 4.372 0 4.372 2 8.744 2 4.373 0 4.373-2 8.745-2 4.373 0 4.373 2 8.746 2 4.374 0 4.374-2 8.747-2s4.373 2 8.746 2 4.373-2 8.745-2 4.372 2 8.744 2 4.372-2 8.744-2c4.373 0 4.373 2 8.746 2 4.375 0 4.375-2 8.75-2 4.374 0 4.374 2 8.747 2 4.377 0 4.377-2 8.753-2s4.376 2 8.753 2"/></g></svg>