<svg xmlns="http://www.w3.org/2000/svg" width="242.708" height="429.167" viewBox="0 0 242.708 429.167"><path fill="#002C3C" d="M17.617 8.499v15.146h-5.016l-5.4-8.641V23.5H2.808V8.499h5.088l5.329 8.521V8.499h4.392zM26.375 23.86c-3.48 0-6.216-1.992-6.216-5.928 0-3.913 2.904-6.024 6.384-6.024 3.48 0 6.217 2.088 6.217 5.928s-2.904 6.024-6.385 6.024zm.073-8.617c-1.152 0-1.752.96-1.752 2.665 0 1.656.6 2.592 1.776 2.592 1.152 0 1.752-.936 1.752-2.64 0-1.657-.6-2.617-1.776-2.617zM40.127 23.86c-3.096 0-4.752-1.176-4.584-4.368l.168-3.289-1.584-.36.072-2.928 1.584-.552.048-2.617h4.44v2.736h2.472l-.072 3.457h-2.76l-.096 2.88c-.072 1.032.6 1.416 1.488 1.416.384 0 .768-.072 1.176-.216l.48 3.48c-.863.241-1.535.361-2.832.361zM54.599 18.7c0 1.056.528 1.392 1.224 1.392.552 0 .96-.192 1.32-.48v-7.345h4.584v10.945l-4.584.528v-1.68c-.768.936-2.064 1.8-3.576 1.8-2.232 0-3.552-1.464-3.552-3.864v-7.729h4.584V18.7zM71.903 17.067c0-1.056-.528-1.392-1.224-1.392-.648 0-1.176.312-1.56.672V23.5h-4.584V12.555l4.584-.528v1.92c.96-1.224 2.28-2.04 3.816-2.04 2.232 0 3.552 1.464 3.552 3.864V23.5h-4.584v-6.433zM79.246 7.779l4.584-.528V23.5h-4.584V7.779zM93.167 20.692c1.248 0 2.592-.48 3.816-1.176l.36 3.408c-1.224.552-2.928.912-4.656.912-4.033 0-6.577-1.992-6.577-5.88 0-3.72 2.544-6.048 6.336-6.048 3.457 0 5.281 1.992 5.281 4.872 0 .6-.072 1.584-.24 2.064l-6.937.168v.024c.169 1.128.985 1.656 2.617 1.656zm.336-3.984c0-1.176-.432-1.848-1.32-1.848-.936 0-1.536.864-1.632 2.088h2.928c.024-.073.024-.145.024-.24zM104.663 23.86c-1.656 0-3.937-.36-5.208-.984l.84-3.096c1.512.696 3.072 1.08 4.44 1.08.864 0 1.152-.216 1.152-.576 0-.384-.264-.552-1.536-.816-3.144-.552-4.729-1.584-4.729-3.864 0-2.136 1.848-3.696 5.4-3.696 1.608 0 3.913.456 5.041 1.032l-.864 3.072c-1.44-.696-3.048-1.104-4.177-1.104-.768 0-1.08.168-1.08.552s.432.504 1.608.768c3.168.648 4.632 1.536 4.632 3.864.001 1.992-1.775 3.768-5.519 3.768zM117.118 23.86c-1.656 0-3.937-.36-5.208-.984l.84-3.096c1.512.696 3.072 1.08 4.44 1.08.864 0 1.152-.216 1.152-.576 0-.384-.264-.552-1.536-.816-3.144-.552-4.729-1.584-4.729-3.864 0-2.136 1.848-3.696 5.4-3.696 1.608 0 3.913.456 5.041 1.032l-.864 3.072c-1.44-.696-3.048-1.104-4.177-1.104-.768 0-1.08.168-1.08.552s.432.504 1.608.768c3.168.648 4.632 1.536 4.632 3.864.002 1.992-1.775 3.768-5.519 3.768zM137.638 23.86c-1.224 3.528-2.76 4.537-5.448 4.537-1.417 0-2.688-.264-3.816-.768l1.368-3.336c.84.36 1.152.504 1.728.504.768 0 1.056-.192 1.32-.864l.12-.408-4.417-11.257h4.92l1.945 6.696 1.68-6.696h4.896l-3.84 10.369-.456 1.223zM148.989 23.86c-3.479 0-6.216-1.992-6.216-5.928 0-3.913 2.904-6.024 6.384-6.024 3.48 0 6.217 2.088 6.217 5.928s-2.904 6.024-6.385 6.024zm.073-8.617c-1.152 0-1.752.96-1.752 2.665 0 1.656.6 2.592 1.776 2.592 1.151 0 1.752-.936 1.752-2.64 0-1.657-.601-2.617-1.776-2.617zM162.166 18.7c0 1.056.528 1.392 1.224 1.392.553 0 .961-.192 1.32-.48v-7.345h4.584v10.945l-4.584.528v-1.68c-.768.936-2.064 1.8-3.576 1.8-2.232 0-3.553-1.464-3.553-3.864v-7.729h4.585V18.7zM191.278 17.067c0-1.056-.528-1.392-1.225-1.392-.504 0-.936.192-1.296.456V23.5h-4.584v-6.433c0-1.056-.528-1.392-1.224-1.392-.505 0-.937.192-1.297.456V23.5h-4.584V12.555l4.584-.528v1.608c.96-1.032 2.016-1.728 3.553-1.728 1.464 0 2.736.72 3.288 2.064.96-1.224 2.28-2.064 3.816-2.064 2.231 0 3.552 1.464 3.552 3.864V23.5h-4.584v-6.433zM201.525 23.86c-1.849 0-3.336-1.368-3.336-3.072 0-2.184 1.68-3.888 6.601-3.96v-.168c0-.864-.576-1.296-1.705-1.296-1.151 0-2.472.432-3.912 1.08l-.959-3.192c1.319-.648 3.264-1.344 5.664-1.344 4.297 0 5.568 1.992 5.496 5.184l-.023 2.616c0 .696.168.744.816.84l-.457 3.144c-2.784.408-4.152-.264-4.801-1.632h-.071c-.769.888-1.56 1.8-3.313 1.8zm.865-3.768c0 .576.48.936 1.08.936.648 0 1.057-.24 1.32-.528v-1.704c-1.752.167-2.4.455-2.4 1.296zM216.765 23.5h-4.584V7.779l4.584-.528v9.697h.024l2.809-4.68h5.16l-3.624 5.353 3.648 5.88h-5.089l-2.904-5.136h-.024V23.5zM232.726 20.692c1.248 0 2.592-.48 3.816-1.176l.359 3.408c-1.224.552-2.928.912-4.656.912-4.032 0-6.576-1.992-6.576-5.88 0-3.72 2.544-6.048 6.336-6.048 3.457 0 5.281 1.992 5.281 4.872 0 .6-.072 1.584-.24 2.064l-6.937.168v.024c.168 1.128.984 1.656 2.617 1.656zm.336-3.984c0-1.176-.432-1.848-1.32-1.848-.936 0-1.536.864-1.632 2.088h2.929c.023-.073.023-.145.023-.24zM20.557 41.067c0-1.056-.528-1.392-1.224-1.392-.504 0-.936.192-1.296.456V47.5h-4.584v-6.433c0-1.056-.528-1.392-1.224-1.392-.504 0-.936.192-1.296.456V47.5H6.347V36.555l4.584-.528v1.608c.96-1.032 2.016-1.728 3.552-1.728 1.464 0 2.736.72 3.289 2.064.96-1.224 2.28-2.064 3.816-2.064 2.232 0 3.552 1.464 3.552 3.864V47.5h-4.584v-6.433zM33.587 47.86c-3.48 0-6.216-1.992-6.216-5.928 0-3.913 2.904-6.024 6.384-6.024 3.48 0 6.217 2.088 6.217 5.928s-2.904 6.024-6.385 6.024zm.073-8.617c-1.152 0-1.752.96-1.752 2.665 0 1.656.6 2.592 1.776 2.592 1.152 0 1.752-.936 1.752-2.64 0-1.657-.601-2.617-1.776-2.617zM42.251 47.5V36.579l4.584-.552v1.488c.576-1.08 1.392-1.608 2.472-1.608.552 0 1.152.096 1.752.408l-.864 3.984a2.864 2.864 0 0 0-1.224-.264c-.84 0-1.56.312-2.136 1.296V47.5h-4.584zM58.979 44.692c1.248 0 2.592-.48 3.816-1.176l.36 3.408c-1.224.552-2.928.912-4.656.912-4.033 0-6.577-1.992-6.577-5.88 0-3.72 2.544-6.048 6.336-6.048 3.457 0 5.281 1.992 5.281 4.872 0 .6-.072 1.584-.24 2.064l-6.937.168v.024c.169 1.128.985 1.656 2.617 1.656zm.336-3.984c0-1.176-.432-1.848-1.32-1.848-.936 0-1.536.864-1.632 2.088h2.928c.024-.073.024-.145.024-.24zM75.971 47.86c-3.096 0-4.752-1.176-4.584-4.368l.168-3.289-1.584-.36.072-2.928 1.584-.552.048-2.617h4.44v2.736h2.473l-.072 3.457h-2.76l-.096 2.88c-.072 1.032.6 1.416 1.488 1.416.384 0 .768-.072 1.176-.216l.48 3.48c-.865.241-1.537.361-2.833.361zM88.331 41.067c0-1.056-.528-1.392-1.224-1.392-.648 0-1.176.312-1.56.672V47.5h-4.584V31.779l4.584-.528v6.697c.96-1.224 2.28-2.04 3.816-2.04 2.232 0 3.552 1.464 3.552 3.864V47.5h-4.584v-6.433zM98.579 47.86c-1.848 0-3.336-1.368-3.336-3.072 0-2.184 1.68-3.888 6.601-3.96v-.168c0-.864-.576-1.296-1.705-1.296-1.152 0-2.472.432-3.912 1.08l-.96-3.192c1.32-.648 3.264-1.344 5.665-1.344 4.296 0 5.568 1.992 5.496 5.184l-.024 2.616c0 .696.168.744.816.84l-.456 3.144c-2.785.408-4.153-.264-4.801-1.632h-.072c-.768.888-1.56 1.8-3.312 1.8zm.864-3.768c0 .576.48.936 1.08.936.648 0 1.056-.24 1.32-.528v-1.704c-1.752.167-2.4.455-2.4 1.296zM116.603 41.067c0-1.056-.528-1.392-1.224-1.392-.648 0-1.176.312-1.56.672V47.5h-4.584V36.555l4.584-.528v1.92c.96-1.224 2.28-2.04 3.816-2.04 2.232 0 3.552 1.464 3.552 3.864V47.5h-4.584v-6.433zM137.698 29.955l-.408 2.4c1.44.264 2.617.648 3.553 1.128l-.744 3.864c-1.08-.552-2.328-.912-3.456-1.176l-.673 3.984h-1.896l.384-2.28c.072.024.096.024.168.048v-.192c.385.168 1.032.312 1.68.48 2.377.648 4.873 1.728 4.873 4.584 0 3-2.256 5.064-6.601 5.064h-.24l-.432 2.568h-1.896l.456-2.712c-1.632-.216-3.096-.648-4.056-1.2l.72-3.865c1.176.576 2.544 1.056 3.984 1.272l.384-2.232c-2.184-.648-4.848-1.68-4.848-4.68 0-2.953 2.04-4.849 6.144-4.849h.625l.383-2.208h1.896zm-4.536 6.816c0 .456.432.816 1.296 1.104l.36-2.112c-1.104.024-1.656.36-1.656 1.008zm3.528 6.433c0-.552-.408-.864-1.368-1.128l-.36 2.16c1.225-.072 1.728-.384 1.728-1.032zM143.241 44.5c3.984-2.376 5.545-3.096 5.545-4.128 0-.72-.527-1.08-1.584-1.08-.984 0-2.256.456-3.528 1.224l-.912-3.289c1.464-.96 3.72-1.656 5.665-1.656 3.408 0 5.256 1.656 5.256 3.913 0 1.656-1.32 3.192-4.416 4.44h4.943l.072 3.576h-11.041v-3zM161.817 41.812c3.673 0 5.473 1.992 5.473 4.512 0 3.216-2.352 5.665-6.648 5.665-1.368 0-3.264-.24-4.68-.816l.336-3.72c1.176.576 2.951.984 4.152.984 1.632 0 2.496-.576 2.496-1.704 0-1.056-.744-1.728-2.953-1.728-1.031 0-2.279.216-3.023.504l-.504-.624 1.056-8.977h9.456l.072 3.576h-5.809l-.312 2.352c.193-.001.433-.024.888-.024zM175.282 47.86c-3.841 0-6.121-2.376-6.121-6.096 0-3.745 2.4-6.169 6.193-6.169 3.84 0 6.191 2.329 6.191 6.073s-2.399 6.192-6.263 6.192zm.048-9.001c-1.081 0-1.776.96-1.776 2.88 0 1.944.721 2.856 1.801 2.856 1.056 0 1.775-.936 1.775-2.856 0-1.944-.72-2.88-1.8-2.88zM185.602 42.844c2.04 0 3.288 1.68 3.288 3.504 0 2.305-2.064 3.913-4.296 4.993l-2.064-1.752c1.177-.768 2.376-1.488 2.376-2.256 0-.672-.527-1.224-2.376-1.92.192-1.585 1.512-2.569 3.072-2.569zM196.306 47.86c-3.84 0-6.121-2.376-6.121-6.096 0-3.745 2.4-6.169 6.193-6.169 3.84 0 6.192 2.329 6.192 6.073s-2.4 6.192-6.264 6.192zm.048-9.001c-1.08 0-1.777.96-1.777 2.88 0 1.944.721 2.856 1.801 2.856 1.057 0 1.775-.936 1.775-2.856 0-1.944-.718-2.88-1.799-2.88zM210.585 47.86c-3.84 0-6.12-2.376-6.12-6.096 0-3.745 2.4-6.169 6.192-6.169 3.841 0 6.193 2.329 6.193 6.073s-2.4 6.192-6.265 6.192zm.049-9.001c-1.08 0-1.776.96-1.776 2.88 0 1.944.72 2.856 1.8 2.856 1.057 0 1.776-.936 1.776-2.856 0-1.944-.72-2.88-1.8-2.88zM224.865 47.86c-3.841 0-6.12-2.376-6.12-6.096 0-3.745 2.4-6.169 6.192-6.169 3.841 0 6.192 2.329 6.192 6.073s-2.4 6.192-6.264 6.192zm.048-9.001c-1.08 0-1.775.96-1.775 2.88 0 1.944.72 2.856 1.8 2.856 1.056 0 1.776-.936 1.776-2.856 0-1.944-.721-2.88-1.801-2.88zM235.449 47.86c-1.608 0-2.64-.96-2.64-2.52s1.031-2.52 2.64-2.52 2.64.96 2.64 2.52-1.031 2.52-2.64 2.52z"/><path fill="#FF336C" d="M122.185 166.9l-4.336-4.336v-1.224l3.902 3.902v-7.812h.867v7.812l3.902-3.902v1.224l-4.335 4.336z"/><g><path d="M11.196 233.164l.061-.46h.43l-.13.979c.449.08.869.25 1.229.479l-.229.56a2.884 2.884 0 0 0-1.079-.459l-.31 2.278c.879.27 1.738.68 1.738 1.789 0 1.039-.859 1.799-2.108 1.799h-.15l-.149 1.1h-.43l.149-1.149c-.51-.07-.989-.26-1.419-.529l.229-.57c.37.25.79.449 1.27.54 0-.011.08-.62.17-1.239.05-.37.11-.779.17-1.24-.85-.27-1.719-.619-1.719-1.719 0-.999.819-1.699 1.988-1.699.08 0 .15 0 .23.01 0-.011.03-.24.059-.47zm-.29 2.148c.051-.32.101-.689.15-1.109h-.15c-.929 0-1.369.5-1.369 1.069 0 .63.46.88 1.22 1.149-.01-.009.08-.559.149-1.109zm-.09 4.249c.89 0 1.479-.51 1.479-1.18 0-.649-.45-.939-1.26-1.209l-.319 2.389h.1zM17.652 240.182c-1.919 0-3.362-1.442-3.362-3.487 0-2.046 1.443-3.487 3.362-3.487 1.933 0 3.39 1.441 3.39 3.487 0 2.044-1.457 3.487-3.39 3.487zm0-6.149c-1.471 0-2.493 1.148-2.493 2.661s1.022 2.661 2.493 2.661c1.499 0 2.521-1.148 2.521-2.661s-1.022-2.661-2.521-2.661zM24.833 236.302h5.295l.042.687h-5.379l.042-.687zM35.971 233.164l.061-.46h.43l-.13.979c.449.08.869.25 1.229.479l-.229.56a2.884 2.884 0 0 0-1.079-.459l-.31 2.278c.879.27 1.738.68 1.738 1.789 0 1.039-.859 1.799-2.108 1.799h-.15l-.149 1.1h-.43l.149-1.149c-.51-.07-.989-.26-1.419-.529l.229-.57c.37.25.79.449 1.27.54 0-.011.08-.62.17-1.239.05-.37.11-.779.17-1.24-.85-.27-1.719-.619-1.719-1.719 0-.999.819-1.699 1.988-1.699.08 0 .15 0 .23.01-.001-.011.029-.24.059-.47zm-.29 2.148c.051-.32.101-.689.15-1.109h-.15c-.929 0-1.369.5-1.369 1.069 0 .63.46.88 1.22 1.149-.011-.009.079-.559.149-1.109zm-.09 4.249c.89 0 1.479-.51 1.479-1.18 0-.649-.45-.939-1.26-1.209l-.319 2.389h.1zM39.051 239.201c2.312-1.75 3.782-2.73 3.782-3.865 0-.742-.561-1.317-1.471-1.317-.715 0-1.373.322-1.989.812l-.308-.742c.658-.519 1.429-.882 2.381-.882 1.358 0 2.297.826 2.297 2.017 0 1.526-1.568 2.535-3.46 3.95h3.782V240H39.05v-.799zM47.55 236.946c1.751 0 2.913 1.106 2.913 2.661 0 1.766-1.345 2.984-3.053 2.984-.799 0-1.682-.253-2.241-.574l.168-.854c.56.321 1.316.602 2.101.602 1.232 0 2.144-.826 2.144-2.114 0-1.064-.812-1.947-2.115-1.947-.812 0-1.148.084-1.667.266l-.294-.279.561-4.314h4.16l.042.84h-3.488l-.406 2.871c.32-.1.629-.142 1.175-.142zM55.153 240.182c-1.919 0-3.361-1.442-3.361-3.487 0-2.046 1.442-3.487 3.361-3.487 1.933 0 3.39 1.441 3.39 3.487 0 2.044-1.457 3.487-3.39 3.487zm0-6.149c-1.471 0-2.493 1.148-2.493 2.661s1.022 2.661 2.493 2.661c1.499 0 2.521-1.148 2.521-2.661s-1.022-2.661-2.521-2.661zM60.485 238.67c.505 0 .995.447.995 1.105 0 .953-.785 1.793-1.737 2.424l-.378-.378c.896-.631 1.232-1.177 1.232-1.667 0-.379-.252-.561-.868-.799.042-.349.294-.685.756-.685zM65.863 240.182c-1.919 0-3.362-1.442-3.362-3.487 0-2.046 1.443-3.487 3.362-3.487 1.933 0 3.39 1.441 3.39 3.487 0 2.044-1.457 3.487-3.39 3.487zm0-6.149c-1.471 0-2.493 1.148-2.493 2.661s1.022 2.661 2.493 2.661c1.499 0 2.521-1.148 2.521-2.661s-1.022-2.661-2.521-2.661zM74.305 240.182c-1.919 0-3.362-1.442-3.362-3.487 0-2.046 1.443-3.487 3.362-3.487 1.933 0 3.39 1.441 3.39 3.487-.001 2.044-1.458 3.487-3.39 3.487zm0-6.149c-1.471 0-2.493 1.148-2.493 2.661s1.022 2.661 2.493 2.661c1.499 0 2.521-1.148 2.521-2.661s-1.022-2.661-2.521-2.661zM82.746 240.182c-1.919 0-3.362-1.442-3.362-3.487 0-2.046 1.443-3.487 3.362-3.487 1.933 0 3.39 1.441 3.39 3.487 0 2.044-1.457 3.487-3.39 3.487zm0-6.149c-1.471 0-2.493 1.148-2.493 2.661s1.022 2.661 2.493 2.661c1.499 0 2.521-1.148 2.521-2.661s-1.022-2.661-2.521-2.661zM193.013 239.846h-1.724v-2.381h-2.353l.042-1.625h2.311v-2.381h1.724v2.381h2.311l.042 1.625h-2.353v2.381zM200.166 240.21c-2.171 0-3.516-1.4-3.516-3.544 0-2.171 1.4-3.572 3.544-3.572 2.171 0 3.529 1.401 3.529 3.53.001 2.157-1.386 3.586-3.557 3.586zm.014-5.491c-.882 0-1.442.715-1.442 1.934 0 1.232.574 1.934 1.457 1.934.854 0 1.442-.701 1.442-1.934s-.575-1.934-1.457-1.934zM206.172 240.21c-.798 0-1.331-.504-1.331-1.274 0-.785.533-1.275 1.331-1.275.784 0 1.316.49 1.316 1.275 0 .77-.532 1.274-1.316 1.274zM212.094 240.21c-2.171 0-3.516-1.4-3.516-3.544 0-2.171 1.4-3.572 3.544-3.572 2.171 0 3.529 1.401 3.529 3.53 0 2.157-1.386 3.586-3.557 3.586zm.013-5.491c-.882 0-1.442.715-1.442 1.934 0 1.232.574 1.934 1.457 1.934.854 0 1.442-.701 1.442-1.934s-.574-1.934-1.457-1.934zM219.191 235.798c-1.555 0-2.451-.995-2.451-2.452 0-1.456.938-2.437 2.466-2.437 1.526 0 2.451.98 2.451 2.437 0 1.457-.925 2.452-2.466 2.452zm-1.302 4.412l7.256-9.161h1.625l-7.256 9.161h-1.625zm1.302-8.181c-.616 0-1.008.49-1.008 1.331 0 .827.392 1.303 1.022 1.303.602 0 1.008-.505 1.008-1.303.001-.84-.405-1.331-1.022-1.331zm6.234 8.321c-1.555 0-2.451-.994-2.451-2.451s.938-2.438 2.466-2.438c1.526 0 2.451.98 2.451 2.438 0 1.47-.912 2.451-2.466 2.451zm.014-3.754c-.631 0-1.022.49-1.022 1.317 0 .841.392 1.316 1.022 1.316.616 0 1.008-.49 1.008-1.316 0-.827-.391-1.317-1.008-1.317zM11.196 262.164l.061-.46h.43l-.13.979c.449.08.869.25 1.229.479l-.229.56a2.886 2.886 0 0 0-1.079-.46l-.31 2.279c.879.27 1.738.68 1.738 1.789 0 1.039-.859 1.799-2.108 1.799h-.15l-.149 1.1h-.43l.149-1.149c-.51-.07-.989-.26-1.419-.53l.229-.569c.37.25.79.45 1.27.54 0-.01.08-.62.17-1.239.05-.37.11-.78.17-1.239-.85-.271-1.719-.62-1.719-1.72 0-.999.819-1.699 1.988-1.699.08 0 .15 0 .23.011 0-.012.03-.241.059-.471zm-.29 2.148c.051-.319.101-.689.15-1.109h-.15c-.929 0-1.369.5-1.369 1.069 0 .63.46.88 1.22 1.149-.01-.009.08-.559.149-1.109zm-.09 4.249c.89 0 1.479-.51 1.479-1.18 0-.649-.45-.939-1.26-1.209l-.319 2.389h.1zM14.276 268.201c2.312-1.751 3.782-2.731 3.782-3.865 0-.743-.561-1.317-1.471-1.317-.715 0-1.373.322-1.989.812l-.309-.742c.659-.519 1.43-.883 2.382-.883 1.358 0 2.297.827 2.297 2.018 0 1.526-1.568 2.535-3.46 3.95h3.782V269h-5.015v-.799zM22.775 265.946c1.751 0 2.913 1.106 2.913 2.661 0 1.766-1.345 2.984-3.053 2.984-.799 0-1.682-.253-2.241-.574l.168-.854c.56.321 1.316.602 2.101.602 1.232 0 2.144-.826 2.144-2.115 0-1.064-.812-1.946-2.115-1.946-.812 0-1.148.084-1.667.266l-.294-.28.561-4.314h4.16l.042.841h-3.488l-.406 2.871c.321-.1.629-.142 1.175-.142zM30.379 269.182c-1.919 0-3.362-1.442-3.362-3.487s1.443-3.488 3.362-3.488c1.933 0 3.39 1.443 3.39 3.488s-1.457 3.487-3.39 3.487zm0-6.149c-1.471 0-2.493 1.148-2.493 2.661s1.022 2.661 2.493 2.661c1.499 0 2.521-1.148 2.521-2.661s-1.022-2.661-2.521-2.661zM35.711 267.669c.505 0 .995.448.995 1.106 0 .953-.785 1.793-1.737 2.424l-.378-.378c.896-.631 1.232-1.177 1.232-1.667 0-.379-.252-.561-.868-.799.042-.349.294-.686.756-.686zM41.089 269.182c-1.919 0-3.361-1.442-3.361-3.487s1.442-3.488 3.361-3.488c1.933 0 3.39 1.443 3.39 3.488s-1.458 3.487-3.39 3.487zm0-6.149c-1.471 0-2.493 1.148-2.493 2.661s1.022 2.661 2.493 2.661c1.499 0 2.521-1.148 2.521-2.661s-1.022-2.661-2.521-2.661zM49.53 269.182c-1.919 0-3.361-1.442-3.361-3.487s1.442-3.488 3.361-3.488c1.933 0 3.39 1.443 3.39 3.488s-1.457 3.487-3.39 3.487zm0-6.149c-1.471 0-2.493 1.148-2.493 2.661s1.022 2.661 2.493 2.661c1.499 0 2.521-1.148 2.521-2.661s-1.022-2.661-2.521-2.661zM54.442 263.93l-.042-.799 2.521-.925V269h-.854v-5.688l-1.625.618zM61.484 265.302h5.295l.042.687h-5.379l.042-.687zM72.622 262.164l.061-.46h.43l-.13.979c.449.08.869.25 1.229.479l-.229.56a2.886 2.886 0 0 0-1.079-.46l-.31 2.279c.879.27 1.738.68 1.738 1.789 0 1.039-.859 1.799-2.108 1.799h-.15l-.149 1.1h-.43l.149-1.149c-.51-.07-.989-.26-1.419-.53l.229-.569c.37.25.79.45 1.27.54 0-.01.08-.62.17-1.239.05-.37.11-.78.17-1.239-.85-.271-1.719-.62-1.719-1.72 0-.999.819-1.699 1.988-1.699.08 0 .15 0 .23.011-.001-.012.03-.241.059-.471zm-.29 2.148c.051-.319.101-.689.15-1.109h-.15c-.929 0-1.369.5-1.369 1.069 0 .63.46.88 1.22 1.149-.01-.009.08-.559.149-1.109zm-.09 4.249c.89 0 1.479-.51 1.479-1.18 0-.649-.45-.939-1.26-1.209l-.319 2.389h.1zM80.507 271.577h-.841v-2.787h-4.3l-.112-.603 4.497-6.023h.756v5.8h1.331l.042.826h-1.373v2.787zm-4.132-3.613h3.291v-4.413l-3.291 4.413zM83.052 263.93l-.042-.799 2.521-.925V269h-.854v-5.688l-1.625.618zM87.966 263.93l-.042-.799 2.521-.925V269h-.854v-5.688l-1.625.618zM93.229 267.669c.505 0 .995.448.995 1.106 0 .953-.785 1.793-1.737 2.424l-.378-.378c.896-.631 1.232-1.177 1.232-1.667 0-.379-.252-.561-.868-.799.042-.349.294-.686.756-.686zM97.431 265.946c1.751 0 2.913 1.106 2.913 2.661 0 1.766-1.345 2.984-3.053 2.984-.799 0-1.682-.253-2.241-.574l.168-.854c.56.321 1.316.602 2.101.602 1.232 0 2.144-.826 2.144-2.115 0-1.064-.812-1.946-2.115-1.946-.812 0-1.148.084-1.667.266l-.294-.28.561-4.314h4.16l.042.841h-3.49l-.406 2.871c.322-.1.631-.142 1.177-.142zM105.033 269.182c-1.919 0-3.362-1.442-3.362-3.487s1.443-3.488 3.362-3.488c1.933 0 3.39 1.443 3.39 3.488s-1.457 3.487-3.39 3.487zm0-6.149c-1.471 0-2.493 1.148-2.493 2.661s1.022 2.661 2.493 2.661c1.499 0 2.521-1.148 2.521-2.661s-1.022-2.661-2.521-2.661zM113.475 269.182c-1.919 0-3.362-1.442-3.362-3.487s1.443-3.488 3.362-3.488c1.933 0 3.39 1.443 3.39 3.488s-1.458 3.487-3.39 3.487zm0-6.149c-1.471 0-2.493 1.148-2.493 2.661s1.022 2.661 2.493 2.661c1.499 0 2.521-1.148 2.521-2.661s-1.022-2.661-2.521-2.661zM193.012 268.846h-1.724v-2.381h-2.353l.042-1.625h2.311v-2.382h1.724v2.382h2.311l.042 1.625h-2.353v2.381zM202.673 271.438h-2.018v-2.479h-3.866l-.266-1.331 3.796-5.421h2.354v5.043h1.344l.043 1.709h-1.387v2.479zm-4.049-4.147h2.129v-3.18l-2.129 3.18zM206.646 269.21c-.798 0-1.331-.504-1.331-1.274 0-.784.533-1.274 1.331-1.274.784 0 1.316.49 1.316 1.274 0 .77-.532 1.274-1.316 1.274zM212.568 269.21c-2.171 0-3.516-1.4-3.516-3.544 0-2.171 1.4-3.571 3.544-3.571 2.171 0 3.529 1.4 3.529 3.529.001 2.157-1.386 3.586-3.557 3.586zm.014-5.491c-.882 0-1.442.715-1.442 1.934 0 1.232.574 1.933 1.457 1.933.854 0 1.442-.7 1.442-1.933s-.574-1.934-1.457-1.934zM219.666 264.798c-1.555 0-2.451-.995-2.451-2.451 0-1.457.938-2.438 2.466-2.438 1.526 0 2.451.98 2.451 2.438 0 1.456-.925 2.451-2.466 2.451zm-1.303 4.412l7.256-9.161h1.625l-7.256 9.161h-1.625zm1.303-8.181c-.616 0-1.008.49-1.008 1.331 0 .826.392 1.303 1.022 1.303.602 0 1.008-.504 1.008-1.303 0-.84-.406-1.331-1.022-1.331zm6.233 8.322c-1.555 0-2.451-.995-2.451-2.452 0-1.456.938-2.437 2.466-2.437 1.526 0 2.451.98 2.451 2.437 0 1.471-.911 2.452-2.466 2.452zm.015-3.755c-.631 0-1.022.49-1.022 1.317 0 .84.392 1.316 1.022 1.316.616 0 1.008-.49 1.008-1.316 0-.827-.392-1.317-1.008-1.317zM11.196 291.164l.061-.46h.43l-.13.979c.449.08.869.25 1.229.479l-.229.56a2.886 2.886 0 0 0-1.079-.46l-.31 2.279c.879.27 1.738.68 1.738 1.789 0 1.039-.859 1.799-2.108 1.799h-.15l-.149 1.1h-.43l.149-1.149c-.51-.07-.989-.26-1.419-.53l.229-.569c.37.25.79.45 1.27.54 0-.01.08-.62.17-1.239.05-.37.11-.78.17-1.239-.85-.271-1.719-.62-1.719-1.72 0-.999.819-1.699 1.988-1.699.08 0 .15 0 .23.011 0-.012.03-.241.059-.471zm-.29 2.148c.051-.319.101-.689.15-1.109h-.15c-.929 0-1.369.5-1.369 1.069 0 .63.46.88 1.22 1.149-.01-.009.08-.559.149-1.109zm-.09 4.249c.89 0 1.479-.51 1.479-1.18 0-.649-.45-.939-1.26-1.209l-.319 2.389h.1zM19.081 300.577h-.841v-2.787h-4.3l-.112-.603 4.497-6.023h.756v5.8h1.331l.042.826h-1.373v2.787zm-4.132-3.613h3.291v-4.413l-3.291 4.413zM21.626 292.93l-.042-.799 2.521-.925V298h-.854v-5.688l-1.625.618zM26.54 292.93l-.042-.799 2.521-.925V298h-.854v-5.688l-1.625.618zM31.803 296.669c.505 0 .995.448.995 1.106 0 .953-.785 1.793-1.737 2.424l-.378-.378c.896-.631 1.232-1.177 1.232-1.667 0-.379-.252-.561-.868-.799.042-.349.294-.686.756-.686zM36.005 294.946c1.751 0 2.913 1.106 2.913 2.661 0 1.766-1.345 2.984-3.053 2.984-.799 0-1.682-.253-2.241-.574l.168-.854c.56.321 1.316.602 2.101.602 1.232 0 2.144-.826 2.144-2.115 0-1.064-.812-1.946-2.115-1.946-.812 0-1.148.084-1.667.266l-.294-.28.561-4.314h4.16l.042.841h-3.488l-.406 2.871c.32-.1.629-.142 1.175-.142zM43.607 298.182c-1.919 0-3.362-1.442-3.362-3.487s1.443-3.488 3.362-3.488c1.933 0 3.39 1.443 3.39 3.488s-1.457 3.487-3.39 3.487zm0-6.149c-1.471 0-2.493 1.148-2.493 2.661s1.022 2.661 2.493 2.661c1.499 0 2.521-1.148 2.521-2.661s-1.022-2.661-2.521-2.661zM48.52 292.93l-.042-.799 2.521-.925V298h-.854v-5.688l-1.625.618zM55.562 294.302h5.295l.042.687H55.52l.042-.687zM66.699 291.164l.061-.46h.43l-.13.979c.449.08.869.25 1.229.479l-.229.56a2.886 2.886 0 0 0-1.079-.46l-.31 2.279c.879.27 1.738.68 1.738 1.789 0 1.039-.859 1.799-2.108 1.799h-.15l-.149 1.1h-.43l.149-1.149c-.51-.07-.989-.26-1.419-.53l.229-.569c.37.25.79.45 1.27.54 0-.01.08-.62.17-1.239.05-.37.11-.78.17-1.239-.85-.271-1.719-.62-1.719-1.72 0-.999.819-1.699 1.988-1.699.08 0 .15 0 .23.011 0-.012.03-.241.059-.471zm-.29 2.148c.051-.319.101-.689.15-1.109h-.15c-.929 0-1.369.5-1.369 1.069 0 .63.46.88 1.22 1.149-.01-.009.08-.559.149-1.109zm-.09 4.249c.89 0 1.479-.51 1.479-1.18 0-.649-.45-.939-1.26-1.209l-.319 2.389h.1zM74.584 300.577h-.841v-2.787h-4.3l-.112-.603 4.496-6.023h.757v5.8h1.331l.042.826h-1.373v2.787zm-4.132-3.613h3.291v-4.413l-3.291 4.413zM81.976 289.063l.252.812c-2.354.56-3.782 2.003-4.188 3.781l.028.015c.616-.574 1.387-.98 2.354-.98 1.33 0 2.535.924 2.535 2.605 0 1.652-1.121 2.885-2.872 2.885-1.904 0-2.983-1.582-2.983-3.516-.001-2.324 1.553-4.817 4.874-5.602zm-1.864 8.321c1.219 0 1.961-.854 1.961-2.045 0-1.177-.798-1.877-1.821-1.877-.854 0-1.624.378-2.198.924a2.375 2.375 0 0 0-.043.463c0 1.344.77 2.535 2.101 2.535zM89.34 300.577h-.841v-2.787h-4.3l-.112-.603 4.496-6.023h.757v5.8h1.331l.042.826H89.34v2.787zm-4.132-3.613h3.291v-4.413l-3.291 4.413zM92.654 296.669c.505 0 .995.448.995 1.106 0 .953-.785 1.793-1.737 2.424l-.378-.378c.896-.631 1.232-1.177 1.232-1.667 0-.379-.252-.561-.868-.799.042-.349.294-.686.756-.686zM100.513 295.745c0 1.274-.938 2.437-2.802 2.437-1.919 0-2.802-1.078-2.802-2.325 0-1.261 1.093-1.975 1.85-2.241-.925-.406-1.709-.98-1.709-2.045 0-1.414 1.093-2.409 2.718-2.409 1.61 0 2.605.98 2.605 2.312 0 1.12-.911 1.835-1.64 2.171.967.447 1.78 1.021 1.78 2.1zm-4.721 0c0 1.008.715 1.667 1.947 1.667 1.289 0 1.891-.631 1.891-1.541 0-1.079-1.092-1.485-2.199-1.961-.882.294-1.639.939-1.639 1.835zm3.698-4.16c0-.981-.742-1.667-1.751-1.667-1.163 0-1.807.729-1.807 1.555 0 .967 1.064 1.415 2.143 1.863.784-.322 1.415-.897 1.415-1.751zM104.137 294.946c1.751 0 2.913 1.106 2.913 2.661 0 1.766-1.345 2.984-3.053 2.984-.799 0-1.682-.253-2.241-.574l.168-.854c.56.321 1.316.602 2.101.602 1.232 0 2.144-.826 2.144-2.115 0-1.064-.812-1.946-2.115-1.946-.812 0-1.148.084-1.667.266l-.294-.28.561-4.314h4.16l.042.841h-3.488l-.406 2.871c.32-.1.629-.142 1.175-.142zM111.739 298.182c-1.919 0-3.361-1.442-3.361-3.487s1.442-3.488 3.361-3.488c1.933 0 3.39 1.443 3.39 3.488s-1.457 3.487-3.39 3.487zm0-6.149c-1.471 0-2.493 1.148-2.493 2.661s1.022 2.661 2.493 2.661c1.499 0 2.521-1.148 2.521-2.661s-1.022-2.661-2.521-2.661zM193.012 297.846h-1.724v-2.381h-2.353l.042-1.625h2.311v-2.382h1.724v2.382h2.311l.042 1.625h-2.353v2.381zM196.747 296.501c2.199-1.415 3.418-2.045 3.418-2.829 0-.49-.351-.784-1.064-.784-.616 0-1.331.279-2.045.742l-.477-1.597c.784-.547 1.919-.953 3.025-.953 1.808 0 2.857.911 2.857 2.213 0 1.163-.98 2.018-2.787 2.956h3.096l.028 1.751h-6.052v-1.499zM205.484 298.21c-.798 0-1.331-.504-1.331-1.274 0-.784.533-1.274 1.331-1.274.784 0 1.316.49 1.316 1.274.001.77-.531 1.274-1.316 1.274zM211.407 298.21c-2.171 0-3.516-1.4-3.516-3.544 0-2.171 1.4-3.571 3.544-3.571 2.171 0 3.529 1.4 3.529 3.529.001 2.157-1.386 3.586-3.557 3.586zm.014-5.491c-.882 0-1.442.715-1.442 1.934 0 1.232.574 1.933 1.457 1.933.854 0 1.442-.7 1.442-1.933s-.574-1.934-1.457-1.934zM218.505 293.798c-1.555 0-2.451-.995-2.451-2.451 0-1.457.938-2.438 2.466-2.438 1.526 0 2.451.98 2.451 2.438 0 1.456-.925 2.451-2.466 2.451zm-1.303 4.412l7.256-9.161h1.625l-7.256 9.161h-1.625zm1.303-8.181c-.616 0-1.008.49-1.008 1.331 0 .826.392 1.303 1.022 1.303.602 0 1.008-.504 1.008-1.303 0-.84-.406-1.331-1.022-1.331zm6.233 8.322c-1.555 0-2.451-.995-2.451-2.452 0-1.456.938-2.437 2.466-2.437 1.526 0 2.451.98 2.451 2.437 0 1.471-.911 2.452-2.466 2.452zm.015-3.755c-.631 0-1.022.49-1.022 1.317 0 .84.392 1.316 1.022 1.316.616 0 1.008-.49 1.008-1.316 0-.827-.392-1.317-1.008-1.317zM11.196 320.164l.061-.46h.43l-.13.979c.449.08.869.25 1.229.479l-.229.56a2.886 2.886 0 0 0-1.079-.46l-.31 2.279c.879.27 1.738.68 1.738 1.789 0 1.039-.859 1.799-2.108 1.799h-.15l-.149 1.1h-.43l.149-1.149c-.51-.07-.989-.26-1.419-.53l.229-.569c.37.25.79.45 1.27.54 0-.01.08-.62.17-1.239.05-.37.11-.78.17-1.239-.85-.271-1.719-.62-1.719-1.72 0-.999.819-1.699 1.988-1.699.08 0 .15 0 .23.011 0-.012.03-.241.059-.471zm-.29 2.148c.051-.319.101-.689.15-1.109h-.15c-.929 0-1.369.5-1.369 1.069 0 .63.46.88 1.22 1.149-.01-.009.08-.559.149-1.109zm-.09 4.249c.89 0 1.479-.51 1.479-1.18 0-.649-.45-.939-1.26-1.209l-.319 2.389h.1zM19.081 329.577h-.841v-2.787h-4.3l-.112-.603 4.497-6.023h.756v5.8h1.331l.042.826h-1.373v2.787zm-4.132-3.613h3.291v-4.413l-3.291 4.413zM26.473 318.063l.252.812c-2.354.56-3.782 2.003-4.188 3.781l.028.015c.616-.574 1.387-.98 2.354-.98 1.33 0 2.535.924 2.535 2.605 0 1.652-1.121 2.885-2.872 2.885-1.904 0-2.983-1.582-2.983-3.516-.001-2.324 1.553-4.817 4.874-5.602zm-1.864 8.321c1.219 0 1.961-.854 1.961-2.045 0-1.177-.798-1.877-1.821-1.877-.854 0-1.624.378-2.199.924a2.458 2.458 0 0 0-.042.463c0 1.344.77 2.535 2.101 2.535zM33.837 329.577h-.841v-2.787h-4.3l-.112-.603 4.497-6.023h.756v5.8h1.331l.042.826h-1.373v2.787zm-4.132-3.613h3.291v-4.413l-3.291 4.413zM37.151 325.669c.505 0 .995.448.995 1.106 0 .953-.785 1.793-1.737 2.424l-.378-.378c.896-.631 1.232-1.177 1.232-1.667 0-.379-.252-.561-.868-.799.043-.349.294-.686.756-.686zM45.01 324.745c0 1.274-.938 2.437-2.802 2.437-1.919 0-2.802-1.078-2.802-2.325 0-1.261 1.093-1.975 1.85-2.241-.925-.406-1.709-.98-1.709-2.045 0-1.414 1.093-2.409 2.718-2.409 1.61 0 2.605.98 2.605 2.312 0 1.12-.911 1.835-1.64 2.171.967.447 1.78 1.021 1.78 2.1zm-4.721 0c0 1.008.715 1.667 1.947 1.667 1.289 0 1.891-.631 1.891-1.541 0-1.079-1.093-1.485-2.199-1.961-.882.294-1.639.939-1.639 1.835zm3.698-4.16c0-.981-.742-1.667-1.751-1.667-1.163 0-1.807.729-1.807 1.555 0 .967 1.064 1.415 2.143 1.863.784-.322 1.415-.897 1.415-1.751zM48.633 323.946c1.751 0 2.913 1.106 2.913 2.661 0 1.766-1.345 2.984-3.053 2.984-.799 0-1.682-.253-2.241-.574l.168-.854c.56.321 1.316.602 2.101.602 1.232 0 2.144-.826 2.144-2.115 0-1.064-.812-1.946-2.115-1.946-.812 0-1.148.084-1.667.266l-.294-.28.561-4.314h4.16l.042.841h-3.488l-.406 2.871c.32-.1.629-.142 1.175-.142zM52.846 321.93l-.042-.799 2.521-.925V327h-.854v-5.688l-1.625.618zM59.888 323.302h5.295l.042.687h-5.379l.042-.687zM71.025 320.164l.061-.46h.43l-.13.979c.449.08.869.25 1.229.479l-.229.56a2.886 2.886 0 0 0-1.079-.46l-.31 2.279c.879.27 1.738.68 1.738 1.789 0 1.039-.859 1.799-2.108 1.799h-.15l-.149 1.1h-.43l.149-1.149c-.51-.07-.989-.26-1.419-.53l.229-.569c.37.25.79.45 1.27.54 0-.01.08-.62.17-1.239.05-.37.11-.78.17-1.239-.85-.271-1.719-.62-1.719-1.72 0-.999.819-1.699 1.988-1.699.08 0 .15 0 .23.011 0-.012.03-.241.059-.471zm-.29 2.148c.051-.319.101-.689.15-1.109h-.15c-.929 0-1.369.5-1.369 1.069 0 .63.46.88 1.22 1.149-.01-.009.08-.559.149-1.109zm-.089 4.249c.89 0 1.479-.51 1.479-1.18 0-.649-.45-.939-1.26-1.209l-.319 2.389h.1zM76.095 323.946c1.751 0 2.913 1.106 2.913 2.661 0 1.766-1.345 2.984-3.053 2.984-.799 0-1.682-.253-2.241-.574l.168-.854c.56.321 1.316.602 2.101.602 1.232 0 2.144-.826 2.144-2.115 0-1.064-.812-1.946-2.115-1.946-.812 0-1.148.084-1.667.266l-.294-.28.561-4.314h4.16l.042.841h-3.488l-.406 2.871c.32-.1.629-.142 1.175-.142zM83.697 327.182c-1.919 0-3.362-1.442-3.362-3.487s1.443-3.488 3.362-3.488c1.933 0 3.39 1.443 3.39 3.488s-1.457 3.487-3.39 3.487zm0-6.149c-1.471 0-2.493 1.148-2.493 2.661s1.022 2.661 2.493 2.661c1.499 0 2.521-1.148 2.521-2.661s-1.022-2.661-2.521-2.661zM92.14 327.182c-1.919 0-3.361-1.442-3.361-3.487s1.442-3.488 3.361-3.488c1.933 0 3.39 1.443 3.39 3.488s-1.458 3.487-3.39 3.487zm0-6.149c-1.471 0-2.493 1.148-2.493 2.661s1.022 2.661 2.493 2.661c1.499 0 2.521-1.148 2.521-2.661s-1.022-2.661-2.521-2.661zM97.472 325.669c.505 0 .995.448.995 1.106 0 .953-.785 1.793-1.737 2.424l-.378-.378c.896-.631 1.232-1.177 1.232-1.667 0-.379-.252-.561-.868-.799.042-.349.294-.686.756-.686zM102.85 327.182c-1.919 0-3.362-1.442-3.362-3.487s1.443-3.488 3.362-3.488c1.933 0 3.39 1.443 3.39 3.488s-1.458 3.487-3.39 3.487zm0-6.149c-1.471 0-2.493 1.148-2.493 2.661s1.022 2.661 2.493 2.661c1.499 0 2.521-1.148 2.521-2.661s-1.022-2.661-2.521-2.661zM111.291 327.182c-1.919 0-3.362-1.442-3.362-3.487s1.443-3.488 3.362-3.488c1.933 0 3.39 1.443 3.39 3.488s-1.457 3.487-3.39 3.487zm0-6.149c-1.471 0-2.493 1.148-2.493 2.661s1.022 2.661 2.493 2.661c1.499 0 2.521-1.148 2.521-2.661s-1.022-2.661-2.521-2.661zM119.732 327.182c-1.919 0-3.362-1.442-3.362-3.487s1.443-3.488 3.362-3.488c1.933 0 3.39 1.443 3.39 3.488s-1.457 3.487-3.39 3.487zm0-6.149c-1.471 0-2.493 1.148-2.493 2.661s1.022 2.661 2.493 2.661c1.499 0 2.521-1.148 2.521-2.661s-1.022-2.661-2.521-2.661zM188.851 322.742h4.454v1.723h-4.454v-1.723zM194.52 325.501c2.199-1.415 3.418-2.045 3.418-2.829 0-.49-.351-.784-1.064-.784-.616 0-1.331.279-2.045.742l-.477-1.597c.784-.547 1.919-.953 3.025-.953 1.808 0 2.857.911 2.857 2.213 0 1.163-.98 2.018-2.787 2.956h3.096l.028 1.751h-6.052v-1.499zM203.257 327.21c-.798 0-1.331-.504-1.331-1.274 0-.784.533-1.274 1.331-1.274.784 0 1.316.49 1.316 1.274 0 .77-.532 1.274-1.316 1.274zM211.281 317.615l.519 1.751c-1.905.336-3.46 1.204-3.866 2.591l.056.042c.462-.462 1.177-.854 2.186-.854 1.526 0 2.633 1.009 2.633 2.76 0 1.863-1.246 3.306-3.502 3.306-2.255 0-3.529-1.694-3.529-4.034-.002-2.691 2.03-5.072 5.503-5.562zm-1.919 7.97c.784 0 1.261-.574 1.261-1.484 0-.841-.477-1.358-1.261-1.358-.519 0-1.009.237-1.275.476-.042.21-.069.421-.069.658 0 .895.49 1.708 1.344 1.708zM216.291 322.798c-1.555 0-2.451-.995-2.451-2.451 0-1.457.938-2.438 2.466-2.438 1.526 0 2.451.98 2.451 2.438 0 1.456-.925 2.451-2.466 2.451zm-1.303 4.412l7.256-9.161h1.625l-7.256 9.161h-1.625zm1.303-8.181c-.616 0-1.008.49-1.008 1.331 0 .826.392 1.303 1.022 1.303.602 0 1.008-.504 1.008-1.303 0-.84-.406-1.331-1.022-1.331zm6.233 8.322c-1.555 0-2.451-.995-2.451-2.452 0-1.456.938-2.437 2.466-2.437 1.526 0 2.451.98 2.451 2.437 0 1.471-.911 2.452-2.466 2.452zm.015-3.755c-.631 0-1.022.49-1.022 1.317 0 .84.392 1.316 1.022 1.316.616 0 1.008-.49 1.008-1.316 0-.827-.392-1.317-1.008-1.317zM11.196 349.164l.061-.46h.43l-.13.979c.449.08.869.25 1.229.479l-.229.56a2.886 2.886 0 0 0-1.079-.46l-.31 2.279c.879.27 1.738.68 1.738 1.789 0 1.039-.859 1.799-2.108 1.799h-.15l-.149 1.1h-.43l.149-1.149c-.51-.07-.989-.26-1.419-.53l.229-.569c.37.25.79.45 1.27.54 0-.01.08-.62.17-1.239.05-.37.11-.78.17-1.239-.85-.271-1.719-.62-1.719-1.72 0-.999.819-1.699 1.988-1.699.08 0 .15 0 .23.011 0-.012.03-.241.059-.471zm-.29 2.148c.051-.319.101-.689.15-1.109h-.15c-.929 0-1.369.5-1.369 1.069 0 .63.46.88 1.22 1.149-.01-.009.08-.559.149-1.109zm-.09 4.249c.89 0 1.479-.51 1.479-1.18 0-.649-.45-.939-1.26-1.209l-.319 2.389h.1zM16.266 352.946c1.751 0 2.913 1.106 2.913 2.661 0 1.766-1.345 2.984-3.053 2.984-.799 0-1.682-.253-2.241-.574l.168-.854c.56.321 1.316.602 2.101.602 1.232 0 2.144-.826 2.144-2.115 0-1.064-.812-1.946-2.115-1.946-.812 0-1.148.084-1.667.266l-.294-.28.561-4.314h4.16l.042.841h-3.488l-.406 2.871c.32-.1.629-.142 1.175-.142zM23.868 356.182c-1.919 0-3.361-1.442-3.361-3.487s1.442-3.488 3.361-3.488c1.933 0 3.39 1.443 3.39 3.488s-1.457 3.487-3.39 3.487zm0-6.149c-1.471 0-2.493 1.148-2.493 2.661s1.022 2.661 2.493 2.661c1.499 0 2.521-1.148 2.521-2.661s-1.022-2.661-2.521-2.661zM32.311 356.182c-1.919 0-3.362-1.442-3.362-3.487s1.443-3.488 3.362-3.488c1.933 0 3.39 1.443 3.39 3.488s-1.458 3.487-3.39 3.487zm0-6.149c-1.471 0-2.493 1.148-2.493 2.661s1.022 2.661 2.493 2.661c1.499 0 2.521-1.148 2.521-2.661s-1.022-2.661-2.521-2.661zM37.643 354.669c.505 0 .995.448.995 1.106 0 .953-.785 1.793-1.737 2.424l-.378-.378c.896-.631 1.232-1.177 1.232-1.667 0-.379-.252-.561-.868-.799.042-.349.294-.686.756-.686zM43.021 356.182c-1.919 0-3.361-1.442-3.361-3.487s1.442-3.488 3.361-3.488c1.933 0 3.39 1.443 3.39 3.488s-1.458 3.487-3.39 3.487zm0-6.149c-1.471 0-2.493 1.148-2.493 2.661s1.022 2.661 2.493 2.661c1.499 0 2.521-1.148 2.521-2.661s-1.022-2.661-2.521-2.661zM51.462 356.182c-1.919 0-3.361-1.442-3.361-3.487s1.442-3.488 3.361-3.488c1.933 0 3.39 1.443 3.39 3.488s-1.457 3.487-3.39 3.487zm0-6.149c-1.471 0-2.493 1.148-2.493 2.661s1.022 2.661 2.493 2.661c1.499 0 2.521-1.148 2.521-2.661s-1.022-2.661-2.521-2.661zM56.374 350.93l-.042-.799 2.521-.925V356h-.854v-5.688l-1.625.618zM63.416 352.302h5.295l.042.687h-5.379l.042-.687zM74.554 349.164l.061-.46h.43l-.13.979c.449.08.869.25 1.229.479l-.229.56a2.886 2.886 0 0 0-1.079-.46l-.31 2.279c.879.27 1.738.68 1.738 1.789 0 1.039-.859 1.799-2.108 1.799h-.15l-.149 1.1h-.43l.149-1.149c-.51-.07-.989-.26-1.419-.53l.229-.569c.37.25.79.45 1.27.54 0-.01.08-.62.17-1.239.05-.37.11-.78.17-1.239-.85-.271-1.719-.62-1.719-1.72 0-.999.819-1.699 1.988-1.699.08 0 .15 0 .23.011-.001-.012.029-.241.059-.471zm-.29 2.148c.051-.319.101-.689.15-1.109h-.15c-.929 0-1.369.5-1.369 1.069 0 .63.46.88 1.22 1.149-.011-.009.079-.559.149-1.109zm-.09 4.249c.89 0 1.479-.51 1.479-1.18 0-.649-.45-.939-1.26-1.209l-.319 2.389h.1zM77.634 355.201c2.312-1.751 3.782-2.731 3.782-3.865 0-.743-.561-1.317-1.471-1.317-.715 0-1.373.322-1.989.812l-.309-.742c.659-.519 1.43-.883 2.382-.883 1.358 0 2.297.827 2.297 2.018 0 1.526-1.568 2.535-3.46 3.95h3.782V356h-5.015v-.799zM84.76 354.669c.505 0 .995.448.995 1.106 0 .953-.785 1.793-1.737 2.424l-.378-.378c.896-.631 1.232-1.177 1.232-1.667 0-.379-.252-.561-.868-.799.042-.349.294-.686.756-.686zM90.139 356.182c-1.919 0-3.362-1.442-3.362-3.487s1.443-3.488 3.362-3.488c1.933 0 3.39 1.443 3.39 3.488s-1.458 3.487-3.39 3.487zm0-6.149c-1.471 0-2.493 1.148-2.493 2.661s1.022 2.661 2.493 2.661c1.499 0 2.521-1.148 2.521-2.661s-1.022-2.661-2.521-2.661zM98.58 356.182c-1.919 0-3.362-1.442-3.362-3.487s1.443-3.488 3.362-3.488c1.933 0 3.39 1.443 3.39 3.488s-1.457 3.487-3.39 3.487zm0-6.149c-1.471 0-2.493 1.148-2.493 2.661s1.022 2.661 2.493 2.661c1.499 0 2.521-1.148 2.521-2.661s-1.022-2.661-2.521-2.661zM107.022 356.182c-1.919 0-3.361-1.442-3.361-3.487s1.442-3.488 3.361-3.488c1.933 0 3.39 1.443 3.39 3.488s-1.457 3.487-3.39 3.487zm0-6.149c-1.471 0-2.493 1.148-2.493 2.661s1.022 2.661 2.493 2.661c1.499 0 2.521-1.148 2.521-2.661s-1.022-2.661-2.521-2.661zM112.354 354.669c.505 0 .995.448.995 1.106 0 .953-.785 1.793-1.737 2.424l-.378-.378c.896-.631 1.232-1.177 1.232-1.667 0-.379-.252-.561-.868-.799.042-.349.294-.686.756-.686zM117.731 356.182c-1.919 0-3.361-1.442-3.361-3.487s1.442-3.488 3.361-3.488c1.933 0 3.39 1.443 3.39 3.488s-1.457 3.487-3.39 3.487zm0-6.149c-1.471 0-2.493 1.148-2.493 2.661s1.022 2.661 2.493 2.661c1.499 0 2.521-1.148 2.521-2.661s-1.022-2.661-2.521-2.661zM126.174 356.182c-1.919 0-3.362-1.442-3.362-3.487s1.443-3.488 3.362-3.488c1.933 0 3.39 1.443 3.39 3.488s-1.458 3.487-3.39 3.487zm0-6.149c-1.471 0-2.493 1.148-2.493 2.661s1.022 2.661 2.493 2.661c1.499 0 2.521-1.148 2.521-2.661s-1.022-2.661-2.521-2.661zM134.615 356.182c-1.919 0-3.362-1.442-3.362-3.487s1.443-3.488 3.362-3.488c1.933 0 3.39 1.443 3.39 3.488s-1.457 3.487-3.39 3.487zm0-6.149c-1.471 0-2.493 1.148-2.493 2.661s1.022 2.661 2.493 2.661c1.499 0 2.521-1.148 2.521-2.661s-1.022-2.661-2.521-2.661zM193.012 355.846h-1.724v-2.381h-2.353l.042-1.625h2.311v-2.382h1.724v2.382h2.311l.042 1.625h-2.353v2.381zM202.658 355.762c0 1.807-1.639 2.857-3.6 2.857-1.064 0-1.989-.252-2.731-.658l.252-1.723c.658.378 1.513.672 2.297.687.967.042 1.583-.364 1.583-1.135 0-.7-.532-1.064-1.597-1.106a7.312 7.312 0 0 0-1.148.069v-1.555c1.232-.224 2.367-.504 2.367-1.429 0-.603-.435-.924-1.289-.924-.658 0-1.358.321-1.975.756l-.477-1.568c.784-.547 1.737-.953 2.983-.953 1.766 0 3.068.911 3.068 2.312 0 1.036-.799 1.821-1.779 2.157 1.346.265 2.046 1.162 2.046 2.213zM205.567 356.21c-.798 0-1.331-.504-1.331-1.274 0-.784.533-1.274 1.331-1.274.784 0 1.316.49 1.316 1.274.001.77-.531 1.274-1.316 1.274zM214.487 358.438h-2.017v-2.479h-3.866l-.266-1.331 3.796-5.421h2.353v5.043h1.346l.042 1.709h-1.388v2.479zm-4.048-4.147h2.129v-3.18l-2.129 3.18zM219.063 351.798c-1.555 0-2.451-.995-2.451-2.451 0-1.457.938-2.438 2.466-2.438 1.526 0 2.451.98 2.451 2.438 0 1.456-.925 2.451-2.466 2.451zm-1.302 4.412l7.256-9.161h1.625l-7.256 9.161h-1.625zm1.302-8.181c-.616 0-1.008.49-1.008 1.331 0 .826.392 1.303 1.022 1.303.602 0 1.008-.504 1.008-1.303.001-.84-.405-1.331-1.022-1.331zm6.234 8.322c-1.555 0-2.451-.995-2.451-2.452 0-1.456.938-2.437 2.466-2.437 1.526 0 2.451.98 2.451 2.437 0 1.471-.911 2.452-2.466 2.452zm.015-3.755c-.631 0-1.022.49-1.022 1.317 0 .84.392 1.316 1.022 1.316.616 0 1.008-.49 1.008-1.316-.001-.827-.392-1.317-1.008-1.317zM11.196 378.164l.061-.46h.43l-.13.979c.449.08.869.25 1.229.479l-.229.56a2.886 2.886 0 0 0-1.079-.46l-.31 2.279c.879.27 1.738.68 1.738 1.789 0 1.039-.859 1.799-2.108 1.799h-.15l-.149 1.1h-.43l.149-1.149c-.51-.07-.989-.26-1.419-.53l.229-.569c.37.25.79.45 1.27.54 0-.01.08-.62.17-1.239.05-.37.11-.78.17-1.239-.85-.271-1.719-.62-1.719-1.72 0-.999.819-1.699 1.988-1.699.08 0 .15 0 .23.011 0-.012.03-.241.059-.471zm-.29 2.148c.051-.319.101-.689.15-1.109h-.15c-.929 0-1.369.5-1.369 1.069 0 .63.46.88 1.22 1.149-.01-.009.08-.559.149-1.109zm-.09 4.249c.89 0 1.479-.51 1.479-1.18 0-.649-.45-.939-1.26-1.209l-.319 2.389h.1zM14.276 384.201c2.312-1.751 3.782-2.731 3.782-3.865 0-.743-.561-1.317-1.471-1.317-.715 0-1.373.322-1.989.812l-.309-.742c.659-.519 1.43-.883 2.382-.883 1.358 0 2.297.827 2.297 2.018 0 1.526-1.568 2.535-3.46 3.95h3.782V385h-5.015v-.799zM21.402 383.669c.505 0 .995.448.995 1.106 0 .953-.785 1.793-1.737 2.424l-.378-.378c.896-.631 1.232-1.177 1.232-1.667 0-.379-.252-.561-.868-.799.042-.349.294-.686.756-.686zM26.781 385.182c-1.919 0-3.362-1.442-3.362-3.487s1.443-3.488 3.362-3.488c1.933 0 3.39 1.443 3.39 3.488s-1.457 3.487-3.39 3.487zm0-6.149c-1.471 0-2.493 1.148-2.493 2.661s1.022 2.661 2.493 2.661c1.499 0 2.521-1.148 2.521-2.661s-1.022-2.661-2.521-2.661zM35.223 385.182c-1.919 0-3.362-1.442-3.362-3.487s1.443-3.488 3.362-3.488c1.933 0 3.39 1.443 3.39 3.488s-1.458 3.487-3.39 3.487zm0-6.149c-1.471 0-2.493 1.148-2.493 2.661s1.022 2.661 2.493 2.661c1.499 0 2.521-1.148 2.521-2.661s-1.022-2.661-2.521-2.661zM43.665 385.182c-1.919 0-3.361-1.442-3.361-3.487s1.442-3.488 3.361-3.488c1.933 0 3.39 1.443 3.39 3.488s-1.457 3.487-3.39 3.487zm0-6.149c-1.471 0-2.493 1.148-2.493 2.661s1.022 2.661 2.493 2.661c1.499 0 2.521-1.148 2.521-2.661s-1.022-2.661-2.521-2.661zM48.996 383.669c.505 0 .995.448.995 1.106 0 .953-.785 1.793-1.737 2.424l-.378-.378c.896-.631 1.232-1.177 1.232-1.667 0-.379-.252-.561-.868-.799.042-.349.294-.686.756-.686zM54.374 385.182c-1.919 0-3.361-1.442-3.361-3.487s1.442-3.488 3.361-3.488c1.933 0 3.39 1.443 3.39 3.488s-1.457 3.487-3.39 3.487zm0-6.149c-1.471 0-2.493 1.148-2.493 2.661s1.022 2.661 2.493 2.661c1.499 0 2.521-1.148 2.521-2.661s-1.022-2.661-2.521-2.661zM62.816 385.182c-1.919 0-3.362-1.442-3.362-3.487s1.443-3.488 3.362-3.488c1.933 0 3.39 1.443 3.39 3.488s-1.457 3.487-3.39 3.487zm0-6.149c-1.471 0-2.493 1.148-2.493 2.661s1.022 2.661 2.493 2.661c1.499 0 2.521-1.148 2.521-2.661s-1.022-2.661-2.521-2.661zM67.729 379.93l-.042-.799 2.521-.925V385h-.854v-5.688l-1.625.618zM74.771 381.302h5.295l.042.687h-5.379l.042-.687zM85.908 378.164l.061-.46h.43l-.13.979c.449.08.869.25 1.229.479l-.229.56a2.886 2.886 0 0 0-1.079-.46l-.31 2.279c.879.27 1.738.68 1.738 1.789 0 1.039-.859 1.799-2.108 1.799h-.15l-.149 1.1h-.43l.149-1.149c-.51-.07-.989-.26-1.419-.53l.229-.569c.37.25.79.45 1.27.54 0-.01.08-.62.17-1.239.05-.37.11-.78.17-1.239-.85-.271-1.719-.62-1.719-1.72 0-.999.819-1.699 1.988-1.699.08 0 .15 0 .23.011 0-.012.03-.241.059-.471zm-.29 2.148c.051-.319.101-.689.15-1.109h-.15c-.929 0-1.369.5-1.369 1.069 0 .63.46.88 1.22 1.149-.01-.009.08-.559.149-1.109zm-.09 4.249c.89 0 1.479-.51 1.479-1.18 0-.649-.45-.939-1.26-1.209l-.319 2.389h.1zM88.975 379.93l-.042-.799 2.521-.925V385H90.6v-5.688l-1.625.618zM97.277 385.182c-1.919 0-3.362-1.442-3.362-3.487s1.443-3.488 3.362-3.488c1.933 0 3.39 1.443 3.39 3.488s-1.457 3.487-3.39 3.487zm0-6.149c-1.471 0-2.493 1.148-2.493 2.661s1.022 2.661 2.493 2.661c1.499 0 2.521-1.148 2.521-2.661s-1.022-2.661-2.521-2.661zM102.61 383.669c.505 0 .995.448.995 1.106 0 .953-.785 1.793-1.737 2.424l-.378-.378c.896-.631 1.232-1.177 1.232-1.667 0-.379-.252-.561-.868-.799.042-.349.294-.686.756-.686zM107.987 385.182c-1.919 0-3.361-1.442-3.361-3.487s1.442-3.488 3.361-3.488c1.933 0 3.39 1.443 3.39 3.488s-1.457 3.487-3.39 3.487zm0-6.149c-1.471 0-2.493 1.148-2.493 2.661s1.022 2.661 2.493 2.661c1.499 0 2.521-1.148 2.521-2.661s-1.022-2.661-2.521-2.661zM116.43 385.182c-1.919 0-3.362-1.442-3.362-3.487s1.443-3.488 3.362-3.488c1.933 0 3.39 1.443 3.39 3.488s-1.458 3.487-3.39 3.487zm0-6.149c-1.471 0-2.493 1.148-2.493 2.661s1.022 2.661 2.493 2.661c1.499 0 2.521-1.148 2.521-2.661s-1.022-2.661-2.521-2.661zM124.871 385.182c-1.919 0-3.362-1.442-3.362-3.487s1.443-3.488 3.362-3.488c1.933 0 3.39 1.443 3.39 3.488s-1.457 3.487-3.39 3.487zm0-6.149c-1.471 0-2.493 1.148-2.493 2.661s1.022 2.661 2.493 2.661c1.499 0 2.521-1.148 2.521-2.661s-1.022-2.661-2.521-2.661zM130.203 383.669c.505 0 .995.448.995 1.106 0 .953-.785 1.793-1.737 2.424l-.378-.378c.896-.631 1.232-1.177 1.232-1.667 0-.379-.252-.561-.868-.799.042-.349.294-.686.756-.686zM135.582 385.182c-1.919 0-3.362-1.442-3.362-3.487s1.443-3.488 3.362-3.488c1.933 0 3.39 1.443 3.39 3.488s-1.457 3.487-3.39 3.487zm0-6.149c-1.471 0-2.493 1.148-2.493 2.661s1.022 2.661 2.493 2.661c1.499 0 2.521-1.148 2.521-2.661s-1.022-2.661-2.521-2.661zM144.023 385.182c-1.919 0-3.362-1.442-3.362-3.487s1.443-3.488 3.362-3.488c1.933 0 3.39 1.443 3.39 3.488s-1.457 3.487-3.39 3.487zm0-6.149c-1.471 0-2.493 1.148-2.493 2.661s1.022 2.661 2.493 2.661c1.499 0 2.521-1.148 2.521-2.661s-1.022-2.661-2.521-2.661zM152.466 385.182c-1.919 0-3.361-1.442-3.361-3.487s1.442-3.488 3.361-3.488c1.933 0 3.39 1.443 3.39 3.488s-1.458 3.487-3.39 3.487zm0-6.149c-1.471 0-2.493 1.148-2.493 2.661s1.022 2.661 2.493 2.661c1.499 0 2.521-1.148 2.521-2.661s-1.022-2.661-2.521-2.661zM193.362 384.846h-1.724v-2.381h-2.353l.042-1.625h2.311v-2.382h1.724v2.382h2.311l.042 1.625h-2.353v2.381zM203.569 382.549c0 1.513-1.079 2.661-3.334 2.661-1.947 0-3.277-.896-3.277-2.438 0-.952.7-1.694 1.778-1.961-.896-.406-1.639-.994-1.639-2.087 0-1.526 1.064-2.634 3.25-2.634 1.891 0 3.096.925 3.096 2.438 0 .896-.603 1.597-1.597 1.919.939.379 1.723.995 1.723 2.102zm-4.594.028c0 .658.519 1.134 1.358 1.134.799 0 1.261-.378 1.261-1.05 0-.631-.658-1.009-1.666-1.331-.659.322-.953.813-.953 1.247zm2.493-3.824c0-.729-.448-1.149-1.162-1.149-.742 0-1.177.449-1.177 1.051 0 .603.532.967 1.499 1.289.56-.323.84-.785.84-1.191zM206.255 385.21c-.798 0-1.331-.504-1.331-1.274 0-.784.533-1.274 1.331-1.274.784 0 1.316.49 1.316 1.274 0 .77-.532 1.274-1.316 1.274zM215.175 387.438h-2.017v-2.479h-3.866l-.266-1.331 3.796-5.421h2.353v5.043h1.346l.042 1.709h-1.388v2.479zm-4.048-4.147h2.129v-3.18l-2.129 3.18zM219.751 380.798c-1.555 0-2.451-.995-2.451-2.451 0-1.457.938-2.438 2.466-2.438 1.526 0 2.451.98 2.451 2.438 0 1.456-.925 2.451-2.466 2.451zm-1.303 4.412l7.256-9.161h1.625l-7.256 9.161h-1.625zm1.303-8.181c-.616 0-1.008.49-1.008 1.331 0 .826.392 1.303 1.022 1.303.602 0 1.008-.504 1.008-1.303 0-.84-.406-1.331-1.022-1.331zm6.233 8.322c-1.555 0-2.451-.995-2.451-2.452 0-1.456.938-2.437 2.466-2.437 1.526 0 2.451.98 2.451 2.437 0 1.471-.911 2.452-2.466 2.452zm.015-3.755c-.631 0-1.022.49-1.022 1.317 0 .84.392 1.316 1.022 1.316.616 0 1.008-.49 1.008-1.316 0-.827-.392-1.317-1.008-1.317zM11.196 407.164l.061-.46h.43l-.13.979c.449.08.869.25 1.229.479l-.229.56a2.886 2.886 0 0 0-1.079-.46l-.31 2.279c.879.27 1.738.68 1.738 1.789 0 1.039-.859 1.799-2.108 1.799h-.15l-.149 1.1h-.43l.149-1.149c-.51-.07-.989-.26-1.419-.53l.229-.569c.37.25.79.45 1.27.54 0-.01.08-.62.17-1.239.05-.37.11-.78.17-1.239-.85-.271-1.719-.62-1.719-1.72 0-.999.819-1.699 1.988-1.699.08 0 .15 0 .23.011 0-.012.03-.241.059-.471zm-.29 2.148c.051-.319.101-.689.15-1.109h-.15c-.929 0-1.369.5-1.369 1.069 0 .63.46.88 1.22 1.149-.01-.009.08-.559.149-1.109zm-.09 4.249c.89 0 1.479-.51 1.479-1.18 0-.649-.45-.939-1.26-1.209l-.319 2.389h.1zM14.263 408.93l-.042-.799 2.521-.925V414h-.854v-5.688l-1.625.618zM22.565 414.182c-1.919 0-3.361-1.442-3.361-3.487s1.442-3.488 3.361-3.488c1.933 0 3.39 1.443 3.39 3.488s-1.457 3.487-3.39 3.487zm0-6.149c-1.471 0-2.493 1.148-2.493 2.661s1.022 2.661 2.493 2.661c1.499 0 2.521-1.148 2.521-2.661s-1.022-2.661-2.521-2.661zM27.898 412.669c.505 0 .995.448.995 1.106 0 .953-.785 1.793-1.737 2.424l-.378-.378c.896-.631 1.232-1.177 1.232-1.667 0-.379-.252-.561-.868-.799.043-.349.295-.686.756-.686zM33.275 414.182c-1.919 0-3.362-1.442-3.362-3.487s1.443-3.488 3.362-3.488c1.933 0 3.39 1.443 3.39 3.488s-1.457 3.487-3.39 3.487zm0-6.149c-1.471 0-2.493 1.148-2.493 2.661s1.022 2.661 2.493 2.661c1.499 0 2.521-1.148 2.521-2.661s-1.022-2.661-2.521-2.661zM41.718 414.182c-1.919 0-3.361-1.442-3.361-3.487s1.442-3.488 3.361-3.488c1.933 0 3.39 1.443 3.39 3.488s-1.458 3.487-3.39 3.487zm0-6.149c-1.471 0-2.493 1.148-2.493 2.661s1.022 2.661 2.493 2.661c1.499 0 2.521-1.148 2.521-2.661s-1.022-2.661-2.521-2.661zM50.159 414.182c-1.919 0-3.361-1.442-3.361-3.487s1.442-3.488 3.361-3.488c1.933 0 3.39 1.443 3.39 3.488s-1.457 3.487-3.39 3.487zm0-6.149c-1.471 0-2.493 1.148-2.493 2.661s1.022 2.661 2.493 2.661c1.499 0 2.521-1.148 2.521-2.661s-1.022-2.661-2.521-2.661zM55.491 412.669c.505 0 .995.448.995 1.106 0 .953-.785 1.793-1.737 2.424l-.378-.378c.896-.631 1.232-1.177 1.232-1.667 0-.379-.252-.561-.868-.799.042-.349.294-.686.756-.686zM60.87 414.182c-1.919 0-3.361-1.442-3.361-3.487s1.442-3.488 3.361-3.488c1.933 0 3.39 1.443 3.39 3.488s-1.457 3.487-3.39 3.487zm0-6.149c-1.471 0-2.493 1.148-2.493 2.661s1.022 2.661 2.493 2.661c1.499 0 2.521-1.148 2.521-2.661s-1.022-2.661-2.521-2.661zM69.312 414.182c-1.919 0-3.361-1.442-3.361-3.487s1.442-3.488 3.361-3.488c1.933 0 3.39 1.443 3.39 3.488s-1.458 3.487-3.39 3.487zm0-6.149c-1.471 0-2.493 1.148-2.493 2.661s1.022 2.661 2.493 2.661c1.499 0 2.521-1.148 2.521-2.661s-1.022-2.661-2.521-2.661zM74.224 408.93l-.042-.799 2.521-.925V414h-.854v-5.688l-1.625.618zM82.302 413.607h-.77V411.1h-2.466l.042-.771h2.424v-2.493h.77v2.493h2.396l.042.771h-2.438v2.507zM193.01 413.846h-1.724v-2.381h-2.353l.042-1.625h2.311v-2.382h1.724v2.382h2.311l.042 1.625h-2.353v2.381zM196.689 409.672l-.042-1.779 3.81-.826V414h-2.143v-4.707l-1.625.379zM202.514 412.501c2.199-1.415 3.418-2.045 3.418-2.829 0-.49-.351-.784-1.064-.784-.616 0-1.331.279-2.045.742l-.477-1.597c.784-.547 1.919-.953 3.025-.953 1.808 0 2.857.911 2.857 2.213 0 1.163-.98 2.018-2.787 2.956h3.096l.028 1.751h-6.052v-1.499zM211.25 414.21c-.798 0-1.331-.504-1.331-1.274 0-.784.533-1.274 1.331-1.274.784 0 1.316.49 1.316 1.274 0 .77-.532 1.274-1.316 1.274zM220.171 416.438h-2.018v-2.479h-3.866l-.266-1.331 3.796-5.421h2.354v5.043h1.344l.043 1.709h-1.387v2.479zm-4.049-4.147h2.129v-3.18l-2.129 3.18zM224.746 409.798c-1.555 0-2.451-.995-2.451-2.451 0-1.457.938-2.438 2.466-2.438 1.526 0 2.451.98 2.451 2.438 0 1.456-.925 2.451-2.466 2.451zm-1.303 4.412l7.256-9.161h1.625l-7.256 9.161h-1.625zm1.303-8.181c-.616 0-1.008.49-1.008 1.331 0 .826.392 1.303 1.022 1.303.602 0 1.008-.504 1.008-1.303.001-.84-.406-1.331-1.022-1.331zm6.233 8.322c-1.555 0-2.451-.995-2.451-2.452 0-1.456.938-2.437 2.466-2.437 1.526 0 2.451.98 2.451 2.437 0 1.471-.911 2.452-2.466 2.452zm.015-3.755c-.631 0-1.022.49-1.022 1.317 0 .84.392 1.316 1.022 1.316.616 0 1.008-.49 1.008-1.316 0-.827-.392-1.317-1.008-1.317z"/></g><g><g fill="none" stroke="#333" stroke-width=".5" stroke-miterlimit="10"><path d="M7.959 280.007h.5"/><path stroke-dasharray="0.9956,0.9956" d="M9.455 280.007h226.504"/><path d="M236.457 280.007h.5"/></g></g><g><g fill="none" stroke="#333" stroke-width=".5" stroke-miterlimit="10"><path d="M7.959 251.422h.5"/><path stroke-dasharray="0.9956,0.9956" d="M9.455 251.422h226.504"/><path d="M236.457 251.422h.5"/></g></g><g><g fill="none" stroke="#333" stroke-width=".5" stroke-miterlimit="10"><path d="M7.959 222.837h.5"/><path stroke-dasharray="0.9956,0.9956" d="M9.455 222.837h226.504"/><path d="M236.457 222.837h.5"/></g></g><g><g fill="none" stroke="#333" stroke-width=".5" stroke-miterlimit="10"><path d="M7.959 422.344h.5"/><path stroke-dasharray="0.9956,0.9956" d="M9.455 422.344h226.504"/><path d="M236.457 422.344h.5"/></g></g><g><g fill="none" stroke="#333" stroke-width=".5" stroke-miterlimit="10"><path d="M7.959 395.346h.5"/><path stroke-dasharray="0.9956,0.9956" d="M9.455 395.346h226.504"/><path d="M236.457 395.346h.5"/></g></g><g><g fill="none" stroke="#333" stroke-width=".5" stroke-miterlimit="10"><path d="M7.959 308.592h.5"/><path stroke-dasharray="0.9956,0.9956" d="M9.455 308.592h226.504"/><path d="M236.457 308.592h.5"/></g></g><g><g fill="none" stroke="#333" stroke-width=".5" stroke-miterlimit="10"><path d="M7.959 338.176h.5"/><path stroke-dasharray="0.9956,0.9956" d="M9.455 338.176h226.504"/><path d="M236.457 338.176h.5"/></g></g><g><g fill="none" stroke="#333" stroke-width=".5" stroke-miterlimit="10"><path d="M7.959 365.761h.5"/><path stroke-dasharray="0.9956,0.9956" d="M9.455 365.761h226.504"/><path d="M236.457 365.761h.5"/></g></g><g><path fill="#FF336C" d="M46.918 129.313H21.731a2.41 2.41 0 0 1-2.406-2.409v-34.37a2.41 2.41 0 0 1 2.406-2.408h25.187a2.41 2.41 0 0 1 2.407 2.408v34.371a2.41 2.41 0 0 1-2.407 2.408zM21.731 91.131c-.773 0-1.403.629-1.403 1.403v34.371c0 .774.63 1.403 1.403 1.403h25.187c.774 0 1.403-.629 1.403-1.403V92.534c0-.773-.63-1.403-1.403-1.403H21.731z"/><path fill="#FF336C" d="M45.887 99.906a.506.506 0 0 1-.505.505H23.095a.506.506 0 0 1-.505-.505v-4.885c0-.278.227-.505.505-.505h22.287c.278 0 .505.227.505.505v4.885z"/><path fill="#FF336C" d="M45.382 100.913H23.095a1.008 1.008 0 0 1-1.007-1.007v-4.885a1.01 1.01 0 0 1 1.007-1.008h22.287c.555 0 1.006.452 1.006 1.008v4.885c0 .555-.451 1.007-1.006 1.007zm0-1.005v.503-.503zm-22.287-4.889l-.001 4.888 22.288.002.002-4.887-22.289-.003zM26.294 104.49v2.347h-2.698v-2.347h2.698m.5-1.005h-3.699a.506.506 0 0 0-.505.504v3.349c0 .276.227.503.505.503h3.699a.505.505 0 0 0 .504-.503v-3.349a.506.506 0 0 0-.504-.504zM32.49 104.49v2.347h-2.699v-2.347h2.699m.501-1.005h-3.702a.506.506 0 0 0-.504.504v3.349c0 .276.228.503.504.503h3.702a.505.505 0 0 0 .503-.503v-3.349a.506.506 0 0 0-.503-.504zM38.686 104.49v2.347h-2.699v-2.347h2.699m.501-1.005h-3.701a.506.506 0 0 0-.504.504v3.349c0 .276.227.503.504.503h3.701a.506.506 0 0 0 .505-.503v-3.349a.509.509 0 0 0-.505-.504zM44.881 104.49v2.347h-2.698v-2.347h2.698m.501-1.005h-3.7a.507.507 0 0 0-.505.504v3.349c0 .276.228.503.505.503h3.7a.506.506 0 0 0 .505-.503v-3.349a.507.507 0 0 0-.505-.504zM26.294 110.64v2.347h-2.698v-2.347h2.698m.5-1.004h-3.699a.506.506 0 0 0-.505.503v3.349c0 .277.227.504.505.504h3.699a.505.505 0 0 0 .504-.504v-3.349a.505.505 0 0 0-.504-.503zM32.49 110.64v2.347h-2.699v-2.347h2.699m.501-1.004h-3.702a.506.506 0 0 0-.504.503v3.349c0 .277.228.504.504.504h3.702a.506.506 0 0 0 .503-.504v-3.349a.505.505 0 0 0-.503-.503zM38.686 110.64v2.347h-2.699v-2.347h2.699m.501-1.004h-3.701a.506.506 0 0 0-.504.503v3.349c0 .277.227.504.504.504h3.701a.507.507 0 0 0 .505-.504v-3.349a.508.508 0 0 0-.505-.503zM44.881 110.64v2.347h-2.698v-2.347h2.698m.501-1.004h-3.7a.506.506 0 0 0-.505.503v3.349c0 .277.228.504.505.504h3.7a.506.506 0 0 0 .505-.504v-3.349a.506.506 0 0 0-.505-.503zM26.294 116.79v2.346h-2.698v-2.346h2.698m.5-1.005h-3.699a.506.506 0 0 0-.505.504v3.349c0 .276.227.503.505.503h3.699a.505.505 0 0 0 .504-.503v-3.349a.506.506 0 0 0-.504-.504zM32.49 116.79v2.346h-2.699v-2.346h2.699m.501-1.005h-3.702a.506.506 0 0 0-.504.504v3.349c0 .276.228.503.504.503h3.702a.505.505 0 0 0 .503-.503v-3.349a.506.506 0 0 0-.503-.504zM38.686 116.79v2.346h-2.699v-2.346h2.699m.501-1.005h-3.701a.506.506 0 0 0-.504.504v3.349c0 .276.227.503.504.503h3.701a.506.506 0 0 0 .505-.503v-3.349a.509.509 0 0 0-.505-.504zM26.294 122.939v2.348h-2.698v-2.348h2.698m.5-1.003h-3.699a.506.506 0 0 0-.505.504v3.348c0 .277.227.504.505.504h3.699a.505.505 0 0 0 .504-.504v-3.348a.504.504 0 0 0-.504-.504zM32.49 122.939v2.348h-2.699v-2.348h2.699m.501-1.003h-3.702a.506.506 0 0 0-.504.504v3.348c0 .277.228.504.504.504h3.702a.506.506 0 0 0 .503-.504v-3.348a.504.504 0 0 0-.503-.504zM38.686 122.939v2.348h-2.699v-2.348h2.699m.501-1.003h-3.701a.506.506 0 0 0-.504.504v3.348c0 .277.227.504.504.504h3.701a.507.507 0 0 0 .505-.504v-3.348a.507.507 0 0 0-.505-.504z"/><g><path fill="#FF336C" d="M44.881 116.79v8.497h-2.698v-8.497h2.698m.501-1.005h-3.7a.507.507 0 0 0-.505.504v9.499c0 .276.228.503.505.503h3.7a.506.506 0 0 0 .505-.503v-9.498a.507.507 0 0 0-.505-.505z"/></g><g fill="#FF336C"><path d="M63.479 91.857c-1.755 0-3.068 1.261-3.068 3.471 0 2.146 1.235 3.484 3.094 3.484.885 0 1.717-.312 2.275-.728l.156.819c-.611.403-1.495.663-2.444.663-2.354 0-3.926-1.651-3.926-4.212 0-2.587 1.65-4.251 3.926-4.251.988 0 1.898.299 2.509.663l-.26.741a4.118 4.118 0 0 0-2.262-.65zM67.912 91.271h.832v7.345h4.018v.78h-4.85v-8.125zM74.451 91.271h.818v8.125h-.818v-8.125zM81.173 91.857c-1.755 0-3.068 1.261-3.068 3.471 0 2.146 1.235 3.484 3.094 3.484.885 0 1.717-.312 2.275-.728l.156.819c-.611.403-1.495.663-2.444.663-2.354 0-3.926-1.651-3.926-4.212 0-2.587 1.65-4.251 3.926-4.251.988 0 1.898.299 2.509.663l-.26.741a4.123 4.123 0 0 0-2.262-.65zM90.208 91.271h1.065l-4.017 4.03 4.082 4.095H90.26l-3.81-3.887h-.013v3.887h-.832v-8.125h.832v3.9h.013l3.758-3.9zM100.581 95.692h-4.758v3.705h-.832v-8.125h.832v3.667h4.758v-3.667h.832v8.125h-.832v-3.705zM103.792 91.271h4.914v.767h-4.082v2.912h3.406v.754h-3.406v2.925h4.082v.767h-4.914v-8.125zM110.682 99.397v-8.125h2.184c2.016 0 2.951.923 2.951 2.34 0 1.209-.845 1.976-1.885 2.288l2.249 3.497h-.962l-2.08-3.354-1.625.104v3.25h-.832zm4.302-5.746c0-1.079-.793-1.625-2.21-1.625h-1.261v3.38l1.456-.052c1.08-.039 2.015-.624 2.015-1.703zM117.857 91.271h4.914v.767h-4.082v2.912h3.406v.754h-3.406v2.925h4.082v.767h-4.914v-8.125zM129.805 99.397h-.832v-7.345h-2.86v-.78h6.553v.78h-2.86v7.345zM137.734 99.566c-2.249 0-3.991-1.703-3.991-4.212 0-2.496 1.677-4.251 4.004-4.251 2.262 0 3.991 1.703 3.991 4.199 0 2.483-1.676 4.264-4.004 4.264zm-.013-7.722c-1.819 0-3.133 1.417-3.133 3.458 0 2.093 1.352 3.523 3.186 3.523 1.807 0 3.12-1.43 3.12-3.471 0-2.093-1.327-3.51-3.173-3.51zM149.278 91.857c-1.755 0-3.068 1.261-3.068 3.471 0 2.146 1.235 3.484 3.094 3.484.885 0 1.717-.312 2.275-.728l.156.819c-.611.403-1.495.663-2.444.663-2.354 0-3.926-1.651-3.926-4.212 0-2.587 1.65-4.251 3.926-4.251.988 0 1.898.299 2.509.663l-.26.741a4.12 4.12 0 0 0-2.262-.65zM159.106 99.397l-.858-2.327h-3.679l-.858 2.327h-.845l3.081-8.125h.975l3.029 8.125h-.845zm-4.251-3.081h3.106l-1.547-4.225-1.559 4.225zM161.485 91.271h.832v7.345h4.018v.78h-4.85v-8.125zM171.027 91.857c-1.755 0-3.068 1.261-3.068 3.471 0 2.146 1.235 3.484 3.094 3.484.885 0 1.717-.312 2.275-.728l.156.819c-.611.403-1.495.663-2.444.663-2.353 0-3.926-1.651-3.926-4.212 0-2.587 1.65-4.251 3.926-4.251.988 0 1.898.299 2.509.663l-.26.741a4.12 4.12 0 0 0-2.262-.65zM178.411 99.566c-1.938 0-3.042-1.222-3.042-3.146v-5.148h.806v5.044c0 1.56.754 2.483 2.275 2.483 1.456 0 2.223-.871 2.223-2.496v-5.031h.819v5.019c0 2.014-1.053 3.275-3.081 3.275zM183.767 91.271h.832v7.345h4.018v.78h-4.85v-8.125zM195.87 99.397l-.858-2.327h-3.679l-.858 2.327h-.845l3.081-8.125h.975l3.029 8.125h-.845zm-4.251-3.081h3.106l-1.547-4.225-1.559 4.225zM200.55 99.397h-.832v-7.345h-2.86v-.78h6.553v.78h-2.86v7.345zM205.048 91.271h4.914v.767h-4.082v2.912h3.406v.754h-3.406v2.925h4.082v.767h-4.914v-8.125zM65.585 110.692h-4.758v3.705h-.832v-8.125h.832v3.667h4.758v-3.667h.832v8.125h-.832v-3.705zM72.358 114.566c-2.249 0-3.991-1.703-3.991-4.212 0-2.496 1.677-4.251 4.004-4.251 2.262 0 3.991 1.703 3.991 4.199 0 2.483-1.676 4.264-4.004 4.264zm-.013-7.722c-1.819 0-3.133 1.417-3.133 3.458 0 2.093 1.353 3.523 3.186 3.523 1.807 0 3.12-1.43 3.12-3.471 0-2.093-1.327-3.51-3.173-3.51zM79.924 114.397l-2.313-8.125h.857l1.898 6.942 2.067-6.942h.988l2.105 6.942 1.82-6.942h.832l-2.275 8.125h-.806l-2.185-7.15-2.197 7.15h-.791zM97.722 112.135c0 1.313-.884 2.262-2.926 2.262h-2.639v-8.125h2.535c1.95 0 2.769.884 2.769 2.119 0 .793-.468 1.573-1.56 1.846 1.197.247 1.821.949 1.821 1.898zm-2.991-5.109h-1.742v2.925h1.612c1.234 0 2.027-.52 2.027-1.495.001-.884-.597-1.43-1.897-1.43zm-.078 3.679h-1.664v2.938h1.872c1.443 0 2.028-.572 2.028-1.508.001-.949-.78-1.43-2.236-1.43zM99.605 106.271h4.914v.767h-4.082v2.912h3.406v.754h-3.406v2.925h4.082v.767h-4.914v-8.125zM106.495 114.397v-8.125h2.185c2.015 0 2.95.923 2.95 2.34 0 1.209-.845 1.976-1.885 2.288l2.249 3.497h-.962l-2.08-3.354-1.625.104v3.25h-.832zm4.303-5.746c0-1.079-.793-1.625-2.21-1.625h-1.261v3.38l1.456-.052c1.079-.039 2.015-.624 2.015-1.703zM120.028 106.271v8.204h-.897l-4.654-7.033v6.955h-.806v-8.125h.937l4.614 6.968v-6.968h.806zM122.446 106.271h.818v8.125h-.818v-8.125zM125.684 106.271h4.914v.767h-4.082v2.912h3.406v.754h-3.406v2.925h4.082v.767h-4.914v-8.125zM132.716 105.843c.469 0 .924.416.924 1.027 0 .871-.716 1.651-1.612 2.236l-.352-.325c.832-.611 1.145-1.092 1.145-1.56 0-.325-.234-.507-.806-.728.038-.351.272-.65.701-.65zM139.294 112.291c0-.949-.78-1.326-2.054-1.703-1.145-.351-2.366-.832-2.366-2.275 0-1.3 1.092-2.21 2.6-2.21.937 0 1.755.247 2.444.702l-.299.728c-.611-.416-1.404-.676-2.133-.676-1.209 0-1.807.65-1.807 1.391 0 .884.806 1.248 2.054 1.625 1.184.351 2.354.884 2.354 2.354 0 1.352-1.118 2.34-2.743 2.34a4.851 4.851 0 0 1-2.613-.754l.299-.741c.663.455 1.404.754 2.341.754 1.13-.001 1.923-.664 1.923-1.535zM147.029 114.397h-.832v-7.345h-2.86v-.78h6.553v.78h-2.86v7.345zM156.272 114.397l-.858-2.327h-3.679l-.858 2.327h-.845l3.081-8.125h.975l3.029 8.125h-.845zm-4.251-3.081h3.106l-1.547-4.225-1.559 4.225zM157.779 114.397l2.978-4.134-2.821-3.991h.988l2.34 3.393 2.353-3.393h.976l-2.848 3.952 2.99 4.173h-1.014l-2.483-3.601-2.483 3.601h-.976zM176.786 112.135c0 1.313-.884 2.262-2.926 2.262h-2.639v-8.125h2.535c1.95 0 2.769.884 2.769 2.119 0 .793-.468 1.573-1.56 1.846 1.197.247 1.821.949 1.821 1.898zm-2.99-5.109h-1.742v2.925h1.612c1.234 0 2.027-.52 2.027-1.495 0-.884-.597-1.43-1.897-1.43zm-.078 3.679h-1.664v2.938h1.872c1.443 0 2.028-.572 2.028-1.508 0-.949-.78-1.43-2.236-1.43zM178.671 114.397v-8.125h2.185c2.015 0 2.95.923 2.95 2.34 0 1.209-.845 1.976-1.885 2.288l2.249 3.497h-.962l-2.08-3.354-1.625.104v3.25h-.832zm4.303-5.746c0-1.079-.793-1.625-2.21-1.625h-1.261v3.38l1.456-.052c1.079-.039 2.015-.624 2.015-1.703zM191.242 114.397l-.858-2.327h-3.679l-.858 2.327h-.845l3.081-8.125h.975l3.029 8.125h-.845zm-4.252-3.081h3.107l-1.547-4.225-1.56 4.225zM197.04 106.857c-1.755 0-3.068 1.261-3.068 3.471 0 2.146 1.235 3.484 3.094 3.484.885 0 1.717-.312 2.275-.728l.156.819c-.611.403-1.495.663-2.444.663-2.354 0-3.926-1.651-3.926-4.212 0-2.587 1.65-4.251 3.926-4.251.988 0 1.898.299 2.509.663l-.26.741a4.12 4.12 0 0 0-2.262-.65zM206.075 106.271h1.065l-4.017 4.03 4.082 4.095h-1.079l-3.81-3.887h-.013v3.887h-.832v-8.125h.832v3.9h.013l3.759-3.9zM208.752 106.271h4.914v.767h-4.082v2.912h3.406v.754h-3.406v2.925h4.082v.767h-4.914v-8.125zM218.594 114.397h-.832v-7.345h-2.86v-.78h6.553v.78h-2.86v7.345zM227.082 112.291c0-.949-.78-1.326-2.054-1.703-1.145-.351-2.366-.832-2.366-2.275 0-1.3 1.092-2.21 2.6-2.21.937 0 1.755.247 2.444.702l-.299.728c-.611-.416-1.404-.676-2.132-.676-1.21 0-1.808.65-1.808 1.391 0 .884.806 1.248 2.054 1.625 1.184.351 2.354.884 2.354 2.354 0 1.352-1.118 2.34-2.743 2.34a4.851 4.851 0 0 1-2.613-.754l.299-.741c.663.455 1.404.754 2.341.754 1.13-.001 1.923-.664 1.923-1.535zM61.802 129.397l-2.313-8.125h.857l1.898 6.942 2.067-6.942h.987l2.106 6.942 1.82-6.942h.832l-2.275 8.125h-.806l-2.185-7.15-2.196 7.15h-.792zM75.297 129.566c-2.249 0-3.991-1.703-3.991-4.212 0-2.496 1.677-4.251 4.004-4.251 2.262 0 3.991 1.703 3.991 4.199 0 2.483-1.677 4.264-4.004 4.264zm-.014-7.722c-1.819 0-3.133 1.417-3.133 3.458 0 2.093 1.352 3.523 3.186 3.523 1.807 0 3.12-1.43 3.12-3.471 0-2.093-1.326-3.51-3.173-3.51zM84.201 129.566c-1.938 0-3.042-1.222-3.042-3.146v-5.148h.806v5.044c0 1.56.754 2.483 2.275 2.483 1.456 0 2.223-.871 2.223-2.496v-5.031h.819v5.019c0 2.014-1.053 3.275-3.081 3.275zM89.557 121.271h.832v7.345h4.018v.78h-4.85v-8.125zM98.216 129.397H96.07v-8.125h2.21c2.665 0 4.304 1.599 4.304 4.004 0 2.548-1.6 4.121-4.368 4.121zm.013-7.358h-1.326v6.591h1.352c2.08 0 3.498-1.066 3.498-3.289-.001-2.08-1.288-3.302-3.524-3.302zM112.034 129.397l-.858-2.327h-3.679l-.858 2.327h-.845l3.081-8.125h.975l3.029 8.125h-.845zm-4.251-3.081h3.106l-1.547-4.225-1.559 4.225zM119.197 121.271v.78h-3.952v3.029h3.276v.767h-3.276v3.549h-.832v-8.125h4.784zM125.723 121.271v.78h-3.952v3.029h3.276v.767h-3.276v3.549h-.832v-8.125h4.784zM127.464 121.271h4.914v.767h-4.082v2.912h3.406v.754h-3.406v2.925h4.082v.767h-4.914v-8.125zM137.773 121.857c-1.755 0-3.068 1.261-3.068 3.471 0 2.146 1.235 3.484 3.094 3.484.885 0 1.717-.312 2.275-.728l.156.819c-.611.403-1.495.663-2.444.663-2.353 0-3.926-1.651-3.926-4.212 0-2.587 1.65-4.251 3.926-4.251.988 0 1.898.299 2.509.663l-.26.741a4.118 4.118 0 0 0-2.262-.65zM145.027 129.397h-.832v-7.345h-2.86v-.78h6.553v.78h-2.86v7.345zM154.413 129.397h-.832v-3.263l-2.834-4.862h.936l2.341 4.043 2.301-4.043h.923l-2.834 4.862v3.263zM162.175 129.566c-2.249 0-3.991-1.703-3.991-4.212 0-2.496 1.677-4.251 4.004-4.251 2.262 0 3.991 1.703 3.991 4.199 0 2.483-1.677 4.264-4.004 4.264zm-.014-7.722c-1.819 0-3.133 1.417-3.133 3.458 0 2.093 1.353 3.523 3.186 3.523 1.807 0 3.12-1.43 3.12-3.471 0-2.093-1.326-3.51-3.173-3.51zM171.079 129.566c-1.938 0-3.042-1.222-3.042-3.146v-5.148h.806v5.044c0 1.56.754 2.483 2.275 2.483 1.456 0 2.223-.871 2.223-2.496v-5.031h.819v5.019c0 2.014-1.053 3.275-3.081 3.275zM176.486 129.566c-.377 0-.649-.325-.649-.676 0-.351.272-.65.649-.65s.65.299.65.65c.001.351-.273.676-.65.676z"/></g><g><path fill="none" stroke="#FF336C" stroke-miterlimit="10" d="M236.957 133.504c0 4.4-3.6 8-8 8H15.959c-4.4 0-8-3.6-8-8V85.837c0-4.4 3.6-8 8-8h212.998c4.4 0 8 3.6 8 8v47.667z"/></g></g><g fill="#002C3C"><path d="M48.273 191.154v-1.429h.489c.133 0 .223-.034.269-.103.046-.069.069-.203.069-.404v-5.453c0-.196-.023-.328-.069-.394-.046-.066-.136-.099-.269-.099h-.489v-1.415h4.859c1.281 0 2.227.23 2.838.692.61.461.916 1.176.916 2.145 0 1.01-.301 1.747-.902 2.21s-1.561.695-2.878.695h-1.053v1.63c0 .197.024.329.072.396s.137.101.265.101h.606v1.429h-4.723zm3.781-4.983h.7c.458 0 .787-.114.988-.343s.302-.602.302-1.12c0-.513-.1-.878-.298-1.096-.199-.217-.534-.326-1.005-.326h-.686v2.885zM57.551 185.72v-1.429h1.695c.674 0 1.253-.055 1.736-.164v1.401c.269-.953.866-1.429 1.791-1.429.551 0 .985.19 1.302.571s.475.89.475 1.528c0 .551-.14.985-.42 1.302s-.657.475-1.131.475c-.324 0-.601-.102-.831-.304s-.345-.457-.345-.762c0-.428.182-.768.547-1.019a.69.69 0 0 0-.349-.082c-.346 0-.601.151-.762.455s-.254.771-.277 1.405v1.627c0 .178.021.294.065.349s.115.082.215.082h.424v1.429h-4.074v-1.429h.362c.1 0 .172-.027.215-.082s.065-.171.065-.349v-3.069c0-.196-.02-.329-.058-.4s-.113-.106-.222-.106h-.423zM65.154 187.729c0-1.086.355-1.963 1.067-2.63s1.649-1 2.812-1c1.141 0 2.059.332 2.754.997s1.043 1.542 1.043 2.633c0 1.083-.354 1.957-1.06 2.624-.707.667-1.642 1-2.806 1-1.15 0-2.073-.331-2.768-.993s-1.042-1.539-1.042-2.631zm2.728.134c0 .769.084 1.305.254 1.607.169.302.455.454.857.454s.688-.152.857-.457c.169-.305.254-.839.254-1.604v-.26c0-.773-.084-1.312-.254-1.618-.169-.305-.455-.457-.857-.457-.398 0-.682.154-.854.46-.172.307-.257.845-.257 1.614v.261zM73.434 185.72v-1.429h1.654c.693 0 1.271-.055 1.736-.164v1.374c.369-.934 1.101-1.401 2.194-1.401.884 0 1.583.329 2.099.988s.772 1.537.772 2.635c0 1.094-.272 1.972-.817 2.635s-1.271.995-2.177.995c-.989 0-1.666-.396-2.03-1.189v1.538c0 .178.021.294.065.349s.115.082.215.082h.403v1.429h-4.061v-1.429h.369c.1 0 .172-.027.215-.082s.065-.171.065-.349v-5.476c0-.196-.021-.329-.062-.4s-.114-.106-.219-.106h-.421zm3.431 2.133c0 1.212.365 1.818 1.094 1.818.725 0 1.087-.606 1.087-1.818v-.253c0-1.212-.362-1.818-1.087-1.818-.355 0-.626.141-.813.424s-.28.748-.28 1.395v.252zM82.602 187.729c0-1.086.355-1.963 1.067-2.63s1.649-1 2.812-1c1.141 0 2.059.332 2.754.997s1.043 1.542 1.043 2.633c0 1.083-.354 1.957-1.06 2.624-.707.667-1.642 1-2.806 1-1.15 0-2.073-.331-2.768-.993s-1.042-1.539-1.042-2.631zm2.728.134c0 .769.084 1.305.254 1.607.169.302.455.454.857.454s.688-.152.857-.457c.169-.305.254-.839.254-1.604v-.26c0-.773-.084-1.312-.254-1.618-.169-.305-.455-.457-.857-.457-.398 0-.682.154-.854.46-.172.307-.257.845-.257 1.614v.261zM91.012 186.52c0-.756.306-1.349.919-1.777.612-.428 1.478-.643 2.597-.643.562 0 1.09.055 1.585.164s.907.237 1.235.383v1.709H95.64v-.854a3.163 3.163 0 0 0-.935-.13c-.304 0-.541.052-.71.157a.485.485 0 0 0-.255.431c0 .055.006.104.019.147s.036.084.068.123a.77.77 0 0 0 .099.099c.033.027.083.054.148.079l.171.065c.048.018.119.038.213.058l.229.051c.059.013.147.032.267.055l.278.055c.223.05.414.099.575.147s.346.112.554.191c.208.08.385.173.529.28.145.107.283.233.416.379s.232.321.298.526.1.433.1.684c0 .775-.291 1.377-.872 1.808s-1.417.646-2.508.646c-1.042 0-2.114-.182-3.216-.547v-1.764h1.613v.937c.306.064.688.096 1.145.096.741 0 1.111-.205 1.111-.615a.543.543 0 0 0-.037-.208c-.024-.062-.073-.116-.146-.164s-.139-.088-.197-.12a1.479 1.479 0 0 0-.306-.103c-.146-.037-.261-.064-.346-.082s-.232-.048-.441-.089c-.277-.059-.514-.119-.711-.178s-.415-.147-.656-.263-.436-.246-.587-.39c-.15-.144-.278-.331-.382-.561s-.156-.491-.156-.782zM97.924 187.709c0-1.089.341-1.963 1.022-2.622s1.594-.988 2.738-.988c1.171 0 2.047.329 2.628.988s.872 1.612.872 2.861v.28h-4.416c.018.501.165.876.441 1.125s.657.373 1.145.373c.725 0 1.242-.326 1.552-.978l1.271.909c-.592 1.13-1.716 1.695-3.37 1.695-1.23 0-2.185-.332-2.864-.995s-1.019-1.545-1.019-2.648zm2.803-.656h1.921c-.014-.556-.09-.948-.229-1.179s-.361-.346-.667-.346c-.333 0-.58.119-.742.355-.161.238-.256.628-.283 1.17zM105.876 187.723c0-1.084.275-1.959.825-2.625s1.267-.998 2.149-.998c1.02 0 1.708.365 2.064 1.094v-1.401c0-.196-.021-.329-.062-.4s-.114-.106-.219-.106h-.424v-1.429h1.695c.693 0 1.271-.055 1.736-.164v7.602c0 .178.021.294.065.349s.115.082.215.082h.308v1.429h-3.021c0-.018-.039-.396-.116-1.135-.347.889-1.09 1.333-2.228 1.333-.905 0-1.629-.332-2.173-.995s-.814-1.543-.814-2.636zm2.844.13c0 1.24.366 1.859 1.097 1.859s1.097-.62 1.097-1.859v-.253c0-1.244-.366-1.866-1.097-1.866s-1.097.622-1.097 1.866v.253zM118.675 186.533c0-1.477.402-2.658 1.207-3.544s1.872-1.33 3.203-1.33c1.249 0 2.078.444 2.488 1.333l.451-1.135h1.497v3.685h-2.283c-.086-.702-.261-1.213-.523-1.535s-.642-.482-1.138-.482c-.638 0-1.102.218-1.391.653s-.434 1.127-.434 2.075v.465c0 1.016.15 1.736.451 2.16s.768.636 1.401.636c.551 0 .982-.153 1.292-.458s.499-.782.567-1.429l2.14.376c-.055.497-.174.944-.359 1.343s-.441.751-.769 1.056-.75.54-1.265.704-1.107.246-1.777.246c-1.504 0-2.673-.418-3.507-1.254s-1.251-2.024-1.251-3.565zM128.247 183.286v-1.429h1.695c.693 0 1.271-.055 1.736-.164v3.541c.424-.756 1.162-1.135 2.215-1.135 1.5 0 2.249.909 2.249 2.728v2.468c0 .178.021.294.065.349.043.055.115.082.215.082h.369v1.429h-3.951v-1.429h.294c.1 0 .172-.027.215-.082s.065-.171.065-.349v-2.365c0-.396-.062-.678-.185-.844s-.328-.25-.615-.25c-.314 0-.549.122-.704.366s-.232.63-.232 1.159v1.935c0 .178.021.294.065.349s.115.082.215.082h.294v1.429h-3.951v-1.429h.369c.1 0 .172-.027.215-.082s.065-.171.065-.349v-5.503c0-.196-.021-.329-.062-.4s-.114-.106-.219-.106h-.422zM137.401 189.503c0-.832.471-1.453 1.411-1.865.503-.217 1.309-.421 2.419-.612l.242-.042c.163-.022.287-.04.371-.053v-.368c0-.36-.081-.623-.244-.788-.164-.165-.436-.247-.816-.247-.172 0-.343.018-.514.053.043.194.064.367.064.517 0 .318-.119.582-.355.791s-.539.314-.904.314c-.473 0-.836-.106-1.088-.318-.254-.212-.381-.516-.381-.913 0-.615.309-1.081.923-1.398s1.505-.475 2.669-.475c1.234 0 2.105.184 2.613.553s.762 1.004.762 1.908v2.74c0 .158.02.268.058.331s.108.094.208.094h.363v1.429h-2.715a1.958 1.958 0 0 1-.361-.412 2.817 2.817 0 0 1-.254-.55c-.162.334-.451.611-.865.831s-.861.33-1.342.33c-.699 0-1.25-.172-1.655-.515-.406-.344-.609-.789-.609-1.335zm2.729-.385c0 .237.056.431.168.581.113.15.256.225.432.225.363 0 .639-.131.83-.392.19-.261.285-.615.285-1.06v-.537a83.95 83.95 0 0 1-.615.125c-.17.034-.326.082-.467.142-.141.061-.254.131-.338.21s-.154.178-.211.298-.084.255-.084.408zM145.729 191.154v-1.429h.362c.101 0 .172-.027.216-.082.043-.055.064-.171.064-.349v-3.069c0-.196-.021-.329-.062-.4s-.114-.106-.219-.106h-.362v-1.429h1.606c.684 0 1.258-.055 1.723-.164v1.176c.41-.802 1.162-1.203 2.256-1.203 1.499 0 2.249.914 2.249 2.741v2.454c0 .178.021.294.064.349.044.055.115.082.216.082h.369v1.429h-3.951v-1.429h.294c.1 0 .172-.027.215-.082.044-.055.065-.171.065-.349v-2.413c0-.396-.061-.677-.181-.841-.121-.164-.322-.246-.605-.246-.318 0-.557.12-.715.359-.156.239-.235.623-.235 1.152v1.989c0 .178.021.294.065.349.043.055.115.082.215.082h.294v1.429h-3.943zM154.515 192.651c0-.602.58-1.035 1.742-1.299-.92-.255-1.38-.77-1.38-1.545 0-.346.112-.65.337-.913.226-.262.549-.466.971-.612-.666-.392-1-.984-1-1.777 0-.72.336-1.301 1.008-1.743s1.547-.663 2.625-.663c.791 0 1.474.13 2.046.39.116-.378.296-.669.54-.872s.541-.304.889-.304c.335 0 .607.093.819.28s.317.426.317.718c0 .314-.078.556-.234.725-.157.168-.381.253-.672.253-.354 0-.612-.137-.773-.41l-.135.089c.443.415.666.923.666 1.524 0 .748-.318 1.324-.954 1.729s-1.516.608-2.638.608a6.609 6.609 0 0 1-1.59-.171c-.188.018-.32.05-.396.096a.216.216 0 0 0-.116.198c0 .137.069.232.208.287.14.055.385.082.736.082.357 0 .899-.007 1.627-.021a92.567 92.567 0 0 1 1.529-.021c.797 0 1.396.188 1.795.564s.599.883.599 1.521c0 .857-.354 1.5-1.065 1.931-.709.431-1.822.646-3.34.646-1.049 0-1.883-.05-2.5-.15-.619-.1-1.049-.242-1.294-.424a.846.846 0 0 1-.367-.716zm2.016-.294c0 .214.164.359.491.434.328.075.917.113 1.768.113.84 0 1.443-.058 1.811-.174.368-.116.552-.3.552-.55 0-.201-.069-.337-.208-.41s-.426-.109-.863-.109h-2.615c-.624.14-.936.373-.936.696zm1.381-5.694c0 .661.271.991.81.991.287 0 .496-.082.631-.246.133-.164.2-.424.2-.779v-.294c0-.355-.065-.616-.197-.783s-.334-.25-.606-.25c-.558 0-.837.351-.837 1.053v.308zM163.54 187.709c0-1.089.34-1.963 1.021-2.622s1.594-.988 2.738-.988c1.171 0 2.047.329 2.628.988s.872 1.612.872 2.861v.28h-4.416c.018.501.164.876.44 1.125s.657.373 1.146.373c.725 0 1.241-.326 1.551-.978l1.271.909c-.592 1.13-1.715 1.695-3.369 1.695-1.23 0-2.186-.332-2.865-.995-.678-.662-1.017-1.545-1.017-2.648zm2.803-.656h1.92c-.014-.556-.09-.948-.229-1.179s-.361-.346-.666-.346c-.333 0-.58.119-.742.355-.162.238-.256.628-.283 1.17zM171.519 186.52c0-.756.307-1.349.919-1.777s1.478-.643 2.597-.643c.562 0 1.091.055 1.586.164s.906.237 1.235.383v1.709h-1.709v-.854a3.163 3.163 0 0 0-.935-.13c-.305 0-.541.052-.711.157s-.255.249-.255.431a.375.375 0 0 0 .087.27.552.552 0 0 0 .248.178l.172.065c.048.018.119.038.213.058l.229.051c.059.013.147.032.267.055l.278.055c.223.05.414.099.575.147s.346.112.554.191c.209.08.385.173.529.28s.283.233.416.379.231.321.298.526.1.433.1.684c0 .775-.29 1.377-.872 1.808s-1.418.646-2.508.646c-1.042 0-2.114-.182-3.217-.547v-1.764h1.613v.937a5.73 5.73 0 0 0 1.145.096c.74 0 1.111-.205 1.111-.615a.543.543 0 0 0-.037-.208.349.349 0 0 0-.145-.164c-.073-.048-.139-.088-.197-.12s-.16-.066-.307-.103c-.146-.037-.261-.064-.346-.082s-.232-.048-.441-.089a9.28 9.28 0 0 1-.711-.178c-.196-.059-.414-.147-.655-.263s-.437-.246-.587-.39-.277-.331-.383-.561a1.88 1.88 0 0 1-.156-.782zM182.295 191.154v-1.429h.284c.076 0 .128-.031.157-.092s.044-.174.044-.338v-3.015c0-.209-.016-.355-.049-.438s-.094-.123-.184-.123h-.253v-1.429h1.634c.684 0 1.268-.055 1.75-.164v5.168c0 .164.015.277.043.338.029.062.081.092.155.092h.26v1.429h-3.841zm.817-7.622c-.279-.237-.419-.547-.419-.93s.14-.694.419-.933.648-.359 1.106-.359.825.12 1.103.359.415.55.415.933-.138.693-.415.93-.645.355-1.103.355-.826-.118-1.106-.355zM186.869 191.154v-1.429h.362c.1 0 .172-.027.215-.082.044-.055.065-.171.065-.349v-3.069c0-.196-.021-.329-.062-.4s-.113-.106-.219-.106h-.362v-1.429h1.606c.684 0 1.258-.055 1.723-.164v1.176c.41-.802 1.162-1.203 2.256-1.203 1.5 0 2.249.914 2.249 2.741v2.454c0 .178.021.294.065.349.043.055.115.082.215.082h.369v1.429H191.4v-1.429h.294c.101 0 .172-.027.216-.082.043-.055.064-.171.064-.349v-2.413c0-.396-.061-.677-.182-.841-.12-.164-.322-.246-.604-.246-.319 0-.558.12-.714.359-.158.239-.236.623-.236 1.152v1.989c0 .178.021.294.064.349.044.055.115.082.216.082h.294v1.429h-3.943zM55.538 207.954v-1.429h.602c.132 0 .221-.034.267-.103s.068-.203.068-.403v-5.441c0-.196-.023-.327-.068-.393s-.134-.099-.267-.099h-.602v-1.429h4.956l1.299 4.478 1.333-4.478h4.826v1.429h-.492c-.132 0-.221.033-.267.099s-.068.197-.068.393v5.441c0 .201.023.335.068.403s.134.103.267.103h.492v1.429h-4.546v-1.429h.485c.127 0 .215-.034.263-.103s.072-.203.072-.403v-5.373l-2.181 7.308h-1.818l-2.044-7.239v5.305c0 .201.024.335.072.403s.136.103.263.103h.588v1.429h-3.568zM68.665 206.303c0-.832.47-1.453 1.411-1.865.502-.217 1.309-.421 2.418-.612l.243-.042c.163-.022.287-.04.372-.053v-.368c0-.36-.082-.623-.245-.788-.163-.165-.436-.247-.816-.247-.171 0-.342.018-.513.053.042.194.064.367.064.517 0 .318-.119.582-.355.791-.237.209-.539.314-.905.314-.472 0-.835-.106-1.088-.318-.253-.212-.38-.516-.38-.913 0-.615.308-1.081.922-1.398s1.505-.475 2.669-.475c1.234 0 2.104.184 2.612.553s.762 1.004.762 1.908v2.74c0 .158.02.268.058.331s.108.094.208.094h.362v1.429H73.75c-.155-.137-.276-.275-.362-.412s-.171-.321-.253-.55c-.163.334-.452.611-.866.831-.415.22-.862.33-1.342.33-.698 0-1.25-.172-1.655-.515-.405-.345-.607-.789-.607-1.335zm2.727-.385c0 .237.056.431.169.581.112.15.256.225.431.225.363 0 .64-.131.831-.392.19-.261.286-.615.286-1.06v-.537l-.615.125a2.347 2.347 0 0 0-.467.142c-.141.061-.253.131-.338.21s-.155.178-.211.298-.086.255-.086.408zM76.944 202.52v-1.429h1.695c.674 0 1.253-.055 1.736-.164v1.401c.269-.953.866-1.429 1.791-1.429.551 0 .985.19 1.302.571s.475.89.475 1.528c0 .551-.14.985-.42 1.302s-.657.475-1.131.475c-.324 0-.601-.102-.831-.304s-.345-.457-.345-.762c0-.428.182-.768.547-1.019a.69.69 0 0 0-.349-.082c-.346 0-.601.151-.762.455s-.254.771-.277 1.405v1.627c0 .178.021.294.065.349s.115.082.215.082h.424v1.429h-4.074v-1.429h.362c.1 0 .172-.027.215-.082s.065-.171.065-.349v-3.069c0-.196-.02-.329-.058-.4s-.113-.106-.222-.106h-.423zM84.267 209.451c0-.602.581-1.035 1.742-1.299-.92-.255-1.38-.77-1.38-1.545 0-.346.112-.65.337-.913s.549-.466.971-.612c-.667-.392-1-.984-1-1.777 0-.72.336-1.301 1.007-1.743.672-.442 1.547-.663 2.625-.663.792 0 1.474.13 2.046.39.116-.378.296-.669.541-.872.244-.203.54-.304.889-.304.334 0 .607.093.819.28s.317.426.317.718c0 .314-.079.556-.235.725-.157.168-.38.253-.671.253-.354 0-.613-.137-.774-.41l-.135.089c.444.415.666.923.666 1.524 0 .748-.318 1.324-.954 1.729s-1.516.608-2.638.608a6.606 6.606 0 0 1-1.589-.171c-.188.018-.32.05-.397.096s-.116.112-.116.198c0 .137.069.232.208.287s.384.082.736.082c.356 0 .899-.007 1.626-.021a92.705 92.705 0 0 1 1.529-.021c.798 0 1.396.188 1.795.564s.599.883.599 1.521c0 .857-.355 1.5-1.065 1.931s-1.823.646-3.341.646c-1.049 0-1.882-.05-2.5-.15-.618-.1-1.049-.242-1.293-.424a.849.849 0 0 1-.365-.716zm2.016-.294c0 .214.164.359.492.434s.917.113 1.768.113c.839 0 1.443-.058 1.811-.174s.551-.3.551-.55c0-.201-.069-.337-.208-.41s-.426-.109-.863-.109h-2.615c-.624.14-.936.372-.936.696zm1.381-5.694c0 .661.27.991.81.991.286 0 .496-.082.63-.246.134-.164.201-.424.201-.779v-.294c0-.355-.066-.616-.197-.783-.132-.167-.334-.25-.606-.25-.558 0-.837.351-.837 1.053v.308zM93.476 207.954v-1.429h.284c.076 0 .128-.031.157-.092s.044-.174.044-.338v-3.015c0-.209-.016-.355-.049-.438s-.094-.123-.184-.123h-.253v-1.429h1.634c.684 0 1.267-.055 1.75-.164v5.168c0 .164.015.277.043.338s.081.092.155.092h.26v1.429h-3.841zm.818-7.622c-.28-.237-.419-.547-.419-.93s.14-.694.419-.933c.279-.239.648-.359 1.106-.359.458 0 .825.12 1.102.359.277.239.416.55.416.933s-.138.693-.416.93c-.277.237-.645.355-1.102.355-.458.001-.827-.118-1.106-.355zM98.051 207.954v-1.429h.362c.1 0 .172-.027.215-.082s.065-.171.065-.349v-3.069c0-.196-.021-.329-.062-.4s-.114-.106-.219-.106h-.362v-1.429h1.606c.684 0 1.258-.055 1.723-.164v1.176c.41-.802 1.162-1.203 2.256-1.203 1.5 0 2.249.914 2.249 2.741v2.454c0 .178.021.294.065.349s.115.082.215.082h.369v1.429h-3.951v-1.429h.294c.1 0 .172-.027.215-.082s.065-.171.065-.349v-2.413c0-.396-.061-.677-.181-.841s-.322-.246-.605-.246c-.319 0-.557.12-.714.359s-.236.623-.236 1.152v1.989c0 .178.021.294.065.349s.115.082.215.082h.294v1.429h-3.943zM107.144 206.303c0-.832.47-1.453 1.411-1.865.502-.217 1.309-.421 2.418-.612l.243-.042c.163-.022.287-.04.372-.053v-.368c0-.36-.082-.623-.245-.788-.163-.165-.436-.247-.816-.247-.171 0-.342.018-.513.053.042.194.064.367.064.517 0 .318-.119.582-.355.791-.237.209-.539.314-.905.314-.472 0-.835-.106-1.088-.318-.253-.212-.38-.516-.38-.913 0-.615.308-1.081.922-1.398s1.505-.475 2.669-.475c1.234 0 2.104.184 2.612.553s.762 1.004.762 1.908v2.74c0 .158.02.268.058.331s.108.094.208.094h.362v1.429h-2.714c-.155-.137-.276-.275-.362-.412s-.171-.321-.253-.55c-.163.334-.452.611-.866.831-.415.22-.862.33-1.342.33-.698 0-1.25-.172-1.655-.515a1.674 1.674 0 0 1-.607-1.335zm2.728-.385c0 .237.056.431.169.581.112.15.256.225.431.225.363 0 .64-.131.831-.392.19-.261.286-.615.286-1.06v-.537l-.615.125a2.347 2.347 0 0 0-.467.142c-.141.061-.253.131-.338.21s-.155.178-.211.298-.086.255-.086.408zM115.424 200.086v-1.429h1.695c.684 0 1.267-.055 1.75-.164v7.602c0 .178.021.294.063.349s.112.082.21.082h.315v1.429h-3.958v-1.429h.376c.096 0 .164-.027.205-.082s.062-.171.062-.349v-5.503c0-.196-.019-.329-.056-.4s-.109-.106-.216-.106h-.446zM124.005 201.385v-2.728h8.579v2.728h-1.34l-.116-.643c-.045-.268-.154-.444-.327-.529-.172-.085-.472-.127-.898-.127h-.238v5.936c0 .2.024.334.071.402s.137.102.268.102h.597v1.429h-4.717v-1.429h.604c.126 0 .214-.034.261-.102s.071-.202.071-.402v-5.936h-.144c-.428 0-.727.042-.896.127-.168.084-.276.261-.321.529l-.109.643h-1.345zM133.427 206.303c0-.832.47-1.453 1.41-1.865.503-.217 1.309-.421 2.419-.612l.243-.042c.162-.022.287-.04.371-.053v-.368c0-.36-.082-.623-.245-.788-.163-.165-.436-.247-.816-.247-.171 0-.343.018-.513.053.042.194.063.367.063.517 0 .318-.118.582-.354.791-.237.209-.539.314-.905.314-.472 0-.835-.106-1.088-.318-.253-.212-.38-.516-.38-.913 0-.615.308-1.081.922-1.398.615-.317 1.506-.475 2.67-.475 1.234 0 2.104.184 2.612.553s.762 1.004.762 1.908v2.74c0 .158.02.268.058.331.039.063.109.094.209.094h.362v1.429h-2.714c-.154-.137-.275-.275-.362-.412s-.171-.321-.253-.55c-.163.334-.451.611-.865.831-.415.22-.862.33-1.343.33-.698 0-1.25-.172-1.655-.515-.406-.345-.608-.789-.608-1.335zm2.727-.385c0 .237.056.431.169.581.112.15.256.225.431.225.363 0 .64-.131.831-.392.189-.261.285-.615.285-1.06v-.537l-.615.125a2.367 2.367 0 0 0-.467.142 1.166 1.166 0 0 0-.338.21.946.946 0 0 0-.296.706zM141.706 207.954v-1.429h.281a.83.83 0 0 0 .074-.003.554.554 0 0 0 .127-.035.4.4 0 0 0 .059-.034l.051-.038a1.214 1.214 0 0 0 .11-.109c.012-.014.034-.039.068-.075s.059-.064.072-.082l1.4-1.559-1.469-1.688-.104-.123c-.045-.055-.078-.092-.099-.113s-.048-.045-.082-.075-.067-.049-.099-.058a.4.4 0 0 0-.109-.014h-.219v-1.429h4.266v1.429h-.35a.185.185 0 0 0-.177.164c-.009.055.023.123.096.205l.615.779.67-.779a.344.344 0 0 0 .082-.167.173.173 0 0 0-.033-.144c-.032-.039-.08-.058-.145-.058h-.293v-1.429h3.049v1.429h-.336c-.05 0-.096.004-.137.014l-.099.024a.212.212 0 0 0-.085.055c-.032.03-.055.052-.068.068l-.086.103a5.644 5.644 0 0 1-.1.12l-1.312 1.456 1.539 1.75c.022.027.053.068.092.123s.069.095.092.12c.023.025.052.054.086.085s.069.055.105.068a.328.328 0 0 0 .117.021h.178v1.429h-4.279v-1.429h.375c.096 0 .161-.031.195-.092s.01-.151-.072-.27l-.725-.923-.744.923c-.068.091-.094.174-.076.25.019.075.078.113.178.113h.309v1.429h-2.988zM153.884 207.954v-1.429h.485c.128 0 .216-.035.263-.106.049-.071.072-.205.072-.401v-5.453c0-.187-.023-.316-.072-.387-.047-.07-.135-.106-.263-.106h-.485v-1.415h5.331c1.142 0 1.998.207 2.569.62.57.414.856 1.068.856 1.963 0 1.166-.649 1.907-1.948 2.223.615.164 1.058.442 1.328.834.271.392.426.925.462 1.6.014.232.058.396.134.489.074.093.199.14.372.14h.191v1.429h-2.19a1.39 1.39 0 0 1-.742-.198 1.48 1.48 0 0 1-.523-.557c-.133-.239-.236-.5-.312-.783s-.127-.595-.154-.937c-.037-.488-.133-.845-.291-1.073-.156-.228-.443-.342-.857-.342h-.506v1.955c0 .196.023.329.072.4.047.071.135.106.263.106h.492v1.429h-4.547zm3.719-5.093h.561c.551 0 .943-.107 1.176-.323s.349-.582.349-1.099c0-.49-.104-.838-.314-1.044s-.556-.309-1.039-.309h-.731v2.775zM163.79 206.303c0-.832.471-1.453 1.411-1.865.503-.217 1.309-.421 2.419-.612l.242-.042c.163-.022.287-.04.371-.053v-.368c0-.36-.081-.623-.244-.788-.164-.165-.436-.247-.816-.247-.172 0-.343.018-.514.053.043.194.064.367.064.517 0 .318-.119.582-.355.791s-.539.314-.904.314c-.473 0-.836-.106-1.088-.318-.254-.212-.381-.516-.381-.913 0-.615.309-1.081.923-1.398s1.505-.475 2.669-.475c1.234 0 2.105.184 2.613.553s.762 1.004.762 1.908v2.74c0 .158.02.268.058.331s.108.094.208.094h.363v1.429h-2.715a1.958 1.958 0 0 1-.361-.412 2.817 2.817 0 0 1-.254-.55c-.162.334-.451.611-.865.831s-.861.33-1.342.33c-.699 0-1.25-.172-1.655-.515a1.67 1.67 0 0 1-.609-1.335zm2.729-.385c0 .237.056.431.168.581.113.15.256.225.432.225.363 0 .639-.131.83-.392.19-.261.285-.615.285-1.06v-.537a83.95 83.95 0 0 1-.615.125c-.17.034-.326.082-.467.142-.141.061-.254.131-.338.21s-.154.178-.211.298-.084.255-.084.408zM172.029 202.52v-1.271a.122.122 0 0 0 .022-.003l.057-.007a.738.738 0 0 0 .074-.01.842.842 0 0 1 .123-.013l.019-.007c.31-.073.562-.189.756-.349s.321-.394.382-.704l.176-1.087h1.878v2.023h1.08v1.429h-1.121v3.192c0 .319.056.541.169.667.111.125.289.188.53.188.142 0 .315-.032.518-.096v1.483a5.045 5.045 0 0 1-1.392.198c-.926 0-1.583-.188-1.971-.564-.389-.376-.582-1.006-.582-1.89v-3.179h-.718zM177.466 204.509c0-1.089.34-1.963 1.021-2.622s1.594-.988 2.738-.988c1.171 0 2.047.329 2.628.988s.872 1.612.872 2.861v.28h-4.416c.018.501.164.876.44 1.125s.657.373 1.146.373c.725 0 1.241-.326 1.551-.978l1.271.909c-.592 1.13-1.715 1.695-3.369 1.695-1.23 0-2.186-.332-2.865-.995-.678-.662-1.017-1.545-1.017-2.648zm2.803-.656h1.92c-.014-.556-.09-.948-.229-1.179s-.361-.346-.666-.346c-.333 0-.58.119-.742.355-.162.238-.256.628-.283 1.17zM185.444 203.319c0-.756.307-1.349.919-1.777s1.478-.643 2.597-.643c.562 0 1.091.055 1.586.164s.906.237 1.235.383v1.709h-1.709v-.854a3.163 3.163 0 0 0-.935-.13c-.305 0-.541.052-.711.157s-.255.249-.255.431a.375.375 0 0 0 .087.27.552.552 0 0 0 .248.178l.172.065c.048.018.119.038.213.058l.229.051c.059.013.147.032.267.055l.278.055c.223.05.414.099.575.147s.346.112.554.191c.209.08.385.173.529.28s.283.233.416.379.231.321.298.526.1.433.1.684c0 .775-.29 1.377-.872 1.808s-1.418.646-2.508.646c-1.042 0-2.114-.182-3.217-.547v-1.764h1.613v.937a5.73 5.73 0 0 0 1.145.096c.74 0 1.111-.205 1.111-.615a.543.543 0 0 0-.037-.208.349.349 0 0 0-.145-.164c-.073-.048-.139-.088-.197-.12s-.16-.066-.307-.103c-.146-.037-.261-.064-.346-.082s-.232-.048-.441-.089a9.28 9.28 0 0 1-.711-.178c-.196-.059-.414-.147-.655-.263s-.437-.246-.587-.39-.277-.331-.383-.561a1.889 1.889 0 0 1-.156-.782z"/></g></svg>