<svg xmlns="http://www.w3.org/2000/svg" width="241.667" height="593.75" viewBox="0 0 241.667 593.75"><path fill="#FF336C" d="M23.396 15.79h-1.092l1.378-7.072h-2.86l.208-1.053h6.786l-.195 1.053h-2.847l-1.378 7.072zM34.94 12.202h-4.342l-.689 3.588h-1.105l1.573-8.125h1.105l-.689 3.535h4.342l.676-3.536h1.105l-1.573 8.125h-1.105l.702-3.587zM40.27 7.664h5.148l-.195 1.027h-4.056l-.481 2.509h3.38l-.208 1.027h-3.367l-.494 2.535h4.043l-.195 1.027h-5.148l1.573-8.125zM55.22 6.299c-.078.247-.156.455-.221.65-.117.325-.221.663-.234.663.52.117.962.286 1.365.481l-.221 1.066A5.789 5.789 0 0 0 54.44 8.6l-.897 2.639h.013c1.144.481 2.028 1.066 2.028 2.275 0 1.521-1.287 2.483-2.951 2.483-.247 0-.494-.026-.754-.065l-.494 1.456h-.637l.533-1.573c-.572-.143-1.092-.351-1.495-.598l.221-1.092a6.315 6.315 0 0 0 1.612.702l.962-2.834c-1.027-.442-1.807-1.04-1.807-2.08 0-1.599 1.326-2.431 2.795-2.431.208 0 .403.013.598.039l.416-1.222h.637zM53.478 8.47c-.936 0-1.638.442-1.638 1.313 0 .533.325.858 1.144 1.222l.858-2.509c-.143-.013-.26-.026-.364-.026zm-.806 5.122c-.234.702-.455 1.365-.468 1.365.169.026.325.039.468.039 1.079 0 1.846-.533 1.846-1.365 0-.585-.403-1.001-1.378-1.404-.169.507-.326.962-.468 1.365zM58.443 10.979l.156-.962 2.769-.585-1.248 6.358h-1.079l1.014-5.135-1.612.324zM69.142 13.723c0 1.196-.975 2.288-2.639 2.288-1.599 0-2.769-.832-2.769-2.184 0-1.118 1.027-1.963 2.067-2.171-.663-.403-1.17-.962-1.17-1.781 0-1.222 1.014-2.275 2.574-2.275 1.703 0 2.574.923 2.574 2.132 0 1.196-1.014 1.924-1.807 2.158.663.402 1.17 1.013 1.17 1.833zm-4.329.012c0 .806.767 1.326 1.729 1.326.936 0 1.495-.494 1.495-1.274 0-.741-.689-1.261-1.586-1.716-1.027.247-1.638.95-1.638 1.664zm3.9-3.926c0-.793-.676-1.274-1.469-1.274-.936 0-1.521.572-1.521 1.248 0 .715.65 1.222 1.586 1.677.78-.233 1.404-.897 1.404-1.651zM78.099 15.79h-1.092l1.378-7.072h-2.86l.208-1.053h6.786l-.195 1.053h-2.847l-1.378 7.072zM83.507 15.79l1.573-8.125h2.119c1.859 0 2.821 1.04 2.821 2.25 0 1.508-1.066 2.262-2.314 2.535l1.443 3.341h-1.261l-1.3-3.211-1.391.091-.585 3.12h-1.105zm5.382-5.747c0-.884-.663-1.365-1.807-1.365h-1.105l-.611 3.016 1.157-.026c1.352-.039 2.366-.52 2.366-1.625zM93.608 7.664H94.7l-1.573 8.125h-1.092l1.573-8.125zM98.093 7.664h1.105l-1.365 7.06h3.926l-.208 1.066H96.52l1.573-8.126zM105.814 7.664h1.105l-1.365 7.06h3.926l-.208 1.066h-5.031l1.573-8.126zM113.562 7.664h1.092l-1.573 8.125h-1.092l1.573-8.125zM120.491 15.984c-2.184 0-3.796-1.521-3.796-3.809 0-2.509 1.924-4.706 4.576-4.706 2.184 0 3.796 1.508 3.796 3.796 0 2.496-1.937 4.719-4.576 4.719zm.663-7.526c-2.041 0-3.328 1.755-3.328 3.627 0 1.729 1.118 2.925 2.795 2.925 2.028 0 3.315-1.768 3.315-3.64.001-1.717-1.118-2.912-2.782-2.912zM135.194 7.664l-1.548 8.204h-1.326l-2.938-6.864-1.248 6.786h-1.079l1.534-8.125h1.378l2.912 6.773 1.248-6.773h1.067zM146.36 13.462c0 1.3-.988 2.327-3.237 2.327h-2.847l1.573-8.125h2.548c1.664 0 2.418.936 2.418 2.015 0 1.04-.688 1.742-1.833 2.067.937.313 1.378.937 1.378 1.716zm-2.782-1.248h-1.508l-.494 2.548h1.755c1.313 0 1.898-.481 1.898-1.3 0-.793-.702-1.248-1.651-1.248zm.611-3.523h-1.443l-.48 2.548h1.417c1.248 0 1.989-.507 1.989-1.378 0-.663-.494-1.17-1.483-1.17zM148.714 15.79l1.573-8.125h2.119c1.858 0 2.82 1.04 2.82 2.25 0 1.508-1.065 2.262-2.313 2.535l1.443 3.341h-1.262l-1.3-3.211-1.391.091-.586 3.12h-1.103zm5.382-5.747c0-.884-.663-1.365-1.807-1.365h-1.105l-.61 3.016 1.156-.026c1.352-.039 2.366-.52 2.366-1.625zM158.789 7.664h5.148l-.195 1.027h-4.057l-.48 2.509h3.38l-.208 1.027h-3.367l-.494 2.535h4.043l-.194 1.027h-5.148l1.572-8.125zM170.645 15.79l-.351-2.119h-3.602l-1.248 2.119h-1.209l4.875-8.112h1.235l1.43 8.112h-1.13zm-3.355-3.121h2.848l-.624-3.796-2.224 3.796zM180.265 7.664h1.404l-4.485 4.056 2.978 4.069h-1.313l-2.795-3.861h-.013l-.755 3.861h-1.104l1.573-8.125h1.104l-.754 3.887h.013l4.147-3.887zM185.035 15.79h-2.509l1.573-8.125h1.95c2.132 0 3.913 1.183 3.913 3.458.001 2.457-1.494 4.667-4.927 4.667zm.871-7.086l-.91-.013-1.17 6.071h1.456c1.977 0 3.55-1.274 3.55-3.51 0-1.754-1.118-2.509-2.926-2.548zM196.176 15.984c-2.184 0-3.796-1.521-3.796-3.809 0-2.509 1.925-4.706 4.576-4.706 2.185 0 3.796 1.508 3.796 3.796 0 2.496-1.937 4.719-4.576 4.719zm.663-7.526c-2.041 0-3.328 1.755-3.328 3.627 0 1.729 1.118 2.925 2.796 2.925 2.027 0 3.314-1.768 3.314-3.64 0-1.717-1.118-2.912-2.782-2.912zM204.353 15.79l-.74-8.125h1.17l.441 6.579 3.212-6.579h1.273l.663 6.579 2.978-6.579h1.131l-3.874 8.125h-1.093l-.688-6.695-3.38 6.695h-1.093zM223.893 7.664l-1.548 8.204h-1.325l-2.938-6.864-1.248 6.786h-1.079l1.534-8.125h1.378l2.912 6.773 1.248-6.773h1.066z"/><path fill="#FF336C" d="M19.782 17.648v-.26h205.436v.26H19.782zM75.512 33.985c-2.184 0-3.796-1.521-3.796-3.81 0-2.509 1.924-4.706 4.576-4.706 2.185 0 3.796 1.508 3.796 3.796 0 2.496-1.937 4.72-4.576 4.72zm.663-7.527c-2.041 0-3.328 1.755-3.328 3.627 0 1.729 1.118 2.925 2.795 2.925 2.028 0 3.315-1.768 3.315-3.64.001-1.717-1.118-2.912-2.782-2.912zM84.04 33.777l-1.43-8.112h1.131l1.131 6.916 4.043-6.916h1.209l-4.862 8.112H84.04zM92.321 25.665h5.148l-.195 1.026h-4.056l-.481 2.51h3.38l-.208 1.026h-3.367l-.494 2.535h4.043l-.195 1.027h-5.148l1.573-8.124zM98.847 33.79l1.573-8.125h2.119c1.859 0 2.821 1.04 2.821 2.249 0 1.508-1.066 2.262-2.314 2.535l1.443 3.341h-1.261l-1.3-3.211-1.391.091-.585 3.12h-1.105zm5.382-5.747c0-.884-.663-1.365-1.807-1.365h-1.105l-.611 3.017 1.157-.026c1.352-.04 2.366-.521 2.366-1.626zM111.105 28.979l.156-.962 2.769-.585-1.248 6.357h-1.079l1.014-5.135-1.612.325zM119.465 33.985c-1.664 0-2.951-1.027-2.951-2.757 0-1.976 1.443-3.77 3.471-3.77 1.677 0 2.964 1.026 2.964 2.756 0 1.977-1.456 3.771-3.484 3.771zm.481-5.538c-1.391 0-2.34 1.325-2.34 2.665 0 1.144.754 1.885 1.898 1.885 1.404 0 2.353-1.339 2.353-2.665-.001-1.145-.78-1.885-1.911-1.885zM131.528 33.79h-1.053l.637-3.276-1.897-4.849h1.196l1.43 3.848 2.821-3.848h1.261l-3.771 4.927-.624 3.198zM138.405 25.665h5.147l-.194 1.026h-4.057l-.48 2.51h3.38l-.208 1.026h-3.367l-.494 2.535h4.043l-.194 1.027h-5.148l1.572-8.124zM150.262 33.79l-.351-2.119h-3.602l-1.248 2.119h-1.209l4.875-8.112h1.235l1.43 8.112h-1.13zm-3.355-3.121h2.848l-.624-3.796-2.224 3.796zM153.797 33.79l1.573-8.125h2.119c1.858 0 2.821 1.04 2.821 2.249 0 1.508-1.066 2.262-2.314 2.535l1.443 3.341h-1.262l-1.3-3.211-1.391.091-.585 3.12h-1.104zm5.382-5.747c0-.884-.663-1.365-1.807-1.365h-1.105l-.61 3.017 1.156-.026c1.352-.04 2.366-.521 2.366-1.626zM166.783 31.631c0-.663-.52-1.066-1.729-1.547-1.132-.442-2.016-1.053-2.016-2.171 0-1.6 1.326-2.432 2.795-2.432 1.027 0 1.898.286 2.562.611l-.221 1.066c-.663-.352-1.639-.689-2.432-.689-.896 0-1.638.442-1.638 1.313 0 .637.52.975 1.716 1.456 1.183.455 2.028 1.079 2.028 2.274 0 1.521-1.287 2.483-2.951 2.483-1.092 0-2.119-.364-2.848-.78l.222-1.092c.818.481 1.833.871 2.665.871 1.081.003 1.847-.531 1.847-1.363zM170.813 33.985c-.507 0-.857-.391-.857-.846s.351-.818.857-.818c.481 0 .819.363.819.818s-.337.846-.819.846zm.781-4.005c-.507 0-.857-.39-.857-.845s.351-.819.857-.819c.481 0 .819.364.819.819s-.338.845-.819.845zM71.04 35.648v-.26h102.919v.26H71.04z"/><path fill="#002C3C" d="M56.279 75.508c0-.605.194-1.087.582-1.445s.913-.537 1.577-.537c.475 0 .871.146 1.187.439s.474.654.474 1.084c0 .41-.133.771-.4 1.084.462.234 1.042.352 1.738.352.619 0 1.104-.12 1.455-.361s.527-.579.527-1.016c0-.169-.021-.317-.063-.444s-.122-.241-.239-.342-.231-.184-.342-.249-.285-.134-.522-.205-.443-.127-.615-.166l-.776-.176c-.41-.091-.783-.192-1.118-.303s-.693-.269-1.074-.474-.7-.437-.957-.693-.47-.588-.64-.991-.254-.85-.254-1.338c0-1.094.361-1.995 1.084-2.705s1.703-1.152 2.939-1.328v-1.465H62.9v1.416c1.27.085 2.22.364 2.852.84s.947 1.097.947 1.865c0 .566-.165 1.018-.493 1.353s-.773.503-1.333.503c-.456 0-.838-.14-1.147-.42s-.464-.625-.464-1.035c0-.364.111-.677.332-.938a4.093 4.093 0 0 0-1.553-.322c-.56 0-1.011.117-1.353.352s-.513.544-.513.928c0 .293.096.529.288.708s.399.301.62.366a17.55 17.55 0 0 0 1.245.288l.068.015.083.02c.423.078.82.174 1.191.288s.758.276 1.162.488.749.451 1.035.718.522.605.708 1.016.278.862.278 1.357c0 1.179-.343 2.131-1.03 2.856s-1.662 1.187-2.925 1.382v1.758H60.84v-1.699c-1.51-.065-2.647-.342-3.413-.83-.765-.49-1.148-1.154-1.148-1.994zM68.353 68.01v-2.941h.757c.504 0 .923-.051 1.257-.152.333-.102.618-.281.854-.537.236-.257.427-.55.574-.879.146-.33.301-.775.464-1.337h3.748V75.47c0 .301.041.505.122.61.081.105.208.159.378.159h1.807v2.551h-9.705v-2.551h2.026c.179 0 .307-.051.385-.153.077-.102.116-.307.116-.616v-7.703c-.521.163-1.14.244-1.855.244h-.928zM79.462 75.067c0-.904.249-1.613.746-2.131.497-.517 1.165-.775 2.005-.775.719 0 1.287.195 1.703.586.417.391.625.904.625 1.539 0 .756-.295 1.334-.885 1.732.455.18 1.06.27 1.816.27.882 0 1.521-.246 1.917-.739.396-.492.594-1.239.594-2.239v-.367c0-1.766-.751-2.648-2.254-2.648-.69 0-1.217.122-1.578.366-.362.244-.62.586-.774 1.025h-3.345l1.042-9.497H92.95c-.14.61-.315 1.127-.528 1.551-.213.423-.46.771-.743 1.043a2.904 2.904 0 0 1-1.062.635 6.264 6.264 0 0 1-1.369.312 15.88 15.88 0 0 1-1.799.085h-3.623l-.376 2.906c.896-.92 2.174-1.38 3.835-1.38 1.806 0 3.221.48 4.243 1.44 1.022.96 1.534 2.315 1.534 4.064 0 2.002-.627 3.553-1.882 4.651s-3.047 1.647-5.376 1.647c-1.984 0-3.537-.354-4.658-1.062-1.124-.707-1.684-1.712-1.684-3.014zM100.544 69.084v-2.27a.963.963 0 0 1 .14-.019c.048-.004.093-.011.134-.019a1.075 1.075 0 0 1 .22-.025l.033-.013c.553-.13 1.003-.337 1.35-.622s.574-.704.683-1.257l.313-1.941h3.354v3.613h1.929v2.551h-2.002v5.701c0 .569.1.967.3 1.19s.517.335.948.335c.254 0 .562-.057.925-.17v2.648a8.996 8.996 0 0 1-2.486.354c-1.653 0-2.826-.335-3.519-1.007-.693-.671-1.039-1.796-1.039-3.375v-5.677h-1.283zM110.091 69.084v-2.551h3.027c1.204 0 2.238-.098 3.101-.293v2.502c.48-1.7 1.546-2.551 3.198-2.551.984 0 1.76.34 2.325 1.02.566.68.849 1.589.849 2.729 0 .984-.25 1.76-.751 2.325-.5.565-1.174.849-2.02.849-.578 0-1.072-.182-1.483-.544a1.735 1.735 0 0 1-.617-1.36c0-.766.325-1.372.977-1.819a1.232 1.232 0 0 0-.623-.146c-.619 0-1.072.271-1.361.812-.289.542-.454 1.378-.494 2.509v2.905c0 .317.039.525.116.623.077.098.205.146.384.146h.757v2.551h-7.275V76.24h.647c.179 0 .307-.049.385-.146.077-.098.116-.306.116-.623v-5.48c0-.351-.035-.588-.104-.715-.069-.126-.201-.189-.396-.189h-.758zM123.923 78.79v-2.551h.507c.136 0 .229-.056.281-.165.053-.11.079-.312.079-.604v-5.383c0-.375-.029-.635-.088-.781s-.168-.221-.327-.221h-.452v-2.551h2.918c1.221 0 2.262-.098 3.125-.293v9.229c0 .293.025.494.077.604.051.109.144.165.276.165h.464v2.551h-6.86zm1.461-13.612c-.5-.423-.749-.977-.749-1.66s.249-1.238.749-1.666c.498-.427 1.156-.641 1.975-.641.817 0 1.474.214 1.968.641.495.428.742.982.742 1.666s-.247 1.237-.742 1.66c-.494.424-1.15.635-1.968.635-.819 0-1.477-.211-1.975-.635zM131.931 64.739v-2.551h3.027c1.221 0 2.263-.098 3.125-.293v13.574c0 .317.037.525.112.623s.2.146.375.146h.562v2.551h-7.068v-2.551h.672c.171 0 .293-.049.366-.146s.11-.306.11-.623v-9.826c0-.351-.033-.588-.1-.715-.066-.126-.195-.189-.386-.189h-.795zM140.306 64.739v-2.551h3.027c1.221 0 2.263-.098 3.125-.293v13.574c0 .317.037.525.112.623s.2.146.375.146h.562v2.551h-7.068v-2.551h.672c.171 0 .293-.049.366-.146s.11-.306.11-.623v-9.826c0-.351-.033-.588-.1-.715-.066-.126-.195-.189-.386-.189h-.795zM149.096 78.79v-2.551h.507c.136 0 .229-.056.281-.165.053-.11.079-.312.079-.604v-5.383c0-.375-.029-.635-.088-.781s-.168-.221-.327-.221h-.452v-2.551h2.918c1.221 0 2.262-.098 3.125-.293v9.229c0 .293.025.494.077.604.051.109.144.165.276.165h.464v2.551h-6.86zm1.461-13.612c-.5-.423-.749-.977-.749-1.66s.249-1.238.749-1.666c.498-.427 1.156-.641 1.975-.641.817 0 1.474.214 1.968.641.495.428.742.982.742 1.666s-.247 1.237-.742 1.66c-.494.424-1.15.635-1.968.635-.819 0-1.477-.211-1.975-.635zM157.188 72.674c0-1.94.636-3.506 1.906-4.696s2.944-1.786 5.021-1.786c2.037 0 3.677.593 4.919 1.779 1.241 1.187 1.862 2.754 1.862 4.703 0 1.933-.631 3.494-1.894 4.685-1.262 1.189-2.932 1.784-5.01 1.784-2.054 0-3.701-.591-4.942-1.772-1.24-1.182-1.862-2.747-1.862-4.697zm4.872.239c0 1.373.15 2.33.453 2.87.302.54.812.81 1.53.81.719 0 1.229-.272 1.53-.816.303-.544.453-1.499.453-2.863v-.465c0-1.381-.15-2.344-.453-2.889-.302-.544-.812-.816-1.53-.816-.71 0-1.218.274-1.524.823-.306.548-.459 1.509-.459 2.882v.464zM172.082 78.79v-2.551h.647c.179 0 .307-.049.385-.146.077-.098.116-.306.116-.623v-5.48c0-.351-.037-.588-.11-.715-.073-.126-.203-.189-.391-.189h-.647v-2.551h2.869c1.221 0 2.246-.098 3.076-.293v2.1c.732-1.433 2.075-2.148 4.028-2.148 2.678 0 4.017 1.632 4.017 4.895v4.383c0 .317.038.525.115.623s.206.146.385.146h.659v2.551h-7.056v-2.551h.525c.179 0 .307-.049.384-.146s.116-.306.116-.623v-4.309c0-.709-.108-1.209-.323-1.502-.216-.293-.576-.439-1.081-.439-.569 0-.994.214-1.275.641-.28.428-.421 1.113-.421 2.057v3.553c0 .317.038.525.116.623.077.098.205.146.385.146h.524v2.551h-7.043zM25.837 100.79h-.672v-9.38h-3.538v-.624h7.747v.624h-3.538v9.38zM36.029 100.95c-2.641 0-4.786-2.145-4.786-5.154 0-3.121 2.049-5.17 4.818-5.17 2.641 0 4.786 2.129 4.786 5.138 0 3.105-2.049 5.186-4.818 5.186zm-.016-9.733c-2.369 0-4.082 1.873-4.082 4.546 0 2.674 1.792 4.594 4.146 4.594 2.369 0 4.082-1.889 4.082-4.562 0-2.689-1.793-4.578-4.146-4.578zM51.662 100.805h-.864l-3.585-9.188-.224 9.172h-.688l.336-10.004h.944l3.666 9.46 3.633-9.46h.928l.304 10.004h-.672l-.224-9.155-3.554 9.171zM66.143 100.79l-1.168-3.121h-4.722l-1.168 3.121h-.672l3.825-10.004h.833l3.761 10.004h-.689zm-5.651-3.73h4.242l-2.097-5.683-2.145 5.683zM75.054 90.786h.896l-5.266 4.978 5.362 5.026h-.896l-5.122-4.818h-.016v4.818h-.672V90.786h.672v4.834h.016l5.026-4.834zM78.539 90.786h5.73v.608h-5.058v4.098h4.226v.592h-4.226v4.098h5.058v.608h-5.73V90.786zM96.878 96.068h-6.243v4.722h-.672V90.786h.672v4.689h6.243v-4.689h.672v10.004h-.672v-4.722zM100.971 90.786h5.73v.608h-5.058v4.098h4.226v.592h-4.226v4.098h5.058v.608h-5.73V90.786zM116.429 100.79l-1.168-3.121h-4.722l-1.168 3.121h-.672l3.825-10.004h.833l3.761 10.004h-.689zm-5.65-3.73h4.242l-2.097-5.683-2.145 5.683zM119.626 90.786h.672v9.38h5.058v.624h-5.73V90.786zM129.868 100.79h-.673v-9.38h-3.537v-.624h7.747v.624h-3.537v9.38zM142.878 96.068h-6.243v4.722h-.672V90.786h.672v4.689h6.243v-4.689h.672v10.004h-.672v-4.722zM153.836 91.234c-2.177 0-3.922 1.616-3.922 4.578 0 2.816 1.568 4.529 3.953 4.529 1.089 0 2.081-.32 2.77-.816l.16.624c-.688.448-1.729.801-2.945.801-2.865 0-4.626-1.985-4.626-5.138 0-3.153 1.953-5.187 4.642-5.187 1.297 0 2.354.416 2.993.8l-.208.577c-.705-.448-1.745-.768-2.817-.768zM166.509 100.79l-1.168-3.121h-4.722l-1.169 3.121h-.672l3.825-10.004h.832l3.762 10.004h-.688zm-5.65-3.73h4.241l-2.097-5.683-2.144 5.683zM169.706 100.79V90.786h2.369c2.497 0 3.585 1.12 3.585 2.833 0 1.505-1.168 2.401-2.4 2.737l2.849 4.434h-.752l-2.705-4.306-2.273.144v4.162h-.673zm5.267-7.156c0-1.424-.977-2.24-2.978-2.24h-1.617v4.626l1.938-.064c1.344-.048 2.657-.913 2.657-2.322zM178.714 90.786h5.73v.608h-5.059v4.098h4.227v.592h-4.227v4.098h5.059v.608h-5.73V90.786zM195.724 90.786v.624h-4.914v4.226h4.082v.608h-4.082v4.546h-.672V90.786h5.586zM198.346 100.79V90.786h2.369c2.497 0 3.585 1.12 3.585 2.833 0 1.505-1.168 2.401-2.4 2.737l2.849 4.434h-.752l-2.705-4.306-2.273.144v4.162h-.673zm5.266-7.156c0-1.424-.977-2.24-2.978-2.24h-1.617v4.626l1.938-.064c1.345-.048 2.657-.913 2.657-2.322zM207.354 90.786h5.73v.608h-5.059v4.098h4.227v.592h-4.227v4.098h5.059v.608h-5.73V90.786zM215.993 90.786h5.73v.608h-5.059v4.098h4.227v.592h-4.227v4.098h5.059v.608h-5.73V90.786zM52.336 140.508c0-.605.194-1.087.582-1.445s.913-.537 1.577-.537c.475 0 .871.146 1.187.439s.474.654.474 1.084c0 .41-.133.771-.4 1.084.462.234 1.042.352 1.738.352.619 0 1.104-.12 1.455-.361s.527-.579.527-1.016c0-.169-.021-.317-.063-.444s-.122-.241-.239-.342-.231-.184-.342-.249-.285-.134-.522-.205-.443-.127-.615-.166l-.776-.176c-.41-.091-.783-.192-1.118-.303s-.693-.269-1.074-.474-.7-.437-.957-.693-.47-.588-.64-.991-.254-.85-.254-1.338c0-1.094.361-1.995 1.084-2.705s1.703-1.152 2.939-1.328v-1.465h2.061v1.416c1.27.085 2.22.364 2.852.84s.947 1.097.947 1.865c0 .566-.165 1.018-.493 1.353s-.773.503-1.333.503c-.456 0-.838-.14-1.147-.42s-.464-.625-.464-1.035c0-.364.111-.677.332-.938a4.093 4.093 0 0 0-1.553-.322c-.56 0-1.011.117-1.353.352s-.513.544-.513.928c0 .293.096.529.288.708s.399.301.62.366a17.55 17.55 0 0 0 1.245.288l.068.015.083.02c.423.078.82.174 1.191.288s.758.276 1.162.488.749.451 1.035.718.522.605.708 1.016.278.862.278 1.357c0 1.179-.343 2.131-1.03 2.856s-1.662 1.187-2.925 1.382v1.758h-2.061v-1.699c-1.51-.065-2.647-.342-3.413-.83-.765-.49-1.148-1.154-1.148-1.994zM64.41 133.01v-2.941h.757c.504 0 .923-.051 1.257-.152.333-.102.618-.281.854-.537.236-.257.427-.55.574-.879.146-.33.301-.775.464-1.337h3.748v13.306c0 .301.041.505.122.61.081.105.208.159.378.159h1.807v2.551h-9.705v-2.551h2.026c.179 0 .307-.051.385-.153.077-.102.116-.307.116-.616v-7.703c-.521.163-1.14.244-1.855.244h-.928zM75.763 141.519c0-.781.25-1.414.751-1.898.5-.483 1.166-.726 1.995-.726.821 0 1.484.244 1.989.732.505.488.758 1.118.758 1.892 0 .789-.252 1.424-.758 1.904-.505.48-1.168.72-1.989.72-.829 0-1.495-.239-1.995-.72-.5-.48-.751-1.115-.751-1.904zM82.807 143.79l.073-1.6c.065-.895.275-1.709.629-2.441s.791-1.336 1.308-1.812a12.265 12.265 0 0 1 1.693-1.3 24.29 24.29 0 0 1 1.815-1.056 25.081 25.081 0 0 0 1.634-.928c.491-.306.888-.655 1.192-1.05s.456-.832.456-1.312c0-.838-.221-1.481-.663-1.929-.442-.447-1.084-.672-1.928-.672-.773 0-1.417.2-1.929.599.416.179.742.452.979.817.236.367.355.786.355 1.258 0 .676-.239 1.245-.716 1.709s-1.091.695-1.841.695c-.864 0-1.57-.27-2.116-.812-.547-.541-.82-1.279-.82-2.216 0-1.497.613-2.689 1.839-3.576s2.951-1.33 5.174-1.33c2.252 0 3.971.474 5.159 1.422 1.187.948 1.781 2.309 1.781 4.083 0 .806-.147 1.514-.441 2.124s-.69 1.104-1.188 1.483a8.879 8.879 0 0 1-1.66.988c-.608.281-1.251.531-1.929.751s-1.319.438-1.925.653-1.177.484-1.713.806-.947.686-1.231 1.092h5.24c.495 0 .828-.064.997-.195.169-.13.265-.406.286-.83l.108-1.123h3.052v5.701h-13.67zM104.488 134.084v-2.27a.963.963 0 0 1 .14-.019c.048-.004.093-.011.134-.019a1.075 1.075 0 0 1 .22-.025l.033-.013c.553-.13 1.003-.337 1.35-.622s.574-.704.683-1.257l.313-1.941h3.354v3.613h1.929v2.551h-2.002v5.701c0 .569.1.967.3 1.19s.517.335.948.335c.254 0 .562-.057.925-.17v2.648a8.996 8.996 0 0 1-2.486.354c-1.653 0-2.826-.335-3.519-1.007-.693-.671-1.039-1.796-1.039-3.375v-5.677h-1.283zM114.035 134.084v-2.551h3.027c1.204 0 2.238-.098 3.101-.293v2.502c.48-1.7 1.546-2.551 3.199-2.551.984 0 1.76.34 2.324 1.02.566.68.85 1.589.85 2.729 0 .984-.25 1.76-.752 2.325-.5.565-1.174.849-2.02.849-.578 0-1.072-.182-1.482-.544a1.732 1.732 0 0 1-.617-1.36c0-.766.325-1.372.977-1.819a1.235 1.235 0 0 0-.623-.146c-.618 0-1.072.271-1.361.812-.289.542-.454 1.378-.494 2.509v2.905c0 .317.039.525.116.623.077.098.205.146.384.146h.757v2.551h-7.275v-2.551h.647c.179 0 .307-.049.385-.146.077-.098.116-.306.116-.623v-5.48c0-.351-.035-.588-.104-.715-.069-.126-.201-.189-.396-.189h-.759zM127.866 143.79v-2.551h.507c.136 0 .229-.056.281-.165.053-.11.079-.312.079-.604v-5.383c0-.375-.029-.635-.088-.781s-.168-.221-.327-.221h-.452v-2.551h2.918c1.221 0 2.262-.098 3.125-.293v9.229c0 .293.025.494.077.604.051.109.144.165.276.165h.464v2.551h-6.86zm1.461-13.612c-.5-.423-.749-.977-.749-1.66s.249-1.238.749-1.666c.498-.427 1.156-.641 1.975-.641.817 0 1.474.214 1.968.641.495.428.742.982.742 1.666s-.247 1.237-.742 1.66c-.494.424-1.15.635-1.968.635-.819 0-1.477-.211-1.975-.635zM135.874 129.739v-2.551h3.027c1.221 0 2.263-.098 3.125-.293v13.574c0 .317.037.525.112.623s.2.146.375.146h.562v2.551h-7.068v-2.551h.672c.171 0 .293-.049.366-.146s.11-.306.11-.623v-9.826c0-.351-.033-.588-.1-.715-.066-.126-.195-.189-.386-.189h-.795zM144.249 129.739v-2.551h3.027c1.221 0 2.263-.098 3.125-.293v13.574c0 .317.037.525.112.623s.2.146.375.146h.562v2.551h-7.068v-2.551h.672c.171 0 .293-.049.366-.146s.11-.306.11-.623v-9.826c0-.351-.033-.588-.1-.715-.066-.126-.195-.189-.386-.189h-.795zM153.039 143.79v-2.551h.507c.136 0 .229-.056.281-.165.053-.11.079-.312.079-.604v-5.383c0-.375-.029-.635-.088-.781s-.168-.221-.327-.221h-.452v-2.551h2.918c1.221 0 2.262-.098 3.125-.293v9.229c0 .293.025.494.077.604.051.109.144.165.276.165h.464v2.551h-6.86zm1.461-13.612c-.5-.423-.749-.977-.749-1.66s.249-1.238.749-1.666c.498-.427 1.156-.641 1.975-.641.817 0 1.474.214 1.968.641.495.428.742.982.742 1.666s-.247 1.237-.742 1.66c-.494.424-1.15.635-1.968.635-.819 0-1.477-.211-1.975-.635zM161.133 137.674c0-1.94.636-3.506 1.906-4.696s2.944-1.786 5.021-1.786c2.037 0 3.677.593 4.919 1.779 1.241 1.187 1.862 2.754 1.862 4.703 0 1.933-.631 3.494-1.894 4.685-1.262 1.189-2.932 1.784-5.01 1.784-2.054 0-3.701-.591-4.942-1.772-1.241-1.182-1.862-2.747-1.862-4.697zm4.871.239c0 1.373.15 2.33.453 2.87.302.54.812.81 1.53.81.719 0 1.229-.272 1.53-.816.303-.544.453-1.499.453-2.863v-.465c0-1.381-.15-2.344-.453-2.889-.302-.544-.812-.816-1.53-.816-.71 0-1.218.274-1.524.823-.306.548-.459 1.509-.459 2.882v.464zM176.025 143.79v-2.551h.647c.179 0 .307-.049.385-.146.077-.098.116-.306.116-.623v-5.48c0-.351-.037-.588-.11-.715-.073-.126-.203-.189-.391-.189h-.647v-2.551h2.869c1.221 0 2.246-.098 3.076-.293v2.1c.732-1.433 2.075-2.148 4.028-2.148 2.678 0 4.017 1.632 4.017 4.895v4.383c0 .317.038.525.115.623s.206.146.385.146h.659v2.551h-7.056v-2.551h.525c.179 0 .307-.049.384-.146s.116-.306.116-.623v-4.309c0-.709-.108-1.209-.323-1.502-.216-.293-.576-.439-1.081-.439-.569 0-.994.214-1.275.641-.28.428-.421 1.113-.421 2.057v3.553c0 .317.038.525.116.623.077.098.205.146.385.146h.524v2.551h-7.043zM22.484 165.79h-.672v-9.38h-3.538v-.624h7.747v.624h-3.538v9.38zM32.677 165.95c-2.641 0-4.786-2.145-4.786-5.154 0-3.121 2.049-5.17 4.818-5.17 2.641 0 4.786 2.129 4.786 5.138 0 3.105-2.049 5.186-4.818 5.186zm-.016-9.733c-2.369 0-4.082 1.873-4.082 4.546 0 2.674 1.792 4.594 4.146 4.594 2.369 0 4.082-1.889 4.082-4.562-.001-2.689-1.793-4.578-4.146-4.578zM43.171 155.786h5.73v.608h-5.058v4.098h4.226v.592h-4.226v4.098h5.058v.608h-5.73v-10.004zM50.723 165.79l3.762-5.154-3.49-4.85h.769l3.137 4.434 3.137-4.434h.768l-3.521 4.834 3.761 5.17h-.784l-3.394-4.754-3.361 4.754h-.784zM63.459 162.044l-1.393.016v3.729h-.672v-10.004h2.241c2.545 0 3.826 1.168 3.826 3.009 0 2.129-1.521 3.202-4.002 3.25zm.176-5.65h-1.568v5.058l1.393-.016c2.097-.048 3.297-.769 3.297-2.625 0-1.52-1.137-2.417-3.122-2.417zM76.534 165.79l-1.168-3.121h-4.722l-1.168 3.121h-.672l3.825-10.004h.833l3.761 10.004h-.689zm-5.651-3.73h4.242l-2.097-5.683-2.145 5.683zM87.206 155.786v10.1h-.736l-6.099-9.171v9.075h-.64v-10.004h.784l6.051 9.092v-9.092h.64zM92.947 165.79h-2.321v-10.004h2.417c3.233 0 5.298 2.017 5.298 4.93.001 3.248-2.016 5.074-5.394 5.074zm.032-9.396h-1.681v8.787h1.681c2.737 0 4.674-1.376 4.674-4.401 0-2.642-1.744-4.386-4.674-4.386zM108.932 163.277c0-1.361-1.184-1.857-2.673-2.369-1.376-.464-2.801-1.072-2.801-2.689 0-1.473 1.312-2.593 3.042-2.593 1.152 0 2.113.336 2.865.832l-.256.593c-.752-.513-1.697-.833-2.609-.833-1.585 0-2.401.929-2.401 1.953 0 1.217 1.12 1.696 2.609 2.209 1.409.464 2.849 1.104 2.849 2.833 0 1.553-1.329 2.737-3.233 2.737-1.216 0-2.225-.336-3.057-.896l.256-.576c.752.512 1.729.88 2.833.88 1.552-.001 2.576-.977 2.576-2.081zM116.58 165.95c-2.641 0-4.786-2.145-4.786-5.154 0-3.121 2.049-5.17 4.818-5.17 2.641 0 4.786 2.129 4.786 5.138 0 3.105-2.049 5.186-4.818 5.186zm-.016-9.733c-2.369 0-4.082 1.873-4.082 4.546 0 2.674 1.792 4.594 4.146 4.594 2.369 0 4.082-1.889 4.082-4.562-.001-2.689-1.793-4.578-4.146-4.578zM128.372 156.234c-2.177 0-3.922 1.616-3.922 4.578 0 2.816 1.568 4.529 3.953 4.529 1.089 0 2.081-.32 2.77-.816l.16.624c-.688.448-1.729.801-2.945.801-2.865 0-4.626-1.985-4.626-5.138 0-3.153 1.953-5.187 4.642-5.187 1.297 0 2.354.416 2.993.8l-.208.577c-.705-.448-1.745-.768-2.817-.768zM134.242 155.786h.673v10.004h-.673v-10.004zM145.173 165.79l-1.168-3.121h-4.722l-1.169 3.121h-.672l3.825-10.004h.832l3.762 10.004h-.688zm-5.65-3.73h4.241l-2.097-5.683-2.144 5.683zM148.37 155.786h.672v9.38h5.059v.624h-5.73v-10.004zM164.276 163.277c0-1.361-1.185-1.857-2.673-2.369-1.377-.464-2.802-1.072-2.802-2.689 0-1.473 1.312-2.593 3.041-2.593 1.152 0 2.113.336 2.865.832l-.256.593c-.752-.513-1.696-.833-2.609-.833-1.584 0-2.4.929-2.4 1.953 0 1.217 1.12 1.696 2.608 2.209 1.409.464 2.85 1.104 2.85 2.833 0 1.553-1.328 2.737-3.233 2.737-1.217 0-2.225-.336-3.058-.896l.257-.576c.752.512 1.729.88 2.833.88 1.553-.001 2.577-.977 2.577-2.081zM167.666 155.786h5.73v.608h-5.059v4.098h4.227v.592h-4.227v4.098h5.059v.608h-5.73v-10.004zM180.308 156.234c-2.177 0-3.922 1.616-3.922 4.578 0 2.816 1.568 4.529 3.953 4.529 1.089 0 2.081-.32 2.77-.816l.16.624c-.688.448-1.729.801-2.945.801-2.865 0-4.626-1.985-4.626-5.138 0-3.153 1.953-5.187 4.642-5.187 1.297 0 2.354.416 2.993.8l-.208.577c-.705-.448-1.745-.768-2.817-.768zM189.523 165.95c-2.321 0-3.602-1.408-3.602-3.777v-6.387h.656v6.339c0 2 .992 3.232 2.961 3.232 2.001 0 2.962-1.232 2.962-3.361v-6.21h.656v6.227c.001 2.384-1.263 3.937-3.633 3.937zM196.338 165.79v-10.004h2.369c2.497 0 3.585 1.12 3.585 2.833 0 1.505-1.168 2.401-2.4 2.737l2.849 4.434h-.752l-2.705-4.306-2.273.144v4.162h-.673zm5.266-7.156c0-1.424-.977-2.24-2.978-2.24h-1.617v4.626l1.938-.064c1.345-.048 2.657-.913 2.657-2.322zM205.361 155.786h.673v10.004h-.673v-10.004zM212.819 165.79h-.673v-9.38h-3.537v-.624h7.747v.624h-3.537v9.38zM222.162 165.79h-.672v-4.05l-3.506-5.954h.753l3.105 5.298 3.073-5.298h.736l-3.49 5.938v4.066zM63.641 205.508c0-.605.194-1.087.582-1.445s.913-.537 1.577-.537c.475 0 .871.146 1.187.439s.474.654.474 1.084c0 .41-.133.771-.4 1.084.462.234 1.042.352 1.738.352.619 0 1.104-.12 1.455-.361s.527-.579.527-1.016c0-.169-.021-.317-.063-.444s-.122-.241-.239-.342-.231-.184-.342-.249-.285-.134-.522-.205-.443-.127-.615-.166l-.776-.176c-.41-.091-.783-.192-1.118-.303s-.693-.269-1.074-.474-.7-.437-.957-.693-.47-.588-.64-.991-.254-.85-.254-1.338c0-1.094.361-1.995 1.084-2.705s1.703-1.152 2.939-1.328v-1.465h2.061v1.416c1.27.085 2.22.364 2.852.84s.947 1.097.947 1.865c0 .566-.165 1.018-.493 1.353s-.773.503-1.333.503c-.456 0-.838-.14-1.147-.42s-.464-.625-.464-1.035c0-.364.111-.677.332-.938a4.093 4.093 0 0 0-1.553-.322c-.56 0-1.011.117-1.353.352s-.513.544-.513.928c0 .293.096.529.288.708s.399.301.62.366a17.55 17.55 0 0 0 1.245.288l.068.015.083.02c.423.078.82.174 1.191.288s.758.276 1.162.488.749.451 1.035.718.522.605.708 1.016.278.862.278 1.357c0 1.179-.343 2.131-1.03 2.856s-1.662 1.187-2.925 1.382v1.758h-2.061v-1.699c-1.51-.065-2.647-.342-3.413-.83-.766-.49-1.148-1.154-1.148-1.994zM75.714 198.01v-2.941h.757c.504 0 .923-.051 1.257-.152.333-.102.618-.281.854-.537.236-.257.427-.55.574-.879.146-.33.301-.775.464-1.337h3.748v13.306c0 .301.041.505.122.61.081.105.208.159.378.159h1.807v2.551H75.97v-2.551h2.026c.179 0 .307-.051.385-.153.077-.102.116-.307.116-.616v-7.703c-.521.163-1.14.244-1.855.244h-.928zM93.184 199.084v-2.27a.963.963 0 0 1 .14-.019c.048-.004.093-.011.134-.019a1.075 1.075 0 0 1 .22-.025l.033-.013c.553-.13 1.003-.337 1.35-.622s.574-.704.683-1.257l.313-1.941h3.354v3.613h1.929v2.551h-2.002v5.701c0 .569.1.967.3 1.19s.517.335.948.335c.254 0 .562-.057.925-.17v2.648a8.996 8.996 0 0 1-2.486.354c-1.653 0-2.826-.335-3.519-1.007-.693-.671-1.039-1.796-1.039-3.375v-5.677h-1.283zM102.73 199.084v-2.551h3.027c1.204 0 2.238-.098 3.101-.293v2.502c.48-1.7 1.546-2.551 3.198-2.551.984 0 1.76.34 2.325 1.02.566.68.849 1.589.849 2.729 0 .984-.25 1.76-.751 2.325-.5.565-1.174.849-2.02.849-.578 0-1.072-.182-1.483-.544a1.735 1.735 0 0 1-.617-1.36c0-.766.325-1.372.977-1.819a1.232 1.232 0 0 0-.623-.146c-.619 0-1.072.271-1.361.812-.289.542-.454 1.378-.494 2.509v2.905c0 .317.039.525.116.623.077.098.205.146.384.146h.757v2.551h-7.275v-2.551h.647c.179 0 .307-.049.385-.146.077-.098.116-.306.116-.623v-5.48c0-.351-.035-.588-.104-.715-.069-.126-.201-.189-.396-.189h-.758zM116.562 208.79v-2.551h.507c.135 0 .229-.056.281-.165.052-.11.079-.312.079-.604v-5.383c0-.375-.029-.635-.087-.781a.326.326 0 0 0-.328-.221h-.452v-2.551h2.917c1.221 0 2.262-.098 3.125-.293v9.229c0 .293.025.494.077.604.051.109.144.165.276.165h.464v2.551h-6.859zm1.46-13.612c-.499-.423-.749-.977-.749-1.66s.25-1.238.749-1.666c.499-.427 1.157-.641 1.975-.641s1.474.214 1.968.641c.495.428.742.982.742 1.666s-.247 1.237-.742 1.66c-.495.424-1.151.635-1.968.635s-1.476-.211-1.975-.635zM124.57 194.739v-2.551h3.027c1.221 0 2.263-.098 3.125-.293v13.574c0 .317.037.525.112.623s.2.146.375.146h.562v2.551h-7.068v-2.551h.672c.171 0 .293-.049.366-.146s.11-.306.11-.623v-9.826c0-.351-.033-.588-.1-.715-.066-.126-.195-.189-.386-.189h-.795zM132.944 194.739v-2.551h3.027c1.221 0 2.263-.098 3.125-.293v13.574c0 .317.037.525.112.623s.2.146.375.146h.562v2.551h-7.068v-2.551h.672c.171 0 .293-.049.366-.146s.11-.306.11-.623v-9.826c0-.351-.033-.588-.1-.715-.066-.126-.195-.189-.386-.189h-.795zM141.734 208.79v-2.551h.507c.136 0 .229-.056.281-.165.053-.11.079-.312.079-.604v-5.383c0-.375-.029-.635-.088-.781s-.168-.221-.327-.221h-.452v-2.551h2.918c1.221 0 2.262-.098 3.125-.293v9.229c0 .293.025.494.077.604.051.109.144.165.276.165h.464v2.551h-6.86zm1.461-13.612c-.5-.423-.749-.977-.749-1.66s.249-1.238.749-1.666c.498-.427 1.156-.641 1.975-.641.817 0 1.474.214 1.968.641.495.428.742.982.742 1.666s-.247 1.237-.742 1.66c-.494.424-1.15.635-1.968.635-.818 0-1.477-.211-1.975-.635zM149.828 202.674c0-1.94.636-3.506 1.906-4.696s2.944-1.786 5.021-1.786c2.037 0 3.677.593 4.919 1.779 1.241 1.187 1.862 2.754 1.862 4.703 0 1.933-.631 3.494-1.894 4.685-1.262 1.189-2.932 1.784-5.01 1.784-2.054 0-3.701-.591-4.942-1.772-1.241-1.182-1.862-2.747-1.862-4.697zm4.871.239c0 1.373.15 2.33.453 2.87.302.54.812.81 1.53.81.719 0 1.229-.272 1.53-.816.303-.544.453-1.499.453-2.863v-.465c0-1.381-.15-2.344-.453-2.889-.302-.544-.812-.816-1.53-.816-.71 0-1.218.274-1.524.823-.306.548-.459 1.509-.459 2.882v.464zM164.721 208.79v-2.551h.647c.179 0 .307-.049.385-.146.077-.098.116-.306.116-.623v-5.48c0-.351-.037-.588-.11-.715-.073-.126-.203-.189-.391-.189h-.647v-2.551h2.869c1.221 0 2.246-.098 3.076-.293v2.1c.732-1.433 2.075-2.148 4.028-2.148 2.678 0 4.017 1.632 4.017 4.895v4.383c0 .317.038.525.115.623s.206.146.385.146h.659v2.551h-7.056v-2.551h.525c.179 0 .307-.049.384-.146s.116-.306.116-.623v-4.309c0-.709-.108-1.209-.323-1.502-.216-.293-.576-.439-1.081-.439-.569 0-.994.214-1.275.641-.28.428-.421 1.113-.421 2.057v3.553c0 .317.038.525.116.623.077.098.205.146.385.146h.524v2.551h-7.043zM19.037 230.79h-.672v-9.38h-3.538v-.624h7.747v.624h-3.538v9.38zM29.229 230.95c-2.641 0-4.786-2.145-4.786-5.154 0-3.121 2.049-5.17 4.818-5.17 2.641 0 4.786 2.129 4.786 5.138 0 3.105-2.049 5.186-4.818 5.186zm-.016-9.733c-2.369 0-4.082 1.873-4.082 4.546 0 2.674 1.792 4.594 4.146 4.594 2.369 0 4.082-1.889 4.082-4.562-.001-2.689-1.793-4.578-4.146-4.578zM39.723 230.79v-10.004h2.369c2.497 0 3.585 1.12 3.585 2.833 0 1.505-1.168 2.401-2.401 2.737l2.85 4.434h-.752l-2.705-4.306-2.273.144v4.162h-.673zm5.266-7.156c0-1.424-.977-2.24-2.977-2.24h-1.617v4.626l1.937-.064c1.345-.048 2.657-.913 2.657-2.322zM48.731 220.786h5.73v.608h-5.058v4.098h4.226v.592h-4.226v4.098h5.058v.608h-5.73v-10.004zM63.918 228.052c0 1.568-.993 2.737-3.474 2.737h-3.073v-10.004h2.913c2.385 0 3.313 1.072 3.313 2.561 0 .929-.592 2.113-2.129 2.369 1.617.208 2.45 1.121 2.45 2.337zm-3.666-6.658h-2.209v4.081h2.113c1.584 0 2.769-.688 2.769-2.08 0-1.217-.768-2.001-2.673-2.001zm-.096 4.689h-2.113v4.098h2.417c2.049 0 2.785-.912 2.785-2.145.001-1.168-.912-1.953-3.089-1.953zM70.076 230.95c-2.321 0-3.602-1.408-3.602-3.777v-6.387h.656v6.339c0 2 .993 3.232 2.961 3.232 2.001 0 2.961-1.232 2.961-3.361v-6.21h.656v6.227c.001 2.384-1.263 3.937-3.632 3.937zM76.907 220.786h.672v10.004h-.672v-10.004zM81.019 220.786h.672v9.38h5.058v.624h-5.73v-10.004zM91.516 230.79h-2.321v-10.004h2.417c3.233 0 5.298 2.017 5.298 4.93 0 3.248-2.017 5.074-5.394 5.074zm.032-9.396h-1.681v8.787h1.681c2.737 0 4.674-1.376 4.674-4.401 0-2.642-1.745-4.386-4.674-4.386zM102.57 220.786h.672v10.004h-.672v-10.004zM114.157 220.786v10.1h-.736l-6.099-9.171v9.075h-.64v-10.004h.784l6.051 9.092v-9.092h.64zM123.164 220.786v.624h-4.914v4.226h4.082v.608h-4.082v4.546h-.672v-10.004h5.586zM125.786 230.79v-10.004h2.369c2.497 0 3.585 1.12 3.585 2.833 0 1.505-1.168 2.401-2.4 2.737l2.849 4.434h-.752l-2.705-4.306-2.273.144v4.162h-.673zm5.267-7.156c0-1.424-.977-2.24-2.978-2.24h-1.617v4.626l1.938-.064c1.344-.048 2.657-.913 2.657-2.322zM141.612 230.79l-1.168-3.121h-4.722l-1.169 3.121h-.672l3.825-10.004h.832l3.762 10.004h-.688zm-5.649-3.73h4.241l-2.097-5.683-2.144 5.683zM149.756 228.277c0-1.361-1.185-1.857-2.674-2.369-1.376-.464-2.801-1.072-2.801-2.689 0-1.473 1.312-2.593 3.041-2.593 1.152 0 2.113.336 2.865.832l-.256.593c-.752-.513-1.696-.833-2.609-.833-1.584 0-2.4.929-2.4 1.953 0 1.217 1.12 1.696 2.608 2.209 1.409.464 2.85 1.104 2.85 2.833 0 1.553-1.328 2.737-3.233 2.737-1.217 0-2.225-.336-3.058-.896l.257-.576c.752.512 1.729.88 2.833.88 1.552-.001 2.577-.977 2.577-2.081zM156.331 230.79h-.673v-9.38h-3.537v-.624h7.747v.624h-3.537v9.38zM162.426 230.79v-10.004h2.369c2.497 0 3.585 1.12 3.585 2.833 0 1.505-1.168 2.401-2.4 2.737l2.849 4.434h-.752l-2.705-4.306-2.273.144v4.162h-.673zm5.266-7.156c0-1.424-.977-2.24-2.978-2.24h-1.617v4.626l1.938-.064c1.345-.048 2.657-.913 2.657-2.322zM174.795 230.95c-2.321 0-3.602-1.408-3.602-3.777v-6.387h.656v6.339c0 2 .992 3.232 2.961 3.232 2.001 0 2.962-1.232 2.962-3.361v-6.21h.656v6.227c.001 2.384-1.264 3.937-3.633 3.937zM185.691 221.234c-2.177 0-3.922 1.616-3.922 4.578 0 2.816 1.568 4.529 3.953 4.529 1.089 0 2.081-.32 2.77-.816l.16.624c-.688.448-1.729.801-2.945.801-2.865 0-4.626-1.985-4.626-5.138 0-3.153 1.953-5.187 4.642-5.187 1.297 0 2.354.416 2.993.8l-.208.577c-.704-.448-1.744-.768-2.817-.768zM194.731 230.79h-.673v-9.38h-3.537v-.624h7.747v.624h-3.537v9.38zM204.187 230.95c-2.321 0-3.602-1.408-3.602-3.777v-6.387h.656v6.339c0 2 .992 3.232 2.961 3.232 2.001 0 2.962-1.232 2.962-3.361v-6.21h.656v6.227c0 2.384-1.264 3.937-3.633 3.937zM211.001 230.79v-10.004h2.369c2.497 0 3.585 1.12 3.585 2.833 0 1.505-1.168 2.401-2.4 2.737l2.849 4.434h-.752l-2.705-4.306-2.273.144v4.162h-.673zm5.267-7.156c0-1.424-.977-2.24-2.978-2.24h-1.617v4.626l1.938-.064c1.344-.048 2.657-.913 2.657-2.322zM220.009 220.786h5.73v.608h-5.059v4.098h4.227v.592h-4.227v4.098h5.059v.608h-5.73v-10.004zM49.572 270.508c0-.605.194-1.087.582-1.445s.913-.537 1.577-.537c.475 0 .871.146 1.187.439s.474.654.474 1.084c0 .41-.133.771-.4 1.084.462.234 1.042.352 1.738.352.619 0 1.104-.12 1.455-.361s.527-.579.527-1.016c0-.169-.021-.317-.063-.444s-.122-.241-.239-.342-.231-.184-.342-.249-.285-.134-.522-.205-.443-.127-.615-.166l-.776-.176c-.41-.091-.783-.192-1.118-.303s-.693-.269-1.074-.474-.7-.437-.957-.693-.47-.588-.64-.991-.254-.85-.254-1.338c0-1.094.361-1.995 1.084-2.705s1.703-1.152 2.939-1.328v-1.465h2.061v1.416c1.27.085 2.22.364 2.852.84s.947 1.097.947 1.865c0 .566-.165 1.018-.493 1.353s-.773.503-1.333.503c-.456 0-.838-.14-1.147-.42s-.464-.625-.464-1.035c0-.364.111-.677.332-.938a4.093 4.093 0 0 0-1.553-.322c-.56 0-1.011.117-1.353.352s-.513.544-.513.928c0 .293.096.529.288.708s.399.301.62.366a17.55 17.55 0 0 0 1.245.288l.068.015.083.02c.423.078.82.174 1.191.288s.758.276 1.162.488.749.451 1.035.718.522.605.708 1.016.278.862.278 1.357c0 1.179-.343 2.131-1.03 2.856s-1.662 1.187-2.925 1.382v1.758h-2.061v-1.699c-1.51-.065-2.647-.342-3.413-.83-.766-.49-1.148-1.154-1.148-1.994zM61.376 263.719v-6.531h3.357c.724 0 1.394.065 2.008.195s1.149.312 1.605.543c.456.232.848.458 1.178.678s.675.466 1.038.738c.362.273.653.471.873.592l-.22-2.746h3.772l-.073 1.33a12.26 12.26 0 0 1-1.245 4.682c-.317.631-.767 1.354-1.349 2.167s-1.149 1.561-1.703 2.24c-.554.68-1.296 1.609-2.228 2.789s-1.792 2.312-2.582 3.394H63.28l.214-1.001c.252-1.392.586-2.62 1.003-3.687s.941-2.019 1.572-2.856a12.69 12.69 0 0 1 2.1-2.203c.769-.631 1.694-1.264 2.777-1.898-.545.098-1.152.146-1.819.146-1.872 0-3.438-.492-4.7-1.478v2.906h-3.051zM75.953 270.067c0-.904.249-1.613.746-2.131.497-.517 1.165-.775 2.005-.775.719 0 1.287.195 1.703.586.417.391.625.904.625 1.539 0 .756-.295 1.334-.885 1.732.455.18 1.06.27 1.816.27.882 0 1.521-.246 1.917-.739.396-.492.594-1.239.594-2.239v-.367c0-1.766-.751-2.648-2.254-2.648-.69 0-1.217.122-1.578.366-.362.244-.62.586-.774 1.025h-3.345l1.042-9.497H89.44c-.14.61-.315 1.127-.528 1.551-.213.423-.46.771-.743 1.043a2.904 2.904 0 0 1-1.062.635 6.264 6.264 0 0 1-1.369.312 15.88 15.88 0 0 1-1.799.085h-3.623l-.376 2.906c.896-.92 2.174-1.38 3.835-1.38 1.806 0 3.221.48 4.243 1.44 1.022.96 1.534 2.315 1.534 4.064 0 2.002-.627 3.553-1.882 4.651s-3.047 1.647-5.376 1.647c-1.984 0-3.537-.354-4.658-1.062-1.123-.707-1.683-1.712-1.683-3.014zM90.919 265.489c0-2.775.671-4.911 2.014-6.408 1.343-1.498 3.263-2.246 5.762-2.246 2.465 0 4.366.748 5.7 2.246 1.335 1.497 2.002 3.633 2.002 6.408 0 2.783-.672 4.922-2.018 6.415s-3.264 2.239-5.756 2.239c-2.492 0-4.399-.744-5.721-2.233-1.322-1.49-1.983-3.63-1.983-6.421zm5.176 1.476c0 1.555.193 2.664.58 3.327.387.663 1.044.995 1.972.995.919 0 1.579-.336 1.978-1.008.398-.671.598-1.775.598-3.314v-2.953c0-1.539-.197-2.639-.592-3.303-.395-.663-1.048-.994-1.959-.994-.928 0-1.589.331-1.983.994-.395.664-.592 1.764-.592 3.303v2.953zM114.004 259.739v-2.551h3.003c1.253 0 2.295-.098 3.125-.293v6.543c.7-1.497 1.981-2.246 3.846-2.246 1.578 0 2.827.588 3.747 1.764.92 1.177 1.38 2.745 1.38 4.706 0 1.953-.487 3.521-1.459 4.706-.973 1.184-2.269 1.775-3.889 1.775-2.197 0-3.629-.968-4.296-2.904l-.354 2.551H115.2c.041-.325.061-1.709.061-4.15v-8.996c0-.351-.037-.588-.11-.715-.073-.126-.204-.189-.391-.189h-.756zm6.128 8.154c0 2.214.651 3.32 1.953 3.32 1.294 0 1.941-1.106 1.941-3.32v-.451c0-2.222-.647-3.332-1.941-3.332-1.302 0-1.953 1.11-1.953 3.332v.451zM130.631 273.79v-2.551h.507c.136 0 .229-.056.281-.165.053-.11.079-.312.079-.604v-5.383c0-.375-.029-.635-.088-.781s-.168-.221-.327-.221h-.452v-2.551h2.918c1.221 0 2.262-.098 3.125-.293v9.229c0 .293.025.494.077.604.051.109.144.165.276.165h.464v2.551h-6.86zm1.461-13.612c-.5-.423-.749-.977-.749-1.66s.249-1.238.749-1.666c.498-.427 1.156-.641 1.975-.641.817 0 1.474.214 1.968.641.495.428.742.982.742 1.666s-.247 1.237-.742 1.66c-.494.424-1.15.635-1.968.635-.819 0-1.477-.211-1.975-.635zM138.639 259.739v-2.551h3.027c1.221 0 2.263-.098 3.125-.293v13.574c0 .317.037.525.112.623s.2.146.375.146h.562v2.551h-7.068v-2.551h.672c.171 0 .293-.049.366-.146s.11-.306.11-.623v-9.826c0-.351-.033-.588-.1-.715-.066-.126-.195-.189-.386-.189h-.795zM147.014 259.739v-2.551h3.027c1.221 0 2.263-.098 3.125-.293v13.574c0 .317.037.525.112.623s.2.146.375.146h.562v2.551h-7.068v-2.551h.672c.171 0 .293-.049.366-.146s.11-.306.11-.623v-9.826c0-.351-.033-.588-.1-.715-.066-.126-.195-.189-.386-.189h-.795zM155.804 273.79v-2.551h.507c.136 0 .229-.056.281-.165.053-.11.079-.312.079-.604v-5.383c0-.375-.029-.635-.088-.781s-.168-.221-.327-.221h-.452v-2.551h2.918c1.221 0 2.262-.098 3.125-.293v9.229c0 .293.025.494.077.604.051.109.144.165.276.165h.464v2.551h-6.86zm1.461-13.612c-.5-.423-.749-.977-.749-1.66s.249-1.238.749-1.666c.498-.427 1.156-.641 1.975-.641.817 0 1.474.214 1.968.641.495.428.742.982.742 1.666s-.247 1.237-.742 1.66c-.494.424-1.15.635-1.968.635-.819 0-1.477-.211-1.975-.635zM163.896 267.674c0-1.94.636-3.506 1.906-4.696s2.944-1.786 5.021-1.786c2.037 0 3.677.593 4.919 1.779 1.241 1.187 1.862 2.754 1.862 4.703 0 1.933-.631 3.494-1.894 4.685-1.262 1.189-2.932 1.784-5.01 1.784-2.054 0-3.701-.591-4.942-1.772-1.24-1.182-1.862-2.747-1.862-4.697zm4.872.239c0 1.373.15 2.33.453 2.87.302.54.812.81 1.53.81.719 0 1.229-.272 1.53-.816.303-.544.453-1.499.453-2.863v-.465c0-1.381-.15-2.344-.453-2.889-.302-.544-.812-.816-1.53-.816-.71 0-1.218.274-1.524.823-.306.548-.459 1.509-.459 2.882v.464zM178.79 273.79v-2.551h.647c.179 0 .307-.049.385-.146.077-.098.116-.306.116-.623v-5.48c0-.351-.037-.588-.11-.715-.073-.126-.203-.189-.391-.189h-.647v-2.551h2.869c1.221 0 2.246-.098 3.076-.293v2.1c.732-1.433 2.075-2.148 4.028-2.148 2.678 0 4.017 1.632 4.017 4.895v4.383c0 .317.038.525.115.623s.206.146.385.146h.659v2.551h-7.056v-2.551h.525c.179 0 .307-.049.384-.146s.116-.306.116-.623v-4.309c0-.709-.108-1.209-.323-1.502-.216-.293-.576-.439-1.081-.439-.569 0-.994.214-1.275.641-.28.428-.421 1.113-.421 2.057v3.553c0 .317.038.525.116.623.077.098.205.146.385.146h.524v2.551h-7.043zM10.765 295.79h-.672v-9.38H6.555v-.624h7.747v.624h-3.538v9.38zM20.957 295.95c-2.641 0-4.786-2.145-4.786-5.154 0-3.121 2.049-5.17 4.818-5.17 2.641 0 4.786 2.129 4.786 5.138 0 3.105-2.049 5.186-4.818 5.186zm-.016-9.733c-2.369 0-4.082 1.873-4.082 4.546 0 2.674 1.792 4.594 4.146 4.594 2.369 0 4.082-1.889 4.082-4.562-.001-2.689-1.793-4.578-4.146-4.578zM36.589 295.805h-.864l-3.585-9.188-.224 9.172h-.688l.336-10.004h.944l3.666 9.46 3.633-9.46h.928l.304 10.004h-.672l-.224-9.155-3.554 9.171zM51.07 295.79l-1.168-3.121H45.18l-1.168 3.121h-.672l3.825-10.004h.833l3.761 10.004h-.689zm-5.65-3.73h4.242l-2.097-5.683-2.145 5.683zM59.981 285.786h.896l-5.266 4.978 5.362 5.026h-.896l-5.122-4.818h-.016v4.818h-.672v-10.004h.672v4.834h.016l5.026-4.834zM63.467 285.786h5.73v.608h-5.058v4.098h4.226v.592h-4.226v4.098h5.058v.608h-5.73v-10.004zM76.956 292.044l-1.393.016v3.729h-.672v-10.004h2.241c2.545 0 3.826 1.168 3.826 3.009-.001 2.129-1.521 3.202-4.002 3.25zm.175-5.65h-1.568v5.058l1.393-.016c2.097-.048 3.297-.769 3.297-2.625 0-1.52-1.137-2.417-3.122-2.417zM87.052 295.95c-2.321 0-3.602-1.408-3.602-3.777v-6.387h.656v6.339c0 2 .993 3.232 2.961 3.232 2.001 0 2.961-1.232 2.961-3.361v-6.21h.656v6.227c.002 2.384-1.263 3.937-3.632 3.937zM100.414 293.052c0 1.568-.993 2.737-3.474 2.737h-3.073v-10.004h2.913c2.385 0 3.313 1.072 3.313 2.561 0 .929-.592 2.113-2.129 2.369 1.617.208 2.45 1.121 2.45 2.337zm-3.666-6.658h-2.209v4.081h2.113c1.584 0 2.769-.688 2.769-2.08 0-1.217-.768-2.001-2.673-2.001zm-.096 4.689h-2.113v4.098h2.417c2.049 0 2.785-.912 2.785-2.145 0-1.168-.912-1.953-3.089-1.953zM103.21 285.786h.672v9.38h5.058v.624h-5.73v-10.004zM111.403 285.786h.672v10.004h-.672v-10.004zM119.596 286.234c-2.177 0-3.921 1.616-3.921 4.578 0 2.816 1.568 4.529 3.954 4.529 1.088 0 2.081-.32 2.769-.816l.16.624c-.688.448-1.729.801-2.945.801-2.865 0-4.626-1.985-4.626-5.138 0-3.153 1.953-5.187 4.642-5.187 1.296 0 2.353.416 2.993.8l-.208.577c-.705-.448-1.745-.768-2.818-.768zM132.316 286.234c-2.177 0-3.922 1.616-3.922 4.578 0 2.816 1.568 4.529 3.953 4.529 1.089 0 2.081-.32 2.77-.816l.16.624c-.688.448-1.729.801-2.945.801-2.865 0-4.626-1.985-4.626-5.138 0-3.153 1.953-5.187 4.642-5.187 1.297 0 2.354.416 2.993.8l-.208.577c-.704-.448-1.744-.768-2.817-.768zM142.269 295.95c-2.642 0-4.786-2.145-4.786-5.154 0-3.121 2.049-5.17 4.818-5.17 2.641 0 4.786 2.129 4.786 5.138 0 3.105-2.049 5.186-4.818 5.186zm-.016-9.733c-2.369 0-4.082 1.873-4.082 4.546 0 2.674 1.793 4.594 4.146 4.594 2.369 0 4.082-1.889 4.082-4.562-.001-2.689-1.794-4.578-4.146-4.578zM149.979 285.786h.672v9.38h5.059v.624h-5.73v-10.004zM158.154 285.786h.672v9.38h5.059v.624h-5.73v-10.004zM166.33 285.786h5.73v.608h-5.059v4.098h4.227v.592h-4.227v4.098h5.059v.608h-5.73v-10.004zM178.988 295.95c-2.865 0-4.626-1.985-4.626-5.138 0-3.153 1.953-5.187 4.642-5.187 1.297 0 2.354.416 2.993.8l-.208.577c-.704-.448-1.744-.769-2.816-.769-2.177 0-3.922 1.616-3.922 4.578 0 2.816 1.568 4.529 3.953 4.529 1.041 0 1.938-.288 2.625-.721v-3.073h-2.993v-.592h3.649v3.985c-.912.658-2.08 1.011-3.297 1.011zM185.45 285.786h5.73v.608h-5.059v4.098h4.227v.592h-4.227v4.098h5.059v.608h-5.73v-10.004zM199.036 293.277c0-1.361-1.185-1.857-2.673-2.369-1.377-.464-2.802-1.072-2.802-2.689 0-1.473 1.312-2.593 3.041-2.593 1.152 0 2.113.336 2.865.832l-.256.593c-.752-.513-1.696-.833-2.609-.833-1.584 0-2.4.929-2.4 1.953 0 1.217 1.12 1.696 2.608 2.209 1.409.464 2.85 1.104 2.85 2.833 0 1.553-1.328 2.737-3.233 2.737-1.217 0-2.225-.336-3.058-.896l.257-.576c.752.512 1.729.88 2.833.88 1.553-.001 2.577-.977 2.577-2.081zM210.796 285.786v.624h-4.914v4.226h4.082v.608h-4.082v4.546h-.672v-10.004h5.586zM213.418 295.79v-10.004h2.369c2.497 0 3.585 1.12 3.585 2.833 0 1.505-1.168 2.401-2.4 2.737l2.849 4.434h-.752l-2.705-4.306-2.273.144v4.162h-.673zm5.267-7.156c0-1.424-.977-2.24-2.978-2.24h-1.617v4.626l1.938-.064c1.344-.048 2.657-.913 2.657-2.322zM222.426 285.786h5.73v.608h-5.059v4.098h4.227v.592h-4.227v4.098h5.059v.608h-5.73v-10.004zM231.065 285.786h5.73v.608h-5.059v4.098h4.227v.592h-4.227v4.098h5.059v.608h-5.73v-10.004zM51.458 335.508c0-.605.194-1.087.582-1.445s.913-.537 1.577-.537c.475 0 .871.146 1.187.439s.474.654.474 1.084c0 .41-.133.771-.4 1.084.462.234 1.042.352 1.738.352.619 0 1.104-.12 1.455-.361s.527-.579.527-1.016c0-.169-.021-.317-.063-.444s-.122-.241-.239-.342-.231-.184-.342-.249-.285-.134-.522-.205-.443-.127-.615-.166l-.776-.176c-.41-.091-.783-.192-1.118-.303s-.693-.269-1.074-.474-.7-.437-.957-.693-.47-.588-.64-.991-.254-.85-.254-1.338c0-1.094.361-1.995 1.084-2.705s1.703-1.152 2.939-1.328v-1.465h2.061v1.416c1.27.085 2.22.364 2.852.84s.947 1.097.947 1.865c0 .566-.165 1.018-.493 1.353s-.773.503-1.333.503c-.456 0-.838-.14-1.147-.42s-.464-.625-.464-1.035c0-.364.111-.677.332-.938a4.093 4.093 0 0 0-1.553-.322c-.56 0-1.011.117-1.353.352s-.513.544-.513.928c0 .293.096.529.288.708s.399.301.62.366a17.55 17.55 0 0 0 1.245.288l.068.015.083.02c.423.078.82.174 1.191.288s.758.276 1.162.488.749.451 1.035.718.522.605.708 1.016.278.862.278 1.357c0 1.179-.343 2.131-1.03 2.856s-1.662 1.187-2.925 1.382v1.758h-2.061v-1.699c-1.51-.065-2.647-.342-3.413-.83-.766-.49-1.148-1.154-1.148-1.994zM63.03 335.018c0-.879.258-1.575.775-2.088.517-.513 1.178-.77 1.983-.77.651 0 1.204.213 1.66.637.456.425.684.951.684 1.579 0 .365-.082.711-.244 1.038a2.223 2.223 0 0 1-.647.796c.529.255 1.167.382 1.917.382.813 0 1.451-.203 1.91-.609.46-.405.69-.989.69-1.751v-.203c0-1.505-.867-2.259-2.6-2.259a6.442 6.442 0 0 0-1.069.086c-.15.024-.242.037-.274.037v-3.174c.464.113.952.17 1.465.17.708 0 1.277-.185 1.709-.555.431-.37.647-.845.647-1.422v-.195c0-.7-.216-1.229-.647-1.588-.432-.357-1.025-.537-1.782-.537-.716 0-1.363.143-1.941.426.562.447.842 1.028.842 1.741 0 .619-.216 1.136-.647 1.548-.432.413-.973.619-1.624.619-.773 0-1.4-.224-1.88-.672-.48-.447-.72-1.09-.72-1.928 0-1.344.604-2.393 1.813-3.15 1.208-.756 2.838-1.135 4.889-1.135 4.598 0 6.897 1.416 6.897 4.248 0 .847-.292 1.577-.877 2.191s-1.425 1.043-2.521 1.287c2.396.624 3.593 2.095 3.593 4.413 0 1.591-.661 2.814-1.983 3.674s-3.143 1.288-5.463 1.288c-2.043 0-3.646-.344-4.81-1.031-1.163-.687-1.745-1.718-1.745-3.093zM78.681 328.01v-2.941h.757c.504 0 .923-.051 1.257-.152.333-.102.618-.281.854-.537.236-.257.427-.55.574-.879.146-.33.301-.775.464-1.337h3.748v13.306c0 .301.041.505.122.61.081.105.208.159.378.159h1.807v2.551h-9.705v-2.551h2.026c.179 0 .307-.051.385-.153.077-.102.116-.307.116-.616v-7.703c-.521.163-1.14.244-1.855.244h-.928zM89.936 327.717c0-1.814.622-3.248 1.867-4.303 1.244-1.054 2.969-1.58 5.174-1.58 2.511 0 4.413.744 5.706 2.233s1.939 3.621 1.939 6.396-.698 4.919-2.093 6.433-3.421 2.271-6.08 2.271c-4.057 0-6.085-1.16-6.085-3.479 0-.854.237-1.501.71-1.94.474-.439 1.147-.66 2.021-.66.718 0 1.288.206 1.711.617s.635.945.635 1.605c0 .325-.072.609-.215.854.448.082.864.123 1.247.123 1.146 0 1.945-.326 2.395-.977.45-.651.675-1.791.675-3.418 0-.334-.008-.603-.024-.807-.295.578-.77 1.032-1.425 1.361-.655.33-1.461.494-2.419.494-1.836 0-3.251-.461-4.247-1.385-.994-.922-1.492-2.201-1.492-3.838zm4.871 0c0 .732.197 1.311.591 1.734.394.423.949.635 1.665.635.737 0 1.306-.21 1.708-.629s.602-.999.602-1.74v-.684c0-.748-.197-1.33-.59-1.745s-.95-.622-1.671-.622c-.731 0-1.298.211-1.701.635-.402.423-.604 1-.604 1.732v.684zM112.118 324.739v-2.551h3.003c1.253 0 2.295-.098 3.125-.293v6.543c.7-1.497 1.981-2.246 3.846-2.246 1.578 0 2.826.588 3.746 1.764.92 1.177 1.381 2.745 1.381 4.706 0 1.953-.488 3.521-1.459 4.706-.973 1.184-2.27 1.775-3.889 1.775-2.197 0-3.63-.968-4.297-2.904l-.354 2.551h-3.906c.041-.325.061-1.709.061-4.15v-8.996c0-.351-.037-.588-.11-.715-.073-.126-.204-.189-.391-.189h-.756zm6.128 8.154c0 2.214.651 3.32 1.953 3.32 1.294 0 1.942-1.106 1.942-3.32v-.451c0-2.222-.648-3.332-1.942-3.332-1.302 0-1.953 1.11-1.953 3.332v.451zM128.744 338.79v-2.551h.507c.136 0 .229-.056.281-.165.053-.11.079-.312.079-.604v-5.383c0-.375-.029-.635-.088-.781s-.168-.221-.327-.221h-.452v-2.551h2.918c1.221 0 2.262-.098 3.125-.293v9.229c0 .293.025.494.077.604.051.109.144.165.276.165h.464v2.551h-6.86zm1.461-13.612c-.5-.423-.749-.977-.749-1.66s.249-1.238.749-1.666c.498-.427 1.156-.641 1.975-.641.817 0 1.474.214 1.968.641.495.428.742.982.742 1.666s-.247 1.237-.742 1.66c-.494.424-1.15.635-1.968.635-.819 0-1.477-.211-1.975-.635zM136.753 324.739v-2.551h3.027c1.221 0 2.263-.098 3.125-.293v13.574c0 .317.037.525.112.623s.2.146.375.146h.562v2.551h-7.068v-2.551h.672c.171 0 .293-.049.366-.146s.11-.306.11-.623v-9.826c0-.351-.033-.588-.1-.715-.066-.126-.195-.189-.386-.189h-.795zM145.127 324.739v-2.551h3.027c1.221 0 2.263-.098 3.125-.293v13.574c0 .317.037.525.112.623s.2.146.375.146h.562v2.551h-7.068v-2.551h.672c.171 0 .293-.049.366-.146s.11-.306.11-.623v-9.826c0-.351-.033-.588-.1-.715-.066-.126-.195-.189-.386-.189h-.795zM153.917 338.79v-2.551h.507c.136 0 .229-.056.281-.165.053-.11.079-.312.079-.604v-5.383c0-.375-.029-.635-.088-.781s-.168-.221-.327-.221h-.452v-2.551h2.918c1.221 0 2.262-.098 3.125-.293v9.229c0 .293.025.494.077.604.051.109.144.165.276.165h.464v2.551h-6.86zm1.461-13.612c-.5-.423-.749-.977-.749-1.66s.249-1.238.749-1.666c.498-.427 1.156-.641 1.975-.641.817 0 1.474.214 1.968.641.495.428.742.982.742 1.666s-.247 1.237-.742 1.66c-.494.424-1.15.635-1.968.635-.819 0-1.477-.211-1.975-.635zM162.011 332.674c0-1.94.636-3.506 1.906-4.696s2.944-1.786 5.021-1.786c2.037 0 3.677.593 4.919 1.779 1.241 1.187 1.862 2.754 1.862 4.703 0 1.933-.631 3.494-1.894 4.685-1.262 1.189-2.932 1.784-5.01 1.784-2.054 0-3.701-.591-4.942-1.772-1.241-1.182-1.862-2.747-1.862-4.697zm4.871.239c0 1.373.15 2.33.453 2.87.302.54.812.81 1.53.81.719 0 1.229-.272 1.53-.816.303-.544.453-1.499.453-2.863v-.465c0-1.381-.15-2.344-.453-2.889-.302-.544-.812-.816-1.53-.816-.71 0-1.218.274-1.524.823-.306.548-.459 1.509-.459 2.882v.464zM176.904 338.79v-2.551h.647c.179 0 .307-.049.385-.146.077-.098.116-.306.116-.623v-5.48c0-.351-.037-.588-.11-.715-.073-.126-.203-.189-.391-.189h-.647v-2.551h2.869c1.221 0 2.246-.098 3.076-.293v2.1c.732-1.433 2.075-2.148 4.028-2.148 2.678 0 4.017 1.632 4.017 4.895v4.383c0 .317.038.525.115.623s.206.146.385.146h.659v2.551h-7.056v-2.551h.525c.179 0 .307-.049.384-.146s.116-.306.116-.623v-4.309c0-.709-.108-1.209-.323-1.502-.216-.293-.576-.439-1.081-.439-.569 0-.994.214-1.275.641-.28.428-.421 1.113-.421 2.057v3.553c0 .317.038.525.116.623.077.098.205.146.385.146h.524v2.551h-7.043zM10.765 360.79h-.672v-9.38H6.555v-.624h7.747v.624h-3.538v9.38zM20.957 360.95c-2.641 0-4.786-2.145-4.786-5.154 0-3.121 2.049-5.17 4.818-5.17 2.641 0 4.786 2.129 4.786 5.138 0 3.105-2.049 5.186-4.818 5.186zm-.016-9.733c-2.369 0-4.082 1.873-4.082 4.546 0 2.674 1.792 4.594 4.146 4.594 2.369 0 4.082-1.889 4.082-4.562-.001-2.689-1.793-4.578-4.146-4.578zM36.589 360.805h-.864l-3.585-9.188-.224 9.172h-.688l.336-10.004h.944l3.666 9.46 3.633-9.46h.928l.304 10.004h-.672l-.224-9.155-3.554 9.171zM51.07 360.79l-1.168-3.121H45.18l-1.168 3.121h-.672l3.825-10.004h.833l3.761 10.004h-.689zm-5.65-3.73h4.242l-2.097-5.683-2.145 5.683zM59.981 350.786h.896l-5.266 4.978 5.362 5.026h-.896l-5.122-4.818h-.016v4.818h-.672v-10.004h.672v4.834h.016l5.026-4.834zM63.467 350.786h5.73v.608h-5.058v4.098h4.226v.592h-4.226v4.098h5.058v.608h-5.73v-10.004zM76.956 357.044l-1.393.016v3.729h-.672v-10.004h2.241c2.545 0 3.826 1.168 3.826 3.009-.001 2.129-1.521 3.202-4.002 3.25zm.175-5.65h-1.568v5.058l1.393-.016c2.097-.048 3.297-.769 3.297-2.625 0-1.52-1.137-2.417-3.122-2.417zM87.052 360.95c-2.321 0-3.602-1.408-3.602-3.777v-6.387h.656v6.339c0 2 .993 3.232 2.961 3.232 2.001 0 2.961-1.232 2.961-3.361v-6.21h.656v6.227c.002 2.384-1.263 3.937-3.632 3.937zM100.414 358.052c0 1.568-.993 2.737-3.474 2.737h-3.073v-10.004h2.913c2.385 0 3.313 1.072 3.313 2.561 0 .929-.592 2.113-2.129 2.369 1.617.208 2.45 1.121 2.45 2.337zm-3.666-6.658h-2.209v4.081h2.113c1.584 0 2.769-.688 2.769-2.08 0-1.217-.768-2.001-2.673-2.001zm-.096 4.689h-2.113v4.098h2.417c2.049 0 2.785-.912 2.785-2.145 0-1.168-.912-1.953-3.089-1.953zM103.21 350.786h.672v9.38h5.058v.624h-5.73v-10.004zM111.403 350.786h.672v10.004h-.672v-10.004zM119.596 351.234c-2.177 0-3.921 1.616-3.921 4.578 0 2.816 1.568 4.529 3.954 4.529 1.088 0 2.081-.32 2.769-.816l.16.624c-.688.448-1.729.801-2.945.801-2.865 0-4.626-1.985-4.626-5.138 0-3.153 1.953-5.187 4.642-5.187 1.296 0 2.353.416 2.993.8l-.208.577c-.705-.448-1.745-.768-2.818-.768zM132.316 351.234c-2.177 0-3.922 1.616-3.922 4.578 0 2.816 1.568 4.529 3.953 4.529 1.089 0 2.081-.32 2.77-.816l.16.624c-.688.448-1.729.801-2.945.801-2.865 0-4.626-1.985-4.626-5.138 0-3.153 1.953-5.187 4.642-5.187 1.297 0 2.354.416 2.993.8l-.208.577c-.704-.448-1.744-.768-2.817-.768zM142.269 360.95c-2.642 0-4.786-2.145-4.786-5.154 0-3.121 2.049-5.17 4.818-5.17 2.641 0 4.786 2.129 4.786 5.138 0 3.105-2.049 5.186-4.818 5.186zm-.016-9.733c-2.369 0-4.082 1.873-4.082 4.546 0 2.674 1.793 4.594 4.146 4.594 2.369 0 4.082-1.889 4.082-4.562-.001-2.689-1.794-4.578-4.146-4.578zM149.979 350.786h.672v9.38h5.059v.624h-5.73v-10.004zM158.154 350.786h.672v9.38h5.059v.624h-5.73v-10.004zM166.33 350.786h5.73v.608h-5.059v4.098h4.227v.592h-4.227v4.098h5.059v.608h-5.73v-10.004zM178.988 360.95c-2.865 0-4.626-1.985-4.626-5.138 0-3.153 1.953-5.187 4.642-5.187 1.297 0 2.354.416 2.993.8l-.208.577c-.704-.448-1.744-.769-2.816-.769-2.177 0-3.922 1.616-3.922 4.578 0 2.816 1.568 4.529 3.953 4.529 1.041 0 1.938-.288 2.625-.721v-3.073h-2.993v-.592h3.649v3.985c-.912.658-2.08 1.011-3.297 1.011zM185.45 350.786h5.73v.608h-5.059v4.098h4.227v.592h-4.227v4.098h5.059v.608h-5.73v-10.004zM199.036 358.277c0-1.361-1.185-1.857-2.673-2.369-1.377-.464-2.802-1.072-2.802-2.689 0-1.473 1.312-2.593 3.041-2.593 1.152 0 2.113.336 2.865.832l-.256.593c-.752-.513-1.696-.833-2.609-.833-1.584 0-2.4.929-2.4 1.953 0 1.217 1.12 1.696 2.608 2.209 1.409.464 2.85 1.104 2.85 2.833 0 1.553-1.328 2.737-3.233 2.737-1.217 0-2.225-.336-3.058-.896l.257-.576c.752.512 1.729.88 2.833.88 1.553-.001 2.577-.977 2.577-2.081zM210.796 350.786v.624h-4.914v4.226h4.082v.608h-4.082v4.546h-.672v-10.004h5.586zM213.418 360.79v-10.004h2.369c2.497 0 3.585 1.12 3.585 2.833 0 1.505-1.168 2.401-2.4 2.737l2.849 4.434h-.752l-2.705-4.306-2.273.144v4.162h-.673zm5.267-7.156c0-1.424-.977-2.24-2.978-2.24h-1.617v4.626l1.938-.064c1.344-.048 2.657-.913 2.657-2.322zM222.426 350.786h5.73v.608h-5.059v4.098h4.227v.592h-4.227v4.098h5.059v.608h-5.73v-10.004zM231.065 350.786h5.73v.608h-5.059v4.098h4.227v.592h-4.227v4.098h5.059v.608h-5.73v-10.004zM57.024 400.508c0-.605.194-1.087.582-1.445s.913-.537 1.577-.537c.475 0 .871.146 1.187.439s.474.654.474 1.084c0 .41-.133.771-.4 1.084.462.234 1.042.352 1.738.352.619 0 1.104-.12 1.455-.361s.527-.579.527-1.016c0-.169-.021-.317-.063-.444s-.122-.241-.239-.342-.231-.184-.342-.249-.285-.134-.522-.205-.443-.127-.615-.166l-.776-.176c-.41-.091-.783-.192-1.118-.303s-.693-.269-1.074-.474-.7-.437-.957-.693-.47-.588-.64-.991-.254-.85-.254-1.338c0-1.094.361-1.995 1.084-2.705s1.703-1.152 2.939-1.328v-1.465h2.061v1.416c1.27.085 2.22.364 2.852.84s.947 1.097.947 1.865c0 .566-.165 1.018-.493 1.353s-.773.503-1.333.503c-.456 0-.838-.14-1.147-.42s-.464-.625-.464-1.035c0-.364.111-.677.332-.938a4.093 4.093 0 0 0-1.553-.322c-.56 0-1.011.117-1.353.352s-.513.544-.513.928c0 .293.096.529.288.708s.399.301.62.366a17.55 17.55 0 0 0 1.245.288l.068.015.083.02c.423.078.82.174 1.191.288s.758.276 1.162.488.749.451 1.035.718.522.605.708 1.016.278.862.278 1.357c0 1.179-.343 2.131-1.03 2.856s-1.662 1.187-2.925 1.382v1.758h-2.061v-1.699c-1.51-.065-2.647-.342-3.413-.83-.765-.49-1.148-1.154-1.148-1.994zM68.902 403.79l.073-1.6c.065-.895.275-1.709.629-2.441s.791-1.336 1.308-1.812a12.265 12.265 0 0 1 1.693-1.3 24.29 24.29 0 0 1 1.815-1.056 25.081 25.081 0 0 0 1.634-.928c.491-.306.888-.655 1.192-1.05s.456-.832.456-1.312c0-.838-.221-1.481-.663-1.929-.442-.447-1.084-.672-1.928-.672-.773 0-1.417.2-1.929.599.416.179.742.452.979.817.236.367.355.786.355 1.258 0 .676-.239 1.245-.716 1.709s-1.091.695-1.841.695c-.864 0-1.57-.27-2.116-.812-.547-.541-.82-1.279-.82-2.216 0-1.497.613-2.689 1.839-3.576s2.951-1.33 5.174-1.33c2.252 0 3.971.474 5.159 1.422 1.187.948 1.781 2.309 1.781 4.083 0 .806-.147 1.514-.441 2.124s-.69 1.104-1.188 1.483a8.879 8.879 0 0 1-1.66.988c-.608.281-1.251.531-1.929.751s-1.319.438-1.925.653-1.177.484-1.713.806-.947.686-1.231 1.092h5.24c.495 0 .828-.064.997-.195.169-.13.265-.406.286-.83l.108-1.123h3.052v5.701h-13.67zM84.37 392.717c0-1.814.622-3.248 1.867-4.303 1.244-1.054 2.969-1.58 5.174-1.58 2.511 0 4.413.744 5.706 2.233s1.939 3.621 1.939 6.396-.698 4.919-2.093 6.433-3.421 2.271-6.08 2.271c-4.057 0-6.085-1.16-6.085-3.479 0-.854.237-1.501.71-1.94.474-.439 1.147-.66 2.021-.66.718 0 1.288.206 1.711.617s.635.945.635 1.605c0 .325-.072.609-.215.854.448.082.864.123 1.247.123 1.146 0 1.945-.326 2.395-.977.45-.651.675-1.791.675-3.418 0-.334-.008-.603-.024-.807-.295.578-.77 1.032-1.425 1.361-.655.33-1.461.494-2.419.494-1.836 0-3.251-.461-4.247-1.385-.995-.922-1.492-2.201-1.492-3.838zm4.87 0c0 .732.197 1.311.591 1.734.394.423.949.635 1.665.635.737 0 1.306-.21 1.708-.629s.602-.999.602-1.74v-.684c0-.748-.197-1.33-.59-1.745s-.95-.622-1.671-.622c-.731 0-1.298.211-1.701.635-.402.423-.604 1-.604 1.732v.684zM106.551 389.739v-2.551h3.003c1.253 0 2.295-.098 3.125-.293v6.543c.7-1.497 1.981-2.246 3.845-2.246 1.579 0 2.828.588 3.748 1.764.919 1.177 1.379 2.745 1.379 4.706 0 1.953-.486 3.521-1.458 4.706-.973 1.184-2.269 1.775-3.888 1.775-2.197 0-3.63-.968-4.297-2.904l-.354 2.551h-3.906c.041-.325.061-1.709.061-4.15v-8.996c0-.351-.037-.588-.11-.715-.073-.126-.204-.189-.391-.189h-.757zm6.128 8.154c0 2.214.651 3.32 1.953 3.32 1.294 0 1.941-1.106 1.941-3.32v-.451c0-2.222-.647-3.332-1.941-3.332-1.302 0-1.953 1.11-1.953 3.332v.451zM123.178 403.79v-2.551h.507c.136 0 .229-.056.281-.165.053-.11.079-.312.079-.604v-5.383c0-.375-.029-.635-.088-.781s-.168-.221-.327-.221h-.452v-2.551h2.918c1.221 0 2.262-.098 3.125-.293v9.229c0 .293.025.494.077.604.051.109.144.165.276.165h.464v2.551h-6.86zm1.461-13.612c-.5-.423-.749-.977-.749-1.66s.249-1.238.749-1.666c.498-.427 1.156-.641 1.975-.641.817 0 1.474.214 1.968.641.495.428.742.982.742 1.666s-.247 1.237-.742 1.66c-.494.424-1.15.635-1.968.635-.819 0-1.477-.211-1.975-.635zM131.187 389.739v-2.551h3.027c1.221 0 2.263-.098 3.125-.293v13.574c0 .317.037.525.112.623s.2.146.375.146h.562v2.551h-7.068v-2.551h.672c.171 0 .293-.049.366-.146s.11-.306.11-.623v-9.826c0-.351-.033-.588-.1-.715-.066-.126-.195-.189-.386-.189h-.795zM139.561 389.739v-2.551h3.027c1.221 0 2.263-.098 3.125-.293v13.574c0 .317.037.525.112.623s.2.146.375.146h.562v2.551h-7.068v-2.551h.672c.171 0 .293-.049.366-.146s.11-.306.11-.623v-9.826c0-.351-.033-.588-.1-.715-.066-.126-.195-.189-.386-.189h-.795zM148.351 403.79v-2.551h.507c.136 0 .229-.056.281-.165.053-.11.079-.312.079-.604v-5.383c0-.375-.029-.635-.088-.781s-.168-.221-.327-.221h-.452v-2.551h2.918c1.221 0 2.262-.098 3.125-.293v9.229c0 .293.025.494.077.604.051.109.144.165.276.165h.464v2.551h-6.86zm1.461-13.612c-.5-.423-.749-.977-.749-1.66s.249-1.238.749-1.666c.498-.427 1.156-.641 1.975-.641.817 0 1.474.214 1.968.641.495.428.742.982.742 1.666s-.247 1.237-.742 1.66c-.494.424-1.15.635-1.968.635-.819 0-1.477-.211-1.975-.635zM156.444 397.674c0-1.94.636-3.506 1.906-4.696s2.944-1.786 5.021-1.786c2.037 0 3.677.593 4.919 1.779 1.241 1.187 1.862 2.754 1.862 4.703 0 1.933-.631 3.494-1.894 4.685-1.262 1.189-2.932 1.784-5.01 1.784-2.054 0-3.701-.591-4.942-1.772-1.241-1.182-1.862-2.747-1.862-4.697zm4.871.239c0 1.373.15 2.33.453 2.87.302.54.812.81 1.53.81.719 0 1.229-.272 1.53-.816.303-.544.453-1.499.453-2.863v-.465c0-1.381-.15-2.344-.453-2.889-.302-.544-.812-.816-1.53-.816-.71 0-1.218.274-1.524.823-.306.548-.459 1.509-.459 2.882v.464zM171.337 403.79v-2.551h.647c.179 0 .307-.049.385-.146.077-.098.116-.306.116-.623v-5.48c0-.351-.037-.588-.11-.715-.073-.126-.203-.189-.391-.189h-.647v-2.551h2.869c1.221 0 2.246-.098 3.076-.293v2.1c.732-1.433 2.075-2.148 4.028-2.148 2.678 0 4.017 1.632 4.017 4.895v4.383c0 .317.038.525.115.623s.206.146.385.146h.659v2.551h-7.056v-2.551h.525c.179 0 .307-.049.384-.146s.116-.306.116-.623v-4.309c0-.709-.108-1.209-.323-1.502-.216-.293-.576-.439-1.081-.439-.569 0-.994.214-1.275.641-.28.428-.421 1.113-.421 2.057v3.553c0 .317.038.525.116.623.077.098.205.146.385.146h.524v2.551h-7.043zM44.124 425.79h-.672v-9.38h-3.538v-.624h7.747v.624h-3.538v9.38zM54.316 425.95c-2.641 0-4.786-2.145-4.786-5.154 0-3.121 2.049-5.17 4.818-5.17 2.641 0 4.786 2.129 4.786 5.138 0 3.105-2.049 5.186-4.818 5.186zm-.016-9.733c-2.369 0-4.082 1.873-4.082 4.546 0 2.674 1.792 4.594 4.146 4.594 2.369 0 4.082-1.889 4.082-4.562 0-2.689-1.793-4.578-4.146-4.578zM66.875 422.044l-1.393.016v3.729h-.672v-10.004h2.241c2.545 0 3.826 1.168 3.826 3.009 0 2.129-1.521 3.202-4.002 3.25zm.176-5.65h-1.568v5.058l1.393-.016c2.097-.048 3.297-.769 3.297-2.625 0-1.52-1.137-2.417-3.122-2.417zM73.611 425.79v-10.004h2.369c2.497 0 3.585 1.12 3.585 2.833 0 1.505-1.168 2.401-2.401 2.737l2.85 4.434h-.752l-2.705-4.306-2.273.144v4.162h-.673zm5.266-7.156c0-1.424-.977-2.24-2.977-2.24h-1.617v4.626l1.937-.064c1.344-.048 2.657-.913 2.657-2.322zM86.796 425.95c-2.641 0-4.786-2.145-4.786-5.154 0-3.121 2.049-5.17 4.818-5.17 2.641 0 4.786 2.129 4.786 5.138 0 3.105-2.049 5.186-4.818 5.186zm-.016-9.733c-2.369 0-4.082 1.873-4.082 4.546 0 2.674 1.792 4.594 4.146 4.594 2.369 0 4.082-1.889 4.082-4.562 0-2.689-1.793-4.578-4.146-4.578zM97.692 425.79h-.672v-9.38h-3.538v-.624h7.747v.624h-3.538v9.38zM103.787 415.786h5.73v.608h-5.058v4.098h4.226v.592h-4.226v4.098h5.058v.608h-5.73v-10.004zM116.428 416.234c-2.177 0-3.921 1.616-3.921 4.578 0 2.816 1.568 4.529 3.954 4.529 1.088 0 2.081-.32 2.769-.816l.16.624c-.688.448-1.729.801-2.945.801-2.865 0-4.626-1.985-4.626-5.138 0-3.153 1.953-5.187 4.642-5.187 1.296 0 2.353.416 2.993.8l-.208.577c-.705-.448-1.745-.768-2.818-.768zM125.468 425.79h-.672v-9.38h-3.538v-.624h7.748v.624h-3.538v9.38zM136.411 422.044l-1.393.016v3.729h-.672v-10.004h2.241c2.545 0 3.825 1.168 3.825 3.009.001 2.129-1.519 3.202-4.001 3.25zm.177-5.65h-1.569v5.058l1.393-.016c2.098-.048 3.298-.769 3.298-2.625-.001-1.52-1.138-2.417-3.122-2.417zM143.146 415.786h5.73v.608h-5.059v4.098h4.227v.592h-4.227v4.098h5.059v.608h-5.73v-10.004zM159.261 415.786v10.1h-.736l-6.098-9.171v9.075h-.641v-10.004h.784l6.051 9.092v-9.092h.64zM167.629 423.277c0-1.361-1.185-1.857-2.674-2.369-1.376-.464-2.801-1.072-2.801-2.689 0-1.473 1.312-2.593 3.041-2.593 1.152 0 2.113.336 2.865.832l-.256.593c-.752-.513-1.696-.833-2.609-.833-1.584 0-2.4.929-2.4 1.953 0 1.217 1.12 1.696 2.608 2.209 1.409.464 2.85 1.104 2.85 2.833 0 1.553-1.328 2.737-3.233 2.737-1.217 0-2.225-.336-3.058-.896l.257-.576c.752.512 1.729.88 2.833.88 1.552-.001 2.577-.977 2.577-2.081zM171.033 415.786h.673v10.004h-.673v-10.004zM179.403 425.95c-2.642 0-4.786-2.145-4.786-5.154 0-3.121 2.049-5.17 4.818-5.17 2.641 0 4.786 2.129 4.786 5.138.001 3.105-2.048 5.186-4.818 5.186zm-.015-9.733c-2.369 0-4.082 1.873-4.082 4.546 0 2.674 1.793 4.594 4.146 4.594 2.369 0 4.082-1.889 4.082-4.562-.001-2.689-1.794-4.578-4.146-4.578zM194.589 415.786v10.1h-.736l-6.098-9.171v9.075h-.641v-10.004h.784l6.051 9.092v-9.092h.64zM202.956 423.277c0-1.361-1.185-1.857-2.673-2.369-1.377-.464-2.802-1.072-2.802-2.689 0-1.473 1.312-2.593 3.041-2.593 1.152 0 2.113.336 2.865.832l-.256.593c-.752-.513-1.696-.833-2.609-.833-1.584 0-2.4.929-2.4 1.953 0 1.217 1.12 1.696 2.608 2.209 1.409.464 2.85 1.104 2.85 2.833 0 1.553-1.328 2.737-3.233 2.737-1.217 0-2.225-.336-3.058-.896l.257-.576c.752.512 1.729.88 2.833.88 1.553-.001 2.577-.977 2.577-2.081zM54.607 465.508c0-.605.194-1.087.582-1.445s.913-.537 1.577-.537c.475 0 .871.146 1.187.439s.474.654.474 1.084c0 .41-.133.771-.4 1.084.462.234 1.042.352 1.738.352.619 0 1.104-.12 1.455-.361s.527-.579.527-1.016c0-.169-.021-.317-.063-.444s-.122-.241-.239-.342-.231-.184-.342-.249-.285-.134-.522-.205-.443-.127-.615-.166l-.776-.176c-.41-.091-.783-.192-1.118-.303s-.693-.269-1.074-.474-.7-.437-.957-.693-.47-.588-.64-.991-.254-.85-.254-1.338c0-1.094.361-1.995 1.084-2.705s1.703-1.152 2.939-1.328v-1.465h2.061v1.416c1.27.085 2.22.364 2.852.84s.947 1.097.947 1.865c0 .566-.165 1.018-.493 1.353s-.773.503-1.333.503c-.456 0-.838-.14-1.147-.42s-.464-.625-.464-1.035c0-.364.111-.677.332-.938a4.093 4.093 0 0 0-1.553-.322c-.56 0-1.011.117-1.353.352s-.513.544-.513.928c0 .293.096.529.288.708s.399.301.62.366a17.55 17.55 0 0 0 1.245.288l.068.015.083.02c.423.078.82.174 1.191.288s.758.276 1.162.488.749.451 1.035.718.522.605.708 1.016.278.862.278 1.357c0 1.179-.343 2.131-1.03 2.856s-1.662 1.187-2.925 1.382v1.758h-2.061v-1.699c-1.51-.065-2.647-.342-3.413-.83-.766-.49-1.148-1.154-1.148-1.994zM66.216 465.067c0-.904.249-1.613.746-2.131.497-.517 1.165-.775 2.005-.775.719 0 1.287.195 1.703.586.417.391.625.904.625 1.539 0 .756-.295 1.334-.885 1.732.455.18 1.06.27 1.816.27.882 0 1.521-.246 1.917-.739.396-.492.594-1.239.594-2.239v-.367c0-1.766-.751-2.648-2.254-2.648-.69 0-1.217.122-1.578.366-.362.244-.62.586-.774 1.025h-3.345l1.042-9.497h11.876c-.14.61-.315 1.127-.528 1.551-.213.423-.46.771-.743 1.043a2.904 2.904 0 0 1-1.062.635 6.264 6.264 0 0 1-1.369.312 15.88 15.88 0 0 1-1.799.085H70.58l-.376 2.906c.896-.92 2.174-1.38 3.835-1.38 1.806 0 3.221.48 4.243 1.44 1.022.96 1.534 2.315 1.534 4.064 0 2.002-.627 3.553-1.882 4.651s-3.047 1.647-5.376 1.647c-1.984 0-3.537-.354-4.658-1.062-1.123-.707-1.684-1.712-1.684-3.014zM81.183 466.519c0-.781.25-1.414.751-1.898.5-.483 1.166-.726 1.995-.726.821 0 1.484.244 1.989.732.505.488.758 1.118.758 1.892 0 .789-.252 1.424-.758 1.904-.505.48-1.168.72-1.989.72-.829 0-1.495-.239-1.995-.72-.5-.48-.751-1.115-.751-1.904zM87.958 465.067c0-.904.249-1.613.746-2.131.497-.517 1.165-.775 2.005-.775.719 0 1.287.195 1.703.586.417.391.625.904.625 1.539 0 .756-.295 1.334-.885 1.732.455.18 1.06.27 1.816.27.882 0 1.521-.246 1.917-.739.396-.492.594-1.239.594-2.239v-.367c0-1.766-.751-2.648-2.254-2.648-.69 0-1.217.122-1.578.366-.362.244-.62.586-.774 1.025h-3.345l1.042-9.497h11.876c-.14.61-.315 1.127-.528 1.551-.213.423-.46.771-.743 1.043a2.904 2.904 0 0 1-1.062.635 6.264 6.264 0 0 1-1.369.312 15.88 15.88 0 0 1-1.799.085h-3.623l-.376 2.906c.896-.92 2.174-1.38 3.835-1.38 1.806 0 3.221.48 4.243 1.44 1.022.96 1.534 2.315 1.534 4.064 0 2.002-.627 3.553-1.882 4.651s-3.047 1.647-5.376 1.647c-1.984 0-3.537-.354-4.658-1.062-1.123-.707-1.684-1.712-1.684-3.014zM108.968 454.739v-2.551h3.003c1.253 0 2.295-.098 3.125-.293v6.543c.7-1.497 1.981-2.246 3.845-2.246 1.579 0 2.828.588 3.748 1.764.92 1.177 1.379 2.745 1.379 4.706 0 1.953-.486 3.521-1.459 4.706-.972 1.184-2.269 1.775-3.888 1.775-2.197 0-3.63-.968-4.297-2.904l-.354 2.551h-3.906c.041-.325.061-1.709.061-4.15v-8.996c0-.351-.037-.588-.11-.715-.073-.126-.204-.189-.391-.189h-.756zm6.128 8.154c0 2.214.651 3.32 1.953 3.32 1.294 0 1.941-1.106 1.941-3.32v-.451c0-2.222-.647-3.332-1.941-3.332-1.302 0-1.953 1.11-1.953 3.332v.451zM125.595 468.79v-2.551h.507c.136 0 .229-.056.281-.165.053-.11.079-.312.079-.604v-5.383c0-.375-.029-.635-.088-.781s-.168-.221-.327-.221h-.452v-2.551h2.918c1.221 0 2.262-.098 3.125-.293v9.229c0 .293.025.494.077.604.051.109.144.165.276.165h.464v2.551h-6.86zm1.461-13.612c-.5-.423-.749-.977-.749-1.66s.249-1.238.749-1.666c.498-.427 1.156-.641 1.975-.641.817 0 1.474.214 1.968.641.495.428.742.982.742 1.666s-.247 1.237-.742 1.66c-.494.424-1.15.635-1.968.635-.819 0-1.477-.211-1.975-.635zM133.604 454.739v-2.551h3.027c1.221 0 2.263-.098 3.125-.293v13.574c0 .317.037.525.112.623s.2.146.375.146h.562v2.551h-7.068v-2.551h.672c.171 0 .293-.049.366-.146s.11-.306.11-.623v-9.826c0-.351-.033-.588-.1-.715-.066-.126-.195-.189-.386-.189h-.795zM141.978 454.739v-2.551h3.027c1.221 0 2.263-.098 3.125-.293v13.574c0 .317.037.525.112.623s.2.146.375.146h.562v2.551h-7.068v-2.551h.672c.171 0 .293-.049.366-.146s.11-.306.11-.623v-9.826c0-.351-.033-.588-.1-.715-.066-.126-.195-.189-.386-.189h-.795zM150.768 468.79v-2.551h.507c.136 0 .229-.056.281-.165.053-.11.079-.312.079-.604v-5.383c0-.375-.029-.635-.088-.781s-.168-.221-.327-.221h-.452v-2.551h2.918c1.221 0 2.262-.098 3.125-.293v9.229c0 .293.025.494.077.604.051.109.144.165.276.165h.464v2.551h-6.86zm1.461-13.612c-.5-.423-.749-.977-.749-1.66s.249-1.238.749-1.666c.498-.427 1.156-.641 1.975-.641.817 0 1.474.214 1.968.641.495.428.742.982.742 1.666s-.247 1.237-.742 1.66c-.494.424-1.15.635-1.968.635-.819 0-1.477-.211-1.975-.635zM158.861 462.674c0-1.94.636-3.506 1.906-4.696s2.944-1.786 5.021-1.786c2.037 0 3.677.593 4.919 1.779 1.241 1.187 1.862 2.754 1.862 4.703 0 1.933-.631 3.494-1.894 4.685-1.262 1.189-2.932 1.784-5.01 1.784-2.054 0-3.701-.591-4.942-1.772-1.241-1.182-1.862-2.747-1.862-4.697zm4.871.239c0 1.373.15 2.33.453 2.87.302.54.812.81 1.53.81.719 0 1.229-.272 1.53-.816.303-.544.453-1.499.453-2.863v-.465c0-1.381-.15-2.344-.453-2.889-.302-.544-.812-.816-1.53-.816-.71 0-1.218.274-1.524.823-.306.548-.459 1.509-.459 2.882v.464zM173.755 468.79v-2.551h.647c.179 0 .307-.049.385-.146.077-.098.116-.306.116-.623v-5.48c0-.351-.037-.588-.11-.715-.073-.126-.203-.189-.391-.189h-.647v-2.551h2.869c1.221 0 2.246-.098 3.076-.293v2.1c.732-1.433 2.075-2.148 4.028-2.148 2.678 0 4.017 1.632 4.017 4.895v4.383c0 .317.038.525.115.623s.206.146.385.146h.659v2.551h-7.056v-2.551h.525c.179 0 .307-.049.384-.146s.116-.306.116-.623v-4.309c0-.709-.108-1.209-.323-1.502-.216-.293-.576-.439-1.081-.439-.569 0-.994.214-1.275.641-.28.428-.421 1.113-.421 2.057v3.553c0 .317.038.525.116.623.077.098.205.146.385.146h.524v2.551h-7.043zM50.228 490.79h-.672v-9.38h-3.538v-.624h7.747v.624h-3.538v9.38zM60.42 490.95c-2.641 0-4.786-2.145-4.786-5.154 0-3.121 2.049-5.17 4.818-5.17 2.641 0 4.786 2.129 4.786 5.138 0 3.105-2.049 5.186-4.818 5.186zm-.016-9.733c-2.369 0-4.082 1.873-4.082 4.546 0 2.674 1.792 4.594 4.146 4.594 2.369 0 4.082-1.889 4.082-4.562 0-2.689-1.793-4.578-4.146-4.578zM74.996 481.234c-2.177 0-3.921 1.616-3.921 4.578 0 2.816 1.568 4.529 3.954 4.529 1.088 0 2.081-.32 2.769-.816l.16.624c-.688.448-1.729.801-2.945.801-2.865 0-4.626-1.985-4.626-5.138 0-3.153 1.953-5.187 4.642-5.187 1.296 0 2.353.416 2.993.8l-.208.577c-.705-.448-1.745-.768-2.818-.768zM80.851 490.79v-10.004h2.369c2.497 0 3.585 1.12 3.585 2.833 0 1.505-1.168 2.401-2.401 2.737l2.849 4.434h-.752l-2.705-4.306-2.273.144v4.162h-.672zm5.266-7.156c0-1.424-.977-2.24-2.977-2.24h-1.617v4.626l1.937-.064c1.344-.048 2.657-.913 2.657-2.322zM89.858 480.786h5.73v.608H90.53v4.098h4.226v.592H90.53v4.098h5.058v.608h-5.73v-10.004zM105.317 490.79l-1.168-3.121h-4.722l-1.168 3.121h-.672l3.825-10.004h.833l3.761 10.004h-.689zm-5.65-3.73h4.242l-2.097-5.683-2.145 5.683zM111.06 490.79h-.672v-9.38h-3.538v-.624h7.747v.624h-3.538v9.38zM117.154 480.786h5.73v.608h-5.058v4.098h4.226v.592h-4.226v4.098h5.058v.608h-5.73v-10.004zM132.53 490.95a4.56 4.56 0 0 1-2.258-.624l.145-.656c.656.399 1.393.688 2.145.688 1.489 0 2.289-.944 2.289-2.688v-6.883h.673v6.898c-.001 2.032-.929 3.265-2.994 3.265zM142.964 490.95c-2.642 0-4.786-2.145-4.786-5.154 0-3.121 2.049-5.17 4.818-5.17 2.641 0 4.786 2.129 4.786 5.138 0 3.105-2.049 5.186-4.818 5.186zm-.016-9.733c-2.369 0-4.082 1.873-4.082 4.546 0 2.674 1.793 4.594 4.146 4.594 2.369 0 4.082-1.889 4.082-4.562 0-2.689-1.793-4.578-4.146-4.578zM157.221 488.052c0 1.568-.992 2.737-3.474 2.737h-3.073v-10.004h2.913c2.385 0 3.313 1.072 3.313 2.561 0 .929-.592 2.113-2.129 2.369 1.617.208 2.45 1.121 2.45 2.337zm-3.666-6.658h-2.209v4.081h2.113c1.585 0 2.77-.688 2.77-2.08 0-1.217-.769-2.001-2.674-2.001zm-.096 4.689h-2.113v4.098h2.417c2.049 0 2.785-.912 2.785-2.145 0-1.168-.912-1.953-3.089-1.953zM164.964 488.277c0-1.361-1.185-1.857-2.673-2.369-1.377-.464-2.802-1.072-2.802-2.689 0-1.473 1.312-2.593 3.041-2.593 1.152 0 2.113.336 2.865.832l-.256.593c-.752-.513-1.696-.833-2.609-.833-1.584 0-2.4.929-2.4 1.953 0 1.217 1.12 1.696 2.608 2.209 1.409.464 2.85 1.104 2.85 2.833 0 1.553-1.328 2.737-3.233 2.737-1.217 0-2.225-.336-3.058-.896l.257-.576c.752.512 1.729.88 2.833.88 1.552-.001 2.577-.977 2.577-2.081zM176.724 480.786v.624h-4.914v4.226h4.082v.608h-4.082v4.546h-.672v-10.004h5.586zM183.523 490.95c-2.642 0-4.786-2.145-4.786-5.154 0-3.121 2.049-5.17 4.818-5.17 2.641 0 4.786 2.129 4.786 5.138.001 3.105-2.048 5.186-4.818 5.186zm-.015-9.733c-2.369 0-4.082 1.873-4.082 4.546 0 2.674 1.793 4.594 4.146 4.594 2.369 0 4.082-1.889 4.082-4.562-.001-2.689-1.794-4.578-4.146-4.578zM191.233 490.79v-10.004h2.369c2.497 0 3.585 1.12 3.585 2.833 0 1.505-1.168 2.401-2.4 2.737l2.849 4.434h-.752l-2.705-4.306-2.273.144v4.162h-.673zm5.267-7.156c0-1.424-.977-2.24-2.978-2.24h-1.617v4.626l1.938-.064c1.345-.048 2.657-.913 2.657-2.322zM39.228 508.79h-2.321v-10.004h2.417c3.233 0 5.298 2.017 5.298 4.93 0 3.248-2.017 5.074-5.394 5.074zm.032-9.396h-1.681v8.787h1.681c2.737 0 4.674-1.376 4.674-4.401 0-2.642-1.745-4.386-4.674-4.386zM47.499 498.786h.672v10.004h-.672v-10.004zM56.557 506.277c0-1.361-1.184-1.857-2.673-2.369-1.376-.464-2.801-1.072-2.801-2.689 0-1.473 1.312-2.593 3.042-2.593 1.152 0 2.113.336 2.865.832l-.256.593c-.752-.513-1.697-.833-2.609-.833-1.585 0-2.401.929-2.401 1.953 0 1.217 1.12 1.696 2.609 2.209 1.409.464 2.849 1.104 2.849 2.833 0 1.553-1.329 2.737-3.233 2.737-1.216 0-2.225-.336-3.057-.896l.256-.576c.752.512 1.729.88 2.833.88 1.551-.001 2.576-.977 2.576-2.081zM66.766 508.79l-1.168-3.121h-4.722l-1.168 3.121h-.672l3.825-10.004h.833l3.761 10.004h-.689zm-5.651-3.73h4.242l-2.097-5.683-2.145 5.683zM72.283 508.79h-2.321v-10.004h2.417c3.233 0 5.298 2.017 5.298 4.93.001 3.248-2.016 5.074-5.394 5.074zm.032-9.396h-1.681v8.787h1.681c2.737 0 4.674-1.376 4.674-4.401 0-2.642-1.744-4.386-4.674-4.386zM83.116 508.79l-3.649-10.004h.688l3.377 9.348 3.377-9.348h.672l-3.666 10.004h-.799zM96.429 508.79l-1.168-3.121h-4.722l-1.168 3.121h-.672l3.825-10.004h.833l3.761 10.004h-.689zm-5.65-3.73h4.242l-2.097-5.683-2.145 5.683zM107.102 498.786v10.1h-.736l-6.099-9.171v9.075h-.64v-10.004h.784l6.051 9.092v-9.092h.64zM113.868 508.79h-.672v-9.38h-3.538v-.624h7.747v.624h-3.538v9.38zM125.98 508.79l-1.168-3.121h-4.722l-1.168 3.121h-.672l3.825-10.004h.832l3.762 10.004h-.689zm-5.649-3.73h4.242l-2.097-5.683-2.145 5.683zM133.196 508.95c-2.865 0-4.626-1.985-4.626-5.138 0-3.153 1.953-5.187 4.642-5.187 1.297 0 2.354.416 2.993.8l-.208.577c-.704-.448-1.744-.769-2.816-.769-2.177 0-3.922 1.616-3.922 4.578 0 2.816 1.568 4.529 3.953 4.529 1.041 0 1.938-.288 2.625-.721v-3.073h-2.993v-.592h3.65v3.985c-.913.658-2.081 1.011-3.298 1.011zM139.658 498.786h5.73v.608h-5.059v4.098h4.227v.592h-4.227v4.098h5.059v.608h-5.73v-10.004zM150.619 508.79h-2.321v-10.004h2.417c3.233 0 5.298 2.017 5.298 4.93 0 3.248-2.017 5.074-5.394 5.074zm.031-9.396h-1.681v8.787h1.681c2.737 0 4.675-1.376 4.675-4.401 0-2.642-1.745-4.386-4.675-4.386zM164.747 508.79h-.672v-4.05l-3.506-5.954h.753l3.105 5.298 3.073-5.298h.736l-3.49 5.938v4.066zM174.667 508.95c-2.642 0-4.786-2.145-4.786-5.154 0-3.121 2.049-5.17 4.818-5.17 2.641 0 4.786 2.129 4.786 5.138 0 3.105-2.048 5.186-4.818 5.186zm-.016-9.733c-2.369 0-4.082 1.873-4.082 4.546 0 2.674 1.793 4.594 4.146 4.594 2.369 0 4.082-1.889 4.082-4.562 0-2.689-1.793-4.578-4.146-4.578zM185.739 508.95c-2.321 0-3.602-1.408-3.602-3.777v-6.387h.656v6.339c0 2 .992 3.232 2.961 3.232 2.001 0 2.962-1.232 2.962-3.361v-6.21h.656v6.227c.001 2.384-1.264 3.937-3.633 3.937zM195.899 508.79h-.673v-9.38h-3.537v-.624h7.747v.624h-3.537v9.38zM208.908 504.068h-6.243v4.722h-.672v-10.004h.672v4.689h6.243v-4.689h.672v10.004h-.672v-4.722z"/><path fill="#FF336C" d="M109.559 542.085l-1.495.013-.533 2.691h-1.092l1.573-8.125h2.08c1.937 0 2.951 1.209 2.951 2.379-.001 1.716-1.196 3.042-3.484 3.042zm.351-4.394h-1.001l-.663 3.367h1.443c1.56 0 2.21-.896 2.21-1.833-.001-.896-.69-1.534-1.989-1.534zM116.292 536.665h1.105l-1.365 7.059h3.926l-.208 1.066h-5.031l1.573-8.125zM122.584 542.436c0-.351.052-.728.104-1.001l.936-4.771h1.105l-.924 4.771c-.052.247-.104.494-.104.755 0 1.234.78 1.768 1.976 1.768 1.248 0 1.938-.845 2.185-2.041l1.027-5.252h1.092l-1.027 5.343c-.351 1.82-1.442 2.978-3.341 2.978-1.716-.001-3.029-.82-3.029-2.55zM136 542.631c0-.663-.52-1.066-1.729-1.547-1.132-.442-2.016-1.053-2.016-2.171 0-1.6 1.326-2.432 2.795-2.432 1.027 0 1.898.286 2.562.611l-.221 1.066c-.663-.352-1.639-.689-2.432-.689-.896 0-1.638.442-1.638 1.313 0 .637.52.975 1.716 1.456 1.183.455 2.028 1.079 2.028 2.274 0 1.521-1.287 2.483-2.951 2.483-1.092 0-2.119-.364-2.848-.78l.222-1.092c.818.481 1.833.871 2.665.871 1.08.003 1.847-.531 1.847-1.363zM105.983 546.648v-.26h33.032v.26h-33.032z"/><path fill="#002C3C" d="M10.595 567.79v-1.046h1.072c.152 0 .264-.03.334-.093.07-.061.141-.186.211-.373l4.069-10.512h1.494l4.043 10.512c.07.176.142.298.215.365s.171.101.294.101h.967v1.046h-4.658v-1.046h1.081c.141 0 .233-.03.277-.092s.037-.173-.022-.336l-1.028-2.648h-4.553l-.993 2.648c-.047.163-.051.274-.013.336s.127.092.268.092h1.116v1.046h-4.174zm4.157-5.168h3.85l-1.925-5.089-1.925 5.089zM28.667 560.108v-1.046h.993c.765 0 1.433-.056 2.004-.167v2.096c.281-.682.699-1.209 1.255-1.585s1.223-.563 2-.563c1.184 0 2.128.416 2.833 1.247.705.832 1.057 1.943 1.057 3.336 0 1.379-.36 2.488-1.079 3.326-.719.839-1.674 1.258-2.864 1.258-.749 0-1.392-.177-1.93-.53a3.406 3.406 0 0 1-1.237-1.468v3.416c0 .169.021.279.061.332.041.052.104.078.192.078h1.021v1.046H28.72v-1.046h.995c.099 0 .168-.026.209-.079.041-.053.061-.164.061-.334v-8.833c0-.188-.019-.314-.057-.382s-.11-.102-.215-.102h-1.046zm3.033 3.45c0 1.023.247 1.823.741 2.4.495.576 1.143.864 1.944.864.831 0 1.49-.282 1.979-.847.489-.565.733-1.371.733-2.418v-.238c0-1.047-.244-1.857-.733-2.431-.488-.573-1.148-.86-1.979-.86-.807 0-1.457.29-1.948.869-.491.579-.737 1.387-.737 2.422v.239zM40.042 560.108v-1.046h.967c.75 0 1.424-.056 2.021-.167v2.039c.217-.715.536-1.242.958-1.582s.905-.51 1.45-.51c.609 0 1.085.175 1.428.523s.514.804.514 1.366c0 .457-.119.823-.356 1.099s-.549.413-.936.413a.942.942 0 0 1-.672-.271.855.855 0 0 1-.286-.64c0-.212.07-.404.211-.579s.322-.288.545-.339c-.053-.104-.146-.193-.281-.271s-.305-.116-.51-.116c-.668 0-1.173.304-1.516.911s-.514 1.435-.514 2.481v2.912c0 .169.021.279.062.332.041.052.105.078.193.078h1.09v1.046h-4.333v-1.046h1.011c.094 0 .161-.026.202-.079s.062-.164.062-.334v-5.739c0-.188-.019-.314-.057-.382s-.107-.102-.207-.102h-1.046zM48.418 563.413c0-1.354.417-2.454 1.253-3.301.836-.846 1.925-1.27 3.269-1.27 1.314 0 2.381.417 3.202 1.25.821.834 1.232 1.94 1.232 3.32s-.417 2.491-1.25 3.333c-.833.843-1.917 1.264-3.255 1.264-1.326 0-2.4-.425-3.221-1.274s-1.23-1.957-1.23-3.322zm1.714.097c0 1.118.236 1.974.708 2.565.473.592 1.155.888 2.047.888s1.577-.299 2.055-.896c.479-.598.718-1.45.718-2.557v-.169c0-1.118-.238-1.974-.713-2.565-.475-.592-1.156-.888-2.042-.888-.892 0-1.577.298-2.056.893-.478.595-.717 1.448-.717 2.561v.168zM58.386 560.108v-1.046h.993c.765 0 1.433-.056 2.004-.167v2.096c.281-.682.699-1.209 1.255-1.585s1.223-.563 2-.563c1.184 0 2.128.416 2.833 1.247.705.832 1.057 1.943 1.057 3.336 0 1.379-.36 2.488-1.079 3.326-.719.839-1.674 1.258-2.864 1.258-.749 0-1.392-.177-1.93-.53a3.406 3.406 0 0 1-1.237-1.468v3.416c0 .169.021.279.061.332.041.052.104.078.192.078h1.021v1.046h-4.254v-1.046h.995c.099 0 .168-.026.209-.079.041-.053.061-.164.061-.334v-8.833c0-.188-.019-.314-.057-.382s-.11-.102-.215-.102h-1.045zm3.032 3.45c0 1.023.247 1.823.741 2.4.495.576 1.143.864 1.944.864.831 0 1.49-.282 1.979-.847.489-.565.733-1.371.733-2.418v-.238c0-1.047-.244-1.857-.733-2.431-.488-.573-1.148-.86-1.979-.86-.807 0-1.457.29-1.948.869-.491.579-.737 1.387-.737 2.422v.239zM69.865 563.413c0-1.354.417-2.454 1.253-3.301.836-.846 1.925-1.27 3.269-1.27 1.314 0 2.381.417 3.202 1.25.821.834 1.232 1.94 1.232 3.32s-.417 2.491-1.25 3.333c-.833.843-1.917 1.264-3.255 1.264-1.326 0-2.4-.425-3.221-1.274s-1.23-1.957-1.23-3.322zm1.714.097c0 1.118.236 1.974.708 2.565.473.592 1.155.888 2.047.888s1.577-.299 2.055-.896c.479-.598.718-1.45.718-2.557v-.169c0-1.118-.238-1.974-.713-2.565-.475-.592-1.156-.888-2.042-.888-.892 0-1.577.298-2.056.893-.478.595-.717 1.448-.717 2.561v.168zM80.211 567.208v-2.249h1.336v1.667c.503.225 1.173.337 2.01.337.623 0 1.107-.118 1.453-.355.346-.236.519-.586.519-1.048 0-.197-.041-.371-.123-.524s-.182-.277-.299-.373a1.836 1.836 0 0 0-.538-.271 6.122 6.122 0 0 0-.633-.19l-.702-.164c-.345-.079-.641-.147-.887-.205-.246-.058-.514-.151-.804-.282s-.524-.278-.703-.444a1.962 1.962 0 0 1-.448-.649 2.21 2.21 0 0 1-.18-.915c0-.814.318-1.468.956-1.96.637-.493 1.516-.739 2.636-.739.563 0 1.115.074 1.655.223.54.148 1 .329 1.379.541v2.225h-1.327v-1.571c-.402-.247-.96-.371-1.674-.371-.606 0-1.077.118-1.411.354-.334.236-.501.57-.501 1.002 0 .192.031.363.092.513.061.148.126.265.194.35.068.085.221.155.457.213.237.058.417.099.542.125l.691.146.087.018.087.019c.341.123.645.219.912.286.267.067.552.169.856.304.305.135.552.286.742.455.19.169.347.387.471.653s.186.568.186.907c0 .843-.325 1.517-.975 2.021-.65.504-1.548.756-2.693.756a7.37 7.37 0 0 1-3.363-.805zM88.605 565.698c0-.996.479-1.74 1.437-2.232.958-.492 2.474-.861 4.549-1.107v-.496c0-.696-.172-1.199-.518-1.509-.345-.31-.895-.465-1.65-.465-.825 0-1.426.156-1.804.47.287.188.43.498.43.929 0 .313-.098.565-.293.757a1.012 1.012 0 0 1-.738.288c-.367 0-.659-.106-.875-.321-.217-.213-.325-.508-.325-.883 0-.492.178-.914.535-1.266.356-.352.821-.609 1.393-.773a6.99 6.99 0 0 1 1.928-.246c1.27 0 2.192.235 2.768.707.576.471.864 1.236.864 2.295v4.486c0 .275.085.413.255.413h.984v1.046h-2.558c-.152-.428-.272-.999-.36-1.714-.25.574-.681 1.04-1.293 1.397s-1.293.536-2.043.536c-.804 0-1.452-.219-1.945-.655a2.116 2.116 0 0 1-.741-1.657zm1.714-.264c0 .418.144.754.43 1.008.287.254.667.381 1.138.381.809 0 1.461-.266 1.958-.797s.745-1.224.745-2.079v-.71c-1.503.17-2.59.415-3.263.734-.672.32-1.008.807-1.008 1.463zM98.389 556.882v-1.046h1.002c.779 0 1.453-.053 2.021-.158v10.652c0 .17.021.281.062.334s.105.079.193.079h.984v1.046h-4.228v-1.046h1.028c.082 0 .144-.027.185-.083s.062-.166.062-.33v-8.965c0-.188-.019-.314-.057-.383-.038-.066-.101-.101-.189-.101h-1.063zM108.34 560.108v-1.046h1.222v-.937c0-.951.196-1.634.588-2.047s1.019-.62 1.882-.62c.574 0 1.034.107 1.38.322v1.084a1.894 1.894 0 0 0-.932-.22c-.469 0-.797.12-.984.36-.164.217-.246.612-.246 1.187v.87h1.714v1.046h-1.688v6.223c0 .17.02.281.06.334.04.053.105.079.197.079h1.105v1.046h-4.28v-1.046h.932c.1 0 .17-.026.211-.079s.062-.164.062-.334v-6.223h-1.223zM114.132 563.413c0-1.354.417-2.454 1.253-3.301.836-.846 1.925-1.27 3.269-1.27 1.314 0 2.381.417 3.202 1.25.821.834 1.231 1.94 1.231 3.32s-.416 2.491-1.249 3.333c-.833.843-1.917 1.264-3.255 1.264-1.326 0-2.4-.425-3.221-1.274s-1.23-1.957-1.23-3.322zm1.714.097c0 1.118.236 1.974.708 2.565.473.592 1.155.888 2.047.888s1.577-.299 2.055-.896c.479-.598.718-1.45.718-2.557v-.169c0-1.118-.238-1.974-.713-2.565-.475-.592-1.156-.888-2.042-.888-.892 0-1.577.298-2.056.893-.478.595-.717 1.448-.717 2.561v.168zM124.25 560.108v-1.046h.967c.75 0 1.424-.056 2.021-.167v2.039c.217-.715.536-1.242.958-1.582s.905-.51 1.45-.51c.609 0 1.085.175 1.429.523.342.349.514.804.514 1.366 0 .457-.119.823-.355 1.099-.238.275-.55.413-.937.413a.946.946 0 0 1-.673-.271.854.854 0 0 1-.285-.64c0-.212.07-.404.211-.579s.322-.288.545-.339c-.053-.104-.146-.193-.281-.271s-.305-.116-.51-.116c-.668 0-1.174.304-1.516.911-.344.607-.515 1.435-.515 2.481v2.912c0 .169.021.279.062.332.041.052.105.078.193.078h1.09v1.046h-4.333v-1.046h1.011c.094 0 .161-.026.202-.079s.062-.164.062-.334v-5.739c0-.188-.02-.314-.057-.382-.039-.067-.107-.102-.207-.102h-1.046zM137.321 561.834c0-.938.135-1.797.405-2.576.271-.78.645-1.436 1.122-1.966.478-.531 1.05-.941 1.717-1.231s1.395-.436 2.183-.436c.91 0 1.686.205 2.328.615s1.099.979 1.368 1.706l.325-2.11h1.063v4.38h-1.424c-.429-2.27-1.587-3.404-3.476-3.404-1.209 0-2.16.416-2.855 1.249s-1.043 2.012-1.043 3.536v.44c0 1.524.349 2.703 1.047 3.536s1.654 1.249 2.869 1.249c1.05 0 1.91-.271 2.582-.813.672-.543 1.072-1.368 1.201-2.477l1.222.158a5.088 5.088 0 0 1-.462 1.716c-.249.524-.58.98-.993 1.369-.413.39-.927.692-1.539.909-.613.216-1.295.324-2.046.324-1.692 0-3.048-.549-4.066-1.646s-1.528-2.607-1.528-4.528zM149.239 556.882v-1.046h1.028c.762 0 1.427-.053 1.995-.158v5.17c.603-1.337 1.622-2.006 3.061-2.006 1.845 0 2.767 1.021 2.767 3.063v4.424c0 .17.021.282.062.335s.111.079.211.079h1.002v1.046h-4.175v-1.046h.923c.094 0 .161-.026.202-.079s.062-.165.062-.335v-4.345c0-.676-.133-1.17-.399-1.484-.266-.314-.694-.472-1.284-.472-.749 0-1.341.312-1.776.938s-.653 1.506-.653 2.64v2.723c0 .17.021.282.062.335.04.053.104.079.191.079h.969v1.046h-4.21v-1.046h1.002c.1 0 .17-.026.211-.079s.062-.164.062-.334v-8.965c0-.188-.019-.314-.057-.383-.038-.066-.109-.101-.214-.101h-1.042zM160.279 567.79v-1.046h1.028c.088 0 .15-.027.189-.083.037-.056.057-.166.057-.33v-5.511c0-.275-.028-.463-.084-.562s-.159-.149-.312-.149h-.879v-1.046h.967c.75 0 1.424-.056 2.021-.167v7.436c0 .158.021.267.062.325s.105.088.193.088h.984v1.046h-4.226zm.95-11.145a1.125 1.125 0 0 1 1.151-1.151c.328 0 .604.111.826.334s.334.495.334.817c0 .328-.109.605-.33.83a1.104 1.104 0 0 1-.83.339c-.34 0-.617-.112-.83-.339a1.155 1.155 0 0 1-.321-.83zM165.554 556.882v-1.046h1.002c.779 0 1.453-.053 2.021-.158v10.652c0 .17.021.281.062.334s.105.079.193.079h.984v1.046h-4.228v-1.046h1.028c.082 0 .144-.027.185-.083s.062-.166.062-.33v-8.965c0-.188-.02-.314-.057-.383-.039-.066-.102-.101-.189-.101h-1.063zM171.021 563.421c0-1.374.363-2.48 1.089-3.319.727-.84 1.68-1.26 2.861-1.26.757 0 1.404.172 1.94.514.537.343.946.83 1.229 1.462v-3.45c0-.194-.017-.323-.048-.389-.033-.064-.099-.097-.198-.097h-1.046v-1.046h1.011c.791 0 1.456-.053 1.995-.158v10.652c0 .164.021.274.066.33.043.056.112.083.206.083h.984v1.046h-2.769a30.991 30.991 0 0 1-.132-1.835c-.276.65-.688 1.154-1.237 1.515s-1.216.54-2.002.54c-1.193 0-2.149-.42-2.87-1.259-.718-.838-1.079-1.949-1.079-3.329zm1.714.127c0 1.039.245 1.845.735 2.416.489.572 1.151.858 1.985.858.81 0 1.459-.287 1.949-.862s.735-1.379.735-2.412v-.236c0-1.021-.248-1.824-.744-2.407-.496-.584-1.143-.876-1.94-.876-.834 0-1.496.286-1.985.858-.49.571-.735 1.38-.735 2.425v.236zM186.94 561.834c0-.938.135-1.797.405-2.576.271-.78.645-1.436 1.122-1.966.478-.531 1.05-.941 1.717-1.231s1.395-.436 2.183-.436c.91 0 1.686.205 2.328.615s1.099.979 1.368 1.706l.325-2.11h1.063v4.38h-1.424c-.429-2.27-1.587-3.404-3.476-3.404-1.209 0-2.16.416-2.855 1.249s-1.043 2.012-1.043 3.536v.44c0 1.524.349 2.703 1.047 3.536s1.654 1.249 2.869 1.249c1.05 0 1.91-.271 2.582-.813.672-.543 1.072-1.368 1.201-2.477l1.222.158a5.088 5.088 0 0 1-.462 1.716c-.249.524-.58.98-.993 1.369-.413.39-.927.692-1.539.909-.613.216-1.295.324-2.046.324-1.692 0-3.048-.549-4.066-1.646s-1.528-2.607-1.528-4.528zM199.272 565.698c0-.996.479-1.74 1.437-2.232s2.474-.861 4.549-1.107v-.496c0-.696-.173-1.199-.518-1.509s-.896-.465-1.65-.465c-.825 0-1.426.156-1.804.47.286.188.43.498.43.929 0 .313-.098.565-.294.757a1.009 1.009 0 0 1-.738.288c-.366 0-.658-.106-.875-.321-.217-.213-.325-.508-.325-.883 0-.492.179-.914.535-1.266s.821-.609 1.393-.773a6.997 6.997 0 0 1 1.929-.246c1.27 0 2.192.235 2.768.707.576.471.864 1.236.864 2.295v4.486c0 .275.085.413.255.413h.984v1.046h-2.558c-.152-.428-.272-.999-.36-1.714-.25.574-.681 1.04-1.294 1.397a3.98 3.98 0 0 1-2.042.536c-.805 0-1.452-.219-1.945-.655a2.116 2.116 0 0 1-.741-1.657zm1.714-.264c0 .418.144.754.431 1.008.286.254.666.381 1.138.381.809 0 1.462-.266 1.958-.797.497-.531.745-1.224.745-2.079v-.71c-1.503.17-2.591.415-3.263.734-.673.32-1.009.807-1.009 1.463zM209.073 560.108v-1.046h.967c.75 0 1.424-.056 2.021-.167v2.039c.217-.715.536-1.242.958-1.582s.905-.51 1.45-.51c.609 0 1.085.175 1.429.523.342.349.514.804.514 1.366 0 .457-.119.823-.355 1.099-.238.275-.55.413-.937.413a.946.946 0 0 1-.673-.271.854.854 0 0 1-.285-.64c0-.212.07-.404.211-.579s.322-.288.545-.339c-.053-.104-.146-.193-.281-.271s-.305-.116-.51-.116c-.668 0-1.174.304-1.516.911-.344.607-.515 1.435-.515 2.481v2.912c0 .169.021.279.062.332.041.052.105.078.193.078h1.09v1.046h-4.333v-1.046h1.011c.094 0 .161-.026.202-.079s.062-.164.062-.334v-5.739c0-.188-.02-.314-.057-.382-.039-.067-.107-.102-.207-.102h-1.046zM217.45 563.381c0-1.333.407-2.422 1.222-3.27.814-.846 1.874-1.27 3.178-1.27 1.29 0 2.301.397 3.03 1.191.73.794 1.096 1.879 1.096 3.256v.431h-6.812c.018.971.281 1.754.792 2.35s1.228.894 2.148.894c1.408 0 2.326-.69 2.755-2.072l1.046.438c-.229.807-.673 1.455-1.333 1.945s-1.526.735-2.6.735c-1.414 0-2.521-.428-3.322-1.283-.799-.855-1.2-1.97-1.2-3.345zm1.714-.707h5.098c-.035-1.857-.84-2.786-2.412-2.786-.799 0-1.43.241-1.894.723-.463.481-.727 1.169-.792 2.063zM227.005 567.79l4.86-11.953h1.266l-4.86 11.953h-1.266zM18.581 577.882v-1.046h4.386v1.046H21.88c-.107 0-.183.029-.227.088s-.067.174-.067.344v6.266c0 1.21.231 2.054.695 2.529.463.476 1.294.714 2.491.714 1.08 0 1.867-.254 2.363-.762.496-.509.744-1.312.744-2.411v-6.336c0-.176-.021-.292-.062-.348s-.117-.084-.229-.084h-1.151v-1.046h3.973v1.046h-1.055c-.111.012-.188.044-.229.097s-.062.165-.062.335v6.425c0 1.44-.378 2.513-1.135 3.216-.756.703-1.903 1.055-3.44 1.055-1.665 0-2.851-.336-3.558-1.007-.707-.671-1.061-1.794-1.061-3.37v-6.318c0-.176-.021-.292-.062-.348s-.119-.084-.231-.084h-.996zM31.431 588.79v-1.046h1.011c.094 0 .161-.026.202-.079s.062-.164.062-.334v-5.739c0-.188-.019-.314-.057-.382s-.107-.102-.207-.102h-1.011v-1.046h.967c.738 0 1.406-.056 2.004-.167v2.039c.287-.686.693-1.205 1.217-1.561.524-.354 1.144-.531 1.859-.531 1.852 0 2.777 1.037 2.777 3.111v4.377c0 .17.021.281.061.334s.111.079.209.079h1.004v1.046h-4.166v-1.046h.925c.087 0 .151-.026.192-.079s.061-.165.061-.335v-4.327c0-.681-.135-1.181-.404-1.498s-.7-.476-1.292-.476c-.75 0-1.342.309-1.775.926-.434.616-.65 1.495-.65 2.635v2.74c0 .17.021.282.062.335s.111.079.211.079h.949v1.046h-4.211zM42.48 588.79v-1.046h1.028c.088 0 .151-.027.189-.083s.057-.166.057-.33v-5.511c0-.275-.028-.463-.083-.562s-.16-.149-.312-.149h-.879v-1.046h.967c.75 0 1.424-.056 2.021-.167v7.436c0 .158.021.267.062.325s.105.088.193.088h.984v1.046H42.48zm.949-11.145a1.125 1.125 0 0 1 1.151-1.151c.328 0 .604.111.826.334s.334.495.334.817c0 .328-.11.605-.33.83-.22.227-.497.339-.831.339-.34 0-.617-.112-.831-.339a1.166 1.166 0 0 1-.319-.83zM47.535 581.108v-1.046h4.192v1.046h-.879c-.229 0-.343.085-.343.255 0 .053.012.117.035.193.064.199.365.935.901 2.206s.998 2.347 1.384 3.226l2.25-5.414c.059-.129.057-.238-.004-.329s-.154-.137-.277-.137h-.993v-1.046h3.744v1.046h-.809c-.246 0-.422.138-.527.413l-3.129 7.374h-1.099l-3.164-7.374c-.059-.164-.12-.273-.185-.329s-.144-.084-.237-.084h-.86zM58.381 584.381c0-1.333.407-2.422 1.222-3.27.814-.846 1.874-1.27 3.177-1.27 1.29 0 2.3.397 3.031 1.191.73.794 1.095 1.879 1.095 3.256v.431h-6.812c.018.971.282 1.754.792 2.35.51.596 1.227.894 2.148.894 1.408 0 2.327-.69 2.755-2.072l1.046.438c-.229.807-.673 1.455-1.333 1.945s-1.526.735-2.6.735c-1.415 0-2.521-.428-3.322-1.283-.799-.855-1.199-1.97-1.199-3.345zm1.714-.707h5.098c-.035-1.857-.839-2.786-2.412-2.786-.798 0-1.43.241-1.893.723-.465.481-.729 1.169-.793 2.063zM68.067 581.108v-1.046h.967c.75 0 1.424-.056 2.021-.167v2.039c.217-.715.536-1.242.958-1.582s.905-.51 1.45-.51c.609 0 1.085.175 1.428.523s.514.804.514 1.366c0 .457-.119.823-.356 1.099s-.549.413-.936.413a.942.942 0 0 1-.672-.271.855.855 0 0 1-.286-.64c0-.212.07-.404.211-.579s.322-.288.545-.339c-.053-.104-.146-.193-.281-.271s-.305-.116-.51-.116c-.668 0-1.173.304-1.516.911s-.514 1.435-.514 2.481v2.912c0 .169.021.279.062.332.041.052.105.078.193.078h1.09v1.046h-4.333v-1.046h1.011c.094 0 .161-.026.202-.079s.062-.164.062-.334v-5.739c0-.188-.019-.314-.057-.382s-.107-.102-.207-.102h-1.046zM76.567 588.208v-2.249h1.336v1.667c.503.225 1.173.337 2.01.337.623 0 1.107-.118 1.453-.355.346-.236.519-.586.519-1.048 0-.197-.041-.371-.123-.524s-.182-.277-.299-.373a1.836 1.836 0 0 0-.538-.271 6.122 6.122 0 0 0-.633-.19l-.702-.164c-.345-.079-.641-.147-.887-.205-.246-.058-.514-.151-.804-.282s-.524-.278-.703-.444a1.962 1.962 0 0 1-.448-.649 2.21 2.21 0 0 1-.18-.915c0-.814.318-1.468.956-1.96.637-.493 1.516-.739 2.636-.739.563 0 1.115.074 1.655.223.54.148 1 .329 1.379.541v2.225h-1.327v-1.571c-.402-.247-.96-.371-1.674-.371-.606 0-1.077.118-1.411.354-.334.236-.501.57-.501 1.002 0 .192.031.363.092.513.061.148.126.265.194.35.068.085.221.155.457.213.237.058.417.099.542.125l.691.146.087.018.087.019c.341.123.645.219.912.286.267.067.552.169.856.304.305.135.552.286.742.455.19.169.347.387.471.653s.186.568.186.907c0 .843-.325 1.517-.975 2.021-.65.504-1.548.756-2.693.756a7.372 7.372 0 0 1-3.363-.805zM84.962 586.698c0-.996.479-1.74 1.437-2.232.958-.492 2.474-.861 4.549-1.107v-.496c0-.696-.172-1.199-.518-1.509-.345-.31-.895-.465-1.65-.465-.825 0-1.426.156-1.804.47.287.188.43.498.43.929 0 .313-.098.565-.293.757a1.012 1.012 0 0 1-.738.288c-.367 0-.659-.106-.875-.321-.217-.213-.325-.508-.325-.883 0-.492.178-.914.535-1.266.356-.352.821-.609 1.393-.773a6.99 6.99 0 0 1 1.928-.246c1.27 0 2.192.235 2.768.707.576.471.864 1.236.864 2.295v4.486c0 .275.085.413.255.413h.982v1.046h-2.558c-.152-.428-.272-.999-.36-1.714-.25.574-.681 1.04-1.293 1.397s-1.293.536-2.043.536c-.804 0-1.452-.219-1.945-.655a2.118 2.118 0 0 1-.739-1.657zm1.714-.264c0 .418.144.754.43 1.008.287.254.667.381 1.138.381.809 0 1.461-.266 1.958-.797s.745-1.224.745-2.079v-.71c-1.503.17-2.59.415-3.263.734-.672.32-1.008.807-1.008 1.463zM94.745 577.882v-1.046h1.002c.779 0 1.453-.053 2.021-.158v10.652c0 .17.021.281.062.334s.105.079.193.079h.984v1.046H94.78v-1.046h1.028c.082 0 .144-.027.185-.083s.062-.166.062-.33v-8.965c0-.188-.019-.314-.057-.383-.038-.066-.101-.101-.189-.101h-1.064zM104.723 588.79v-1.046h1.088c.106 0 .182-.03.226-.093.044-.061.066-.18.066-.355v-8.982c0-.17-.022-.284-.066-.343-.044-.059-.12-.088-.226-.088h-1.088v-1.046h4.836c1.487 0 2.597.284 3.33.853.732.568 1.098 1.436 1.098 2.602 0 1.219-.357 2.115-1.07 2.689-.713.574-1.835.861-3.365.861h-1.734v3.456c0 .175.021.293.062.354.041.062.118.092.23.092h1.141v1.046h-4.528zm3.093-5.995h1.805c.928 0 1.602-.196 2.021-.589.42-.393.63-1.025.63-1.898 0-.855-.208-1.474-.625-1.854-.417-.381-1.086-.571-2.008-.571h-1.823v4.912zM115.279 581.108v-1.046h.967c.75 0 1.424-.056 2.021-.167v2.039c.217-.715.536-1.242.958-1.582s.905-.51 1.45-.51c.609 0 1.085.175 1.429.523.342.349.514.804.514 1.366 0 .457-.119.823-.355 1.099-.238.275-.55.413-.937.413a.942.942 0 0 1-.672-.271.855.855 0 0 1-.286-.64c0-.212.07-.404.211-.579s.322-.288.545-.339c-.053-.104-.146-.193-.281-.271s-.305-.116-.51-.116c-.668 0-1.173.304-1.516.911s-.514 1.435-.514 2.481v2.912c0 .169.021.279.062.332.041.052.105.078.193.078h1.09v1.046h-4.333v-1.046h1.011c.094 0 .161-.026.202-.079s.062-.164.062-.334v-5.739c0-.188-.019-.314-.057-.382s-.107-.102-.207-.102h-1.047zM123.656 584.381c0-1.333.407-2.422 1.222-3.27.814-.846 1.874-1.27 3.178-1.27 1.29 0 2.301.397 3.03 1.191.73.794 1.096 1.879 1.096 3.256v.431h-6.812c.018.971.281 1.754.792 2.35s1.228.894 2.148.894c1.408 0 2.326-.69 2.755-2.072l1.046.438c-.229.807-.673 1.455-1.333 1.945s-1.526.735-2.6.735c-1.414 0-2.521-.428-3.322-1.283-.799-.855-1.2-1.97-1.2-3.345zm1.714-.707h5.098c-.035-1.857-.84-2.786-2.412-2.786-.799 0-1.43.241-1.894.723-.463.481-.727 1.169-.792 2.063zM133.396 585.028v-1.187h4.21v1.187h-4.21zM138.564 588.79v-1.046h1.102c.107 0 .184-.03.229-.093.045-.061.067-.18.067-.355v-8.982c0-.17-.022-.284-.067-.343s-.121-.088-.229-.088h-1.102v-1.046h4.509v1.046h-1.102c-.107 0-.184.029-.229.088s-.067.173-.067.343v5.396l4.878-5.361c.105-.1.146-.202.118-.308-.025-.105-.106-.158-.241-.158h-1.187v-1.046h4.535v1.046h-.844a.766.766 0 0 0-.391.07 1.639 1.639 0 0 0-.365.308l-3.067 3.296 3.568 5.757c.111.17.208.284.29.343s.202.088.36.088h.809v1.046h-4.808v-1.046h1.169c.111 0 .181-.036.206-.11.027-.072.014-.15-.039-.232l-2.848-4.605-2.145 2.373v2.127c0 .176.022.295.067.355.045.062.121.093.229.093h1.102v1.046h-4.507zM155.616 581.108v-.94h.044a7.334 7.334 0 0 0 .418-.027l.166-.014c.05-.002.096-.004.137-.004s.07-.001.088-.004.023-.005.018-.005c.252-.035.44-.108.566-.22s.201-.29.225-.536l.158-1.582h1.204v2.285h1.872v1.046h-1.925v5.337c0 .488.098.837.294 1.047.196.209.509.313.937.313.234 0 .539-.056.914-.166v1.123a4.295 4.295 0 0 1-1.371.229c-.88 0-1.515-.192-1.904-.575-.389-.384-.583-1.021-.583-1.912v-5.396h-1.258zM161.813 584.413c0-1.354.418-2.454 1.253-3.301.836-.846 1.925-1.27 3.27-1.27 1.313 0 2.381.417 3.202 1.25.821.834 1.231 1.94 1.231 3.32s-.417 2.491-1.249 3.333c-.833.843-1.918 1.264-3.255 1.264-1.327 0-2.4-.425-3.221-1.274-.82-.85-1.231-1.957-1.231-3.322zm1.714.097c0 1.118.236 1.974.709 2.565.472.592 1.154.888 2.046.888.893 0 1.577-.299 2.056-.896s.718-1.45.718-2.557v-.169c0-1.118-.237-1.974-.713-2.565s-1.156-.888-2.042-.888c-.893 0-1.578.298-2.056.893-.479.595-.718 1.448-.718 2.561v.168zM176.643 584.421c0-1.391.418-2.502 1.253-3.333.836-.83 1.955-1.246 3.358-1.246 1.179 0 2.123.274 2.832.822.71.548 1.064 1.281 1.064 2.201 0 .445-.123.809-.369 1.09s-.562.422-.949.422c-.316 0-.575-.101-.778-.301-.201-.2-.303-.45-.303-.75 0-.301.088-.551.264-.751s.413-.324.712-.371c-.305-.878-1.103-1.316-2.394-1.316-.934 0-1.663.298-2.188.895-.525.596-.788 1.429-.788 2.496v.214c0 1.092.248 1.943.744 2.554.496.611 1.208.917 2.136.917 1.478 0 2.416-.688 2.815-2.064l1.028.436c-.246.828-.693 1.481-1.342 1.959-.647.478-1.499.716-2.555.716-1.421 0-2.532-.409-3.336-1.228s-1.204-1.94-1.204-3.362zM186.215 584.413c0-1.354.418-2.454 1.253-3.301.836-.846 1.925-1.27 3.27-1.27 1.313 0 2.381.417 3.202 1.25.821.834 1.231 1.94 1.231 3.32s-.417 2.491-1.249 3.333c-.833.843-1.918 1.264-3.255 1.264-1.327 0-2.4-.425-3.221-1.274-.821-.85-1.231-1.957-1.231-3.322zm1.714.097c0 1.118.236 1.974.709 2.565.472.592 1.154.888 2.046.888.893 0 1.577-.299 2.056-.896s.718-1.45.718-2.557v-.169c0-1.118-.237-1.974-.713-2.565s-1.156-.888-2.042-.888c-.893 0-1.578.298-2.056.893-.479.595-.718 1.448-.718 2.561v.168zM196.332 588.79v-1.046h1.011c.094 0 .161-.026.202-.079s.062-.164.062-.334v-5.739c0-.188-.02-.314-.057-.382-.039-.067-.107-.102-.207-.102h-1.011v-1.046h.949c.768 0 1.436-.056 2.004-.167v1.749c.551-1.201 1.444-1.802 2.681-1.802 1.434 0 2.295.691 2.583 2.074.491-1.383 1.424-2.074 2.799-2.074.954 0 1.663.274 2.129.822s.698 1.39.698 2.526v4.14c0 .17.021.281.062.334s.108.079.202.079h1.011v1.046h-4.157v-1.046h.914c.088 0 .152-.026.193-.079.041-.054.062-.165.062-.336v-4.056c0-.783-.135-1.354-.403-1.71-.269-.355-.701-.534-1.298-.534-.654 0-1.151.261-1.49.782s-.509 1.268-.509 2.239v3.278c0 .171.021.282.062.336.04.053.104.079.191.079h1.021v1.046h-4.148v-1.046h.89c.093 0 .161-.028.205-.084s.065-.166.065-.331v-4.268c0-.672-.146-1.178-.435-1.52-.291-.342-.717-.513-1.279-.513-.656 0-1.156.261-1.498.782-.344.521-.515 1.268-.515 2.239v3.278c0 .171.021.282.062.336.041.053.111.079.211.079h.949v1.046h-4.211zM212.487 584.381c0-1.333.407-2.422 1.222-3.27.814-.846 1.874-1.27 3.178-1.27 1.29 0 2.301.397 3.03 1.191.73.794 1.096 1.879 1.096 3.256v.431h-6.812c.018.971.281 1.754.792 2.35s1.228.894 2.148.894c1.408 0 2.326-.69 2.755-2.072l1.046.438c-.229.807-.673 1.455-1.333 1.945s-1.526.735-2.6.735c-1.414 0-2.521-.428-3.322-1.283-.799-.855-1.2-1.97-1.2-3.345zm1.714-.707h5.098c-.035-1.857-.84-2.786-2.412-2.786-.799 0-1.43.241-1.894.723-.463.481-.727 1.169-.792 2.063zM222.815 588.684c-.211-.217-.316-.492-.316-.826s.105-.611.316-.83c.211-.221.483-.33.817-.33s.609.109.826.33c.217.219.325.496.325.83s-.108.609-.325.826-.492.325-.826.325-.606-.108-.817-.325z"/></svg>