<svg xmlns="http://www.w3.org/2000/svg" width="305.208" height="387.5" viewBox="0 0 305.208 387.5"><path fill="#FF336C" d="M78.876 366.038H53.69a2.41 2.41 0 0 1-2.406-2.409v-34.371a2.41 2.41 0 0 1 2.406-2.407h25.187a2.41 2.41 0 0 1 2.407 2.407v34.371a2.411 2.411 0 0 1-2.408 2.409zM53.69 327.855c-.773 0-1.403.629-1.403 1.402v34.371c0 .773.63 1.403 1.403 1.403h25.187c.774 0 1.403-.63 1.403-1.403v-34.371c0-.773-.63-1.402-1.403-1.402H53.69z"/><path fill="#FF336C" d="M77.845 336.631a.507.507 0 0 1-.505.505H55.053a.507.507 0 0 1-.505-.505v-4.885c0-.277.227-.505.505-.505H77.34c.278 0 .505.228.505.505v4.885z"/><path fill="#FF336C" d="M77.34 337.638H55.053a1.008 1.008 0 0 1-1.007-1.007v-4.885a1.01 1.01 0 0 1 1.007-1.008H77.34c.555 0 1.006.451 1.006 1.008v4.885c0 .555-.451 1.007-1.006 1.007zm0-1.005v.503-.503zm-22.287-4.89l-.001 4.888 22.288.002.002-4.887-22.289-.003zM58.252 341.215v2.347h-2.698v-2.347h2.698m.5-1.006h-3.699a.507.507 0 0 0-.505.505v3.349c0 .276.227.504.505.504h3.699a.506.506 0 0 0 .504-.504v-3.349a.506.506 0 0 0-.504-.505zM64.449 341.215v2.347H61.75v-2.347h2.699m.501-1.006h-3.702a.507.507 0 0 0-.504.505v3.349c0 .276.228.504.504.504h3.702a.506.506 0 0 0 .503-.504v-3.349a.507.507 0 0 0-.503-.505zM70.644 341.215v2.347h-2.699v-2.347h2.699m.501-1.006h-3.701a.507.507 0 0 0-.504.505v3.349c0 .276.227.504.504.504h3.701a.507.507 0 0 0 .505-.504v-3.349a.509.509 0 0 0-.505-.505zM76.839 341.215v2.347h-2.698v-2.347h2.698m.501-1.006h-3.7a.507.507 0 0 0-.505.505v3.349c0 .276.228.504.505.504h3.7a.507.507 0 0 0 .505-.504v-3.349a.507.507 0 0 0-.505-.505zM58.252 347.365v2.346h-2.698v-2.346h2.698m.5-1.005h-3.699a.506.506 0 0 0-.505.503v3.35c0 .277.227.504.505.504h3.699a.505.505 0 0 0 .504-.504v-3.35a.505.505 0 0 0-.504-.503zM64.449 347.365v2.346H61.75v-2.346h2.699m.501-1.005h-3.702a.507.507 0 0 0-.504.503v3.35c0 .277.228.504.504.504h3.702a.506.506 0 0 0 .503-.504v-3.35a.506.506 0 0 0-.503-.503zM70.644 347.365v2.346h-2.699v-2.346h2.699m.501-1.005h-3.701a.506.506 0 0 0-.504.503v3.35c0 .277.227.504.504.504h3.701a.507.507 0 0 0 .505-.504v-3.35a.508.508 0 0 0-.505-.503zM76.839 347.365v2.346h-2.698v-2.346h2.698m.501-1.005h-3.7a.507.507 0 0 0-.505.503v3.35c0 .277.228.504.505.504h3.7a.506.506 0 0 0 .505-.504v-3.35a.506.506 0 0 0-.505-.503zM58.252 353.515v2.347h-2.698v-2.347h2.698m.5-1.005h-3.699a.506.506 0 0 0-.505.504v3.349c0 .276.227.503.505.503h3.699a.505.505 0 0 0 .504-.503v-3.349a.504.504 0 0 0-.504-.504zM64.449 353.515v2.347H61.75v-2.347h2.699m.501-1.005h-3.702a.506.506 0 0 0-.504.504v3.349c0 .276.228.503.504.503h3.702a.505.505 0 0 0 .503-.503v-3.349a.506.506 0 0 0-.503-.504zM70.644 353.515v2.347h-2.699v-2.347h2.699m.501-1.005h-3.701a.506.506 0 0 0-.504.504v3.349c0 .276.227.503.504.503h3.701a.506.506 0 0 0 .505-.503v-3.349a.507.507 0 0 0-.505-.504zM58.252 359.664v2.348h-2.698v-2.348h2.698m.5-1.004h-3.699a.506.506 0 0 0-.505.504v3.348c0 .277.227.504.505.504h3.699a.505.505 0 0 0 .504-.504v-3.348a.504.504 0 0 0-.504-.504zM64.449 359.664v2.348H61.75v-2.348h2.699m.501-1.004h-3.702a.506.506 0 0 0-.504.504v3.348c0 .277.228.504.504.504h3.702a.506.506 0 0 0 .503-.504v-3.348a.506.506 0 0 0-.503-.504zM70.644 359.664v2.348h-2.699v-2.348h2.699m.501-1.004h-3.701a.506.506 0 0 0-.504.504v3.348c0 .277.227.504.504.504h3.701a.507.507 0 0 0 .505-.504v-3.348a.507.507 0 0 0-.505-.504z"/><g><path fill="#FF336C" d="M76.839 353.515v8.497h-2.698v-8.497h2.698m.501-1.005h-3.7a.507.507 0 0 0-.505.504v9.498c0 .277.228.504.505.504h3.7a.506.506 0 0 0 .505-.504v-9.497a.506.506 0 0 0-.505-.505z"/></g><g fill="#FF336C"><path d="M95.438 328.582c-1.755 0-3.068 1.26-3.068 3.471 0 2.145 1.235 3.484 3.094 3.484.885 0 1.717-.312 2.275-.729l.156.818c-.611.404-1.495.664-2.444.664-2.354 0-3.926-1.651-3.926-4.213 0-2.587 1.65-4.251 3.926-4.251.988 0 1.898.3 2.509.663l-.26.741a4.128 4.128 0 0 0-2.262-.648zM99.871 327.996h.832v7.346h4.018v.779h-4.85v-8.125zM106.41 327.996h.818v8.125h-.818v-8.125zM113.131 328.582c-1.755 0-3.068 1.26-3.068 3.471 0 2.145 1.235 3.484 3.094 3.484.885 0 1.717-.312 2.275-.729l.156.818c-.611.404-1.495.664-2.444.664-2.354 0-3.926-1.651-3.926-4.213 0-2.587 1.65-4.251 3.926-4.251.988 0 1.898.3 2.509.663l-.26.741a4.128 4.128 0 0 0-2.262-.648zM122.167 327.996h1.065l-4.017 4.03 4.082 4.095h-1.079l-3.81-3.887h-.013v3.887h-.832v-8.125h.832v3.9h.013l3.759-3.9zM132.54 332.416h-4.758v3.705h-.832v-8.125h.832v3.666h4.758v-3.666h.832v8.125h-.832v-3.705zM135.75 327.996h4.914v.768h-4.082v2.912h3.406v.754h-3.406v2.925h4.082v.767h-4.914v-8.126zM142.64 336.121v-8.125h2.184c2.016 0 2.951.924 2.951 2.34 0 1.209-.845 1.977-1.885 2.289l2.249 3.496h-.962l-2.08-3.354-1.625.104v3.25h-.832zm4.303-5.746c0-1.078-.793-1.625-2.21-1.625h-1.261v3.381l1.456-.053c1.079-.039 2.015-.623 2.015-1.703zM149.816 327.996h4.914v.768h-4.082v2.912h3.406v.754h-3.406v2.925h4.082v.767h-4.914v-8.126zM161.763 336.121h-.832v-7.345h-2.86v-.78h6.553v.78h-2.86v7.345zM169.693 336.291c-2.249 0-3.991-1.703-3.991-4.213 0-2.496 1.677-4.251 4.004-4.251 2.262 0 3.991 1.703 3.991 4.199 0 2.484-1.677 4.265-4.004 4.265zm-.014-7.723c-1.819 0-3.133 1.417-3.133 3.458 0 2.093 1.352 3.522 3.186 3.522 1.807 0 3.12-1.43 3.12-3.471 0-2.092-1.326-3.509-3.173-3.509zM181.237 328.582c-1.755 0-3.068 1.26-3.068 3.471 0 2.145 1.235 3.484 3.094 3.484.885 0 1.717-.312 2.275-.729l.156.818c-.611.404-1.495.664-2.444.664-2.354 0-3.926-1.651-3.926-4.213 0-2.587 1.65-4.251 3.926-4.251.988 0 1.898.3 2.509.663l-.26.741a4.13 4.13 0 0 0-2.262-.648zM191.065 336.121l-.858-2.326h-3.679l-.858 2.326h-.845l3.081-8.125h.975l3.029 8.125h-.845zm-4.251-3.08h3.106l-1.547-4.226-1.559 4.226zM193.444 327.996h.832v7.346h4.018v.779h-4.85v-8.125zM202.986 328.582c-1.755 0-3.068 1.26-3.068 3.471 0 2.145 1.235 3.484 3.094 3.484.885 0 1.717-.312 2.275-.729l.156.818c-.611.404-1.495.664-2.444.664-2.353 0-3.926-1.651-3.926-4.213 0-2.587 1.65-4.251 3.926-4.251.988 0 1.898.3 2.509.663l-.26.741a4.13 4.13 0 0 0-2.262-.648zM210.37 336.291c-1.938 0-3.042-1.223-3.042-3.146v-5.148h.806v5.045c0 1.56.754 2.482 2.275 2.482 1.456 0 2.223-.871 2.223-2.496v-5.031h.819v5.019c0 2.013-1.053 3.275-3.081 3.275zM215.725 327.996h.832v7.346h4.018v.779h-4.85v-8.125zM227.829 336.121l-.858-2.326h-3.679l-.858 2.326h-.845l3.081-8.125h.975l3.029 8.125h-.845zm-4.251-3.08h3.106l-1.547-4.226-1.559 4.226zM232.508 336.121h-.832v-7.345h-2.86v-.78h6.553v.78h-2.86v7.345zM237.006 327.996h4.914v.768h-4.082v2.912h3.406v.754h-3.406v2.925h4.082v.767h-4.914v-8.126zM94.736 351.121h-.832v-3.263l-2.834-4.862h.936l2.34 4.043 2.302-4.043h.923l-2.834 4.862v3.263zM102.497 351.291c-2.249 0-3.991-1.703-3.991-4.213 0-2.496 1.677-4.251 4.004-4.251 2.262 0 3.991 1.703 3.991 4.199-.001 2.484-1.677 4.265-4.004 4.265zm-.014-7.723c-1.819 0-3.133 1.417-3.133 3.458 0 2.093 1.353 3.522 3.186 3.522 1.807 0 3.12-1.43 3.12-3.471 0-2.092-1.326-3.509-3.173-3.509zM111.402 351.291c-1.938 0-3.042-1.223-3.042-3.146v-5.148h.806v5.045c0 1.56.754 2.482 2.275 2.482 1.456 0 2.223-.871 2.223-2.496v-5.031h.819v5.019c0 2.013-1.053 3.275-3.081 3.275zM116.757 351.121v-8.125h2.184c2.016 0 2.951.924 2.951 2.34 0 1.209-.845 1.977-1.885 2.289l2.249 3.496h-.962l-2.08-3.354-1.625.104v3.25h-.832zm4.303-5.746c0-1.078-.793-1.625-2.21-1.625h-1.261v3.381l1.456-.053c1.08-.039 2.015-.623 2.015-1.703zM130.031 349.016c0-.949-.78-1.326-2.054-1.703-1.145-.352-2.366-.832-2.366-2.275 0-1.3 1.092-2.21 2.6-2.21.937 0 1.755.247 2.444.702l-.299.729c-.611-.416-1.404-.676-2.132-.676-1.21 0-1.808.649-1.808 1.391 0 .884.806 1.248 2.054 1.625 1.184.351 2.354.884 2.354 2.354 0 1.352-1.118 2.34-2.743 2.34a4.86 4.86 0 0 1-2.613-.754l.299-.742c.663.455 1.404.754 2.341.754 1.13-.002 1.923-.664 1.923-1.535zM138.104 351.121l-.858-2.326h-3.679l-.858 2.326h-.845l3.081-8.125h.975l3.029 8.125h-.845zm-4.251-3.08h3.106l-1.547-4.226-1.559 4.226zM142.16 351.121l-2.978-8.125h.845l2.64 7.268 2.626-7.268h.845l-3.003 8.125h-.975zM147.632 342.996h.818v8.125h-.818v-8.125zM157.226 342.996v8.203h-.897l-4.654-7.033v6.955h-.806v-8.125h.936l4.615 6.969v-6.969h.806zM163.115 351.291c-2.354 0-3.926-1.651-3.926-4.213 0-2.587 1.65-4.251 3.926-4.251 1.001 0 1.963.312 2.574.677l-.273.754c-.61-.403-1.469-.676-2.313-.676-1.755 0-3.068 1.26-3.068 3.471 0 2.145 1.235 3.484 3.094 3.484.78 0 1.431-.195 1.95-.494v-2.211h-2.353v-.754h3.159v3.406c-.794.534-1.834.807-2.77.807zM172.033 349.016c0-.949-.78-1.326-2.054-1.703-1.145-.352-2.366-.832-2.366-2.275 0-1.3 1.092-2.21 2.6-2.21.937 0 1.755.247 2.444.702l-.299.729c-.611-.416-1.404-.676-2.132-.676-1.21 0-1.808.649-1.808 1.391 0 .884.806 1.248 2.054 1.625 1.184.351 2.354.884 2.354 2.354 0 1.352-1.118 2.34-2.743 2.34a4.86 4.86 0 0 1-2.613-.754l.299-.742c.663.455 1.404.754 2.341.754 1.13-.002 1.923-.664 1.923-1.535zM179.768 351.291c-1.938 0-3.042-1.223-3.042-3.146v-5.148h.806v5.045c0 1.56.754 2.482 2.275 2.482 1.456 0 2.223-.871 2.223-2.496v-5.031h.819v5.019c0 2.013-1.053 3.275-3.081 3.275zM191.481 342.996v8.203h-.897l-4.654-7.033v6.955h-.806v-8.125h.937l4.614 6.969v-6.969h.806zM196.018 351.121h-2.146v-8.125h2.21c2.665 0 4.304 1.6 4.304 4.004 0 2.549-1.599 4.121-4.368 4.121zm.013-7.357h-1.326v6.591h1.352c2.08 0 3.498-1.065 3.498-3.289-.001-2.081-1.288-3.302-3.524-3.302zM202.335 342.996h4.914v.768h-4.082v2.912h3.406v.754h-3.406v2.925h4.082v.767h-4.914v-8.126zM209.225 351.121v-8.125h2.185c2.015 0 2.95.924 2.95 2.34 0 1.209-.845 1.977-1.885 2.289l2.249 3.496h-.962l-2.08-3.354-1.625.104v3.25h-.832zm4.303-5.746c0-1.078-.793-1.625-2.21-1.625h-1.261v3.381l1.456-.053c1.079-.039 2.015-.623 2.015-1.703zM97.518 363.859c0 1.312-.884 2.262-2.926 2.262h-2.639v-8.125h2.535c1.95 0 2.769.885 2.769 2.119 0 .793-.468 1.573-1.56 1.846 1.197.248 1.821.949 1.821 1.898zm-2.99-5.109h-1.742v2.926h1.612c1.234 0 2.027-.521 2.027-1.496 0-.883-.597-1.43-1.897-1.43zm-.078 3.68h-1.664v2.938h1.872c1.443 0 2.028-.572 2.028-1.508 0-.95-.78-1.43-2.236-1.43zM99.403 357.996h4.914v.768h-4.082v2.912h3.406v.754h-3.406v2.925h4.082v.767h-4.914v-8.126zM106.292 366.121v-8.125h2.184c2.016 0 2.951.924 2.951 2.34 0 1.209-.845 1.977-1.885 2.289l2.249 3.496h-.962l-2.08-3.354-1.625.104v3.25h-.832zm4.303-5.746c0-1.078-.793-1.625-2.21-1.625h-1.261v3.381l1.456-.053c1.08-.039 2.015-.623 2.015-1.703zM119.826 357.996v8.203h-.897l-4.654-7.033v6.955h-.806v-8.125h.936l4.615 6.969v-6.969h.806zM122.244 357.996h.818v8.125h-.818v-8.125zM125.48 357.996h4.914v.768h-4.082v2.912h3.406v.754h-3.406v2.925h4.082v.767h-4.914v-8.126zM132.512 357.567c.469 0 .924.416.924 1.026 0 .871-.716 1.652-1.612 2.236l-.352-.324c.832-.611 1.145-1.092 1.145-1.561 0-.325-.234-.507-.806-.729.038-.349.272-.648.701-.648zM139.091 364.016c0-.949-.78-1.326-2.054-1.703-1.145-.352-2.366-.832-2.366-2.275 0-1.3 1.092-2.21 2.6-2.21.937 0 1.755.247 2.444.702l-.299.729c-.611-.416-1.404-.676-2.132-.676-1.21 0-1.808.649-1.808 1.391 0 .884.806 1.248 2.054 1.625 1.184.351 2.354.884 2.354 2.354 0 1.352-1.118 2.34-2.743 2.34a4.86 4.86 0 0 1-2.613-.754l.299-.742c.663.455 1.404.754 2.341.754 1.13-.002 1.923-.664 1.923-1.535zM149.464 362.416h-4.758v3.705h-.832v-8.125h.832v3.666h4.758v-3.666h.832v8.125h-.832v-3.705zM152.675 357.996h4.914v.768h-4.082v2.912h3.406v.754h-3.406v2.925h4.082v.767h-4.914v-8.126zM164.96 366.121l-.858-2.326h-3.679l-.858 2.326h-.845l3.081-8.125h.975l3.029 8.125h-.845zm-4.252-3.08h3.107l-1.547-4.226-1.56 4.226zM167.339 357.996h.832v7.346h4.018v.779h-4.85v-8.125zM175.699 366.121h-.832v-7.345h-2.86v-.78h6.553v.78h-2.86v7.345zM185.786 362.416h-4.758v3.705h-.832v-8.125h.832v3.666h4.758v-3.666h.832v8.125h-.832v-3.705zM194.587 358.582c-1.755 0-3.068 1.26-3.068 3.471 0 2.145 1.235 3.484 3.094 3.484.885 0 1.717-.312 2.275-.729l.156.818c-.611.404-1.495.664-2.444.664-2.353 0-3.926-1.651-3.926-4.213 0-2.587 1.65-4.251 3.926-4.251.988 0 1.898.3 2.509.663l-.26.741a4.128 4.128 0 0 0-2.262-.648zM204.416 366.121l-.858-2.326h-3.679l-.858 2.326h-.845l3.081-8.125h.975l3.029 8.125h-.845zm-4.252-3.08h3.107l-1.547-4.226-1.56 4.226zM206.794 366.121v-8.125h2.184c2.016 0 2.951.924 2.951 2.34 0 1.209-.845 1.977-1.885 2.289l2.249 3.496h-.962l-2.08-3.354-1.625.104v3.25h-.832zm4.303-5.746c0-1.078-.793-1.625-2.21-1.625h-1.261v3.381l1.456-.053c1.08-.039 2.015-.623 2.015-1.703zM213.97 357.996h4.914v.768h-4.082v2.912h3.406v.754h-3.406v2.925h4.082v.767h-4.914v-8.126zM224.903 363.248l-1.105.014v2.859h-.832v-8.125h2.041c2.146 0 3.172 1.04 3.172 2.535-.001 1.781-1.249 2.678-3.276 2.717zm.077-4.484h-1.183v3.73l1.157-.025c1.547-.039 2.366-.637 2.366-1.898.001-1.157-.819-1.807-2.34-1.807zM230.011 357.996h.832v7.346h4.018v.779h-4.85v-8.125zM242.115 366.121l-.858-2.326h-3.679l-.858 2.326h-.845l3.081-8.125h.975l3.029 8.125h-.845zm-4.252-3.08h3.107l-1.547-4.226-1.56 4.226zM250.851 357.996v8.203h-.897l-4.654-7.033v6.955h-.806v-8.125h.936l4.615 6.969v-6.969h.806zM253.294 366.291c-.377 0-.649-.326-.649-.676 0-.352.272-.65.649-.65s.65.299.65.65c.001.35-.273.676-.65.676z"/></g><g><path fill="none" stroke="#FF336C" stroke-miterlimit="10" d="M268.916 370.229c0 4.4-3.6 8-8 8H47.917c-4.4 0-8-3.6-8-8v-47.666c0-4.4 3.6-8 8-8h212.998c4.4 0 8 3.6 8 8v47.666z"/></g><g fill="#002C3C"><path d="M56.516 15.319c0 1.919-1.292 3.306-4.274 3.306h-3.856V6.752h3.705c2.85 0 4.046 1.292 4.046 3.097 0 1.158-.684 2.298-2.279 2.697 1.746.361 2.658 1.387 2.658 2.773zm-4.369-7.465h-2.546v4.274h2.355c1.805 0 2.964-.76 2.964-2.185 0-1.292-.874-2.089-2.773-2.089zm-.114 5.375h-2.432v4.294h2.735c2.109 0 2.964-.836 2.964-2.204 0-1.386-1.139-2.09-3.267-2.09zM62.787 17.771c.969 0 1.861-.285 2.526-.723l.229 1.083c-.741.456-1.71.741-2.793.741-2.508 0-4.198-1.862-4.198-4.521 0-2.735 1.748-4.673 4.104-4.673 1.919 0 3.173 1.234 3.173 3.21 0 .456-.058 1.007-.19 1.387l-5.889.038v.095c.055 1.976 1.214 3.363 3.038 3.363zm1.88-4.789c0-1.349-.722-2.241-2.09-2.241-1.577 0-2.546 1.197-2.755 2.641l4.825-.02c.02-.094.02-.284.02-.38zM68.488 18.625V9.924l1.178-.246v1.861c.589-1.14 1.425-1.861 2.564-1.861.589 0 1.121.171 1.52.398l-.304 1.102a2.539 2.539 0 0 0-1.33-.38c-.912 0-1.767.665-2.45 2.242v5.585h-1.178zM81.424 13.002c0-1.52-.607-2.204-1.918-2.204-.969 0-1.9.494-2.641 1.235v6.592h-1.178V9.924l1.178-.246v1.425c.911-.912 2.052-1.425 2.963-1.425 1.748 0 2.774 1.082 2.774 2.982v5.965h-1.179v-5.623zM86.328 7.93c-.532 0-.798-.418-.798-.874 0-.437.266-.836.798-.836s.798.399.798.836c-.001.456-.266.874-.798.874zm-.589 1.994l1.178-.246v8.947h-1.178V9.924zM93.794 17.771c.969 0 1.861-.285 2.526-.723l.229 1.083c-.741.456-1.71.741-2.793.741-2.508 0-4.198-1.862-4.198-4.521 0-2.735 1.748-4.673 4.104-4.673 1.919 0 3.173 1.234 3.173 3.21 0 .456-.058 1.007-.19 1.387l-5.889.038v.095c.056 1.976 1.215 3.363 3.038 3.363zm1.881-4.789c0-1.349-.722-2.241-2.09-2.241-1.577 0-2.546 1.197-2.755 2.641l4.825-.02c.02-.094.02-.284.02-.38zM99.855 6.125c.685 0 1.349.607 1.349 1.501 0 1.272-1.045 2.412-2.355 3.268l-.513-.476c1.216-.893 1.672-1.596 1.672-2.279 0-.475-.342-.741-1.178-1.063.056-.514.398-.951 1.025-.951zM105.118 18.872c-1.045 0-2.108-.304-2.85-.779l.323-1.083c.74.514 1.672.799 2.564.799 1.045 0 1.956-.514 1.956-1.463 0-1.064-1.102-1.33-2.185-1.691-1.196-.342-2.526-.949-2.526-2.47 0-1.576 1.311-2.507 2.944-2.507.969 0 1.9.266 2.641.646l-.342 1.063c-.74-.398-1.614-.646-2.374-.646-1.064 0-1.748.494-1.748 1.33 0 .987 1.025 1.272 2.146 1.634 1.235.36 2.564.931 2.564 2.545.002 1.577-1.365 2.622-3.113 2.622zM117.582 9.734c2.355 0 3.895 1.861 3.895 4.502 0 2.698-1.767 4.636-4.294 4.636-.684 0-1.538-.171-2.127-.456v4.636h-1.178V9.887l1.178-.247v1.158c.588-.551 1.462-1.064 2.526-1.064zm-.342 8.075c1.881 0 3.021-1.501 3.021-3.553 0-2.014-1.102-3.438-2.869-3.438-.893 0-1.709.38-2.336.969v5.338c.53.437 1.348.684 2.184.684zM124.099 5.821l1.178-.247v13.051h-1.178V5.821zM130.464 18.872c-1.596 0-2.755-1.026-2.755-2.413 0-1.558 1.234-2.888 5.281-3.097v-.512c0-1.367-.608-2.07-2.052-2.07-.95 0-2.09.494-2.85 1.045l-.266-1.103c.76-.551 2.09-1.044 3.229-1.044 2.032 0 3.134.911 3.115 3.115v4.18c0 .627.114.893.874.873l-.076.97c-1.14.075-1.767-.381-1.899-1.235h-.058c-.587.74-1.498 1.291-2.543 1.291zm-1.52-2.546c0 .931.741 1.52 1.786 1.52.931 0 1.729-.531 2.261-1.14v-2.545c-2.983.36-4.047 1.007-4.047 2.165zM142.964 13.002c0-1.52-.607-2.204-1.918-2.204-.969 0-1.9.494-2.641 1.235v6.592h-1.178V9.924l1.178-.246v1.425c.911-.912 2.052-1.425 2.963-1.425 1.748 0 2.774 1.082 2.774 2.982v5.965h-1.179v-5.623zM149.255 9.924h1.254l2.014 6.935 2.261-6.915h1.063l2.375 6.953 1.805-6.973h1.292l-2.584 8.739h-1.045l-2.375-7.029-2.374 7.029h-1.026l-2.66-8.739zM166.886 18.872c-2.432 0-4.198-1.786-4.198-4.578 0-2.773 1.861-4.616 4.293-4.616s4.18 1.785 4.18 4.578c0 2.773-1.862 4.616-4.275 4.616zm.038-8.131c-1.843 0-3.059 1.463-3.059 3.515 0 2.128 1.235 3.553 3.078 3.553 1.842 0 3.058-1.463 3.058-3.515 0-2.128-1.234-3.553-3.077-3.553zM174.885 15.548c0 1.52.589 2.203 1.881 2.203 1.007 0 1.976-.494 2.679-1.234V9.924h1.178v8.701l-1.178.247v-1.406c-.894.912-2.033 1.406-3.002 1.406-1.69 0-2.735-1.083-2.735-2.982V9.924h1.178v5.624zM183.796 5.821l1.178-.247v13.051h-1.178V5.821zM195.176 5.574v13.051h-1.178v-.816c-.589.531-1.443 1.063-2.526 1.063-2.355 0-3.895-1.862-3.895-4.521 0-2.697 1.805-4.616 4.312-4.616.741 0 1.52.189 2.108.475V5.821l1.179-.247zm-3.343 5.224c-1.881 0-3.04 1.482-3.04 3.534 0 2.032 1.121 3.457 2.888 3.457.893 0 1.71-.38 2.317-.969v-5.357c-.531-.437-1.33-.665-2.165-.665zM205.114 18.872c-2.641 0-4.256-1.881-4.256-4.578 0-2.717 1.805-4.616 4.274-4.616 1.063 0 1.976.266 2.717.74l-.304 1.064a4.388 4.388 0 0 0-2.413-.703c-1.899 0-3.059 1.425-3.059 3.477 0 2.128 1.234 3.515 3.077 3.515.894 0 1.748-.285 2.413-.723l.247 1.083a5.194 5.194 0 0 1-2.696.741zM210.434 18.625V9.924l1.178-.246v1.861c.589-1.14 1.425-1.861 2.564-1.861.589 0 1.121.171 1.52.398l-.304 1.102a2.539 2.539 0 0 0-1.33-.38c-.912 0-1.767.665-2.45 2.242v5.585h-1.178zM221.111 17.771c.969 0 1.861-.285 2.526-.723l.229 1.083c-.741.456-1.71.741-2.793.741-2.508 0-4.198-1.862-4.198-4.521 0-2.735 1.748-4.673 4.104-4.673 1.919 0 3.173 1.234 3.173 3.21 0 .456-.058 1.007-.19 1.387l-5.889.038v.095c.055 1.976 1.215 3.363 3.038 3.363zm1.881-4.789c0-1.349-.722-2.241-2.09-2.241-1.577 0-2.546 1.197-2.755 2.641l4.825-.02c.02-.094.02-.284.02-.38zM228.826 18.872c-1.596 0-2.755-1.026-2.755-2.413 0-1.558 1.234-2.888 5.281-3.097v-.512c0-1.367-.608-2.07-2.052-2.07-.95 0-2.09.494-2.85 1.045l-.266-1.103c.76-.551 2.09-1.044 3.229-1.044 2.032 0 3.134.911 3.115 3.115v4.18c0 .627.114.893.874.873l-.076.97c-1.14.075-1.767-.381-1.899-1.235h-.058c-.587.74-1.498 1.291-2.543 1.291zm-1.521-2.546c0 .931.741 1.52 1.786 1.52.931 0 1.729-.531 2.261-1.14v-2.545c-2.982.36-4.047 1.007-4.047 2.165zM237.983 18.91c-1.672 0-2.394-.912-2.337-2.735l.133-5.148-1.33-.076.058-.741 1.311-.304.057-1.976h1.121l-.057 2.032h2.906l-.057 1.045H236.9l-.133 5.205c-.038 1.083.38 1.634 1.272 1.634.589 0 1.14-.189 1.672-.418l.209 1.026c-.608.285-1.31.456-1.937.456zM245.849 17.771c.969 0 1.861-.285 2.526-.723l.229 1.083c-.741.456-1.71.741-2.793.741-2.508 0-4.198-1.862-4.198-4.521 0-2.735 1.748-4.673 4.104-4.673 1.919 0 3.173 1.234 3.173 3.21 0 .456-.058 1.007-.19 1.387l-5.889.038v.095c.056 1.976 1.215 3.363 3.038 3.363zm1.881-4.789c0-1.349-.722-2.241-2.09-2.241-1.577 0-2.546 1.197-2.755 2.641l4.825-.02c.02-.094.02-.284.02-.38zM256.641 18.872c-1.596 0-2.755-1.026-2.755-2.413 0-1.558 1.234-2.888 5.281-3.097v-.512c0-1.367-.608-2.07-2.052-2.07-.95 0-2.09.494-2.85 1.045L254 10.722c.76-.551 2.09-1.044 3.229-1.044 2.032 0 3.134.911 3.115 3.115v4.18c0 .627.114.893.874.873l-.076.97c-1.14.075-1.767-.381-1.899-1.235h-.058c-.588.74-1.499 1.291-2.544 1.291zm-1.52-2.546c0 .931.741 1.52 1.786 1.52.931 0 1.729-.531 2.261-1.14v-2.545c-2.983.36-4.047 1.007-4.047 2.165zM70.748 30.847c-.398-.209-.854-.361-1.329-.361-.97 0-1.444.608-1.444 2.033v1.443h2.735l-.057 1.045h-2.679v7.618h-1.158v-7.58l-1.406-.095.076-.741 1.311-.304.02-1.368c.057-2.279 1.102-3.134 2.621-3.134a3.66 3.66 0 0 1 1.596.38c-.02.019-.267 1.083-.286 1.064zM76.333 41.771c.969 0 1.861-.285 2.526-.723l.229 1.083c-.741.456-1.71.741-2.793.741-2.508 0-4.198-1.862-4.198-4.521 0-2.735 1.748-4.673 4.104-4.673 1.919 0 3.173 1.234 3.173 3.21 0 .456-.058 1.007-.19 1.387l-5.889.038v.095c.056 1.976 1.215 3.363 3.038 3.363zm1.881-4.789c0-1.349-.722-2.241-2.09-2.241-1.577 0-2.546 1.197-2.755 2.641l4.825-.02c.02-.094.02-.284.02-.38zM89.063 29.574v13.051h-1.178v-.816c-.589.531-1.443 1.063-2.526 1.063-2.355 0-3.895-1.862-3.895-4.521 0-2.697 1.805-4.616 4.312-4.616.741 0 1.52.189 2.108.475v-4.388l1.179-.248zm-3.343 5.224c-1.881 0-3.04 1.482-3.04 3.534 0 2.032 1.121 3.457 2.888 3.457.893 0 1.71-.38 2.317-.969v-5.357c-.531-.437-1.33-.665-2.165-.665zM95.903 41.771c.969 0 1.861-.285 2.526-.723l.229 1.083c-.741.456-1.71.741-2.793.741-2.508 0-4.198-1.862-4.198-4.521 0-2.735 1.748-4.673 4.104-4.673 1.919 0 3.173 1.234 3.173 3.21 0 .456-.058 1.007-.19 1.387l-5.889.038v.095c.055 1.976 1.215 3.363 3.038 3.363zm1.881-4.789c0-1.349-.722-2.241-2.09-2.241-1.577 0-2.546 1.197-2.755 2.641l4.825-.02c.02-.094.02-.284.02-.38zM101.604 42.625v-8.701l1.178-.246v1.861c.589-1.14 1.425-1.861 2.564-1.861.589 0 1.121.171 1.52.398l-.304 1.102a2.539 2.539 0 0 0-1.33-.38c-.912 0-1.767.665-2.45 2.242v5.585h-1.178zM110.723 42.872c-1.596 0-2.755-1.026-2.755-2.413 0-1.558 1.234-2.888 5.281-3.097v-.512c0-1.367-.608-2.07-2.052-2.07-.95 0-2.09.494-2.85 1.045l-.266-1.103c.76-.551 2.09-1.044 3.229-1.044 2.032 0 3.134.911 3.115 3.115v4.18c0 .627.114.893.874.873l-.076.97c-1.14.075-1.767-.381-1.899-1.235h-.058c-.587.74-1.498 1.291-2.543 1.291zm-1.52-2.546c0 .931.741 1.52 1.786 1.52.931 0 1.729-.531 2.261-1.14v-2.545c-2.983.36-4.047 1.007-4.047 2.165zM117.488 29.821l1.178-.247v13.051h-1.178V29.821zM121.838 29.821l1.178-.247v13.051h-1.178V29.821zM128.716 44.411c-.817 2.146-1.615 2.735-2.812 2.735-.665 0-1.159-.171-1.691-.399l.361-1.082c.438.228.855.38 1.33.38.665 0 1.178-.361 1.785-2.014l.589-1.539-3.4-8.568h1.273l2.735 7.182 2.679-7.182h1.234l-3.381 8.606-.702 1.881zM139.774 42.872c-1.596 0-2.755-1.026-2.755-2.413 0-1.558 1.234-2.888 5.281-3.097v-.512c0-1.367-.608-2.07-2.052-2.07-.95 0-2.09.494-2.85 1.045l-.266-1.103c.76-.551 2.09-1.044 3.229-1.044 2.032 0 3.134.911 3.115 3.115v4.18c0 .627.114.893.874.873l-.076.97c-1.14.075-1.767-.381-1.899-1.235h-.058c-.587.74-1.498 1.291-2.543 1.291zm-1.521-2.546c0 .931.741 1.52 1.786 1.52.931 0 1.729-.531 2.261-1.14v-2.545c-2.982.36-4.047 1.007-4.047 2.165zM153.567 29.574v13.051h-1.178v-.816c-.589.531-1.443 1.063-2.526 1.063-2.355 0-3.895-1.862-3.895-4.521 0-2.697 1.805-4.616 4.312-4.616.741 0 1.52.189 2.108.475v-4.388l1.179-.248zm-3.343 5.224c-1.881 0-3.04 1.482-3.04 3.534 0 2.032 1.121 3.457 2.888 3.457.893 0 1.71-.38 2.317-.969v-5.357c-.531-.437-1.33-.665-2.165-.665zM167.607 37.021c0-1.52-.57-2.223-1.843-2.223-.931 0-1.786.494-2.451 1.121.02.133.038.57.038.779v5.927h-1.178v-5.604c0-1.52-.569-2.223-1.843-2.223-.911 0-1.747.418-2.412 1.007v6.82h-1.178v-8.701l1.178-.246v1.196c.893-.816 1.861-1.196 2.754-1.196 1.083 0 1.919.475 2.356 1.443.969-.969 2.07-1.443 3.077-1.443 1.672 0 2.679 1.082 2.679 3.001v5.946h-1.178v-5.604zM172.51 31.93c-.532 0-.798-.418-.798-.874 0-.437.266-.836.798-.836s.798.399.798.836c0 .456-.266.874-.798.874zm-.589 1.994l1.178-.246v8.947h-1.178v-8.701zM182.047 37.002c0-1.52-.607-2.204-1.918-2.204-.969 0-1.9.494-2.641 1.235v6.592h-1.178v-8.701l1.178-.246v1.425c.911-.912 2.052-1.425 2.963-1.425 1.748 0 2.774 1.082 2.774 2.982v5.965h-1.179v-5.623zM186.951 31.93c-.532 0-.798-.418-.798-.874 0-.437.266-.836.798-.836s.798.399.798.836c0 .456-.266.874-.798.874zm-.589 1.994l1.178-.246v8.947h-1.178v-8.701zM192.859 42.872c-1.045 0-2.108-.304-2.85-.779l.323-1.083c.74.514 1.672.799 2.564.799 1.045 0 1.957-.514 1.957-1.463 0-1.064-1.103-1.33-2.186-1.691-1.196-.342-2.526-.949-2.526-2.47 0-1.576 1.311-2.507 2.944-2.507.969 0 1.9.266 2.641.646l-.342 1.063c-.74-.398-1.614-.646-2.374-.646-1.064 0-1.748.494-1.748 1.33 0 .987 1.025 1.272 2.146 1.634 1.235.36 2.564.931 2.564 2.545.002 1.577-1.365 2.622-3.113 2.622zM200.934 42.91c-1.672 0-2.394-.912-2.337-2.735l.133-5.148-1.33-.076.058-.741 1.311-.304.057-1.976h1.121l-.057 2.032h2.906l-.057 1.045h-2.888l-.133 5.205c-.038 1.083.38 1.634 1.272 1.634.589 0 1.14-.189 1.672-.418l.209 1.026c-.608.285-1.31.456-1.937.456zM208.799 41.771c.969 0 1.861-.285 2.526-.723l.229 1.083c-.741.456-1.71.741-2.793.741-2.508 0-4.198-1.862-4.198-4.521 0-2.735 1.748-4.673 4.104-4.673 1.919 0 3.173 1.234 3.173 3.21 0 .456-.058 1.007-.19 1.387l-5.889.038v.095c.056 1.976 1.215 3.363 3.038 3.363zm1.881-4.789c0-1.349-.722-2.241-2.09-2.241-1.577 0-2.546 1.197-2.755 2.641l4.825-.02c.02-.094.02-.284.02-.38zM214.5 42.625v-8.701l1.178-.246v1.861c.589-1.14 1.425-1.861 2.564-1.861.589 0 1.121.171 1.52.398l-.304 1.102a2.539 2.539 0 0 0-1.33-.38c-.912 0-1.767.665-2.45 2.242v5.585H214.5zM225.177 41.771c.969 0 1.861-.285 2.526-.723l.229 1.083c-.741.456-1.71.741-2.793.741-2.508 0-4.198-1.862-4.198-4.521 0-2.735 1.748-4.673 4.104-4.673 1.919 0 3.173 1.234 3.173 3.21 0 .456-.058 1.007-.19 1.387l-5.889.038v.095c.056 1.976 1.215 3.363 3.038 3.363zm1.881-4.789c0-1.349-.722-2.241-2.09-2.241-1.577 0-2.546 1.197-2.755 2.641l4.825-.02c.02-.094.02-.284.02-.38zM237.907 29.574v13.051h-1.178v-.816c-.589.531-1.443 1.063-2.526 1.063-2.355 0-3.895-1.862-3.895-4.521 0-2.697 1.805-4.616 4.312-4.616.741 0 1.52.189 2.108.475v-4.388l1.179-.248zm-3.343 5.224c-1.881 0-3.04 1.482-3.04 3.534 0 2.032 1.121 3.457 2.888 3.457.893 0 1.71-.38 2.317-.969v-5.357c-.531-.437-1.33-.665-2.165-.665zM241.441 40.82c.685 0 1.349.607 1.349 1.501 0 1.292-1.063 2.432-2.355 3.286l-.513-.513c1.216-.854 1.672-1.596 1.672-2.261 0-.513-.342-.76-1.178-1.083.056-.474.398-.93 1.025-.93zM27.932 66.872c-1.045 0-2.108-.304-2.85-.779l.323-1.083c.74.514 1.672.799 2.564.799 1.045 0 1.956-.514 1.956-1.463 0-1.064-1.102-1.33-2.185-1.691-1.196-.342-2.526-.949-2.526-2.47 0-1.576 1.311-2.507 2.944-2.507.969 0 1.9.266 2.641.646l-.342 1.063c-.74-.398-1.614-.646-2.374-.646-1.064 0-1.748.494-1.748 1.33 0 .987 1.025 1.272 2.146 1.634 1.235.36 2.564.931 2.564 2.545.002 1.577-1.365 2.622-3.113 2.622zM34.221 55.93c-.532 0-.798-.418-.798-.874 0-.437.266-.836.798-.836s.798.399.798.836c0 .456-.266.874-.798.874zm-.589 1.994l1.178-.246v8.947h-1.178v-8.701zM43.758 61.002c0-1.52-.607-2.204-1.918-2.204-.969 0-1.9.494-2.641 1.235v6.592h-1.178v-8.701l1.178-.246v1.425c.911-.912 2.052-1.425 2.963-1.425 1.748 0 2.774 1.082 2.774 2.982v5.965h-1.179v-5.623zM47.54 65.257c0-.74.608-1.349 1.425-1.652-.836-.513-1.405-1.443-1.405-2.659 0-1.843 1.367-3.268 3.419-3.268.912 0 1.577.228 2.052.513L55.443 58l.057 1.178-1.919-.189c.438.437.703 1.254.703 1.957 0 1.842-1.463 3.191-3.381 3.191-.476 0-.855-.096-1.292-.247-.456.209-.969.531-.969 1.045 0 .551.437.893 1.976.893h1.121c2.526 0 3.609.836 3.609 2.279 0 1.9-2.147 3.229-4.579 3.229-2.336 0-3.932-1.025-3.932-2.545 0-.988.74-1.862 1.88-2.147-.74-.285-1.177-.76-1.177-1.387zm.437 3.325c0 1.045 1.121 1.785 2.963 1.785 1.806 0 3.268-.874 3.268-2.052 0-1.045-.893-1.387-2.641-1.387-.589 0-1.311 0-1.823-.057-1.064.286-1.767.97-1.767 1.711zm2.982-5.395c1.349 0 2.166-.931 2.166-2.279 0-1.292-.761-2.261-2.223-2.261-1.368 0-2.186.949-2.186 2.317.001 1.272.819 2.223 2.243 2.223zM57.382 53.821l1.178-.247v13.051h-1.178V53.821zM65.399 65.771c.969 0 1.861-.285 2.526-.723l.229 1.083c-.741.456-1.71.741-2.793.741-2.508 0-4.198-1.862-4.198-4.521 0-2.735 1.748-4.673 4.104-4.673 1.919 0 3.173 1.234 3.173 3.21 0 .456-.058 1.007-.19 1.387l-5.889.038v.095c.056 1.976 1.215 3.363 3.038 3.363zm1.881-4.789c0-1.349-.722-2.241-2.09-2.241-1.577 0-2.546 1.197-2.755 2.641l4.825-.02c.02-.094.02-.284.02-.38zM70.377 61.458h4.294v1.102h-4.294v-1.102zM80.789 57.734c2.355 0 3.895 1.861 3.895 4.502 0 2.698-1.767 4.636-4.294 4.636-.684 0-1.538-.171-2.127-.456v4.636h-1.178V57.887l1.178-.247v1.158c.588-.551 1.462-1.064 2.526-1.064zm-.342 8.075c1.881 0 3.021-1.501 3.021-3.553 0-2.014-1.102-3.438-2.869-3.438-.893 0-1.709.38-2.336.969v5.338c.53.437 1.348.684 2.184.684zM89.32 66.872c-1.596 0-2.755-1.026-2.755-2.413 0-1.558 1.234-2.888 5.281-3.097v-.512c0-1.367-.608-2.07-2.052-2.07-.95 0-2.09.494-2.85 1.045l-.266-1.103c.76-.551 2.09-1.044 3.229-1.044 2.032 0 3.134.911 3.115 3.115v4.18c0 .627.114.893.874.873l-.076.97c-1.14.075-1.767-.381-1.899-1.235h-.058c-.587.74-1.498 1.291-2.543 1.291zm-1.521-2.546c0 .931.741 1.52 1.786 1.52.931 0 1.729-.531 2.261-1.14v-2.545c-2.982.36-4.047 1.007-4.047 2.165zM98.611 68.411c-.817 2.146-1.615 2.735-2.812 2.735-.665 0-1.159-.171-1.691-.399l.361-1.082c.438.228.855.38 1.33.38.665 0 1.178-.361 1.785-2.014l.589-1.539-3.4-8.568h1.273l2.735 7.182 2.679-7.182h1.234l-3.381 8.606-.702 1.881zM108.149 65.771c.969 0 1.861-.285 2.526-.723l.229 1.083c-.741.456-1.71.741-2.793.741-2.508 0-4.198-1.862-4.198-4.521 0-2.735 1.748-4.673 4.104-4.673 1.919 0 3.173 1.234 3.173 3.21 0 .456-.058 1.007-.19 1.387l-5.889.038v.095c.056 1.976 1.215 3.363 3.038 3.363zm1.881-4.789c0-1.349-.722-2.241-2.09-2.241-1.577 0-2.546 1.197-2.755 2.641l4.825-.02c.02-.094.02-.284.02-.38zM113.849 66.625v-8.701l1.178-.246v1.861c.589-1.14 1.425-1.861 2.564-1.861.589 0 1.121.171 1.52.398l-.304 1.102a2.539 2.539 0 0 0-1.33-.38c-.912 0-1.767.665-2.45 2.242v5.585h-1.178zM129.865 61.002c0-1.52-.589-2.204-1.861-2.204-1.007 0-1.957.494-2.697 1.235v6.592h-1.178V53.821l1.178-.247v5.49c.911-.912 2.052-1.387 3.021-1.387 1.69 0 2.717 1.082 2.717 2.982v5.965h-1.179v-5.622zM137.826 65.771c.969 0 1.861-.285 2.526-.723l.229 1.083c-.741.456-1.71.741-2.793.741-2.508 0-4.198-1.862-4.198-4.521 0-2.735 1.748-4.673 4.104-4.673 1.919 0 3.173 1.234 3.173 3.21 0 .456-.058 1.007-.19 1.387l-5.889.038v.095c.055 1.976 1.214 3.363 3.038 3.363zm1.881-4.789c0-1.349-.722-2.241-2.09-2.241-1.577 0-2.546 1.197-2.755 2.641l4.825-.02c.02-.094.02-.284.02-.38zM145.541 66.872c-1.596 0-2.755-1.026-2.755-2.413 0-1.558 1.234-2.888 5.281-3.097v-.512c0-1.367-.608-2.07-2.052-2.07-.95 0-2.09.494-2.85 1.045l-.266-1.103c.76-.551 2.09-1.044 3.229-1.044 2.032 0 3.134.911 3.115 3.115v4.18c0 .627.114.893.874.873l-.076.97c-1.14.075-1.767-.381-1.899-1.235h-.058c-.587.74-1.499 1.291-2.543 1.291zm-1.521-2.546c0 .931.741 1.52 1.786 1.52.931 0 1.729-.531 2.261-1.14v-2.545c-2.983.36-4.047 1.007-4.047 2.165zM152.304 53.821l1.178-.247v13.051h-1.178V53.821zM159.049 66.91c-1.672 0-2.394-.912-2.337-2.735l.133-5.148-1.33-.076.058-.741 1.311-.304.057-1.976h1.121l-.057 2.032h2.906l-.057 1.045h-2.888l-.133 5.205c-.038 1.083.38 1.634 1.272 1.634.589 0 1.14-.189 1.672-.418l.209 1.026c-.608.285-1.31.456-1.937.456zM169.08 61.002c0-1.52-.589-2.204-1.861-2.204-1.007 0-1.957.494-2.697 1.235v6.592h-1.178V53.821l1.178-.247v5.49c.911-.912 2.052-1.387 3.021-1.387 1.69 0 2.717 1.082 2.717 2.982v5.965h-1.179v-5.622zM180.138 66.872c-2.641 0-4.256-1.881-4.256-4.578 0-2.717 1.805-4.616 4.274-4.616 1.063 0 1.976.266 2.717.74l-.304 1.064a4.388 4.388 0 0 0-2.413-.703c-1.899 0-3.059 1.425-3.059 3.477 0 2.128 1.234 3.515 3.077 3.515.894 0 1.748-.285 2.413-.723l.247 1.083a5.194 5.194 0 0 1-2.696.741zM187.472 66.872c-1.596 0-2.755-1.026-2.755-2.413 0-1.558 1.234-2.888 5.281-3.097v-.512c0-1.367-.608-2.07-2.052-2.07-.95 0-2.09.494-2.85 1.045l-.266-1.103c.76-.551 2.09-1.044 3.229-1.044 2.032 0 3.134.911 3.115 3.115v4.18c0 .627.114.893.874.873l-.076.97c-1.14.075-1.767-.381-1.899-1.235h-.058c-.587.74-1.498 1.291-2.543 1.291zm-1.52-2.546c0 .931.741 1.52 1.786 1.52.931 0 1.729-.531 2.261-1.14v-2.545c-2.983.36-4.047 1.007-4.047 2.165zM194.237 66.625v-8.701l1.178-.246v1.861c.589-1.14 1.425-1.861 2.564-1.861.589 0 1.121.171 1.52.398l-.304 1.102a2.539 2.539 0 0 0-1.33-.38c-.912 0-1.767.665-2.45 2.242v5.585h-1.178zM204.914 65.771c.969 0 1.861-.285 2.526-.723l.229 1.083c-.741.456-1.71.741-2.793.741-2.508 0-4.198-1.862-4.198-4.521 0-2.735 1.748-4.673 4.104-4.673 1.919 0 3.173 1.234 3.173 3.21 0 .456-.058 1.007-.19 1.387l-5.889.038v.095c.055 1.976 1.214 3.363 3.038 3.363zm1.88-4.789c0-1.349-.722-2.241-2.09-2.241-1.577 0-2.546 1.197-2.755 2.641l4.825-.02c.02-.094.02-.284.02-.38zM217.396 57.734c2.355 0 3.895 1.861 3.895 4.502 0 2.698-1.767 4.636-4.294 4.636-.684 0-1.538-.171-2.127-.456v4.636h-1.178V57.887l1.178-.247v1.158c.588-.551 1.463-1.064 2.526-1.064zm-.342 8.075c1.881 0 3.021-1.501 3.021-3.553 0-2.014-1.102-3.438-2.869-3.438-.893 0-1.709.38-2.336.969v5.338c.531.437 1.348.684 2.184.684zM223.914 66.625v-8.701l1.178-.246v1.861c.589-1.14 1.425-1.861 2.564-1.861.589 0 1.121.171 1.52.398l-.304 1.102a2.539 2.539 0 0 0-1.33-.38c-.912 0-1.767.665-2.45 2.242v5.585h-1.178zM234.553 66.872c-2.432 0-4.198-1.786-4.198-4.578 0-2.773 1.861-4.616 4.293-4.616s4.18 1.785 4.18 4.578c0 2.773-1.862 4.616-4.275 4.616zm.038-8.131c-1.843 0-3.059 1.463-3.059 3.515 0 2.128 1.235 3.553 3.078 3.553 1.842 0 3.058-1.463 3.058-3.515 0-2.128-1.234-3.553-3.077-3.553zM240.937 65.257c0-.74.608-1.349 1.425-1.652-.836-.513-1.405-1.443-1.405-2.659 0-1.843 1.367-3.268 3.419-3.268.912 0 1.577.228 2.052.513L248.84 58l.057 1.178-1.919-.189c.438.437.703 1.254.703 1.957 0 1.842-1.463 3.191-3.381 3.191-.476 0-.855-.096-1.292-.247-.456.209-.969.531-.969 1.045 0 .551.437.893 1.976.893h1.121c2.526 0 3.609.836 3.609 2.279 0 1.9-2.147 3.229-4.579 3.229-2.336 0-3.932-1.025-3.932-2.545 0-.988.74-1.862 1.88-2.147-.739-.285-1.177-.76-1.177-1.387zm.438 3.325c0 1.045 1.121 1.785 2.964 1.785 1.805 0 3.267-.874 3.267-2.052 0-1.045-.893-1.387-2.641-1.387-.589 0-1.311 0-1.823-.057-1.064.286-1.767.97-1.767 1.711zm2.982-5.395c1.349 0 2.166-.931 2.166-2.279 0-1.292-.761-2.261-2.223-2.261-1.368 0-2.186.949-2.186 2.317.001 1.272.818 2.223 2.243 2.223zM250.78 66.625v-8.701l1.178-.246v1.861c.589-1.14 1.425-1.861 2.564-1.861.589 0 1.121.171 1.52.398l-.304 1.102a2.539 2.539 0 0 0-1.33-.38c-.912 0-1.767.665-2.45 2.242v5.585h-1.178zM259.899 66.872c-1.596 0-2.755-1.026-2.755-2.413 0-1.558 1.234-2.888 5.281-3.097v-.512c0-1.367-.608-2.07-2.052-2.07-.95 0-2.09.494-2.85 1.045l-.266-1.103c.76-.551 2.09-1.044 3.229-1.044 2.032 0 3.134.911 3.115 3.115v4.18c0 .627.114.893.874.873l-.076.97c-1.14.075-1.767-.381-1.899-1.235h-.058c-.587.74-1.498 1.291-2.543 1.291zm-1.521-2.546c0 .931.741 1.52 1.786 1.52.931 0 1.729-.531 2.261-1.14v-2.545c-2.982.36-4.047 1.007-4.047 2.165zM277.53 61.021c0-1.52-.57-2.223-1.843-2.223-.931 0-1.786.494-2.451 1.121.02.133.038.57.038.779v5.927h-1.178v-5.604c0-1.52-.569-2.223-1.843-2.223-.911 0-1.747.418-2.412 1.007v6.82h-1.178v-8.701l1.178-.246v1.196c.893-.816 1.861-1.196 2.754-1.196 1.083 0 1.919.475 2.356 1.443.969-.969 2.07-1.443 3.077-1.443 1.672 0 2.679 1.082 2.679 3.001v5.946h-1.178v-5.604zM282.244 66.872c-.552 0-.95-.475-.95-.988a.94.94 0 0 1 .95-.949.94.94 0 0 1 .949.949c0 .513-.399.988-.949.988zM30.117 111.872c-2.83 0-4.445-1.786-4.445-4.598v-7.522h1.178v7.371c0 2.279 1.102 3.628 3.324 3.628 2.128 0 3.249-1.272 3.249-3.647v-7.352h1.197v7.333c0 2.944-1.539 4.787-4.503 4.787zM43.53 106.002c0-1.52-.607-2.204-1.918-2.204-.969 0-1.9.494-2.641 1.235v6.592h-1.178v-8.701l1.178-.246v1.425c.911-.912 2.052-1.425 2.963-1.425 1.748 0 2.774 1.082 2.774 2.982v5.965H43.53v-5.623zM48.433 100.93c-.532 0-.798-.418-.798-.874 0-.437.266-.836.798-.836s.798.399.798.836c0 .456-.266.874-.798.874zm-.589 1.994l1.178-.246v8.947h-1.178v-8.701zM54.361 111.644l-3.438-8.72h1.273l2.754 7.182 2.66-7.182h1.234l-3.419 8.72h-1.064zM64.297 110.771c.969 0 1.861-.285 2.526-.723l.229 1.083c-.741.456-1.71.741-2.793.741-2.508 0-4.198-1.862-4.198-4.521 0-2.735 1.748-4.673 4.104-4.673 1.919 0 3.173 1.234 3.173 3.21 0 .456-.058 1.007-.19 1.387l-5.889.038v.095c.056 1.976 1.215 3.363 3.038 3.363zm1.881-4.789c0-1.349-.722-2.241-2.09-2.241-1.577 0-2.546 1.197-2.755 2.641l4.825-.02c.02-.094.02-.284.02-.38zM69.999 111.625v-8.701l1.178-.246v1.861c.589-1.14 1.425-1.861 2.564-1.861.589 0 1.121.171 1.52.398l-.304 1.102a2.539 2.539 0 0 0-1.33-.38c-.912 0-1.767.665-2.45 2.242v5.585h-1.178zM79.307 111.872c-1.045 0-2.108-.304-2.85-.779l.323-1.083c.74.514 1.672.799 2.564.799 1.045 0 1.956-.514 1.956-1.463 0-1.064-1.102-1.33-2.185-1.691-1.196-.342-2.526-.949-2.526-2.47 0-1.576 1.311-2.507 2.944-2.507.969 0 1.9.266 2.641.646l-.342 1.063c-.74-.398-1.614-.646-2.374-.646-1.064 0-1.748.494-1.748 1.33 0 .987 1.025 1.272 2.146 1.634 1.235.36 2.564.931 2.564 2.545.002 1.577-1.365 2.622-3.113 2.622zM87.002 111.872c-1.596 0-2.755-1.026-2.755-2.413 0-1.558 1.234-2.888 5.281-3.097v-.513c0-1.367-.608-2.07-2.052-2.07-.95 0-2.09.494-2.85 1.045l-.266-1.103c.76-.551 2.09-1.044 3.229-1.044 2.032 0 3.134.911 3.115 3.115v4.18c0 .627.114.893.874.873l-.076.97c-1.14.075-1.767-.381-1.899-1.235h-.058c-.587.741-1.498 1.292-2.543 1.292zm-1.52-2.546c0 .931.741 1.52 1.786 1.52.931 0 1.729-.531 2.261-1.14v-2.545c-2.983.36-4.047 1.007-4.047 2.165zM93.767 98.821l1.178-.247v13.051h-1.178V98.821zM103.304 111.872c-1.045 0-2.108-.304-2.85-.779l.323-1.083c.74.514 1.672.799 2.564.799 1.045 0 1.957-.514 1.957-1.463 0-1.064-1.103-1.33-2.186-1.691-1.196-.342-2.526-.949-2.526-2.47 0-1.576 1.311-2.507 2.944-2.507.969 0 1.9.266 2.641.646l-.342 1.063c-.74-.398-1.614-.646-2.374-.646-1.064 0-1.748.494-1.748 1.33 0 .987 1.025 1.272 2.146 1.634 1.235.36 2.564.931 2.564 2.545.002 1.577-1.365 2.622-3.113 2.622zM109.593 100.93c-.532 0-.798-.418-.798-.874 0-.437.266-.836.798-.836s.798.399.798.836c0 .456-.266.874-.798.874zm-.589 1.994l1.178-.246v8.947h-1.178v-8.701zM119.13 106.002c0-1.52-.607-2.204-1.918-2.204-.969 0-1.9.494-2.641 1.235v6.592h-1.178v-8.701l1.178-.246v1.425c.911-.912 2.052-1.425 2.963-1.425 1.748 0 2.774 1.082 2.774 2.982v5.965h-1.179v-5.623zM122.912 110.257c0-.74.608-1.349 1.425-1.652-.836-.513-1.405-1.443-1.405-2.659 0-1.843 1.367-3.268 3.419-3.268.912 0 1.577.228 2.052.513l2.413-.19.057 1.178-1.919-.189c.438.437.703 1.254.703 1.957 0 1.842-1.463 3.191-3.381 3.191-.476 0-.855-.096-1.292-.247-.456.209-.969.531-.969 1.045 0 .551.437.893 1.976.893h1.121c2.526 0 3.609.836 3.609 2.279 0 1.9-2.147 3.229-4.579 3.229-2.336 0-3.932-1.025-3.932-2.545 0-.988.74-1.862 1.88-2.147-.741-.286-1.178-.761-1.178-1.388zm.437 3.325c0 1.045 1.121 1.785 2.964 1.785 1.805 0 3.267-.874 3.267-2.052 0-1.045-.893-1.387-2.641-1.387-.589 0-1.311 0-1.823-.057-1.064.286-1.767.97-1.767 1.711zm2.983-5.395c1.349 0 2.166-.931 2.166-2.279 0-1.292-.761-2.261-2.223-2.261-1.368 0-2.186.949-2.186 2.317 0 1.272.818 2.223 2.243 2.223zM132.754 98.821l1.178-.247v13.051h-1.178V98.821zM140.771 110.771c.969 0 1.861-.285 2.526-.723l.229 1.083c-.741.456-1.71.741-2.793.741-2.508 0-4.198-1.862-4.198-4.521 0-2.735 1.748-4.673 4.104-4.673 1.919 0 3.173 1.234 3.173 3.21 0 .456-.058 1.007-.19 1.387l-5.889.038v.095c.056 1.976 1.215 3.363 3.038 3.363zm1.881-4.789c0-1.349-.722-2.241-2.09-2.241-1.577 0-2.546 1.197-2.755 2.641l4.825-.02c.02-.094.02-.284.02-.38zM145.75 106.458h4.294v1.102h-4.294v-1.102zM156.161 102.734c2.355 0 3.895 1.861 3.895 4.502 0 2.698-1.767 4.636-4.294 4.636-.684 0-1.538-.171-2.127-.456v4.636h-1.178v-13.165l1.178-.247v1.158c.588-.551 1.462-1.064 2.526-1.064zm-.342 8.075c1.881 0 3.021-1.501 3.021-3.553 0-2.014-1.102-3.438-2.869-3.438-.893 0-1.709.38-2.336.969v5.338c.531.437 1.348.684 2.184.684zM164.692 111.872c-1.596 0-2.755-1.026-2.755-2.413 0-1.558 1.234-2.888 5.281-3.097v-.513c0-1.367-.608-2.07-2.052-2.07-.95 0-2.09.494-2.85 1.045l-.266-1.103c.76-.551 2.09-1.044 3.229-1.044 2.032 0 3.134.911 3.115 3.115v4.18c0 .627.114.893.874.873l-.076.97c-1.14.075-1.767-.381-1.899-1.235h-.058c-.587.741-1.498 1.292-2.543 1.292zm-1.521-2.546c0 .931.741 1.52 1.786 1.52.931 0 1.729-.531 2.261-1.14v-2.545c-2.982.36-4.047 1.007-4.047 2.165zM173.983 113.411c-.817 2.146-1.615 2.735-2.812 2.735-.665 0-1.159-.171-1.69-.399l.36-1.082c.438.228.854.38 1.33.38.665 0 1.178-.361 1.785-2.014l.589-1.539-3.4-8.568h1.273l2.735 7.182 2.679-7.182h1.234l-3.381 8.606-.702 1.881zM183.521 110.771c.969 0 1.861-.285 2.526-.723l.229 1.083c-.741.456-1.71.741-2.793.741-2.508 0-4.198-1.862-4.198-4.521 0-2.735 1.748-4.673 4.104-4.673 1.919 0 3.173 1.234 3.173 3.21 0 .456-.058 1.007-.19 1.387l-5.889.038v.095c.056 1.976 1.215 3.363 3.038 3.363zm1.881-4.789c0-1.349-.722-2.241-2.09-2.241-1.577 0-2.546 1.197-2.755 2.641l4.825-.02c.02-.094.02-.284.02-.38zM189.221 111.625v-8.701l1.178-.246v1.861c.589-1.14 1.425-1.861 2.564-1.861.589 0 1.121.171 1.52.398l-.304 1.102a2.539 2.539 0 0 0-1.33-.38c-.912 0-1.767.665-2.45 2.242v5.585h-1.178zM205.236 106.002c0-1.52-.589-2.204-1.861-2.204-1.007 0-1.957.494-2.697 1.235v6.592H199.5V98.821l1.178-.247v5.49c.911-.912 2.052-1.387 3.021-1.387 1.69 0 2.717 1.082 2.717 2.982v5.965h-1.179v-5.622zM213.198 110.771c.969 0 1.861-.285 2.526-.723l.229 1.083c-.741.456-1.71.741-2.793.741-2.508 0-4.198-1.862-4.198-4.521 0-2.735 1.748-4.673 4.104-4.673 1.919 0 3.173 1.234 3.173 3.21 0 .456-.058 1.007-.19 1.387l-5.889.038v.095c.055 1.976 1.215 3.363 3.038 3.363zm1.881-4.789c0-1.349-.722-2.241-2.09-2.241-1.577 0-2.546 1.197-2.755 2.641l4.825-.02c.02-.094.02-.284.02-.38zM220.913 111.872c-1.596 0-2.755-1.026-2.755-2.413 0-1.558 1.234-2.888 5.281-3.097v-.513c0-1.367-.608-2.07-2.052-2.07-.95 0-2.09.494-2.85 1.045l-.266-1.103c.76-.551 2.09-1.044 3.229-1.044 2.032 0 3.134.911 3.115 3.115v4.18c0 .627.114.893.874.873l-.076.97c-1.14.075-1.767-.381-1.899-1.235h-.058c-.587.741-1.498 1.292-2.543 1.292zm-1.521-2.546c0 .931.741 1.52 1.786 1.52.931 0 1.729-.531 2.261-1.14v-2.545c-2.982.36-4.047 1.007-4.047 2.165zM227.676 98.821l1.178-.247v13.051h-1.178V98.821zM234.42 111.91c-1.672 0-2.394-.912-2.337-2.735l.133-5.148-1.33-.076.058-.741 1.311-.304.057-1.976h1.121l-.057 2.032h2.906l-.057 1.045h-2.888l-.133 5.205c-.038 1.083.38 1.634 1.272 1.634.589 0 1.14-.189 1.672-.418l.209 1.026c-.607.285-1.31.456-1.937.456zM244.452 106.002c0-1.52-.589-2.204-1.861-2.204-1.007 0-1.957.494-2.697 1.235v6.592h-1.178V98.821l1.178-.247v5.49c.911-.912 2.052-1.387 3.021-1.387 1.69 0 2.717 1.082 2.717 2.982v5.965h-1.179v-5.622zM255.51 111.872c-2.641 0-4.256-1.881-4.256-4.578 0-2.717 1.805-4.616 4.274-4.616 1.063 0 1.976.266 2.717.74l-.304 1.064a4.388 4.388 0 0 0-2.413-.703c-1.899 0-3.059 1.425-3.059 3.477 0 2.128 1.234 3.515 3.077 3.515.894 0 1.748-.285 2.413-.723l.247 1.083a5.194 5.194 0 0 1-2.696.741zM262.844 111.872c-1.596 0-2.755-1.026-2.755-2.413 0-1.558 1.234-2.888 5.281-3.097v-.513c0-1.367-.608-2.07-2.052-2.07-.95 0-2.09.494-2.85 1.045l-.266-1.103c.76-.551 2.09-1.044 3.229-1.044 2.032 0 3.134.911 3.115 3.115v4.18c0 .627.114.893.874.873l-.076.97c-1.14.075-1.767-.381-1.899-1.235h-.058c-.587.741-1.498 1.292-2.543 1.292zm-1.52-2.546c0 .931.741 1.52 1.786 1.52.931 0 1.729-.531 2.261-1.14v-2.545c-2.983.36-4.047 1.007-4.047 2.165zM269.609 111.625v-8.701l1.178-.246v1.861c.589-1.14 1.425-1.861 2.564-1.861.589 0 1.121.171 1.52.398l-.304 1.102a2.539 2.539 0 0 0-1.33-.38c-.912 0-1.767.665-2.45 2.242v5.585h-1.178zM280.286 110.771c.969 0 1.861-.285 2.526-.723l.229 1.083c-.741.456-1.71.741-2.793.741-2.508 0-4.198-1.862-4.198-4.521 0-2.735 1.748-4.673 4.104-4.673 1.919 0 3.173 1.234 3.173 3.21 0 .456-.058 1.007-.19 1.387l-5.889.038v.095c.055 1.976 1.214 3.363 3.038 3.363zm1.881-4.789c0-1.349-.722-2.241-2.09-2.241-1.577 0-2.546 1.197-2.755 2.641l4.825-.02c.02-.094.02-.284.02-.38zM19.258 130.021c0-1.52-.57-2.223-1.843-2.223-.931 0-1.786.494-2.451 1.121.02.133.038.57.038.779v5.927h-1.178v-5.604c0-1.52-.569-2.223-1.843-2.223-.911 0-1.747.418-2.412 1.007v6.82H8.392v-8.701l1.178-.246v1.196c.893-.816 1.861-1.196 2.754-1.196 1.083 0 1.919.475 2.356 1.443.969-.969 2.07-1.443 3.077-1.443 1.672 0 2.679 1.082 2.679 3.001v5.946h-1.178v-5.604zM27.22 134.771c.969 0 1.861-.285 2.526-.723l.229 1.083c-.741.456-1.71.741-2.793.741-2.508 0-4.198-1.862-4.198-4.521 0-2.735 1.748-4.673 4.104-4.673 1.919 0 3.173 1.234 3.173 3.21 0 .456-.058 1.007-.19 1.387l-5.889.038v.095c.056 1.976 1.215 3.363 3.038 3.363zm1.881-4.789c0-1.349-.722-2.241-2.09-2.241-1.577 0-2.546 1.197-2.755 2.641l4.825-.02c.02-.094.02-.284.02-.38zM34.934 135.872c-1.596 0-2.755-1.026-2.755-2.413 0-1.558 1.234-2.888 5.281-3.097v-.513c0-1.367-.608-2.07-2.052-2.07-.95 0-2.09.494-2.85 1.045l-.266-1.103c.76-.551 2.09-1.044 3.229-1.044 2.032 0 3.134.911 3.115 3.115v4.18c0 .627.114.893.874.873l-.076.97c-1.14.075-1.767-.381-1.899-1.235h-.058c-.587.741-1.498 1.292-2.543 1.292zm-1.52-2.546c0 .931.741 1.52 1.786 1.52.931 0 1.729-.531 2.261-1.14v-2.545c-2.983.36-4.047 1.007-4.047 2.165zM47.435 130.002c0-1.52-.607-2.204-1.918-2.204-.969 0-1.9.494-2.641 1.235v6.592h-1.178v-8.701l1.178-.246v1.425c.911-.912 2.052-1.425 2.963-1.425 1.748 0 2.774 1.082 2.774 2.982v5.965h-1.179v-5.623zM53.838 135.872c-1.045 0-2.108-.304-2.85-.779l.323-1.083c.74.514 1.672.799 2.564.799 1.045 0 1.956-.514 1.956-1.463 0-1.064-1.102-1.33-2.185-1.691-1.196-.342-2.526-.949-2.526-2.47 0-1.576 1.311-2.507 2.944-2.507.969 0 1.9.266 2.641.646l-.342 1.063c-.74-.398-1.614-.646-2.374-.646-1.064 0-1.748.494-1.748 1.33 0 .987 1.025 1.272 2.146 1.634 1.235.36 2.564.931 2.564 2.545.003 1.577-1.365 2.622-3.113 2.622zM66.606 135.91c-2.944 0-4.787-1.653-4.787-4.636 0-2.944 1.899-4.768 4.863-4.768 1.234 0 2.394.284 3.211.74l-.57 2.204c-.703-.399-1.558-.685-2.337-.685-1.425 0-2.185.97-2.185 2.413 0 1.596.893 2.45 2.261 2.45.893 0 1.653-.228 2.337-.664l.437 2.223c-.741.457-1.938.723-3.23.723zM76.031 135.91c-2.66 0-4.692-1.672-4.692-4.674 0-3.001 2.127-4.729 4.806-4.729s4.674 1.709 4.674 4.673-2.149 4.73-4.788 4.73zm.037-7.181c-1.216 0-1.823.969-1.823 2.488s.627 2.45 1.843 2.45 1.823-.949 1.823-2.47c0-1.499-.627-2.468-1.843-2.468zM84.922 135.644l-3.268-8.853h3.135l1.823 6.061 1.806-6.061h3.153l-3.344 8.853h-3.305zM97.615 133.764c.969 0 1.994-.343 2.888-.855l.284 2.261c-.893.456-2.146.722-3.438.722-2.982 0-4.938-1.652-4.938-4.616 0-2.888 1.976-4.768 4.787-4.768 2.508 0 3.875 1.5 3.875 3.704 0 .475-.057 1.178-.189 1.558l-5.604.095v.038c.093 1.196.89 1.861 2.335 1.861zm.74-3.553c0-1.064-.437-1.69-1.349-1.69-1.007 0-1.614.873-1.71 1.88l3.059-.019v-.171zM103.163 135.625v-8.682l2.926-.361v1.292c.513-.912 1.234-1.367 2.127-1.367.514 0 .988.113 1.463.36l-.589 2.584a2.54 2.54 0 0 0-1.102-.267c-.741 0-1.368.361-1.899 1.292v5.148h-2.926zM113.384 135.91c-1.52 0-2.697-1.083-2.697-2.451 0-1.652 1.253-3.039 5.224-3.134v-.172c0-.931-.475-1.349-1.558-1.349-.912 0-1.957.38-3.002.894l-.607-2.147a8.657 8.657 0 0 1 4.065-1.044c3.039 0 4.084 1.387 4.027 3.855l-.019 2.622c0 .608.113.665.722.722l-.285 2.09c-1.919.247-2.868-.266-3.268-1.234h-.057c-.626.74-1.329 1.348-2.545 1.348zm.057-2.888c0 .589.438.95 1.103.95.589 0 1.063-.229 1.367-.589v-1.691c-1.824.209-2.47.551-2.47 1.33zM120.794 134.618c0-.836.76-1.652 1.823-1.957-1.063-.513-1.785-1.463-1.785-2.735 0-1.919 1.558-3.419 4.198-3.419 1.063 0 2.032.322 2.697.626l2.488-.209.134 2.375-1.71-.266c.151.171.247.665.247.969 0 1.785-1.596 3.191-3.876 3.191-.398 0-.74-.057-1.178-.133-.247.133-.513.342-.513.646 0 .399.456.551 1.614.551h1.045c2.432 0 4.085.608 4.085 2.489 0 2.203-2.641 3.628-5.528 3.628-2.375 0-4.312-.74-4.312-2.299 0-.893.684-1.69 2.108-1.861-.777-.228-1.537-.779-1.537-1.596zm1.995 2.888c0 .684.855 1.159 2.223 1.159 1.425 0 2.508-.438 2.508-1.197 0-.703-.741-.874-2.279-.874-.551 0-1.425-.038-1.748-.057-.4.209-.704.513-.704.969zm2.222-6.003c.894 0 1.292-.646 1.292-1.634 0-.931-.437-1.558-1.349-1.558-.836 0-1.33.646-1.33 1.634.001.931.457 1.558 1.387 1.558zM136.507 133.764c.969 0 1.994-.343 2.888-.855l.284 2.261c-.893.456-2.146.722-3.438.722-2.982 0-4.938-1.652-4.938-4.616 0-2.888 1.976-4.768 4.787-4.768 2.508 0 3.875 1.5 3.875 3.704 0 .475-.057 1.178-.189 1.558l-5.604.095v.038c.093 1.196.891 1.861 2.335 1.861zm.741-3.553c0-1.064-.437-1.69-1.349-1.69-1.007 0-1.614.873-1.71 1.88l3.059-.019v-.171zM151.592 125.253c-.456-.171-.893-.343-1.481-.343-.76 0-1.026.438-1.026 1.292v.703h2.47l-.057 2.299h-2.28v6.421h-2.925v-6.402l-1.521-.113.076-1.862 1.425-.418.02-.76c.076-2.584 1.234-3.666 3.457-3.666 1.083 0 1.919.228 2.394.437-.001-.001-.552 2.43-.552 2.412zM157.501 135.91c-2.66 0-4.692-1.672-4.692-4.674 0-3.001 2.127-4.729 4.806-4.729s4.674 1.709 4.674 4.673-2.148 4.73-4.788 4.73zm.038-7.181c-1.216 0-1.823.969-1.823 2.488s.627 2.45 1.843 2.45 1.823-.949 1.823-2.47c-.001-1.499-.628-2.468-1.843-2.468zM164.342 135.625v-8.682l2.926-.361v1.292c.513-.912 1.234-1.367 2.127-1.367.514 0 .988.113 1.463.36l-.589 2.584a2.54 2.54 0 0 0-1.102-.267c-.741 0-1.368.361-1.899 1.292v5.148h-2.926zM178.363 135.91c-1.52 0-2.697-1.083-2.697-2.451 0-1.652 1.253-3.039 5.224-3.134v-.172c0-.931-.475-1.349-1.558-1.349-.912 0-1.957.38-3.002.894l-.607-2.147a8.657 8.657 0 0 1 4.065-1.044c3.039 0 4.084 1.387 4.027 3.855l-.019 2.622c0 .608.113.665.722.722l-.285 2.09c-1.919.247-2.868-.266-3.268-1.234h-.057c-.626.74-1.329 1.348-2.545 1.348zm.056-2.888c0 .589.438.95 1.103.95.589 0 1.063-.229 1.367-.589v-1.691c-1.823.209-2.47.551-2.47 1.33zM186.287 123.067l2.926-.36v12.918h-2.926v-12.558zM191.739 123.067l2.926-.36v12.918h-2.926v-12.558zM209.066 135.625l-.874-2.526h-4.407l-.854 2.526h-3.002l4.217-11.873h3.781l4.141 11.873h-3.002zm-4.636-4.882h3.097l-1.52-4.654-1.577 4.654zM224.702 130.42c0-1.064-.456-1.425-1.197-1.425-.589 0-1.063.266-1.425.569v6.061h-2.925v-5.205c0-1.064-.476-1.425-1.216-1.425-.589 0-1.064.228-1.425.532v6.098h-2.926v-8.682l2.926-.361v1.235c.778-.817 1.652-1.311 2.812-1.311 1.12 0 2.052.531 2.488 1.576.817-.969 1.843-1.576 3.059-1.576 1.729 0 2.755 1.158 2.755 3.058v6.061h-2.926v-5.205zM234.849 133.764c.969 0 1.994-.343 2.888-.855l.284 2.261c-.893.456-2.146.722-3.438.722-2.982 0-4.938-1.652-4.938-4.616 0-2.888 1.976-4.768 4.787-4.768 2.508 0 3.875 1.5 3.875 3.704 0 .475-.057 1.178-.189 1.558l-5.604.095v.038c.093 1.196.891 1.861 2.335 1.861zm.74-3.553c0-1.064-.437-1.69-1.349-1.69-1.007 0-1.614.873-1.71 1.88l3.059-.019v-.171zM240.397 135.625v-8.682l2.926-.361v1.292c.513-.912 1.234-1.367 2.127-1.367.514 0 .988.113 1.463.36l-.589 2.584a2.54 2.54 0 0 0-1.102-.267c-.741 0-1.368.361-1.899 1.292v5.148h-2.926zM249.916 125.537c-1.064 0-1.729-.551-1.729-1.558 0-1.045.664-1.576 1.729-1.576 1.083 0 1.729.531 1.729 1.576-.001 1.007-.646 1.558-1.729 1.558zm-1.463 1.406l2.926-.361v9.043h-2.926v-8.682zM258.237 135.91c-2.944 0-4.787-1.653-4.787-4.636 0-2.944 1.899-4.768 4.863-4.768 1.234 0 2.394.284 3.211.74l-.57 2.204c-.703-.399-1.558-.685-2.337-.685-1.425 0-2.185.97-2.185 2.413 0 1.596.893 2.45 2.261 2.45.893 0 1.653-.228 2.337-.664l.437 2.223c-.741.457-1.938.723-3.23.723zM265.761 135.91c-1.52 0-2.697-1.083-2.697-2.451 0-1.652 1.253-3.039 5.224-3.134v-.172c0-.931-.475-1.349-1.558-1.349-.912 0-1.957.38-3.002.894l-.607-2.147a8.657 8.657 0 0 1 4.065-1.044c3.039 0 4.084 1.387 4.027 3.855l-.019 2.622c0 .608.113.665.722.722l-.285 2.09c-1.919.247-2.868-.266-3.268-1.234h-.057c-.626.74-1.329 1.348-2.545 1.348zm.057-2.888c0 .589.438.95 1.103.95.589 0 1.063-.229 1.367-.589v-1.691c-1.824.209-2.47.551-2.47 1.33zM279.459 130.4c0-1.063-.476-1.405-1.254-1.405-.665 0-1.216.304-1.596.665v5.965h-2.926v-8.682l2.926-.361v1.444c.778-.894 1.823-1.52 2.963-1.52 1.768 0 2.812 1.14 2.812 3.039v6.079h-2.925V130.4zM288.009 135.91c-1.216 0-2.812-.267-3.742-.779l.569-2.108c1.045.532 2.186.836 3.23.836.798 0 1.196-.247 1.196-.722 0-.514-.494-.685-1.501-.912-2.052-.418-3.362-1.159-3.362-2.888 0-1.652 1.443-2.83 3.895-2.83 1.178 0 2.717.342 3.591.76l-.589 2.089c-1.007-.513-2.204-.798-3.04-.798-.722 0-1.083.229-1.083.665 0 .476.551.665 1.52.874 2.071.456 3.325 1.14 3.325 2.906 0 1.597-1.406 2.907-4.009 2.907zM293.633 130.609h7.182l.057.932h-7.295l.056-.932zM31.914 150.924h1.254l2.014 6.935 2.261-6.915h1.063l2.375 6.953 1.805-6.973h1.292l-2.584 8.739h-1.045l-2.375-7.029-2.374 7.029h-1.026l-2.66-8.739zM46.619 148.93c-.532 0-.798-.418-.798-.874 0-.437.266-.836.798-.836s.798.399.798.836c0 .456-.266.874-.798.874zm-.589 1.994l1.178-.246v8.947H46.03v-8.701zM52.813 159.91c-1.672 0-2.394-.912-2.337-2.735l.133-5.148-1.33-.076.058-.741 1.311-.304.057-1.976h1.121l-.057 2.032h2.906l-.057 1.045H51.73l-.133 5.205c-.038 1.083.38 1.634 1.272 1.634.589 0 1.14-.189 1.672-.418l.209 1.026c-.608.285-1.31.456-1.937.456zM62.843 154.002c0-1.52-.589-2.204-1.861-2.204-1.007 0-1.957.494-2.697 1.235v6.592h-1.178v-12.804l1.178-.247v5.49c.911-.912 2.052-1.387 3.021-1.387 1.69 0 2.717 1.082 2.717 2.982v5.965h-1.179v-5.622zM70.767 159.872c-2.432 0-4.198-1.786-4.198-4.578 0-2.773 1.861-4.616 4.293-4.616s4.18 1.785 4.18 4.578c0 2.773-1.862 4.616-4.275 4.616zm.038-8.131c-1.843 0-3.059 1.463-3.059 3.515 0 2.128 1.235 3.553 3.078 3.553 1.842 0 3.058-1.463 3.058-3.515 0-2.128-1.234-3.553-3.077-3.553zM78.766 156.548c0 1.52.589 2.203 1.881 2.203 1.007 0 1.976-.494 2.679-1.234v-6.593h1.178v8.701l-1.178.247v-1.406c-.894.912-2.033 1.406-3.002 1.406-1.69 0-2.735-1.083-2.735-2.982v-5.966h1.178v5.624zM90.072 159.91c-1.672 0-2.394-.912-2.337-2.735l.133-5.148-1.33-.076.058-.741 1.311-.304.057-1.976h1.121l-.057 2.032h2.906l-.057 1.045h-2.888l-.133 5.205c-.038 1.083.38 1.634 1.272 1.634.589 0 1.14-.189 1.672-.418l.209 1.026c-.608.285-1.31.456-1.937.456zM101.129 159.872c-2.641 0-4.256-1.881-4.256-4.578 0-2.717 1.805-4.616 4.274-4.616 1.063 0 1.976.266 2.717.74l-.304 1.064a4.388 4.388 0 0 0-2.413-.703c-1.899 0-3.059 1.425-3.059 3.477 0 2.128 1.234 3.515 3.077 3.515.894 0 1.748-.285 2.413-.723l.247 1.083a5.194 5.194 0 0 1-2.696.741zM109.983 159.872c-2.432 0-4.198-1.786-4.198-4.578 0-2.773 1.861-4.616 4.293-4.616s4.18 1.785 4.18 4.578c-.001 2.773-1.862 4.616-4.275 4.616zm.038-8.131c-1.843 0-3.059 1.463-3.059 3.515 0 2.128 1.235 3.553 3.078 3.553 1.842 0 3.058-1.463 3.058-3.515 0-2.128-1.234-3.553-3.077-3.553zM120.584 150.734c2.355 0 3.895 1.861 3.895 4.502 0 2.698-1.767 4.636-4.294 4.636-.684 0-1.538-.171-2.127-.456v4.636h-1.178v-13.165l1.178-.247v1.158c.589-.551 1.463-1.064 2.526-1.064zm-.341 8.075c1.881 0 3.021-1.501 3.021-3.553 0-2.014-1.102-3.438-2.869-3.438-.893 0-1.709.38-2.336.969v5.338c.53.437 1.348.684 2.184.684zM129.116 159.872c-1.596 0-2.755-1.026-2.755-2.413 0-1.558 1.234-2.888 5.281-3.097v-.513c0-1.367-.608-2.07-2.052-2.07-.95 0-2.09.494-2.85 1.045l-.266-1.103c.76-.551 2.09-1.044 3.229-1.044 2.032 0 3.134.911 3.115 3.115v4.18c0 .627.114.893.874.873l-.076.97c-1.14.075-1.767-.381-1.899-1.235h-.058c-.587.741-1.498 1.292-2.543 1.292zm-1.521-2.546c0 .931.741 1.52 1.786 1.52.931 0 1.729-.531 2.261-1.14v-2.545c-2.982.36-4.047 1.007-4.047 2.165zM138.407 161.411c-.817 2.146-1.615 2.735-2.812 2.735-.665 0-1.159-.171-1.69-.399l.36-1.082c.438.228.854.38 1.33.38.665 0 1.178-.361 1.785-2.014l.589-1.539-3.4-8.568h1.273l2.735 7.182 2.679-7.182h1.234l-3.381 8.606-.702 1.881zM146.482 159.872c-1.045 0-2.108-.304-2.85-.779l.323-1.083c.74.514 1.672.799 2.564.799 1.045 0 1.957-.514 1.957-1.463 0-1.064-1.103-1.33-2.186-1.691-1.196-.342-2.526-.949-2.526-2.47 0-1.576 1.311-2.507 2.944-2.507.969 0 1.9.266 2.641.646l-.342 1.063c-.74-.398-1.614-.646-2.374-.646-1.064 0-1.748.494-1.748 1.33 0 .987 1.025 1.272 2.146 1.634 1.235.36 2.564.931 2.564 2.545.002 1.577-1.365 2.622-3.113 2.622zM152.523 157.82c.685 0 1.349.607 1.349 1.501 0 1.292-1.063 2.432-2.355 3.286l-.513-.513c1.216-.854 1.672-1.596 1.672-2.261 0-.513-.342-.76-1.178-1.083.056-.474.398-.93 1.025-.93zM166.259 146.574v13.051h-1.178v-.816c-.589.531-1.443 1.063-2.526 1.063-2.355 0-3.895-1.862-3.895-4.521 0-2.697 1.805-4.616 4.312-4.616.741 0 1.52.189 2.108.475v-4.388l1.179-.248zm-3.342 5.224c-1.881 0-3.04 1.482-3.04 3.534 0 2.032 1.121 3.457 2.888 3.457.893 0 1.71-.38 2.317-.969v-5.357c-.533-.437-1.331-.665-2.165-.665zM173.1 158.771c.969 0 1.861-.285 2.526-.723l.229 1.083c-.741.456-1.71.741-2.793.741-2.508 0-4.198-1.862-4.198-4.521 0-2.735 1.748-4.673 4.104-4.673 1.919 0 3.173 1.234 3.173 3.21 0 .456-.058 1.007-.19 1.387l-5.889.038v.095c.056 1.976 1.215 3.363 3.038 3.363zm1.881-4.789c0-1.349-.722-2.241-2.09-2.241-1.577 0-2.546 1.197-2.755 2.641l4.825-.02c.02-.094.02-.284.02-.38zM185.829 146.574v13.051h-1.178v-.816c-.589.531-1.443 1.063-2.526 1.063-2.355 0-3.895-1.862-3.895-4.521 0-2.697 1.805-4.616 4.312-4.616.741 0 1.52.189 2.108.475v-4.388l1.179-.248zm-3.343 5.224c-1.881 0-3.04 1.482-3.04 3.534 0 2.032 1.121 3.457 2.888 3.457.893 0 1.71-.38 2.317-.969v-5.357c-.531-.437-1.33-.665-2.165-.665zM190.105 156.548c0 1.52.589 2.203 1.881 2.203 1.007 0 1.976-.494 2.679-1.234v-6.593h1.178v8.701l-1.178.247v-1.406c-.894.912-2.033 1.406-3.002 1.406-1.69 0-2.735-1.083-2.735-2.982v-5.966h1.178v5.624zM202.702 159.872c-2.641 0-4.256-1.881-4.256-4.578 0-2.717 1.805-4.616 4.274-4.616 1.063 0 1.976.266 2.717.74l-.304 1.064a4.388 4.388 0 0 0-2.413-.703c-1.899 0-3.059 1.425-3.059 3.477 0 2.128 1.234 3.515 3.077 3.515.894 0 1.748-.285 2.413-.723l.247 1.083c-.74.456-1.69.741-2.696.741zM210.416 159.91c-1.672 0-2.394-.912-2.337-2.735l.133-5.148-1.33-.076.058-.741 1.311-.304.057-1.976h1.121l-.057 2.032h2.906l-.057 1.045h-2.888l-.133 5.205c-.038 1.083.38 1.634 1.272 1.634.589 0 1.14-.189 1.672-.418l.209 1.026c-.608.285-1.311.456-1.937.456zM215.317 148.93c-.532 0-.798-.418-.798-.874 0-.437.266-.836.798-.836s.798.399.798.836c0 .456-.266.874-.798.874zm-.589 1.994l1.178-.246v8.947h-1.178v-8.701zM222.422 159.872c-.702 0-1.538-.19-2.127-.475l-1.178.513v-13.089l1.178-.247v5.262c.589-.551 1.481-1.102 2.621-1.102 2.299 0 3.8 1.823 3.8 4.427 0 2.735-1.766 4.711-4.294 4.711zm.267-8.055c-.969 0-1.767.38-2.394.969v5.338c.531.438 1.349.685 2.185.685 1.881 0 3.021-1.501 3.021-3.591-.001-1.976-1.084-3.401-2.812-3.401zM229.264 146.821l1.178-.247v13.051h-1.178v-12.804zM237.281 158.771c.969 0 1.861-.285 2.526-.723l.229 1.083c-.741.456-1.71.741-2.793.741-2.508 0-4.198-1.862-4.198-4.521 0-2.735 1.748-4.673 4.104-4.673 1.919 0 3.173 1.234 3.173 3.21 0 .456-.058 1.007-.19 1.387l-5.889.038v.095c.055 1.976 1.215 3.363 3.038 3.363zm1.881-4.789c0-1.349-.722-2.241-2.09-2.241-1.577 0-2.546 1.197-2.755 2.641l4.825-.02c.02-.094.02-.284.02-.38zM245.089 159.872c-1.045 0-2.108-.304-2.85-.779l.323-1.083c.74.514 1.672.799 2.564.799 1.045 0 1.957-.514 1.957-1.463 0-1.064-1.103-1.33-2.186-1.691-1.196-.342-2.526-.949-2.526-2.47 0-1.576 1.311-2.507 2.944-2.507.969 0 1.9.266 2.641.646l-.342 1.063c-.74-.398-1.614-.646-2.374-.646-1.064 0-1.748.494-1.748 1.33 0 .987 1.025 1.272 2.146 1.634 1.235.36 2.564.931 2.564 2.545.003 1.577-1.365 2.622-3.113 2.622zM251.131 157.82c.685 0 1.349.607 1.349 1.501 0 1.292-1.063 2.432-2.355 3.286l-.513-.513c1.216-.854 1.672-1.596 1.672-2.261 0-.513-.342-.76-1.178-1.083.057-.474.398-.93 1.025-.93zM261.467 159.872c-2.432 0-4.198-1.786-4.198-4.578 0-2.773 1.861-4.616 4.293-4.616s4.18 1.785 4.18 4.578c0 2.773-1.862 4.616-4.275 4.616zm.038-8.131c-1.843 0-3.059 1.463-3.059 3.515 0 2.128 1.235 3.553 3.078 3.553 1.842 0 3.058-1.463 3.058-3.515.001-2.128-1.234-3.553-3.077-3.553zM268.365 159.625v-8.701l1.178-.246v1.861c.589-1.14 1.425-1.861 2.564-1.861.589 0 1.121.171 1.52.398l-.304 1.102a2.539 2.539 0 0 0-1.33-.38c-.912 0-1.767.665-2.45 2.242v5.585h-1.178zM25.338 171.847c-.398-.209-.854-.361-1.329-.361-.97 0-1.444.608-1.444 2.033v1.443H25.3l-.057 1.045h-2.679v7.618h-1.158v-7.58L20 175.95l.076-.741 1.311-.304.02-1.368c.057-2.279 1.102-3.134 2.621-3.134a3.66 3.66 0 0 1 1.596.38c-.019.019-.266 1.083-.286 1.064zM27.866 172.93c-.532 0-.798-.418-.798-.874 0-.437.266-.836.798-.836s.798.399.798.836c0 .456-.266.874-.798.874zm-.589 1.994l1.178-.246v8.947h-1.178v-8.701zM31.153 182.257c0-.74.608-1.349 1.425-1.652-.836-.513-1.405-1.443-1.405-2.659 0-1.843 1.367-3.268 3.419-3.268.912 0 1.577.228 2.052.513l2.413-.19.057 1.178-1.919-.189c.438.437.703 1.254.703 1.957 0 1.842-1.463 3.191-3.381 3.191-.476 0-.855-.096-1.292-.247-.456.209-.969.531-.969 1.045 0 .551.437.893 1.976.893h1.121c2.526 0 3.609.836 3.609 2.279 0 1.9-2.147 3.229-4.579 3.229-2.336 0-3.932-1.025-3.932-2.545 0-.988.74-1.862 1.88-2.147-.741-.286-1.178-.761-1.178-1.388zm.437 3.325c0 1.045 1.121 1.785 2.963 1.785 1.806 0 3.268-.874 3.268-2.052 0-1.045-.893-1.387-2.641-1.387-.589 0-1.311 0-1.823-.057-1.064.286-1.767.97-1.767 1.711zm2.983-5.395c1.349 0 2.166-.931 2.166-2.279 0-1.292-.761-2.261-2.223-2.261-1.368 0-2.186.949-2.186 2.317.001 1.272.818 2.223 2.243 2.223zM46.732 178.002c0-1.52-.589-2.204-1.861-2.204-1.007 0-1.957.494-2.697 1.235v6.592h-1.178v-12.804l1.178-.247v5.49c.911-.912 2.052-1.387 3.021-1.387 1.69 0 2.717 1.082 2.717 2.982v5.965h-1.179v-5.622zM53.42 183.91c-1.672 0-2.394-.912-2.337-2.735l.133-5.148-1.33-.076.058-.741 1.311-.304.057-1.976h1.121l-.057 2.032h2.906l-.057 1.045h-2.888l-.133 5.205c-.038 1.083.38 1.634 1.272 1.634.589 0 1.14-.189 1.672-.418l.209 1.026c-.607.285-1.31.456-1.937.456zM58.323 172.93c-.532 0-.798-.418-.798-.874 0-.437.266-.836.798-.836s.798.399.798.836c0 .456-.266.874-.798.874zm-.589 1.994l1.178-.246v8.947h-1.178v-8.701zM67.859 178.002c0-1.52-.607-2.204-1.918-2.204-.969 0-1.9.494-2.641 1.235v6.592h-1.178v-8.701l1.178-.246v1.425c.911-.912 2.052-1.425 2.963-1.425 1.748 0 2.774 1.082 2.774 2.982v5.965h-1.179v-5.623zM71.641 182.257c0-.74.608-1.349 1.425-1.652-.836-.513-1.405-1.443-1.405-2.659 0-1.843 1.367-3.268 3.419-3.268.912 0 1.577.228 2.052.513l2.413-.19.057 1.178-1.919-.189c.438.437.703 1.254.703 1.957 0 1.842-1.463 3.191-3.381 3.191-.476 0-.855-.096-1.292-.247-.456.209-.969.531-.969 1.045 0 .551.437.893 1.976.893h1.121c2.526 0 3.609.836 3.609 2.279 0 1.9-2.147 3.229-4.579 3.229-2.336 0-3.932-1.025-3.932-2.545 0-.988.74-1.862 1.88-2.147-.74-.286-1.178-.761-1.178-1.388zm.438 3.325c0 1.045 1.121 1.785 2.963 1.785 1.806 0 3.268-.874 3.268-2.052 0-1.045-.893-1.387-2.641-1.387-.589 0-1.311 0-1.823-.057-1.064.286-1.767.97-1.767 1.711zm2.982-5.395c1.349 0 2.166-.931 2.166-2.279 0-1.292-.761-2.261-2.223-2.261-1.368 0-2.186.949-2.186 2.317.001 1.272.818 2.223 2.243 2.223zM83.478 174.924h1.254l2.014 6.935 2.261-6.915h1.063l2.375 6.953 1.805-6.973h1.292l-2.584 8.739h-1.045l-2.375-7.029-2.374 7.029h-1.026l-2.66-8.739zM98.183 172.93c-.532 0-.798-.418-.798-.874 0-.437.266-.836.798-.836s.798.399.798.836c0 .456-.266.874-.798.874zm-.589 1.994l1.178-.246v8.947h-1.178v-8.701zM104.377 183.91c-1.672 0-2.394-.912-2.337-2.735l.133-5.148-1.33-.076.058-.741 1.311-.304.057-1.976h1.121l-.057 2.032h2.906l-.057 1.045h-2.888l-.133 5.205c-.038 1.083.38 1.634 1.272 1.634.589 0 1.14-.189 1.672-.418l.209 1.026c-.607.285-1.31.456-1.937.456zM114.409 178.002c0-1.52-.589-2.204-1.861-2.204-1.007 0-1.957.494-2.697 1.235v6.592h-1.178v-12.804l1.178-.247v5.49c.911-.912 2.052-1.387 3.021-1.387 1.69 0 2.717 1.082 2.717 2.982v5.965h-1.179v-5.622zM122.389 172.93c-.532 0-.798-.418-.798-.874 0-.437.266-.836.798-.836s.798.399.798.836c0 .456-.266.874-.798.874zm-.589 1.994l1.178-.246v8.947H121.8v-8.701zM131.926 178.002c0-1.52-.607-2.204-1.918-2.204-.969 0-1.9.494-2.641 1.235v6.592h-1.178v-8.701l1.178-.246v1.425c.911-.912 2.052-1.425 2.963-1.425 1.748 0 2.774 1.082 2.774 2.982v5.965h-1.179v-5.623zM138.33 183.872c-1.045 0-2.108-.304-2.85-.779l.323-1.083c.74.514 1.672.799 2.564.799 1.045 0 1.957-.514 1.957-1.463 0-1.064-1.103-1.33-2.186-1.691-1.196-.342-2.526-.949-2.526-2.47 0-1.576 1.311-2.507 2.944-2.507.969 0 1.9.266 2.641.646l-.342 1.063c-.74-.398-1.614-.646-2.374-.646-1.064 0-1.748.494-1.748 1.33 0 .987 1.025 1.272 2.146 1.634 1.235.36 2.564.931 2.564 2.545.002 1.577-1.365 2.622-3.113 2.622zM145.113 180.548c0 1.52.589 2.203 1.881 2.203 1.007 0 1.976-.494 2.679-1.234v-6.593h1.178v8.701l-1.178.247v-1.406c-.894.912-2.033 1.406-3.002 1.406-1.69 0-2.735-1.083-2.735-2.982v-5.966h1.178v5.624zM154.024 183.625v-8.701l1.178-.246v1.861c.589-1.14 1.425-1.861 2.564-1.861.589 0 1.121.171 1.52.398l-.304 1.102a2.539 2.539 0 0 0-1.33-.38c-.912 0-1.767.665-2.45 2.242v5.585h-1.178zM163.144 183.872c-1.596 0-2.755-1.026-2.755-2.413 0-1.558 1.234-2.888 5.281-3.097v-.513c0-1.367-.608-2.07-2.052-2.07-.95 0-2.09.494-2.85 1.045l-.266-1.103c.76-.551 2.09-1.044 3.229-1.044 2.032 0 3.134.911 3.115 3.115v4.18c0 .627.114.893.874.873l-.076.97c-1.14.075-1.767-.381-1.899-1.235h-.058c-.587.741-1.498 1.292-2.543 1.292zm-1.52-2.546c0 .931.741 1.52 1.786 1.52.931 0 1.729-.531 2.261-1.14v-2.545c-2.983.36-4.047 1.007-4.047 2.165zM175.644 178.002c0-1.52-.607-2.204-1.918-2.204-.969 0-1.9.494-2.641 1.235v6.592h-1.178v-8.701l1.178-.246v1.425c.911-.912 2.052-1.425 2.963-1.425 1.748 0 2.774 1.082 2.774 2.982v5.965h-1.179v-5.623zM183.625 183.872c-2.641 0-4.256-1.881-4.256-4.578 0-2.717 1.805-4.616 4.274-4.616 1.063 0 1.976.266 2.717.74l-.304 1.064a4.388 4.388 0 0 0-2.413-.703c-1.899 0-3.059 1.425-3.059 3.477 0 2.128 1.234 3.515 3.077 3.515.894 0 1.748-.285 2.413-.723l.247 1.083a5.191 5.191 0 0 1-2.696.741zM192.517 182.771c.969 0 1.861-.285 2.526-.723l.229 1.083c-.741.456-1.71.741-2.793.741-2.508 0-4.198-1.862-4.198-4.521 0-2.735 1.748-4.673 4.104-4.673 1.919 0 3.173 1.234 3.173 3.21 0 .456-.058 1.007-.19 1.387l-5.889.038v.095c.056 1.976 1.215 3.363 3.038 3.363zm1.881-4.789c0-1.349-.722-2.241-2.09-2.241-1.577 0-2.546 1.197-2.755 2.641l4.825-.02c.02-.094.02-.284.02-.38zM204.981 183.872c-2.641 0-4.256-1.881-4.256-4.578 0-2.717 1.805-4.616 4.274-4.616 1.063 0 1.976.266 2.717.74l-.304 1.064a4.388 4.388 0 0 0-2.413-.703c-1.899 0-3.059 1.425-3.059 3.477 0 2.128 1.234 3.515 3.077 3.515.894 0 1.748-.285 2.413-.723l.247 1.083a5.194 5.194 0 0 1-2.696.741zM213.834 183.872c-2.432 0-4.198-1.786-4.198-4.578 0-2.773 1.861-4.616 4.293-4.616s4.18 1.785 4.18 4.578c0 2.773-1.861 4.616-4.275 4.616zm.039-8.131c-1.843 0-3.059 1.463-3.059 3.515 0 2.128 1.235 3.553 3.078 3.553 1.842 0 3.058-1.463 3.058-3.515 0-2.128-1.235-3.553-3.077-3.553zM231.598 178.021c0-1.52-.57-2.223-1.843-2.223-.931 0-1.786.494-2.451 1.121.02.133.038.57.038.779v5.927h-1.178v-5.604c0-1.52-.569-2.223-1.843-2.223-.911 0-1.747.418-2.412 1.007v6.82h-1.178v-8.701l1.178-.246v1.196c.893-.816 1.861-1.196 2.754-1.196 1.083 0 1.919.475 2.356 1.443.969-.969 2.07-1.443 3.077-1.443 1.672 0 2.679 1.082 2.679 3.001v5.946h-1.178v-5.604zM239.598 174.734c2.355 0 3.895 1.861 3.895 4.502 0 2.698-1.767 4.636-4.294 4.636-.684 0-1.538-.171-2.127-.456v4.636h-1.178v-13.165l1.178-.247v1.158c.589-.551 1.463-1.064 2.526-1.064zm-.342 8.075c1.881 0 3.021-1.501 3.021-3.553 0-2.014-1.102-3.438-2.869-3.438-.893 0-1.709.38-2.336.969v5.338c.531.437 1.348.684 2.184.684zM248.129 183.872c-1.596 0-2.755-1.026-2.755-2.413 0-1.558 1.234-2.888 5.281-3.097v-.513c0-1.367-.608-2.07-2.052-2.07-.95 0-2.09.494-2.85 1.045l-.266-1.103c.76-.551 2.09-1.044 3.229-1.044 2.032 0 3.134.911 3.115 3.115v4.18c0 .627.114.893.874.873l-.076.97c-1.14.075-1.767-.381-1.899-1.235h-.058c-.587.741-1.498 1.292-2.543 1.292zm-1.52-2.546c0 .931.741 1.52 1.786 1.52.931 0 1.729-.531 2.261-1.14v-2.545c-2.983.36-4.047 1.007-4.047 2.165zM260.63 178.002c0-1.52-.607-2.204-1.918-2.204-.969 0-1.9.494-2.641 1.235v6.592h-1.178v-8.701l1.178-.246v1.425c.911-.912 2.052-1.425 2.963-1.425 1.748 0 2.774 1.082 2.774 2.982v5.965h-1.179v-5.623zM265.534 172.93c-.532 0-.798-.418-.798-.874 0-.437.266-.836.798-.836s.798.399.798.836c0 .456-.266.874-.798.874zm-.589 1.994l1.178-.246v8.947h-1.178v-8.701zM273 182.771c.969 0 1.861-.285 2.526-.723l.229 1.083c-.741.456-1.71.741-2.793.741-2.508 0-4.198-1.862-4.198-4.521 0-2.735 1.748-4.673 4.104-4.673 1.919 0 3.173 1.234 3.173 3.21 0 .456-.058 1.007-.19 1.387l-5.889.038v.095c.055 1.976 1.214 3.363 3.038 3.363zm1.88-4.789c0-1.349-.722-2.241-2.09-2.241-1.577 0-2.546 1.197-2.755 2.641l4.825-.02c.02-.094.02-.284.02-.38zM280.809 183.872c-1.045 0-2.108-.304-2.85-.779l.323-1.083c.74.514 1.672.799 2.564.799 1.045 0 1.956-.514 1.956-1.463 0-1.064-1.102-1.33-2.185-1.691-1.196-.342-2.526-.949-2.526-2.47 0-1.576 1.311-2.507 2.944-2.507.969 0 1.9.266 2.641.646l-.342 1.063c-.74-.398-1.614-.646-2.374-.646-1.064 0-1.748.494-1.748 1.33 0 .987 1.025 1.272 2.146 1.634 1.235.36 2.564.931 2.564 2.545.002 1.577-1.365 2.622-3.113 2.622zM286.909 183.872c-.552 0-.95-.475-.95-.988a.94.94 0 0 1 .95-.949.94.94 0 0 1 .949.949c0 .513-.399.988-.949.988zM55.262 228.549h-1.329L50 218.233l-.209 10.392h-1.197l.399-11.873h1.634l4.009 10.486 3.951-10.486h1.614l.38 11.873h-1.234l-.19-10.372-3.895 10.296zM67.251 228.872c-2.432 0-4.198-1.786-4.198-4.578 0-2.773 1.861-4.616 4.293-4.616s4.18 1.785 4.18 4.578c0 2.773-1.861 4.616-4.275 4.616zm.039-8.131c-1.843 0-3.059 1.463-3.059 3.515 0 2.128 1.235 3.553 3.078 3.553 1.842 0 3.058-1.463 3.058-3.515 0-2.128-1.235-3.553-3.077-3.553zM76.258 228.872c-1.045 0-2.108-.304-2.85-.779l.323-1.083c.74.514 1.672.799 2.564.799 1.045 0 1.956-.514 1.956-1.463 0-1.064-1.102-1.33-2.185-1.691-1.196-.342-2.526-.949-2.526-2.47 0-1.576 1.311-2.507 2.944-2.507.969 0 1.9.266 2.641.646l-.342 1.063c-.74-.398-1.614-.646-2.374-.646-1.064 0-1.748.494-1.748 1.33 0 .987 1.025 1.272 2.146 1.634 1.235.36 2.564.931 2.564 2.545.003 1.577-1.365 2.622-3.113 2.622zM84.333 228.91c-1.672 0-2.394-.912-2.337-2.735l.133-5.148-1.33-.076.058-.741 1.311-.304.057-1.976h1.121l-.057 2.032h2.906l-.057 1.045H83.25l-.133 5.205c-.038 1.083.38 1.634 1.272 1.634.589 0 1.14-.189 1.672-.418l.209 1.026c-.607.285-1.31.456-1.937.456zM95.884 216.847c-.398-.209-.854-.361-1.329-.361-.97 0-1.444.608-1.444 2.033v1.443h2.735l-.057 1.045H93.11v7.618h-1.158v-7.58l-1.406-.095.076-.741 1.311-.304.02-1.368c.057-2.279 1.102-3.134 2.621-3.134a3.66 3.66 0 0 1 1.596.38c-.019.019-.266 1.083-.286 1.064zM99.818 228.872c-1.596 0-2.755-1.026-2.755-2.413 0-1.558 1.234-2.888 5.281-3.097v-.513c0-1.367-.608-2.07-2.052-2.07-.95 0-2.09.494-2.85 1.045l-.266-1.103c.76-.551 2.09-1.044 3.229-1.044 2.032 0 3.134.911 3.115 3.115v4.18c0 .627.114.893.874.873l-.076.97c-1.14.075-1.767-.381-1.899-1.235h-.058c-.587.741-1.498 1.292-2.543 1.292zm-1.521-2.546c0 .931.741 1.52 1.786 1.52.931 0 1.729-.531 2.261-1.14v-2.545c-2.982.36-4.047 1.007-4.047 2.165zM117.448 223.021c0-1.52-.57-2.223-1.843-2.223-.931 0-1.786.494-2.451 1.121.02.133.038.57.038.779v5.927h-1.178v-5.604c0-1.52-.569-2.223-1.843-2.223-.911 0-1.747.418-2.412 1.007v6.82h-1.178v-8.701l1.178-.246v1.196c.893-.816 1.861-1.196 2.754-1.196 1.083 0 1.919.475 2.356 1.443.969-.969 2.07-1.443 3.077-1.443 1.672 0 2.679 1.082 2.679 3.001v5.946h-1.178v-5.604zM122.351 217.93c-.532 0-.798-.418-.798-.874 0-.437.266-.836.798-.836s.798.399.798.836c0 .456-.266.874-.798.874zm-.589 1.994l1.178-.246v8.947h-1.178v-8.701zM126.152 215.821l1.178-.247v13.051h-1.178v-12.804zM131.11 217.93c-.532 0-.798-.418-.798-.874 0-.437.266-.836.798-.836s.798.399.798.836c0 .456-.266.874-.798.874zm-.589 1.994l1.178-.246v8.947h-1.178v-8.701zM138.577 227.771c.969 0 1.861-.285 2.526-.723l.229 1.083c-.741.456-1.71.741-2.793.741-2.508 0-4.198-1.862-4.198-4.521 0-2.735 1.748-4.673 4.104-4.673 1.919 0 3.173 1.234 3.173 3.21 0 .456-.058 1.007-.19 1.387l-5.889.038v.095c.055 1.976 1.214 3.363 3.038 3.363zm1.881-4.789c0-1.349-.722-2.241-2.09-2.241-1.577 0-2.546 1.197-2.755 2.641l4.825-.02c.02-.094.02-.284.02-.38zM146.386 228.872c-1.045 0-2.108-.304-2.85-.779l.323-1.083c.74.514 1.672.799 2.564.799 1.045 0 1.957-.514 1.957-1.463 0-1.064-1.103-1.33-2.186-1.691-1.196-.342-2.526-.949-2.526-2.47 0-1.576 1.311-2.507 2.944-2.507.969 0 1.9.266 2.641.646l-.342 1.063c-.74-.398-1.614-.646-2.374-.646-1.064 0-1.748.494-1.748 1.33 0 .987 1.025 1.272 2.146 1.634 1.235.36 2.564.931 2.564 2.545.002 1.577-1.365 2.622-3.113 2.622zM154.062 219.924h1.254l2.014 6.935 2.261-6.915h1.063l2.375 6.953 1.805-6.973h1.292l-2.584 8.739h-1.045l-2.375-7.029-2.374 7.029h-1.026l-2.66-8.739zM168.767 217.93c-.532 0-.798-.418-.798-.874 0-.437.266-.836.798-.836s.798.399.798.836c0 .456-.266.874-.798.874zm-.589 1.994l1.178-.246v8.947h-1.178v-8.701zM172.568 215.821l1.178-.247v13.051h-1.178v-12.804zM176.918 215.821l1.178-.247v13.051h-1.178v-12.804zM188.051 219.734c2.355 0 3.895 1.861 3.895 4.502 0 2.698-1.767 4.636-4.294 4.636-.684 0-1.538-.171-2.127-.456v4.636h-1.178v-13.165l1.178-.247v1.158c.589-.551 1.463-1.064 2.526-1.064zm-.342 8.075c1.881 0 3.021-1.501 3.021-3.553 0-2.014-1.102-3.438-2.869-3.438-.893 0-1.709.38-2.336.969v5.338c.531.437 1.349.684 2.184.684zM196.583 228.872c-1.596 0-2.755-1.026-2.755-2.413 0-1.558 1.234-2.888 5.281-3.097v-.513c0-1.367-.608-2.07-2.052-2.07-.95 0-2.09.494-2.85 1.045l-.266-1.103c.76-.551 2.09-1.044 3.229-1.044 2.032 0 3.134.911 3.115 3.115v4.18c0 .627.114.893.874.873l-.076.97c-1.14.075-1.767-.381-1.899-1.235h-.058c-.586.741-1.498 1.292-2.543 1.292zm-1.52-2.546c0 .931.741 1.52 1.786 1.52.931 0 1.729-.531 2.261-1.14v-2.545c-2.983.36-4.047 1.007-4.047 2.165zM205.874 230.411c-.817 2.146-1.615 2.735-2.812 2.735-.665 0-1.159-.171-1.69-.399l.36-1.082c.438.228.854.38 1.33.38.665 0 1.178-.361 1.785-2.014l.589-1.539-3.4-8.568h1.273l2.735 7.182 2.679-7.182h1.234l-3.381 8.606-.702 1.881zM216.932 228.872c-1.596 0-2.755-1.026-2.755-2.413 0-1.558 1.234-2.888 5.281-3.097v-.513c0-1.367-.608-2.07-2.052-2.07-.95 0-2.09.494-2.85 1.045l-.266-1.103c.76-.551 2.09-1.044 3.229-1.044 2.032 0 3.134.911 3.115 3.115v4.18c0 .627.114.893.874.873l-.076.97c-1.14.075-1.767-.381-1.899-1.235h-.058c-.587.741-1.498 1.292-2.543 1.292zm-1.52-2.546c0 .931.741 1.52 1.786 1.52.931 0 1.729-.531 2.261-1.14v-2.545c-2.983.36-4.047 1.007-4.047 2.165zM226.298 227.542c3.135-2.374 5.13-3.704 5.13-5.243 0-1.007-.76-1.785-1.995-1.785-.969 0-1.861.437-2.697 1.102l-.418-1.007c.893-.703 1.938-1.197 3.229-1.197 1.843 0 3.115 1.121 3.115 2.735 0 2.071-2.128 3.438-4.692 5.357h5.13v1.121h-6.802v-1.083zM235.989 228.872c-.552 0-.95-.475-.95-.988a.94.94 0 0 1 .95-.949.94.94 0 0 1 .949.949c0 .513-.398.988-.949.988zM239.085 227.542c3.135-2.374 5.13-3.704 5.13-5.243 0-1.007-.76-1.785-1.995-1.785-.969 0-1.861.437-2.697 1.102l-.418-1.007c.893-.703 1.938-1.197 3.229-1.197 1.843 0 3.115 1.121 3.115 2.735 0 2.071-2.128 3.438-4.692 5.357h5.13v1.121h-6.802v-1.083zM250.427 222.603c-1.938 0-3.153-1.463-3.153-3.134 0-1.729 1.216-3.173 3.153-3.173 1.957 0 3.153 1.443 3.153 3.173.001 1.671-1.196 3.134-3.153 3.134zm0-5.491c-1.443 0-2.279 1.045-2.279 2.356 0 1.234.836 2.317 2.279 2.317s2.299-1.083 2.299-2.317c0-1.311-.855-2.356-2.299-2.356zm-1.71 11.798l9.632-12.425h1.025l-9.612 12.425h-1.045zm8.929.19c-1.956 0-3.153-1.443-3.153-3.172 0-1.672 1.197-3.135 3.153-3.135 1.938 0 3.153 1.463 3.153 3.135 0 1.728-1.216 3.172-3.153 3.172zm0-5.491c-1.443 0-2.279 1.083-2.279 2.318 0 1.311.836 2.355 2.279 2.355 1.444 0 2.299-1.045 2.299-2.355 0-1.235-.855-2.318-2.299-2.318zM26.688 241.93c-.532 0-.798-.418-.798-.874 0-.437.266-.836.798-.836s.798.399.798.836c0 .456-.266.874-.798.874zm-.589 1.994l1.178-.246v8.947h-1.178v-8.701zM36.225 247.002c0-1.52-.607-2.204-1.918-2.204-.969 0-1.9.494-2.641 1.235v6.592h-1.178v-8.701l1.178-.246v1.425c.911-.912 2.052-1.425 2.963-1.425 1.748 0 2.774 1.082 2.774 2.982v5.965h-1.179v-5.623zM44.206 252.872c-2.641 0-4.256-1.881-4.256-4.578 0-2.717 1.805-4.616 4.274-4.616 1.063 0 1.976.266 2.717.74l-.304 1.064a4.388 4.388 0 0 0-2.413-.703c-1.899 0-3.059 1.425-3.059 3.477 0 2.128 1.234 3.515 3.077 3.515.894 0 1.748-.285 2.413-.723l.247 1.083c-.74.456-1.69.741-2.696.741zM53.059 252.872c-2.432 0-4.198-1.786-4.198-4.578 0-2.773 1.861-4.616 4.293-4.616s4.18 1.785 4.18 4.578c-.001 2.773-1.862 4.616-4.275 4.616zm.038-8.131c-1.843 0-3.059 1.463-3.059 3.515 0 2.128 1.235 3.553 3.078 3.553 1.842 0 3.058-1.463 3.058-3.515 0-2.128-1.234-3.553-3.077-3.553zM70.824 247.021c0-1.52-.57-2.223-1.843-2.223-.931 0-1.786.494-2.451 1.121.02.133.038.57.038.779v5.927H65.39v-5.604c0-1.52-.569-2.223-1.843-2.223-.911 0-1.747.418-2.412 1.007v6.82h-1.178v-8.701l1.178-.246v1.196c.893-.816 1.861-1.196 2.754-1.196 1.083 0 1.919.475 2.356 1.443.969-.969 2.07-1.443 3.077-1.443 1.672 0 2.679 1.082 2.679 3.001v5.946h-1.178v-5.604zM78.785 251.771c.969 0 1.861-.285 2.526-.723l.229 1.083c-.741.456-1.71.741-2.793.741-2.508 0-4.198-1.862-4.198-4.521 0-2.735 1.748-4.673 4.104-4.673 1.919 0 3.173 1.234 3.173 3.21 0 .456-.058 1.007-.19 1.387l-5.889.038v.095c.055 1.976 1.214 3.363 3.038 3.363zm1.881-4.789c0-1.349-.722-2.241-2.09-2.241-1.577 0-2.546 1.197-2.755 2.641l4.825-.02c.02-.094.02-.284.02-.38zM83.763 247.458h4.294v1.102h-4.294v-1.102zM93.775 252.872c-.702 0-1.538-.19-2.127-.475l-1.178.513v-13.089l1.178-.247v5.262c.589-.551 1.481-1.102 2.621-1.102 2.299 0 3.8 1.823 3.8 4.427 0 2.735-1.767 4.711-4.294 4.711zm.267-8.055c-.969 0-1.767.38-2.394.969v5.338c.531.438 1.349.685 2.185.685 1.881 0 3.021-1.501 3.021-3.591-.001-1.976-1.084-3.401-2.812-3.401zM102.63 252.872c-1.596 0-2.755-1.026-2.755-2.413 0-1.558 1.234-2.888 5.281-3.097v-.513c0-1.367-.608-2.07-2.052-2.07-.95 0-2.09.494-2.85 1.045l-.266-1.103c.76-.551 2.09-1.044 3.229-1.044 2.032 0 3.134.911 3.115 3.115v4.18c0 .627.114.893.874.873l-.076.97c-1.14.075-1.767-.381-1.899-1.235h-.058c-.587.741-1.498 1.292-2.543 1.292zm-1.52-2.546c0 .931.741 1.52 1.786 1.52.931 0 1.729-.531 2.261-1.14v-2.545c-2.983.36-4.047 1.007-4.047 2.165zM111.502 252.872c-1.045 0-2.108-.304-2.85-.779l.323-1.083c.74.514 1.672.799 2.564.799 1.045 0 1.956-.514 1.956-1.463 0-1.064-1.102-1.33-2.185-1.691-1.196-.342-2.526-.949-2.526-2.47 0-1.576 1.311-2.507 2.944-2.507.969 0 1.9.266 2.641.646l-.342 1.063c-.74-.398-1.614-.646-2.374-.646-1.064 0-1.748.494-1.748 1.33 0 .987 1.025 1.272 2.146 1.634 1.235.36 2.564.931 2.564 2.545.003 1.577-1.365 2.622-3.113 2.622zM120.85 251.771c.969 0 1.861-.285 2.526-.723l.229 1.083c-.741.456-1.71.741-2.793.741-2.508 0-4.198-1.862-4.198-4.521 0-2.735 1.748-4.673 4.104-4.673 1.919 0 3.173 1.234 3.173 3.21 0 .456-.058 1.007-.19 1.387l-5.889.038v.095c.056 1.976 1.215 3.363 3.038 3.363zm1.881-4.789c0-1.349-.722-2.241-2.09-2.241-1.577 0-2.546 1.197-2.755 2.641l4.825-.02c.02-.094.02-.284.02-.38zM133.58 239.574v13.051h-1.178v-.816c-.589.531-1.443 1.063-2.526 1.063-2.355 0-3.895-1.862-3.895-4.521 0-2.697 1.805-4.616 4.312-4.616.741 0 1.52.189 2.108.475v-4.388l1.179-.248zm-3.343 5.224c-1.881 0-3.04 1.482-3.04 3.534 0 2.032 1.121 3.457 2.888 3.457.893 0 1.71-.38 2.317-.969v-5.357c-.532-.437-1.33-.665-2.165-.665zM142.225 252.91c-1.672 0-2.394-.912-2.337-2.735l.133-5.148-1.33-.076.058-.741 1.311-.304.057-1.976h1.121l-.057 2.032h2.906l-.057 1.045h-2.888l-.133 5.205c-.038 1.083.38 1.634 1.272 1.634.589 0 1.14-.189 1.672-.418l.209 1.026c-.608.285-1.31.456-1.937.456zM148.533 252.872c-1.596 0-2.755-1.026-2.755-2.413 0-1.558 1.234-2.888 5.281-3.097v-.513c0-1.367-.608-2.07-2.052-2.07-.95 0-2.09.494-2.85 1.045l-.266-1.103c.76-.551 2.09-1.044 3.229-1.044 2.032 0 3.134.911 3.115 3.115v4.18c0 .627.114.893.874.873l-.076.97c-1.14.075-1.767-.381-1.899-1.235h-.058c-.587.741-1.498 1.292-2.543 1.292zm-1.521-2.546c0 .931.741 1.52 1.786 1.52.931 0 1.729-.531 2.261-1.14v-2.545c-2.982.36-4.047 1.007-4.047 2.165zM157.671 248.959l-2.336 3.666h-1.33l3.001-4.464-2.812-4.237h1.312l2.165 3.382 2.128-3.382h1.311l-2.773 4.199 3.002 4.502h-1.312l-2.356-3.666zM167.4 249.548c0 1.52.589 2.203 1.881 2.203 1.007 0 1.976-.494 2.679-1.234v-6.593h1.178v8.701l-1.178.247v-1.406c-.894.912-2.033 1.406-3.002 1.406-1.69 0-2.735-1.083-2.735-2.982v-5.966h1.178v5.624zM182.047 247.002c0-1.52-.607-2.204-1.918-2.204-.969 0-1.9.494-2.641 1.235v6.592h-1.178v-8.701l1.178-.246v1.425c.911-.912 2.052-1.425 2.963-1.425 1.748 0 2.774 1.082 2.774 2.982v5.965h-1.179v-5.623zM193.372 239.574v13.051h-1.178v-.816c-.589.531-1.443 1.063-2.526 1.063-2.355 0-3.895-1.862-3.895-4.521 0-2.697 1.805-4.616 4.312-4.616.741 0 1.52.189 2.108.475v-4.388l1.179-.248zm-3.343 5.224c-1.881 0-3.04 1.482-3.04 3.534 0 2.032 1.121 3.457 2.888 3.457.893 0 1.71-.38 2.317-.969v-5.357c-.531-.437-1.33-.665-2.165-.665zM200.211 251.771c.969 0 1.861-.285 2.526-.723l.229 1.083c-.741.456-1.71.741-2.793.741-2.508 0-4.198-1.862-4.198-4.521 0-2.735 1.748-4.673 4.104-4.673 1.919 0 3.173 1.234 3.173 3.21 0 .456-.058 1.007-.19 1.387l-5.889.038v.095c.056 1.976 1.215 3.363 3.038 3.363zm1.881-4.789c0-1.349-.722-2.241-2.09-2.241-1.577 0-2.546 1.197-2.755 2.641l4.825-.02c.02-.094.02-.284.02-.38zM205.913 252.625v-8.701l1.178-.246v1.861c.589-1.14 1.425-1.861 2.564-1.861.589 0 1.121.171 1.52.398l-.304 1.102a2.539 2.539 0 0 0-1.33-.38c-.912 0-1.767.665-2.45 2.242v5.585h-1.178zM218.584 252.91c-1.672 0-2.394-.912-2.337-2.735l.133-5.148-1.33-.076.058-.741 1.311-.304.057-1.976h1.121l-.057 2.032h2.906l-.057 1.045h-2.888l-.133 5.205c-.038 1.083.38 1.634 1.272 1.634.589 0 1.14-.189 1.672-.418l.209 1.026c-.607.285-1.31.456-1.937.456zM228.616 247.002c0-1.52-.589-2.204-1.861-2.204-1.007 0-1.957.494-2.697 1.235v6.592h-1.178v-12.804l1.178-.247v5.49c.911-.912 2.052-1.387 3.021-1.387 1.69 0 2.717 1.082 2.717 2.982v5.965h-1.179v-5.622zM233.518 241.93c-.532 0-.798-.418-.798-.874 0-.437.266-.836.798-.836s.798.399.798.836c0 .456-.266.874-.798.874zm-.589 1.994l1.178-.246v8.947h-1.178v-8.701zM239.427 252.872c-1.045 0-2.108-.304-2.85-.779l.323-1.083c.74.514 1.672.799 2.564.799 1.045 0 1.957-.514 1.957-1.463 0-1.064-1.103-1.33-2.186-1.691-1.196-.342-2.526-.949-2.526-2.47 0-1.576 1.311-2.507 2.944-2.507.969 0 1.9.266 2.641.646l-.342 1.063c-.74-.398-1.614-.646-2.374-.646-1.064 0-1.748.494-1.748 1.33 0 .987 1.025 1.272 2.146 1.634 1.235.36 2.564.931 2.564 2.545.002 1.577-1.365 2.622-3.113 2.622zM251.891 243.734c2.355 0 3.895 1.861 3.895 4.502 0 2.698-1.767 4.636-4.294 4.636-.684 0-1.538-.171-2.127-.456v4.636h-1.178v-13.165l1.178-.247v1.158c.589-.551 1.463-1.064 2.526-1.064zm-.342 8.075c1.881 0 3.021-1.501 3.021-3.553 0-2.014-1.102-3.438-2.869-3.438-.893 0-1.709.38-2.336.969v5.338c.531.437 1.348.684 2.184.684zM258.409 239.821l1.178-.247v13.051h-1.178v-12.804zM264.773 252.872c-1.596 0-2.755-1.026-2.755-2.413 0-1.558 1.234-2.888 5.281-3.097v-.513c0-1.367-.608-2.07-2.052-2.07-.95 0-2.09.494-2.85 1.045l-.266-1.103c.76-.551 2.09-1.044 3.229-1.044 2.032 0 3.134.911 3.115 3.115v4.18c0 .627.114.893.874.873l-.076.97c-1.14.075-1.767-.381-1.899-1.235h-.058c-.587.741-1.498 1.292-2.543 1.292zm-1.521-2.546c0 .931.741 1.52 1.786 1.52.931 0 1.729-.531 2.261-1.14v-2.545c-2.982.36-4.047 1.007-4.047 2.165zM277.274 247.002c0-1.52-.607-2.204-1.918-2.204-.969 0-1.9.494-2.641 1.235v6.592h-1.178v-8.701l1.178-.246v1.425c.911-.912 2.052-1.425 2.963-1.425 1.748 0 2.774 1.082 2.774 2.982v5.965h-1.179v-5.623zM281.929 250.82c.685 0 1.349.607 1.349 1.501 0 1.292-1.063 2.432-2.355 3.286l-.513-.513c1.216-.854 1.672-1.596 1.672-2.261 0-.513-.342-.76-1.178-1.083.056-.474.398-.93 1.025-.93zM33.946 276.872c-1.596 0-2.755-1.026-2.755-2.413 0-1.558 1.234-2.888 5.281-3.097v-.513c0-1.367-.608-2.07-2.052-2.07-.95 0-2.09.494-2.85 1.045l-.266-1.103c.76-.551 2.09-1.044 3.229-1.044 2.032 0 3.134.911 3.115 3.115v4.18c0 .627.114.893.874.873l-.076.97c-1.14.075-1.767-.381-1.899-1.235h-.058c-.587.741-1.498 1.292-2.543 1.292zm-1.521-2.546c0 .931.741 1.52 1.786 1.52.931 0 1.729-.531 2.261-1.14v-2.545c-2.982.36-4.047 1.007-4.047 2.165zM46.446 271.002c0-1.52-.607-2.204-1.918-2.204-.969 0-1.9.494-2.641 1.235v6.592h-1.178v-8.701l1.178-.246v1.425c.911-.912 2.052-1.425 2.963-1.425 1.748 0 2.774 1.082 2.774 2.982v5.965h-1.179v-5.623zM57.77 263.574v13.051h-1.178v-.816c-.589.531-1.443 1.063-2.526 1.063-2.355 0-3.895-1.862-3.895-4.521 0-2.697 1.805-4.616 4.312-4.616.741 0 1.52.189 2.108.475v-4.388l1.179-.248zm-3.343 5.224c-1.881 0-3.04 1.482-3.04 3.534 0 2.032 1.121 3.457 2.888 3.457.893 0 1.71-.38 2.317-.969v-5.357c-.531-.437-1.33-.665-2.165-.665zM66.13 276.872c-1.045 0-2.108-.304-2.85-.779l.323-1.083c.74.514 1.672.799 2.564.799 1.045 0 1.957-.514 1.957-1.463 0-1.064-1.103-1.33-2.186-1.691-1.196-.342-2.526-.949-2.526-2.47 0-1.576 1.311-2.507 2.944-2.507.969 0 1.9.266 2.641.646l-.342 1.063c-.74-.398-1.614-.646-2.374-.646-1.064 0-1.748.494-1.748 1.33 0 .987 1.025 1.272 2.146 1.634 1.235.36 2.564.931 2.564 2.545.003 1.577-1.365 2.622-3.113 2.622zM73.826 276.872c-1.596 0-2.755-1.026-2.755-2.413 0-1.558 1.234-2.888 5.281-3.097v-.513c0-1.367-.608-2.07-2.052-2.07-.95 0-2.09.494-2.85 1.045l-.266-1.103c.76-.551 2.09-1.044 3.229-1.044 2.032 0 3.134.911 3.115 3.115v4.18c0 .627.114.893.874.873l-.076.97c-1.14.075-1.767-.381-1.899-1.235h-.058c-.587.741-1.498 1.292-2.543 1.292zm-1.521-2.546c0 .931.741 1.52 1.786 1.52.931 0 1.729-.531 2.261-1.14v-2.545c-2.982.36-4.047 1.007-4.047 2.165zM82.717 276.644l-3.438-8.72h1.273l2.754 7.182 2.66-7.182H87.2l-3.419 8.72h-1.064zM92.654 275.771c.969 0 1.861-.285 2.526-.723l.229 1.083c-.741.456-1.71.741-2.793.741-2.508 0-4.198-1.862-4.198-4.521 0-2.735 1.748-4.673 4.104-4.673 1.919 0 3.173 1.234 3.173 3.21 0 .456-.058 1.007-.19 1.387l-5.889.038v.095c.055 1.976 1.215 3.363 3.038 3.363zm1.881-4.789c0-1.349-.722-2.241-2.09-2.241-1.577 0-2.546 1.197-2.755 2.641l4.825-.02c.02-.094.02-.284.02-.38zM112.299 271.021c0-1.52-.57-2.223-1.843-2.223-.931 0-1.786.494-2.451 1.121.02.133.038.57.038.779v5.927h-1.178v-5.604c0-1.52-.569-2.223-1.843-2.223-.911 0-1.747.418-2.412 1.007v6.82h-1.178v-8.701l1.178-.246v1.196c.893-.816 1.861-1.196 2.754-1.196 1.083 0 1.919.475 2.356 1.443.969-.969 2.07-1.443 3.077-1.443 1.672 0 2.679 1.082 2.679 3.001v5.946h-1.178v-5.604zM120.222 276.872c-2.432 0-4.198-1.786-4.198-4.578 0-2.773 1.861-4.616 4.293-4.616s4.18 1.785 4.18 4.578c0 2.773-1.862 4.616-4.275 4.616zm.038-8.131c-1.843 0-3.059 1.463-3.059 3.515 0 2.128 1.235 3.553 3.078 3.553 1.842 0 3.058-1.463 3.058-3.515 0-2.128-1.234-3.553-3.077-3.553zM127.121 276.625v-8.701l1.178-.246v1.861c.589-1.14 1.425-1.861 2.564-1.861.589 0 1.121.171 1.52.398l-.304 1.102a2.539 2.539 0 0 0-1.33-.38c-.912 0-1.767.665-2.45 2.242v5.585h-1.178zM137.797 275.771c.969 0 1.861-.285 2.526-.723l.229 1.083c-.741.456-1.71.741-2.793.741-2.508 0-4.198-1.862-4.198-4.521 0-2.735 1.748-4.673 4.104-4.673 1.919 0 3.173 1.234 3.173 3.21 0 .456-.058 1.007-.19 1.387l-5.889.038v.095c.056 1.976 1.215 3.363 3.038 3.363zm1.881-4.789c0-1.349-.722-2.241-2.09-2.241-1.577 0-2.546 1.197-2.755 2.641l4.825-.02c.02-.094.02-.284.02-.38zM148.969 276.91c-1.672 0-2.394-.912-2.337-2.735l.133-5.148-1.33-.076.058-.741 1.311-.304.057-1.976h1.121l-.057 2.032h2.906l-.057 1.045h-2.888l-.133 5.205c-.038 1.083.38 1.634 1.272 1.634.589 0 1.14-.189 1.672-.418l.209 1.026c-.608.285-1.31.456-1.937.456zM159 271.002c0-1.52-.589-2.204-1.861-2.204-1.007 0-1.957.494-2.697 1.235v6.592h-1.178v-12.804l1.178-.247v5.49c.911-.912 2.052-1.387 3.021-1.387 1.69 0 2.717 1.082 2.717 2.982v5.965H159v-5.622zM165.309 276.872c-1.596 0-2.755-1.026-2.755-2.413 0-1.558 1.234-2.888 5.281-3.097v-.513c0-1.367-.608-2.07-2.052-2.07-.95 0-2.09.494-2.85 1.045l-.266-1.103c.76-.551 2.09-1.044 3.229-1.044 2.032 0 3.134.911 3.115 3.115v4.18c0 .627.114.893.874.873l-.076.97c-1.14.075-1.767-.381-1.899-1.235h-.058c-.587.741-1.498 1.292-2.543 1.292zm-1.52-2.546c0 .931.741 1.52 1.786 1.52.931 0 1.729-.531 2.261-1.14v-2.545c-2.983.36-4.047 1.007-4.047 2.165zM177.81 271.002c0-1.52-.607-2.204-1.918-2.204-.969 0-1.9.494-2.641 1.235v6.592h-1.178v-8.701l1.178-.246v1.425c.911-.912 2.052-1.425 2.963-1.425 1.748 0 2.774 1.082 2.774 2.982v5.965h-1.179v-5.623zM189.02 263.631l.114-.874h.816l-.247 1.862a6.46 6.46 0 0 1 2.337.911l-.437 1.064a5.445 5.445 0 0 0-2.052-.874l-.589 4.331c1.672.513 3.306 1.292 3.306 3.4 0 1.976-1.634 3.42-4.009 3.42h-.285l-.285 2.09h-.816l.285-2.185a6.848 6.848 0 0 1-2.698-1.007l.438-1.083c.703.475 1.501.854 2.412 1.025 0-.019.152-1.178.323-2.355.095-.703.209-1.481.323-2.355-1.615-.513-3.268-1.178-3.268-3.268 0-1.899 1.558-3.229 3.78-3.229.152 0 .285 0 .437.019.001-.018.058-.456.115-.892zm-.551 4.084c.095-.607.19-1.311.285-2.108h-.285c-1.767 0-2.603.95-2.603 2.033 0 1.196.874 1.672 2.317 2.185-.017-.02.153-1.065.286-2.11zm-.171 8.074c1.69 0 2.812-.969 2.812-2.241 0-1.235-.854-1.786-2.394-2.299l-.608 4.54h.19zM197.171 272.483c2.374 0 3.951 1.501 3.951 3.609 0 2.394-1.824 4.047-4.142 4.047-1.083 0-2.279-.342-3.039-.779l.228-1.158c.76.437 1.786.816 2.85.816 1.672 0 2.906-1.121 2.906-2.868 0-1.444-1.102-2.641-2.868-2.641-1.102 0-1.558.113-2.261.36l-.399-.38.761-5.851h5.642l.058 1.14h-4.73l-.551 3.895c.435-.132.853-.19 1.594-.19zM204.031 274.82c.685 0 1.349.607 1.349 1.501 0 1.292-1.063 2.432-2.355 3.286l-.513-.513c1.216-.854 1.672-1.596 1.672-2.261 0-.513-.342-.76-1.178-1.083.056-.474.398-.93 1.025-.93zM211.288 276.872c-2.603 0-4.559-1.957-4.559-4.73s1.956-4.73 4.559-4.73c2.622 0 4.598 1.957 4.598 4.73s-1.976 4.73-4.598 4.73zm0-8.34c-1.994 0-3.381 1.558-3.381 3.609s1.387 3.609 3.381 3.609c2.033 0 3.42-1.558 3.42-3.609s-1.387-3.609-3.42-3.609zM222.708 276.872c-2.604 0-4.56-1.957-4.56-4.73s1.956-4.73 4.56-4.73c2.621 0 4.597 1.957 4.597 4.73s-1.976 4.73-4.597 4.73zm0-8.34c-1.995 0-3.382 1.558-3.382 3.609s1.387 3.609 3.382 3.609c2.032 0 3.419-1.558 3.419-3.609s-1.387-3.609-3.419-3.609zM234.125 276.872c-2.603 0-4.559-1.957-4.559-4.73s1.956-4.73 4.559-4.73c2.622 0 4.598 1.957 4.598 4.73s-1.975 4.73-4.598 4.73zm0-8.34c-1.994 0-3.381 1.558-3.381 3.609s1.387 3.609 3.381 3.609c2.033 0 3.42-1.558 3.42-3.609s-1.386-3.609-3.42-3.609zM239.084 280.405l4.617-17.116h.949l-4.635 17.116h-.931zM248.717 278.411c-.817 2.146-1.615 2.735-2.812 2.735-.665 0-1.159-.171-1.69-.399l.36-1.082c.438.228.854.38 1.33.38.665 0 1.178-.361 1.785-2.014l.589-1.539-3.4-8.568h1.273l2.735 7.182 2.679-7.182h1.234l-3.381 8.606-.702 1.881zM258.255 275.771c.969 0 1.861-.285 2.526-.723l.229 1.083c-.741.456-1.71.741-2.793.741-2.508 0-4.198-1.862-4.198-4.521 0-2.735 1.748-4.673 4.104-4.673 1.919 0 3.173 1.234 3.173 3.21 0 .456-.058 1.007-.19 1.387l-5.889.038v.095c.056 1.976 1.215 3.363 3.038 3.363zm1.881-4.789c0-1.349-.722-2.241-2.09-2.241-1.577 0-2.546 1.197-2.755 2.641l4.825-.02c.02-.094.02-.284.02-.38zM265.969 276.872c-1.596 0-2.755-1.026-2.755-2.413 0-1.558 1.234-2.888 5.281-3.097v-.513c0-1.367-.608-2.07-2.052-2.07-.95 0-2.09.494-2.85 1.045l-.266-1.103c.76-.551 2.09-1.044 3.229-1.044 2.032 0 3.134.911 3.115 3.115v4.18c0 .627.114.893.874.873l-.076.97c-1.14.075-1.767-.381-1.899-1.235h-.058c-.587.741-1.498 1.292-2.543 1.292zm-1.52-2.546c0 .931.741 1.52 1.786 1.52.931 0 1.729-.531 2.261-1.14v-2.545c-2.983.36-4.047 1.007-4.047 2.165zM272.734 276.625v-8.701l1.178-.246v1.861c.589-1.14 1.425-1.861 2.564-1.861.589 0 1.121.171 1.52.398l-.304 1.102a2.539 2.539 0 0 0-1.33-.38c-.912 0-1.767.665-2.45 2.242v5.585h-1.178zM279.212 276.872c-.552 0-.95-.475-.95-.988a.94.94 0 0 1 .95-.949.94.94 0 0 1 .949.949c.001.513-.398.988-.949.988z"/></g></svg>