<svg xmlns="http://www.w3.org/2000/svg" width="297.802" height="469.5" viewBox="0 0 297.802 469.5"><path fill="#FF336C" d="M73.361 396.413H48.174a2.41 2.41 0 0 1-2.406-2.409v-34.371a2.41 2.41 0 0 1 2.406-2.407h25.187a2.41 2.41 0 0 1 2.407 2.407v34.371a2.411 2.411 0 0 1-2.407 2.409zM48.174 358.23c-.773 0-1.403.629-1.403 1.402v34.371c0 .773.63 1.403 1.403 1.403h25.187c.774 0 1.403-.63 1.403-1.403v-34.371c0-.773-.63-1.402-1.403-1.402H48.174z"/><path fill="#FF336C" d="M72.33 367.006a.507.507 0 0 1-.505.505H49.538a.507.507 0 0 1-.505-.505v-4.885c0-.277.227-.505.505-.505h22.287c.278 0 .505.228.505.505v4.885z"/><path fill="#FF336C" d="M71.825 368.013H49.538a1.008 1.008 0 0 1-1.007-1.007v-4.885a1.01 1.01 0 0 1 1.007-1.008h22.287c.555 0 1.006.451 1.006 1.008v4.885c0 .555-.452 1.007-1.006 1.007zm0-1.005v.503-.503zm-22.287-4.89l-.001 4.888 22.288.002.002-4.887-22.289-.003zM52.737 371.59v2.347h-2.698v-2.347h2.698m.5-1.006h-3.699a.507.507 0 0 0-.505.505v3.349c0 .276.227.504.505.504h3.699a.506.506 0 0 0 .504-.504v-3.349a.506.506 0 0 0-.504-.505zM58.933 371.59v2.347h-2.699v-2.347h2.699m.501-1.006h-3.702a.507.507 0 0 0-.504.505v3.349c0 .276.228.504.504.504h3.702a.506.506 0 0 0 .503-.504v-3.349a.506.506 0 0 0-.503-.505zM65.128 371.59v2.347h-2.699v-2.347h2.699m.501-1.006h-3.701a.507.507 0 0 0-.504.505v3.349c0 .276.227.504.504.504h3.701a.507.507 0 0 0 .505-.504v-3.349a.507.507 0 0 0-.505-.505zM71.324 371.59v2.347h-2.698v-2.347h2.698m.501-1.006h-3.7a.507.507 0 0 0-.505.505v3.349c0 .276.228.504.505.504h3.7a.507.507 0 0 0 .505-.504v-3.349a.507.507 0 0 0-.505-.505zM52.737 377.74v2.346h-2.698v-2.346h2.698m.5-1.005h-3.699a.506.506 0 0 0-.505.503v3.35c0 .277.227.504.505.504h3.699a.505.505 0 0 0 .504-.504v-3.35a.506.506 0 0 0-.504-.503zM58.933 377.74v2.346h-2.699v-2.346h2.699m.501-1.005h-3.702a.507.507 0 0 0-.504.503v3.35c0 .277.228.504.504.504h3.702a.506.506 0 0 0 .503-.504v-3.35a.506.506 0 0 0-.503-.503zM65.128 377.74v2.346h-2.699v-2.346h2.699m.501-1.005h-3.701a.506.506 0 0 0-.504.503v3.35c0 .277.227.504.504.504h3.701a.507.507 0 0 0 .505-.504v-3.35a.507.507 0 0 0-.505-.503zM71.324 377.74v2.346h-2.698v-2.346h2.698m.501-1.005h-3.7a.507.507 0 0 0-.505.503v3.35c0 .277.228.504.505.504h3.7a.506.506 0 0 0 .505-.504v-3.35a.506.506 0 0 0-.505-.503zM52.737 383.89v2.347h-2.698v-2.347h2.698m.5-1.005h-3.699a.506.506 0 0 0-.505.504v3.349c0 .276.227.503.505.503h3.699a.505.505 0 0 0 .504-.503v-3.349a.505.505 0 0 0-.504-.504zM58.933 383.89v2.347h-2.699v-2.347h2.699m.501-1.005h-3.702a.506.506 0 0 0-.504.504v3.349c0 .276.228.503.504.503h3.702a.505.505 0 0 0 .503-.503v-3.349a.506.506 0 0 0-.503-.504zM65.128 383.89v2.347h-2.699v-2.347h2.699m.501-1.005h-3.701a.506.506 0 0 0-.504.504v3.349c0 .276.227.503.504.503h3.701a.506.506 0 0 0 .505-.503v-3.349a.507.507 0 0 0-.505-.504zM52.737 390.039v2.348h-2.698v-2.348h2.698m.5-1.004h-3.699a.506.506 0 0 0-.505.504v3.348c0 .277.227.504.505.504h3.699a.505.505 0 0 0 .504-.504v-3.348a.505.505 0 0 0-.504-.504zM58.933 390.039v2.348h-2.699v-2.348h2.699m.501-1.004h-3.702a.506.506 0 0 0-.504.504v3.348c0 .277.228.504.504.504h3.702a.506.506 0 0 0 .503-.504v-3.348a.506.506 0 0 0-.503-.504zM65.128 390.039v2.348h-2.699v-2.348h2.699m.501-1.004h-3.701a.506.506 0 0 0-.504.504v3.348c0 .277.227.504.504.504h3.701a.507.507 0 0 0 .505-.504v-3.348a.507.507 0 0 0-.505-.504zM71.324 383.89v8.497h-2.698v-8.497h2.698m.501-1.005h-3.7a.507.507 0 0 0-.505.504v9.498c0 .277.228.504.505.504h3.7a.506.506 0 0 0 .505-.504v-9.497a.506.506 0 0 0-.505-.505z"/><g fill="#FF336C"><path d="M89.922 358.957c-1.755 0-3.068 1.26-3.068 3.471 0 2.145 1.235 3.484 3.094 3.484.885 0 1.717-.312 2.275-.729l.156.818c-.611.404-1.495.664-2.444.664-2.354 0-3.926-1.651-3.926-4.213 0-2.587 1.65-4.251 3.926-4.251.988 0 1.898.3 2.509.663l-.26.741a4.128 4.128 0 0 0-2.262-.648zM94.355 358.371h.832v7.346h4.018v.779h-4.85v-8.125zM100.894 358.371h.818v8.125h-.818v-8.125zM107.616 358.957c-1.755 0-3.068 1.26-3.068 3.471 0 2.145 1.235 3.484 3.094 3.484.885 0 1.717-.312 2.275-.729l.156.818c-.611.404-1.495.664-2.444.664-2.354 0-3.926-1.651-3.926-4.213 0-2.587 1.65-4.251 3.926-4.251.988 0 1.898.3 2.509.663l-.26.741a4.13 4.13 0 0 0-2.262-.648zM116.651 358.371h1.065l-4.017 4.03 4.082 4.095h-1.079l-3.81-3.887h-.013v3.887h-.832v-8.125h.832v3.9h.013l3.759-3.9zM127.024 362.791h-4.758v3.705h-.832v-8.125h.832v3.666h4.758v-3.666h.832v8.125h-.832v-3.705zM130.235 358.371h4.914v.768h-4.082v2.912h3.406v.754h-3.406v2.925h4.082v.767h-4.914v-8.126zM137.125 366.496v-8.125h2.184c2.016 0 2.951.924 2.951 2.34 0 1.209-.845 1.977-1.885 2.289l2.249 3.496h-.962l-2.08-3.354-1.625.104v3.25h-.832zm4.302-5.746c0-1.078-.793-1.625-2.21-1.625h-1.261v3.381l1.456-.053c1.08-.039 2.015-.623 2.015-1.703zM144.3 358.371h4.914v.768h-4.082v2.912h3.406v.754h-3.406v2.925h4.082v.767H144.3v-8.126zM156.248 366.496h-.832v-7.345h-2.86v-.78h6.553v.78h-2.86v7.345zM164.177 366.666c-2.249 0-3.991-1.703-3.991-4.213 0-2.496 1.677-4.251 4.004-4.251 2.262 0 3.991 1.703 3.991 4.199 0 2.484-1.677 4.265-4.004 4.265zm-.013-7.723c-1.819 0-3.133 1.417-3.133 3.458 0 2.093 1.352 3.522 3.186 3.522 1.807 0 3.12-1.43 3.12-3.471-.001-2.092-1.327-3.509-3.173-3.509zM175.721 358.957c-1.755 0-3.068 1.26-3.068 3.471 0 2.145 1.235 3.484 3.094 3.484.885 0 1.717-.312 2.275-.729l.156.818c-.611.404-1.495.664-2.444.664-2.354 0-3.926-1.651-3.926-4.213 0-2.587 1.65-4.251 3.926-4.251.988 0 1.898.3 2.509.663l-.26.741a4.128 4.128 0 0 0-2.262-.648zM185.549 366.496l-.858-2.326h-3.679l-.858 2.326h-.845l3.081-8.125h.975l3.029 8.125h-.845zm-4.251-3.08h3.106l-1.547-4.226-1.559 4.226zM187.928 358.371h.832v7.346h4.018v.779h-4.85v-8.125zM197.47 358.957c-1.755 0-3.068 1.26-3.068 3.471 0 2.145 1.235 3.484 3.094 3.484.885 0 1.717-.312 2.275-.729l.156.818c-.611.404-1.495.664-2.444.664-2.353 0-3.926-1.651-3.926-4.213 0-2.587 1.65-4.251 3.926-4.251.988 0 1.898.3 2.509.663l-.26.741a4.128 4.128 0 0 0-2.262-.648zM204.854 366.666c-1.938 0-3.042-1.223-3.042-3.146v-5.148h.806v5.045c0 1.56.754 2.482 2.275 2.482 1.456 0 2.223-.871 2.223-2.496v-5.031h.819v5.019c0 2.013-1.053 3.275-3.081 3.275zM210.209 358.371h.832v7.346h4.018v.779h-4.85v-8.125zM222.313 366.496l-.858-2.326h-3.679l-.858 2.326h-.845l3.081-8.125h.975l3.029 8.125h-.845zm-4.251-3.08h3.106l-1.547-4.226-1.559 4.226zM226.993 366.496h-.832v-7.345h-2.86v-.78h6.553v.78h-2.86v7.345zM231.491 358.371h4.914v.768h-4.082v2.912h3.406v.754h-3.406v2.925h4.082v.767h-4.914v-8.126zM89.22 381.496h-.832v-3.263l-2.834-4.862h.936l2.34 4.043 2.302-4.043h.923l-2.834 4.862v3.263zM96.981 381.666c-2.249 0-3.991-1.703-3.991-4.213 0-2.496 1.677-4.251 4.004-4.251 2.262 0 3.991 1.703 3.991 4.199 0 2.484-1.677 4.265-4.004 4.265zm-.014-7.723c-1.819 0-3.133 1.417-3.133 3.458 0 2.093 1.353 3.522 3.186 3.522 1.807 0 3.12-1.43 3.12-3.471 0-2.092-1.326-3.509-3.173-3.509zM105.886 381.666c-1.938 0-3.042-1.223-3.042-3.146v-5.148h.806v5.045c0 1.56.754 2.482 2.275 2.482 1.456 0 2.223-.871 2.223-2.496v-5.031h.819v5.019c0 2.013-1.052 3.275-3.081 3.275zM111.242 381.496v-8.125h2.184c2.016 0 2.951.924 2.951 2.34 0 1.209-.845 1.977-1.885 2.289l2.249 3.496h-.962l-2.08-3.354-1.625.104v3.25h-.832zm4.302-5.746c0-1.078-.793-1.625-2.21-1.625h-1.261v3.381l1.456-.053c1.08-.039 2.015-.623 2.015-1.703zM124.515 379.391c0-.949-.78-1.326-2.054-1.703-1.145-.352-2.366-.832-2.366-2.275 0-1.3 1.092-2.21 2.6-2.21.937 0 1.755.247 2.444.702l-.299.729c-.611-.416-1.404-.676-2.132-.676-1.21 0-1.808.649-1.808 1.391 0 .884.806 1.248 2.054 1.625 1.184.351 2.354.884 2.354 2.354 0 1.352-1.118 2.34-2.743 2.34a4.86 4.86 0 0 1-2.613-.754l.299-.742c.663.455 1.404.754 2.341.754 1.13-.002 1.923-.664 1.923-1.535zM132.588 381.496l-.858-2.326h-3.679l-.858 2.326h-.845l3.081-8.125h.975l3.029 8.125h-.845zm-4.251-3.08h3.106l-1.547-4.226-1.559 4.226zM136.644 381.496l-2.978-8.125h.845l2.64 7.268 2.626-7.268h.845l-3.003 8.125h-.975zM142.117 373.371h.818v8.125h-.818v-8.125zM151.71 373.371v8.203h-.897l-4.654-7.033v6.955h-.806v-8.125h.936l4.615 6.969v-6.969h.806zM157.599 381.666c-2.354 0-3.926-1.651-3.926-4.213 0-2.587 1.65-4.251 3.926-4.251 1.001 0 1.963.312 2.574.677l-.273.754c-.61-.403-1.469-.676-2.313-.676-1.755 0-3.068 1.26-3.068 3.471 0 2.145 1.235 3.484 3.094 3.484.78 0 1.431-.195 1.95-.494v-2.211h-2.353v-.754h3.159v3.406c-.793.534-1.833.807-2.77.807zM166.517 379.391c0-.949-.78-1.326-2.054-1.703-1.145-.352-2.366-.832-2.366-2.275 0-1.3 1.092-2.21 2.6-2.21.937 0 1.755.247 2.444.702l-.299.729c-.611-.416-1.404-.676-2.132-.676-1.21 0-1.808.649-1.808 1.391 0 .884.806 1.248 2.054 1.625 1.184.351 2.354.884 2.354 2.354 0 1.352-1.118 2.34-2.743 2.34a4.86 4.86 0 0 1-2.613-.754l.299-.742c.663.455 1.404.754 2.341.754 1.13-.002 1.923-.664 1.923-1.535zM174.252 381.666c-1.938 0-3.042-1.223-3.042-3.146v-5.148h.806v5.045c0 1.56.754 2.482 2.275 2.482 1.456 0 2.223-.871 2.223-2.496v-5.031h.819v5.019c0 2.013-1.052 3.275-3.081 3.275zM185.965 373.371v8.203h-.897l-4.654-7.033v6.955h-.806v-8.125h.937l4.614 6.969v-6.969h.806zM190.502 381.496h-2.146v-8.125h2.21c2.665 0 4.304 1.6 4.304 4.004.001 2.549-1.599 4.121-4.368 4.121zm.013-7.357h-1.326v6.591h1.352c2.08 0 3.498-1.065 3.498-3.289 0-2.081-1.288-3.302-3.524-3.302zM196.82 373.371h4.914v.768h-4.082v2.912h3.406v.754h-3.406v2.925h4.082v.767h-4.914v-8.126zM203.709 381.496v-8.125h2.185c2.015 0 2.95.924 2.95 2.34 0 1.209-.845 1.977-1.885 2.289l2.249 3.496h-.962l-2.08-3.354-1.625.104v3.25h-.832zm4.303-5.746c0-1.078-.793-1.625-2.21-1.625h-1.261v3.381l1.456-.053c1.08-.039 2.015-.623 2.015-1.703zM92.002 394.234c0 1.312-.884 2.262-2.926 2.262h-2.639v-8.125h2.535c1.95 0 2.769.885 2.769 2.119 0 .793-.468 1.573-1.56 1.846 1.197.248 1.821.949 1.821 1.898zm-2.99-5.109H87.27v2.926h1.612c1.234 0 2.027-.521 2.027-1.496.001-.883-.597-1.43-1.897-1.43zm-.078 3.68H87.27v2.938h1.872c1.443 0 2.028-.572 2.028-1.508 0-.95-.78-1.43-2.236-1.43zM93.887 388.371h4.914v.768h-4.082v2.912h3.406v.754h-3.406v2.925h4.082v.767h-4.914v-8.126zM100.777 396.496v-8.125h2.184c2.016 0 2.951.924 2.951 2.34 0 1.209-.845 1.977-1.885 2.289l2.249 3.496h-.962l-2.08-3.354-1.625.104v3.25h-.832zm4.303-5.746c0-1.078-.793-1.625-2.21-1.625h-1.261v3.381l1.456-.053c1.079-.039 2.015-.623 2.015-1.703zM114.31 388.371v8.203h-.897l-4.654-7.033v6.955h-.806v-8.125h.936l4.615 6.969v-6.969h.806zM116.728 388.371h.818v8.125h-.818v-8.125zM119.964 388.371h4.914v.768h-4.082v2.912h3.406v.754h-3.406v2.925h4.082v.767h-4.914v-8.126zM126.997 387.942c.469 0 .924.416.924 1.026 0 .871-.716 1.652-1.612 2.236l-.352-.324c.832-.611 1.145-1.092 1.145-1.561 0-.325-.234-.507-.806-.729.037-.349.272-.648.701-.648zM133.576 394.391c0-.949-.78-1.326-2.054-1.703-1.145-.352-2.366-.832-2.366-2.275 0-1.3 1.092-2.21 2.6-2.21.937 0 1.755.247 2.444.702l-.299.729c-.611-.416-1.404-.676-2.132-.676-1.21 0-1.808.649-1.808 1.391 0 .884.806 1.248 2.054 1.625 1.184.351 2.354.884 2.354 2.354 0 1.352-1.118 2.34-2.743 2.34a4.86 4.86 0 0 1-2.613-.754l.299-.742c.663.455 1.404.754 2.341.754 1.13-.002 1.923-.664 1.923-1.535zM143.949 392.791h-4.758v3.705h-.832v-8.125h.832v3.666h4.758v-3.666h.832v8.125h-.832v-3.705zM147.16 388.371h4.914v.768h-4.082v2.912h3.406v.754h-3.406v2.925h4.082v.767h-4.914v-8.126zM159.445 396.496l-.858-2.326h-3.679l-.858 2.326h-.845l3.081-8.125h.975l3.029 8.125h-.845zm-4.252-3.08h3.107l-1.547-4.226-1.56 4.226zM161.824 388.371h.832v7.346h4.018v.779h-4.85v-8.125zM170.183 396.496h-.832v-7.345h-2.86v-.78h6.553v.78h-2.86v7.345zM180.27 392.791h-4.758v3.705h-.832v-8.125h.832v3.666h4.758v-3.666h.832v8.125h-.832v-3.705zM189.072 388.957c-1.755 0-3.068 1.26-3.068 3.471 0 2.145 1.235 3.484 3.094 3.484.885 0 1.717-.312 2.275-.729l.156.818c-.611.404-1.495.664-2.444.664-2.353 0-3.926-1.651-3.926-4.213 0-2.587 1.65-4.251 3.926-4.251.988 0 1.898.3 2.509.663l-.26.741a4.13 4.13 0 0 0-2.262-.648zM198.9 396.496l-.858-2.326h-3.679l-.858 2.326h-.845l3.081-8.125h.975l3.029 8.125h-.845zm-4.252-3.08h3.107l-1.547-4.226-1.56 4.226zM201.279 396.496v-8.125h2.184c2.016 0 2.951.924 2.951 2.34 0 1.209-.845 1.977-1.885 2.289l2.249 3.496h-.962l-2.08-3.354-1.625.104v3.25h-.832zm4.303-5.746c0-1.078-.793-1.625-2.21-1.625h-1.261v3.381l1.456-.053c1.079-.039 2.015-.623 2.015-1.703zM208.455 388.371h4.914v.768h-4.082v2.912h3.406v.754h-3.406v2.925h4.082v.767h-4.914v-8.126zM219.387 393.623l-1.105.014v2.859h-.832v-8.125h2.041c2.146 0 3.172 1.04 3.172 2.535 0 1.782-1.248 2.678-3.276 2.717zm.077-4.484h-1.183v3.73l1.157-.025c1.547-.039 2.366-.637 2.366-1.898.001-1.157-.818-1.807-2.34-1.807zM224.496 388.371h.832v7.346h4.018v.779h-4.85v-8.125zM236.599 396.496l-.858-2.326h-3.679l-.858 2.326h-.845l3.081-8.125h.975l3.029 8.125h-.845zm-4.252-3.08h3.107l-1.547-4.226-1.56 4.226zM245.335 388.371v8.203h-.897l-4.654-7.033v6.955h-.806v-8.125h.936l4.615 6.969v-6.969h.806zM247.779 396.666c-.377 0-.649-.326-.649-.676 0-.352.272-.65.649-.65s.65.299.65.65c0 .35-.273.676-.65.676z"/></g><g><path fill="none" stroke="#FF336C" stroke-miterlimit="10" d="M263.4 400.604c0 4.4-3.6 8-8 8H42.402c-4.4 0-8-3.6-8-8v-47.666c0-4.4 3.6-8 8-8H255.4c4.4 0 8 3.6 8 8v47.666z"/></g><g fill="#070042"><path d="M50.965 45.694c0 1.919-1.292 3.306-4.274 3.306h-3.856V37.127h3.705c2.85 0 4.046 1.292 4.046 3.097 0 1.158-.684 2.298-2.279 2.697 1.746.361 2.658 1.387 2.658 2.773zm-4.369-7.465H44.05v4.274h2.355c1.805 0 2.964-.76 2.964-2.185.001-1.292-.873-2.089-2.773-2.089zm-.114 5.375H44.05v4.294h2.735c2.109 0 2.964-.836 2.964-2.204.001-1.386-1.139-2.09-3.267-2.09zM57.236 48.146c.969 0 1.861-.285 2.526-.723l.229 1.083c-.741.456-1.71.741-2.793.741-2.508 0-4.198-1.862-4.198-4.521 0-2.735 1.748-4.673 4.104-4.673 1.919 0 3.173 1.234 3.173 3.21 0 .456-.058 1.007-.19 1.387l-5.889.038v.095c.055 1.976 1.215 3.363 3.038 3.363zm1.881-4.789c0-1.349-.722-2.241-2.09-2.241-1.577 0-2.546 1.197-2.755 2.641l4.825-.02c.02-.094.02-.284.02-.38zM62.937 49v-8.701l1.178-.246v1.861c.589-1.14 1.425-1.861 2.564-1.861.589 0 1.121.171 1.52.398l-.304 1.102a2.539 2.539 0 0 0-1.33-.38c-.912 0-1.767.665-2.45 2.242V49h-1.178zM75.874 43.377c0-1.52-.607-2.204-1.918-2.204-.969 0-1.9.494-2.641 1.235V49h-1.178v-8.701l1.178-.246v1.425c.911-.912 2.052-1.425 2.963-1.425 1.748 0 2.774 1.082 2.774 2.982V49h-1.179v-5.623zM80.777 38.305c-.532 0-.798-.418-.798-.874 0-.437.266-.836.798-.836s.798.399.798.836c0 .456-.266.874-.798.874zm-.589 1.994l1.178-.246V49h-1.178v-8.701zM88.244 48.146c.969 0 1.861-.285 2.526-.723l.229 1.083c-.741.456-1.71.741-2.793.741-2.508 0-4.198-1.862-4.198-4.521 0-2.735 1.748-4.673 4.104-4.673 1.919 0 3.173 1.234 3.173 3.21 0 .456-.058 1.007-.19 1.387l-5.889.038v.095c.055 1.976 1.214 3.363 3.038 3.363zm1.881-4.789c0-1.349-.722-2.241-2.09-2.241-1.577 0-2.546 1.197-2.755 2.641l4.825-.02c.02-.094.02-.284.02-.38zM94.304 36.5c.685 0 1.349.607 1.349 1.501 0 1.272-1.045 2.412-2.355 3.268l-.513-.476c1.216-.893 1.672-1.596 1.672-2.279 0-.475-.342-.741-1.178-1.063.056-.514.398-.951 1.025-.951zM99.567 49.247c-1.045 0-2.108-.304-2.85-.779l.323-1.083c.74.514 1.672.799 2.564.799 1.045 0 1.956-.514 1.956-1.463 0-1.064-1.102-1.33-2.185-1.691-1.196-.342-2.526-.949-2.526-2.47 0-1.576 1.311-2.507 2.944-2.507.969 0 1.9.266 2.641.646l-.342 1.063c-.74-.398-1.614-.646-2.374-.646-1.064 0-1.748.494-1.748 1.33 0 .987 1.025 1.272 2.146 1.634 1.235.36 2.564.931 2.564 2.545.002 1.577-1.365 2.622-3.113 2.622zM112.031 40.109c2.355 0 3.895 1.861 3.895 4.502 0 2.698-1.767 4.636-4.294 4.636-.684 0-1.538-.171-2.127-.456v4.636h-1.178V40.262l1.178-.247v1.158c.588-.551 1.462-1.064 2.526-1.064zm-.342 8.075c1.881 0 3.021-1.501 3.021-3.553 0-2.014-1.102-3.438-2.869-3.438-.893 0-1.709.38-2.336.969V47.5c.531.437 1.348.684 2.184.684zM118.548 36.196l1.178-.247V49h-1.178V36.196zM124.914 49.247c-1.596 0-2.755-1.026-2.755-2.413 0-1.558 1.234-2.888 5.281-3.097v-.513c0-1.367-.608-2.07-2.052-2.07-.95 0-2.09.494-2.85 1.045l-.266-1.103c.76-.551 2.09-1.044 3.229-1.044 2.032 0 3.134.911 3.115 3.115v4.18c0 .627.114.893.874.873l-.076.97c-1.14.075-1.767-.381-1.899-1.235h-.058c-.587.741-1.499 1.292-2.543 1.292zm-1.521-2.546c0 .931.741 1.52 1.786 1.52.931 0 1.729-.531 2.261-1.14v-2.545c-2.982.36-4.047 1.007-4.047 2.165zM137.414 43.377c0-1.52-.607-2.204-1.918-2.204-.969 0-1.9.494-2.641 1.235V49h-1.178v-8.701l1.178-.246v1.425c.911-.912 2.052-1.425 2.963-1.425 1.748 0 2.774 1.082 2.774 2.982V49h-1.179v-5.623zM143.705 40.299h1.254l2.014 6.935 2.261-6.915h1.063l2.375 6.953 1.805-6.973h1.292l-2.584 8.739h-1.045l-2.375-7.029-2.374 7.029h-1.026l-2.66-8.739zM161.335 49.247c-2.432 0-4.198-1.786-4.198-4.578 0-2.773 1.861-4.616 4.293-4.616s4.18 1.785 4.18 4.578c0 2.773-1.861 4.616-4.275 4.616zm.039-8.131c-1.843 0-3.059 1.463-3.059 3.515 0 2.128 1.235 3.553 3.078 3.553 1.842 0 3.058-1.463 3.058-3.515 0-2.128-1.235-3.553-3.077-3.553zM169.334 45.923c0 1.52.589 2.203 1.881 2.203 1.007 0 1.976-.494 2.679-1.234v-6.593h1.178V49l-1.178.247v-1.406c-.894.912-2.033 1.406-3.002 1.406-1.69 0-2.735-1.083-2.735-2.982v-5.966h1.178v5.624zM178.246 36.196l1.178-.247V49h-1.178V36.196zM189.625 35.949V49h-1.178v-.816c-.589.531-1.443 1.063-2.526 1.063-2.355 0-3.895-1.862-3.895-4.521 0-2.697 1.805-4.616 4.312-4.616.741 0 1.52.189 2.108.475v-4.388l1.179-.248zm-3.342 5.224c-1.881 0-3.04 1.482-3.04 3.534 0 2.032 1.121 3.457 2.888 3.457.893 0 1.71-.38 2.317-.969v-5.357c-.531-.437-1.33-.665-2.165-.665zM199.563 49.247c-2.641 0-4.256-1.881-4.256-4.578 0-2.717 1.805-4.616 4.274-4.616 1.063 0 1.976.266 2.717.74l-.304 1.064a4.388 4.388 0 0 0-2.413-.703c-1.899 0-3.059 1.425-3.059 3.477 0 2.128 1.234 3.515 3.077 3.515.894 0 1.748-.285 2.413-.723l.247 1.083a5.194 5.194 0 0 1-2.696.741zM204.883 49v-8.701l1.178-.246v1.861c.589-1.14 1.425-1.861 2.564-1.861.589 0 1.121.171 1.52.398l-.304 1.102a2.539 2.539 0 0 0-1.33-.38c-.912 0-1.767.665-2.45 2.242V49h-1.178zM215.56 48.146c.969 0 1.861-.285 2.526-.723l.229 1.083c-.741.456-1.71.741-2.793.741-2.508 0-4.198-1.862-4.198-4.521 0-2.735 1.748-4.673 4.104-4.673 1.919 0 3.173 1.234 3.173 3.21 0 .456-.058 1.007-.19 1.387l-5.889.038v.095c.056 1.976 1.215 3.363 3.038 3.363zm1.881-4.789c0-1.349-.722-2.241-2.09-2.241-1.577 0-2.546 1.197-2.755 2.641l4.825-.02c.02-.094.02-.284.02-.38zM223.275 49.247c-1.596 0-2.755-1.026-2.755-2.413 0-1.558 1.234-2.888 5.281-3.097v-.513c0-1.367-.608-2.07-2.052-2.07-.95 0-2.09.494-2.85 1.045l-.266-1.103c.76-.551 2.09-1.044 3.229-1.044 2.032 0 3.134.911 3.115 3.115v4.18c0 .627.114.893.874.873l-.076.97c-1.14.075-1.767-.381-1.899-1.235h-.058c-.587.741-1.498 1.292-2.543 1.292zm-1.521-2.546c0 .931.741 1.52 1.786 1.52.931 0 1.729-.531 2.261-1.14v-2.545c-2.982.36-4.047 1.007-4.047 2.165zM232.432 49.285c-1.672 0-2.394-.912-2.337-2.735l.133-5.148-1.33-.076.058-.741 1.311-.304.057-1.976h1.121l-.057 2.032h2.906l-.057 1.045h-2.888l-.133 5.205c-.038 1.083.38 1.634 1.272 1.634.589 0 1.14-.189 1.672-.418l.209 1.026c-.608.285-1.31.456-1.937.456zM240.298 48.146c.969 0 1.861-.285 2.526-.723l.229 1.083c-.741.456-1.71.741-2.793.741-2.508 0-4.198-1.862-4.198-4.521 0-2.735 1.748-4.673 4.104-4.673 1.919 0 3.173 1.234 3.173 3.21 0 .456-.058 1.007-.19 1.387l-5.889.038v.095c.056 1.976 1.215 3.363 3.038 3.363zm1.881-4.789c0-1.349-.722-2.241-2.09-2.241-1.577 0-2.546 1.197-2.755 2.641l4.825-.02c.02-.094.02-.284.02-.38zM251.09 49.247c-1.596 0-2.755-1.026-2.755-2.413 0-1.558 1.234-2.888 5.281-3.097v-.513c0-1.367-.608-2.07-2.052-2.07-.95 0-2.09.494-2.85 1.045l-.266-1.103c.76-.551 2.09-1.044 3.229-1.044 2.032 0 3.134.911 3.115 3.115v4.18c0 .627.114.893.874.873l-.076.97c-1.14.075-1.767-.381-1.899-1.235h-.058c-.587.741-1.498 1.292-2.543 1.292zm-1.52-2.546c0 .931.741 1.52 1.786 1.52.931 0 1.729-.531 2.261-1.14v-2.545c-2.983.36-4.047 1.007-4.047 2.165zM65.197 61.222c-.398-.209-.854-.361-1.329-.361-.97 0-1.444.608-1.444 2.033v1.443h2.735l-.057 1.045h-2.679V73h-1.158v-7.58l-1.406-.095.076-.741 1.311-.304.02-1.368c.057-2.279 1.102-3.134 2.621-3.134a3.66 3.66 0 0 1 1.596.38c-.02.019-.267 1.083-.286 1.064zM70.783 72.146c.969 0 1.861-.285 2.526-.723l.229 1.083c-.741.456-1.71.741-2.793.741-2.508 0-4.198-1.862-4.198-4.521 0-2.735 1.748-4.673 4.104-4.673 1.919 0 3.173 1.234 3.173 3.21 0 .456-.058 1.007-.19 1.387l-5.889.038v.095c.055 1.976 1.214 3.363 3.038 3.363zm1.881-4.789c0-1.349-.722-2.241-2.09-2.241-1.577 0-2.546 1.197-2.755 2.641l4.825-.02c.02-.094.02-.284.02-.38zM83.512 59.949V73h-1.178v-.816c-.589.531-1.443 1.063-2.526 1.063-2.355 0-3.895-1.862-3.895-4.521 0-2.697 1.805-4.616 4.312-4.616.741 0 1.52.189 2.108.475v-4.388l1.179-.248zm-3.343 5.224c-1.881 0-3.04 1.482-3.04 3.534 0 2.032 1.121 3.457 2.888 3.457.893 0 1.71-.38 2.317-.969v-5.357c-.531-.437-1.33-.665-2.165-.665zM90.352 72.146c.969 0 1.861-.285 2.526-.723l.229 1.083c-.741.456-1.71.741-2.793.741-2.508 0-4.198-1.862-4.198-4.521 0-2.735 1.748-4.673 4.104-4.673 1.919 0 3.173 1.234 3.173 3.21 0 .456-.058 1.007-.19 1.387l-5.889.038v.095c.056 1.976 1.215 3.363 3.038 3.363zm1.881-4.789c0-1.349-.722-2.241-2.09-2.241-1.577 0-2.546 1.197-2.755 2.641l4.825-.02c.02-.094.02-.284.02-.38zM96.053 73v-8.701l1.178-.246v1.861c.589-1.14 1.425-1.861 2.564-1.861.589 0 1.121.171 1.52.398l-.304 1.102a2.539 2.539 0 0 0-1.33-.38c-.912 0-1.767.665-2.45 2.242V73h-1.178zM105.172 73.247c-1.596 0-2.755-1.026-2.755-2.413 0-1.558 1.234-2.888 5.281-3.097v-.513c0-1.367-.608-2.07-2.052-2.07-.95 0-2.09.494-2.85 1.045l-.266-1.103c.76-.551 2.09-1.044 3.229-1.044 2.032 0 3.134.911 3.115 3.115v4.18c0 .627.114.893.874.873l-.076.97c-1.14.075-1.767-.381-1.899-1.235h-.058c-.587.741-1.498 1.292-2.543 1.292zm-1.52-2.546c0 .931.741 1.52 1.786 1.52.931 0 1.729-.531 2.261-1.14v-2.545c-2.983.36-4.047 1.007-4.047 2.165zM111.937 60.196l1.178-.247V73h-1.178V60.196zM116.288 60.196l1.178-.247V73h-1.178V60.196zM123.166 74.786c-.817 2.146-1.615 2.735-2.812 2.735-.665 0-1.159-.171-1.691-.399l.361-1.082c.438.228.855.38 1.33.38.665 0 1.178-.361 1.785-2.014l.589-1.539-3.4-8.568h1.273l2.735 7.182 2.679-7.182h1.234l-3.381 8.606-.702 1.881zM134.223 73.247c-1.596 0-2.755-1.026-2.755-2.413 0-1.558 1.234-2.888 5.281-3.097v-.513c0-1.367-.608-2.07-2.052-2.07-.95 0-2.09.494-2.85 1.045l-.266-1.103c.76-.551 2.09-1.044 3.229-1.044 2.032 0 3.134.911 3.115 3.115v4.18c0 .627.114.893.874.873l-.076.97c-1.14.075-1.767-.381-1.899-1.235h-.058c-.587.741-1.498 1.292-2.543 1.292zm-1.52-2.546c0 .931.741 1.52 1.786 1.52.931 0 1.729-.531 2.261-1.14v-2.545c-2.983.36-4.047 1.007-4.047 2.165zM148.016 59.949V73h-1.178v-.816c-.589.531-1.443 1.063-2.526 1.063-2.355 0-3.895-1.862-3.895-4.521 0-2.697 1.805-4.616 4.312-4.616.741 0 1.52.189 2.108.475v-4.388l1.179-.248zm-3.343 5.224c-1.881 0-3.04 1.482-3.04 3.534 0 2.032 1.121 3.457 2.888 3.457.893 0 1.71-.38 2.317-.969v-5.357c-.531-.437-1.33-.665-2.165-.665zM162.056 67.396c0-1.52-.57-2.223-1.843-2.223-.931 0-1.786.494-2.451 1.121.02.133.038.57.038.779V73h-1.178v-5.604c0-1.52-.569-2.223-1.843-2.223-.911 0-1.747.418-2.412 1.007V73h-1.178v-8.701l1.178-.246v1.196c.893-.816 1.861-1.196 2.754-1.196 1.083 0 1.919.475 2.356 1.443.969-.969 2.07-1.443 3.077-1.443 1.672 0 2.679 1.082 2.679 3.001V73h-1.178v-5.604zM166.959 62.305c-.532 0-.798-.418-.798-.874 0-.437.266-.836.798-.836s.798.399.798.836c0 .456-.265.874-.798.874zm-.588 1.994l1.178-.246V73h-1.178v-8.701zM176.497 67.377c0-1.52-.607-2.204-1.918-2.204-.969 0-1.9.494-2.641 1.235V73h-1.178v-8.701l1.178-.246v1.425c.911-.912 2.052-1.425 2.963-1.425 1.748 0 2.774 1.082 2.774 2.982V73h-1.179v-5.623zM181.4 62.305c-.532 0-.798-.418-.798-.874 0-.437.266-.836.798-.836s.798.399.798.836c0 .456-.266.874-.798.874zm-.589 1.994l1.178-.246V73h-1.178v-8.701zM187.308 73.247c-1.045 0-2.108-.304-2.85-.779l.323-1.083c.74.514 1.672.799 2.564.799 1.045 0 1.957-.514 1.957-1.463 0-1.064-1.103-1.33-2.186-1.691-1.196-.342-2.526-.949-2.526-2.47 0-1.576 1.311-2.507 2.944-2.507.969 0 1.9.266 2.641.646l-.342 1.063c-.74-.398-1.614-.646-2.374-.646-1.064 0-1.748.494-1.748 1.33 0 .987 1.025 1.272 2.146 1.634 1.235.36 2.564.931 2.564 2.545.002 1.577-1.365 2.622-3.113 2.622zM195.383 73.285c-1.672 0-2.394-.912-2.337-2.735l.133-5.148-1.33-.076.058-.741 1.311-.304.057-1.976h1.121l-.057 2.032h2.906l-.057 1.045H194.3l-.133 5.205c-.038 1.083.38 1.634 1.272 1.634.589 0 1.14-.189 1.672-.418l.209 1.026c-.608.285-1.31.456-1.937.456zM203.249 72.146c.969 0 1.861-.285 2.526-.723l.229 1.083c-.741.456-1.71.741-2.793.741-2.508 0-4.198-1.862-4.198-4.521 0-2.735 1.748-4.673 4.104-4.673 1.919 0 3.173 1.234 3.173 3.21 0 .456-.058 1.007-.19 1.387l-5.889.038v.095c.055 1.976 1.214 3.363 3.038 3.363zm1.88-4.789c0-1.349-.722-2.241-2.09-2.241-1.577 0-2.546 1.197-2.755 2.641l4.825-.02c.02-.094.02-.284.02-.38zM208.95 73v-8.701l1.178-.246v1.861c.589-1.14 1.425-1.861 2.564-1.861.589 0 1.121.171 1.52.398l-.304 1.102a2.539 2.539 0 0 0-1.33-.38c-.912 0-1.767.665-2.45 2.242V73h-1.178zM219.626 72.146c.969 0 1.861-.285 2.526-.723l.229 1.083c-.741.456-1.71.741-2.793.741-2.508 0-4.198-1.862-4.198-4.521 0-2.735 1.748-4.673 4.104-4.673 1.919 0 3.173 1.234 3.173 3.21 0 .456-.058 1.007-.19 1.387l-5.889.038v.095c.056 1.976 1.215 3.363 3.038 3.363zm1.881-4.789c0-1.349-.722-2.241-2.09-2.241-1.577 0-2.546 1.197-2.755 2.641l4.825-.02c.02-.094.02-.284.02-.38zM232.356 59.949V73h-1.178v-.816c-.589.531-1.443 1.063-2.526 1.063-2.355 0-3.895-1.862-3.895-4.521 0-2.697 1.805-4.616 4.312-4.616.741 0 1.52.189 2.108.475v-4.388l1.179-.248zm-3.343 5.224c-1.881 0-3.04 1.482-3.04 3.534 0 2.032 1.121 3.457 2.888 3.457.893 0 1.71-.38 2.317-.969v-5.357c-.531-.437-1.33-.665-2.165-.665zM235.89 71.195c.685 0 1.349.607 1.349 1.501 0 1.292-1.063 2.432-2.355 3.286l-.513-.513c1.216-.854 1.672-1.596 1.672-2.261 0-.513-.342-.76-1.178-1.083.056-.474.398-.93 1.025-.93zM22.381 97.247c-1.045 0-2.108-.304-2.85-.779l.323-1.083c.74.514 1.672.799 2.564.799 1.045 0 1.956-.514 1.956-1.463 0-1.064-1.102-1.33-2.185-1.691-1.196-.342-2.526-.949-2.526-2.47 0-1.576 1.311-2.507 2.944-2.507.969 0 1.9.266 2.641.646l-.342 1.063c-.74-.398-1.614-.646-2.374-.646-1.064 0-1.748.494-1.748 1.33 0 .987 1.025 1.272 2.146 1.634 1.235.36 2.564.931 2.564 2.545.003 1.577-1.365 2.622-3.113 2.622zM28.67 86.305c-.532 0-.798-.418-.798-.874 0-.437.266-.836.798-.836s.798.399.798.836c0 .456-.265.874-.798.874zm-.588 1.994l1.178-.246V97h-1.178v-8.701zM38.208 91.377c0-1.52-.607-2.204-1.918-2.204-.969 0-1.9.494-2.641 1.235V97h-1.178v-8.701l1.178-.246v1.425c.911-.912 2.052-1.425 2.963-1.425 1.748 0 2.774 1.082 2.774 2.982V97h-1.179v-5.623zM41.989 95.632c0-.74.608-1.349 1.425-1.652-.836-.513-1.405-1.443-1.405-2.659 0-1.843 1.367-3.268 3.419-3.268.912 0 1.577.228 2.052.513l2.413-.19.057 1.178-1.919-.189c.438.437.703 1.254.703 1.957 0 1.842-1.463 3.191-3.381 3.191-.476 0-.855-.096-1.292-.247-.456.209-.969.531-.969 1.045 0 .551.437.893 1.976.893h1.121c2.526 0 3.609.836 3.609 2.279 0 1.9-2.147 3.229-4.579 3.229-2.336 0-3.932-1.025-3.932-2.545 0-.988.74-1.862 1.88-2.147-.741-.286-1.178-.761-1.178-1.388zm.437 3.325c0 1.045 1.121 1.785 2.963 1.785 1.806 0 3.268-.874 3.268-2.052 0-1.045-.893-1.387-2.641-1.387-.589 0-1.311 0-1.823-.057-1.064.286-1.767.97-1.767 1.711zm2.983-5.395c1.349 0 2.166-.931 2.166-2.279 0-1.292-.761-2.261-2.223-2.261-1.368 0-2.186.949-2.186 2.317.001 1.272.818 2.223 2.243 2.223zM51.832 84.196l1.178-.247V97h-1.178V84.196zM59.848 96.146c.969 0 1.861-.285 2.526-.723l.229 1.083c-.741.456-1.71.741-2.793.741-2.508 0-4.198-1.862-4.198-4.521 0-2.735 1.748-4.673 4.104-4.673 1.919 0 3.173 1.234 3.173 3.21 0 .456-.058 1.007-.19 1.387l-5.889.038v.095c.056 1.976 1.215 3.363 3.038 3.363zm1.881-4.789c0-1.349-.722-2.241-2.09-2.241-1.577 0-2.546 1.197-2.755 2.641l4.825-.02c.02-.094.02-.284.02-.38zM64.827 91.833h4.294v1.102h-4.294v-1.102zM75.238 88.109c2.355 0 3.895 1.861 3.895 4.502 0 2.698-1.767 4.636-4.294 4.636-.684 0-1.538-.171-2.127-.456v4.636h-1.178V88.262l1.178-.247v1.158c.588-.551 1.462-1.064 2.526-1.064zm-.342 8.075c1.881 0 3.021-1.501 3.021-3.553 0-2.014-1.102-3.438-2.869-3.438-.893 0-1.709.38-2.336.969V95.5c.531.437 1.348.684 2.184.684zM83.769 97.247c-1.596 0-2.755-1.026-2.755-2.413 0-1.558 1.234-2.888 5.281-3.097v-.513c0-1.367-.608-2.07-2.052-2.07-.95 0-2.09.494-2.85 1.045l-.266-1.103c.76-.551 2.09-1.044 3.229-1.044 2.032 0 3.134.911 3.115 3.115v4.18c0 .627.114.893.874.873l-.076.97c-1.14.075-1.767-.381-1.899-1.235h-.058c-.587.741-1.498 1.292-2.543 1.292zm-1.52-2.546c0 .931.741 1.52 1.786 1.52.931 0 1.729-.531 2.261-1.14v-2.545c-2.983.36-4.047 1.007-4.047 2.165zM93.06 98.786c-.817 2.146-1.615 2.735-2.812 2.735-.665 0-1.159-.171-1.691-.399l.361-1.082c.438.228.855.38 1.33.38.665 0 1.178-.361 1.785-2.014l.589-1.539-3.4-8.568h1.273l2.735 7.182 2.679-7.182h1.234l-3.381 8.606-.702 1.881zM102.598 96.146c.969 0 1.861-.285 2.526-.723l.229 1.083c-.741.456-1.71.741-2.793.741-2.508 0-4.198-1.862-4.198-4.521 0-2.735 1.748-4.673 4.104-4.673 1.919 0 3.173 1.234 3.173 3.21 0 .456-.058 1.007-.19 1.387l-5.889.038v.095c.056 1.976 1.215 3.363 3.038 3.363zm1.881-4.789c0-1.349-.722-2.241-2.09-2.241-1.577 0-2.546 1.197-2.755 2.641l4.825-.02c.02-.094.02-.284.02-.38zM108.298 97v-8.701l1.178-.246v1.861c.589-1.14 1.425-1.861 2.564-1.861.589 0 1.121.171 1.52.398l-.304 1.102a2.539 2.539 0 0 0-1.33-.38c-.912 0-1.767.665-2.45 2.242V97h-1.178zM124.314 91.377c0-1.52-.589-2.204-1.861-2.204-1.007 0-1.957.494-2.697 1.235V97h-1.178V84.196l1.178-.247v5.49c.911-.912 2.052-1.387 3.021-1.387 1.69 0 2.717 1.082 2.717 2.982V97h-1.179v-5.623zM132.275 96.146c.969 0 1.861-.285 2.526-.723l.229 1.083c-.741.456-1.71.741-2.793.741-2.508 0-4.198-1.862-4.198-4.521 0-2.735 1.748-4.673 4.104-4.673 1.919 0 3.173 1.234 3.173 3.21 0 .456-.058 1.007-.19 1.387l-5.889.038v.095c.055 1.976 1.215 3.363 3.038 3.363zm1.881-4.789c0-1.349-.722-2.241-2.09-2.241-1.577 0-2.546 1.197-2.755 2.641l4.825-.02c.02-.094.02-.284.02-.38zM139.99 97.247c-1.596 0-2.755-1.026-2.755-2.413 0-1.558 1.234-2.888 5.281-3.097v-.513c0-1.367-.608-2.07-2.052-2.07-.95 0-2.09.494-2.85 1.045l-.266-1.103c.76-.551 2.09-1.044 3.229-1.044 2.032 0 3.134.911 3.115 3.115v4.18c0 .627.114.893.874.873l-.076.97c-1.14.075-1.767-.381-1.899-1.235h-.058c-.587.741-1.498 1.292-2.543 1.292zm-1.521-2.546c0 .931.741 1.52 1.786 1.52.931 0 1.729-.531 2.261-1.14v-2.545c-2.982.36-4.047 1.007-4.047 2.165zM146.753 84.196l1.178-.247V97h-1.178V84.196zM153.499 97.285c-1.672 0-2.394-.912-2.337-2.735l.133-5.148-1.33-.076.058-.741 1.311-.304.057-1.976h1.121l-.057 2.032h2.906l-.057 1.045h-2.888l-.133 5.205c-.038 1.083.38 1.634 1.272 1.634.589 0 1.14-.189 1.672-.418l.209 1.026c-.608.285-1.311.456-1.937.456zM163.529 91.377c0-1.52-.589-2.204-1.861-2.204-1.007 0-1.957.494-2.697 1.235V97h-1.178V84.196l1.178-.247v5.49c.911-.912 2.052-1.387 3.021-1.387 1.69 0 2.717 1.082 2.717 2.982V97h-1.179v-5.623zM174.587 97.247c-2.641 0-4.256-1.881-4.256-4.578 0-2.717 1.805-4.616 4.274-4.616 1.063 0 1.976.266 2.717.74l-.304 1.064a4.388 4.388 0 0 0-2.413-.703c-1.899 0-3.059 1.425-3.059 3.477 0 2.128 1.234 3.515 3.077 3.515.894 0 1.748-.285 2.413-.723l.247 1.083a5.194 5.194 0 0 1-2.696.741zM181.921 97.247c-1.596 0-2.755-1.026-2.755-2.413 0-1.558 1.234-2.888 5.281-3.097v-.513c0-1.367-.608-2.07-2.052-2.07-.95 0-2.09.494-2.85 1.045l-.266-1.103c.76-.551 2.09-1.044 3.229-1.044 2.032 0 3.134.911 3.115 3.115v4.18c0 .627.114.893.874.873l-.076.97c-1.14.075-1.767-.381-1.899-1.235h-.058c-.587.741-1.498 1.292-2.543 1.292zm-1.52-2.546c0 .931.741 1.52 1.786 1.52.931 0 1.729-.531 2.261-1.14v-2.545c-2.983.36-4.047 1.007-4.047 2.165zM188.686 97v-8.701l1.178-.246v1.861c.589-1.14 1.425-1.861 2.564-1.861.589 0 1.121.171 1.52.398l-.304 1.102a2.539 2.539 0 0 0-1.33-.38c-.912 0-1.767.665-2.45 2.242V97h-1.178zM199.363 96.146c.969 0 1.861-.285 2.526-.723l.229 1.083c-.741.456-1.71.741-2.793.741-2.508 0-4.198-1.862-4.198-4.521 0-2.735 1.748-4.673 4.104-4.673 1.919 0 3.173 1.234 3.173 3.21 0 .456-.058 1.007-.19 1.387l-5.889.038v.095c.055 1.976 1.215 3.363 3.038 3.363zm1.881-4.789c0-1.349-.722-2.241-2.09-2.241-1.577 0-2.546 1.197-2.755 2.641l4.825-.02c.02-.094.02-.284.02-.38zM211.845 88.109c2.355 0 3.895 1.861 3.895 4.502 0 2.698-1.767 4.636-4.294 4.636-.684 0-1.538-.171-2.127-.456v4.636h-1.178V88.262l1.178-.247v1.158c.589-.551 1.463-1.064 2.526-1.064zm-.342 8.075c1.881 0 3.021-1.501 3.021-3.553 0-2.014-1.102-3.438-2.869-3.438-.893 0-1.709.38-2.336.969V95.5c.531.437 1.348.684 2.184.684zM218.363 97v-8.701l1.178-.246v1.861c.589-1.14 1.425-1.861 2.564-1.861.589 0 1.121.171 1.52.398l-.304 1.102a2.539 2.539 0 0 0-1.33-.38c-.912 0-1.767.665-2.45 2.242V97h-1.178zM229.002 97.247c-2.432 0-4.198-1.786-4.198-4.578 0-2.773 1.861-4.616 4.293-4.616s4.18 1.785 4.18 4.578c0 2.773-1.861 4.616-4.275 4.616zm.039-8.131c-1.843 0-3.059 1.463-3.059 3.515 0 2.128 1.235 3.553 3.078 3.553 1.842 0 3.058-1.463 3.058-3.515 0-2.128-1.235-3.553-3.077-3.553zM235.386 95.632c0-.74.608-1.349 1.425-1.652-.836-.513-1.405-1.443-1.405-2.659 0-1.843 1.367-3.268 3.419-3.268.912 0 1.577.228 2.052.513l2.413-.19.057 1.178-1.919-.189c.438.437.703 1.254.703 1.957 0 1.842-1.463 3.191-3.381 3.191-.476 0-.855-.096-1.292-.247-.456.209-.969.531-.969 1.045 0 .551.437.893 1.976.893h1.121c2.526 0 3.609.836 3.609 2.279 0 1.9-2.147 3.229-4.579 3.229-2.336 0-3.932-1.025-3.932-2.545 0-.988.74-1.862 1.88-2.147-.74-.286-1.178-.761-1.178-1.388zm.438 3.325c0 1.045 1.121 1.785 2.964 1.785 1.805 0 3.267-.874 3.267-2.052 0-1.045-.893-1.387-2.641-1.387-.589 0-1.311 0-1.823-.057-1.064.286-1.767.97-1.767 1.711zm2.982-5.395c1.349 0 2.166-.931 2.166-2.279 0-1.292-.761-2.261-2.223-2.261-1.368 0-2.186.949-2.186 2.317.001 1.272.818 2.223 2.243 2.223zM245.229 97v-8.701l1.178-.246v1.861c.589-1.14 1.425-1.861 2.564-1.861.589 0 1.121.171 1.52.398l-.304 1.102a2.539 2.539 0 0 0-1.33-.38c-.912 0-1.767.665-2.45 2.242V97h-1.178zM254.348 97.247c-1.596 0-2.755-1.026-2.755-2.413 0-1.558 1.234-2.888 5.281-3.097v-.513c0-1.367-.608-2.07-2.052-2.07-.95 0-2.09.494-2.85 1.045l-.266-1.103c.76-.551 2.09-1.044 3.229-1.044 2.032 0 3.134.911 3.115 3.115v4.18c0 .627.114.893.874.873l-.076.97c-1.14.075-1.767-.381-1.899-1.235h-.058c-.587.741-1.498 1.292-2.543 1.292zm-1.52-2.546c0 .931.741 1.52 1.786 1.52.931 0 1.729-.531 2.261-1.14v-2.545c-2.983.36-4.047 1.007-4.047 2.165zM271.979 91.396c0-1.52-.57-2.223-1.843-2.223-.931 0-1.786.494-2.451 1.121.02.133.038.57.038.779V97h-1.178v-5.604c0-1.52-.569-2.223-1.843-2.223-.911 0-1.747.418-2.412 1.007V97h-1.178v-8.701l1.178-.246v1.196c.893-.816 1.861-1.196 2.754-1.196 1.083 0 1.919.475 2.356 1.443.969-.969 2.07-1.443 3.077-1.443 1.672 0 2.679 1.082 2.679 3.001V97h-1.178v-5.604zM276.693 97.247c-.552 0-.95-.475-.95-.988a.94.94 0 0 1 .95-.949.94.94 0 0 1 .949.949c0 .513-.398.988-.949.988zM24.566 142.247c-2.83 0-4.445-1.786-4.445-4.598v-7.522h1.178v7.371c0 2.279 1.102 3.628 3.324 3.628 2.128 0 3.249-1.272 3.249-3.647v-7.352h1.197v7.333c0 2.944-1.539 4.787-4.503 4.787zM37.979 136.377c0-1.52-.607-2.204-1.918-2.204-.969 0-1.9.494-2.641 1.235V142h-1.178v-8.701l1.178-.246v1.425c.911-.912 2.052-1.425 2.963-1.425 1.748 0 2.774 1.082 2.774 2.982V142h-1.179v-5.623zM42.882 131.305c-.532 0-.798-.418-.798-.874 0-.437.266-.836.798-.836s.798.399.798.836c0 .456-.265.874-.798.874zm-.589 1.994l1.178-.246V142h-1.178v-8.701zM48.81 142.019l-3.438-8.72h1.273l2.754 7.182 2.66-7.182h1.234l-3.419 8.72H48.81zM58.747 141.146c.969 0 1.861-.285 2.526-.723l.229 1.083c-.741.456-1.71.741-2.793.741-2.508 0-4.198-1.862-4.198-4.521 0-2.735 1.748-4.673 4.104-4.673 1.919 0 3.173 1.234 3.173 3.21 0 .456-.058 1.007-.19 1.387l-5.889.038v.095c.055 1.976 1.214 3.363 3.038 3.363zm1.88-4.789c0-1.349-.722-2.241-2.09-2.241-1.577 0-2.546 1.197-2.755 2.641l4.825-.02c.02-.094.02-.284.02-.38zM64.448 142v-8.701l1.178-.246v1.861c.589-1.14 1.425-1.861 2.564-1.861.589 0 1.121.171 1.52.398l-.304 1.102a2.539 2.539 0 0 0-1.33-.38c-.912 0-1.767.665-2.45 2.242V142h-1.178zM73.756 142.247c-1.045 0-2.108-.304-2.85-.779l.323-1.083c.74.514 1.672.799 2.564.799 1.045 0 1.956-.514 1.956-1.463 0-1.064-1.102-1.33-2.185-1.691-1.196-.342-2.526-.949-2.526-2.47 0-1.576 1.311-2.507 2.944-2.507.969 0 1.9.266 2.641.646l-.342 1.063c-.74-.398-1.614-.646-2.374-.646-1.064 0-1.748.494-1.748 1.33 0 .987 1.025 1.272 2.146 1.634 1.235.36 2.564.931 2.564 2.545.003 1.577-1.365 2.622-3.113 2.622zM81.452 142.247c-1.596 0-2.755-1.026-2.755-2.413 0-1.558 1.234-2.888 5.281-3.097v-.513c0-1.367-.608-2.07-2.052-2.07-.95 0-2.09.494-2.85 1.045l-.266-1.103c.76-.551 2.09-1.044 3.229-1.044 2.032 0 3.134.911 3.115 3.115v4.18c0 .627.114.893.874.873l-.076.97c-1.14.075-1.767-.381-1.899-1.235h-.058c-.587.741-1.498 1.292-2.543 1.292zm-1.521-2.546c0 .931.741 1.52 1.786 1.52.931 0 1.729-.531 2.261-1.14v-2.545c-2.982.36-4.047 1.007-4.047 2.165zM88.216 129.196l1.178-.247V142h-1.178v-12.804zM97.753 142.247c-1.045 0-2.108-.304-2.85-.779l.323-1.083c.74.514 1.672.799 2.564.799 1.045 0 1.957-.514 1.957-1.463 0-1.064-1.103-1.33-2.186-1.691-1.196-.342-2.526-.949-2.526-2.47 0-1.576 1.311-2.507 2.944-2.507.969 0 1.9.266 2.641.646l-.342 1.063c-.74-.398-1.614-.646-2.374-.646-1.064 0-1.748.494-1.748 1.33 0 .987 1.025 1.272 2.146 1.634 1.235.36 2.564.931 2.564 2.545.003 1.577-1.365 2.622-3.113 2.622zM104.042 131.305c-.532 0-.798-.418-.798-.874 0-.437.266-.836.798-.836s.798.399.798.836c0 .456-.265.874-.798.874zm-.588 1.994l1.178-.246V142h-1.178v-8.701zM113.58 136.377c0-1.52-.607-2.204-1.918-2.204-.969 0-1.9.494-2.641 1.235V142h-1.178v-8.701l1.178-.246v1.425c.911-.912 2.052-1.425 2.963-1.425 1.748 0 2.774 1.082 2.774 2.982V142h-1.179v-5.623zM117.361 140.632c0-.74.608-1.349 1.425-1.652-.836-.513-1.405-1.443-1.405-2.659 0-1.843 1.367-3.268 3.419-3.268.912 0 1.577.228 2.052.513l2.413-.19.057 1.178-1.919-.189c.438.437.703 1.254.703 1.957 0 1.842-1.463 3.191-3.381 3.191-.476 0-.855-.096-1.292-.247-.456.209-.969.531-.969 1.045 0 .551.437.893 1.976.893h1.121c2.526 0 3.609.836 3.609 2.279 0 1.9-2.147 3.229-4.579 3.229-2.336 0-3.932-1.025-3.932-2.545 0-.988.74-1.862 1.88-2.147-.741-.286-1.178-.761-1.178-1.388zm.437 3.325c0 1.045 1.121 1.785 2.964 1.785 1.805 0 3.267-.874 3.267-2.052 0-1.045-.893-1.387-2.641-1.387-.589 0-1.311 0-1.823-.057-1.064.286-1.767.97-1.767 1.711zm2.983-5.395c1.349 0 2.166-.931 2.166-2.279 0-1.292-.761-2.261-2.223-2.261-1.368 0-2.186.949-2.186 2.317.001 1.272.818 2.223 2.243 2.223zM127.204 129.196l1.178-.247V142h-1.178v-12.804zM135.22 141.146c.969 0 1.861-.285 2.526-.723l.229 1.083c-.741.456-1.71.741-2.793.741-2.508 0-4.198-1.862-4.198-4.521 0-2.735 1.748-4.673 4.104-4.673 1.919 0 3.173 1.234 3.173 3.21 0 .456-.058 1.007-.19 1.387l-5.889.038v.095c.056 1.976 1.215 3.363 3.038 3.363zm1.881-4.789c0-1.349-.722-2.241-2.09-2.241-1.577 0-2.546 1.197-2.755 2.641l4.825-.02c.02-.094.02-.284.02-.38zM140.199 136.833h4.294v1.102h-4.294v-1.102zM150.61 133.109c2.355 0 3.895 1.861 3.895 4.502 0 2.698-1.767 4.636-4.294 4.636-.684 0-1.538-.171-2.127-.456v4.636h-1.178v-13.165l1.178-.247v1.158c.588-.551 1.462-1.064 2.526-1.064zm-.342 8.075c1.881 0 3.021-1.501 3.021-3.553 0-2.014-1.102-3.438-2.869-3.438-.893 0-1.709.38-2.336.969v5.338c.531.437 1.348.684 2.184.684zM159.141 142.247c-1.596 0-2.755-1.026-2.755-2.413 0-1.558 1.234-2.888 5.281-3.097v-.513c0-1.367-.608-2.07-2.052-2.07-.95 0-2.09.494-2.85 1.045l-.266-1.103c.76-.551 2.09-1.044 3.229-1.044 2.032 0 3.134.911 3.115 3.115v4.18c0 .627.114.893.874.873l-.076.97c-1.14.075-1.767-.381-1.899-1.235h-.058c-.587.741-1.498 1.292-2.543 1.292zm-1.52-2.546c0 .931.741 1.52 1.786 1.52.931 0 1.729-.531 2.261-1.14v-2.545c-2.983.36-4.047 1.007-4.047 2.165zM168.432 143.786c-.817 2.146-1.615 2.735-2.812 2.735-.665 0-1.159-.171-1.69-.399l.36-1.082c.438.228.854.38 1.33.38.665 0 1.178-.361 1.785-2.014l.589-1.539-3.4-8.568h1.273l2.735 7.182 2.679-7.182h1.234l-3.381 8.606-.702 1.881zM177.97 141.146c.969 0 1.861-.285 2.526-.723l.229 1.083c-.741.456-1.71.741-2.793.741-2.508 0-4.198-1.862-4.198-4.521 0-2.735 1.748-4.673 4.104-4.673 1.919 0 3.173 1.234 3.173 3.21 0 .456-.058 1.007-.19 1.387l-5.889.038v.095c.056 1.976 1.215 3.363 3.038 3.363zm1.881-4.789c0-1.349-.722-2.241-2.09-2.241-1.577 0-2.546 1.197-2.755 2.641l4.825-.02c.02-.094.02-.284.02-.38zM183.67 142v-8.701l1.178-.246v1.861c.589-1.14 1.425-1.861 2.564-1.861.589 0 1.121.171 1.52.398l-.304 1.102a2.539 2.539 0 0 0-1.33-.38c-.912 0-1.767.665-2.45 2.242V142h-1.178zM199.685 136.377c0-1.52-.589-2.204-1.861-2.204-1.007 0-1.957.494-2.697 1.235V142h-1.178v-12.804l1.178-.247v5.49c.911-.912 2.052-1.387 3.021-1.387 1.69 0 2.717 1.082 2.717 2.982V142h-1.179v-5.623zM207.647 141.146c.969 0 1.861-.285 2.526-.723l.229 1.083c-.741.456-1.71.741-2.793.741-2.508 0-4.198-1.862-4.198-4.521 0-2.735 1.748-4.673 4.104-4.673 1.919 0 3.173 1.234 3.173 3.21 0 .456-.058 1.007-.19 1.387l-5.889.038v.095c.056 1.976 1.215 3.363 3.038 3.363zm1.881-4.789c0-1.349-.722-2.241-2.09-2.241-1.577 0-2.546 1.197-2.755 2.641l4.825-.02c.02-.094.02-.284.02-.38zM215.362 142.247c-1.596 0-2.755-1.026-2.755-2.413 0-1.558 1.234-2.888 5.281-3.097v-.513c0-1.367-.608-2.07-2.052-2.07-.95 0-2.09.494-2.85 1.045l-.266-1.103c.76-.551 2.09-1.044 3.229-1.044 2.032 0 3.134.911 3.115 3.115v4.18c0 .627.114.893.874.873l-.076.97c-1.14.075-1.767-.381-1.899-1.235h-.058c-.587.741-1.498 1.292-2.543 1.292zm-1.521-2.546c0 .931.741 1.52 1.786 1.52.931 0 1.729-.531 2.261-1.14v-2.545c-2.982.36-4.047 1.007-4.047 2.165zM222.125 129.196l1.178-.247V142h-1.178v-12.804zM228.87 142.285c-1.672 0-2.394-.912-2.337-2.735l.133-5.148-1.33-.076.058-.741 1.311-.304.057-1.976h1.121l-.057 2.032h2.906l-.057 1.045h-2.888l-.133 5.205c-.038 1.083.38 1.634 1.272 1.634.589 0 1.14-.189 1.672-.418l.209 1.026c-.608.285-1.31.456-1.937.456zM238.901 136.377c0-1.52-.589-2.204-1.861-2.204-1.007 0-1.957.494-2.697 1.235V142h-1.178v-12.804l1.178-.247v5.49c.911-.912 2.052-1.387 3.021-1.387 1.69 0 2.717 1.082 2.717 2.982V142h-1.179v-5.623zM249.959 142.247c-2.641 0-4.256-1.881-4.256-4.578 0-2.717 1.805-4.616 4.274-4.616 1.063 0 1.976.266 2.717.74l-.304 1.064a4.388 4.388 0 0 0-2.413-.703c-1.899 0-3.059 1.425-3.059 3.477 0 2.128 1.234 3.515 3.077 3.515.894 0 1.748-.285 2.413-.723l.247 1.083a5.191 5.191 0 0 1-2.696.741zM257.293 142.247c-1.596 0-2.755-1.026-2.755-2.413 0-1.558 1.234-2.888 5.281-3.097v-.513c0-1.367-.608-2.07-2.052-2.07-.95 0-2.09.494-2.85 1.045l-.266-1.103c.76-.551 2.09-1.044 3.229-1.044 2.032 0 3.134.911 3.115 3.115v4.18c0 .627.114.893.874.873l-.076.97c-1.14.075-1.767-.381-1.899-1.235h-.058c-.586.741-1.498 1.292-2.543 1.292zm-1.52-2.546c0 .931.741 1.52 1.786 1.52.931 0 1.729-.531 2.261-1.14v-2.545c-2.983.36-4.047 1.007-4.047 2.165zM264.058 142v-8.701l1.178-.246v1.861c.589-1.14 1.425-1.861 2.564-1.861.589 0 1.121.171 1.52.398l-.304 1.102a2.539 2.539 0 0 0-1.33-.38c-.912 0-1.767.665-2.45 2.242V142h-1.178zM274.735 141.146c.969 0 1.861-.285 2.526-.723l.229 1.083c-.741.456-1.71.741-2.793.741-2.508 0-4.198-1.862-4.198-4.521 0-2.735 1.748-4.673 4.104-4.673 1.919 0 3.173 1.234 3.173 3.21 0 .456-.058 1.007-.19 1.387l-5.889.038v.095c.055 1.976 1.215 3.363 3.038 3.363zm1.881-4.789c0-1.349-.722-2.241-2.09-2.241-1.577 0-2.546 1.197-2.755 2.641l4.825-.02c.02-.094.02-.284.02-.38zM13.708 160.396c0-1.52-.57-2.223-1.843-2.223-.931 0-1.786.494-2.451 1.121.02.133.038.57.038.779V166H8.274v-5.604c0-1.52-.569-2.223-1.843-2.223-.911 0-1.747.418-2.412 1.007V166H2.841v-8.701l1.178-.246v1.196c.893-.816 1.861-1.196 2.754-1.196 1.083 0 1.919.475 2.356 1.443.969-.969 2.07-1.443 3.077-1.443 1.672 0 2.679 1.082 2.679 3.001V166h-1.178v-5.604zM21.669 165.146c.969 0 1.861-.285 2.526-.723l.229 1.083c-.741.456-1.71.741-2.793.741-2.508 0-4.198-1.862-4.198-4.521 0-2.735 1.748-4.673 4.104-4.673 1.919 0 3.173 1.234 3.173 3.21 0 .456-.058 1.007-.19 1.387l-5.889.038v.095c.056 1.976 1.215 3.363 3.038 3.363zm1.881-4.789c0-1.349-.722-2.241-2.09-2.241-1.577 0-2.546 1.197-2.755 2.641l4.825-.02c.02-.094.02-.284.02-.38zM29.383 166.247c-1.596 0-2.755-1.026-2.755-2.413 0-1.558 1.234-2.888 5.281-3.097v-.513c0-1.367-.608-2.07-2.052-2.07-.95 0-2.09.494-2.85 1.045l-.266-1.103c.76-.551 2.09-1.044 3.229-1.044 2.032 0 3.134.911 3.115 3.115v4.18c0 .627.114.893.874.873l-.076.97c-1.14.075-1.767-.381-1.899-1.235h-.058c-.587.741-1.498 1.292-2.543 1.292zm-1.52-2.546c0 .931.741 1.52 1.786 1.52.931 0 1.729-.531 2.261-1.14v-2.545c-2.983.36-4.047 1.007-4.047 2.165zM41.884 160.377c0-1.52-.607-2.204-1.918-2.204-.969 0-1.9.494-2.641 1.235V166h-1.178v-8.701l1.178-.246v1.425c.911-.912 2.052-1.425 2.963-1.425 1.748 0 2.774 1.082 2.774 2.982V166h-1.179v-5.623zM48.288 166.247c-1.045 0-2.108-.304-2.85-.779l.323-1.083c.74.514 1.672.799 2.564.799 1.045 0 1.956-.514 1.956-1.463 0-1.064-1.102-1.33-2.185-1.691-1.196-.342-2.526-.949-2.526-2.47 0-1.576 1.311-2.507 2.944-2.507.969 0 1.9.266 2.641.646l-.342 1.063c-.74-.398-1.614-.646-2.374-.646-1.064 0-1.748.494-1.748 1.33 0 .987 1.025 1.272 2.146 1.634 1.235.36 2.564.931 2.564 2.545.002 1.577-1.365 2.622-3.113 2.622zM61.055 166.285c-2.944 0-4.787-1.653-4.787-4.636 0-2.944 1.899-4.768 4.863-4.768 1.234 0 2.394.284 3.211.74l-.57 2.204c-.703-.399-1.558-.685-2.337-.685-1.425 0-2.185.97-2.185 2.413 0 1.596.893 2.45 2.261 2.45.893 0 1.653-.228 2.337-.664l.437 2.223c-.741.457-1.938.723-3.23.723zM70.48 166.285c-2.66 0-4.692-1.672-4.692-4.674 0-3.001 2.127-4.729 4.806-4.729s4.674 1.709 4.674 4.673-2.148 4.73-4.788 4.73zm.037-7.181c-1.216 0-1.823.969-1.823 2.488s.627 2.45 1.843 2.45 1.823-.949 1.823-2.47c0-1.499-.627-2.468-1.843-2.468zM79.372 166.019l-3.268-8.853h3.135l1.823 6.061 1.806-6.061h3.153l-3.344 8.853h-3.305zM92.064 164.139c.969 0 1.994-.343 2.888-.855l.284 2.261c-.893.456-2.146.722-3.438.722-2.982 0-4.938-1.652-4.938-4.616 0-2.888 1.976-4.768 4.787-4.768 2.508 0 3.875 1.5 3.875 3.704 0 .475-.057 1.178-.189 1.558l-5.604.095v.038c.093 1.196.891 1.861 2.335 1.861zm.74-3.553c0-1.064-.437-1.69-1.349-1.69-1.007 0-1.614.873-1.71 1.88l3.059-.019v-.171zM97.612 166v-8.682l2.926-.361v1.292c.513-.912 1.234-1.367 2.127-1.367.514 0 .988.113 1.463.36l-.589 2.584a2.54 2.54 0 0 0-1.102-.267c-.741 0-1.368.361-1.899 1.292V166h-2.926zM107.833 166.285c-1.52 0-2.697-1.083-2.697-2.451 0-1.652 1.253-3.039 5.224-3.134v-.172c0-.931-.475-1.349-1.558-1.349-.912 0-1.957.38-3.002.894l-.607-2.147a8.657 8.657 0 0 1 4.065-1.044c3.039 0 4.084 1.387 4.027 3.855l-.019 2.622c0 .608.113.665.722.722l-.285 2.09c-1.919.247-2.868-.266-3.268-1.234h-.057c-.626.74-1.329 1.348-2.545 1.348zm.057-2.888c0 .589.438.95 1.103.95.589 0 1.063-.229 1.367-.589v-1.691c-1.823.209-2.47.551-2.47 1.33zM115.244 164.993c0-.836.76-1.652 1.823-1.957-1.063-.513-1.785-1.463-1.785-2.735 0-1.919 1.558-3.419 4.198-3.419 1.063 0 2.032.322 2.697.626l2.488-.209.134 2.375-1.71-.266c.151.171.247.665.247.969 0 1.785-1.596 3.191-3.876 3.191-.398 0-.74-.057-1.178-.133-.247.133-.513.342-.513.646 0 .399.456.551 1.614.551h1.045c2.432 0 4.085.608 4.085 2.489 0 2.203-2.641 3.628-5.528 3.628-2.375 0-4.312-.74-4.312-2.299 0-.893.684-1.69 2.108-1.861-.778-.228-1.537-.779-1.537-1.596zm1.994 2.888c0 .684.855 1.159 2.223 1.159 1.425 0 2.508-.438 2.508-1.197 0-.703-.741-.874-2.279-.874-.551 0-1.425-.038-1.748-.057-.4.209-.704.513-.704.969zm2.222-6.003c.894 0 1.292-.646 1.292-1.634 0-.931-.437-1.558-1.349-1.558-.836 0-1.33.646-1.33 1.634.001.931.457 1.558 1.387 1.558zM130.957 164.139c.969 0 1.994-.343 2.888-.855l.284 2.261c-.893.456-2.146.722-3.438.722-2.982 0-4.938-1.652-4.938-4.616 0-2.888 1.976-4.768 4.787-4.768 2.508 0 3.875 1.5 3.875 3.704 0 .475-.057 1.178-.189 1.558l-5.604.095v.038c.092 1.196.89 1.861 2.335 1.861zm.74-3.553c0-1.064-.437-1.69-1.349-1.69-1.007 0-1.614.873-1.71 1.88l3.059-.019v-.171zM146.042 155.628c-.456-.171-.893-.343-1.481-.343-.76 0-1.026.438-1.026 1.292v.703h2.47l-.057 2.299h-2.28V166h-2.925v-6.402l-1.521-.113.076-1.862 1.425-.418.02-.76c.076-2.584 1.234-3.666 3.457-3.666 1.083 0 1.919.228 2.394.437-.002-.001-.552 2.43-.552 2.412zM151.951 166.285c-2.66 0-4.692-1.672-4.692-4.674 0-3.001 2.127-4.729 4.806-4.729s4.674 1.709 4.674 4.673-2.149 4.73-4.788 4.73zm.037-7.181c-1.216 0-1.823.969-1.823 2.488s.627 2.45 1.843 2.45 1.823-.949 1.823-2.47c0-1.499-.627-2.468-1.843-2.468zM158.792 166v-8.682l2.926-.361v1.292c.513-.912 1.234-1.367 2.127-1.367.514 0 .988.113 1.463.36l-.589 2.584a2.54 2.54 0 0 0-1.102-.267c-.741 0-1.368.361-1.899 1.292V166h-2.926zM172.812 166.285c-1.52 0-2.697-1.083-2.697-2.451 0-1.652 1.253-3.039 5.224-3.134v-.172c0-.931-.475-1.349-1.558-1.349-.912 0-1.957.38-3.002.894l-.607-2.147a8.657 8.657 0 0 1 4.065-1.044c3.039 0 4.084 1.387 4.027 3.855l-.019 2.622c0 .608.113.665.722.722l-.285 2.09c-1.919.247-2.868-.266-3.268-1.234h-.057c-.626.74-1.329 1.348-2.545 1.348zm.057-2.888c0 .589.438.95 1.103.95.589 0 1.063-.229 1.367-.589v-1.691c-1.824.209-2.47.551-2.47 1.33zM180.736 153.442l2.926-.36V166h-2.926v-12.558zM186.188 153.442l2.926-.36V166h-2.926v-12.558zM203.515 166l-.874-2.526h-4.407l-.855 2.526h-3.002l4.217-11.873h3.781L206.516 166h-3.001zm-4.636-4.882h3.097l-1.52-4.654-1.577 4.654zM219.151 160.795c0-1.064-.456-1.425-1.197-1.425-.589 0-1.063.266-1.425.569V166h-2.925v-5.205c0-1.064-.476-1.425-1.216-1.425-.589 0-1.064.228-1.425.532V166h-2.926v-8.682l2.926-.361v1.235c.778-.817 1.652-1.311 2.812-1.311 1.12 0 2.052.531 2.488 1.576.817-.969 1.843-1.576 3.059-1.576 1.729 0 2.755 1.158 2.755 3.058V166h-2.926v-5.205zM229.298 164.139c.969 0 1.994-.343 2.888-.855l.284 2.261c-.893.456-2.146.722-3.438.722-2.982 0-4.938-1.652-4.938-4.616 0-2.888 1.976-4.768 4.787-4.768 2.508 0 3.875 1.5 3.875 3.704 0 .475-.057 1.178-.189 1.558l-5.604.095v.038c.093 1.196.891 1.861 2.335 1.861zm.741-3.553c0-1.064-.437-1.69-1.349-1.69-1.007 0-1.614.873-1.71 1.88l3.059-.019v-.171zM234.846 166v-8.682l2.926-.361v1.292c.513-.912 1.234-1.367 2.127-1.367.514 0 .988.113 1.463.36l-.589 2.584a2.54 2.54 0 0 0-1.102-.267c-.741 0-1.368.361-1.899 1.292V166h-2.926zM244.365 155.912c-1.064 0-1.729-.551-1.729-1.558 0-1.045.664-1.576 1.729-1.576 1.083 0 1.729.531 1.729 1.576-.001 1.007-.646 1.558-1.729 1.558zm-1.463 1.406l2.926-.361V166h-2.926v-8.682zM252.686 166.285c-2.944 0-4.787-1.653-4.787-4.636 0-2.944 1.899-4.768 4.863-4.768 1.234 0 2.394.284 3.211.74l-.57 2.204c-.703-.399-1.558-.685-2.337-.685-1.425 0-2.185.97-2.185 2.413 0 1.596.893 2.45 2.261 2.45.893 0 1.653-.228 2.337-.664l.437 2.223c-.741.457-1.938.723-3.23.723zM260.21 166.285c-1.52 0-2.697-1.083-2.697-2.451 0-1.652 1.253-3.039 5.224-3.134v-.172c0-.931-.475-1.349-1.558-1.349-.912 0-1.957.38-3.002.894l-.607-2.147a8.657 8.657 0 0 1 4.065-1.044c3.039 0 4.084 1.387 4.027 3.855l-.019 2.622c0 .608.113.665.722.722l-.285 2.09c-1.919.247-2.868-.266-3.268-1.234h-.057c-.626.74-1.329 1.348-2.545 1.348zm.057-2.888c0 .589.438.95 1.103.95.589 0 1.063-.229 1.367-.589v-1.691c-1.823.209-2.47.551-2.47 1.33zM273.909 160.775c0-1.063-.476-1.405-1.254-1.405-.665 0-1.216.304-1.596.665V166h-2.926v-8.682l2.926-.361v1.444c.778-.894 1.823-1.52 2.963-1.52 1.768 0 2.812 1.14 2.812 3.039V166h-2.925v-5.225zM282.458 166.285c-1.216 0-2.812-.267-3.742-.779l.569-2.108c1.045.532 2.186.836 3.23.836.798 0 1.196-.247 1.196-.722 0-.514-.494-.685-1.501-.912-2.052-.418-3.362-1.159-3.362-2.888 0-1.652 1.443-2.83 3.895-2.83 1.178 0 2.717.342 3.591.76l-.589 2.089c-1.007-.513-2.204-.798-3.04-.798-.722 0-1.083.229-1.083.665 0 .476.551.665 1.52.874 2.071.456 3.325 1.14 3.325 2.906 0 1.597-1.406 2.907-4.009 2.907zM288.083 160.984h7.182l.057.932h-7.295l.056-.932zM26.363 181.299h1.254l2.014 6.935 2.261-6.915h1.063l2.375 6.953 1.805-6.973h1.292l-2.584 8.739h-1.045l-2.375-7.029-2.374 7.029h-1.026l-2.66-8.739zM41.068 179.305c-.532 0-.798-.418-.798-.874 0-.437.266-.836.798-.836s.798.399.798.836c0 .456-.266.874-.798.874zm-.589 1.994l1.178-.246V190h-1.178v-8.701zM47.262 190.285c-1.672 0-2.394-.912-2.337-2.735l.133-5.148-1.33-.076.058-.741 1.311-.304.057-1.976h1.121l-.057 2.032h2.906l-.057 1.045h-2.888l-.133 5.205c-.038 1.083.38 1.634 1.272 1.634.589 0 1.14-.189 1.672-.418l.209 1.026c-.608.285-1.31.456-1.937.456zM57.292 184.377c0-1.52-.589-2.204-1.861-2.204-1.007 0-1.957.494-2.697 1.235V190h-1.178v-12.804l1.178-.247v5.49c.911-.912 2.052-1.387 3.021-1.387 1.69 0 2.717 1.082 2.717 2.982V190h-1.179v-5.623zM65.216 190.247c-2.432 0-4.198-1.786-4.198-4.578 0-2.773 1.861-4.616 4.293-4.616s4.18 1.785 4.18 4.578c0 2.773-1.862 4.616-4.275 4.616zm.038-8.131c-1.843 0-3.059 1.463-3.059 3.515 0 2.128 1.235 3.553 3.078 3.553 1.842 0 3.058-1.463 3.058-3.515.001-2.128-1.234-3.553-3.077-3.553zM73.215 186.923c0 1.52.589 2.203 1.881 2.203 1.007 0 1.976-.494 2.679-1.234v-6.593h1.178V190l-1.178.247v-1.406c-.894.912-2.033 1.406-3.002 1.406-1.69 0-2.735-1.083-2.735-2.982v-5.966h1.178v5.624zM84.521 190.285c-1.672 0-2.394-.912-2.337-2.735l.133-5.148-1.33-.076.058-.741 1.311-.304.057-1.976h1.121l-.057 2.032h2.906l-.057 1.045h-2.888l-.133 5.205c-.038 1.083.38 1.634 1.272 1.634.589 0 1.14-.189 1.672-.418l.209 1.026c-.608.285-1.31.456-1.937.456zM95.579 190.247c-2.641 0-4.256-1.881-4.256-4.578 0-2.717 1.805-4.616 4.274-4.616 1.063 0 1.976.266 2.717.74l-.304 1.064a4.388 4.388 0 0 0-2.413-.703c-1.899 0-3.059 1.425-3.059 3.477 0 2.128 1.234 3.515 3.077 3.515.894 0 1.748-.285 2.413-.723l.247 1.083c-.74.456-1.69.741-2.696.741zM104.432 190.247c-2.432 0-4.198-1.786-4.198-4.578 0-2.773 1.861-4.616 4.293-4.616s4.18 1.785 4.18 4.578c0 2.773-1.862 4.616-4.275 4.616zm.038-8.131c-1.843 0-3.059 1.463-3.059 3.515 0 2.128 1.235 3.553 3.078 3.553 1.842 0 3.058-1.463 3.058-3.515 0-2.128-1.234-3.553-3.077-3.553zM115.034 181.109c2.355 0 3.895 1.861 3.895 4.502 0 2.698-1.767 4.636-4.294 4.636-.684 0-1.538-.171-2.127-.456v4.636h-1.178v-13.165l1.178-.247v1.158c.588-.551 1.462-1.064 2.526-1.064zm-.342 8.075c1.881 0 3.021-1.501 3.021-3.553 0-2.014-1.102-3.438-2.869-3.438-.893 0-1.709.38-2.336.969v5.338c.531.437 1.348.684 2.184.684zM123.565 190.247c-1.596 0-2.755-1.026-2.755-2.413 0-1.558 1.234-2.888 5.281-3.097v-.513c0-1.367-.608-2.07-2.052-2.07-.95 0-2.09.494-2.85 1.045l-.266-1.103c.76-.551 2.09-1.044 3.229-1.044 2.032 0 3.134.911 3.115 3.115v4.18c0 .627.114.893.874.873l-.076.97c-1.14.075-1.767-.381-1.899-1.235h-.058c-.587.741-1.498 1.292-2.543 1.292zm-1.521-2.546c0 .931.741 1.52 1.786 1.52.931 0 1.729-.531 2.261-1.14v-2.545c-2.982.36-4.047 1.007-4.047 2.165zM132.856 191.786c-.817 2.146-1.615 2.735-2.812 2.735-.665 0-1.159-.171-1.69-.399l.36-1.082c.438.228.854.38 1.33.38.665 0 1.178-.361 1.785-2.014l.589-1.539-3.4-8.568h1.273l2.735 7.182 2.679-7.182h1.234l-3.381 8.606-.702 1.881zM140.931 190.247c-1.045 0-2.108-.304-2.85-.779l.323-1.083c.74.514 1.672.799 2.564.799 1.045 0 1.957-.514 1.957-1.463 0-1.064-1.103-1.33-2.186-1.691-1.196-.342-2.526-.949-2.526-2.47 0-1.576 1.311-2.507 2.944-2.507.969 0 1.9.266 2.641.646l-.342 1.063c-.74-.398-1.614-.646-2.374-.646-1.064 0-1.748.494-1.748 1.33 0 .987 1.025 1.272 2.146 1.634 1.235.36 2.564.931 2.564 2.545.002 1.577-1.365 2.622-3.113 2.622zM146.972 188.195c.685 0 1.349.607 1.349 1.501 0 1.292-1.063 2.432-2.355 3.286l-.513-.513c1.216-.854 1.672-1.596 1.672-2.261 0-.513-.342-.76-1.178-1.083.056-.474.398-.93 1.025-.93zM160.708 176.949V190h-1.178v-.816c-.589.531-1.443 1.063-2.526 1.063-2.355 0-3.895-1.862-3.895-4.521 0-2.697 1.805-4.616 4.312-4.616.741 0 1.52.189 2.108.475v-4.388l1.179-.248zm-3.342 5.224c-1.881 0-3.04 1.482-3.04 3.534 0 2.032 1.121 3.457 2.888 3.457.893 0 1.71-.38 2.317-.969v-5.357c-.532-.437-1.33-.665-2.165-.665zM167.549 189.146c.969 0 1.861-.285 2.526-.723l.229 1.083c-.741.456-1.71.741-2.793.741-2.508 0-4.198-1.862-4.198-4.521 0-2.735 1.748-4.673 4.104-4.673 1.919 0 3.173 1.234 3.173 3.21 0 .456-.058 1.007-.19 1.387l-5.889.038v.095c.056 1.976 1.215 3.363 3.038 3.363zm1.881-4.789c0-1.349-.722-2.241-2.09-2.241-1.577 0-2.546 1.197-2.755 2.641l4.825-.02c.02-.094.02-.284.02-.38zM180.278 176.949V190H179.1v-.816c-.589.531-1.443 1.063-2.526 1.063-2.355 0-3.895-1.862-3.895-4.521 0-2.697 1.805-4.616 4.312-4.616.741 0 1.52.189 2.108.475v-4.388l1.179-.248zm-3.343 5.224c-1.881 0-3.04 1.482-3.04 3.534 0 2.032 1.121 3.457 2.888 3.457.893 0 1.71-.38 2.317-.969v-5.357c-.531-.437-1.33-.665-2.165-.665zM184.554 186.923c0 1.52.589 2.203 1.881 2.203 1.007 0 1.976-.494 2.679-1.234v-6.593h1.178V190l-1.178.247v-1.406c-.894.912-2.033 1.406-3.002 1.406-1.69 0-2.735-1.083-2.735-2.982v-5.966h1.178v5.624zM197.151 190.247c-2.641 0-4.256-1.881-4.256-4.578 0-2.717 1.805-4.616 4.274-4.616 1.063 0 1.976.266 2.717.74l-.304 1.064a4.388 4.388 0 0 0-2.413-.703c-1.899 0-3.059 1.425-3.059 3.477 0 2.128 1.234 3.515 3.077 3.515.894 0 1.748-.285 2.413-.723l.247 1.083a5.194 5.194 0 0 1-2.696.741zM204.865 190.285c-1.672 0-2.394-.912-2.337-2.735l.133-5.148-1.33-.076.058-.741 1.311-.304.057-1.976h1.121l-.057 2.032h2.906l-.057 1.045h-2.888l-.133 5.205c-.038 1.083.38 1.634 1.272 1.634.589 0 1.14-.189 1.672-.418l.209 1.026c-.608.285-1.31.456-1.937.456zM209.766 179.305c-.532 0-.798-.418-.798-.874 0-.437.266-.836.798-.836s.798.399.798.836c0 .456-.266.874-.798.874zm-.589 1.994l1.178-.246V190h-1.178v-8.701zM216.872 190.247c-.702 0-1.538-.19-2.127-.475l-1.178.513v-13.089l1.178-.247v5.262c.589-.551 1.481-1.102 2.621-1.102 2.299 0 3.8 1.823 3.8 4.427 0 2.735-1.767 4.711-4.294 4.711zm.266-8.055c-.969 0-1.767.38-2.394.969v5.338c.531.438 1.349.685 2.185.685 1.881 0 3.021-1.501 3.021-3.591 0-1.976-1.083-3.401-2.812-3.401zM223.713 177.196l1.178-.247V190h-1.178v-12.804zM231.73 189.146c.969 0 1.861-.285 2.526-.723l.229 1.083c-.741.456-1.71.741-2.793.741-2.508 0-4.198-1.862-4.198-4.521 0-2.735 1.748-4.673 4.104-4.673 1.919 0 3.173 1.234 3.173 3.21 0 .456-.058 1.007-.19 1.387l-5.889.038v.095c.056 1.976 1.215 3.363 3.038 3.363zm1.881-4.789c0-1.349-.722-2.241-2.09-2.241-1.577 0-2.546 1.197-2.755 2.641l4.825-.02c.02-.094.02-.284.02-.38zM239.539 190.247c-1.045 0-2.108-.304-2.85-.779l.323-1.083c.74.514 1.672.799 2.564.799 1.045 0 1.957-.514 1.957-1.463 0-1.064-1.103-1.33-2.186-1.691-1.196-.342-2.526-.949-2.526-2.47 0-1.576 1.311-2.507 2.944-2.507.969 0 1.9.266 2.641.646l-.342 1.063c-.74-.398-1.614-.646-2.374-.646-1.064 0-1.748.494-1.748 1.33 0 .987 1.025 1.272 2.146 1.634 1.235.36 2.564.931 2.564 2.545.002 1.577-1.365 2.622-3.113 2.622zM245.581 188.195c.685 0 1.349.607 1.349 1.501 0 1.292-1.063 2.432-2.355 3.286l-.513-.513c1.216-.854 1.672-1.596 1.672-2.261 0-.513-.342-.76-1.178-1.083.056-.474.398-.93 1.025-.93zM255.917 190.247c-2.432 0-4.198-1.786-4.198-4.578 0-2.773 1.861-4.616 4.293-4.616s4.18 1.785 4.18 4.578c-.001 2.773-1.862 4.616-4.275 4.616zm.038-8.131c-1.843 0-3.059 1.463-3.059 3.515 0 2.128 1.235 3.553 3.078 3.553 1.842 0 3.058-1.463 3.058-3.515 0-2.128-1.235-3.553-3.077-3.553zM262.814 190v-8.701l1.178-.246v1.861c.589-1.14 1.425-1.861 2.564-1.861.589 0 1.121.171 1.52.398l-.304 1.102a2.539 2.539 0 0 0-1.33-.38c-.912 0-1.767.665-2.45 2.242V190h-1.178zM19.788 202.222c-.398-.209-.854-.361-1.329-.361-.97 0-1.444.608-1.444 2.033v1.443h2.735l-.057 1.045h-2.679V214h-1.158v-7.58l-1.406-.095.076-.741 1.311-.304.02-1.368c.057-2.279 1.102-3.134 2.621-3.134a3.66 3.66 0 0 1 1.596.38c-.02.019-.267 1.083-.286 1.064zM22.315 203.305c-.532 0-.798-.418-.798-.874 0-.437.266-.836.798-.836s.798.399.798.836c0 .456-.266.874-.798.874zm-.589 1.994l1.178-.246V214h-1.178v-8.701zM25.602 212.632c0-.74.608-1.349 1.425-1.652-.836-.513-1.405-1.443-1.405-2.659 0-1.843 1.367-3.268 3.419-3.268.912 0 1.577.228 2.052.513l2.413-.19.057 1.178-1.919-.189c.438.437.703 1.254.703 1.957 0 1.842-1.463 3.191-3.381 3.191-.476 0-.855-.096-1.292-.247-.456.209-.969.531-.969 1.045 0 .551.437.893 1.976.893h1.121c2.526 0 3.609.836 3.609 2.279 0 1.9-2.147 3.229-4.579 3.229-2.336 0-3.932-1.025-3.932-2.545 0-.988.74-1.862 1.88-2.147-.74-.286-1.178-.761-1.178-1.388zm.438 3.325c0 1.045 1.121 1.785 2.963 1.785 1.806 0 3.268-.874 3.268-2.052 0-1.045-.893-1.387-2.641-1.387-.589 0-1.311 0-1.823-.057-1.064.286-1.767.97-1.767 1.711zm2.982-5.395c1.349 0 2.166-.931 2.166-2.279 0-1.292-.761-2.261-2.223-2.261-1.368 0-2.186.949-2.186 2.317.001 1.272.818 2.223 2.243 2.223zM41.181 208.377c0-1.52-.589-2.204-1.861-2.204-1.007 0-1.957.494-2.697 1.235V214h-1.178v-12.804l1.178-.247v5.49c.911-.912 2.052-1.387 3.021-1.387 1.69 0 2.717 1.082 2.717 2.982V214h-1.179v-5.623zM47.87 214.285c-1.672 0-2.394-.912-2.337-2.735l.133-5.148-1.33-.076.058-.741 1.311-.304.057-1.976h1.121l-.057 2.032h2.906l-.057 1.045h-2.888l-.133 5.205c-.038 1.083.38 1.634 1.272 1.634.589 0 1.14-.189 1.672-.418l.209 1.026c-.608.285-1.31.456-1.937.456zM52.772 203.305c-.532 0-.798-.418-.798-.874 0-.437.266-.836.798-.836s.798.399.798.836c0 .456-.266.874-.798.874zm-.589 1.994l1.178-.246V214h-1.178v-8.701zM62.308 208.377c0-1.52-.607-2.204-1.918-2.204-.969 0-1.9.494-2.641 1.235V214h-1.178v-8.701l1.178-.246v1.425c.911-.912 2.052-1.425 2.963-1.425 1.748 0 2.774 1.082 2.774 2.982V214h-1.179v-5.623zM66.09 212.632c0-.74.608-1.349 1.425-1.652-.836-.513-1.405-1.443-1.405-2.659 0-1.843 1.367-3.268 3.419-3.268.912 0 1.577.228 2.052.513l2.413-.19.057 1.178-1.919-.189c.438.437.703 1.254.703 1.957 0 1.842-1.463 3.191-3.381 3.191-.476 0-.855-.096-1.292-.247-.456.209-.969.531-.969 1.045 0 .551.437.893 1.976.893h1.121c2.526 0 3.609.836 3.609 2.279 0 1.9-2.147 3.229-4.579 3.229-2.336 0-3.932-1.025-3.932-2.545 0-.988.74-1.862 1.88-2.147-.74-.286-1.178-.761-1.178-1.388zm.438 3.325c0 1.045 1.121 1.785 2.963 1.785 1.806 0 3.268-.874 3.268-2.052 0-1.045-.893-1.387-2.641-1.387-.589 0-1.311 0-1.823-.057-1.064.286-1.767.97-1.767 1.711zm2.982-5.395c1.349 0 2.166-.931 2.166-2.279 0-1.292-.761-2.261-2.223-2.261-1.368 0-2.186.949-2.186 2.317.001 1.272.818 2.223 2.243 2.223zM77.927 205.299h1.254l2.014 6.935 2.261-6.915h1.063l2.375 6.953 1.805-6.973h1.292l-2.584 8.739h-1.045l-2.375-7.029-2.374 7.029h-1.026l-2.66-8.739zM92.632 203.305c-.532 0-.798-.418-.798-.874 0-.437.266-.836.798-.836s.798.399.798.836c0 .456-.265.874-.798.874zm-.589 1.994l1.178-.246V214h-1.178v-8.701zM98.827 214.285c-1.672 0-2.394-.912-2.337-2.735l.133-5.148-1.33-.076.058-.741 1.311-.304.057-1.976h1.121l-.057 2.032h2.906l-.057 1.045h-2.888l-.133 5.205c-.038 1.083.38 1.634 1.272 1.634.589 0 1.14-.189 1.672-.418l.209 1.026c-.608.285-1.31.456-1.937.456zM108.858 208.377c0-1.52-.589-2.204-1.861-2.204-1.007 0-1.957.494-2.697 1.235V214h-1.178v-12.804l1.178-.247v5.49c.911-.912 2.052-1.387 3.021-1.387 1.69 0 2.717 1.082 2.717 2.982V214h-1.179v-5.623zM116.838 203.305c-.532 0-.798-.418-.798-.874 0-.437.266-.836.798-.836s.798.399.798.836c0 .456-.265.874-.798.874zm-.588 1.994l1.178-.246V214h-1.178v-8.701zM126.375 208.377c0-1.52-.607-2.204-1.918-2.204-.969 0-1.9.494-2.641 1.235V214h-1.178v-8.701l1.178-.246v1.425c.911-.912 2.052-1.425 2.963-1.425 1.748 0 2.774 1.082 2.774 2.982V214h-1.179v-5.623zM132.779 214.247c-1.045 0-2.108-.304-2.85-.779l.323-1.083c.74.514 1.672.799 2.564.799 1.045 0 1.957-.514 1.957-1.463 0-1.064-1.103-1.33-2.186-1.691-1.196-.342-2.526-.949-2.526-2.47 0-1.576 1.311-2.507 2.944-2.507.969 0 1.9.266 2.641.646l-.342 1.063c-.74-.398-1.614-.646-2.374-.646-1.064 0-1.748.494-1.748 1.33 0 .987 1.025 1.272 2.146 1.634 1.235.36 2.564.931 2.564 2.545.002 1.577-1.365 2.622-3.113 2.622zM139.562 210.923c0 1.52.589 2.203 1.881 2.203 1.007 0 1.976-.494 2.679-1.234v-6.593h1.178V214l-1.178.247v-1.406c-.894.912-2.033 1.406-3.002 1.406-1.69 0-2.735-1.083-2.735-2.982v-5.966h1.178v5.624zM148.473 214v-8.701l1.178-.246v1.861c.589-1.14 1.425-1.861 2.564-1.861.589 0 1.121.171 1.52.398l-.304 1.102a2.539 2.539 0 0 0-1.33-.38c-.912 0-1.767.665-2.45 2.242V214h-1.178zM157.593 214.247c-1.596 0-2.755-1.026-2.755-2.413 0-1.558 1.234-2.888 5.281-3.097v-.513c0-1.367-.608-2.07-2.052-2.07-.95 0-2.09.494-2.85 1.045l-.266-1.103c.76-.551 2.09-1.044 3.229-1.044 2.032 0 3.134.911 3.115 3.115v4.18c0 .627.114.893.874.873l-.076.97c-1.14.075-1.767-.381-1.899-1.235h-.058c-.587.741-1.498 1.292-2.543 1.292zm-1.52-2.546c0 .931.741 1.52 1.786 1.52.931 0 1.729-.531 2.261-1.14v-2.545c-2.983.36-4.047 1.007-4.047 2.165zM170.093 208.377c0-1.52-.607-2.204-1.918-2.204-.969 0-1.9.494-2.641 1.235V214h-1.178v-8.701l1.178-.246v1.425c.911-.912 2.052-1.425 2.963-1.425 1.748 0 2.774 1.082 2.774 2.982V214h-1.179v-5.623zM178.075 214.247c-2.641 0-4.256-1.881-4.256-4.578 0-2.717 1.805-4.616 4.274-4.616 1.063 0 1.976.266 2.717.74l-.304 1.064a4.388 4.388 0 0 0-2.413-.703c-1.899 0-3.059 1.425-3.059 3.477 0 2.128 1.234 3.515 3.077 3.515.894 0 1.748-.285 2.413-.723l.247 1.083a5.194 5.194 0 0 1-2.696.741zM186.966 213.146c.969 0 1.861-.285 2.526-.723l.229 1.083c-.741.456-1.71.741-2.793.741-2.508 0-4.198-1.862-4.198-4.521 0-2.735 1.748-4.673 4.104-4.673 1.919 0 3.173 1.234 3.173 3.21 0 .456-.058 1.007-.19 1.387l-5.889.038v.095c.056 1.976 1.215 3.363 3.038 3.363zm1.881-4.789c0-1.349-.722-2.241-2.09-2.241-1.577 0-2.546 1.197-2.755 2.641l4.825-.02c.02-.094.02-.284.02-.38zM199.43 214.247c-2.641 0-4.256-1.881-4.256-4.578 0-2.717 1.805-4.616 4.274-4.616 1.063 0 1.976.266 2.717.74l-.304 1.064a4.388 4.388 0 0 0-2.413-.703c-1.899 0-3.059 1.425-3.059 3.477 0 2.128 1.234 3.515 3.077 3.515.894 0 1.748-.285 2.413-.723l.247 1.083a5.194 5.194 0 0 1-2.696.741zM208.284 214.247c-2.432 0-4.198-1.786-4.198-4.578 0-2.773 1.861-4.616 4.293-4.616s4.18 1.785 4.18 4.578c-.001 2.773-1.862 4.616-4.275 4.616zm.038-8.131c-1.843 0-3.059 1.463-3.059 3.515 0 2.128 1.235 3.553 3.078 3.553 1.842 0 3.058-1.463 3.058-3.515 0-2.128-1.234-3.553-3.077-3.553zM226.047 208.396c0-1.52-.57-2.223-1.843-2.223-.931 0-1.786.494-2.451 1.121.02.133.038.57.038.779V214h-1.178v-5.604c0-1.52-.569-2.223-1.843-2.223-.911 0-1.747.418-2.412 1.007V214h-1.178v-8.701l1.178-.246v1.196c.893-.816 1.861-1.196 2.754-1.196 1.083 0 1.919.475 2.356 1.443.969-.969 2.07-1.443 3.077-1.443 1.672 0 2.679 1.082 2.679 3.001V214h-1.178v-5.604zM234.047 205.109c2.355 0 3.895 1.861 3.895 4.502 0 2.698-1.767 4.636-4.294 4.636-.684 0-1.538-.171-2.127-.456v4.636h-1.178v-13.165l1.178-.247v1.158c.589-.551 1.463-1.064 2.526-1.064zm-.341 8.075c1.881 0 3.021-1.501 3.021-3.553 0-2.014-1.102-3.438-2.869-3.438-.893 0-1.709.38-2.336.969v5.338c.53.437 1.348.684 2.184.684zM242.579 214.247c-1.596 0-2.755-1.026-2.755-2.413 0-1.558 1.234-2.888 5.281-3.097v-.513c0-1.367-.608-2.07-2.052-2.07-.95 0-2.09.494-2.85 1.045l-.266-1.103c.76-.551 2.09-1.044 3.229-1.044 2.032 0 3.134.911 3.115 3.115v4.18c0 .627.114.893.874.873l-.076.97c-1.14.075-1.767-.381-1.899-1.235h-.058c-.587.741-1.498 1.292-2.543 1.292zm-1.521-2.546c0 .931.741 1.52 1.786 1.52.931 0 1.729-.531 2.261-1.14v-2.545c-2.982.36-4.047 1.007-4.047 2.165zM255.08 208.377c0-1.52-.607-2.204-1.918-2.204-.969 0-1.9.494-2.641 1.235V214h-1.178v-8.701l1.178-.246v1.425c.911-.912 2.052-1.425 2.963-1.425 1.748 0 2.774 1.082 2.774 2.982V214h-1.179v-5.623zM259.983 203.305c-.532 0-.798-.418-.798-.874 0-.437.266-.836.798-.836s.798.399.798.836c0 .456-.266.874-.798.874zm-.589 1.994l1.178-.246V214h-1.178v-8.701zM267.449 213.146c.969 0 1.861-.285 2.526-.723l.229 1.083c-.741.456-1.71.741-2.793.741-2.508 0-4.198-1.862-4.198-4.521 0-2.735 1.748-4.673 4.104-4.673 1.919 0 3.173 1.234 3.173 3.21 0 .456-.058 1.007-.19 1.387l-5.889.038v.095c.055 1.976 1.214 3.363 3.038 3.363zm1.881-4.789c0-1.349-.722-2.241-2.09-2.241-1.577 0-2.546 1.197-2.755 2.641l4.825-.02c.02-.094.02-.284.02-.38zM275.258 214.247c-1.045 0-2.108-.304-2.85-.779l.323-1.083c.74.514 1.672.799 2.564.799 1.045 0 1.956-.514 1.956-1.463 0-1.064-1.102-1.33-2.185-1.691-1.196-.342-2.526-.949-2.526-2.47 0-1.576 1.311-2.507 2.944-2.507.969 0 1.9.266 2.641.646l-.342 1.063c-.74-.398-1.614-.646-2.374-.646-1.064 0-1.748.494-1.748 1.33 0 .987 1.025 1.272 2.146 1.634 1.235.36 2.564.931 2.564 2.545.003 1.577-1.365 2.622-3.113 2.622zM281.358 214.247c-.552 0-.95-.475-.95-.988a.94.94 0 0 1 .95-.949.94.94 0 0 1 .949.949c0 .513-.398.988-.949.988zM49.711 258.924h-1.329l-3.933-10.315L44.241 259h-1.197l.399-11.873h1.634l4.009 10.486 3.951-10.486h1.614l.38 11.873h-1.234l-.19-10.372-3.896 10.296zM61.701 259.247c-2.432 0-4.198-1.786-4.198-4.578 0-2.773 1.861-4.616 4.293-4.616s4.18 1.785 4.18 4.578c-.001 2.773-1.862 4.616-4.275 4.616zm.038-8.131c-1.843 0-3.059 1.463-3.059 3.515 0 2.128 1.235 3.553 3.078 3.553 1.842 0 3.058-1.463 3.058-3.515 0-2.128-1.234-3.553-3.077-3.553zM70.708 259.247c-1.045 0-2.108-.304-2.85-.779l.323-1.083c.74.514 1.672.799 2.564.799 1.045 0 1.956-.514 1.956-1.463 0-1.064-1.102-1.33-2.185-1.691-1.196-.342-2.526-.949-2.526-2.47 0-1.576 1.311-2.507 2.944-2.507.969 0 1.9.266 2.641.646l-.342 1.063c-.74-.398-1.614-.646-2.374-.646-1.064 0-1.748.494-1.748 1.33 0 .987 1.025 1.272 2.146 1.634 1.235.36 2.564.931 2.564 2.545.002 1.577-1.365 2.622-3.113 2.622zM78.783 259.285c-1.672 0-2.394-.912-2.337-2.735l.133-5.148-1.33-.076.058-.741 1.311-.304.057-1.976h1.121l-.057 2.032h2.906l-.057 1.045H77.7l-.133 5.205c-.038 1.083.38 1.634 1.272 1.634.589 0 1.14-.189 1.672-.418l.209 1.026c-.608.285-1.31.456-1.937.456zM90.333 247.222c-.398-.209-.854-.361-1.329-.361-.97 0-1.444.608-1.444 2.033v1.443h2.735l-.057 1.045H87.56V259h-1.158v-7.58l-1.406-.095.076-.741 1.311-.304.02-1.368c.057-2.279 1.102-3.134 2.621-3.134a3.66 3.66 0 0 1 1.596.38c-.02.019-.267 1.083-.287 1.064zM94.267 259.247c-1.596 0-2.755-1.026-2.755-2.413 0-1.558 1.234-2.888 5.281-3.097v-.513c0-1.367-.608-2.07-2.052-2.07-.95 0-2.09.494-2.85 1.045l-.266-1.103c.76-.551 2.09-1.044 3.229-1.044 2.032 0 3.134.911 3.115 3.115v4.18c0 .627.114.893.874.873l-.076.97c-1.14.075-1.767-.381-1.899-1.235h-.058c-.587.741-1.498 1.292-2.543 1.292zm-1.52-2.546c0 .931.741 1.52 1.786 1.52.931 0 1.729-.531 2.261-1.14v-2.545c-2.983.36-4.047 1.007-4.047 2.165zM111.897 253.396c0-1.52-.57-2.223-1.843-2.223-.931 0-1.786.494-2.451 1.121.02.133.038.57.038.779V259h-1.178v-5.604c0-1.52-.569-2.223-1.843-2.223-.911 0-1.747.418-2.412 1.007V259h-1.178v-8.701l1.178-.246v1.196c.893-.816 1.861-1.196 2.754-1.196 1.083 0 1.919.475 2.356 1.443.969-.969 2.07-1.443 3.077-1.443 1.672 0 2.679 1.082 2.679 3.001V259h-1.178v-5.604zM116.8 248.305c-.532 0-.798-.418-.798-.874 0-.437.266-.836.798-.836s.798.399.798.836c0 .456-.265.874-.798.874zm-.589 1.994l1.178-.246V259h-1.178v-8.701zM120.601 246.196l1.178-.247V259h-1.178v-12.804zM125.559 248.305c-.532 0-.798-.418-.798-.874 0-.437.266-.836.798-.836s.798.399.798.836c0 .456-.266.874-.798.874zm-.589 1.994l1.178-.246V259h-1.178v-8.701zM133.026 258.146c.969 0 1.861-.285 2.526-.723l.229 1.083c-.741.456-1.71.741-2.793.741-2.508 0-4.198-1.862-4.198-4.521 0-2.735 1.748-4.673 4.104-4.673 1.919 0 3.173 1.234 3.173 3.21 0 .456-.058 1.007-.19 1.387l-5.889.038v.095c.055 1.976 1.215 3.363 3.038 3.363zm1.881-4.789c0-1.349-.722-2.241-2.09-2.241-1.577 0-2.546 1.197-2.755 2.641l4.825-.02c.02-.094.02-.284.02-.38zM140.835 259.247c-1.045 0-2.108-.304-2.85-.779l.323-1.083c.74.514 1.672.799 2.564.799 1.045 0 1.957-.514 1.957-1.463 0-1.064-1.103-1.33-2.186-1.691-1.196-.342-2.526-.949-2.526-2.47 0-1.576 1.311-2.507 2.944-2.507.969 0 1.9.266 2.641.646l-.342 1.063c-.74-.398-1.614-.646-2.374-.646-1.064 0-1.748.494-1.748 1.33 0 .987 1.025 1.272 2.146 1.634 1.235.36 2.564.931 2.564 2.545.003 1.577-1.365 2.622-3.113 2.622zM148.511 250.299h1.254l2.014 6.935 2.261-6.915h1.063l2.375 6.953 1.805-6.973h1.292l-2.584 8.739h-1.045l-2.375-7.029-2.374 7.029h-1.026l-2.66-8.739zM163.216 248.305c-.532 0-.798-.418-.798-.874 0-.437.266-.836.798-.836s.798.399.798.836c0 .456-.265.874-.798.874zm-.589 1.994l1.178-.246V259h-1.178v-8.701zM167.017 246.196l1.178-.247V259h-1.178v-12.804zM171.368 246.196l1.178-.247V259h-1.178v-12.804zM182.5 250.109c2.355 0 3.895 1.861 3.895 4.502 0 2.698-1.767 4.636-4.294 4.636-.684 0-1.538-.171-2.127-.456v4.636h-1.178v-13.165l1.178-.247v1.158c.589-.551 1.463-1.064 2.526-1.064zm-.341 8.075c1.881 0 3.021-1.501 3.021-3.553 0-2.014-1.102-3.438-2.869-3.438-.893 0-1.709.38-2.336.969v5.338c.53.437 1.348.684 2.184.684zM191.033 259.247c-1.596 0-2.755-1.026-2.755-2.413 0-1.558 1.234-2.888 5.281-3.097v-.513c0-1.367-.608-2.07-2.052-2.07-.95 0-2.09.494-2.85 1.045l-.266-1.103c.76-.551 2.09-1.044 3.229-1.044 2.032 0 3.134.911 3.115 3.115v4.18c0 .627.114.893.874.873l-.076.97c-1.14.075-1.767-.381-1.899-1.235h-.058c-.587.741-1.498 1.292-2.543 1.292zm-1.521-2.546c0 .931.741 1.52 1.786 1.52.931 0 1.729-.531 2.261-1.14v-2.545c-2.982.36-4.047 1.007-4.047 2.165zM200.323 260.786c-.817 2.146-1.615 2.735-2.812 2.735-.665 0-1.159-.171-1.69-.399l.36-1.082c.438.228.854.38 1.33.38.665 0 1.178-.361 1.785-2.014l.589-1.539-3.4-8.568h1.273l2.735 7.182 2.679-7.182h1.234l-3.381 8.606-.702 1.881zM211.381 259.247c-1.596 0-2.755-1.026-2.755-2.413 0-1.558 1.234-2.888 5.281-3.097v-.513c0-1.367-.608-2.07-2.052-2.07-.95 0-2.09.494-2.85 1.045l-.266-1.103c.76-.551 2.09-1.044 3.229-1.044 2.032 0 3.134.911 3.115 3.115v4.18c0 .627.114.893.874.873l-.076.97c-1.14.075-1.767-.381-1.899-1.235h-.058c-.587.741-1.498 1.292-2.543 1.292zm-1.52-2.546c0 .931.741 1.52 1.786 1.52.931 0 1.729-.531 2.261-1.14v-2.545c-2.983.36-4.047 1.007-4.047 2.165zM220.748 257.917c3.135-2.374 5.13-3.704 5.13-5.243 0-1.007-.76-1.785-1.995-1.785-.969 0-1.861.437-2.697 1.102l-.418-1.007c.893-.703 1.938-1.197 3.229-1.197 1.843 0 3.115 1.121 3.115 2.735 0 2.071-2.128 3.438-4.692 5.357h5.13V259h-6.802v-1.083zM230.438 259.247c-.552 0-.95-.475-.95-.988a.94.94 0 0 1 .95-.949.94.94 0 0 1 .949.949c0 .513-.398.988-.949.988zM233.535 257.917c3.135-2.374 5.13-3.704 5.13-5.243 0-1.007-.76-1.785-1.995-1.785-.969 0-1.861.437-2.697 1.102l-.418-1.007c.893-.703 1.938-1.197 3.229-1.197 1.843 0 3.115 1.121 3.115 2.735 0 2.071-2.128 3.438-4.692 5.357h5.13V259h-6.802v-1.083zM244.876 252.978c-1.938 0-3.153-1.463-3.153-3.134 0-1.729 1.216-3.173 3.153-3.173 1.957 0 3.153 1.443 3.153 3.173.001 1.671-1.196 3.134-3.153 3.134zm0-5.491c-1.443 0-2.279 1.045-2.279 2.356 0 1.234.836 2.317 2.279 2.317s2.299-1.083 2.299-2.317c0-1.311-.855-2.356-2.299-2.356zm-1.709 11.798l9.632-12.425h1.025l-9.612 12.425h-1.045zm8.928.19c-1.956 0-3.153-1.443-3.153-3.172 0-1.672 1.197-3.135 3.153-3.135 1.938 0 3.153 1.463 3.153 3.135.001 1.728-1.215 3.172-3.153 3.172zm0-5.491c-1.443 0-2.279 1.083-2.279 2.318 0 1.311.836 2.355 2.279 2.355 1.444 0 2.299-1.045 2.299-2.355 0-1.235-.854-2.318-2.299-2.318zM21.137 272.305c-.532 0-.798-.418-.798-.874 0-.437.266-.836.798-.836s.798.399.798.836c0 .456-.266.874-.798.874zm-.589 1.994l1.178-.246V283h-1.178v-8.701zM30.674 277.377c0-1.52-.607-2.204-1.918-2.204-.969 0-1.9.494-2.641 1.235V283h-1.178v-8.701l1.178-.246v1.425c.911-.912 2.052-1.425 2.963-1.425 1.748 0 2.774 1.082 2.774 2.982V283h-1.179v-5.623zM38.655 283.247c-2.641 0-4.256-1.881-4.256-4.578 0-2.717 1.805-4.616 4.274-4.616 1.063 0 1.976.266 2.717.74l-.304 1.064a4.388 4.388 0 0 0-2.413-.703c-1.899 0-3.059 1.425-3.059 3.477 0 2.128 1.234 3.515 3.077 3.515.894 0 1.748-.285 2.413-.723l.247 1.083a5.194 5.194 0 0 1-2.696.741zM47.508 283.247c-2.432 0-4.198-1.786-4.198-4.578 0-2.773 1.861-4.616 4.293-4.616s4.18 1.785 4.18 4.578c0 2.773-1.862 4.616-4.275 4.616zm.038-8.131c-1.843 0-3.059 1.463-3.059 3.515 0 2.128 1.235 3.553 3.078 3.553 1.842 0 3.058-1.463 3.058-3.515.001-2.128-1.234-3.553-3.077-3.553zM65.273 277.396c0-1.52-.57-2.223-1.843-2.223-.931 0-1.786.494-2.451 1.121.02.133.038.57.038.779V283h-1.178v-5.604c0-1.52-.569-2.223-1.843-2.223-.911 0-1.747.418-2.412 1.007V283h-1.178v-8.701l1.178-.246v1.196c.893-.816 1.861-1.196 2.754-1.196 1.083 0 1.919.475 2.356 1.443.969-.969 2.07-1.443 3.077-1.443 1.672 0 2.679 1.082 2.679 3.001V283h-1.178v-5.604zM73.234 282.146c.969 0 1.861-.285 2.526-.723l.229 1.083c-.741.456-1.71.741-2.793.741-2.508 0-4.198-1.862-4.198-4.521 0-2.735 1.748-4.673 4.104-4.673 1.919 0 3.173 1.234 3.173 3.21 0 .456-.058 1.007-.19 1.387l-5.889.038v.095c.055 1.976 1.215 3.363 3.038 3.363zm1.881-4.789c0-1.349-.722-2.241-2.09-2.241-1.577 0-2.546 1.197-2.755 2.641l4.825-.02c.02-.094.02-.284.02-.38zM78.212 277.833h4.294v1.102h-4.294v-1.102zM88.224 283.247c-.702 0-1.538-.19-2.127-.475l-1.178.513v-13.089l1.178-.247v5.262c.589-.551 1.481-1.102 2.621-1.102 2.299 0 3.8 1.823 3.8 4.427 0 2.735-1.767 4.711-4.294 4.711zm.267-8.055c-.969 0-1.767.38-2.394.969v5.338c.531.438 1.349.685 2.185.685 1.881 0 3.021-1.501 3.021-3.591-.001-1.976-1.084-3.401-2.812-3.401zM97.08 283.247c-1.596 0-2.755-1.026-2.755-2.413 0-1.558 1.234-2.888 5.281-3.097v-.513c0-1.367-.608-2.07-2.052-2.07-.95 0-2.09.494-2.85 1.045l-.266-1.103c.76-.551 2.09-1.044 3.229-1.044 2.032 0 3.134.911 3.115 3.115v4.18c0 .627.114.893.874.873l-.076.97c-1.14.075-1.767-.381-1.899-1.235h-.058c-.587.741-1.498 1.292-2.543 1.292zm-1.521-2.546c0 .931.741 1.52 1.786 1.52.931 0 1.729-.531 2.261-1.14v-2.545c-2.982.36-4.047 1.007-4.047 2.165zM105.952 283.247c-1.045 0-2.108-.304-2.85-.779l.323-1.083c.74.514 1.672.799 2.564.799 1.045 0 1.956-.514 1.956-1.463 0-1.064-1.102-1.33-2.185-1.691-1.196-.342-2.526-.949-2.526-2.47 0-1.576 1.311-2.507 2.944-2.507.969 0 1.9.266 2.641.646l-.342 1.063c-.74-.398-1.614-.646-2.374-.646-1.064 0-1.748.494-1.748 1.33 0 .987 1.025 1.272 2.146 1.634 1.235.36 2.564.931 2.564 2.545.002 1.577-1.365 2.622-3.113 2.622zM115.299 282.146c.969 0 1.861-.285 2.526-.723l.229 1.083c-.741.456-1.71.741-2.793.741-2.508 0-4.198-1.862-4.198-4.521 0-2.735 1.748-4.673 4.104-4.673 1.919 0 3.173 1.234 3.173 3.21 0 .456-.058 1.007-.19 1.387l-5.889.038v.095c.056 1.976 1.215 3.363 3.038 3.363zm1.881-4.789c0-1.349-.722-2.241-2.09-2.241-1.577 0-2.546 1.197-2.755 2.641l4.825-.02c.02-.094.02-.284.02-.38zM128.029 269.949V283h-1.178v-.816c-.589.531-1.443 1.063-2.526 1.063-2.355 0-3.895-1.862-3.895-4.521 0-2.697 1.805-4.616 4.312-4.616.741 0 1.52.189 2.108.475v-4.388l1.179-.248zm-3.343 5.224c-1.881 0-3.04 1.482-3.04 3.534 0 2.032 1.121 3.457 2.888 3.457.893 0 1.71-.38 2.317-.969v-5.357c-.532-.437-1.33-.665-2.165-.665zM136.674 283.285c-1.672 0-2.394-.912-2.337-2.735l.133-5.148-1.33-.076.058-.741 1.311-.304.057-1.976h1.121l-.057 2.032h2.906l-.057 1.045h-2.888l-.133 5.205c-.038 1.083.38 1.634 1.272 1.634.589 0 1.14-.189 1.672-.418l.209 1.026c-.608.285-1.31.456-1.937.456zM142.982 283.247c-1.596 0-2.755-1.026-2.755-2.413 0-1.558 1.234-2.888 5.281-3.097v-.513c0-1.367-.608-2.07-2.052-2.07-.95 0-2.09.494-2.85 1.045l-.266-1.103c.76-.551 2.09-1.044 3.229-1.044 2.032 0 3.134.911 3.115 3.115v4.18c0 .627.114.893.874.873l-.076.97c-1.14.075-1.767-.381-1.899-1.235h-.058c-.587.741-1.498 1.292-2.543 1.292zm-1.521-2.546c0 .931.741 1.52 1.786 1.52.931 0 1.729-.531 2.261-1.14v-2.545c-2.982.36-4.047 1.007-4.047 2.165zM152.121 279.334L149.785 283h-1.33l3.001-4.464-2.812-4.237h1.312l2.165 3.382 2.128-3.382h1.311l-2.773 4.199 3.002 4.502h-1.312l-2.356-3.666zM161.849 279.923c0 1.52.589 2.203 1.881 2.203 1.007 0 1.976-.494 2.679-1.234v-6.593h1.178V283l-1.178.247v-1.406c-.894.912-2.033 1.406-3.002 1.406-1.69 0-2.735-1.083-2.735-2.982v-5.966h1.178v5.624zM176.497 277.377c0-1.52-.607-2.204-1.918-2.204-.969 0-1.9.494-2.641 1.235V283h-1.178v-8.701l1.178-.246v1.425c.911-.912 2.052-1.425 2.963-1.425 1.748 0 2.774 1.082 2.774 2.982V283h-1.179v-5.623zM187.821 269.949V283h-1.178v-.816c-.589.531-1.443 1.063-2.526 1.063-2.355 0-3.895-1.862-3.895-4.521 0-2.697 1.805-4.616 4.312-4.616.741 0 1.52.189 2.108.475v-4.388l1.179-.248zm-3.343 5.224c-1.881 0-3.04 1.482-3.04 3.534 0 2.032 1.121 3.457 2.888 3.457.893 0 1.71-.38 2.317-.969v-5.357c-.531-.437-1.33-.665-2.165-.665zM194.661 282.146c.969 0 1.861-.285 2.526-.723l.229 1.083c-.741.456-1.71.741-2.793.741-2.508 0-4.198-1.862-4.198-4.521 0-2.735 1.748-4.673 4.104-4.673 1.919 0 3.173 1.234 3.173 3.21 0 .456-.058 1.007-.19 1.387l-5.889.038v.095c.055 1.976 1.214 3.363 3.038 3.363zm1.881-4.789c0-1.349-.722-2.241-2.09-2.241-1.577 0-2.546 1.197-2.755 2.641l4.825-.02c.02-.094.02-.284.02-.38zM200.362 283v-8.701l1.178-.246v1.861c.589-1.14 1.425-1.861 2.564-1.861.589 0 1.121.171 1.52.398l-.304 1.102a2.539 2.539 0 0 0-1.33-.38c-.912 0-1.767.665-2.45 2.242V283h-1.178zM213.034 283.285c-1.672 0-2.394-.912-2.337-2.735l.133-5.148-1.33-.076.058-.741 1.311-.304.057-1.976h1.121l-.057 2.032h2.906l-.057 1.045h-2.888l-.133 5.205c-.038 1.083.38 1.634 1.272 1.634.589 0 1.14-.189 1.672-.418l.209 1.026c-.608.285-1.31.456-1.937.456zM223.065 277.377c0-1.52-.589-2.204-1.861-2.204-1.007 0-1.957.494-2.697 1.235V283h-1.178v-12.804l1.178-.247v5.49c.911-.912 2.052-1.387 3.021-1.387 1.69 0 2.717 1.082 2.717 2.982V283h-1.179v-5.623zM227.967 272.305c-.532 0-.798-.418-.798-.874 0-.437.266-.836.798-.836s.798.399.798.836c0 .456-.265.874-.798.874zm-.589 1.994l1.178-.246V283h-1.178v-8.701zM233.876 283.247c-1.045 0-2.108-.304-2.85-.779l.323-1.083c.74.514 1.672.799 2.564.799 1.045 0 1.957-.514 1.957-1.463 0-1.064-1.103-1.33-2.186-1.691-1.196-.342-2.526-.949-2.526-2.47 0-1.576 1.311-2.507 2.944-2.507.969 0 1.9.266 2.641.646l-.342 1.063c-.74-.398-1.614-.646-2.374-.646-1.064 0-1.748.494-1.748 1.33 0 .987 1.025 1.272 2.146 1.634 1.235.36 2.564.931 2.564 2.545.003 1.577-1.364 2.622-3.113 2.622zM246.34 274.109c2.355 0 3.895 1.861 3.895 4.502 0 2.698-1.767 4.636-4.294 4.636-.684 0-1.538-.171-2.127-.456v4.636h-1.178v-13.165l1.178-.247v1.158c.589-.551 1.463-1.064 2.526-1.064zm-.341 8.075c1.881 0 3.021-1.501 3.021-3.553 0-2.014-1.102-3.438-2.869-3.438-.893 0-1.709.38-2.336.969v5.338c.53.437 1.348.684 2.184.684zM252.858 270.196l1.178-.247V283h-1.178v-12.804zM259.222 283.247c-1.596 0-2.755-1.026-2.755-2.413 0-1.558 1.234-2.888 5.281-3.097v-.513c0-1.367-.608-2.07-2.052-2.07-.95 0-2.09.494-2.85 1.045l-.266-1.103c.76-.551 2.09-1.044 3.229-1.044 2.032 0 3.134.911 3.115 3.115v4.18c0 .627.114.893.874.873l-.076.97c-1.14.075-1.767-.381-1.899-1.235h-.058c-.587.741-1.498 1.292-2.543 1.292zm-1.52-2.546c0 .931.741 1.52 1.786 1.52.931 0 1.729-.531 2.261-1.14v-2.545c-2.983.36-4.047 1.007-4.047 2.165zM271.723 277.377c0-1.52-.607-2.204-1.918-2.204-.969 0-1.9.494-2.641 1.235V283h-1.178v-8.701l1.178-.246v1.425c.911-.912 2.052-1.425 2.963-1.425 1.748 0 2.774 1.082 2.774 2.982V283h-1.179v-5.623zM276.378 281.195c.685 0 1.349.607 1.349 1.501 0 1.292-1.063 2.432-2.355 3.286l-.513-.513c1.216-.854 1.672-1.596 1.672-2.261 0-.513-.342-.76-1.178-1.083.057-.474.398-.93 1.025-.93zM28.395 307.247c-1.596 0-2.755-1.026-2.755-2.413 0-1.558 1.234-2.888 5.281-3.097v-.513c0-1.367-.608-2.07-2.052-2.07-.95 0-2.09.494-2.85 1.045l-.266-1.103c.76-.551 2.09-1.044 3.229-1.044 2.032 0 3.134.911 3.115 3.115v4.18c0 .627.114.893.874.873l-.076.97c-1.14.075-1.767-.381-1.899-1.235h-.056c-.589.741-1.5 1.292-2.545 1.292zm-1.52-2.546c0 .931.741 1.52 1.786 1.52.931 0 1.729-.531 2.261-1.14v-2.545c-2.983.36-4.047 1.007-4.047 2.165zM40.895 301.377c0-1.52-.607-2.204-1.918-2.204-.969 0-1.9.494-2.641 1.235V307h-1.178v-8.701l1.178-.246v1.425c.911-.912 2.052-1.425 2.963-1.425 1.748 0 2.774 1.082 2.774 2.982V307h-1.179v-5.623zM52.219 293.949V307h-1.178v-.816c-.589.531-1.443 1.063-2.526 1.063-2.355 0-3.895-1.862-3.895-4.521 0-2.697 1.805-4.616 4.312-4.616.741 0 1.52.189 2.108.475v-4.388l1.179-.248zm-3.343 5.224c-1.881 0-3.04 1.482-3.04 3.534 0 2.032 1.121 3.457 2.888 3.457.893 0 1.71-.38 2.317-.969v-5.357c-.531-.437-1.33-.665-2.165-.665zM60.58 307.247c-1.045 0-2.108-.304-2.85-.779l.323-1.083c.74.514 1.672.799 2.564.799 1.045 0 1.957-.514 1.957-1.463 0-1.064-1.103-1.33-2.186-1.691-1.196-.342-2.526-.949-2.526-2.47 0-1.576 1.311-2.507 2.944-2.507.969 0 1.9.266 2.641.646l-.342 1.063c-.74-.398-1.614-.646-2.374-.646-1.064 0-1.748.494-1.748 1.33 0 .987 1.025 1.272 2.146 1.634 1.235.36 2.564.931 2.564 2.545.002 1.577-1.365 2.622-3.113 2.622zM68.275 307.247c-1.596 0-2.755-1.026-2.755-2.413 0-1.558 1.234-2.888 5.281-3.097v-.513c0-1.367-.608-2.07-2.052-2.07-.95 0-2.09.494-2.85 1.045l-.266-1.103c.76-.551 2.09-1.044 3.229-1.044 2.032 0 3.134.911 3.115 3.115v4.18c0 .627.114.893.874.873l-.076.97c-1.14.075-1.767-.381-1.899-1.235h-.056c-.589.741-1.5 1.292-2.545 1.292zm-1.521-2.546c0 .931.741 1.52 1.786 1.52.931 0 1.729-.531 2.261-1.14v-2.545c-2.982.36-4.047 1.007-4.047 2.165zM77.167 307.019l-3.438-8.72h1.273l2.754 7.182 2.66-7.182h1.234l-3.419 8.72h-1.064zM87.103 306.146c.969 0 1.861-.285 2.526-.723l.229 1.083c-.741.456-1.71.741-2.793.741-2.508 0-4.198-1.862-4.198-4.521 0-2.735 1.748-4.673 4.104-4.673 1.919 0 3.173 1.234 3.173 3.21 0 .456-.058 1.007-.19 1.387l-5.889.038v.095c.056 1.976 1.215 3.363 3.038 3.363zm1.881-4.789c0-1.349-.722-2.241-2.09-2.241-1.577 0-2.546 1.197-2.755 2.641l4.825-.02c.02-.094.02-.284.02-.38zM106.749 301.396c0-1.52-.57-2.223-1.843-2.223-.931 0-1.786.494-2.451 1.121.02.133.038.57.038.779V307h-1.178v-5.604c0-1.52-.569-2.223-1.843-2.223-.911 0-1.747.418-2.412 1.007V307h-1.178v-8.701l1.178-.246v1.196c.893-.816 1.861-1.196 2.754-1.196 1.083 0 1.919.475 2.356 1.443.969-.969 2.07-1.443 3.077-1.443 1.672 0 2.679 1.082 2.679 3.001V307h-1.178v-5.604zM114.671 307.247c-2.432 0-4.198-1.786-4.198-4.578 0-2.773 1.861-4.616 4.293-4.616s4.18 1.785 4.18 4.578c0 2.773-1.862 4.616-4.275 4.616zm.038-8.131c-1.843 0-3.059 1.463-3.059 3.515 0 2.128 1.235 3.553 3.078 3.553 1.842 0 3.058-1.463 3.058-3.515.001-2.128-1.234-3.553-3.077-3.553zM121.57 307v-8.701l1.178-.246v1.861c.589-1.14 1.425-1.861 2.564-1.861.589 0 1.121.171 1.52.398l-.304 1.102a2.539 2.539 0 0 0-1.33-.38c-.912 0-1.767.665-2.45 2.242V307h-1.178zM132.247 306.146c.969 0 1.861-.285 2.526-.723l.229 1.083c-.741.456-1.71.741-2.793.741-2.508 0-4.198-1.862-4.198-4.521 0-2.735 1.748-4.673 4.104-4.673 1.919 0 3.173 1.234 3.173 3.21 0 .456-.058 1.007-.19 1.387l-5.889.038v.095c.055 1.976 1.214 3.363 3.038 3.363zm1.88-4.789c0-1.349-.722-2.241-2.09-2.241-1.577 0-2.546 1.197-2.755 2.641l4.825-.02c.02-.094.02-.284.02-.38zM143.418 307.285c-1.672 0-2.394-.912-2.337-2.735l.133-5.148-1.33-.076.058-.741 1.311-.304.057-1.976h1.121l-.057 2.032h2.906l-.057 1.045h-2.888l-.133 5.205c-.038 1.083.38 1.634 1.272 1.634.589 0 1.14-.189 1.672-.418l.209 1.026c-.607.285-1.31.456-1.937.456zM153.45 301.377c0-1.52-.589-2.204-1.861-2.204-1.007 0-1.957.494-2.697 1.235V307h-1.178v-12.804l1.178-.247v5.49c.911-.912 2.052-1.387 3.021-1.387 1.69 0 2.717 1.082 2.717 2.982V307h-1.179v-5.623zM159.758 307.247c-1.596 0-2.755-1.026-2.755-2.413 0-1.558 1.234-2.888 5.281-3.097v-.513c0-1.367-.608-2.07-2.052-2.07-.95 0-2.09.494-2.85 1.045l-.266-1.103c.76-.551 2.09-1.044 3.229-1.044 2.032 0 3.134.911 3.115 3.115v4.18c0 .627.114.893.874.873l-.076.97c-1.14.075-1.767-.381-1.899-1.235h-.058c-.587.741-1.498 1.292-2.543 1.292zm-1.52-2.546c0 .931.741 1.52 1.786 1.52.931 0 1.729-.531 2.261-1.14v-2.545c-2.983.36-4.047 1.007-4.047 2.165zM172.259 301.377c0-1.52-.607-2.204-1.918-2.204-.969 0-1.9.494-2.641 1.235V307h-1.178v-8.701l1.178-.246v1.425c.911-.912 2.052-1.425 2.963-1.425 1.748 0 2.774 1.082 2.774 2.982V307h-1.179v-5.623zM183.469 294.006l.114-.874h.816l-.247 1.862a6.46 6.46 0 0 1 2.337.911l-.437 1.064a5.445 5.445 0 0 0-2.052-.874l-.589 4.331c1.672.513 3.306 1.292 3.306 3.4 0 1.976-1.634 3.42-4.009 3.42h-.285l-.285 2.09h-.816l.285-2.185a6.848 6.848 0 0 1-2.698-1.007l.438-1.083c.703.475 1.501.854 2.412 1.025 0-.019.152-1.178.323-2.355.095-.703.209-1.481.323-2.355-1.615-.513-3.268-1.178-3.268-3.268 0-1.899 1.558-3.229 3.78-3.229.152 0 .285 0 .437.019.001-.018.059-.456.115-.892zm-.551 4.084c.095-.607.19-1.311.285-2.108h-.285c-1.767 0-2.603.95-2.603 2.033 0 1.196.874 1.672 2.317 2.185-.017-.02.154-1.065.286-2.11zm-.17 8.074c1.69 0 2.812-.969 2.812-2.241 0-1.235-.854-1.786-2.394-2.299l-.608 4.54h.19zM191.621 302.858c2.374 0 3.951 1.501 3.951 3.609 0 2.394-1.824 4.047-4.142 4.047-1.083 0-2.279-.342-3.039-.779l.228-1.158c.76.437 1.786.816 2.85.816 1.672 0 2.906-1.121 2.906-2.868 0-1.444-1.102-2.641-2.868-2.641-1.102 0-1.558.113-2.261.36l-.399-.38.761-5.851h5.642l.058 1.14h-4.73l-.551 3.895c.434-.132.852-.19 1.594-.19zM198.48 305.195c.685 0 1.349.607 1.349 1.501 0 1.292-1.063 2.432-2.355 3.286l-.513-.513c1.216-.854 1.672-1.596 1.672-2.261 0-.513-.342-.76-1.178-1.083.056-.474.398-.93 1.025-.93zM205.737 307.247c-2.603 0-4.559-1.957-4.559-4.73s1.956-4.73 4.559-4.73c2.622 0 4.598 1.957 4.598 4.73s-1.976 4.73-4.598 4.73zm0-8.34c-1.994 0-3.381 1.558-3.381 3.609s1.387 3.609 3.381 3.609c2.033 0 3.42-1.558 3.42-3.609s-1.387-3.609-3.42-3.609zM217.157 307.247c-2.604 0-4.56-1.957-4.56-4.73s1.956-4.73 4.56-4.73c2.621 0 4.597 1.957 4.597 4.73s-1.976 4.73-4.597 4.73zm0-8.34c-1.995 0-3.382 1.558-3.382 3.609s1.387 3.609 3.382 3.609c2.032 0 3.419-1.558 3.419-3.609s-1.387-3.609-3.419-3.609zM228.575 307.247c-2.603 0-4.559-1.957-4.559-4.73s1.956-4.73 4.559-4.73c2.622 0 4.598 1.957 4.598 4.73s-1.976 4.73-4.598 4.73zm0-8.34c-1.994 0-3.381 1.558-3.381 3.609s1.387 3.609 3.381 3.609c2.033 0 3.42-1.558 3.42-3.609s-1.387-3.609-3.42-3.609zM233.534 310.78l4.617-17.116h.949l-4.635 17.116h-.931zM243.167 308.786c-.817 2.146-1.615 2.735-2.812 2.735-.665 0-1.159-.171-1.69-.399l.36-1.082c.438.228.854.38 1.33.38.665 0 1.178-.361 1.785-2.014l.589-1.539-3.4-8.568h1.273l2.735 7.182 2.679-7.182h1.234l-3.381 8.606-.702 1.881zM252.705 306.146c.969 0 1.861-.285 2.526-.723l.229 1.083c-.741.456-1.71.741-2.793.741-2.508 0-4.198-1.862-4.198-4.521 0-2.735 1.748-4.673 4.104-4.673 1.919 0 3.173 1.234 3.173 3.21 0 .456-.058 1.007-.19 1.387l-5.889.038v.095c.055 1.976 1.214 3.363 3.038 3.363zm1.88-4.789c0-1.349-.722-2.241-2.09-2.241-1.577 0-2.546 1.197-2.755 2.641l4.825-.02c.02-.094.02-.284.02-.38zM260.418 307.247c-1.596 0-2.755-1.026-2.755-2.413 0-1.558 1.234-2.888 5.281-3.097v-.513c0-1.367-.608-2.07-2.052-2.07-.95 0-2.09.494-2.85 1.045l-.266-1.103c.76-.551 2.09-1.044 3.229-1.044 2.032 0 3.134.911 3.115 3.115v4.18c0 .627.114.893.874.873l-.076.97c-1.14.075-1.767-.381-1.899-1.235h-.058c-.586.741-1.498 1.292-2.543 1.292zm-1.52-2.546c0 .931.741 1.52 1.786 1.52.931 0 1.729-.531 2.261-1.14v-2.545c-2.983.36-4.047 1.007-4.047 2.165zM267.183 307v-8.701l1.178-.246v1.861c.589-1.14 1.425-1.861 2.564-1.861.589 0 1.121.171 1.52.398l-.304 1.102a2.539 2.539 0 0 0-1.33-.38c-.912 0-1.767.665-2.45 2.242V307h-1.178zM273.662 307.247c-.552 0-.95-.475-.95-.988a.94.94 0 0 1 .95-.949.94.94 0 0 1 .949.949c0 .513-.399.988-.949.988z"/></g><g><path fill="none" stroke="#FF336C" stroke-miterlimit="10" d="M65.817 2c4.371 0 4.371 2 8.742 2S78.93 2 83.3 2c4.372 0 4.372 2 8.744 2 4.371 0 4.371-2 8.742-2 4.373 0 4.373 2 8.745 2 4.373 0 4.373-2 8.746-2 4.372 0 4.372 2 8.744 2 4.373 0 4.373-2 8.745-2 4.373 0 4.373 2 8.746 2 4.374 0 4.374-2 8.747-2s4.373 2 8.746 2c4.372 0 4.372-2 8.744-2s4.372 2 8.744 2 4.372-2 8.744-2c4.373 0 4.373 2 8.746 2 4.375 0 4.375-2 8.75-2 4.373 0 4.373 2 8.747 2 4.376 0 4.376-2 8.753-2s4.377 2 8.753 2"/></g></svg>