<svg xmlns="http://www.w3.org/2000/svg" width="293.489" height="293.489" viewBox="0 0 293.489 293.489"><path fill="#FFF" d="M61.44 137.769l.071.077c1.211 1.318 2.23 2.752 3.117 4.183.284.46.554.92.811 1.376.544.966 2.016.467 1.849-.628l-.01-.066c-.591-3.881-1.197-6.838-1.224-6.971l-.001-.004-.011-.054c-1.25-6.455-1.69-12.009-1.689-16.618-.002-10.267 2.185-15.829 2.371-16.276a4.303 4.303 0 0 1 5.175-2.491c1.156.337 2.124.458 2.951.458a7.113 7.113 0 0 0 2.167-.321 6.774 6.774 0 0 0 1.66-.789l.014-.009c.713-.463.904-1.426.469-2.155a39.448 39.448 0 0 1-2.047-3.913 42.527 42.527 0 0 1-2.539-7.347c-1.128-4.563-1.285-8.27-1.287-10.081 0-.69.024-1.105.029-1.186a4.296 4.296 0 0 1 3.686-3.984c1.433-.209 2.852.386 3.847 1.438.586.621 1.352 1.182 2.299 1.671.986.51 2.161.931 3.431 1.249 1.878.475 3.951.714 5.879.805a24.911 24.911 0 0 1-.97-2.278 23.54 23.54 0 0 1-1.466-8.151c0-2.307.342-4.219.697-5.595.356-1.377.726-2.222.81-2.408a4.312 4.312 0 0 1 2.485-2.275 4.31 4.31 0 0 1 3.346.211v-.001l.021.01a20.96 20.96 0 0 0 .857.375c.646.264 1.629.631 2.886 1.001a36.75 36.75 0 0 0 10.311 1.49 34.864 34.864 0 0 0 6.231-.562c-.85-.848-1.678-1.791-2.41-2.876a13.034 13.034 0 0 1-1.341-2.522c-.415-1.059-.7-2.263-.7-3.566a8.746 8.746 0 0 1 1.05-4.167c.701-1.314 1.709-2.449 2.916-3.418a17.51 17.51 0 0 1 2.71-1.765h-.001c3.388-1.811 7.063-2.944 10.786-3.642 3.725-.696 7.507-.954 11.154-.955 6.43.002 12.443.808 16.895 1.607 4.112.742 6.879 1.48 7.348 1.609.527.129 3.258.826 7.08 2.312 4.154 1.618 9.599 4.158 14.89 7.989 3.524 2.555 6.987 5.691 9.897 9.544a36.988 36.988 0 0 1 4.326 7.316 35.221 35.221 0 0 1 2.688 9.507c.092-.031.187-.063.287-.102.645-.243 1.418-.627 2.146-1.048a28.084 28.084 0 0 0 3.017-2.03l.053-.042h.001a4.276 4.276 0 0 1 3.804-.797 4.276 4.276 0 0 1 2.891 2.605 31.616 31.616 0 0 1 2.115 11.418c-.001 3.298-.496 6.362-1.225 9.095a41.306 41.306 0 0 1-2.652 7.147 43.217 43.217 0 0 1-1.676 3.159c.043.004.086.008.131.008.208.001.492-.049.852-.194a5.696 5.696 0 0 0 1.162-.66 9.475 9.475 0 0 0 1.571-1.444l.026-.031.002.001a4.285 4.285 0 0 1 4.293-1.516 4.288 4.288 0 0 1 3.249 3.228c1.71 7.431 2.276 14.585 2.276 20.856-.004 11.442-1.879 19.96-2.345 21.91 0 0-2.223 8.721 3.767-.394.834-1.268 1.433-2.82 2.048-4.199a90.872 90.872 0 0 0 2.093-5.105c.061-.168.146-.361.23-.519.951-1.808 1.504-3.73 1.797-5.234s.332-2.58.334-2.676l.002-.006v-.076c.074-2.158.111-4.259.111-6.305-.002-17.651-2.65-31.153-6.394-41.447-3.747-10.295-8.582-17.4-13.078-22.29-2.999-3.259-5.853-5.53-8.146-7.068-3.058-2.051-5.121-2.798-5.159-2.811l.001-.001a4.607 4.607 0 0 1-.872-.419c-11.146-7.01-21.535-11.657-31.115-14.557-9.58-2.897-18.354-4.052-26.301-4.053-8.155 0-15.444 1.218-21.826 3.057a78.137 78.137 0 0 0-16.329 6.799c-8.958 4.982-13.94 10.092-14.202 10.369l-.011.011h-.002a4.323 4.323 0 0 1-2.014 1.2c-3.79 1.012-7.087 2.491-10.003 4.349-2.914 1.859-5.451 4.102-7.681 6.672-4.455 5.133-7.67 11.615-9.894 18.696-1.484 4.716-2.527 9.686-3.228 14.643-.936 6.61-1.266 13.197-1.265 19.135-.001 7.105.47 13.28.909 17.485a10.478 10.478 0 0 0 2.736 6.027"/><path fill="#FFF" d="M159.086 141.988c-.001.78.094 1.673.254 2.56.159.887.381 1.769.609 2.543.395 1.345.81 2.37.924 2.644a101.411 101.411 0 0 0 1.838 3.578c.686 1.281 1.4 2.576 2.054 3.738a259.242 259.242 0 0 0 2.226 3.887c.299.268.672.525 1.131.764.604.312 1.347.582 2.156.787 1.619.412 3.484.547 4.922.543 1.389 0 2.373-.112 2.428-.119l.227-.028.23-.004c12.752-.237 19.476-2.946 19.619-3.004l.136-.058.155-.051a7.777 7.777 0 0 0 1.752-.832 6.792 6.792 0 0 0 2.509-2.922c.144-.322.21-.546.223-.595l.024-.108.051-.168c.102-.328.212-.812.305-1.379.094-.57.17-1.225.229-1.92.118-1.391.161-2.938.161-4.359a80.34 80.34 0 0 0-.165-5.138v-.001l-.013-.155v-.156c0-1.938-.252-3.302-.555-4.233-.306-.933-.646-1.442-.915-1.759a2.424 2.424 0 0 0-.46-.423 1.308 1.308 0 0 0-.255-.142c-6.239-1.085-11.828-1.484-16.676-1.484-13.322-.001-21.067 3.009-21.179 3.053l-.282.114-.312.074c-1.217.292-1.91.672-2.33.984-.42.318-.602.578-.742.836-.09.171-.15.345-.191.514a2.458 2.458 0 0 0-.068.556l.002.06.069.435-.053.548c-.025.25-.038.527-.038.82m10.737-1.3c.201-.038 3.953-.759 9.646-.76 3.352 0 7.379.25 11.753 1.057a4.295 4.295 0 0 1-1.56 8.447 56.407 56.407 0 0 0-10.193-.916c-4.74 0-7.906.582-8.006.602l-.004.002h-.006a4.294 4.294 0 0 1-1.63-8.432"/><path fill="#FFF" d="M208.446 130.846c.814 1.036 1.539 2.32 2.081 3.836.151.422.284.865.407 1.322.41-.087.943-.25 1.627-.557 1.289-.583 3.093-1.697 5.367-3.761.166-.151.342-.281.524-.401.144-2.074.233-4.323.233-6.708a88.81 88.81 0 0 0-.865-12.44c-.493.194-1.014.37-1.574.504-.746.176-1.552.285-2.402.285a9.897 9.897 0 0 1-3.746-.737c-1.246-.506-2.429-1.277-3.494-2.265a16.1 16.1 0 0 1-2.004-2.263 4.303 4.303 0 0 1 .084-5.202l-.002-.001.014-.016.084-.112c.082-.11.212-.289.378-.531.334-.485.815-1.225 1.354-2.173 1.08-1.896 2.381-4.63 3.229-7.817.567-2.125.935-4.449.935-6.881a23.34 23.34 0 0 0-.199-3.061c-.146.075-.293.151-.445.225-1.079.525-2.251 1.01-3.568 1.328-.755.179-1.562.304-2.447.305a8.003 8.003 0 0 1-2.123-.276 7.03 7.03 0 0 1-2.205-1.037 6.964 6.964 0 0 1-1.268-1.159 7.62 7.62 0 0 1-1.182-1.91c-.391-.901-.613-1.834-.729-2.793a26.629 26.629 0 0 0-2.438-8.393c-1.207-2.516-2.772-4.782-4.58-6.827-3.61-4.09-8.212-7.271-12.541-9.586a63.75 63.75 0 0 0-7.856-3.53c-2.959-1.098-4.971-1.594-5.092-1.623l-.166-.043-.014-.003-.075-.021a67.25 67.25 0 0 0-1.653-.413 95.003 95.003 0 0 0-4.893-1.012c-4.098-.739-9.664-1.474-15.372-1.472-3.234 0-6.511.235-9.575.81-3.065.572-5.906 1.482-8.312 2.771v.001c-.913.487-1.475.932-1.772 1.236-.301.311-.344.453-.358.486l-.008.053c-.001.045.011.206.137.505.124.295.361.707.706 1.159.684.909 1.782 1.947 2.875 2.808a29.878 29.878 0 0 0 3.493 2.377v.001a4.306 4.306 0 0 1 2.208 3.964 4.309 4.309 0 0 1-2.581 3.732 43.008 43.008 0 0 1-17.207 3.57 45.322 45.322 0 0 1-12.741-1.84l-.075-.022a14.945 14.945 0 0 0 .929 5.649c.715 1.934 1.912 4.064 3.976 6.327a4.297 4.297 0 0 1-2.554 7.148c-.14.019-2.812.404-6.542.406-2.161-.001-4.678-.129-7.296-.562a31.158 31.158 0 0 1-4.455-1.07 34.327 34.327 0 0 0 2.258 6.884 30.127 30.127 0 0 0 3.634 6.046 4.284 4.284 0 0 1 .483 4.488c-.082.17-.43.874-1.109 1.841a17.218 17.218 0 0 1-3.138 3.39 15.773 15.773 0 0 1-3.49 2.183 15.544 15.544 0 0 1-6.466 1.377c-.341 0-.687-.014-1.036-.035-.435 2.182-.871 5.438-.871 9.754 0 3.533.293 7.776 1.123 12.717 3.37 1.707 6.112 2.692 8.01 3.25.512-1.54 1.204-2.851 1.999-3.921a11.397 11.397 0 0 1 1.902-2.012 10.172 10.172 0 0 1 2.447-1.504 8.167 8.167 0 0 1 1.844-.564l.016-.003.024-.004c6.767-1.179 12.872-1.619 18.204-1.619 13.816.001 22.426 2.941 24.084 3.559 2.033.521 3.765 1.331 5.16 2.374a11.047 11.047 0 0 1 3.209 3.733c.362.692.618 1.369.802 2.004a26.268 26.268 0 0 1 4.292-.356c.099 0 .203.006.302.007.1-.001.204-.007.302-.007 1.607.001 3.055.15 4.291.356a10.764 10.764 0 0 1 1.936-3.737 11.522 11.522 0 0 1 2.58-2.356c1.303-.876 2.864-1.56 4.664-2.021 1.676-.624 10.28-3.555 24.076-3.556 5.34 0 11.455.44 18.233 1.624l.007.001.004.001c.417.071 1.215.252 2.216.733 1.145.549 2.555 1.522 3.776 3.083"/><path fill="#FFF" d="M133.616 140.124a2.442 2.442 0 0 0-.091-.64 2.146 2.146 0 0 0-.398-.779 2.908 2.908 0 0 0-.663-.593c-.429-.287-1.099-.619-2.18-.877l-.312-.075-.286-.114-.031-.012c-.039-.015-.109-.042-.211-.078a27.377 27.377 0 0 0-.975-.324 47.072 47.072 0 0 0-4.072-1.056c-3.623-.781-9.009-1.582-15.885-1.582-4.848 0-10.437.399-16.676 1.484a1.48 1.48 0 0 0-.352.213c-.127.1-.279.24-.451.459-.228.293-.498.727-.751 1.43-.335.934-.632 2.356-.632 4.455v.156l-.011.155v.001l-.001.015-.005.069-.018.29a83.483 83.483 0 0 0-.141 4.765c0 1.068.024 2.203.086 3.291s.164 2.133.305 2.988c.092.567.203 1.051.304 1.379l.051.168.024.11.01.032c.021.07.067.212.145.4a6.735 6.735 0 0 0 1.957 2.631c.595.484 1.34.935 2.372 1.283l.154.051.139.059.014.006a20.316 20.316 0 0 0 1.011.355c.781.254 2 .611 3.647.982 3.294.74 8.3 1.536 14.944 1.659l.232.005.228.027.005.002.106.012a25.289 25.289 0 0 0 2.315.105c1.078 0 2.395-.069 3.672-.285 1.277-.209 2.502-.573 3.405-1.045a5.362 5.362 0 0 0 1.131-.764l.124-.211a271.345 271.345 0 0 0 4.09-7.291c.693-1.293 1.36-2.58 1.903-3.699.025-.061.064-.155.114-.283.103-.258.252-.648.419-1.135.333-.967.734-2.312.985-3.685.169-.915.271-1.84.269-2.646a8.135 8.135 0 0 0-.037-.822l-.053-.547.07-.435.001-.059zm-7.486 5.613a4.296 4.296 0 0 1-5.047 3.379h-.001l-.077-.014a11.379 11.379 0 0 0-.376-.064 36.187 36.187 0 0 0-1.569-.207 53.425 53.425 0 0 0-5.863-.314c-2.893 0-6.387.221-10.146.916a4.294 4.294 0 1 1-1.559-8.447 64.685 64.685 0 0 1 11.705-1.057c5.652.001 9.349.723 9.555.763a4.29 4.29 0 0 1 3.378 5.045"/><path fill="#FFF" d="M238.75 147.182a5.07 5.07 0 0 0-.599-.824 69.297 69.297 0 0 1-.931 1.953c-.709 1.43-1.483 2.87-2.33 4.208-.428.677-.88 1.321-1.362 1.94-.125.185-.512.756-1.062 1.533a69.501 69.501 0 0 1-2.507 3.332 31.413 31.413 0 0 1-2.021 2.293c-.41.41-.828.803-1.328 1.187a8.036 8.036 0 0 1-.916.612 5.792 5.792 0 0 1-1.489.6 5.116 5.116 0 0 1-1.188.145 4.842 4.842 0 0 1-1.635-.291 5.153 5.153 0 0 1-.667-.221 5.558 5.558 0 0 1-1.834-1.262 6.745 6.745 0 0 1-.89-1.148 9.056 9.056 0 0 1-.818-1.752c-.292-.838-.51-1.765-.674-2.854-.217-1.45-.337-3.189-.338-5.372.001-1.644.07-3.538.227-5.739.018-.252.062-.527.127-.771h-.001l.002-.008.015-.054.062-.256c.056-.235.138-.596.239-1.073l.1-.487a21.37 21.37 0 0 1-.828.399c-1.563.71-3.014 1.111-4.313 1.295.028.853.049 1.847.049 2.919 0 1.192-.026 2.48-.101 3.78a37.566 37.566 0 0 1-.402 3.884 19.34 19.34 0 0 1-.516 2.318c-.071.293-.232.873-.549 1.646a15.384 15.384 0 0 1-4.469 6.021 16.022 16.022 0 0 1-4.874 2.701c-1.016.412-8.727 3.343-22.469 3.623-.494.054-1.676.158-3.26.16a31.384 31.384 0 0 1-5.086-.401c-1.896-.321-3.941-.862-5.939-1.892-1.327-.688-2.639-1.606-3.773-2.842l-.306-.332-.229-.389a265.382 265.382 0 0 1-4.656-8.27 115.004 115.004 0 0 1-2.105-4.102l-.035-.072-.03-.07a29.279 29.279 0 0 1-.818-2.141 34.62 34.62 0 0 1-1.31-4.924c-.01-.052-.018-.105-.026-.158a16.335 16.335 0 0 0-1.429-.375 16.531 16.531 0 0 0-3.093-.339 16.53 16.53 0 0 0-3.092.339c-.468.098-.946.227-1.429.375-.009.053-.016.106-.026.158a33.115 33.115 0 0 1-.859 3.521c-.616 2.049-1.22 3.431-1.269 3.543l-.031.072-.034.07a116.765 116.765 0 0 1-2.106 4.102 227.308 227.308 0 0 1-2.199 3.992c-1.376 2.443-2.448 4.26-2.458 4.277l-.229.389-.306.332c-1.135 1.235-2.446 2.154-3.773 2.842-1.331.688-2.686 1.154-4.001 1.486-2.629.661-5.115.803-7.025.807a31.599 31.599 0 0 1-3.259-.16c-14.165-.289-21.923-3.395-22.543-3.653a16.358 16.358 0 0 1-3.723-1.866 15.307 15.307 0 0 1-2.853-2.513 15.291 15.291 0 0 1-2.814-4.616 11.457 11.457 0 0 1-.43-1.348 19.752 19.752 0 0 1-.514-2.314 33.768 33.768 0 0 1-.311-2.58 61.02 61.02 0 0 1-.192-5.084c0-1.494.041-2.837.084-3.853a46.83 46.83 0 0 1-5.115-1.658c.279 1.873.552 3.931.765 6.028.241 2.382.408 4.803.408 7.082 0 .9-.026 1.779-.088 2.636a4.22 4.22 0 0 1-.405 1.534c-.047.1-.168.345-.373.688a9.674 9.674 0 0 1-.91 1.27c-.279.328-.614.68-1.041 1.033a6.837 6.837 0 0 1-2.299 1.267 6.155 6.155 0 0 1-1.867.289 6.273 6.273 0 0 1-1.827-.274 6.88 6.88 0 0 1-1.649-.758c-1.007-.634-1.805-1.447-2.516-2.387a16.746 16.746 0 0 1-1.334-2.102c-.563-1.039-1.101-2.227-1.635-3.615l-.073-.205-.001-.002v-.002l-.013-.021-.046-.134a25.807 25.807 0 0 0-.199-.561 45.03 45.03 0 0 0-.807-2.033c-.705-1.668-1.749-3.836-2.966-5.697a21.09 21.09 0 0 0-.455-.668 3.212 3.212 0 0 1-.194.125l.002.003h-.001l-.028.019a4.017 4.017 0 0 0-.289.215 5.676 5.676 0 0 0-.963 1.003 4.666 4.666 0 0 0-.558.969 4.246 4.246 0 0 0-.33 1.679c.001.505.075 1.106.302 1.856.218.715.587 1.568 1.172 2.556.667.909 3.094 4.331 6.071 9.923 3.432 6.445 7.594 15.771 10.595 27.439.062.242.09.4.114.648h.001l.001.014.01.088a30.14 30.14 0 0 0 .301 1.916c.24 1.268.65 2.969 1.252 4.55.398 1.054.884 2.051 1.399 2.821.293.443.593.81.877 1.09.325.32.62.525.885.654.307.144.573.217.998.221h.001a183.904 183.904 0 0 1-.824-6.885c-1.231-12.176-1.229-22.797-1.23-22.883a4.294 4.294 0 1 1 8.589 0v.006l.001.031v.125l.004.51c.004.451.013 1.115.03 1.961.034 1.693.103 4.109.242 6.984.276 5.747.833 13.331 1.926 20.553.725 4.812 1.697 9.467 2.922 13.227.696 2.146 1.477 3.996 2.272 5.383.421.736.842 1.34 1.231 1.794l.38.435 1.106 1.264c.935 1.066 2.229 2.543 3.665 4.177 2.87 3.265 6.311 7.165 8.556 9.659.64.711 1.183 1.309 1.573 1.729l.099.11.005.005.026.031.117.132a93.345 93.345 0 0 0 2.245 2.432c1.501 1.569 3.58 3.641 5.821 5.588 1.491 1.297 3.056 2.539 4.529 3.529.206.139.388.287.567.459h.001l.003.002.001.002.021.018.153.141c.146.131.382.336.701.598a36.05 36.05 0 0 0 2.875 2.113c2.527 1.68 6.215 3.705 10.707 5.036a35.01 35.01 0 0 0 9.991 1.476c3.646-.002 7.588-.582 11.823-2.07 4.235-1.49 8.77-3.895 13.557-7.605 1.232-.955 2.666-2.181 4.103-3.475a164.915 164.915 0 0 0 4.187-3.915c2.58-2.489 4.57-4.542 4.812-4.792.696-.751 1.825-1.996 3.146-3.469 1.34-1.491 2.883-3.221 4.41-4.934a4053.06 4053.06 0 0 0 7.211-8.129c.252-.283.418-.473.488-.551.385-.452.805-1.051 1.221-1.781.422-.734.843-1.602 1.246-2.574.81-1.945 1.549-4.311 2.188-6.908 1.284-5.203 2.177-11.332 2.769-17.15 1.188-11.646 1.201-22.074 1.199-22.154a4.295 4.295 0 0 1 8.59 0c0 .051 0 4.094-.287 10.03-.266 5.503-.773 12.624-1.768 19.737h.001c.397-.004.655-.069.938-.193.281-.126.591-.334.938-.676.23-.227.472-.512.712-.846.321-.447.637-.986.928-1.58.389-.791.732-1.678 1.018-2.564.382-1.182.659-2.359.848-3.316.25-1.277.342-2.164.342-2.178a3.76 3.76 0 0 1 .115-.648c3-11.668 7.162-20.994 10.594-27.439 2.978-5.591 5.404-9.014 6.072-9.923.584-.987.953-1.843 1.172-2.558.228-.748.301-1.35.303-1.854a4.4 4.4 0 0 0-.164-1.206 4.463 4.463 0 0 0-.412-.968m-119.641 31.501a9.07 9.07 0 0 1 .339-1.136 4.293 4.293 0 0 1 8.052 2.979l.003.002-.001.002c-.003.01-.016.053-.03.113-.024.098-.046.24-.053.357.025.01.046.019.077.029.3.098.909.221 1.884.221.106 0 .226-.002.354-.006.093-.004.208-.006.347-.006.553 0 1.468.045 2.621.297a13.75 13.75 0 0 1 3.996 1.56 14.215 14.215 0 0 1 2.882 2.228l.023.024.002.002.009.009.141.129a9.927 9.927 0 0 0 3.432 1.939 7.999 7.999 0 0 0 2.413.384c.87-.002 1.813-.144 2.899-.548 1.067-.4 2.282-1.064 3.646-2.172a14.117 14.117 0 0 1 2.633-1.995 13.784 13.784 0 0 1 2.77-1.231c1.725-.545 3.109-.625 3.848-.625.141 0 .258.002.354.006.117.004.232.006.346.006.803 0 1.36-.082 1.697-.168a2.45 2.45 0 0 0 .263-.082 1.894 1.894 0 0 0-.082-.473l.003-.002a4.293 4.293 0 0 1 8.051-2.98c.054.143.199.537.34 1.137.14.602.281 1.408.283 2.402 0 .711-.076 1.523-.316 2.4a8 8 0 0 1-1.318 2.696 8.09 8.09 0 0 1-1.594 1.591 9.434 9.434 0 0 1-2.799 1.43c-1.368.44-2.861.637-4.527.637-.197.002-.4-.002-.609-.008l-.09-.004c-.054 0-.365.008-.787.101a5.211 5.211 0 0 0-1.502.587 5.574 5.574 0 0 0-1.137.883c-.127.127-.175.17-.314.283-2.032 1.67-4.102 2.863-6.146 3.627a16.8 16.8 0 0 1-5.908 1.092c-1.856 0-3.547-.32-5.015-.787a18.191 18.191 0 0 1-3.743-1.683c-1.923-1.142-3.049-2.244-3.336-2.532a5.547 5.547 0 0 0-1.137-.883 5.202 5.202 0 0 0-1.046-.465 4.517 4.517 0 0 0-1.241-.223h-.005l-.097.006c-.195.004-.394.006-.6.006-1.406 0-2.686-.141-3.876-.448-1.187-.306-2.289-.791-3.241-1.466a7.948 7.948 0 0 1-2.968-3.947 8.87 8.87 0 0 1-.469-2.894c-.001-.992.14-1.8.279-2.401m-3.586 22.677l-.003.004-.032.041a7.664 7.664 0 0 0-.195.26c-.178.246-.442.631-.738 1.123-.595.982-1.309 2.395-1.754 3.939-.3 1.031-.483 2.113-.482 3.184.001.91.127 1.811.428 2.728.303.917.78 1.86 1.558 2.862a4.295 4.295 0 0 1-6.78 5.273c-1.362-1.748-2.33-3.602-2.937-5.451a17.284 17.284 0 0 1-.859-5.412c.001-2.035.34-3.914.823-5.578a24.67 24.67 0 0 1 1.735-4.34c1.246-2.432 2.461-3.916 2.598-4.084a4.295 4.295 0 0 1 6.637 5.449l.001.002zm56.872 11.515a60.218 60.218 0 0 1-13.589 4.576 61.611 61.611 0 0 1-12.566 1.279c-7.879-.002-14.606-1.451-19.402-2.904-4.796-1.455-7.669-2.918-7.849-3.008a4.295 4.295 0 0 1 3.914-7.646l.009.005.053.026.287.137c.268.125.684.312 1.237.543a51.878 51.878 0 0 0 4.841 1.725c4.175 1.266 10.094 2.536 16.91 2.534 3.411 0 7.045-.315 10.816-1.101a51.525 51.525 0 0 0 11.653-3.924 4.295 4.295 0 0 1 3.686 7.758m14.521 2.448c-.606 1.85-1.576 3.703-2.937 5.451a4.294 4.294 0 1 1-6.781-5.273c.779-1.002 1.256-1.945 1.559-2.862a8.628 8.628 0 0 0 .428-2.728c0-1.004-.16-2.02-.428-2.992s-.641-1.899-1.033-2.705c-.783-1.615-1.646-2.735-1.736-2.846l-.008-.01a4.296 4.296 0 0 1 .594-6.029 4.293 4.293 0 0 1 6.045.58c.104.125.812.994 1.686 2.443.873 1.451 1.92 3.482 2.648 5.98.482 1.664.82 3.543.822 5.578a17.315 17.315 0 0 1-.859 5.413"/><path fill="#2167B2" d="M121.218 186.374a8.103 8.103 0 0 0 1.653 1.551c.951.675 2.053 1.16 3.24 1.466 1.19.308 2.471.448 3.877.448.205 0 .405-.002.6-.006l.096-.006h.005c.075 0 .599.016 1.242.223.324.104.679.25 1.046.465s.748.494 1.136.883h.001c.286.288 1.413 1.391 3.336 2.532a18.245 18.245 0 0 0 3.743 1.683 16.53 16.53 0 0 0 5.015.787 16.8 16.8 0 0 0 5.908-1.092c2.045-.764 4.113-1.957 6.147-3.627.138-.113.187-.156.313-.283a5.547 5.547 0 0 1 1.137-.883 5.211 5.211 0 0 1 1.502-.587 4.06 4.06 0 0 1 .785-.101h.002l.089.004c.209.006.413.01.61.008 1.666 0 3.158-.196 4.527-.637a9.458 9.458 0 0 0 2.799-1.43 8.117 8.117 0 0 0 1.594-1.591 8.038 8.038 0 0 0 1.318-2.696 9.08 9.08 0 0 0 .316-2.4 10.66 10.66 0 0 0-.283-2.402 9.686 9.686 0 0 0-.339-1.137 4.295 4.295 0 0 0-5.546-2.477 4.29 4.29 0 0 0-2.506 5.457l-.004.002c.004.008.03.096.051.211.018.084.027.178.033.262a2.48 2.48 0 0 1-.264.082c-.337.086-.895.168-1.697.168-.113 0-.229-.002-.347-.006a8.627 8.627 0 0 0-.354-.006c-.735 0-2.121.08-3.846.625a13.84 13.84 0 0 0-2.771 1.231 14.221 14.221 0 0 0-2.634 1.995c-1.362 1.107-2.576 1.771-3.644 2.172-1.086.404-2.028.546-2.899.548a7.963 7.963 0 0 1-2.413-.384 9.92 9.92 0 0 1-3.432-1.939 5.771 5.771 0 0 1-.141-.129l-.009-.009-.003-.002-.023-.024a14.224 14.224 0 0 0-2.882-2.228 13.745 13.745 0 0 0-3.995-1.56 12.328 12.328 0 0 0-2.621-.297c-.14 0-.254.002-.347.006-.128.004-.248.006-.354.006-.975 0-1.585-.123-1.885-.221l-.077-.029a2.199 2.199 0 0 1 .084-.47l.001-.002-.003-.002a4.295 4.295 0 0 0-2.508-5.459 4.294 4.294 0 0 0-5.544 2.48 10.55 10.55 0 0 0-.622 3.537c.001.842.104 1.828.468 2.894a8.007 8.007 0 0 0 1.319 2.396M115.538 195.329a4.296 4.296 0 0 0-6.046.58c-.136.17-1.352 1.652-2.598 4.084a24.826 24.826 0 0 0-1.735 4.34c-.482 1.664-.821 3.543-.822 5.578a17.278 17.278 0 0 0 .858 5.412c.607 1.85 1.576 3.703 2.937 5.451a4.295 4.295 0 0 0 6.781-5.273c-.779-1.002-1.255-1.945-1.559-2.863a8.646 8.646 0 0 1-.428-2.727c0-1.07.182-2.152.482-3.184.446-1.545 1.16-2.957 1.754-3.939.297-.492.561-.877.739-1.123.089-.123.156-.211.194-.26l.033-.041.002-.004.001-.001h-.001a4.295 4.295 0 0 0-.592-6.03M184.911 198.352c-.875-1.449-1.582-2.318-1.685-2.443a4.294 4.294 0 0 0-6.64 5.449l.007.01c.091.111.954 1.23 1.737 2.845.393.806.767 1.733 1.033 2.705.268.974.428 1.987.428 2.993a8.68 8.68 0 0 1-.428 2.727c-.304.918-.781 1.859-1.559 2.864a4.294 4.294 0 1 0 6.781 5.272c1.361-1.748 2.328-3.602 2.937-5.451.609-1.852.858-3.688.858-5.412-.002-2.035-.34-3.914-.823-5.578-.726-2.499-1.773-4.53-2.646-5.981"/><path fill="#2167B2" d="M246.911 144.343a13.288 13.288 0 0 0-1.579-2.758 14.233 14.233 0 0 0-2.453-2.558c-.545-.44-.979-.725-1.221-.874a29.046 29.046 0 0 0 1.714-5.876c.371-2.054.412-3.475.417-3.765.075-2.233.112-4.413.112-6.54.002-16.76-2.282-30.258-5.778-41.084-2.621-8.118-5.925-14.728-9.429-20.062-5.256-8.003-10.955-13.121-15.402-16.235-3.562-2.497-6.314-3.716-7.432-4.158-11.592-7.251-22.563-12.17-32.821-15.273-10.369-3.139-20.007-4.423-28.789-4.422-9.238 0-17.523 1.418-24.733 3.548-10.818 3.196-19.216 7.978-24.94 11.98-4.049 2.833-6.758 5.273-8.058 6.521-3.655 1.073-7.003 2.532-10.036 4.324-5.859 3.457-10.524 8.122-14.166 13.42-2.734 3.977-4.905 8.31-6.636 12.814-2.593 6.76-4.199 13.91-5.171 20.908-.971 6.999-1.303 13.849-1.304 20.006.002 13.068 1.498 23.021 1.733 24.512a14.1 14.1 0 0 0-3.344 3.632 12.978 12.978 0 0 0-1.427 3.06 12.921 12.921 0 0 0-.592 3.889c0 1.387.216 2.855.676 4.363.46 1.506 1.16 3.053 2.116 4.633.092.15.149.234.255.373l.004.006c.117.156 2.597 3.478 5.725 9.418 3.102 5.89 6.837 14.354 9.563 24.852.056.459.169 1.294.376 2.383a38.431 38.431 0 0 0 1.072 4.299c.38 1.209.855 2.485 1.467 3.762.46.957.998 1.916 1.648 2.842a15.262 15.262 0 0 0 1.672 2.009c.948.952 2.094 1.819 3.455 2.444 1.355.627 2.92.988 4.539.984.487 0 .977-.031 1.467-.092.215 1.021.438 2.035.681 3.025.718 2.921 1.563 5.682 2.6 8.189a31.568 31.568 0 0 0 1.728 3.561c.64 1.119 1.349 2.166 2.167 3.121l.029.035c.002.002 3.018 3.453 6.455 7.359 1.719 1.951 3.542 4.018 5.149 5.824.804.904 1.553 1.742 2.21 2.473.635.705 1.179 1.303 1.615 1.773.298.342 1.998 2.271 4.448 4.716a92.325 92.325 0 0 0 4.572 4.274c1.592 1.383 3.296 2.744 5.06 3.957.86.781 3.702 3.23 8.185 5.703a48.247 48.247 0 0 0 9.505 3.99 43.632 43.632 0 0 0 12.435 1.829c4.566.003 9.515-.739 14.674-2.558 5.16-1.814 10.525-4.697 15.968-8.918 1.531-1.188 3.146-2.58 4.735-4.014 2.38-2.148 4.693-4.391 6.424-6.105s2.872-2.898 2.889-2.916l.057-.061c.873-.939 2.255-2.469 3.861-4.263a2992.521 2992.521 0 0 0 11.601-13.048l.045-.053c.817-.955 1.526-2.002 2.167-3.121 1.195-2.096 2.156-4.447 2.984-6.989.793-2.444 1.457-5.071 2.026-7.786.49.061.979.092 1.465.092a10.838 10.838 0 0 0 4.757-1.086 11.983 11.983 0 0 0 3.168-2.273c1.545-1.536 2.613-3.293 3.44-5.026 1.229-2.604 1.916-5.206 2.34-7.211.302-1.442.457-2.565.524-3.127 2.792-10.751 6.641-19.366 9.785-25.271a89.896 89.896 0 0 1 3.983-6.789c.497-.762.892-1.334 1.155-1.705.131-.186.23-.321.292-.405.03-.043.053-.071.065-.089l.011-.014.001-.002c.105-.139.162-.223.254-.373.957-1.582 1.656-3.127 2.115-4.633.461-1.508.677-2.977.677-4.363a12.855 12.855 0 0 0-1.002-5.007M59.061 95.125c.701-4.958 1.744-9.927 3.228-14.644 2.224-7.081 5.439-13.562 9.894-18.695 2.23-2.571 4.767-4.814 7.681-6.672 2.916-1.857 6.213-3.337 10.003-4.349a4.317 4.317 0 0 0 2.014-1.201h.001l.01-.011c.263-.277 5.245-5.386 14.203-10.369a78.138 78.138 0 0 1 16.329-6.798c6.382-1.84 13.671-3.057 21.826-3.058 7.946.001 16.722 1.156 26.301 4.054 9.58 2.898 19.97 7.545 31.114 14.556.256.16.584.317.872.419.039.014 2.103.76 5.159 2.812 2.293 1.539 5.146 3.81 8.146 7.067 4.496 4.891 9.331 11.995 13.078 22.29 3.743 10.295 6.392 23.796 6.394 41.447 0 2.046-.037 4.147-.11 6.305l-.001.077h-.001v.006c-.003.095-.041 1.172-.335 2.675-.293 1.505-.846 3.428-1.797 5.235-.084.158-.17.351-.23.519a89.973 89.973 0 0 1-2.093 5.105c-.615 1.379-1.213 2.931-2.048 4.2-5.989 9.114-3.766.391-3.766.391.465-1.948 2.34-10.465 2.344-21.907 0-6.272-.566-13.425-2.276-20.857a4.288 4.288 0 0 0-3.25-3.228 4.285 4.285 0 0 0-4.293 1.517l-.001-.002-.025.032c-.131.16-.787.885-1.572 1.444-.39.281-.805.519-1.162.66-.359.145-.644.194-.852.194a1.843 1.843 0 0 1-.131-.008c.525-.9 1.1-1.956 1.676-3.16a41.258 41.258 0 0 0 2.651-7.147c.729-2.733 1.226-5.798 1.226-9.095a31.634 31.634 0 0 0-2.115-11.418 4.277 4.277 0 0 0-2.891-2.606 4.287 4.287 0 0 0-3.804.798l-.001-.001-.053.042a27.927 27.927 0 0 1-3.017 2.03c-.728.422-1.501.806-2.146 1.048-.1.038-.195.071-.287.103a35.157 35.157 0 0 0-2.688-9.506 37.036 37.036 0 0 0-4.326-7.316c-2.91-3.853-6.373-6.99-9.897-9.545-5.292-3.83-10.735-6.37-14.89-7.988-3.823-1.486-6.553-2.183-7.079-2.312-.472-.128-3.236-.868-7.349-1.609-4.451-.8-10.465-1.605-16.895-1.607-3.647 0-7.43.259-11.154.955-3.723.698-7.398 1.831-10.786 3.642h.001a17.436 17.436 0 0 0-2.71 1.765c-1.207.968-2.215 2.104-2.916 3.418a8.959 8.959 0 0 0-.793 2.054 8.748 8.748 0 0 0-.258 2.112c.001 1.303.286 2.507.701 3.567.365.93.83 1.762 1.341 2.522.732 1.085 1.56 2.027 2.41 2.876-2.181.397-4.27.561-6.231.561a36.768 36.768 0 0 1-10.312-1.489 30.75 30.75 0 0 1-2.885-1.001 18.315 18.315 0 0 1-.857-.375l-.021-.01v.001a4.31 4.31 0 0 0-3.346-.211 4.314 4.314 0 0 0-2.485 2.274c-.084.187-.454 1.031-.81 2.408a22.459 22.459 0 0 0-.697 5.595 23.522 23.522 0 0 0 1.466 8.152c.276.75.598 1.511.97 2.278-1.928-.091-4.001-.329-5.879-.804-1.27-.318-2.445-.74-3.431-1.25-.947-.489-1.713-1.05-2.299-1.67-.995-1.053-2.414-1.648-3.848-1.439a4.298 4.298 0 0 0-3.685 3.984c-.005.082-.029.496-.029 1.187.002 1.81.159 5.517 1.287 10.081a42.49 42.49 0 0 0 2.539 7.346 39.119 39.119 0 0 0 2.047 3.913c.435.73.243 1.693-.469 2.155l-.014.009a6.74 6.74 0 0 1-1.66.79 7.146 7.146 0 0 1-2.168.321c-.826-.001-1.794-.122-2.95-.458a4.302 4.302 0 0 0-5.175 2.491c-.186.447-2.373 6.01-2.372 16.275 0 4.609.44 10.164 1.69 16.619l.011.054.001.004c.027.133.633 3.089 1.224 6.971l.01.065c.167 1.095-1.305 1.593-1.849.628a40.057 40.057 0 0 0-.811-1.376c-.887-1.432-1.906-2.865-3.117-4.184l-.071-.076a10.481 10.481 0 0 1-2.736-6.025 170.422 170.422 0 0 1-.909-17.485c-.001-5.942.33-12.528 1.266-19.137m100.047 45.059l-.002-.059c0-.118.014-.332.068-.556.041-.169.102-.343.192-.515.14-.257.321-.517.739-.835.422-.313 1.115-.692 2.332-.984l.312-.075.283-.113c.11-.044 7.856-3.054 21.178-3.053 4.847 0 10.437.398 16.676 1.484.048.019.138.061.255.142.125.086.279.213.461.423.268.316.608.826.914 1.759.303.931.555 2.294.555 4.233v.156l.012.154v.002c.007.08.166 2.379.166 5.138 0 1.423-.043 2.969-.161 4.359-.06.695-.137 1.35-.229 1.92a10.681 10.681 0 0 1-.305 1.379l-.052.168-.022.109c-.015.049-.08.271-.225.594a6.778 6.778 0 0 1-2.508 2.922 7.843 7.843 0 0 1-1.752.832l-.156.051-.135.059c-.145.057-6.867 2.766-19.619 3.004l-.23.004-.227.027c-.055.008-1.039.119-2.43.119-1.436.004-3.301-.131-4.92-.545-.811-.202-1.553-.473-2.156-.786a5.349 5.349 0 0 1-1.131-.763 265.572 265.572 0 0 1-4.281-7.625 103.022 103.022 0 0 1-1.837-3.578 27.06 27.06 0 0 1-.924-2.643 24.348 24.348 0 0 1-.609-2.544c-.16-.886-.255-1.779-.254-2.561 0-.293.014-.568.037-.822l.053-.547-.068-.434zm43.346-13.154l-.004-.001-.008-.001c-6.777-1.184-12.893-1.624-18.231-1.624-13.797.001-22.401 2.933-24.078 3.557-1.799.46-3.36 1.144-4.663 2.02a11.549 11.549 0 0 0-2.58 2.357 10.743 10.743 0 0 0-1.936 3.736 26.263 26.263 0 0 0-4.291-.355c-.098 0-.202.006-.302.007-.099-.001-.203-.007-.301-.007-1.609.001-3.055.15-4.293.356a10.632 10.632 0 0 0-.802-2.005 11.044 11.044 0 0 0-3.209-3.732c-1.394-1.043-3.127-1.854-5.16-2.374-1.658-.618-10.268-3.558-24.084-3.559-5.332 0-11.437.439-18.204 1.619l-.024.004-.015.003a8.174 8.174 0 0 0-1.844.563c-.724.312-1.581.789-2.448 1.504a11.405 11.405 0 0 0-1.902 2.013c-.795 1.069-1.486 2.38-1.999 3.92-1.898-.557-4.64-1.542-8.01-3.249-.829-4.941-1.123-9.184-1.123-12.718 0-4.315.436-7.571.871-9.753.349.021.696.034 1.036.034a15.533 15.533 0 0 0 6.467-1.376 15.788 15.788 0 0 0 3.489-2.183 17.215 17.215 0 0 0 3.138-3.39c.68-.967 1.028-1.671 1.109-1.841a4.284 4.284 0 0 0-.483-4.489 30.071 30.071 0 0 1-3.634-6.046 34.249 34.249 0 0 1-2.257-6.883 31.14 31.14 0 0 0 4.454 1.069c2.618.434 5.135.562 7.296.562 3.73-.001 6.402-.387 6.542-.406a4.296 4.296 0 0 0 2.554-7.147c-2.064-2.263-3.261-4.394-3.975-6.327a14.93 14.93 0 0 1-.93-5.65l.075.023a45.395 45.395 0 0 0 12.741 1.84c5.128.002 11.058-.9 17.208-3.571a4.307 4.307 0 0 0 2.58-3.731 4.31 4.31 0 0 0-2.207-3.964h-.001a29.636 29.636 0 0 1-3.492-2.377c-1.094-.862-2.192-1.899-2.876-2.809-.345-.451-.582-.863-.705-1.158-.127-.3-.139-.46-.138-.505l.008-.053c.014-.033.057-.175.358-.486.297-.305.859-.75 1.772-1.237h.001c2.405-1.289 5.247-2.2 8.312-2.772 3.063-.574 6.34-.81 9.575-.809 5.708-.002 11.273.731 15.371 1.471a93.86 93.86 0 0 1 4.892 1.012 59.633 59.633 0 0 1 1.654.413l.076.021.013.004.166.043c.121.029 2.134.525 5.092 1.623a63.533 63.533 0 0 1 7.856 3.53c4.329 2.314 8.932 5.496 12.541 9.585 1.808 2.046 3.374 4.312 4.581 6.828a26.66 26.66 0 0 1 2.437 8.394c.116.959.339 1.892.729 2.793a7.574 7.574 0 0 0 1.183 1.91c.372.436.802.83 1.267 1.159a7.03 7.03 0 0 0 2.205 1.037 8.04 8.04 0 0 0 2.123.276 10.521 10.521 0 0 0 2.447-.306c1.316-.317 2.489-.802 3.569-1.327.151-.074.298-.15.446-.226.135 1.038.197 2.059.197 3.062.001 2.432-.367 4.755-.935 6.881-.849 3.188-2.15 5.921-3.23 7.817a30.015 30.015 0 0 1-1.353 2.173 16.98 16.98 0 0 1-.379.531l-.084.113-.012.016a4.301 4.301 0 0 0-.082 5.203 16.019 16.019 0 0 0 2.002 2.263c1.065.987 2.248 1.759 3.494 2.265a9.909 9.909 0 0 0 3.746.737c.85 0 1.657-.109 2.402-.286a11.422 11.422 0 0 0 1.574-.504c.619 4.364.865 8.577.865 12.441 0 2.384-.091 4.633-.233 6.707a4.273 4.273 0 0 0-.525.402c-2.272 2.064-4.075 3.177-5.366 3.76a8.14 8.14 0 0 1-1.627.559 17.077 17.077 0 0 0-.408-1.322c-.541-1.516-1.266-2.8-2.08-3.836-1.221-1.562-2.631-2.535-3.775-3.083-1.002-.485-1.799-.667-2.216-.738m-68.856 14.136c.025.253.038.529.038.822.001.806-.1 1.731-.27 2.646a26.243 26.243 0 0 1-.985 3.685 26.861 26.861 0 0 1-.533 1.418 105.34 105.34 0 0 1-1.903 3.699 231.985 231.985 0 0 1-3.048 5.484c-.428.748-.789 1.371-1.042 1.807l-.124.211a5.36 5.36 0 0 1-1.131.763c-.902.474-2.128.837-3.405 1.047a22.705 22.705 0 0 1-3.672.284 26.014 26.014 0 0 1-2.315-.105l-.106-.013h-.005l-.228-.028-.231-.004c-6.644-.123-11.651-.92-14.945-1.66a41.365 41.365 0 0 1-3.646-.982 22.003 22.003 0 0 1-.841-.29l-.171-.065-.013-.006-.14-.059-.154-.051c-1.032-.348-1.777-.799-2.372-1.283a6.593 6.593 0 0 1-1.09-1.129 6.685 6.685 0 0 1-.867-1.502 4.277 4.277 0 0 1-.145-.4l-.009-.031-.025-.111-.051-.168a10.879 10.879 0 0 1-.304-1.379c-.141-.855-.243-1.9-.305-2.988s-.086-2.223-.086-3.291a83.483 83.483 0 0 1 .141-4.766l.018-.289.005-.069.001-.015v-.002l.012-.155v-.155c0-2.099.296-3.522.631-4.456.253-.702.523-1.137.751-1.429a2.65 2.65 0 0 1 .451-.459 1.46 1.46 0 0 1 .353-.213c6.238-1.086 11.828-1.484 16.675-1.484 6.876 0 12.262.8 15.885 1.582 1.811.391 3.18.777 4.072 1.056.446.139.773.252.975.324.102.036.172.063.211.077l.031.012.286.115.312.075c1.081.258 1.751.589 2.18.877.323.218.518.413.663.593.213.268.324.52.399.779.072.255.091.508.09.64l-.001.06-.07.434.053.547zm105.424 10.042c-.219.716-.588 1.569-1.172 2.556-.668.912-3.095 4.332-6.072 9.924-3.432 6.445-7.594 15.771-10.594 27.439-.062.243-.091.4-.115.648 0 .014-.092.9-.342 2.178a29.569 29.569 0 0 1-.848 3.316 19.227 19.227 0 0 1-1.018 2.564 11.082 11.082 0 0 1-.928 1.579c-.24.336-.481.62-.711.847-.349.342-.66.549-.938.676a2.182 2.182 0 0 1-.939.193h-.001c.994-7.113 1.502-14.234 1.768-19.738.287-5.935.287-9.979.287-10.029a4.295 4.295 0 0 0-8.59 0c.002.08-.011 10.507-1.199 22.154-.592 5.818-1.484 11.947-2.769 17.149-.64 2.599-1.379 4.964-2.188 6.91a22.677 22.677 0 0 1-1.245 2.573 11.87 11.87 0 0 1-1.222 1.781l-.488.551a3407.878 3407.878 0 0 1-7.213 8.129 1581.83 1581.83 0 0 1-4.408 4.936 329.462 329.462 0 0 1-3.146 3.467c-.242.25-2.232 2.301-4.812 4.791-1.3 1.256-2.748 2.621-4.187 3.916s-2.871 2.52-4.104 3.475c-4.787 3.711-9.322 6.115-13.557 7.605-4.234 1.488-8.176 2.068-11.822 2.07a35.04 35.04 0 0 1-9.991-1.475c-4.492-1.332-8.18-3.357-10.708-5.039a35.478 35.478 0 0 1-2.874-2.112 26.959 26.959 0 0 1-.854-.736l-.021-.021H122l-.003-.004h-.001v.002a4.192 4.192 0 0 0-.568-.459c-1.472-.99-3.037-2.23-4.528-3.529-2.241-1.947-4.321-4.018-5.821-5.588a93.345 93.345 0 0 1-2.245-2.431l-.117-.133-.026-.031-.005-.006-.099-.108c-.39-.421-.933-1.019-1.573-1.729-2.245-2.494-5.686-6.395-8.556-9.66-1.436-1.633-2.73-3.108-3.665-4.176l-1.106-1.265-.38-.435a11.822 11.822 0 0 1-1.231-1.793c-.795-1.385-1.577-3.236-2.272-5.383-1.225-3.761-2.197-8.416-2.922-13.226-1.093-7.222-1.65-14.808-1.926-20.554a250.23 250.23 0 0 1-.242-6.984 157.47 157.47 0 0 1-.034-2.471l-.001-.127v-.035a4.294 4.294 0 1 0-8.589 0c.001.086-.001 10.705 1.23 22.883.229 2.26.501 4.572.824 6.885h-.001a2.152 2.152 0 0 1-.999-.222 3.364 3.364 0 0 1-.884-.653 6.93 6.93 0 0 1-.877-1.09c-.516-.771-1.001-1.768-1.399-2.82-.602-1.582-1.012-3.283-1.252-4.551a28.855 28.855 0 0 1-.301-1.916l-.01-.088-.002-.014a3.776 3.776 0 0 0-.114-.648c-3.001-11.668-7.163-20.994-10.595-27.439-2.977-5.592-5.404-9.014-6.072-9.924-.584-.986-.953-1.84-1.171-2.556-.228-.75-.301-1.353-.302-1.856a4.227 4.227 0 0 1 .33-1.678c.149-.355.342-.679.558-.969.322-.436.697-.789.963-1.003.133-.108.237-.181.289-.216l.028-.018.001-.001-.002-.002c.067-.04.13-.082.194-.125.154.218.306.439.455.669 1.217 1.858 2.261 4.028 2.966 5.694.354.835.626 1.545.806 2.034a23.7 23.7 0 0 1 .246.694l.008.026h.001v.001l.001.004.072.203c.535 1.389 1.073 2.577 1.636 3.615.423.777.86 1.473 1.334 2.102.711.94 1.509 1.754 2.516 2.387a6.825 6.825 0 0 0 1.649.758 6.308 6.308 0 0 0 1.827.275c.667 0 1.306-.111 1.867-.289a6.838 6.838 0 0 0 2.299-1.268 8.546 8.546 0 0 0 1.041-1.031 9.74 9.74 0 0 0 1.283-1.959c.233-.49.366-.994.405-1.533a36.57 36.57 0 0 0 .088-2.637c-.001-2.279-.167-4.701-.408-7.082a131.535 131.535 0 0 0-.765-6.029 46.396 46.396 0 0 0 5.115 1.658 90.198 90.198 0 0 0-.084 3.851c0 1.593.045 3.35.191 5.084.074.869.173 1.734.312 2.582.129.783.292 1.551.514 2.314.062.254.191.721.43 1.348a15.341 15.341 0 0 0 5.667 7.127 16.119 16.119 0 0 0 3.723 1.867c.62.26 8.377 3.365 22.543 3.656.494.051 1.675.157 3.258.157 1.911-.003 4.397-.146 7.026-.806 1.315-.332 2.67-.799 4.001-1.486 1.327-.688 2.638-1.605 3.773-2.842l.306-.332.229-.389c.01-.018 1.082-1.834 2.458-4.277.688-1.221 1.451-2.6 2.199-3.993a113.307 113.307 0 0 0 2.105-4.101l.035-.071.031-.071c.049-.113.653-1.494 1.269-3.543.308-1.025.619-2.219.859-3.521l.026-.158c.483-.148.961-.277 1.429-.375a16.451 16.451 0 0 1 3.092-.34c.971.017 2.009.113 3.093.34.468.098.945.227 1.429.375l.026.158a34.45 34.45 0 0 0 1.31 4.924c.433 1.258.781 2.057.818 2.141l.03.07.035.072a111.717 111.717 0 0 0 2.105 4.101c2.24 4.177 4.641 8.241 4.656 8.271l.229.389.306.332c1.135 1.236 2.445 2.154 3.773 2.842 1.998 1.029 4.043 1.57 5.939 1.891 1.896.316 3.654.4 5.086.401 1.584 0 2.766-.106 3.259-.157 13.743-.283 21.454-3.213 22.469-3.625a16.016 16.016 0 0 0 4.875-2.701 15.33 15.33 0 0 0 4.469-6.023 11.73 11.73 0 0 0 .549-1.645c.224-.765.387-1.533.516-2.318.207-1.271.328-2.582.402-3.883s.101-2.588.101-3.783c0-1.071-.021-2.064-.049-2.917 1.3-.184 2.75-.586 4.313-1.296.272-.123.549-.257.828-.398-.035.172-.068.336-.1.486-.102.478-.184.839-.239 1.073l-.062.256-.014.054-.002.008c-.063.245-.109.52-.127.771a81.777 81.777 0 0 0-.227 5.741c.001 2.182.121 3.92.338 5.371.164 1.088.381 2.016.674 2.854a9.06 9.06 0 0 0 .819 1.752 6.7 6.7 0 0 0 .889 1.148c.513.531 1.156.98 1.834 1.262.224.094.446.162.667.22a4.785 4.785 0 0 0 1.635.291c.459 0 .853-.062 1.188-.144a5.79 5.79 0 0 0 1.489-.601 7.78 7.78 0 0 0 .916-.612c.5-.383.918-.775 1.328-1.187a31.453 31.453 0 0 0 2.021-2.292 68.819 68.819 0 0 0 2.507-3.333 70.57 70.57 0 0 0 1.062-1.533c.482-.618.935-1.263 1.363-1.938.846-1.338 1.619-2.779 2.329-4.209.327-.66.638-1.313.931-1.953.213.24.424.52.599.824.169.295.31.613.411.965.1.353.162.74.162 1.205.005.504-.068 1.106-.296 1.856"/><path fill="#FFF" d="M144.26 20.738c8.779 0 18.414 1.285 28.778 4.422 10.258 3.104 21.229 8.022 32.823 15.273 1.115.441 3.867 1.661 7.43 4.158 4.447 3.115 10.146 8.232 15.402 16.236 3.504 5.333 6.808 11.944 9.429 20.062 3.495 10.825 5.78 24.323 5.778 41.084 0 2.126-.037 4.306-.112 6.539-.005.29-.046 1.712-.417 3.765a28.99 28.99 0 0 1-1.715 5.876c.242.149.677.434 1.222.875a14.154 14.154 0 0 1 2.453 2.557 12.882 12.882 0 0 1 2.582 7.767c.001 1.387-.216 2.855-.677 4.362-.459 1.508-1.158 3.052-2.115 4.633a3.854 3.854 0 0 1-.254.375l-.002.001-.01.014-.065.088c-.062.086-.161.221-.292.406-.264.371-.658.942-1.155 1.705a89.896 89.896 0 0 0-3.983 6.789c-3.144 5.902-6.994 14.52-9.785 25.27a37.338 37.338 0 0 1-.524 3.127c-.424 2.004-1.11 4.607-2.34 7.213-.827 1.732-1.896 3.488-3.44 5.025a11.942 11.942 0 0 1-3.168 2.272 10.807 10.807 0 0 1-4.726 1.087h-.036c-.484 0-.973-.031-1.46-.094-.569 2.718-1.233 5.344-2.026 7.787-.828 2.543-1.789 4.895-2.984 6.992a20.515 20.515 0 0 1-2.166 3.121l-.047.051c-.002.004-6.784 7.678-11.598 13.049a404.014 404.014 0 0 1-3.863 4.263l-.057.06c-.017.017-1.158 1.201-2.889 2.916s-4.044 3.957-6.424 6.106c-1.59 1.435-3.204 2.823-4.735 4.013-5.442 4.221-10.808 7.104-15.968 8.918-5.154 1.815-10.096 2.557-14.658 2.557H146.448a43.66 43.66 0 0 1-12.433-1.828 48.306 48.306 0 0 1-9.505-3.991c-4.483-2.472-7.325-4.922-8.185-5.702-1.764-1.213-3.468-2.574-5.06-3.957a91.845 91.845 0 0 1-4.572-4.275 100.629 100.629 0 0 1-4.448-4.713 184.9 184.9 0 0 1-1.615-1.775c-.657-.73-1.406-1.568-2.21-2.473-1.607-1.807-3.43-3.873-5.149-5.826-3.436-3.903-6.453-7.355-6.455-7.357l-.029-.033c-.818-.957-1.527-2.004-2.167-3.121a31.425 31.425 0 0 1-1.727-3.563c-1.038-2.507-1.883-5.269-2.601-8.188a92.85 92.85 0 0 1-.681-3.027 11.61 11.61 0 0 1-1.462.094h-.032c-1.609 0-3.165-.361-4.512-.984-1.361-.625-2.507-1.492-3.455-2.445a14.999 14.999 0 0 1-1.672-2.008 20.025 20.025 0 0 1-1.648-2.842 28.34 28.34 0 0 1-1.467-3.761 38.25 38.25 0 0 1-1.072-4.302 36.432 36.432 0 0 1-.376-2.381c-2.725-10.498-6.46-18.963-9.563-24.852-3.127-5.941-5.608-9.263-5.725-9.418l-.004-.005a3.863 3.863 0 0 1-.255-.375c-.956-1.579-1.656-3.125-2.116-4.633a14.925 14.925 0 0 1-.675-4.362 12.928 12.928 0 0 1 .591-3.89 12.98 12.98 0 0 1 1.427-3.058 14.082 14.082 0 0 1 3.244-3.557l.1-.076c-.235-1.491-1.731-11.443-1.733-24.512.001-6.157.333-13.007 1.304-20.005.972-6.999 2.578-14.148 5.172-20.908 1.73-4.505 3.901-8.839 6.636-12.815 3.641-5.297 8.306-9.963 14.165-13.42 3.033-1.791 6.382-3.251 10.036-4.323 1.3-1.249 4.009-3.688 8.058-6.521 5.724-4.003 14.122-8.785 24.94-11.981 7.209-2.129 15.492-3.548 24.727-3.548h.016M91.881 49.564a4.332 4.332 0 0 1-2.015 1.2c-3.79 1.012-7.087 2.491-10.003 4.349-2.914 1.859-5.451 4.102-7.681 6.672-4.455 5.133-7.67 11.615-9.894 18.696-1.484 4.716-2.527 9.686-3.228 14.643-.936 6.61-1.266 13.197-1.265 19.135-.001 7.105.47 13.28.909 17.485a10.479 10.479 0 0 0 2.736 6.025l.071.077c1.211 1.318 2.23 2.752 3.117 4.183.284.46.554.92.811 1.376.202.358.53.515.856.515.554 0 1.099-.454.993-1.143l-.01-.066c-.591-3.882-1.197-6.838-1.224-6.971l-.001-.004-.011-.054c-1.25-6.455-1.69-12.009-1.689-16.618-.002-10.266 2.185-15.829 2.371-16.276a4.305 4.305 0 0 1 5.175-2.491c1.156.336 2.124.458 2.951.458a7.146 7.146 0 0 0 2.167-.32 6.774 6.774 0 0 0 1.66-.789l.014-.009c.713-.463.904-1.426.469-2.155a39.448 39.448 0 0 1-2.047-3.913 42.527 42.527 0 0 1-2.539-7.347c-1.128-4.563-1.285-8.27-1.287-10.081 0-.69.024-1.105.029-1.186a4.296 4.296 0 0 1 4.259-4.026c1.232 0 2.412.569 3.274 1.48.586.621 1.352 1.181 2.299 1.67.986.51 2.161.932 3.431 1.25 1.878.475 3.951.714 5.879.805a24.927 24.927 0 0 1-.97-2.279 23.544 23.544 0 0 1-1.466-8.151 22.5 22.5 0 0 1 .697-5.595c.356-1.377.726-2.222.81-2.408a4.312 4.312 0 0 1 2.485-2.275 4.299 4.299 0 0 1 3.346.211v-.001l.021.01a17.45 17.45 0 0 0 .857.375c.646.264 1.629.631 2.886 1.001a36.757 36.757 0 0 0 10.301 1.49h.01a34.864 34.864 0 0 0 6.231-.562c-.85-.849-1.678-1.791-2.41-2.876a13.034 13.034 0 0 1-1.341-2.522 9.767 9.767 0 0 1-.7-3.567 8.758 8.758 0 0 1 1.05-4.166c.701-1.314 1.709-2.449 2.916-3.418a17.51 17.51 0 0 1 2.71-1.765h-.001c3.388-1.811 7.063-2.944 10.786-3.642 3.725-.696 7.507-.955 11.154-.955 6.43.002 12.443.808 16.895 1.607 4.112.742 6.879 1.48 7.348 1.609.527.129 3.258.826 7.08 2.312 4.154 1.618 9.599 4.158 14.89 7.989 3.524 2.555 6.987 5.691 9.897 9.544a37.009 37.009 0 0 1 4.326 7.315 35.224 35.224 0 0 1 2.688 9.506c.092-.03.187-.063.287-.101.645-.243 1.418-.627 2.146-1.048a28.084 28.084 0 0 0 3.017-2.03l.053-.042h.001a4.276 4.276 0 0 1 3.804-.797 4.276 4.276 0 0 1 2.891 2.605 31.616 31.616 0 0 1 2.115 11.418c-.001 3.298-.496 6.362-1.225 9.095a41.306 41.306 0 0 1-2.652 7.147 43.217 43.217 0 0 1-1.676 3.159c.043.004.086.008.131.008h.002c.209 0 .491-.05.85-.193a5.743 5.743 0 0 0 1.162-.66 9.475 9.475 0 0 0 1.571-1.444l.026-.031.002.001a4.286 4.286 0 0 1 4.293-1.516 4.288 4.288 0 0 1 3.249 3.228c1.71 7.431 2.276 14.585 2.276 20.856-.004 11.442-1.879 19.959-2.345 21.908 0 0-.96 3.764.08 3.764.543 0 1.632-1.027 3.687-4.155.834-1.268 1.433-2.82 2.048-4.199a90.872 90.872 0 0 0 2.093-5.105c.061-.168.146-.361.23-.519.951-1.808 1.504-3.73 1.797-5.234s.332-2.58.334-2.676l.002-.006.001-.077c.073-2.157.11-4.259.11-6.304-.002-17.651-2.65-31.153-6.394-41.447-3.747-10.295-8.582-17.4-13.078-22.291-2.999-3.258-5.853-5.529-8.146-7.067-3.058-2.051-5.121-2.798-5.159-2.811l.001-.001a4.607 4.607 0 0 1-.872-.419c-11.146-7.01-21.535-11.657-31.115-14.556-9.58-2.898-18.354-4.052-26.301-4.053-8.155 0-15.444 1.218-21.826 3.057a78.138 78.138 0 0 0-16.329 6.798c-8.958 4.982-13.94 10.093-14.202 10.37l-.012.011m49.95-5.937h-.014c-3.23 0-6.502.236-9.561.81-3.065.572-5.907 1.482-8.312 2.771l-.001.001c-.913.487-1.474.931-1.772 1.236-.301.311-.344.453-.358.486l-.008.053c-.001.045.011.206.138.505.123.295.361.707.705 1.159.684.909 1.782 1.947 2.876 2.808a30.125 30.125 0 0 0 2.052 1.484c.798.529 1.372.854 1.44.893l.001.001a4.308 4.308 0 0 1 2.207 3.964 4.31 4.31 0 0 1-2.58 3.732 43.008 43.008 0 0 1-17.19 3.57h-.018a45.308 45.308 0 0 1-12.74-1.84l-.075-.022a14.925 14.925 0 0 0 .929 5.649c.714 1.934 1.911 4.065 3.975 6.327a4.298 4.298 0 0 1 .874 4.343 4.298 4.298 0 0 1-3.428 2.805c-.14.019-2.812.404-6.542.406-2.161-.001-4.678-.129-7.296-.562a31.145 31.145 0 0 1-4.454-1.07 34.256 34.256 0 0 0 2.257 6.884 30.127 30.127 0 0 0 3.634 6.046 4.284 4.284 0 0 1 .483 4.489c-.081.169-.429.873-1.109 1.84a17.216 17.216 0 0 1-3.138 3.391 15.786 15.786 0 0 1-3.489 2.182 15.526 15.526 0 0 1-6.443 1.377h-.031c-.338 0-.682-.014-1.029-.035-.435 2.183-.871 5.438-.871 9.754 0 3.533.294 7.776 1.124 12.717 3.369 1.707 6.112 2.692 8.009 3.25.513-1.54 1.204-2.851 1.999-3.921a11.397 11.397 0 0 1 1.902-2.012 10.196 10.196 0 0 1 2.448-1.505 8.174 8.174 0 0 1 1.844-.563l.015-.003.024-.003c6.767-1.18 12.872-1.62 18.204-1.62 13.817.001 22.426 2.941 24.085 3.559 2.032.521 3.765 1.331 5.159 2.374a11.08 11.08 0 0 1 3.21 3.733c.362.692.618 1.369.802 2.004a26.248 26.248 0 0 1 4.292-.356c.098 0 .202.006.301.007.1-.001.204-.007.302-.007 1.607.001 3.054.15 4.291.356a10.734 10.734 0 0 1 1.936-3.736 11.475 11.475 0 0 1 2.58-2.356c1.303-.876 2.865-1.561 4.663-2.021 1.677-.623 10.281-3.555 24.078-3.556h.003c5.339 0 11.453.441 18.229 1.624a.028.028 0 0 0 .008.001.008.008 0 0 0 .004.001c.417.071 1.215.252 2.217.734 1.145.547 2.555 1.521 3.775 3.082.814 1.036 1.539 2.32 2.08 3.836.151.422.285.865.408 1.322.41-.087.943-.25 1.627-.557 1.291-.583 3.094-1.697 5.366-3.761.167-.151.343-.281.525-.401.143-2.074.233-4.323.233-6.708a88.357 88.357 0 0 0-.865-12.44c-.493.194-1.014.37-1.574.504-.745.177-1.551.285-2.399.285h-.023a9.92 9.92 0 0 1-3.728-.737c-1.245-.506-2.427-1.277-3.493-2.265a15.963 15.963 0 0 1-2.002-2.263 4.3 4.3 0 0 1 .082-5.202v-.001l.012-.016.084-.112c.082-.11.211-.289.379-.531.332-.485.814-1.225 1.354-2.173 1.079-1.896 2.381-4.63 3.229-7.817.568-2.125.937-4.449.936-6.881 0-1.003-.062-2.024-.197-3.061-.148.076-.295.151-.447.225-1.079.525-2.252 1.01-3.568 1.328-.754.179-1.561.304-2.448.306-.665 0-1.38-.073-2.122-.276a6.926 6.926 0 0 1-3.472-2.196 7.521 7.521 0 0 1-1.183-1.91c-.392-.901-.612-1.834-.729-2.793a26.584 26.584 0 0 0-2.437-8.393c-1.207-2.516-2.773-4.782-4.582-6.827-3.608-4.09-8.211-7.272-12.541-9.585a63.614 63.614 0 0 0-7.855-3.531c-2.958-1.098-4.97-1.593-5.092-1.623l-.166-.043-.014-.003-.075-.02c-.07-.021-.181-.049-.33-.088a65.95 65.95 0 0 0-1.324-.326 94.657 94.657 0 0 0-4.892-1.011c-4.092-.739-9.649-1.473-15.349-1.473h-.024m33.312 119.403h.064c1.385 0 2.366-.111 2.421-.119l.227-.028.23-.005c12.752-.236 19.475-2.945 19.619-3.004l.135-.057.156-.051a7.807 7.807 0 0 0 1.753-.832 6.777 6.777 0 0 0 2.507-2.922c.145-.322.21-.546.225-.594l.022-.109.052-.168c.102-.328.212-.812.305-1.38.092-.569.17-1.224.229-1.919.118-1.391.161-2.936.161-4.359 0-2.759-.159-5.058-.165-5.139v-.001l-.013-.155v-.155c0-1.939-.252-3.303-.555-4.234-.306-.933-.646-1.442-.914-1.759a2.455 2.455 0 0 0-.461-.423 1.308 1.308 0 0 0-.255-.142c-6.239-1.085-11.827-1.483-16.676-1.484h-.007c-13.318.001-21.061 3.01-21.172 3.053l-.282.114-.312.074c-1.217.292-1.91.672-2.33.984-.42.318-.602.578-.742.836-.09.171-.15.345-.191.514a2.458 2.458 0 0 0-.068.556l.002.06.068.435-.052.548a8.719 8.719 0 0 0-.038.822c-.001.78.094 1.673.254 2.56.159.887.381 1.769.609 2.543.395 1.345.81 2.37.924 2.644a101.411 101.411 0 0 0 1.838 3.578 261.585 261.585 0 0 0 4.28 7.625c.299.268.672.525 1.131.764.604.312 1.346.582 2.156.787 1.597.407 3.436.542 4.865.542m-57.601 0c1.074 0 2.383-.07 3.652-.283 1.277-.211 2.503-.575 3.405-1.047a5.476 5.476 0 0 0 1.131-.762l.124-.213c.253-.436.614-1.059 1.042-1.807a234.006 234.006 0 0 0 3.048-5.484 105.34 105.34 0 0 0 1.903-3.699 25.47 25.47 0 0 0 .533-1.418c.334-.967.734-2.312.985-3.686.17-.914.271-1.84.27-2.645 0-.293-.013-.57-.038-.823l-.053-.547.07-.435.001-.06a2.465 2.465 0 0 0-.09-.64 2.161 2.161 0 0 0-.399-.78 2.908 2.908 0 0 0-.663-.593c-.429-.287-1.099-.618-2.18-.877l-.312-.074-.286-.115-.031-.012a16.508 16.508 0 0 0-.21-.078c-.203-.072-.53-.185-.976-.324a46.679 46.679 0 0 0-4.072-1.055c-3.622-.782-9.009-1.582-15.885-1.583-4.847.001-10.436.399-16.675 1.484a1.48 1.48 0 0 0-.353.213c-.127.1-.279.241-.451.459-.228.293-.498.728-.751 1.43-.335.933-.631 2.356-.631 4.456v.155l-.012.155v.001l-.001.015-.004.07-.019.289a83.443 83.443 0 0 0-.141 4.765c0 1.068.024 2.203.086 3.291s.164 2.133.305 2.987a10.9 10.9 0 0 0 .304 1.38l.052.168.024.109.009.033c.021.07.068.211.145.4.154.379.433.936.867 1.504.289.379.646.764 1.09 1.127.595.483 1.34.934 2.372 1.283l.154.051.14.059.013.006a19.966 19.966 0 0 0 1.012.355c.78.254 1.999.611 3.646.981 3.295.741 8.301 1.537 14.945 1.659l.231.005.228.028.005.002.106.011c.103.011.269.026.485.042.434.031 1.074.064 1.831.064h.019m-47.491.773H70.033a6.303 6.303 0 0 1-1.817-.274 6.863 6.863 0 0 1-1.649-.758c-1.007-.634-1.805-1.447-2.516-2.387a16.673 16.673 0 0 1-1.334-2.102c-.563-1.039-1.101-2.227-1.635-3.615l-.073-.205-.001-.002v-.002l-.008-.023c-.009-.027-.024-.074-.046-.135a27.891 27.891 0 0 0-.199-.561 45.03 45.03 0 0 0-.807-2.033c-.705-1.668-1.749-3.836-2.966-5.696a21.143 21.143 0 0 0-.455-.669 3.787 3.787 0 0 1-.194.125l.002.002-.001.001-.028.019a4.017 4.017 0 0 0-.289.215 5.676 5.676 0 0 0-.963 1.003 4.666 4.666 0 0 0-.558.969 4.227 4.227 0 0 0-.33 1.678c.001.506.075 1.107.302 1.857.218.715.587 1.568 1.172 2.556.667.909 3.094 4.331 6.071 9.923 3.432 6.445 7.594 15.771 10.595 27.439.062.242.09.4.114.648h.001l.001.014.01.088a30.14 30.14 0 0 0 .301 1.916c.24 1.268.65 2.969 1.252 4.55.398 1.054.884 2.05 1.399 2.821.293.443.593.811.877 1.09.325.32.62.525.885.654.307.144.573.217.998.221h.001a183.904 183.904 0 0 1-.824-6.885c-1.231-12.176-1.229-22.797-1.23-22.883a4.294 4.294 0 1 1 8.589 0v.006l.001.031v.125l.004.51c.004.451.013 1.115.03 1.961.034 1.693.103 4.109.242 6.984.276 5.746.833 13.332 1.926 20.553.725 4.812 1.697 9.465 2.922 13.226.696 2.147 1.477 3.997 2.272 5.384.421.736.842 1.34 1.231 1.795l.38.434 1.106 1.263c.935 1.067 2.229 2.544 3.665 4.179 2.87 3.264 6.311 7.164 8.556 9.658.64.711 1.183 1.309 1.573 1.729l.099.109.005.006.026.031.117.133c.105.118.265.299.472.527a93.345 93.345 0 0 0 1.773 1.904c1.501 1.57 3.58 3.642 5.821 5.588 1.491 1.297 3.056 2.539 4.529 3.529.206.139.388.287.567.459h.001l.003.002.001.002.021.019a16.92 16.92 0 0 0 .854.738 36.05 36.05 0 0 0 2.875 2.113c2.527 1.68 6.215 3.705 10.707 5.037a35.046 35.046 0 0 0 9.991 1.475c3.646-.002 7.588-.582 11.825-2.07 4.233-1.49 8.768-3.895 13.555-7.605 1.232-.955 2.666-2.181 4.103-3.475a164.915 164.915 0 0 0 4.187-3.915c2.58-2.489 4.57-4.542 4.812-4.792.696-.751 1.825-1.996 3.146-3.469 1.34-1.491 2.883-3.221 4.41-4.934a3784.363 3784.363 0 0 0 7.699-8.68c.385-.453.805-1.051 1.221-1.781.422-.734.843-1.601 1.246-2.574.81-1.945 1.549-4.311 2.188-6.91 1.284-5.201 2.177-11.33 2.769-17.148 1.188-11.646 1.201-22.074 1.199-22.154a4.295 4.295 0 0 1 8.59 0c0 .051 0 4.094-.287 10.031-.266 5.502-.773 12.623-1.768 19.736h.001c.397-.004.655-.068.938-.193.281-.127.591-.334.938-.676.23-.227.472-.512.712-.848.321-.446.637-.984.928-1.578.389-.791.732-1.678 1.018-2.564.382-1.182.659-2.359.848-3.316.25-1.277.342-2.164.342-2.178a3.76 3.76 0 0 1 .115-.648c3-11.668 7.162-20.994 10.594-27.439 2.978-5.591 5.404-9.013 6.072-9.923.584-.987.953-1.842 1.172-2.558.228-.748.301-1.35.303-1.855a4.399 4.399 0 0 0-.164-1.205 4.381 4.381 0 0 0-.411-.965 5.114 5.114 0 0 0-.599-.824 69.297 69.297 0 0 1-.931 1.953c-.709 1.43-1.483 2.87-2.33 4.209-.428.676-.88 1.32-1.362 1.939-.125.186-.512.756-1.062 1.533a69.003 69.003 0 0 1-2.507 3.332 31.895 31.895 0 0 1-2.021 2.293c-.41.41-.828.803-1.328 1.187a7.906 7.906 0 0 1-.916.612 5.757 5.757 0 0 1-1.489.6 5.116 5.116 0 0 1-1.188.145h-.013a4.809 4.809 0 0 1-1.622-.291 5.153 5.153 0 0 1-.667-.221 5.558 5.558 0 0 1-1.834-1.262 6.745 6.745 0 0 1-.89-1.148 9.056 9.056 0 0 1-.818-1.752c-.292-.838-.51-1.765-.674-2.854-.217-1.449-.337-3.189-.337-5.372 0-1.644.069-3.538.226-5.74.018-.251.062-.526.127-.771h-.001l.002-.008.015-.054.062-.256c.056-.235.138-.597.239-1.074l.1-.486a21.37 21.37 0 0 1-.828.399c-1.563.71-3.014 1.111-4.313 1.295.028.853.049 1.845.049 2.917 0 1.194-.026 2.482-.101 3.783s-.195 2.611-.402 3.883a19.382 19.382 0 0 1-.516 2.318c-.071.293-.232.872-.549 1.646a15.384 15.384 0 0 1-4.469 6.021 16.022 16.022 0 0 1-4.874 2.701c-1.016.412-8.727 3.343-22.469 3.623-.494.054-1.676.158-3.26.16a31.384 31.384 0 0 1-5.086-.401c-1.896-.321-3.941-.862-5.939-1.892-1.328-.688-2.639-1.606-3.773-2.842l-.306-.332-.229-.39c-.016-.028-2.416-4.093-4.656-8.271a112.467 112.467 0 0 1-2.105-4.1l-.035-.072-.03-.07a29.279 29.279 0 0 1-.818-2.141 34.583 34.583 0 0 1-1.31-4.924c-.01-.052-.018-.105-.026-.158a16.335 16.335 0 0 0-1.429-.375 16.448 16.448 0 0 0-3.093-.339c-.97.016-2.008.113-3.092.339-.468.098-.946.227-1.429.375l-.026.158a33.115 33.115 0 0 1-.859 3.521c-.616 2.05-1.22 3.431-1.269 3.543l-.031.072-.034.07a114.151 114.151 0 0 1-2.106 4.1 263.521 263.521 0 0 1-4.657 8.27l-.229.39-.306.332c-1.135 1.235-2.446 2.154-3.773 2.842-1.331.688-2.686 1.154-4.001 1.488-2.629.658-5.115.801-7.025.805a31.599 31.599 0 0 1-3.259-.16c-14.165-.289-21.923-3.395-22.543-3.652a16.36 16.36 0 0 1-3.723-1.867 15.379 15.379 0 0 1-2.853-2.513 15.28 15.28 0 0 1-2.814-4.616 11.578 11.578 0 0 1-.43-1.348 19.752 19.752 0 0 1-.514-2.314 33.768 33.768 0 0 1-.311-2.58 61.036 61.036 0 0 1-.192-5.086c0-1.492.041-2.835.084-3.852a46.396 46.396 0 0 1-5.115-1.658c.279 1.874.552 3.931.765 6.029.241 2.382.408 4.803.408 7.082 0 .9-.026 1.779-.088 2.636a4.226 4.226 0 0 1-.405 1.534 8.01 8.01 0 0 1-.373.688 9.74 9.74 0 0 1-.91 1.271 8.337 8.337 0 0 1-1.041 1.032 6.837 6.837 0 0 1-2.299 1.267 6.24 6.24 0 0 1-1.865.29M144.26 17.787h-.011c-8.726 0-17.327 1.234-25.569 3.668-9.275 2.74-17.954 6.91-25.795 12.393-3.739 2.615-6.403 4.932-7.887 6.315a46.968 46.968 0 0 0-10.017 4.407c-5.889 3.474-10.969 8.282-15.097 14.289-2.708 3.937-5.049 8.456-6.959 13.429-2.439 6.357-4.236 13.611-5.34 21.56-.883 6.368-1.331 13.236-1.331 20.411.001 10.851 1.014 19.59 1.527 23.326a16.966 16.966 0 0 0-2.676 3.232 15.823 15.823 0 0 0-2.481 8.537c-.001 1.715.27 3.473.805 5.223.534 1.754 1.346 3.537 2.413 5.299.143.236.258.406.423.623l.004.006c.024.031 2.433 3.246 5.471 9.016 2.71 5.145 6.51 13.48 9.269 24.033.071.557.191 1.374.381 2.376a41.177 41.177 0 0 0 1.156 4.634 31.065 31.065 0 0 0 1.622 4.154 22.812 22.812 0 0 0 1.892 3.26 18.164 18.164 0 0 0 1.998 2.396c1.291 1.297 2.743 2.32 4.313 3.043a13.761 13.761 0 0 0 4.883 1.227c.057.245.114.482.17.713.814 3.311 1.711 6.127 2.74 8.614a33.953 33.953 0 0 0 1.893 3.897c.777 1.359 1.59 2.529 2.485 3.576l.038.043.011.014.012.013c.316.362 3.205 3.666 6.452 7.354 2.021 2.295 3.756 4.26 5.159 5.836.807.908 1.561 1.752 2.221 2.486.658.73 1.187 1.311 1.616 1.775.392.447 2.129 2.406 4.557 4.828a93.863 93.863 0 0 0 4.72 4.412c1.775 1.543 3.511 2.906 5.163 4.051 1.192 1.066 4.144 3.514 8.593 5.967a51.049 51.049 0 0 0 10.09 4.234 46.641 46.641 0 0 0 13.273 1.953c5.26 0 10.522-.918 15.657-2.725 5.721-2.012 11.373-5.164 16.797-9.371 1.438-1.117 3.043-2.476 4.902-4.154a196.75 196.75 0 0 0 6.525-6.201 193.98 193.98 0 0 0 2.933-2.961l.011-.012.014-.012.056-.061.009-.01.008-.008c.804-.865 2.078-2.273 3.897-4.302a2832.651 2832.651 0 0 0 11.576-13.021l.019-.021.01-.01.027-.032.045-.052c.909-1.062 1.723-2.232 2.499-3.59 1.212-2.123 2.267-4.588 3.229-7.541a71.866 71.866 0 0 0 1.572-5.684 13.734 13.734 0 0 0 5.168-1.363 14.85 14.85 0 0 0 3.944-2.824c1.584-1.574 2.901-3.487 4.029-5.854 1.097-2.324 1.935-4.895 2.563-7.871.293-1.398.459-2.533.541-3.181 2.813-10.757 6.707-19.222 9.486-24.44a86.002 86.002 0 0 1 3.852-6.563c.483-.743.859-1.286 1.09-1.61.119-.168.207-.289.262-.365l.051-.068a7.06 7.06 0 0 0 .428-.627c1.066-1.764 1.879-3.549 2.414-5.303.534-1.748.805-3.506.805-5.223a15.933 15.933 0 0 0-1.236-6.159 16.244 16.244 0 0 0-1.927-3.368c-.737-.99-1.581-1.9-2.517-2.713a32.907 32.907 0 0 0 1.09-4.305c.381-2.114.451-3.637.463-4.216.076-2.238.115-4.465.115-6.618 0-15.695-1.992-29.823-5.923-41.991-2.487-7.703-5.774-14.693-9.77-20.776-5.73-8.725-11.959-14.079-16.177-17.033-3.502-2.454-6.293-3.771-7.78-4.381-11.128-6.936-22.335-12.136-33.312-15.457-9.969-3.016-19.939-4.546-29.632-4.546m22.555 17.61c-.617-.167-3.451-.915-7.567-1.657-2.894-.52-5.731-.918-8.501-1.194 6.225.507 12.574 1.732 18.949 3.66 9.603 2.906 19.47 7.471 29.346 13.574l-.128.435 2.627.92c.129.049 1.913.741 4.51 2.484 2.654 1.78 5.218 4.006 7.619 6.615 5.188 5.642 9.385 12.809 12.476 21.301 4.123 11.34 6.215 24.946 6.215 40.438 0 2.025-.035 4.113-.107 6.204v.018l-.001.019V128.243l-.002.057s-.031.891-.281 2.168c-.179.924-.612 2.719-1.512 4.426-.146.276-.283.59-.39.882l-.004.009c-.023.063-.233.63-.578 1.498.418-3.567.74-7.884.742-12.705 0-7.501-.791-14.741-2.351-21.519a7.282 7.282 0 0 0-5.483-5.447 7.259 7.259 0 0 0-2.315-.138c.304-.896.575-1.792.815-2.69.879-3.297 1.324-6.612 1.324-9.856a34.544 34.544 0 0 0-2.311-12.479 7.267 7.267 0 0 0-6.77-4.646 7.17 7.17 0 0 0-1.554.171l-.394-.618-2.566 2.03-.053.042c-.008.006-.615.483-1.467 1.048a37.828 37.828 0 0 0-2.14-6.256 40.129 40.129 0 0 0-4.669-7.898c-2.801-3.709-6.341-7.126-10.521-10.156-4.549-3.293-9.779-6.102-15.549-8.349-3.819-1.485-6.594-2.217-7.409-2.42M93.011 52.649l1-1.041.01-.012c.058-.06 4.799-4.989 13.508-9.833a75.259 75.259 0 0 1 12.771-5.627c-.613.283-1.213.581-1.801.896a20.2 20.2 0 0 0-3.166 2.067c-1.58 1.267-2.816 2.724-3.672 4.33-.465.871-.82 1.79-1.053 2.732-.229.919-.346 1.87-.345 2.825 0 1.55.304 3.113.904 4.643.257.653.56 1.29.917 1.923a33.942 33.942 0 0 1-10.125-1.361 27.644 27.644 0 0 1-2.605-.904c-.295-.12-.498-.211-.593-.254l-.095-.045-.005-.003-2.63-1.291-.273.545a7.217 7.217 0 0 0-2.724.401c-.007.004-.014.006-.023.009m32.66-3.013c1.992-1.015 4.385-1.787 7.125-2.298 2.69-.504 5.724-.759 9.02-.759h.036c5.731 0 11.225.774 14.825 1.424 2.054.37 3.71.737 4.738.98.569.134 1.001.243 1.262.311l.3.079.077.021.015.005.028.007.166.043.025.006.024.006c.019.005 1.92.469 4.754 1.521a60.1 60.1 0 0 1 7.489 3.364c4.75 2.539 8.804 5.629 11.722 8.937 1.715 1.939 3.104 4.008 4.134 6.151a23.562 23.562 0 0 1 2.168 7.47c.161 1.326.472 2.508.95 3.613.426.979.979 1.872 1.647 2.653a9.83 9.83 0 0 0 1.808 1.651c.928.659 2.013 1.17 3.133 1.475.92.251 1.896.38 2.896.38a13.556 13.556 0 0 0 3.131-.385c.183-.044.364-.091.545-.141a24.21 24.21 0 0 1-.801 4.897c-.804 3.023-2.044 5.54-2.943 7.119a27.446 27.446 0 0 1-1.219 1.96c-.141.203-.25.354-.318.445l-.051.07a7.261 7.261 0 0 0-.133 8.771 18.88 18.88 0 0 0 2.375 2.678c1.338 1.242 2.815 2.196 4.387 2.834a12.91 12.91 0 0 0 4.838.954h.022c.481 0 .965-.026 1.447-.081.294 2.885.441 5.826.441 8.78 0 1.723-.049 3.481-.148 5.243-1.18 1.04-2.166 1.753-2.953 2.24a15.961 15.961 0 0 0-1.867-3.039c-1.666-2.129-3.541-3.307-4.822-3.92a11.366 11.366 0 0 0-2.986-.979l-.008-.002-.016-.002c-6.332-1.105-12.631-1.665-18.721-1.665-13.958 0-22.953 2.956-24.964 3.687-2.043.539-3.868 1.343-5.427 2.391a14.412 14.412 0 0 0-3.24 2.964 13.506 13.506 0 0 0-1.527 2.371 28.966 28.966 0 0 0-2.392-.099c-.086 0-.174.002-.263.005l-.04.001-.04-.001a7.721 7.721 0 0 0-.261-.005c-.798 0-1.598.033-2.394.099l-.085-.165c-.948-1.823-2.354-3.462-4.064-4.733-1.686-1.261-3.718-2.213-6.037-2.825-2.01-.732-11.002-3.69-24.968-3.69-6.083-.001-12.375.558-18.703 1.661l-.009.002-.025.004c-.804.136-1.674.4-2.516.762a13.123 13.123 0 0 0-3.16 1.939 14.35 14.35 0 0 0-2.396 2.532 15.765 15.765 0 0 0-1.268 2.017 47.854 47.854 0 0 1-3.694-1.566c-.562-3.744-.846-7.35-.846-10.74 0-2.764.191-5.051.427-6.824a18.45 18.45 0 0 0 6.22-1.587 18.757 18.757 0 0 0 4.139-2.587 20.26 20.26 0 0 0 3.676-3.97 16.592 16.592 0 0 0 1.355-2.258 7.21 7.21 0 0 0-.811-7.583 27.192 27.192 0 0 1-3.277-5.455 29.375 29.375 0 0 1-.682-1.635c2.328.367 4.844.553 7.486.554 3.558-.001 6.205-.33 6.932-.431l.009-.002.026-.003a7.231 7.231 0 0 0 5.784-4.733 7.23 7.23 0 0 0-1.475-7.327c-1.589-1.742-2.697-3.495-3.385-5.359a12.67 12.67 0 0 1-.246-.735c3.081.612 6.215.922 9.363.923h.018a45.844 45.844 0 0 0 18.365-3.815 7.294 7.294 0 0 0 4.353-6.296 7.296 7.296 0 0 0-3.713-6.683 27.195 27.195 0 0 1-3.101-2.115 17.61 17.61 0 0 1-1.686-1.507m-62.787 85.215a7.557 7.557 0 0 1-1.244-3.412 168.388 168.388 0 0 1-.894-17.178c0-6.629.416-12.927 1.236-18.722.726-5.125 1.776-9.893 3.121-14.172 2.261-7.198 5.393-13.135 9.309-17.646 2.098-2.42 4.466-4.478 7.038-6.119 2.79-1.777 5.793-3.081 9.178-3.985.325-.087.642-.196.949-.326l.037.034a7.278 7.278 0 0 0-2.772 3.155c-.166.365-.587 1.368-.98 2.89a25.416 25.416 0 0 0-.792 6.333 26.269 26.269 0 0 0 .929 6.926 18.958 18.958 0 0 1-.697-.161c-1.074-.27-2.039-.618-2.797-1.01-.64-.331-1.148-.692-1.512-1.077-1.444-1.526-3.419-2.402-5.418-2.402-.333 0-.67.023-.999.072-3.382.493-5.992 3.319-6.206 6.719-.008.131-.034.614-.034 1.372.002 2.397.241 6.212 1.372 10.789a45.664 45.664 0 0 0 2.717 7.858c.445.982.932 1.954 1.453 2.902-.32.077-.655.114-1.032.115-.64-.001-1.336-.112-2.123-.341a7.233 7.233 0 0 0-2.021-.289 7.224 7.224 0 0 0-6.708 4.493c-.262.63-2.595 6.56-2.593 17.397 0 4.999.498 10.303 1.483 15.785m101.23 4.941c.244-.092 7.64-2.847 20.09-2.847 4.971 0 10.119.435 15.32 1.295.062.131.127.294.187.48.187.571.41 1.616.41 3.315v.262l.007.106.012.155c.002.029.158 2.241.157 4.926a50.098 50.098 0 0 1-.149 4.109 22.623 22.623 0 0 1-.203 1.691 7.9 7.9 0 0 1-.211.988l-.054.172-.034.117-.021.09c-.015.037-.035.092-.065.16a3.788 3.788 0 0 1-1.414 1.643c-.32.205-.677.375-1.091.514l-.151.051-.108.036-.106.046-.102.043c-.533.207-6.835 2.566-18.557 2.784l-.229.005-.157.002-.158.02-.228.029c-.001 0-.846.096-2.051.096h-.063c-1.504 0-3.011-.166-4.135-.453-.596-.148-1.134-.342-1.525-.545a3.62 3.62 0 0 1-.234-.133 270.152 270.152 0 0 1-1.91-3.344 210.043 210.043 0 0 1-2.025-3.686 105.626 105.626 0 0 1-1.746-3.396 24.522 24.522 0 0 1-.785-2.265 21.236 21.236 0 0 1-.536-2.232c-.134-.746-.208-1.468-.207-2.036 0-.199.008-.38.022-.54l.053-.549.037-.376-.015-.093a5.1 5.1 0 0 1 .99-.329l.308-.073.213-.051.203-.081.261-.106zm-70.916-1.552c5.201-.86 10.348-1.295 15.313-1.295 6.811 0 12.059.824 15.262 1.516 1.747.377 3.039.745 3.815.988.402.125.69.224.862.286l.159.058.262.106.202.08.211.051.312.075c.473.113.787.231.989.328l-.015.093.037.376.052.548c.016.161.024.342.024.537.001.591-.077 1.338-.22 2.109a23.62 23.62 0 0 1-.873 3.262c-.153.443-.287.793-.372 1.01l-.064.158c-.486.998-1.095 2.18-1.811 3.516a236.443 236.443 0 0 1-3.871 6.908 2.94 2.94 0 0 1-.229.129c-.598.314-1.539.594-2.528.756a19.732 19.732 0 0 1-3.173.246h-.019c-.691 0-1.26-.031-1.616-.057-.178-.014-.315-.027-.4-.035l-.06-.006-.209-.027-.157-.02-.159-.002-.231-.005c-6.568-.122-11.429-.931-14.351-1.588a38.991 38.991 0 0 1-3.383-.909 21.2 21.2 0 0 1-.72-.248c-.042-.018-.074-.029-.096-.037l-.111-.047-.105-.045-.109-.035-.154-.053c-.573-.193-1.035-.439-1.445-.773a3.637 3.637 0 0 1-.605-.627 3.756 3.756 0 0 1-.515-.916l-.02-.088-.035-.115-.051-.168a8.049 8.049 0 0 1-.214-.99 26.305 26.305 0 0 1-.271-2.68 55.328 55.328 0 0 1-.081-3.123 80.682 80.682 0 0 1 .136-4.589l.017-.273.004-.062.012-.159.007-.107v-.26c0-1.804.25-2.877.459-3.46.044-.126.091-.239.138-.337m51.152 10.214a13.61 13.61 0 0 1 2.011-.186c.699.014 1.361.074 2.012.186a38.882 38.882 0 0 0 1.958 5.978l.033.076.021.049.023.047.033.072c.592 1.223 1.299 2.6 2.164 4.214a260.207 260.207 0 0 0 4.705 8.356v.002l.012.018.229.389.158.268.21.229.306.332c1.266 1.379 2.811 2.545 4.59 3.467 2.004 1.033 4.228 1.744 6.805 2.18a34.17 34.17 0 0 0 5.578.443 34.88 34.88 0 0 0 3.441-.162c13.801-.299 21.705-3.16 23.326-3.809 2.12-.748 4.039-1.818 5.705-3.182a18.249 18.249 0 0 0 5.329-7.183c.353-.861.558-1.553.671-2 .023-.08.045-.158.066-.238.172.898.387 1.709.648 2.461a11.89 11.89 0 0 0 1.094 2.326c.377.613.81 1.17 1.285 1.66.803.83 1.78 1.5 2.823 1.93.276.117.575.22.918.314a7.771 7.771 0 0 0 4.394.194 8.744 8.744 0 0 0 2.231-.89l.011-.006.012-.006c.065-.039.131-.076.195-.115a127.104 127.104 0 0 0-7.33 18.533l.043-.867c.276-5.754.289-9.729.289-10.164 0-4.004-3.25-7.254-7.246-7.254s-7.246 3.25-7.246 7.246V173.387c0 .398-.026 10.479-1.186 21.829-.657 6.472-1.59 12.261-2.697 16.741-.625 2.539-1.313 4.72-2.048 6.484a19.911 19.911 0 0 1-1.081 2.24 8.924 8.924 0 0 1-.891 1.314l-.467.527a3597.256 3597.256 0 0 1-7.207 8.123 1948.497 1948.497 0 0 1-4.401 4.926 308.91 308.91 0 0 1-3.092 3.408c-.3.309-2.222 2.287-4.72 4.699a163.419 163.419 0 0 1-4.111 3.846c-1.488 1.34-2.85 2.492-3.938 3.336-4.192 3.25-8.475 5.656-12.728 7.153-3.638 1.278-7.187 1.901-10.844 1.903a32.264 32.264 0 0 1-9.15-1.354c-4.318-1.279-7.774-3.244-9.913-4.666a32.418 32.418 0 0 1-2.637-1.938 16.924 16.924 0 0 1-.72-.62l-.003-.002-1.307-1.236-.217.076a47.85 47.85 0 0 1-3.664-2.91c-2.256-1.961-4.303-4.02-5.624-5.4a99.236 99.236 0 0 1-1.717-1.844c-.198-.22-.35-.391-.45-.504l-.104-.119-.025-.027-.015-.018-.021-.023-.098-.109-.016-.018-.017-.018c-.366-.395-.899-.98-1.542-1.695-2.32-2.578-5.921-6.662-8.533-9.633a5572.842 5572.842 0 0 1-3.662-4.174l-.932-1.064-.173-.198-.356-.407-.011-.014c-.201-.234-.518-.654-.901-1.327-.697-1.216-1.397-2.884-2.028-4.83-1.083-3.321-2.054-7.729-2.812-12.755-1.118-7.393-1.648-15.096-1.896-20.256a253.7 253.7 0 0 1-.239-6.9 174.18 174.18 0 0 1-.033-2.425l-.001-.118v-.05c-.01-3.987-3.257-7.228-7.246-7.228-3.996 0-7.247 3.25-7.247 7.246v.021l.001.008v.012c.002.715.028 5.029.334 11.004a126.878 126.878 0 0 0-7.32-18.512c.394.18.796.334 1.205.457a9.283 9.283 0 0 0 2.675.402h.01a9.17 9.17 0 0 0 2.758-.426 9.785 9.785 0 0 0 3.282-1.801c.512-.424.973-.881 1.415-1.4a12.595 12.595 0 0 0 1.7-2.601 7.34 7.34 0 0 0 .324-.799l.053.143a18.217 18.217 0 0 0 3.357 5.514 18.348 18.348 0 0 0 3.405 2.998c1.3.885 2.755 1.619 4.325 2.184 1.204.491 9.214 3.539 23.42 3.846.653.066 1.872.162 3.44.162 2.838-.006 5.369-.297 7.745-.895 1.71-.434 3.225-.998 4.637-1.729 1.782-.922 3.326-2.088 4.592-3.465l.306-.334.21-.229.158-.268.229-.389c.199-.338 1.217-2.072 2.488-4.328a234.948 234.948 0 0 0 2.228-4.048 111.676 111.676 0 0 0 2.162-4.211l.035-.071.023-.049.021-.048.031-.071.004-.008.008-.018a37.35 37.35 0 0 0 1.382-3.854c.214-.703.405-1.408.571-2.101"/><path fill="#2167B2" d="M122.604 140.321c-.207-.033-3.927-.625-9.574-.429a64.775 64.775 0 0 0-11.662 1.465 4.295 4.295 0 0 0 1.852 8.388 56.253 56.253 0 0 1 10.109-1.27 53.527 53.527 0 0 1 5.869.109c.694.055 1.228.112 1.575.152.174.021.301.04.378.052l.077.011h.001a4.294 4.294 0 0 0 4.926-3.553 4.291 4.291 0 0 0-3.551-4.925M171.307 148.8h.004l.005-.001c.101-.017 3.284-.488 8.022-.322 2.92.102 6.426.444 10.154 1.269a4.293 4.293 0 1 0 1.853-8.386 65.024 65.024 0 0 0-11.709-1.467c-5.69-.197-9.465.392-9.667.423a4.295 4.295 0 0 0 1.338 8.484M169.317 205.118c-3.973 1.887-7.881 3.139-11.652 3.924s-7.406 1.101-10.817 1.101c-6.817.002-12.735-1.269-16.91-2.535a51.674 51.674 0 0 1-4.842-1.724 31.911 31.911 0 0 1-1.523-.68l-.053-.027-.009-.004a4.295 4.295 0 0 0-3.914 7.646c.18.09 3.052 1.553 7.849 3.008 4.796 1.453 11.522 2.903 19.402 2.904 3.94.001 8.165-.363 12.565-1.279s8.973-2.383 13.59-4.574a4.296 4.296 0 0 0-3.686-7.76"/><path fill="#2167B2" d="M146.745 293.489c-19.809 0-39.027-3.881-57.121-11.534-17.475-7.392-33.168-17.972-46.643-31.446-13.476-13.476-24.056-29.168-31.447-46.643C3.881 185.772 0 166.553 0 146.745c0-19.809 3.881-39.027 11.534-57.121 7.391-17.476 17.971-33.168 31.447-46.644 13.475-13.475 29.168-24.056 46.643-31.447C107.718 3.881 126.936 0 146.745 0s39.027 3.881 57.121 11.534c17.475 7.391 33.168 17.972 46.643 31.447 13.476 13.476 24.056 29.168 31.446 46.644 7.654 18.094 11.534 37.312 11.534 57.121 0 19.809-3.88 39.027-11.534 57.121-7.391 17.475-17.971 33.167-31.446 46.643-13.475 13.475-29.168 24.055-46.643 31.446-18.094 7.652-37.313 11.533-57.121 11.533m0-285.055c-36.944 0-71.677 14.387-97.801 40.51-26.123 26.124-40.51 60.857-40.51 97.801 0 36.943 14.387 71.678 40.51 97.801 26.124 26.123 60.857 40.51 97.801 40.51s71.678-14.387 97.801-40.51 40.51-60.857 40.51-97.801-14.387-71.677-40.51-97.801c-26.124-26.123-60.857-40.51-97.801-40.51"/></svg>