<?xml version="1.0" encoding="utf-8"?>
<!-- Generator: Adobe Illustrator 16.0.0, SVG Export Plug-In . SVG Version: 6.00 Build 0)  -->
<!DOCTYPE svg PUBLIC "-//W3C//DTD SVG 1.1//EN" "http://www.w3.org/Graphics/SVG/1.1/DTD/svg11.dtd">
<svg version="1.1" id="Layer_1" xmlns="http://www.w3.org/2000/svg" xmlns:xlink="http://www.w3.org/1999/xlink" x="0px" y="0px"
	 width="293.489px" height="293.489px" viewBox="0 0 293.489 293.489" enable-background="new 0 0 293.489 293.489"
	 xml:space="preserve">
<path fill="#FFFFFF" d="M61.44,137.769l0.071,0.077c1.211,1.318,2.23,2.752,3.117,4.183c0.284,0.46,0.554,0.92,0.811,1.376
	c0.544,0.966,2.016,0.467,1.849-0.628l-0.01-0.066c-0.591-3.881-1.197-6.838-1.224-6.971l-0.001-0.004l-0.011-0.054
	c-1.25-6.455-1.69-12.009-1.689-16.618c-0.002-10.267,2.185-15.829,2.371-16.276c0.832-2.026,3.072-3.104,5.175-2.491
	c1.156,0.337,2.124,0.458,2.951,0.458c0.844-0.001,1.544-0.125,2.167-0.321c0.622-0.197,1.168-0.469,1.66-0.789
	c0.005-0.003,0.009-0.006,0.014-0.009c0.713-0.463,0.904-1.426,0.469-2.155c-0.782-1.311-1.461-2.621-2.047-3.913
	c-1.165-2.57-1.975-5.066-2.539-7.347c-1.128-4.563-1.285-8.27-1.287-10.081c0-0.69,0.024-1.105,0.029-1.186
	c0.126-1.999,1.624-3.684,3.686-3.984c1.433-0.209,2.852,0.386,3.847,1.438c0.586,0.621,1.352,1.182,2.299,1.671
	c0.986,0.51,2.161,0.931,3.431,1.249c1.878,0.475,3.951,0.714,5.879,0.805c-0.372-0.767-0.694-1.527-0.97-2.278
	c-1.097-2.978-1.467-5.776-1.466-8.151c0-2.307,0.342-4.219,0.697-5.595c0.356-1.377,0.726-2.222,0.81-2.408
	c0.481-1.06,1.387-1.889,2.485-2.275c1.092-0.385,2.311-0.307,3.346,0.211v-0.001l0.021,0.01c0.026,0.013,0.076,0.037,0.15,0.07
	c0.146,0.067,0.385,0.172,0.707,0.305c0.646,0.264,1.629,0.631,2.886,1.001c2.513,0.743,6.115,1.491,10.311,1.49
	c1.961-0.001,4.05-0.165,6.231-0.562c-0.85-0.848-1.678-1.791-2.41-2.876c-0.511-0.76-0.976-1.591-1.341-2.522
	c-0.415-1.059-0.7-2.263-0.7-3.566c-0.001-0.692,0.082-1.407,0.257-2.112c0.176-0.706,0.444-1.4,0.793-2.055
	c0.701-1.314,1.709-2.449,2.916-3.418c0.807-0.647,1.708-1.229,2.71-1.765h-0.001c3.388-1.811,7.063-2.944,10.786-3.642
	c3.725-0.696,7.507-0.954,11.154-0.955c6.43,0.002,12.443,0.808,16.895,1.607c4.112,0.742,6.879,1.48,7.348,1.609
	c0.527,0.129,3.258,0.826,7.08,2.312c4.154,1.618,9.599,4.158,14.89,7.989c3.524,2.555,6.987,5.691,9.897,9.544
	c1.662,2.201,3.14,4.637,4.326,7.316c1.282,2.893,2.217,6.072,2.688,9.507c0.092-0.031,0.187-0.063,0.287-0.102
	c0.645-0.243,1.418-0.627,2.146-1.048c1.466-0.842,2.75-1.82,3.017-2.03l0.053-0.042h0.001c1.073-0.861,2.475-1.155,3.804-0.797
	c1.331,0.358,2.396,1.319,2.891,2.605c1.517,3.939,2.117,7.819,2.115,11.418c-0.001,3.298-0.496,6.362-1.225,9.095
	c-0.73,2.734-1.693,5.142-2.652,7.147c-0.576,1.203-1.15,2.26-1.676,3.159c0.043,0.004,0.086,0.008,0.131,0.008
	c0.208,0.001,0.492-0.049,0.852-0.194c0.357-0.142,0.772-0.379,1.162-0.66c0.785-0.559,1.441-1.284,1.571-1.444l0.026-0.031
	l0.002,0.001c1.023-1.286,2.686-1.875,4.293-1.516c1.617,0.361,2.877,1.613,3.249,3.228c1.71,7.431,2.276,14.585,2.276,20.856
	c-0.004,11.442-1.879,19.96-2.345,21.91c0,0-2.223,8.721,3.767-0.394c0.834-1.268,1.433-2.82,2.048-4.199
	c1.231-2.76,2.088-5.09,2.093-5.105c0.061-0.168,0.146-0.361,0.23-0.519c0.951-1.808,1.504-3.73,1.797-5.234s0.332-2.58,0.334-2.676
	l0.002-0.006v-0.076c0.074-2.158,0.111-4.259,0.111-6.305c-0.002-17.651-2.65-31.153-6.394-41.447
	c-3.747-10.295-8.582-17.4-13.078-22.29c-2.999-3.259-5.853-5.53-8.146-7.068c-3.058-2.051-5.121-2.798-5.159-2.811l0.001-0.001
	c-0.289-0.102-0.617-0.258-0.872-0.419c-11.146-7.01-21.535-11.657-31.115-14.557c-9.58-2.897-18.354-4.052-26.301-4.053
	c-8.155,0-15.444,1.218-21.826,3.057c-6.38,1.841-11.85,4.305-16.329,6.799c-8.958,4.982-13.94,10.092-14.202,10.369l-0.011,0.011
	H91.88c-0.544,0.575-1.249,0.996-2.014,1.2c-3.79,1.012-7.087,2.491-10.003,4.349c-2.914,1.859-5.451,4.102-7.681,6.672
	c-4.455,5.133-7.67,11.615-9.894,18.696c-1.484,4.716-2.527,9.686-3.228,14.643c-0.936,6.61-1.266,13.197-1.265,19.135
	c-0.001,7.105,0.47,13.28,0.909,17.485C58.939,133.995,59.903,136.108,61.44,137.769"/>
<path fill="#FFFFFF" d="M159.086,141.988c-0.001,0.78,0.094,1.673,0.254,2.56c0.159,0.887,0.381,1.769,0.609,2.543
	c0.395,1.345,0.81,2.37,0.924,2.644c0.525,1.084,1.167,2.326,1.838,3.578c0.686,1.281,1.4,2.576,2.054,3.738
	c0.976,1.736,1.813,3.184,2.226,3.887c0.299,0.268,0.672,0.525,1.131,0.764c0.604,0.312,1.347,0.582,2.156,0.787
	c1.619,0.412,3.484,0.547,4.922,0.543c1.389,0,2.373-0.112,2.428-0.119l0.227-0.028l0.23-0.004
	c12.752-0.237,19.476-2.946,19.619-3.004l0.136-0.058l0.155-0.051c0.703-0.236,1.271-0.523,1.752-0.832
	c0.48-0.311,0.873-0.646,1.203-0.99c0.662-0.682,1.076-1.416,1.306-1.932c0.144-0.322,0.21-0.546,0.223-0.595l0.024-0.108
	l0.051-0.168c0.102-0.328,0.212-0.812,0.305-1.379c0.094-0.57,0.17-1.225,0.229-1.92c0.118-1.391,0.161-2.938,0.161-4.359
	c0.001-2.759-0.159-5.057-0.165-5.138v-0.001l-0.013-0.155v-0.156c0-1.938-0.252-3.302-0.555-4.233
	c-0.306-0.933-0.646-1.442-0.915-1.759c-0.181-0.21-0.336-0.337-0.46-0.423c-0.117-0.081-0.207-0.123-0.255-0.142
	c-6.239-1.085-11.828-1.484-16.676-1.484c-13.322-0.001-21.067,3.009-21.179,3.053l-0.282,0.114l-0.312,0.074
	c-1.217,0.292-1.91,0.672-2.33,0.984c-0.42,0.318-0.602,0.578-0.742,0.836c-0.09,0.171-0.15,0.345-0.191,0.514
	c-0.055,0.224-0.068,0.438-0.068,0.556l0.002,0.06l0.069,0.435l-0.053,0.548C159.099,141.418,159.086,141.695,159.086,141.988
	 M169.823,140.688c0.201-0.038,3.953-0.759,9.646-0.76c3.352,0,7.379,0.25,11.753,1.057c2.332,0.431,3.874,2.67,3.444,5.002
	c-0.432,2.332-2.672,3.875-5.004,3.445c-3.756-0.695-7.271-0.916-10.193-0.916c-4.74,0-7.906,0.582-8.006,0.602
	c-0.001,0-0.003,0.002-0.004,0.002h-0.006l0,0c-2.324,0.447-4.574-1.071-5.026-3.396
	C165.974,143.396,167.495,141.141,169.823,140.688"/>
<path fill="#FFFFFF" d="M208.446,130.846c0.814,1.036,1.539,2.32,2.081,3.836c0.151,0.422,0.284,0.865,0.407,1.322
	c0.41-0.087,0.943-0.25,1.627-0.557c1.289-0.583,3.093-1.697,5.367-3.761c0.166-0.151,0.342-0.281,0.524-0.401
	c0.144-2.074,0.233-4.323,0.233-6.708c0-3.863-0.245-8.076-0.865-12.44c-0.493,0.194-1.014,0.37-1.574,0.504
	c-0.746,0.176-1.552,0.285-2.402,0.285c-1.207,0.003-2.502-0.228-3.746-0.737c-1.246-0.506-2.429-1.277-3.494-2.265
	c-0.711-0.659-1.377-1.413-2.004-2.263c-1.143-1.552-1.107-3.688,0.084-5.202l-0.002-0.001l0.014-0.016
	c0.015-0.02,0.044-0.057,0.084-0.112c0.082-0.11,0.212-0.289,0.378-0.531c0.334-0.485,0.815-1.225,1.354-2.173
	c1.08-1.896,2.381-4.63,3.229-7.817c0.567-2.125,0.935-4.449,0.935-6.881c0-1.003-0.062-2.024-0.199-3.061
	c-0.146,0.075-0.293,0.151-0.445,0.225c-1.079,0.525-2.251,1.01-3.568,1.328c-0.755,0.179-1.562,0.304-2.447,0.305
	c-0.666,0-1.381-0.073-2.123-0.276c-0.74-0.202-1.508-0.542-2.205-1.037c-0.465-0.329-0.895-0.722-1.268-1.159
	c-0.496-0.583-0.89-1.235-1.182-1.91c-0.391-0.901-0.613-1.834-0.729-2.793c-0.377-3.109-1.231-5.875-2.438-8.393
	c-1.207-2.516-2.772-4.782-4.58-6.827c-3.61-4.09-8.212-7.271-12.541-9.586c-2.883-1.544-5.636-2.707-7.856-3.53
	c-2.959-1.098-4.971-1.594-5.092-1.623l-0.166-0.043l-0.014-0.003l-0.075-0.021c-0.071-0.019-0.181-0.048-0.33-0.087
	c-0.297-0.077-0.745-0.189-1.323-0.326c-1.16-0.274-2.844-0.642-4.893-1.012c-4.098-0.739-9.664-1.474-15.372-1.472
	c-3.234,0-6.511,0.235-9.575,0.81c-3.065,0.572-5.906,1.482-8.312,2.771v0.001c-0.913,0.487-1.475,0.932-1.772,1.236
	c-0.301,0.311-0.344,0.453-0.358,0.486l-0.008,0.053c-0.001,0.045,0.011,0.206,0.137,0.505c0.124,0.295,0.361,0.707,0.706,1.159
	c0.684,0.909,1.782,1.947,2.875,2.808c0.729,0.578,1.454,1.088,2.053,1.484c0.798,0.529,1.371,0.855,1.44,0.893v0.001
	c1.426,0.79,2.287,2.335,2.208,3.964c-0.079,1.628-1.085,3.082-2.581,3.732c-6.15,2.67-12.079,3.572-17.207,3.57
	c-5.212-0.001-9.608-0.917-12.741-1.84c-0.025-0.007-0.049-0.015-0.075-0.022c-0.005,0.152-0.008,0.306-0.008,0.465
	c0.001,1.496,0.227,3.251,0.937,5.184c0.715,1.934,1.912,4.064,3.976,6.327c1.072,1.173,1.409,2.846,0.874,4.342
	c-0.535,1.497-1.855,2.578-3.428,2.806c-0.14,0.019-2.812,0.404-6.542,0.406c-2.161-0.001-4.678-0.129-7.296-0.562
	c-1.466-0.245-2.965-0.588-4.455-1.07c0.458,2.11,1.166,4.477,2.258,6.884c0.919,2.025,2.104,4.076,3.634,6.046
	c1,1.287,1.187,3.018,0.483,4.488c-0.082,0.17-0.43,0.874-1.109,1.841c-0.68,0.966-1.693,2.201-3.138,3.39
	c-0.963,0.792-2.122,1.561-3.49,2.183c-1.819,0.83-4.018,1.38-6.466,1.377c-0.341,0-0.687-0.014-1.036-0.035
	c-0.435,2.182-0.871,5.438-0.871,9.754c0,3.533,0.293,7.776,1.123,12.717c3.37,1.707,6.112,2.692,8.01,3.25
	c0.512-1.54,1.204-2.851,1.999-3.921c0.599-0.808,1.252-1.477,1.902-2.012c0.867-0.716,1.724-1.193,2.447-1.504
	c0.829-0.357,1.481-0.502,1.844-0.564c0.006-0.001,0.011-0.002,0.016-0.003c0.008-0.001,0.016-0.002,0.024-0.004
	c6.767-1.179,12.872-1.619,18.204-1.619c13.816,0.001,22.426,2.941,24.084,3.559c2.033,0.521,3.765,1.331,5.16,2.374
	c1.47,1.092,2.533,2.432,3.209,3.733c0.362,0.692,0.618,1.369,0.802,2.004c1.238-0.206,2.684-0.355,4.292-0.356
	c0.099,0,0.203,0.006,0.302,0.007c0.1-0.001,0.204-0.007,0.302-0.007c1.607,0.001,3.055,0.15,4.291,0.356
	c0.336-1.164,0.934-2.486,1.936-3.737c0.682-0.853,1.547-1.663,2.58-2.356c1.303-0.876,2.864-1.56,4.664-2.021
	c1.676-0.624,10.28-3.555,24.076-3.556c5.34,0,11.455,0.44,18.233,1.624c0.002,0.001,0.004,0.001,0.007,0.001
	c0.001,0.001,0.003,0.001,0.004,0.001c0.417,0.071,1.215,0.252,2.216,0.733C205.815,128.312,207.225,129.285,208.446,130.846"/>
<path fill="#FFFFFF" d="M133.616,140.124c0.001-0.132-0.018-0.385-0.091-0.64c-0.074-0.259-0.185-0.511-0.398-0.779
	c-0.145-0.179-0.34-0.375-0.663-0.593c-0.429-0.287-1.099-0.619-2.18-0.877l-0.312-0.075l-0.286-0.114l-0.031-0.012
	c-0.039-0.015-0.109-0.042-0.211-0.078c-0.202-0.071-0.529-0.185-0.975-0.324c-0.892-0.279-2.262-0.665-4.072-1.056
	c-3.623-0.781-9.009-1.582-15.885-1.582c-4.848,0-10.437,0.399-16.676,1.484c-0.058,0.023-0.184,0.082-0.352,0.213
	c-0.127,0.1-0.279,0.24-0.451,0.459c-0.228,0.293-0.498,0.727-0.751,1.43c-0.335,0.934-0.632,2.356-0.632,4.455v0.156l-0.011,0.155
	v0.001l-0.001,0.015l-0.005,0.069c-0.004,0.063-0.01,0.162-0.018,0.29c-0.015,0.256-0.036,0.633-0.057,1.102
	c-0.042,0.938-0.084,2.241-0.084,3.663c0,1.068,0.024,2.203,0.086,3.291s0.164,2.133,0.305,2.988
	c0.092,0.567,0.203,1.051,0.304,1.379l0.051,0.168l0.024,0.11l0.01,0.032c0.021,0.07,0.067,0.212,0.145,0.4
	c0.154,0.377,0.433,0.936,0.867,1.504c0.289,0.379,0.646,0.764,1.09,1.127c0.595,0.484,1.34,0.935,2.372,1.283l0.154,0.051
	l0.139,0.059l0.014,0.006c0.029,0.012,0.086,0.033,0.171,0.064c0.17,0.064,0.45,0.164,0.84,0.291c0.781,0.254,2,0.611,3.647,0.982
	c3.294,0.74,8.3,1.536,14.944,1.659l0.232,0.005l0.228,0.027l0.005,0.002c0.019,0.002,0.055,0.006,0.106,0.012
	c0.103,0.01,0.268,0.025,0.485,0.04c0.434,0.032,1.073,0.065,1.83,0.065c1.078,0,2.395-0.069,3.672-0.285
	c1.277-0.209,2.502-0.573,3.405-1.045c0.459-0.238,0.833-0.495,1.131-0.764c0.039-0.066,0.077-0.131,0.124-0.211
	c0.253-0.435,0.614-1.058,1.042-1.807c0.856-1.496,1.983-3.497,3.048-5.484c0.693-1.293,1.36-2.58,1.903-3.699
	c0.025-0.061,0.064-0.155,0.114-0.283c0.103-0.258,0.252-0.648,0.419-1.135c0.333-0.967,0.734-2.312,0.985-3.685
	c0.169-0.915,0.271-1.84,0.269-2.646c0.001-0.292-0.012-0.569-0.037-0.822l-0.053-0.547l0.07-0.435L133.616,140.124z
	 M126.13,145.737c-0.461,2.326-2.721,3.84-5.047,3.379h-0.001l-0.077-0.014c-0.077-0.015-0.204-0.037-0.376-0.064
	c-0.346-0.053-0.877-0.131-1.569-0.207c-1.382-0.154-3.406-0.314-5.863-0.314c-2.893,0-6.387,0.221-10.146,0.916
	c-2.332,0.43-4.572-1.113-5.003-3.445c-0.43-2.333,1.112-4.573,3.444-5.002c4.372-0.807,8.379-1.057,11.705-1.057
	c5.652,0.001,9.349,0.723,9.555,0.763C125.079,141.151,126.591,143.41,126.13,145.737"/>
<path fill="#FFFFFF" d="M238.75,147.182c-0.175-0.305-0.386-0.583-0.599-0.824c-0.293,0.639-0.604,1.295-0.931,1.953
	c-0.709,1.43-1.483,2.87-2.33,4.208c-0.428,0.677-0.88,1.321-1.362,1.94c-0.125,0.185-0.512,0.756-1.062,1.533
	c-0.661,0.93-1.548,2.144-2.507,3.332c-0.644,0.793-1.31,1.574-2.021,2.293c-0.41,0.41-0.828,0.803-1.328,1.187
	c-0.268,0.204-0.559,0.409-0.916,0.612c-0.383,0.213-0.836,0.437-1.489,0.6c-0.337,0.081-0.729,0.143-1.188,0.145
	c-0.488,0-1.061-0.082-1.635-0.291c-0.22-0.059-0.443-0.127-0.667-0.221c-0.678-0.281-1.321-0.73-1.834-1.262
	c-0.344-0.354-0.638-0.742-0.89-1.148c-0.334-0.545-0.598-1.125-0.818-1.752c-0.292-0.838-0.51-1.765-0.674-2.854
	c-0.217-1.45-0.337-3.189-0.338-5.372c0.001-1.644,0.07-3.538,0.227-5.739c0.018-0.252,0.062-0.527,0.127-0.771h-0.001l0.002-0.008
	l0.015-0.054c0.013-0.053,0.033-0.14,0.062-0.256c0.056-0.235,0.138-0.596,0.239-1.073c0.031-0.15,0.064-0.315,0.1-0.487
	c-0.279,0.142-0.556,0.275-0.828,0.399c-1.563,0.71-3.014,1.111-4.313,1.295c0.028,0.853,0.049,1.847,0.049,2.919
	c0,1.192-0.026,2.48-0.101,3.78c-0.074,1.302-0.195,2.612-0.402,3.884c-0.129,0.784-0.292,1.555-0.516,2.318
	c-0.071,0.293-0.232,0.873-0.549,1.646c-0.387,0.938-1.002,2.16-1.983,3.449c-0.654,0.857-1.474,1.745-2.486,2.572
	c-1.303,1.066-2.935,2.025-4.874,2.701c-1.016,0.412-8.727,3.343-22.469,3.623c-0.494,0.054-1.676,0.158-3.26,0.16
	c-1.432-0.002-3.189-0.086-5.086-0.401c-1.896-0.321-3.941-0.862-5.939-1.892c-1.327-0.688-2.639-1.606-3.773-2.842l-0.306-0.332
	l-0.229-0.389c-0.016-0.027-2.416-4.094-4.656-8.27c-0.747-1.396-1.477-2.803-2.105-4.102l-0.035-0.072l-0.03-0.07
	c-0.037-0.084-0.386-0.883-0.818-2.141c-0.432-1.259-0.95-2.971-1.31-4.924c-0.01-0.052-0.018-0.105-0.026-0.158
	c-0.483-0.148-0.961-0.277-1.429-0.375c-1.084-0.226-2.122-0.322-3.093-0.339c-0.97,0.017-2.008,0.113-3.092,0.339
	c-0.468,0.098-0.946,0.227-1.429,0.375c-0.009,0.053-0.016,0.106-0.026,0.158c-0.24,1.303-0.551,2.496-0.859,3.521
	c-0.616,2.049-1.22,3.431-1.269,3.543l-0.031,0.072l-0.034,0.07c-0.629,1.299-1.359,2.706-2.106,4.102
	c-0.748,1.393-1.511,2.771-2.199,3.992c-1.376,2.443-2.448,4.26-2.458,4.277l-0.229,0.389l-0.306,0.332
	c-1.135,1.235-2.446,2.154-3.773,2.842c-1.331,0.688-2.686,1.154-4.001,1.486c-2.629,0.661-5.115,0.803-7.025,0.807
	c-1.584-0.002-2.765-0.106-3.259-0.16c-14.165-0.289-21.923-3.395-22.543-3.653c-1.405-0.498-2.654-1.14-3.723-1.866
	c-1.142-0.777-2.086-1.646-2.853-2.513c-1.535-1.737-2.365-3.453-2.814-4.616c-0.239-0.625-0.368-1.095-0.43-1.348
	c-0.222-0.764-0.385-1.531-0.514-2.314c-0.138-0.849-0.238-1.713-0.311-2.58c-0.147-1.736-0.192-3.494-0.192-5.084
	c0-1.494,0.041-2.837,0.084-3.853c-1.332-0.343-3.06-0.867-5.115-1.658c0.279,1.873,0.552,3.931,0.765,6.028
	c0.241,2.382,0.408,4.803,0.408,7.082c0,0.9-0.026,1.779-0.088,2.636c-0.039,0.54-0.172,1.045-0.405,1.534
	c-0.047,0.1-0.168,0.345-0.373,0.688c-0.206,0.342-0.495,0.779-0.91,1.27c-0.279,0.328-0.614,0.68-1.041,1.033
	c-0.568,0.467-1.311,0.953-2.299,1.267c-0.561,0.179-1.199,0.29-1.867,0.289c-0.608,0.001-1.235-0.093-1.827-0.274
	c-0.592-0.18-1.147-0.443-1.649-0.758c-1.007-0.634-1.805-1.447-2.516-2.387c-0.474-0.629-0.911-1.323-1.334-2.102
	c-0.563-1.039-1.101-2.227-1.635-3.615l-0.073-0.205l-0.001-0.002l0,0v-0.002L61,154.433c-0.009-0.026-0.024-0.071-0.046-0.134
	c-0.042-0.125-0.109-0.314-0.199-0.561c-0.18-0.49-0.453-1.199-0.807-2.033c-0.705-1.668-1.749-3.836-2.966-5.697
	c-0.149-0.229-0.301-0.45-0.455-0.668c-0.063,0.043-0.127,0.086-0.194,0.125l0.002,0.003h-0.001l-0.028,0.019
	c-0.052,0.034-0.156,0.108-0.289,0.215c-0.266,0.214-0.641,0.568-0.963,1.003c-0.215,0.289-0.409,0.615-0.558,0.969
	c-0.197,0.477-0.328,0.996-0.33,1.679c0.001,0.505,0.075,1.106,0.302,1.856c0.218,0.715,0.587,1.568,1.172,2.556
	c0.667,0.909,3.094,4.331,6.071,9.923c3.432,6.445,7.594,15.771,10.595,27.439c0.062,0.242,0.09,0.4,0.114,0.648h0.001l0.001,0.014
	c0.002,0.016,0.005,0.045,0.01,0.088c0.009,0.084,0.026,0.219,0.05,0.396c0.049,0.357,0.13,0.885,0.251,1.52
	c0.24,1.268,0.65,2.969,1.252,4.55c0.398,1.054,0.884,2.051,1.399,2.821c0.293,0.443,0.593,0.81,0.877,1.09
	c0.325,0.32,0.62,0.525,0.885,0.654c0.307,0.144,0.573,0.217,0.998,0.221h0.001c-0.323-2.312-0.595-4.625-0.824-6.885
	c-1.231-12.176-1.229-22.797-1.23-22.883c0-2.373,1.923-4.295,4.295-4.295s4.294,1.922,4.294,4.295v0.006l0.001,0.031
	c0,0.025,0,0.068,0,0.125c0,0.113,0.002,0.285,0.004,0.51c0.004,0.451,0.013,1.115,0.03,1.961c0.034,1.693,0.103,4.109,0.242,6.984
	c0.276,5.747,0.833,13.331,1.926,20.553c0.725,4.812,1.697,9.467,2.922,13.227c0.696,2.146,1.477,3.996,2.272,5.383
	c0.421,0.736,0.842,1.34,1.231,1.794c0.05,0.058,0.179,0.204,0.38,0.435c0.261,0.297,0.638,0.729,1.106,1.264
	c0.935,1.066,2.229,2.543,3.665,4.177c2.87,3.265,6.311,7.165,8.556,9.659c0.64,0.711,1.183,1.309,1.573,1.729l0.099,0.11
	l0.005,0.005l0.026,0.031c0.025,0.027,0.064,0.072,0.117,0.132c0.105,0.119,0.265,0.3,0.472,0.528
	c0.415,0.459,1.022,1.119,1.773,1.904c1.501,1.569,3.58,3.641,5.821,5.588c1.491,1.297,3.056,2.539,4.529,3.529
	c0.206,0.139,0.388,0.287,0.567,0.459h0.001l0.003,0.002l0.001,0.002l0.021,0.018c0.028,0.027,0.079,0.074,0.153,0.141
	c0.146,0.131,0.382,0.336,0.701,0.598c0.638,0.523,1.611,1.273,2.875,2.113c2.527,1.68,6.215,3.705,10.707,5.036
	c2.997,0.89,6.348,1.476,9.991,1.476c3.646-0.002,7.588-0.582,11.823-2.07c4.235-1.49,8.77-3.895,13.557-7.605
	c1.232-0.955,2.666-2.181,4.103-3.475c1.439-1.295,2.888-2.66,4.187-3.915c2.58-2.489,4.57-4.542,4.812-4.792
	c0.696-0.751,1.825-1.996,3.146-3.469c1.34-1.491,2.883-3.221,4.41-4.934c3.052-3.43,6.037-6.802,7.211-8.129
	c0.252-0.283,0.418-0.473,0.488-0.551c0.385-0.452,0.805-1.051,1.221-1.781c0.422-0.734,0.843-1.602,1.246-2.574
	c0.81-1.945,1.549-4.311,2.188-6.908c1.284-5.203,2.177-11.332,2.769-17.15c1.188-11.646,1.201-22.074,1.199-22.154
	c0-2.373,1.924-4.295,4.295-4.295s4.295,1.922,4.295,4.295c0,0.051,0,4.094-0.287,10.03c-0.266,5.503-0.773,12.624-1.768,19.737
	h0.001c0.397-0.004,0.655-0.069,0.938-0.193c0.281-0.126,0.591-0.334,0.938-0.676c0.23-0.227,0.472-0.512,0.712-0.846
	c0.321-0.447,0.637-0.986,0.928-1.58c0.389-0.791,0.732-1.678,1.018-2.564c0.382-1.182,0.659-2.359,0.848-3.316
	c0.25-1.277,0.342-2.164,0.342-2.178c0.024-0.248,0.053-0.406,0.115-0.648c3-11.668,7.162-20.994,10.594-27.439
	c2.978-5.591,5.404-9.014,6.072-9.923c0.584-0.987,0.953-1.843,1.172-2.558c0.228-0.748,0.301-1.35,0.303-1.854
	c-0.002-0.466-0.064-0.853-0.164-1.206C239.059,147.795,238.918,147.478,238.75,147.182 M119.109,178.683
	c0.141-0.601,0.286-0.995,0.339-1.136c0.847-2.217,3.329-3.326,5.545-2.48c2.187,0.836,3.293,3.266,2.507,5.459l0.003,0.002
	l-0.001,0.002c-0.003,0.01-0.016,0.053-0.03,0.113c-0.024,0.098-0.046,0.24-0.053,0.357c0.025,0.01,0.046,0.019,0.077,0.029
	c0.3,0.098,0.909,0.221,1.884,0.221c0.106,0,0.226-0.002,0.354-0.006c0.093-0.004,0.208-0.006,0.347-0.006
	c0.553,0,1.468,0.045,2.621,0.297c1.151,0.252,2.546,0.713,3.996,1.56c0.965,0.563,1.951,1.297,2.882,2.228l0.023,0.024l0.002,0.002
	l0.009,0.009c0.021,0.02,0.069,0.064,0.141,0.129c0.145,0.129,0.389,0.332,0.713,0.562c0.647,0.465,1.61,1.027,2.719,1.377
	c0.742,0.234,1.544,0.383,2.413,0.384c0.87-0.002,1.813-0.144,2.899-0.548c1.067-0.4,2.282-1.064,3.646-2.172
	c0.856-0.818,1.752-1.482,2.633-1.995c0.965-0.563,1.908-0.957,2.77-1.231c1.725-0.545,3.109-0.625,3.848-0.625
	c0.141,0,0.258,0.002,0.354,0.006c0.117,0.004,0.232,0.006,0.346,0.006c0.803,0,1.36-0.082,1.697-0.168
	c0.115-0.029,0.195-0.057,0.263-0.082c-0.005-0.084-0.015-0.178-0.03-0.262c-0.022-0.115-0.049-0.203-0.052-0.211l0.003-0.002
	c-0.787-2.193,0.319-4.621,2.506-5.457c2.217-0.848,4.698,0.262,5.545,2.477c0.054,0.143,0.199,0.537,0.34,1.137
	c0.14,0.602,0.281,1.408,0.283,2.402c0,0.711-0.076,1.523-0.316,2.4c-0.239,0.875-0.659,1.822-1.318,2.696
	c-0.437,0.582-0.977,1.126-1.594,1.591c-0.823,0.622-1.775,1.1-2.799,1.43c-1.368,0.44-2.861,0.637-4.527,0.637
	c-0.197,0.002-0.4-0.002-0.609-0.008l-0.09-0.004c-0.054,0-0.365,0.008-0.787,0.101c-0.424,0.093-0.953,0.267-1.502,0.587
	c-0.367,0.215-0.748,0.494-1.137,0.883c-0.127,0.127-0.175,0.17-0.314,0.283c-2.032,1.67-4.102,2.863-6.146,3.627
	c-2.043,0.766-4.054,1.094-5.908,1.092c-1.856,0-3.547-0.32-5.015-0.787c-1.469-0.467-2.719-1.078-3.743-1.683
	c-1.923-1.142-3.049-2.244-3.336-2.532c-0.389-0.389-0.769-0.668-1.137-0.883c-0.367-0.215-0.722-0.361-1.046-0.465
	c-0.643-0.207-1.167-0.223-1.241-0.223h-0.005l-0.097,0.006c-0.195,0.004-0.394,0.006-0.6,0.006c-1.406,0-2.686-0.141-3.876-0.448
	c-1.187-0.306-2.289-0.791-3.241-1.466c-0.633-0.447-1.193-0.977-1.653-1.551c-0.614-0.764-1.043-1.6-1.315-2.396
	c-0.365-1.065-0.468-2.052-0.469-2.894C118.829,180.092,118.97,179.284,119.109,178.683 M115.523,201.36L115.523,201.36
	l-0.003,0.004l-0.032,0.041c-0.039,0.049-0.106,0.137-0.195,0.26c-0.178,0.246-0.442,0.631-0.738,1.123
	c-0.595,0.982-1.309,2.395-1.754,3.939c-0.3,1.031-0.483,2.113-0.482,3.184c0.001,0.91,0.127,1.811,0.428,2.728
	c0.303,0.917,0.78,1.86,1.558,2.862c1.456,1.873,1.118,4.572-0.754,6.027c-1.872,1.457-4.57,1.119-6.026-0.754
	c-1.362-1.748-2.33-3.602-2.937-5.451c-0.61-1.852-0.859-3.689-0.859-5.412c0.001-2.035,0.34-3.914,0.823-5.578
	c0.484-1.666,1.113-3.123,1.735-4.34c1.246-2.432,2.461-3.916,2.598-4.084c1.509-1.83,4.216-2.088,6.045-0.58
	c1.825,1.506,2.087,4.201,0.592,6.029L115.523,201.36z M172.395,212.875c-4.617,2.193-9.189,3.66-13.589,4.576
	c-4.401,0.916-8.627,1.279-12.566,1.279c-7.879-0.002-14.606-1.451-19.402-2.904c-4.796-1.455-7.669-2.918-7.849-3.008
	c-2.11-1.084-2.942-3.674-1.859-5.783c1.082-2.107,3.665-2.939,5.773-1.863l0.009,0.005l0.053,0.026
	c0.058,0.027,0.154,0.074,0.287,0.137c0.268,0.125,0.684,0.312,1.237,0.543c1.105,0.461,2.755,1.091,4.841,1.725
	c4.175,1.266,10.094,2.536,16.91,2.534c3.411,0,7.045-0.315,10.816-1.101c3.772-0.785,7.681-2.037,11.653-3.924
	c2.143-1.018,4.704-0.105,5.722,2.037C175.45,209.297,174.538,211.86,172.395,212.875 M186.916,215.323
	c-0.606,1.85-1.576,3.703-2.937,5.451c-1.457,1.873-4.154,2.211-6.027,0.754c-1.872-1.455-2.211-4.154-0.754-6.027
	c0.779-1.002,1.256-1.945,1.559-2.862c0.301-0.917,0.428-1.817,0.428-2.728c0-1.004-0.16-2.02-0.428-2.992s-0.641-1.899-1.033-2.705
	c-0.783-1.615-1.646-2.735-1.736-2.846l-0.008-0.01l0,0c-1.492-1.83-1.23-4.525,0.594-6.029c1.83-1.51,4.535-1.25,6.045,0.58
	c0.104,0.125,0.812,0.994,1.686,2.443c0.873,1.451,1.92,3.482,2.648,5.98c0.482,1.664,0.82,3.543,0.822,5.578
	C187.774,211.633,187.526,213.472,186.916,215.323"/>
<path fill="#2167B2" d="M121.218,186.374c0.459,0.574,1.019,1.104,1.653,1.551c0.951,0.675,2.053,1.16,3.24,1.466
	c1.19,0.308,2.471,0.448,3.877,0.448c0.205,0,0.405-0.002,0.6-0.006l0.096-0.006h0.005c0.075,0,0.599,0.016,1.242,0.223
	c0.324,0.104,0.679,0.25,1.046,0.465s0.748,0.494,1.136,0.883h0.001c0.286,0.288,1.413,1.391,3.336,2.532
	c1.024,0.604,2.274,1.216,3.743,1.683c1.467,0.467,3.159,0.787,5.015,0.787c1.854,0.002,3.865-0.326,5.908-1.092
	c2.045-0.764,4.113-1.957,6.147-3.627c0.138-0.113,0.187-0.156,0.313-0.283c0.389-0.389,0.769-0.668,1.137-0.883
	c0.549-0.32,1.078-0.494,1.502-0.587c0.422-0.093,0.734-0.101,0.785-0.101h0.002l0.089,0.004c0.209,0.006,0.413,0.01,0.61,0.008
	c1.666,0,3.158-0.196,4.527-0.637c1.023-0.33,1.975-0.808,2.799-1.43c0.617-0.465,1.156-1.009,1.594-1.591
	c0.658-0.874,1.078-1.821,1.318-2.696c0.241-0.877,0.314-1.689,0.316-2.4c-0.002-0.994-0.145-1.801-0.283-2.402
	c-0.143-0.6-0.286-0.994-0.339-1.137c-0.847-2.215-3.33-3.324-5.546-2.477c-2.187,0.836-3.293,3.264-2.506,5.457l-0.004,0.002
	c0.004,0.008,0.03,0.096,0.051,0.211c0.018,0.084,0.027,0.178,0.033,0.262c-0.068,0.025-0.149,0.053-0.264,0.082
	c-0.337,0.086-0.895,0.168-1.697,0.168c-0.113,0-0.229-0.002-0.347-0.006c-0.095-0.004-0.212-0.006-0.354-0.006
	c-0.735,0-2.121,0.08-3.846,0.625c-0.861,0.274-1.805,0.668-2.771,1.231c-0.88,0.513-1.776,1.177-2.634,1.995
	c-1.362,1.107-2.576,1.771-3.644,2.172c-1.086,0.404-2.028,0.546-2.899,0.548c-0.869-0.001-1.672-0.149-2.413-0.384
	c-1.11-0.35-2.073-0.912-2.72-1.377c-0.323-0.23-0.567-0.434-0.712-0.562c-0.072-0.064-0.12-0.109-0.141-0.129l-0.009-0.009
	l-0.003-0.002l-0.023-0.024c-0.93-0.931-1.917-1.664-2.882-2.228c-1.45-0.847-2.844-1.308-3.995-1.56
	c-1.153-0.252-2.069-0.297-2.621-0.297c-0.14,0-0.254,0.002-0.347,0.006c-0.128,0.004-0.248,0.006-0.354,0.006
	c-0.975,0-1.585-0.123-1.885-0.221c-0.031-0.011-0.052-0.02-0.077-0.029c0.007-0.117,0.029-0.26,0.053-0.357
	c0.015-0.061,0.028-0.104,0.031-0.113l0.001-0.002l-0.003-0.002c0.785-2.193-0.321-4.623-2.508-5.459
	c-2.216-0.846-4.698,0.264-5.544,2.48c-0.054,0.141-0.198,0.535-0.339,1.136c-0.14,0.601-0.281,1.409-0.283,2.401
	c0.001,0.842,0.104,1.828,0.468,2.894C120.174,184.774,120.603,185.61,121.218,186.374"/>
<path fill="#2167B2" d="M115.538,195.329c-1.83-1.508-4.536-1.25-6.046,0.58c-0.136,0.17-1.352,1.652-2.598,4.084
	c-0.621,1.217-1.25,2.674-1.735,4.34c-0.482,1.664-0.821,3.543-0.822,5.578c-0.001,1.723,0.249,3.561,0.858,5.412
	c0.607,1.85,1.576,3.703,2.937,5.451c1.456,1.872,4.154,2.21,6.027,0.754c1.872-1.455,2.21-4.154,0.754-6.027
	c-0.779-1.002-1.255-1.945-1.559-2.863c-0.301-0.916-0.427-1.816-0.428-2.727c0-1.07,0.182-2.152,0.482-3.184
	c0.446-1.545,1.16-2.957,1.754-3.939c0.297-0.492,0.561-0.877,0.739-1.123c0.089-0.123,0.156-0.211,0.194-0.26l0.033-0.041
	l0.002-0.004l0.001-0.001h-0.001C117.625,199.53,117.362,196.834,115.538,195.329"/>
<path fill="#2167B2" d="M184.911,198.352c-0.875-1.449-1.582-2.318-1.685-2.443c-1.51-1.83-4.217-2.09-6.046-0.58
	c-1.824,1.505-2.087,4.199-0.594,6.029l0.007,0.01c0.091,0.111,0.954,1.23,1.737,2.845c0.393,0.806,0.767,1.733,1.033,2.705
	c0.268,0.974,0.428,1.987,0.428,2.993c-0.002,0.91-0.127,1.811-0.428,2.727c-0.304,0.918-0.781,1.859-1.559,2.864
	c-1.456,1.872-1.119,4.569,0.754,6.026c1.872,1.455,4.57,1.119,6.027-0.754c1.361-1.748,2.328-3.602,2.937-5.451
	c0.609-1.852,0.858-3.688,0.858-5.412c-0.002-2.035-0.34-3.914-0.823-5.578C186.831,201.834,185.784,199.803,184.911,198.352"/>
<path fill="#2167B2" d="M246.911,144.343c-0.451-1.071-1.008-1.988-1.579-2.758c-0.858-1.155-1.75-1.986-2.453-2.558
	c-0.545-0.44-0.979-0.725-1.221-0.874c0.905-2.188,1.415-4.237,1.714-5.876c0.371-2.054,0.412-3.475,0.417-3.765
	c0.075-2.233,0.112-4.413,0.112-6.54c0.002-16.76-2.282-30.258-5.778-41.084c-2.621-8.118-5.925-14.728-9.429-20.062
	c-5.256-8.003-10.955-13.121-15.402-16.235c-3.562-2.497-6.314-3.716-7.432-4.158c-11.592-7.251-22.563-12.17-32.821-15.273
	c-10.369-3.139-20.007-4.423-28.789-4.422c-9.238,0-17.523,1.418-24.733,3.548c-10.818,3.196-19.216,7.978-24.94,11.98
	c-4.049,2.833-6.758,5.273-8.058,6.521c-3.655,1.073-7.003,2.532-10.036,4.324c-5.859,3.457-10.524,8.122-14.166,13.42
	c-2.734,3.977-4.905,8.31-6.636,12.814c-2.593,6.76-4.199,13.91-5.171,20.908c-0.971,6.999-1.303,13.849-1.304,20.006
	c0.002,13.068,1.498,23.021,1.733,24.512c-0.034,0.025-0.066,0.049-0.1,0.075c-0.879,0.685-2.137,1.82-3.244,3.557
	c-0.551,0.868-1.059,1.89-1.427,3.06c-0.368,1.167-0.593,2.481-0.592,3.889c0,1.387,0.216,2.855,0.676,4.363
	c0.46,1.506,1.16,3.053,2.116,4.633c0.092,0.15,0.149,0.234,0.255,0.373l0.004,0.006c0.117,0.156,2.597,3.478,5.725,9.418
	c3.102,5.89,6.837,14.354,9.563,24.852c0.056,0.459,0.169,1.294,0.376,2.383c0.228,1.196,0.566,2.688,1.072,4.299
	c0.38,1.209,0.855,2.485,1.467,3.762c0.46,0.957,0.998,1.916,1.648,2.842c0.487,0.695,1.038,1.371,1.672,2.009
	c0.948,0.952,2.094,1.819,3.455,2.444c1.355,0.627,2.92,0.988,4.539,0.984c0.487,0,0.977-0.031,1.467-0.092
	c0.215,1.021,0.438,2.035,0.681,3.025c0.718,2.921,1.563,5.682,2.6,8.189c0.52,1.252,1.089,2.443,1.728,3.561
	c0.64,1.119,1.349,2.166,2.167,3.121l0.029,0.035c0.002,0.002,3.018,3.453,6.455,7.359c1.719,1.951,3.542,4.018,5.149,5.824
	c0.804,0.904,1.553,1.742,2.21,2.473c0.635,0.705,1.179,1.303,1.615,1.773c0.298,0.342,1.998,2.271,4.448,4.716
	c1.334,1.33,2.89,2.812,4.572,4.274c1.592,1.383,3.296,2.744,5.06,3.957c0.86,0.781,3.702,3.23,8.185,5.703
	c2.627,1.445,5.819,2.896,9.505,3.99c3.684,1.094,7.867,1.829,12.435,1.829c4.566,0.003,9.515-0.739,14.674-2.558
	c5.16-1.814,10.525-4.697,15.968-8.918c1.531-1.188,3.146-2.58,4.735-4.014c2.38-2.148,4.693-4.391,6.424-6.105
	s2.872-2.898,2.889-2.916l0.057-0.061c0.873-0.939,2.255-2.469,3.861-4.263c4.815-5.37,11.598-13.044,11.601-13.048l0.045-0.053
	c0.817-0.955,1.526-2.002,2.167-3.121c1.195-2.096,2.156-4.447,2.984-6.989c0.793-2.444,1.457-5.071,2.026-7.786
	c0.49,0.061,0.979,0.092,1.465,0.092c1.706,0.004,3.351-0.398,4.757-1.086c1.232-0.601,2.284-1.398,3.168-2.273
	c1.545-1.536,2.613-3.293,3.44-5.026c1.229-2.604,1.916-5.206,2.34-7.211c0.302-1.442,0.457-2.565,0.524-3.127
	c2.792-10.751,6.641-19.366,9.785-25.271c1.586-2.978,2.99-5.266,3.983-6.789c0.497-0.762,0.892-1.334,1.155-1.705
	c0.131-0.186,0.23-0.321,0.292-0.405c0.03-0.043,0.053-0.071,0.065-0.089l0.011-0.014l0.001-0.002
	c0.105-0.139,0.162-0.223,0.254-0.373c0.957-1.582,1.656-3.127,2.115-4.633c0.461-1.508,0.677-2.977,0.677-4.363
	C247.916,147.473,247.512,145.766,246.911,144.343 M59.061,95.125c0.701-4.958,1.744-9.927,3.228-14.644
	c2.224-7.081,5.439-13.562,9.894-18.695c2.23-2.571,4.767-4.814,7.681-6.672c2.916-1.857,6.213-3.337,10.003-4.349
	c0.765-0.204,1.47-0.625,2.014-1.201h0.001l0.01-0.011c0.263-0.277,5.245-5.386,14.203-10.369c4.479-2.493,9.949-4.958,16.329-6.798
	c6.382-1.84,13.671-3.057,21.826-3.058c7.946,0.001,16.722,1.156,26.301,4.054c9.58,2.898,19.97,7.545,31.114,14.556
	c0.256,0.16,0.584,0.317,0.872,0.419c0.039,0.014,2.103,0.76,5.159,2.812c2.293,1.539,5.146,3.81,8.146,7.067
	c4.496,4.891,9.331,11.995,13.078,22.29c3.743,10.295,6.392,23.796,6.394,41.447c0,2.046-0.037,4.147-0.11,6.305l-0.001,0.077
	h-0.001v0.006c-0.003,0.095-0.041,1.172-0.335,2.675c-0.293,1.505-0.846,3.428-1.797,5.235c-0.084,0.158-0.17,0.351-0.23,0.519
	c-0.005,0.015-0.861,2.345-2.093,5.105c-0.615,1.379-1.213,2.931-2.048,4.2c-5.989,9.114-3.766,0.391-3.766,0.391
	c0.465-1.948,2.34-10.465,2.344-21.907c0-6.272-0.566-13.425-2.276-20.857c-0.372-1.615-1.632-2.867-3.25-3.228
	c-1.606-0.359-3.269,0.23-4.293,1.517l-0.001-0.002l-0.025,0.032c-0.131,0.16-0.787,0.885-1.572,1.444
	c-0.39,0.281-0.805,0.519-1.162,0.66c-0.359,0.145-0.644,0.194-0.852,0.194c-0.045-0.001-0.088-0.004-0.131-0.008
	c0.525-0.9,1.1-1.956,1.676-3.16c0.959-2.006,1.922-4.413,2.651-7.147c0.729-2.733,1.226-5.798,1.226-9.095
	c0.002-3.599-0.599-7.48-2.115-11.418c-0.493-1.286-1.561-2.247-2.891-2.606c-1.328-0.356-2.73-0.062-3.804,0.798l-0.001-0.001
	l-0.053,0.042c-0.267,0.211-1.551,1.188-3.017,2.03c-0.728,0.422-1.501,0.806-2.146,1.048c-0.1,0.038-0.195,0.071-0.287,0.103
	c-0.471-3.436-1.405-6.614-2.688-9.506c-1.187-2.679-2.664-5.115-4.326-7.316c-2.91-3.853-6.373-6.99-9.897-9.545
	c-5.292-3.83-10.735-6.37-14.89-7.988c-3.823-1.486-6.553-2.183-7.079-2.312c-0.472-0.128-3.236-0.868-7.349-1.609
	c-4.451-0.8-10.465-1.605-16.895-1.607c-3.647,0-7.43,0.259-11.154,0.955c-3.723,0.698-7.398,1.831-10.786,3.642h0.001
	c-1.002,0.536-1.903,1.117-2.71,1.765c-1.207,0.968-2.215,2.104-2.916,3.418c-0.349,0.654-0.618,1.348-0.793,2.054
	c-0.176,0.705-0.258,1.42-0.258,2.112c0.001,1.303,0.286,2.507,0.701,3.567c0.365,0.93,0.83,1.762,1.341,2.522
	c0.732,1.085,1.56,2.027,2.41,2.876c-2.181,0.397-4.27,0.561-6.231,0.561c-4.196,0.002-7.798-0.747-10.312-1.489
	c-1.256-0.37-2.239-0.738-2.885-1.001c-0.323-0.132-0.561-0.238-0.707-0.305c-0.074-0.033-0.124-0.057-0.15-0.07l-0.021-0.01v0.001
	c-1.035-0.518-2.254-0.596-3.346-0.211c-1.098,0.386-2.004,1.215-2.485,2.274c-0.084,0.187-0.454,1.031-0.81,2.408
	c-0.355,1.376-0.697,3.289-0.697,5.595c-0.002,2.375,0.369,5.174,1.466,8.152c0.276,0.75,0.598,1.511,0.97,2.278
	c-1.928-0.091-4.001-0.329-5.879-0.804c-1.27-0.318-2.445-0.74-3.431-1.25c-0.947-0.489-1.713-1.05-2.299-1.67
	c-0.995-1.053-2.414-1.648-3.848-1.439c-2.061,0.301-3.559,1.986-3.685,3.984c-0.005,0.082-0.029,0.496-0.029,1.187
	c0.002,1.81,0.159,5.517,1.287,10.081c0.564,2.281,1.374,4.777,2.539,7.346c0.586,1.293,1.265,2.604,2.047,3.913
	c0.435,0.73,0.243,1.693-0.469,2.155c-0.005,0.003-0.009,0.006-0.014,0.009c-0.492,0.321-1.038,0.593-1.66,0.79
	c-0.623,0.195-1.323,0.32-2.168,0.321c-0.826-0.001-1.794-0.122-2.95-0.458c-2.103-0.614-4.343,0.465-5.175,2.491
	c-0.186,0.447-2.373,6.01-2.372,16.275c0,4.609,0.44,10.164,1.69,16.619l0.011,0.054l0.001,0.004
	c0.027,0.133,0.633,3.089,1.224,6.971l0.01,0.065c0.167,1.095-1.305,1.593-1.849,0.628c-0.257-0.456-0.527-0.916-0.811-1.376
	c-0.887-1.432-1.906-2.865-3.117-4.184l-0.071-0.076c-1.537-1.662-2.501-3.774-2.736-6.025c-0.439-4.206-0.911-10.38-0.909-17.485
	C57.794,108.32,58.125,101.734,59.061,95.125 M159.108,140.184l-0.002-0.059c0-0.118,0.014-0.332,0.068-0.556
	c0.041-0.169,0.102-0.343,0.192-0.515c0.14-0.257,0.321-0.517,0.739-0.835c0.422-0.313,1.115-0.692,2.332-0.984l0.312-0.075
	l0.283-0.113c0.11-0.044,7.856-3.054,21.178-3.053c4.847,0,10.437,0.398,16.676,1.484c0.048,0.019,0.138,0.061,0.255,0.142
	c0.125,0.086,0.279,0.213,0.461,0.423c0.268,0.316,0.608,0.826,0.914,1.759c0.303,0.931,0.555,2.294,0.555,4.233v0.156l0.012,0.154
	v0.002c0.007,0.08,0.166,2.379,0.166,5.138c0,1.423-0.043,2.969-0.161,4.359c-0.06,0.695-0.137,1.35-0.229,1.92
	c-0.092,0.567-0.203,1.051-0.305,1.379l-0.052,0.168l-0.022,0.109c-0.015,0.049-0.08,0.271-0.225,0.594
	c-0.229,0.516-0.643,1.25-1.304,1.932c-0.331,0.344-0.724,0.68-1.204,0.99c-0.48,0.309-1.049,0.594-1.752,0.832l-0.156,0.051
	l-0.135,0.059c-0.145,0.057-6.867,2.766-19.619,3.004l-0.23,0.004l-0.227,0.027c-0.055,0.008-1.039,0.119-2.43,0.119
	c-1.436,0.004-3.301-0.131-4.92-0.545c-0.811-0.202-1.553-0.473-2.156-0.786c-0.459-0.237-0.832-0.494-1.131-0.763
	c-0.411-0.703-1.25-2.15-2.225-3.887c-0.654-1.164-1.369-2.457-2.056-3.738c-0.67-1.252-1.312-2.494-1.837-3.578
	c-0.114-0.273-0.529-1.299-0.924-2.643c-0.229-0.777-0.45-1.657-0.609-2.544c-0.16-0.886-0.255-1.779-0.254-2.561
	c0-0.293,0.014-0.568,0.037-0.822l0.053-0.547L159.108,140.184z M202.454,127.03c-0.001,0-0.003-0.001-0.004-0.001
	c-0.002,0-0.004-0.001-0.008-0.001c-6.777-1.184-12.893-1.624-18.231-1.624c-13.797,0.001-22.401,2.933-24.078,3.557
	c-1.799,0.46-3.36,1.144-4.663,2.02c-1.033,0.694-1.898,1.504-2.58,2.357c-1.003,1.25-1.6,2.573-1.936,3.736
	c-1.237-0.206-2.684-0.354-4.291-0.355c-0.098,0-0.202,0.006-0.302,0.007c-0.099-0.001-0.203-0.007-0.301-0.007
	c-1.609,0.001-3.055,0.15-4.293,0.356c-0.183-0.636-0.439-1.313-0.802-2.005c-0.676-1.301-1.739-2.64-3.209-3.732
	c-1.394-1.043-3.127-1.854-5.16-2.374c-1.658-0.618-10.268-3.558-24.084-3.559c-5.332,0-11.437,0.439-18.204,1.619
	c-0.008,0.001-0.015,0.003-0.024,0.004c-0.005,0.001-0.01,0.002-0.015,0.003c-0.364,0.062-1.016,0.207-1.844,0.563
	c-0.724,0.312-1.581,0.789-2.448,1.504c-0.65,0.536-1.303,1.204-1.902,2.013c-0.795,1.069-1.486,2.38-1.999,3.92
	c-1.898-0.557-4.64-1.542-8.01-3.249c-0.829-4.941-1.123-9.184-1.123-12.718c0-4.315,0.436-7.571,0.871-9.753
	c0.349,0.021,0.696,0.034,1.036,0.034c2.449,0.004,4.647-0.546,6.467-1.376c1.367-0.622,2.526-1.391,3.489-2.183
	c1.446-1.19,2.458-2.424,3.138-3.39c0.68-0.967,1.028-1.671,1.109-1.841c0.704-1.47,0.518-3.202-0.483-4.489
	c-1.53-1.969-2.715-4.02-3.634-6.046c-1.092-2.407-1.8-4.773-2.257-6.883c1.489,0.482,2.989,0.824,4.454,1.069
	c2.618,0.434,5.135,0.562,7.296,0.562c3.73-0.001,6.402-0.387,6.542-0.406c1.573-0.228,2.893-1.308,3.428-2.805
	c0.535-1.496,0.198-3.169-0.874-4.342c-2.064-2.263-3.261-4.394-3.975-6.327c-0.711-1.934-0.937-3.688-0.938-5.185
	c0-0.158,0.004-0.312,0.008-0.465c0.026,0.008,0.05,0.016,0.075,0.023c3.133,0.922,7.529,1.838,12.741,1.84
	c5.128,0.002,11.058-0.9,17.208-3.571c1.495-0.648,2.501-2.104,2.58-3.731c0.079-1.628-0.782-3.173-2.207-3.964h-0.001
	c-0.068-0.038-0.642-0.365-1.44-0.893c-0.599-0.396-1.324-0.906-2.052-1.484c-1.094-0.862-2.192-1.899-2.876-2.809
	c-0.345-0.451-0.582-0.863-0.705-1.158c-0.127-0.3-0.139-0.46-0.138-0.505l0.008-0.053c0.014-0.033,0.057-0.175,0.358-0.486
	c0.297-0.305,0.859-0.75,1.772-1.237h0.001c2.405-1.289,5.247-2.2,8.312-2.772c3.063-0.574,6.34-0.81,9.575-0.809
	c5.708-0.002,11.273,0.731,15.371,1.471c2.049,0.369,3.732,0.738,4.892,1.012c0.579,0.136,1.027,0.249,1.324,0.326
	c0.149,0.038,0.26,0.068,0.33,0.087l0.076,0.021l0.013,0.004l0.166,0.043c0.121,0.029,2.134,0.525,5.092,1.623
	c2.221,0.823,4.973,1.985,7.856,3.53c4.329,2.314,8.932,5.496,12.541,9.585c1.808,2.046,3.374,4.312,4.581,6.828
	c1.205,2.519,2.061,5.284,2.437,8.394c0.116,0.959,0.339,1.892,0.729,2.793c0.291,0.673,0.685,1.327,1.183,1.91
	c0.372,0.436,0.802,0.83,1.267,1.159c0.697,0.495,1.465,0.835,2.205,1.037c0.741,0.202,1.457,0.276,2.123,0.276
	c0.887-0.001,1.693-0.127,2.447-0.306c1.316-0.317,2.489-0.802,3.569-1.327c0.151-0.074,0.298-0.15,0.446-0.226
	c0.135,1.038,0.197,2.059,0.197,3.062c0.001,2.432-0.367,4.755-0.935,6.881c-0.849,3.188-2.15,5.921-3.23,7.817
	c-0.538,0.949-1.02,1.688-1.353,2.173c-0.167,0.243-0.297,0.421-0.379,0.531c-0.041,0.055-0.069,0.093-0.084,0.113l-0.012,0.016
	c-1.191,1.514-1.227,3.651-0.082,5.203c0.625,0.849,1.291,1.604,2.002,2.263c1.065,0.987,2.248,1.759,3.494,2.265
	c1.243,0.509,2.538,0.739,3.746,0.737c0.85,0,1.657-0.109,2.402-0.286c0.561-0.133,1.081-0.309,1.574-0.504
	c0.619,4.364,0.865,8.577,0.865,12.441c0,2.384-0.091,4.633-0.233,6.707c-0.183,0.121-0.359,0.251-0.525,0.402
	c-2.272,2.064-4.075,3.177-5.366,3.76c-0.684,0.309-1.217,0.47-1.627,0.559c-0.123-0.457-0.257-0.901-0.408-1.322
	c-0.541-1.516-1.266-2.8-2.08-3.836c-1.221-1.562-2.631-2.535-3.775-3.083C203.668,127.283,202.871,127.101,202.454,127.03
	 M133.598,141.166c0.025,0.253,0.038,0.529,0.038,0.822c0.001,0.806-0.1,1.731-0.27,2.646c-0.251,1.373-0.652,2.718-0.985,3.685
	c-0.167,0.484-0.316,0.877-0.419,1.136c-0.05,0.127-0.089,0.222-0.114,0.282c-0.543,1.119-1.209,2.406-1.903,3.699
	c-1.065,1.988-2.192,3.988-3.048,5.484c-0.428,0.748-0.789,1.371-1.042,1.807c-0.046,0.078-0.085,0.145-0.124,0.211
	c-0.298,0.269-0.672,0.525-1.131,0.763c-0.902,0.474-2.128,0.837-3.405,1.047c-1.276,0.214-2.594,0.285-3.672,0.284
	c-0.756,0-1.396-0.033-1.83-0.064c-0.217-0.017-0.382-0.031-0.485-0.041c-0.051-0.006-0.087-0.01-0.106-0.013h-0.005l-0.228-0.028
	l-0.231-0.004c-6.644-0.123-11.651-0.92-14.945-1.66c-1.647-0.371-2.866-0.729-3.646-0.982c-0.391-0.127-0.671-0.227-0.841-0.29
	c-0.085-0.032-0.142-0.054-0.171-0.065l-0.013-0.006l-0.14-0.059l-0.154-0.051c-1.032-0.348-1.777-0.799-2.372-1.283
	c-0.444-0.362-0.801-0.748-1.09-1.129c-0.434-0.566-0.713-1.125-0.867-1.502c-0.078-0.188-0.124-0.33-0.145-0.4l-0.009-0.031
	l-0.025-0.111l-0.051-0.168c-0.101-0.328-0.212-0.812-0.304-1.379c-0.141-0.855-0.243-1.9-0.305-2.988s-0.086-2.223-0.086-3.291
	c0-1.422,0.042-2.725,0.084-3.663c0.021-0.469,0.042-0.846,0.057-1.103c0.008-0.127,0.014-0.225,0.018-0.289l0.005-0.069
	l0.001-0.015v-0.002l0.012-0.155v-0.155c0-2.099,0.296-3.522,0.631-4.456c0.253-0.702,0.523-1.137,0.751-1.429
	c0.172-0.219,0.324-0.359,0.451-0.459c0.168-0.132,0.294-0.189,0.353-0.213c6.238-1.086,11.828-1.484,16.675-1.484
	c6.876,0,12.262,0.8,15.885,1.582c1.811,0.391,3.18,0.777,4.072,1.056c0.446,0.139,0.773,0.252,0.975,0.324
	c0.102,0.036,0.172,0.063,0.211,0.077l0.031,0.012l0.286,0.115l0.312,0.075c1.081,0.258,1.751,0.589,2.18,0.877
	c0.323,0.218,0.518,0.413,0.663,0.593c0.213,0.268,0.324,0.52,0.399,0.779c0.072,0.255,0.091,0.508,0.09,0.64l-0.001,0.06
	l-0.07,0.434L133.598,141.166z M239.022,151.208c-0.219,0.716-0.588,1.569-1.172,2.556c-0.668,0.912-3.095,4.332-6.072,9.924
	c-3.432,6.445-7.594,15.771-10.594,27.439c-0.062,0.243-0.091,0.4-0.115,0.648c0,0.014-0.092,0.9-0.342,2.178
	c-0.188,0.958-0.467,2.135-0.848,3.316c-0.285,0.887-0.629,1.773-1.018,2.564c-0.291,0.594-0.607,1.133-0.928,1.579
	c-0.24,0.336-0.481,0.62-0.711,0.847c-0.349,0.342-0.66,0.549-0.938,0.676c-0.284,0.125-0.541,0.189-0.939,0.193h-0.001
	c0.994-7.113,1.502-14.234,1.768-19.738c0.287-5.935,0.287-9.979,0.287-10.029c0-2.373-1.924-4.295-4.295-4.295
	s-4.295,1.922-4.295,4.295c0.002,0.08-0.011,10.507-1.199,22.154c-0.592,5.818-1.484,11.947-2.769,17.149
	c-0.64,2.599-1.379,4.964-2.188,6.91c-0.403,0.972-0.824,1.839-1.245,2.573c-0.417,0.73-0.837,1.328-1.222,1.781
	c-0.069,0.078-0.238,0.268-0.488,0.551c-1.174,1.328-4.159,4.699-7.213,8.129c-1.525,1.714-3.068,3.443-4.408,4.936
	c-1.321,1.471-2.45,2.717-3.146,3.467c-0.242,0.25-2.232,2.301-4.812,4.791c-1.3,1.256-2.748,2.621-4.187,3.916
	s-2.871,2.52-4.104,3.475c-4.787,3.711-9.322,6.115-13.557,7.605c-4.234,1.488-8.176,2.068-11.822,2.07
	c-3.644,0-6.994-0.586-9.991-1.475c-4.492-1.332-8.18-3.357-10.708-5.039c-1.263-0.838-2.236-1.588-2.874-2.112
	c-0.319-0.263-0.555-0.468-0.701-0.597c-0.074-0.066-0.125-0.113-0.153-0.139l-0.021-0.021H122l-0.003-0.004h-0.001v0.002
	c-0.179-0.172-0.361-0.319-0.568-0.459c-1.472-0.99-3.037-2.23-4.528-3.529c-2.241-1.947-4.321-4.018-5.821-5.588
	c-0.751-0.785-1.358-1.445-1.773-1.904c-0.207-0.23-0.367-0.408-0.472-0.527c-0.053-0.061-0.092-0.104-0.117-0.133l-0.026-0.031
	l-0.005-0.006l-0.099-0.108c-0.39-0.421-0.933-1.019-1.573-1.729c-2.245-2.494-5.686-6.395-8.556-9.66
	c-1.436-1.633-2.73-3.108-3.665-4.176c-0.468-0.535-0.845-0.967-1.106-1.265c-0.201-0.229-0.33-0.377-0.38-0.435
	c-0.389-0.455-0.81-1.057-1.231-1.793c-0.795-1.385-1.577-3.236-2.272-5.383c-1.225-3.761-2.197-8.416-2.922-13.226
	c-1.093-7.222-1.65-14.808-1.926-20.554c-0.139-2.875-0.208-5.291-0.242-6.984c-0.018-0.846-0.026-1.51-0.03-1.961
	c-0.003-0.225-0.004-0.396-0.004-0.51c0-0.057-0.001-0.098-0.001-0.127v-0.029v-0.006c0-2.373-1.922-4.295-4.294-4.295
	c-2.372,0-4.295,1.922-4.295,4.295c0.001,0.086-0.001,10.705,1.23,22.883c0.229,2.26,0.501,4.572,0.824,6.885h-0.001
	c-0.425-0.004-0.691-0.076-0.999-0.222c-0.264-0.128-0.559-0.332-0.884-0.653c-0.284-0.281-0.584-0.648-0.877-1.09
	c-0.516-0.771-1.001-1.768-1.399-2.82c-0.602-1.582-1.012-3.283-1.252-4.551c-0.122-0.635-0.202-1.162-0.251-1.52
	c-0.024-0.178-0.041-0.312-0.05-0.396c-0.005-0.043-0.009-0.072-0.01-0.088l-0.002-0.014c-0.024-0.248-0.052-0.405-0.114-0.648
	c-3.001-11.668-7.163-20.994-10.595-27.439c-2.977-5.592-5.404-9.014-6.072-9.924c-0.584-0.986-0.953-1.84-1.171-2.556
	c-0.228-0.75-0.301-1.353-0.302-1.856c0.002-0.682,0.132-1.201,0.33-1.678c0.149-0.355,0.342-0.679,0.558-0.969
	c0.322-0.436,0.697-0.789,0.963-1.003c0.133-0.108,0.237-0.181,0.289-0.216l0.028-0.018l0.001-0.001l-0.002-0.002
	c0.067-0.04,0.13-0.082,0.194-0.125c0.154,0.218,0.306,0.439,0.455,0.669c1.217,1.858,2.261,4.028,2.966,5.694
	c0.354,0.835,0.626,1.545,0.806,2.034c0.091,0.246,0.158,0.438,0.2,0.561c0.022,0.061,0.037,0.105,0.046,0.133l0.008,0.026h0.001
	v0.001l0.001,0.004l0.072,0.203c0.535,1.389,1.073,2.577,1.636,3.615c0.423,0.777,0.86,1.473,1.334,2.102
	c0.711,0.94,1.509,1.754,2.516,2.387c0.501,0.316,1.057,0.578,1.649,0.758c0.592,0.181,1.219,0.275,1.827,0.275
	c0.667,0,1.306-0.111,1.867-0.289c0.988-0.314,1.731-0.801,2.299-1.268c0.426-0.354,0.762-0.705,1.041-1.031
	c0.415-0.492,0.704-0.931,0.91-1.273c0.205-0.34,0.325-0.586,0.373-0.686c0.233-0.49,0.366-0.994,0.405-1.533
	c0.062-0.856,0.088-1.736,0.088-2.637c-0.001-2.279-0.167-4.701-0.408-7.082c-0.213-2.097-0.486-4.155-0.765-6.029
	c2.055,0.792,3.783,1.316,5.115,1.658c-0.044,1.016-0.084,2.359-0.084,3.851c0,1.593,0.045,3.35,0.191,5.084
	c0.074,0.869,0.173,1.734,0.312,2.582c0.129,0.783,0.292,1.551,0.514,2.314c0.062,0.254,0.191,0.721,0.43,1.348
	c0.449,1.162,1.279,2.877,2.814,4.617c0.767,0.867,1.711,1.733,2.853,2.51c1.069,0.73,2.318,1.371,3.723,1.867
	c0.62,0.26,8.377,3.365,22.543,3.656c0.494,0.051,1.675,0.157,3.258,0.157c1.911-0.003,4.397-0.146,7.026-0.806
	c1.315-0.332,2.67-0.799,4.001-1.486c1.327-0.688,2.638-1.605,3.773-2.842l0.306-0.332l0.229-0.389
	c0.01-0.018,1.082-1.834,2.458-4.277c0.688-1.221,1.451-2.6,2.199-3.993c0.747-1.394,1.477-2.802,2.105-4.101l0.035-0.071
	l0.031-0.071c0.049-0.113,0.653-1.494,1.269-3.543c0.308-1.025,0.619-2.219,0.859-3.521c0.009-0.053,0.017-0.106,0.026-0.158
	c0.483-0.148,0.961-0.277,1.429-0.375c1.084-0.227,2.122-0.323,3.092-0.34c0.971,0.017,2.009,0.113,3.093,0.34
	c0.468,0.098,0.945,0.227,1.429,0.375c0.009,0.052,0.017,0.105,0.026,0.158c0.359,1.953,0.878,3.666,1.31,4.924
	c0.433,1.258,0.781,2.057,0.818,2.141l0.03,0.07l0.035,0.072c0.627,1.299,1.358,2.707,2.105,4.101
	c2.24,4.177,4.641,8.241,4.656,8.271l0.229,0.389l0.306,0.332c1.135,1.236,2.445,2.154,3.773,2.842
	c1.998,1.029,4.043,1.57,5.939,1.891c1.896,0.316,3.654,0.4,5.086,0.401c1.584,0,2.766-0.106,3.259-0.157
	c13.743-0.283,21.454-3.213,22.469-3.625c1.94-0.676,3.572-1.635,4.875-2.701c1.013-0.828,1.832-1.713,2.486-2.572
	c0.981-1.289,1.597-2.512,1.983-3.451c0.316-0.771,0.478-1.352,0.549-1.645c0.224-0.765,0.387-1.533,0.516-2.318
	c0.207-1.271,0.328-2.582,0.402-3.883s0.101-2.588,0.101-3.783c0-1.071-0.021-2.064-0.049-2.917c1.3-0.184,2.75-0.586,4.313-1.296
	c0.272-0.123,0.549-0.257,0.828-0.398c-0.035,0.172-0.068,0.336-0.1,0.486c-0.102,0.478-0.184,0.839-0.239,1.073
	c-0.028,0.118-0.049,0.203-0.062,0.256l-0.014,0.054l-0.002,0.008c-0.063,0.245-0.109,0.52-0.127,0.771
	c-0.156,2.202-0.227,4.096-0.227,5.741c0.001,2.182,0.121,3.92,0.338,5.371c0.164,1.088,0.381,2.016,0.674,2.854
	c0.221,0.627,0.484,1.207,0.819,1.752c0.252,0.406,0.545,0.795,0.889,1.148c0.513,0.531,1.156,0.98,1.834,1.262
	c0.224,0.094,0.446,0.162,0.667,0.22c0.573,0.209,1.146,0.293,1.635,0.291c0.459,0,0.853-0.062,1.188-0.144
	c0.653-0.164,1.106-0.387,1.489-0.601c0.357-0.202,0.648-0.407,0.916-0.612c0.5-0.383,0.918-0.775,1.328-1.187
	c0.709-0.718,1.377-1.498,2.021-2.292c0.959-1.189,1.847-2.402,2.507-3.333c0.551-0.776,0.938-1.347,1.062-1.533
	c0.482-0.618,0.935-1.263,1.363-1.938c0.846-1.338,1.619-2.779,2.329-4.209c0.327-0.66,0.638-1.313,0.931-1.953
	c0.213,0.24,0.424,0.52,0.599,0.824c0.169,0.295,0.31,0.613,0.411,0.965c0.1,0.353,0.162,0.74,0.162,1.205
	C239.323,149.856,239.25,150.458,239.022,151.208"/>
<path fill="#FFFFFF" d="M144.26,20.738c8.779,0,18.414,1.285,28.778,4.422c10.258,3.104,21.229,8.022,32.823,15.273
	c1.115,0.441,3.867,1.661,7.43,4.158c4.447,3.115,10.146,8.232,15.402,16.236c3.504,5.333,6.808,11.944,9.429,20.062
	c3.495,10.825,5.78,24.323,5.778,41.084c0,2.126-0.037,4.306-0.112,6.539c-0.005,0.29-0.046,1.712-0.417,3.765
	c-0.299,1.64-0.809,3.687-1.715,5.876c0.242,0.149,0.677,0.434,1.222,0.875c0.704,0.571,1.594,1.401,2.453,2.557
	c0.571,0.771,1.128,1.687,1.579,2.757c0.602,1.426,1.005,3.133,1.003,5.01c0.001,1.387-0.216,2.855-0.677,4.362
	c-0.459,1.508-1.158,3.052-2.115,4.633c-0.092,0.151-0.148,0.235-0.254,0.375l-0.002,0.001l-0.01,0.014
	c-0.013,0.016-0.035,0.047-0.065,0.088c-0.062,0.086-0.161,0.221-0.292,0.406c-0.264,0.371-0.658,0.942-1.155,1.705
	c-0.993,1.523-2.397,3.811-3.983,6.789c-3.144,5.902-6.994,14.52-9.785,25.27c-0.067,0.562-0.223,1.687-0.524,3.127
	c-0.424,2.004-1.11,4.607-2.34,7.213c-0.827,1.732-1.896,3.488-3.44,5.025c-0.884,0.875-1.935,1.672-3.168,2.272
	c-1.397,0.685-3.031,1.087-4.726,1.087h-0.03h-0.006c-0.484,0-0.973-0.031-1.46-0.094c-0.569,2.718-1.233,5.344-2.026,7.787
	c-0.828,2.543-1.789,4.895-2.984,6.992c-0.641,1.117-1.35,2.164-2.166,3.121l-0.047,0.051c-0.002,0.004-6.784,7.678-11.598,13.049
	c-1.609,1.793-2.99,3.322-3.863,4.263l-0.057,0.06c-0.017,0.017-1.158,1.201-2.889,2.916s-4.044,3.957-6.424,6.106
	c-1.59,1.435-3.204,2.823-4.735,4.013c-5.442,4.221-10.808,7.104-15.968,8.918c-5.154,1.815-10.096,2.557-14.658,2.557h-0.016
	h-0.002c-4.567,0-8.749-0.735-12.433-1.828c-3.686-1.096-6.878-2.545-9.505-3.991c-4.483-2.472-7.325-4.922-8.185-5.702
	c-1.764-1.213-3.468-2.574-5.06-3.957c-1.682-1.463-3.238-2.943-4.572-4.275c-2.45-2.442-4.15-4.373-4.448-4.713
	c-0.436-0.471-0.98-1.07-1.615-1.775c-0.657-0.73-1.406-1.568-2.21-2.473c-1.607-1.807-3.43-3.873-5.149-5.826
	c-3.436-3.903-6.453-7.355-6.455-7.357l-0.029-0.033c-0.818-0.957-1.527-2.004-2.167-3.121c-0.639-1.119-1.208-2.31-1.727-3.563
	c-1.038-2.507-1.883-5.269-2.601-8.188c-0.243-0.99-0.466-2.004-0.681-3.027c-0.489,0.062-0.976,0.094-1.462,0.094h-0.005h-0.027
	c-1.609,0-3.165-0.361-4.512-0.984c-1.361-0.625-2.507-1.492-3.455-2.445c-0.634-0.635-1.185-1.312-1.672-2.008
	c-0.65-0.926-1.188-1.885-1.648-2.842c-0.612-1.275-1.087-2.553-1.467-3.761c-0.506-1.61-0.844-3.103-1.072-4.302
	c-0.207-1.088-0.32-1.922-0.376-2.381c-2.725-10.498-6.46-18.963-9.563-24.852c-3.127-5.941-5.608-9.263-5.725-9.418l-0.004-0.005
	c-0.106-0.14-0.163-0.224-0.255-0.375c-0.956-1.579-1.656-3.125-2.116-4.633c-0.46-1.507-0.676-2.976-0.675-4.362
	c-0.001-1.408,0.223-2.723,0.591-3.89c0.368-1.169,0.876-2.19,1.427-3.058c1.107-1.738,2.365-2.872,3.244-3.557
	c0.035-0.027,0.066-0.05,0.1-0.076c-0.235-1.491-1.731-11.443-1.733-24.512c0.001-6.157,0.333-13.007,1.304-20.005
	c0.972-6.999,2.578-14.148,5.172-20.908c1.73-4.505,3.901-8.839,6.636-12.815c3.641-5.297,8.306-9.963,14.165-13.42
	c3.033-1.791,6.382-3.251,10.036-4.323c1.3-1.249,4.009-3.688,8.058-6.521c5.724-4.003,14.122-8.785,24.94-11.981
	c7.209-2.129,15.492-3.548,24.727-3.548h0.006H144.26 M91.881,49.564L91.881,49.564c-0.545,0.575-1.25,0.996-2.015,1.2
	c-3.79,1.012-7.087,2.491-10.003,4.349c-2.914,1.859-5.451,4.102-7.681,6.672c-4.455,5.133-7.67,11.615-9.894,18.696
	c-1.484,4.716-2.527,9.686-3.228,14.643c-0.936,6.61-1.266,13.197-1.265,19.135c-0.001,7.105,0.47,13.28,0.909,17.485
	c0.235,2.251,1.199,4.364,2.736,6.025l0.071,0.077c1.211,1.318,2.23,2.752,3.117,4.183c0.284,0.46,0.554,0.92,0.811,1.376
	c0.202,0.358,0.53,0.515,0.856,0.515c0.554,0,1.099-0.454,0.993-1.143l-0.01-0.066c-0.591-3.882-1.197-6.838-1.224-6.971
	l-0.001-0.004l-0.011-0.054c-1.25-6.455-1.69-12.009-1.689-16.618c-0.002-10.266,2.185-15.829,2.371-16.276
	c0.675-1.643,2.275-2.662,3.977-2.662c0.397,0,0.8,0.055,1.198,0.171c1.156,0.336,2.124,0.458,2.951,0.458
	c0.844-0.001,1.544-0.125,2.167-0.32c0.622-0.197,1.168-0.469,1.66-0.789c0.005-0.003,0.009-0.006,0.014-0.009
	c0.713-0.463,0.904-1.426,0.469-2.155c-0.782-1.311-1.461-2.621-2.047-3.913c-1.165-2.57-1.975-5.066-2.539-7.347
	c-1.128-4.563-1.285-8.27-1.287-10.081c0-0.69,0.024-1.105,0.029-1.186c0.126-1.999,1.624-3.684,3.686-3.984
	c0.191-0.028,0.383-0.042,0.573-0.042c1.232,0,2.412,0.569,3.274,1.48c0.586,0.621,1.352,1.181,2.299,1.67
	c0.986,0.51,2.161,0.932,3.431,1.25c1.878,0.475,3.951,0.714,5.879,0.805c-0.372-0.767-0.694-1.528-0.97-2.279
	c-1.097-2.978-1.467-5.777-1.466-8.151c0-2.307,0.343-4.219,0.697-5.595c0.356-1.377,0.726-2.222,0.81-2.408
	c0.481-1.06,1.387-1.889,2.485-2.275c0.459-0.162,0.94-0.242,1.42-0.242c0.664,0,1.326,0.152,1.926,0.453v-0.001l0.021,0.01
	c0.026,0.013,0.076,0.037,0.15,0.07c0.146,0.068,0.385,0.173,0.707,0.305c0.646,0.264,1.629,0.631,2.886,1.001
	c2.511,0.742,6.109,1.49,10.301,1.49h0.01c1.961-0.001,4.05-0.165,6.231-0.562c-0.85-0.849-1.678-1.791-2.41-2.876
	c-0.511-0.76-0.976-1.591-1.341-2.522c-0.415-1.059-0.7-2.263-0.7-3.567c-0.001-0.691,0.082-1.406,0.257-2.112
	c0.176-0.705,0.444-1.399,0.793-2.054c0.701-1.314,1.709-2.449,2.916-3.418c0.807-0.647,1.708-1.229,2.71-1.765h-0.001
	c3.388-1.811,7.063-2.944,10.786-3.642c3.725-0.696,7.507-0.955,11.154-0.955c6.43,0.002,12.443,0.808,16.895,1.607
	c4.112,0.742,6.879,1.48,7.348,1.609c0.527,0.129,3.258,0.826,7.08,2.312c4.154,1.618,9.599,4.158,14.89,7.989
	c3.524,2.555,6.987,5.691,9.897,9.544c1.662,2.201,3.14,4.637,4.326,7.315c1.282,2.893,2.217,6.072,2.688,9.506
	c0.092-0.03,0.187-0.063,0.287-0.101c0.645-0.243,1.418-0.627,2.146-1.048c1.466-0.842,2.75-1.82,3.017-2.03l0.053-0.042h0.001
	c0.772-0.62,1.717-0.946,2.681-0.946c0.374,0,0.751,0.049,1.123,0.149c1.331,0.358,2.396,1.319,2.891,2.605
	c1.517,3.939,2.117,7.819,2.115,11.418c-0.001,3.298-0.496,6.362-1.225,9.095c-0.73,2.734-1.693,5.142-2.652,7.147
	c-0.576,1.203-1.15,2.26-1.676,3.159c0.043,0.004,0.086,0.008,0.131,0.008h0.002c0.209,0,0.491-0.05,0.85-0.193
	c0.357-0.143,0.772-0.379,1.162-0.66c0.785-0.559,1.441-1.284,1.571-1.444l0.026-0.031l0.002,0.001
	c0.824-1.036,2.064-1.62,3.355-1.62c0.311,0,0.625,0.034,0.938,0.104c1.617,0.361,2.877,1.613,3.249,3.228
	c1.71,7.431,2.276,14.585,2.276,20.856c-0.004,11.442-1.879,19.959-2.345,21.908c0,0-0.96,3.764,0.08,3.764
	c0.543,0,1.632-1.027,3.687-4.155c0.834-1.268,1.433-2.82,2.048-4.199c1.231-2.76,2.088-5.09,2.093-5.105
	c0.061-0.168,0.146-0.361,0.23-0.519c0.951-1.808,1.504-3.73,1.797-5.234s0.332-2.58,0.334-2.676l0.002-0.006l0.001-0.077
	c0.073-2.157,0.11-4.259,0.11-6.304c-0.002-17.651-2.65-31.153-6.394-41.447c-3.747-10.295-8.582-17.4-13.078-22.291
	c-2.999-3.258-5.853-5.529-8.146-7.067c-3.058-2.051-5.121-2.798-5.159-2.811l0.001-0.001c-0.289-0.102-0.617-0.258-0.872-0.419
	c-11.146-7.01-21.535-11.657-31.115-14.556c-9.58-2.898-18.354-4.052-26.301-4.053c-8.155,0-15.444,1.218-21.826,3.057
	c-6.38,1.84-11.85,4.305-16.329,6.798c-8.958,4.982-13.94,10.093-14.202,10.37L91.881,49.564 M141.831,43.627h-0.014
	c-3.23,0-6.502,0.236-9.561,0.81c-3.065,0.572-5.907,1.482-8.312,2.771l-0.001,0.001c-0.913,0.487-1.474,0.931-1.772,1.236
	c-0.301,0.311-0.344,0.453-0.358,0.486l-0.008,0.053c-0.001,0.045,0.011,0.206,0.138,0.505c0.123,0.295,0.361,0.707,0.705,1.159
	c0.684,0.909,1.782,1.947,2.876,2.808c0.729,0.578,1.454,1.088,2.052,1.484c0.798,0.529,1.372,0.854,1.44,0.893l0.001,0.001
	c1.425,0.79,2.286,2.336,2.207,3.964c-0.079,1.628-1.085,3.082-2.58,3.732c-6.143,2.667-12.066,3.57-17.19,3.57h-0.018
	c-5.212-0.001-9.608-0.917-12.74-1.84c-0.026-0.007-0.05-0.015-0.075-0.022c-0.005,0.152-0.009,0.306-0.009,0.465
	c0.001,1.496,0.227,3.251,0.938,5.184c0.714,1.934,1.911,4.065,3.975,6.327c1.072,1.173,1.409,2.846,0.874,4.343
	c-0.535,1.496-1.855,2.577-3.428,2.805c-0.14,0.019-2.812,0.404-6.542,0.406c-2.161-0.001-4.678-0.129-7.296-0.562
	c-1.465-0.245-2.965-0.588-4.454-1.07c0.457,2.11,1.165,4.477,2.257,6.884c0.919,2.024,2.104,4.077,3.634,6.046
	c1.001,1.287,1.187,3.018,0.483,4.489c-0.081,0.169-0.429,0.873-1.109,1.84c-0.68,0.966-1.692,2.201-3.138,3.391
	c-0.963,0.791-2.122,1.561-3.489,2.182c-1.814,0.828-4.004,1.377-6.443,1.377h-0.023h-0.008c-0.338,0-0.682-0.014-1.029-0.035
	c-0.435,2.183-0.871,5.438-0.871,9.754c0,3.533,0.294,7.776,1.124,12.717c3.369,1.707,6.112,2.692,8.009,3.25
	c0.513-1.54,1.204-2.851,1.999-3.921c0.599-0.808,1.252-1.477,1.902-2.012c0.867-0.716,1.724-1.193,2.448-1.505
	c0.828-0.356,1.48-0.501,1.844-0.563c0.005-0.001,0.01-0.002,0.015-0.003c0.009-0.001,0.016-0.002,0.024-0.003
	c6.767-1.18,12.872-1.62,18.204-1.62c13.817,0.001,22.426,2.941,24.085,3.559c2.032,0.521,3.765,1.331,5.159,2.374
	c1.47,1.093,2.533,2.433,3.21,3.733c0.362,0.692,0.618,1.369,0.802,2.004c1.237-0.206,2.683-0.355,4.292-0.356
	c0.098,0,0.202,0.006,0.301,0.007c0.1-0.001,0.204-0.007,0.302-0.007c1.607,0.001,3.054,0.15,4.291,0.356
	c0.336-1.164,0.933-2.486,1.936-3.736c0.682-0.854,1.547-1.664,2.58-2.356c1.303-0.876,2.865-1.561,4.663-2.021
	c1.677-0.623,10.281-3.555,24.078-3.556h0.003c5.339,0,11.453,0.441,18.229,1.624c0.004,0.001,0.006,0.001,0.008,0.001
	c0.002,0.001,0.003,0.001,0.004,0.001c0.417,0.071,1.215,0.252,2.217,0.734c1.145,0.547,2.555,1.521,3.775,3.082
	c0.814,1.036,1.539,2.32,2.08,3.836c0.151,0.422,0.285,0.865,0.408,1.322c0.41-0.087,0.943-0.25,1.627-0.557
	c1.291-0.583,3.094-1.697,5.366-3.761c0.167-0.151,0.343-0.281,0.525-0.401c0.143-2.074,0.233-4.323,0.233-6.708
	c0.002-3.863-0.244-8.076-0.865-12.44c-0.493,0.194-1.014,0.37-1.574,0.504c-0.745,0.177-1.551,0.285-2.399,0.285h-0.003h-0.02
	c-1.202,0-2.49-0.231-3.728-0.737c-1.245-0.506-2.427-1.277-3.493-2.265c-0.711-0.659-1.377-1.413-2.002-2.263
	c-1.145-1.552-1.109-3.688,0.082-5.202v-0.001l0.012-0.016c0.015-0.02,0.043-0.057,0.084-0.112c0.082-0.11,0.211-0.289,0.379-0.531
	c0.332-0.485,0.814-1.225,1.354-2.173c1.079-1.896,2.381-4.63,3.229-7.817c0.568-2.125,0.937-4.449,0.936-6.881
	c0-1.003-0.062-2.024-0.197-3.061c-0.148,0.076-0.295,0.151-0.447,0.225c-1.079,0.525-2.252,1.01-3.568,1.328
	c-0.754,0.179-1.561,0.304-2.448,0.306c-0.665,0-1.38-0.073-2.122-0.276c-0.74-0.202-1.508-0.542-2.205-1.037
	c-0.465-0.329-0.895-0.722-1.267-1.159c-0.498-0.582-0.892-1.235-1.183-1.91c-0.392-0.901-0.612-1.834-0.729-2.793
	c-0.376-3.108-1.229-5.875-2.437-8.393c-1.207-2.516-2.773-4.782-4.582-6.827c-3.608-4.09-8.211-7.272-12.541-9.585
	c-2.883-1.545-5.635-2.708-7.855-3.531c-2.958-1.098-4.97-1.593-5.092-1.623l-0.166-0.043l-0.014-0.003l-0.075-0.02
	c-0.07-0.021-0.181-0.049-0.33-0.088c-0.297-0.077-0.745-0.189-1.324-0.326c-1.159-0.273-2.842-0.642-4.892-1.011
	c-4.092-0.739-9.649-1.473-15.349-1.473H141.831 M175.143,163.032h0.055h0.009c1.385,0,2.366-0.111,2.421-0.119l0.227-0.028
	l0.23-0.005c12.752-0.236,19.475-2.945,19.619-3.004l0.135-0.057l0.156-0.051c0.703-0.236,1.271-0.523,1.753-0.832
	c0.479-0.311,0.872-0.646,1.202-0.99c0.662-0.683,1.076-1.416,1.305-1.932c0.145-0.322,0.21-0.546,0.225-0.594l0.022-0.109
	l0.052-0.168c0.102-0.328,0.212-0.812,0.305-1.38c0.092-0.569,0.17-1.224,0.229-1.919c0.118-1.391,0.161-2.936,0.161-4.359
	c0-2.759-0.159-5.058-0.165-5.139v-0.001l-0.013-0.155v-0.155c0-1.939-0.252-3.303-0.555-4.234
	c-0.306-0.933-0.646-1.442-0.914-1.759c-0.182-0.21-0.337-0.337-0.461-0.423c-0.117-0.081-0.207-0.123-0.255-0.142
	c-6.239-1.085-11.827-1.483-16.676-1.484h-0.007c-13.318,0.001-21.061,3.01-21.172,3.053l-0.282,0.114l-0.312,0.074
	c-1.217,0.292-1.91,0.672-2.33,0.984c-0.42,0.318-0.602,0.578-0.742,0.836c-0.09,0.171-0.15,0.345-0.191,0.514
	c-0.055,0.224-0.068,0.438-0.068,0.556l0.002,0.06l0.068,0.435l-0.052,0.548c-0.024,0.252-0.038,0.529-0.038,0.822
	c-0.001,0.78,0.094,1.673,0.254,2.56c0.159,0.887,0.381,1.769,0.609,2.543c0.395,1.345,0.81,2.37,0.924,2.644
	c0.525,1.084,1.167,2.326,1.838,3.578c0.686,1.281,1.4,2.575,2.055,3.738c0.975,1.736,1.813,3.184,2.225,3.887
	c0.299,0.268,0.672,0.525,1.131,0.764c0.604,0.312,1.346,0.582,2.156,0.787C171.875,162.897,173.714,163.032,175.143,163.032
	 M117.542,163.032c1.074,0,2.383-0.07,3.652-0.283c1.277-0.211,2.503-0.575,3.405-1.047c0.459-0.238,0.833-0.496,1.131-0.762
	c0.039-0.068,0.078-0.134,0.124-0.213c0.253-0.436,0.614-1.059,1.042-1.807c0.856-1.496,1.983-3.497,3.048-5.484
	c0.694-1.293,1.36-2.58,1.903-3.699c0.025-0.06,0.064-0.154,0.115-0.283c0.102-0.258,0.252-0.649,0.418-1.135
	c0.334-0.967,0.734-2.312,0.985-3.686c0.17-0.914,0.271-1.84,0.27-2.645c0-0.293-0.013-0.57-0.038-0.823l-0.053-0.547l0.07-0.435
	l0.001-0.06c0.001-0.133-0.018-0.386-0.09-0.64c-0.075-0.26-0.186-0.512-0.399-0.78c-0.145-0.179-0.34-0.375-0.663-0.593
	c-0.429-0.287-1.099-0.618-2.18-0.877l-0.312-0.074l-0.286-0.115l-0.031-0.012c-0.039-0.015-0.109-0.041-0.21-0.078
	c-0.203-0.072-0.53-0.185-0.976-0.324c-0.892-0.279-2.261-0.665-4.072-1.055c-3.622-0.782-9.009-1.582-15.885-1.583
	c-4.847,0.001-10.436,0.399-16.675,1.484c-0.059,0.023-0.184,0.082-0.353,0.213c-0.127,0.1-0.279,0.241-0.451,0.459
	c-0.228,0.293-0.498,0.728-0.751,1.43c-0.335,0.933-0.631,2.356-0.631,4.456v0.155l-0.012,0.155v0.001l-0.001,0.015l-0.004,0.07
	c-0.005,0.063-0.011,0.161-0.019,0.289c-0.015,0.256-0.036,0.633-0.057,1.102c-0.042,0.937-0.084,2.241-0.084,3.663
	c0,1.068,0.024,2.203,0.086,3.291s0.164,2.133,0.305,2.987c0.092,0.567,0.203,1.052,0.304,1.38l0.052,0.168l0.024,0.109l0.009,0.033
	c0.021,0.07,0.068,0.211,0.145,0.4c0.154,0.379,0.433,0.936,0.867,1.504c0.289,0.379,0.646,0.764,1.09,1.127
	c0.595,0.483,1.34,0.934,2.372,1.283l0.154,0.051l0.14,0.059l0.013,0.006c0.029,0.012,0.086,0.033,0.171,0.064
	c0.17,0.064,0.45,0.164,0.841,0.291c0.78,0.254,1.999,0.611,3.646,0.981c3.295,0.741,8.301,1.537,14.945,1.659l0.231,0.005
	l0.228,0.028l0.005,0.002c0.019,0.002,0.055,0.006,0.106,0.011c0.103,0.011,0.269,0.026,0.485,0.042
	c0.434,0.031,1.074,0.064,1.831,0.064H117.542 M70.051,163.802h-0.008h-0.01c-0.605,0-1.229-0.095-1.817-0.274
	c-0.592-0.18-1.148-0.443-1.649-0.758c-1.007-0.634-1.805-1.447-2.516-2.387c-0.474-0.629-0.911-1.322-1.334-2.102
	c-0.563-1.039-1.101-2.227-1.635-3.615l-0.073-0.205l-0.001-0.002l0,0v-0.002L61,154.434c-0.009-0.027-0.024-0.074-0.046-0.135
	c-0.042-0.124-0.109-0.314-0.199-0.561c-0.18-0.49-0.453-1.199-0.807-2.033c-0.705-1.668-1.749-3.836-2.966-5.696
	c-0.149-0.229-0.301-0.451-0.455-0.669c-0.063,0.043-0.127,0.085-0.194,0.125l0.002,0.002l-0.001,0.001l-0.028,0.019
	c-0.052,0.034-0.156,0.108-0.289,0.215c-0.266,0.214-0.641,0.568-0.963,1.003c-0.215,0.289-0.409,0.615-0.558,0.969
	c-0.198,0.477-0.328,0.996-0.33,1.678c0.001,0.506,0.075,1.107,0.302,1.857c0.218,0.715,0.587,1.568,1.172,2.556
	c0.667,0.909,3.094,4.331,6.071,9.923c3.432,6.445,7.594,15.771,10.595,27.439c0.062,0.242,0.09,0.4,0.114,0.648h0.001l0.001,0.014
	c0.002,0.016,0.005,0.045,0.01,0.088c0.009,0.084,0.026,0.219,0.05,0.396c0.049,0.357,0.13,0.885,0.251,1.52
	c0.24,1.268,0.65,2.969,1.252,4.55c0.398,1.054,0.884,2.05,1.399,2.821c0.293,0.443,0.593,0.811,0.877,1.09
	c0.325,0.32,0.62,0.525,0.885,0.654c0.307,0.144,0.573,0.217,0.998,0.221h0.001c-0.323-2.312-0.595-4.625-0.824-6.885
	c-1.231-12.176-1.229-22.797-1.23-22.883c0-2.373,1.923-4.295,4.295-4.295s4.294,1.922,4.294,4.295v0.006l0.001,0.031
	c0,0.026,0,0.068,0,0.125c0,0.113,0.002,0.285,0.004,0.51c0.004,0.451,0.013,1.115,0.03,1.961c0.034,1.693,0.103,4.109,0.242,6.984
	c0.276,5.746,0.833,13.332,1.926,20.553c0.725,4.812,1.697,9.465,2.922,13.226c0.696,2.147,1.477,3.997,2.272,5.384
	c0.421,0.736,0.842,1.34,1.231,1.795c0.05,0.057,0.179,0.203,0.38,0.434c0.261,0.297,0.638,0.73,1.106,1.263
	c0.935,1.067,2.229,2.544,3.665,4.179c2.87,3.264,6.311,7.164,8.556,9.658c0.64,0.711,1.183,1.309,1.573,1.729l0.099,0.109
	l0.005,0.006l0.026,0.031c0.025,0.027,0.064,0.072,0.117,0.133c0.105,0.118,0.265,0.299,0.472,0.527
	c0.415,0.459,1.022,1.119,1.773,1.904c1.501,1.57,3.58,3.642,5.821,5.588c1.491,1.297,3.056,2.539,4.529,3.529
	c0.206,0.139,0.388,0.287,0.567,0.459h0.001l0.003,0.002l0.001,0.002l0.021,0.019c0.028,0.026,0.079,0.073,0.153,0.14
	c0.146,0.131,0.382,0.336,0.701,0.598c0.638,0.523,1.611,1.273,2.875,2.113c2.527,1.68,6.215,3.705,10.707,5.037
	c2.997,0.889,6.348,1.475,9.991,1.475c3.646-0.002,7.588-0.582,11.825-2.07c4.233-1.49,8.768-3.895,13.555-7.605
	c1.232-0.955,2.666-2.181,4.103-3.475c1.439-1.295,2.888-2.66,4.187-3.915c2.58-2.489,4.57-4.542,4.812-4.792
	c0.696-0.751,1.825-1.996,3.146-3.469c1.34-1.491,2.883-3.221,4.41-4.934c3.052-3.43,6.037-6.801,7.211-8.129
	c0.25-0.283,0.418-0.473,0.488-0.551c0.385-0.453,0.805-1.051,1.221-1.781c0.422-0.734,0.843-1.601,1.246-2.574
	c0.81-1.945,1.549-4.311,2.188-6.91c1.284-5.201,2.177-11.33,2.769-17.148c1.188-11.646,1.201-22.074,1.199-22.154
	c0-2.373,1.924-4.295,4.295-4.295s4.295,1.922,4.295,4.295c0,0.051,0,4.094-0.287,10.031c-0.266,5.502-0.773,12.623-1.768,19.736
	h0.001c0.397-0.004,0.655-0.068,0.938-0.193c0.281-0.127,0.591-0.334,0.938-0.676c0.23-0.227,0.472-0.512,0.712-0.848
	c0.321-0.446,0.637-0.984,0.928-1.578c0.389-0.791,0.732-1.678,1.018-2.564c0.382-1.182,0.659-2.359,0.848-3.316
	c0.25-1.277,0.342-2.164,0.342-2.178c0.024-0.248,0.053-0.406,0.115-0.648c3-11.668,7.162-20.994,10.594-27.439
	c2.978-5.591,5.404-9.013,6.072-9.923c0.584-0.987,0.953-1.842,1.172-2.558c0.228-0.748,0.301-1.35,0.303-1.855
	c-0.002-0.465-0.064-0.852-0.164-1.205c-0.102-0.352-0.242-0.67-0.411-0.965c-0.175-0.305-0.386-0.582-0.599-0.824
	c-0.293,0.639-0.604,1.295-0.931,1.953c-0.709,1.43-1.483,2.87-2.33,4.209c-0.428,0.676-0.88,1.32-1.362,1.939
	c-0.125,0.186-0.512,0.756-1.062,1.533c-0.661,0.931-1.548,2.144-2.507,3.332c-0.644,0.793-1.312,1.574-2.021,2.293
	c-0.41,0.41-0.828,0.803-1.328,1.187c-0.268,0.205-0.559,0.409-0.916,0.612c-0.383,0.213-0.836,0.438-1.489,0.6
	c-0.337,0.081-0.729,0.143-1.188,0.145h-0.013c-0.485,0-1.054-0.084-1.622-0.291c-0.22-0.059-0.443-0.127-0.667-0.221
	c-0.678-0.281-1.321-0.73-1.834-1.262c-0.344-0.354-0.638-0.742-0.89-1.148c-0.334-0.545-0.598-1.125-0.818-1.752
	c-0.292-0.838-0.51-1.765-0.674-2.854c-0.217-1.449-0.337-3.189-0.337-5.372c0-1.644,0.069-3.538,0.226-5.74
	c0.018-0.251,0.062-0.526,0.127-0.771h-0.001l0.002-0.008l0.015-0.054c0.013-0.053,0.033-0.139,0.062-0.256
	c0.056-0.235,0.138-0.597,0.239-1.074c0.031-0.149,0.064-0.314,0.1-0.486c-0.279,0.142-0.556,0.275-0.828,0.399
	c-1.563,0.71-3.014,1.111-4.313,1.295c0.028,0.853,0.049,1.845,0.049,2.917c0,1.194-0.026,2.482-0.101,3.783
	s-0.195,2.611-0.402,3.883c-0.129,0.785-0.292,1.553-0.516,2.318c-0.071,0.293-0.232,0.872-0.549,1.646
	c-0.387,0.938-1.002,2.16-1.983,3.449c-0.654,0.858-1.474,1.744-2.486,2.572c-1.303,1.066-2.935,2.025-4.874,2.701
	c-1.016,0.412-8.727,3.343-22.469,3.623c-0.494,0.054-1.676,0.158-3.26,0.16c-1.432-0.002-3.189-0.086-5.086-0.401
	c-1.896-0.321-3.941-0.862-5.939-1.892c-1.328-0.688-2.639-1.606-3.773-2.842l-0.306-0.332l-0.229-0.39
	c-0.016-0.028-2.416-4.093-4.656-8.271c-0.747-1.393-1.477-2.801-2.105-4.1l-0.035-0.072l-0.03-0.07
	c-0.037-0.084-0.386-0.883-0.818-2.141c-0.432-1.258-0.95-2.971-1.31-4.924c-0.01-0.052-0.018-0.105-0.026-0.158
	c-0.483-0.148-0.961-0.277-1.429-0.375c-1.084-0.226-2.122-0.323-3.093-0.339c-0.97,0.016-2.008,0.113-3.092,0.339
	c-0.468,0.098-0.946,0.227-1.429,0.375c-0.009,0.053-0.017,0.106-0.026,0.158c-0.24,1.303-0.551,2.496-0.859,3.521
	c-0.616,2.05-1.22,3.431-1.269,3.543l-0.031,0.072l-0.034,0.07c-0.629,1.299-1.359,2.707-2.106,4.1
	c-0.748,1.395-1.511,2.773-2.199,3.994c-1.376,2.443-2.448,4.26-2.458,4.276l-0.229,0.39l-0.306,0.332
	c-1.135,1.235-2.446,2.154-3.773,2.842c-1.331,0.688-2.686,1.154-4.001,1.488c-2.629,0.658-5.115,0.801-7.025,0.805
	c-1.584-0.002-2.765-0.106-3.259-0.16c-14.165-0.289-21.923-3.395-22.543-3.652c-1.405-0.498-2.654-1.141-3.723-1.867
	c-1.142-0.779-2.086-1.646-2.853-2.513c-1.535-1.737-2.365-3.452-2.814-4.616c-0.239-0.627-0.368-1.095-0.43-1.348
	c-0.222-0.764-0.385-1.531-0.514-2.314c-0.138-0.849-0.238-1.713-0.311-2.58c-0.147-1.736-0.192-3.494-0.192-5.086
	c0-1.492,0.041-2.835,0.084-3.852c-1.332-0.342-3.06-0.866-5.115-1.658c0.279,1.874,0.552,3.931,0.765,6.029
	c0.241,2.382,0.408,4.803,0.408,7.082c0,0.9-0.026,1.779-0.088,2.636c-0.039,0.54-0.172,1.044-0.405,1.534
	c-0.047,0.1-0.168,0.346-0.373,0.688c-0.206,0.342-0.495,0.779-0.91,1.271c-0.279,0.327-0.614,0.679-1.041,1.032
	c-0.568,0.467-1.311,0.953-2.299,1.267C71.352,163.69,70.715,163.802,70.051,163.802 M144.26,17.787h-0.011
	c-8.726,0-17.327,1.234-25.569,3.668c-9.275,2.74-17.954,6.91-25.795,12.393c-3.739,2.615-6.403,4.932-7.887,6.315
	c-3.561,1.101-6.928,2.582-10.017,4.407c-5.889,3.474-10.969,8.282-15.097,14.289c-2.708,3.937-5.049,8.456-6.959,13.429
	c-2.439,6.357-4.236,13.611-5.34,21.56c-0.883,6.368-1.331,13.236-1.331,20.411c0.001,10.851,1.014,19.59,1.527,23.326
	c-1.026,0.967-1.922,2.049-2.676,3.232c-0.751,1.183-1.34,2.446-1.753,3.759c-0.484,1.534-0.729,3.141-0.728,4.778
	c-0.001,1.715,0.27,3.473,0.805,5.223c0.534,1.754,1.346,3.537,2.413,5.299c0.143,0.236,0.258,0.406,0.423,0.623l0.004,0.006
	c0.024,0.031,2.433,3.246,5.471,9.016c2.71,5.145,6.51,13.48,9.269,24.033c0.071,0.557,0.191,1.374,0.381,2.376
	c0.306,1.608,0.695,3.168,1.156,4.634c0.476,1.514,1.007,2.871,1.622,4.154c0.577,1.201,1.196,2.268,1.892,3.26
	c0.617,0.879,1.289,1.686,1.998,2.396c1.291,1.297,2.743,2.32,4.313,3.043c1.514,0.701,3.188,1.119,4.883,1.227
	c0.057,0.245,0.114,0.482,0.17,0.713c0.814,3.311,1.711,6.127,2.74,8.614c0.597,1.44,1.216,2.714,1.893,3.897
	c0.777,1.359,1.59,2.529,2.485,3.576l0.038,0.043l0.011,0.014l0.012,0.013c0.316,0.362,3.205,3.666,6.452,7.354
	c2.021,2.295,3.756,4.26,5.159,5.836c0.807,0.908,1.561,1.752,2.221,2.486c0.658,0.73,1.187,1.311,1.616,1.775
	c0.392,0.447,2.129,2.406,4.557,4.828c1.603,1.6,3.191,3.084,4.72,4.412c1.775,1.543,3.511,2.906,5.163,4.051
	c1.192,1.066,4.144,3.514,8.593,5.967c3.244,1.786,6.638,3.211,10.09,4.234c4.363,1.295,8.829,1.953,13.273,1.953
	c5.26,0,10.522-0.918,15.657-2.725c5.721-2.012,11.373-5.164,16.797-9.371c1.438-1.117,3.043-2.476,4.902-4.154
	c1.995-1.801,4.189-3.887,6.525-6.201c1.679-1.664,2.81-2.832,2.933-2.961l0.011-0.012l0.014-0.012l0.056-0.061l0.009-0.01
	l0.008-0.008c0.804-0.865,2.078-2.273,3.897-4.302c4.394-4.899,10.414-11.706,11.576-13.021l0.019-0.021l0.01-0.01l0.027-0.032
	l0.045-0.052c0.909-1.062,1.723-2.232,2.499-3.59c1.212-2.123,2.267-4.588,3.229-7.541c0.568-1.754,1.088-3.629,1.572-5.684
	c1.797-0.113,3.568-0.578,5.168-1.363c1.42-0.69,2.75-1.642,3.944-2.824c1.584-1.574,2.901-3.487,4.029-5.854
	c1.097-2.324,1.935-4.895,2.563-7.871c0.293-1.398,0.459-2.533,0.541-3.181c2.813-10.757,6.707-19.222,9.486-24.44
	c1.58-2.969,2.966-5.207,3.852-6.563c0.483-0.743,0.859-1.286,1.09-1.61c0.119-0.168,0.207-0.289,0.262-0.365l0.051-0.068
	c0.166-0.219,0.282-0.389,0.428-0.627c1.066-1.764,1.879-3.549,2.414-5.303c0.534-1.748,0.805-3.506,0.805-5.223
	c0.002-2.109-0.426-4.241-1.236-6.159c-0.497-1.181-1.146-2.315-1.927-3.368c-0.737-0.99-1.581-1.9-2.517-2.713
	c0.454-1.386,0.819-2.827,1.09-4.305c0.381-2.114,0.451-3.637,0.463-4.216c0.076-2.238,0.115-4.465,0.115-6.618
	c0-15.695-1.992-29.823-5.923-41.991c-2.487-7.703-5.774-14.693-9.77-20.776c-5.73-8.725-11.959-14.079-16.177-17.033
	c-3.502-2.454-6.293-3.771-7.78-4.381c-11.128-6.936-22.335-12.136-33.312-15.457C163.923,19.317,153.953,17.787,144.26,17.787
	 M166.815,35.397c-0.617-0.167-3.451-0.915-7.567-1.657c-2.894-0.52-5.731-0.918-8.501-1.194c6.225,0.507,12.574,1.732,18.949,3.66
	c9.603,2.906,19.47,7.471,29.346,13.574l-0.128,0.435l2.627,0.92c0.129,0.049,1.913,0.741,4.51,2.484
	c2.654,1.78,5.218,4.006,7.619,6.615c5.188,5.642,9.385,12.809,12.476,21.301c4.123,11.34,6.215,24.946,6.215,40.438
	c0,2.025-0.035,4.113-0.107,6.204v0.018l-0.001,0.019v0.027v0.002l-0.002,0.057c0,0-0.031,0.891-0.281,2.168
	c-0.179,0.924-0.612,2.719-1.512,4.426c-0.146,0.276-0.283,0.59-0.39,0.882l-0.004,0.009c-0.023,0.063-0.233,0.63-0.578,1.498
	c0.418-3.567,0.74-7.884,0.742-12.705c0-7.501-0.791-14.741-2.351-21.519c-0.623-2.705-2.774-4.842-5.483-5.447
	c-0.519-0.116-1.051-0.175-1.58-0.175c-0.248,0-0.492,0.013-0.735,0.037c0.304-0.896,0.575-1.792,0.815-2.69
	c0.879-3.297,1.324-6.612,1.324-9.856c0.003-4.289-0.775-8.488-2.311-12.479c-0.827-2.152-2.651-3.795-4.879-4.395
	c-0.619-0.167-1.254-0.251-1.891-0.251c-0.523,0-1.046,0.058-1.554,0.171l-0.394-0.618l-2.566,2.03l-0.053,0.042
	c-0.008,0.006-0.615,0.483-1.467,1.048c-0.533-2.153-1.248-4.246-2.14-6.256c-1.219-2.751-2.79-5.409-4.669-7.898
	c-2.801-3.709-6.341-7.126-10.521-10.156c-4.549-3.293-9.779-6.102-15.549-8.349C170.405,36.332,167.63,35.6,166.815,35.397
	 M93.011,52.649l1-1.041l0.01-0.012c0.058-0.06,4.799-4.989,13.508-9.833c4.073-2.267,8.356-4.154,12.771-5.627
	c-0.613,0.283-1.213,0.581-1.801,0.896c-1.195,0.639-2.23,1.315-3.166,2.067c-1.58,1.267-2.816,2.724-3.672,4.33
	c-0.465,0.871-0.82,1.79-1.053,2.732c-0.229,0.919-0.346,1.87-0.345,2.825c0,1.55,0.304,3.113,0.904,4.643
	c0.257,0.653,0.56,1.29,0.917,1.923c-0.216,0.005-0.433,0.007-0.65,0.007c-4.001,0-7.36-0.744-9.475-1.368
	c-1.169-0.345-2.062-0.682-2.605-0.904c-0.295-0.12-0.498-0.211-0.593-0.254l-0.095-0.045l-0.005-0.003l-2.63-1.291l-0.273,0.545
	c-0.108-0.005-0.216-0.007-0.324-0.007c-0.822,0-1.629,0.137-2.4,0.408C93.027,52.644,93.02,52.646,93.011,52.649 M125.671,49.636
	c1.992-1.015,4.385-1.787,7.125-2.298c2.69-0.504,5.724-0.759,9.02-0.759h0.036c5.731,0,11.225,0.774,14.825,1.424
	c2.054,0.37,3.71,0.737,4.738,0.98c0.569,0.134,1.001,0.243,1.262,0.311c0.136,0.035,0.236,0.062,0.3,0.079l0.077,0.021l0.015,0.005
	l0.028,0.007l0.166,0.043l0.025,0.006l0.024,0.006c0.019,0.005,1.92,0.469,4.754,1.521c2.605,0.965,5.125,2.097,7.489,3.364
	c4.75,2.539,8.804,5.629,11.722,8.937c1.715,1.939,3.104,4.008,4.134,6.151c1.138,2.375,1.847,4.818,2.168,7.47
	c0.161,1.326,0.472,2.508,0.95,3.613c0.426,0.979,0.979,1.872,1.647,2.653c0.532,0.624,1.142,1.181,1.808,1.651
	c0.928,0.659,2.013,1.17,3.133,1.475c0.92,0.251,1.896,0.38,2.896,0.38c1.023-0.002,2.045-0.128,3.131-0.385
	c0.183-0.044,0.364-0.091,0.545-0.141c-0.09,1.601-0.358,3.243-0.801,4.897c-0.804,3.023-2.044,5.54-2.943,7.119
	c-0.502,0.883-0.939,1.553-1.219,1.96c-0.141,0.203-0.25,0.354-0.318,0.445l-0.051,0.07c-2.004,2.547-2.06,6.156-0.133,8.771
	c0.739,1.004,1.538,1.905,2.375,2.678c1.338,1.242,2.815,2.196,4.387,2.834c1.523,0.623,3.199,0.954,4.838,0.954h0.004h0.018
	c0.481,0,0.965-0.026,1.447-0.081c0.294,2.885,0.441,5.826,0.441,8.78c0,1.723-0.049,3.481-0.148,5.243
	c-1.18,1.04-2.166,1.753-2.953,2.24c-0.523-1.106-1.148-2.123-1.867-3.039c-1.666-2.129-3.541-3.307-4.822-3.92
	c-1.248-0.601-2.312-0.864-2.986-0.979l-0.008-0.002l-0.016-0.002c-6.332-1.105-12.631-1.665-18.721-1.665
	c-13.958,0-22.953,2.956-24.964,3.687c-2.043,0.539-3.868,1.343-5.427,2.391c-1.245,0.835-2.336,1.833-3.24,2.964
	c-0.594,0.74-1.104,1.533-1.527,2.371c-0.796-0.066-1.595-0.099-2.392-0.099c-0.086,0-0.174,0.002-0.263,0.005l-0.04,0.001
	l-0.04-0.001c-0.088-0.003-0.176-0.005-0.261-0.005c-0.798,0-1.598,0.033-2.394,0.099c-0.028-0.055-0.057-0.11-0.085-0.165
	c-0.948-1.823-2.354-3.462-4.064-4.733c-1.686-1.261-3.718-2.213-6.037-2.825c-2.01-0.732-11.002-3.69-24.968-3.69
	c-6.083-0.001-12.375,0.558-18.703,1.661l-0.009,0.002l-0.025,0.004c-0.804,0.136-1.674,0.4-2.516,0.762
	c-1.124,0.484-2.187,1.136-3.16,1.939c-0.884,0.728-1.691,1.581-2.396,2.532c-0.465,0.627-0.889,1.301-1.268,2.017
	c-1.067-0.399-2.309-0.911-3.694-1.566c-0.562-3.744-0.846-7.35-0.846-10.74c0-2.764,0.191-5.051,0.427-6.824
	c2.167-0.167,4.293-0.707,6.22-1.587c1.468-0.667,2.862-1.538,4.139-2.587c1.389-1.144,2.626-2.48,3.676-3.97
	c0.737-1.049,1.165-1.865,1.355-2.258c1.196-2.501,0.884-5.402-0.811-7.583c-1.279-1.646-2.382-3.481-3.277-5.455
	c-0.242-0.533-0.469-1.079-0.682-1.635c2.328,0.367,4.844,0.553,7.486,0.554c3.558-0.001,6.205-0.33,6.932-0.431l0.009-0.002
	l0.026-0.003c2.662-0.386,4.879-2.2,5.784-4.733c0.905-2.534,0.34-5.342-1.475-7.327c-1.589-1.742-2.697-3.495-3.385-5.359
	c-0.09-0.244-0.172-0.489-0.246-0.735c3.081,0.612,6.215,0.922,9.363,0.923h0.018c6.357,0,12.536-1.284,18.365-3.815
	c2.512-1.09,4.221-3.562,4.353-6.296c0.132-2.732-1.325-5.354-3.713-6.683c-0.04-0.022-0.541-0.307-1.254-0.779
	c-0.45-0.298-1.135-0.771-1.847-1.336C126.733,50.652,126.142,50.12,125.671,49.636 M62.884,134.851
	c-0.684-1.019-1.117-2.197-1.244-3.412c-0.408-3.911-0.895-10.065-0.894-17.178c0-6.629,0.416-12.927,1.236-18.722
	c0.726-5.125,1.776-9.893,3.121-14.172c2.261-7.198,5.393-13.135,9.309-17.646c2.098-2.42,4.466-4.478,7.038-6.119
	c2.79-1.777,5.793-3.081,9.178-3.985c0.325-0.087,0.642-0.196,0.949-0.326l0.037,0.034c-1.204,0.751-2.179,1.849-2.772,3.155
	c-0.166,0.365-0.587,1.368-0.98,2.89c-0.525,2.035-0.791,4.166-0.792,6.333c-0.001,2.336,0.311,4.657,0.929,6.926
	c-0.239-0.051-0.472-0.104-0.697-0.161c-1.074-0.27-2.039-0.618-2.797-1.01c-0.64-0.331-1.148-0.692-1.512-1.077
	c-1.444-1.526-3.419-2.402-5.418-2.402c-0.333,0-0.67,0.023-0.999,0.072c-3.382,0.493-5.992,3.319-6.206,6.719
	c-0.008,0.131-0.034,0.614-0.034,1.372c0.002,2.397,0.241,6.212,1.372,10.789c0.676,2.729,1.59,5.372,2.717,7.858
	c0.445,0.982,0.932,1.954,1.453,2.902c-0.32,0.077-0.655,0.114-1.032,0.115c-0.64-0.001-1.336-0.112-2.123-0.341
	c-0.656-0.191-1.337-0.289-2.021-0.289c-2.954,0-5.587,1.763-6.708,4.493c-0.262,0.63-2.595,6.56-2.593,17.397
	C61.401,124.065,61.899,129.369,62.884,134.851 M164.114,139.792c0.244-0.092,7.64-2.847,20.09-2.847
	c4.971,0,10.119,0.435,15.32,1.295c0.062,0.131,0.127,0.294,0.187,0.48c0.187,0.571,0.41,1.616,0.41,3.315v0.155v0.107l0.007,0.106
	l0.012,0.155c0.002,0.029,0.158,2.241,0.157,4.926c0.001,1.525-0.051,2.946-0.149,4.109c-0.055,0.628-0.123,1.212-0.203,1.691
	c-0.074,0.467-0.158,0.816-0.211,0.988l-0.054,0.172l-0.034,0.117l-0.021,0.09c-0.015,0.037-0.035,0.092-0.065,0.16
	c-0.082,0.186-0.312,0.65-0.73,1.082c-0.206,0.215-0.43,0.396-0.684,0.561c-0.32,0.205-0.677,0.375-1.091,0.514l-0.151,0.051
	l-0.108,0.036l-0.106,0.046l-0.102,0.043c-0.533,0.207-6.835,2.566-18.557,2.784l-0.229,0.005l-0.157,0.002l-0.158,0.02
	l-0.228,0.029c-0.001,0-0.846,0.096-2.051,0.096h-0.063c-1.504,0-3.011-0.166-4.135-0.453c-0.596-0.148-1.134-0.342-1.525-0.545
	c-0.09-0.047-0.168-0.092-0.234-0.133c-0.451-0.777-1.137-1.967-1.91-3.344c-0.741-1.32-1.422-2.559-2.025-3.686
	c-0.688-1.288-1.275-2.43-1.746-3.396c-0.115-0.283-0.457-1.146-0.785-2.265c-0.228-0.77-0.412-1.541-0.536-2.232
	c-0.134-0.746-0.208-1.468-0.207-2.036c0-0.199,0.008-0.38,0.022-0.54l0.053-0.549l0.037-0.376l-0.015-0.093
	c0.2-0.096,0.515-0.214,0.99-0.329l0.308-0.073l0.213-0.051l0.203-0.081L164.114,139.792z M93.198,138.24
	c5.201-0.86,10.348-1.295,15.313-1.295c6.811,0,12.059,0.824,15.262,1.516c1.747,0.377,3.039,0.745,3.815,0.988
	c0.402,0.125,0.69,0.224,0.862,0.286c0.075,0.027,0.129,0.047,0.159,0.058l0.262,0.106l0.202,0.08l0.211,0.051l0.312,0.075
	c0.473,0.113,0.787,0.231,0.989,0.328l-0.015,0.093l0.037,0.376l0.052,0.548c0.016,0.161,0.024,0.342,0.024,0.537
	c0.001,0.591-0.077,1.338-0.22,2.109c-0.248,1.352-0.653,2.623-0.873,3.262c-0.153,0.443-0.287,0.793-0.372,1.01
	c-0.025,0.062-0.047,0.115-0.064,0.158c-0.486,0.998-1.095,2.18-1.811,3.516c-1.088,2.029-2.237,4.064-3.009,5.414
	c-0.336,0.586-0.63,1.095-0.862,1.494c-0.065,0.041-0.141,0.084-0.229,0.129c-0.598,0.314-1.539,0.594-2.528,0.756
	c-1.207,0.203-2.391,0.246-3.173,0.246h-0.019c-0.691,0-1.26-0.031-1.616-0.057c-0.178-0.014-0.315-0.027-0.4-0.035l-0.06-0.006
	l-0.209-0.027l-0.157-0.02l-0.159-0.002l-0.231-0.005c-6.568-0.122-11.429-0.931-14.351-1.588c-1.569-0.354-2.706-0.69-3.383-0.909
	c-0.341-0.111-0.58-0.197-0.72-0.248c-0.042-0.018-0.074-0.029-0.096-0.037L96.03,157.1l-0.105-0.045l-0.109-0.035l-0.154-0.053
	c-0.573-0.193-1.035-0.439-1.445-0.773c-0.224-0.182-0.424-0.389-0.605-0.627c-0.277-0.361-0.429-0.701-0.482-0.83
	c-0.014-0.033-0.025-0.062-0.033-0.086l-0.02-0.088l-0.035-0.115l-0.051-0.168c-0.055-0.178-0.139-0.527-0.214-0.99
	c-0.119-0.725-0.213-1.65-0.271-2.68c-0.054-0.945-0.081-1.996-0.081-3.123c0-1.426,0.044-2.708,0.081-3.533
	c0.02-0.449,0.04-0.811,0.055-1.056l0.017-0.273l0.004-0.062l0.012-0.159l0.007-0.107v-0.105v-0.155c0-1.804,0.25-2.877,0.459-3.46
	C93.104,138.451,93.151,138.338,93.198,138.24 M144.35,148.454c0.65-0.11,1.313-0.172,2.011-0.186
	c0.699,0.014,1.361,0.074,2.012,0.186c0.282,1.187,0.636,2.396,1.054,3.615c0.438,1.271,0.803,2.129,0.904,2.363l0.033,0.076
	l0.021,0.049l0.023,0.047l0.033,0.072c0.592,1.223,1.299,2.6,2.164,4.214c2.086,3.892,4.285,7.644,4.705,8.356v0.002l0.012,0.018
	l0.229,0.389l0.158,0.268l0.21,0.229l0.306,0.332c1.266,1.379,2.811,2.545,4.59,3.467c2.004,1.033,4.228,1.744,6.805,2.18
	c1.759,0.294,3.633,0.441,5.578,0.443c1.568,0,2.789-0.096,3.441-0.162c13.801-0.299,21.705-3.16,23.326-3.809
	c2.12-0.748,4.039-1.818,5.705-3.182c1.1-0.898,2.098-1.93,2.963-3.064c0.971-1.275,1.766-2.66,2.366-4.119
	c0.353-0.861,0.558-1.553,0.671-2c0.023-0.08,0.045-0.158,0.066-0.238c0.172,0.898,0.387,1.709,0.648,2.461
	c0.305,0.865,0.661,1.625,1.094,2.326c0.377,0.613,0.81,1.17,1.285,1.66c0.803,0.83,1.78,1.5,2.823,1.93
	c0.276,0.117,0.575,0.22,0.918,0.314c0.804,0.276,1.664,0.422,2.498,0.422c0.653,0,1.269-0.076,1.896-0.228
	c1.02-0.255,1.727-0.608,2.231-0.89l0.011-0.006l0.012-0.006c0.065-0.039,0.131-0.076,0.195-0.115
	c-2.896,5.906-5.351,12.109-7.33,18.533c0.014-0.287,0.028-0.576,0.043-0.867c0.276-5.754,0.289-9.729,0.289-10.164
	c0-4.004-3.25-7.254-7.246-7.254s-7.246,3.25-7.246,7.246v0.022v0.003c0,0.398-0.026,10.479-1.186,21.829
	c-0.657,6.472-1.59,12.261-2.697,16.741c-0.625,2.539-1.313,4.72-2.048,6.484c-0.354,0.852-0.717,1.605-1.081,2.24
	c-0.378,0.66-0.691,1.077-0.891,1.314l-0.467,0.527c-1.154,1.305-4.166,4.707-7.207,8.123c-1.732,1.944-3.213,3.602-4.401,4.926
	c-1.375,1.531-2.442,2.709-3.092,3.408c-0.3,0.309-2.222,2.287-4.72,4.699c-1.467,1.417-2.851,2.711-4.111,3.846
	c-1.488,1.34-2.85,2.492-3.938,3.336c-4.192,3.25-8.475,5.656-12.728,7.153c-3.638,1.278-7.187,1.901-10.844,1.903
	c-3.046-0.002-6.125-0.457-9.15-1.354c-4.318-1.279-7.774-3.244-9.913-4.666c-1.196-0.793-2.094-1.492-2.637-1.938
	c-0.283-0.23-0.487-0.409-0.609-0.518c-0.052-0.047-0.09-0.082-0.111-0.102l-0.003-0.002l-1.307-1.236l-0.217,0.076
	c-1.124-0.796-2.378-1.791-3.664-2.91c-2.256-1.961-4.303-4.02-5.624-5.4c-0.753-0.789-1.349-1.438-1.717-1.844
	c-0.198-0.22-0.35-0.391-0.45-0.504l-0.104-0.119l-0.025-0.027l-0.015-0.018l-0.021-0.023l-0.098-0.109l-0.016-0.018l-0.017-0.018
	c-0.366-0.395-0.899-0.98-1.542-1.695c-2.32-2.578-5.921-6.662-8.533-9.633c-1.434-1.633-2.727-3.107-3.662-4.174l-0.932-1.064
	l-0.173-0.198l-0.356-0.407l-0.011-0.014c-0.201-0.234-0.518-0.654-0.901-1.327c-0.697-1.216-1.397-2.884-2.028-4.83
	c-1.083-3.321-2.054-7.729-2.812-12.755c-1.118-7.393-1.648-15.096-1.896-20.256c-0.141-2.936-0.208-5.373-0.239-6.9
	c-0.017-0.832-0.026-1.486-0.03-1.93c-0.002-0.219-0.003-0.385-0.003-0.495l-0.001-0.118v-0.029v-0.014v-0.007
	c-0.01-3.987-3.257-7.228-7.246-7.228c-3.996,0-7.247,3.25-7.247,7.246v0.021l0.001,0.008v0.012
	c0.002,0.715,0.028,5.029,0.334,11.004c-1.977-6.418-4.427-12.613-7.32-18.512c0.394,0.18,0.796,0.334,1.205,0.457
	c0.857,0.262,1.784,0.402,2.675,0.402h0.01c0.939,0,1.865-0.145,2.758-0.426c1.198-0.383,2.271-0.971,3.282-1.801
	c0.512-0.424,0.973-0.881,1.415-1.4c0.442-0.521,0.829-1.062,1.189-1.658c0.197-0.328,0.372-0.652,0.511-0.943
	c0.124-0.261,0.232-0.527,0.324-0.799c0.017,0.047,0.035,0.094,0.053,0.143c0.777,2.016,1.906,3.869,3.357,5.514
	c1.005,1.135,2.15,2.143,3.405,2.998c1.3,0.885,2.755,1.619,4.325,2.184c1.204,0.491,9.214,3.539,23.42,3.846
	c0.653,0.066,1.872,0.162,3.44,0.162c2.838-0.006,5.369-0.297,7.745-0.895c1.71-0.434,3.225-0.998,4.637-1.729
	c1.782-0.922,3.326-2.088,4.592-3.465l0.306-0.334l0.21-0.229l0.158-0.268l0.229-0.389c0.199-0.338,1.217-2.072,2.488-4.328
	c0.814-1.447,1.563-2.809,2.228-4.048c0.865-1.612,1.572-2.989,2.162-4.211l0.035-0.071l0.023-0.049l0.021-0.048l0.031-0.071
	l0.004-0.008l0.008-0.018c0.171-0.396,0.778-1.848,1.382-3.854C143.993,149.852,144.184,149.147,144.35,148.454"/>
<path fill="#2167B2" d="M122.604,140.321L122.604,140.321c-0.207-0.033-3.927-0.625-9.574-0.429
	c-3.325,0.116-7.321,0.507-11.662,1.465c-2.315,0.51-3.778,2.804-3.267,5.12c0.512,2.314,2.804,3.779,5.119,3.268
	c3.733-0.826,7.217-1.168,10.109-1.27c2.454-0.085,4.482,0.003,5.869,0.109c0.694,0.055,1.228,0.112,1.575,0.152
	c0.174,0.021,0.301,0.04,0.378,0.052l0.077,0.011h0.001c2.341,0.379,4.547-1.21,4.926-3.553
	C126.536,142.905,124.946,140.701,122.604,140.321"/>
<path fill="#2167B2" d="M171.307,148.8L171.307,148.8h0.004c0.002-0.001,0.003-0.001,0.005-0.001
	c0.101-0.017,3.284-0.488,8.022-0.322c2.92,0.102,6.426,0.444,10.154,1.269c2.316,0.513,4.609-0.949,5.121-3.267
	c0.511-2.315-0.951-4.607-3.268-5.119c-4.344-0.959-8.359-1.35-11.709-1.467c-5.69-0.197-9.465,0.392-9.667,0.423
	c-2.343,0.372-3.94,2.571-3.569,4.915C166.772,147.571,168.967,149.167,171.307,148.8"/>
<path fill="#2167B2" d="M169.317,205.118c-3.973,1.887-7.881,3.139-11.652,3.924s-7.406,1.101-10.817,1.101
	c-6.817,0.002-12.735-1.269-16.91-2.535c-2.087-0.633-3.736-1.263-4.842-1.724c-0.552-0.23-0.969-0.418-1.236-0.543
	c-0.133-0.062-0.23-0.109-0.287-0.137l-0.053-0.027l-0.009-0.004c-2.109-1.076-4.691-0.244-5.773,1.863
	c-1.084,2.11-0.251,4.699,1.859,5.783c0.18,0.09,3.052,1.553,7.849,3.008c4.796,1.453,11.522,2.903,19.402,2.904
	c3.94,0.001,8.165-0.363,12.565-1.279s8.973-2.383,13.59-4.574c2.142-1.018,3.053-3.58,2.037-5.723
	C174.021,205.012,171.459,204.1,169.317,205.118"/>
<path fill="#2167B2" d="M146.745,293.489c-19.809,0-39.027-3.881-57.121-11.534c-17.475-7.392-33.168-17.972-46.643-31.446
	c-13.476-13.476-24.056-29.168-31.447-46.643C3.881,185.772,0,166.553,0,146.745c0-19.809,3.881-39.027,11.534-57.121
	c7.391-17.476,17.971-33.168,31.447-46.644c13.475-13.475,29.168-24.056,46.643-31.447C107.718,3.881,126.936,0,146.745,0
	s39.027,3.881,57.121,11.534c17.475,7.391,33.168,17.972,46.643,31.447c13.476,13.476,24.056,29.168,31.446,46.644
	c7.654,18.094,11.534,37.312,11.534,57.121c0,19.809-3.88,39.027-11.534,57.121c-7.391,17.475-17.971,33.167-31.446,46.643
	c-13.475,13.475-29.168,24.055-46.643,31.446C185.772,289.608,166.553,293.489,146.745,293.489 M146.745,8.434
	c-36.944,0-71.677,14.387-97.801,40.51c-26.123,26.124-40.51,60.857-40.51,97.801c0,36.943,14.387,71.678,40.51,97.801
	c26.124,26.123,60.857,40.51,97.801,40.51c36.944,0,71.678-14.387,97.801-40.51s40.51-60.857,40.51-97.801
	c0-36.944-14.387-71.677-40.51-97.801C218.422,22.821,183.689,8.434,146.745,8.434"/>
<g>
</g>
<g>
</g>
<g>
</g>
<g>
</g>
<g>
</g>
<g>
</g>
<g>
</g>
<g>
</g>
<g>
</g>
<g>
</g>
<g>
</g>
<g>
</g>
<g>
</g>
<g>
</g>
<g>
</g>
</svg>
